M48
;GenerationSoftware,Autodesk,EAGLE,9.5.2*%
;CreationDate,2020-08-26T15:41:30Z*%
FMAT,2
ICI,OFF
METRIC,TZ,000.000
T11C0.305
T10C0.406
T9C0.600
T8C0.750
T7C0.813
T6C0.889
T5C1.000
T4C1.016
T3C2.200
T2C2.286
T1C3.100
%
G90
M71
T1
X5080Y34080
X91080Y34080
X3080Y3080
X93080Y-7920
T2
X86000Y10924
X86000Y-2284
T3
X58912Y12782
X35712Y12782
X35712Y36482
X58912Y36482
T4
X78507Y4320
X92985Y1780
X92985Y6860
X39632Y37142
X42172Y37142
X28067Y7112
X44712Y37142
X74168Y39116
X74168Y36576
X71628Y39116
X71628Y36576
X69088Y39116
X69088Y36576
X94234Y28448
X94234Y25908
X94234Y23368
X94234Y20828
X94234Y18288
X94234Y15748
X47252Y37142
X49792Y37142
X52332Y37142
X76962Y-889
X76962Y-3683
X20472Y2121
X17678Y2121
X12230Y2083
X9436Y2083
X54872Y37142
X78507Y1780
X78507Y6860
T5
X76708Y36576
T6
X4445Y7544
T7
X67107Y12700
X62141Y36652
X64681Y36652
X40284Y12700
X42824Y12700
X64567Y12700
T8
X49835Y14453
X64135Y28829
X31750Y15240
X31750Y13081
X15367Y14224
X62103Y16764
X66802Y28829
X15494Y10287
X22479Y1143
X94234Y13208
X94488Y4318
X19152Y40132
X22962Y2959
T9
X80112Y13945
T10
X6858Y15875
X44298Y13614
X5080Y29083
X81534Y30099
X55982Y14681
X52070Y12065
X47752Y13614
X11430Y14986
X1778Y13462
X889Y21844
X6604Y25146
X87757Y17653
X84328Y20066
X9144Y22911
X17526Y23622
X33782Y24892
X19304Y32207
X64364Y15418
X76708Y33020
X13640Y34290
X24206Y25527
X31496Y27813
X83312Y19685
X88138Y34671
X89281Y13081
X95123Y9144
X88011Y13589
X95123Y-2286
X88138Y16510
X68453Y33401
X85700Y-9271
X16002Y8255
X6985Y6096
X17526Y12065
X27559Y12700
X35306Y27813
X56007Y11938
X58039Y16002
X57404Y19304
X67310Y21412
X72263Y26289
X67310Y25908
X83134Y17907
X63373Y24511
X70231Y21971
X89916Y-2794
X95250Y11176
X91694Y14986
X76200Y7874
X78232Y14224
X79908Y20777
X76962Y26416
X82804Y39116
X86360Y39116
X70612Y32258
X58420Y29972
X56388Y30226
X1016Y18034
X17272Y20066
X27686Y14986
X23622Y14986
X21844Y15240
X84836Y21082
X71730Y10770
X44298Y17678
X67056Y32004
X54483Y28448
X82804Y27432
X75057Y31877
X50597Y20117
X21590Y8382
X33274Y18288
X88697Y-3962
X81788Y-4572
X56540Y17374
X78613Y30353
X73406Y33528
X76835Y20142
X18669Y12700
X23622Y8890
X24003Y1397
X88443Y26467
X59944Y23241
X83693Y22098
X75692Y21209
X13208Y13716
X83058Y-6807
X74295Y21184
X40386Y18542
X85979Y16637
X82347Y-8890
X67462Y16053
X81991Y13487
X75540Y-8890
X94564Y32004
X19939Y21971
X83058Y1524
X80645Y4572
X75438Y11786
X49251Y12954
X51740Y14580
X86392Y13684
X88900Y11557
X47549Y20930
X86868Y4953
X59080Y24181
X24689Y38354
X34544Y20828
X23114Y22606
X38100Y25908
X26467Y38862
X27330Y38862
X28194Y38862
X29058Y38862
X29921Y38862
X31496Y38303
X30785Y38811
X31598Y37389
X31852Y36424
X31801Y35611
X31750Y34747
X31699Y33884
X31191Y33172
X30328Y32868
X30988Y32410
X31953Y32766
X32461Y33528
X32512Y34442
X32614Y35306
X32410Y37135
X31648Y39218
X30429Y39573
X29464Y39675
X28448Y39726
X27534Y39726
X26619Y39726
X26111Y37948
X26060Y37135
X26010Y36322
X25959Y35458
X25908Y34646
X27940Y32664
X28753Y32664
X29566Y32664
X32664Y36271
X25349Y37643
X25298Y36779
X25248Y35966
X25248Y35204
X25451Y38760
X25705Y39624
X12446Y40538
X13310Y40538
X9601Y37694
X9601Y36728
X9550Y35662
X10516Y35560
X10312Y38506
X11176Y39421
X14630Y40589
X15799Y40640
X17069Y40691
X20828Y40589
X21641Y40640
X22606Y40691
X23571Y40691
X11633Y36068
X12446Y36678
X11786Y39980
X24486Y40691
X25095Y40183
X26060Y40640
X27432Y40742
X28905Y40742
X30378Y40589
X32512Y38202
X24740Y39370
T11
X88900Y21438
X78638Y8738
X60960Y21336
X14859Y26670
X14097Y26670
X13335Y26670
X13589Y27432
X14351Y27432
X15113Y27432
X14859Y28194
X14097Y28194
X13335Y28194
X13589Y28956
X14351Y28956
X15113Y28956
X77089Y15367
X82499Y23368
X28194Y18034
X26416Y15494
X76200Y-5334
X68478Y11684
X78943Y21285
X61976Y28804
X11938Y24892
X88900Y22301
X61722Y29718
X9906Y27432
X80137Y16637
X71984Y25197
X87249Y24892
X87884Y28194
X86614Y28194
X83820Y27432
X87122Y18669
X84836Y22352
X52578Y26670
X37846Y16764
X38354Y21082
X87122Y22352
X38862Y16002
X39370Y20828
X18542Y15367
X81483Y26162
X86360Y24892
X89154Y16510
X45212Y32004
X53594Y32766
X48514Y33020
X86081Y22377
X53848Y26670
X88900Y19685
X85852Y3048
X72492Y17831
X81890Y7518
X70053Y14021
X88900Y20574
X59436Y21590
X26670Y8636
X29210Y18288
X27432Y9144
X31496Y18288
M30