G04 EAGLE Gerber RS-274X export*
G75*
%MOMM*%
%FSLAX34Y34*%
%LPD*%
%INTop Copper*%
%IPPOS*%
%AMOC8*
5,1,8,0,0,1.08239X$1,22.5*%
G01*
%ADD10C,2.000000*%
%ADD11C,4.000000*%
%ADD12R,1.320800X0.558800*%
%ADD13R,1.200000X0.800000*%
%ADD14R,0.800000X1.200000*%
%ADD15R,3.200000X1.800000*%
%ADD16R,2.032000X2.032000*%
%ADD17C,2.032000*%
%ADD18C,3.600000*%
%ADD19R,1.600000X1.800000*%
%ADD20R,3.100000X1.000000*%
%ADD21R,1.700000X0.700000*%
%ADD22R,1.270000X0.558800*%
%ADD23R,0.558800X1.270000*%
%ADD24R,0.600000X1.200000*%
%ADD25R,0.800000X0.450000*%
%ADD26R,2.150000X0.500000*%
%ADD27R,2.400000X3.100000*%
%ADD28C,0.625000*%
%ADD29R,3.500000X4.100000*%
%ADD30R,1.397000X1.397000*%
%ADD31R,1.800000X1.600000*%
%ADD32R,0.900000X0.800000*%
%ADD33R,2.000000X1.200000*%
%ADD34R,2.286000X4.800000*%
%ADD35R,2.540000X2.540000*%
%ADD36R,0.700000X0.700000*%
%ADD37R,3.700000X1.800000*%
%ADD38C,1.000000*%
%ADD39C,1.500000*%
%ADD40C,1.879600*%
%ADD41R,1.879600X1.879600*%
%ADD42R,0.900000X0.350000*%
%ADD43R,0.350000X0.900000*%
%ADD44R,2.000000X1.780000*%
%ADD45P,2.034460X8X22.500000*%
%ADD46R,3.400000X2.600000*%
%ADD47C,0.762000*%
%ADD48C,0.609600*%
%ADD49C,0.914400*%
%ADD50C,0.812800*%
%ADD51C,0.304800*%
%ADD52C,0.812800*%
%ADD53C,0.635000*%
%ADD54C,0.406400*%
%ADD55C,0.609600*%
%ADD56C,0.603500*%
%ADD57C,0.508000*%
%ADD58C,2.500000*%
%ADD59C,1.676400*%
%ADD60C,1.016000*%
%ADD61C,0.254000*%
%ADD62C,1.930400*%
%ADD63R,1.016000X1.016000*%
%ADD64C,0.254000*%

G36*
X126520Y304493D02*
X126520Y304493D01*
X126523Y304493D01*
X126617Y304513D01*
X126714Y304532D01*
X126716Y304534D01*
X126719Y304534D01*
X126799Y304590D01*
X126880Y304645D01*
X126881Y304647D01*
X126883Y304649D01*
X126937Y304732D01*
X126989Y304813D01*
X126989Y304816D01*
X126991Y304818D01*
X127007Y304914D01*
X127025Y305010D01*
X127024Y305013D01*
X127024Y305016D01*
X127002Y305110D01*
X126981Y305206D01*
X126979Y305208D01*
X126979Y305211D01*
X126876Y305359D01*
X125230Y307004D01*
X125230Y309755D01*
X125229Y309763D01*
X125230Y309770D01*
X125209Y309860D01*
X125191Y309951D01*
X125186Y309958D01*
X125184Y309966D01*
X125082Y310114D01*
X124278Y310917D01*
X124278Y324601D01*
X125469Y325792D01*
X135153Y325792D01*
X136344Y324601D01*
X136344Y310903D01*
X136316Y310860D01*
X136264Y310781D01*
X136263Y310776D01*
X136260Y310771D01*
X136244Y310678D01*
X136226Y310584D01*
X136227Y310579D01*
X136226Y310574D01*
X136248Y310482D01*
X136268Y310388D01*
X136271Y310384D01*
X136272Y310379D01*
X136375Y310231D01*
X136576Y310029D01*
X136583Y310025D01*
X136587Y310019D01*
X136666Y309970D01*
X136743Y309918D01*
X136751Y309917D01*
X136757Y309913D01*
X136935Y309881D01*
X165325Y309881D01*
X165333Y309882D01*
X165341Y309881D01*
X165431Y309902D01*
X165522Y309920D01*
X165528Y309925D01*
X165536Y309927D01*
X165684Y310029D01*
X172571Y316916D01*
X172575Y316923D01*
X172581Y316927D01*
X172630Y317006D01*
X172682Y317083D01*
X172683Y317091D01*
X172687Y317097D01*
X172719Y317275D01*
X172719Y337385D01*
X185220Y349886D01*
X202958Y349886D01*
X202963Y349887D01*
X202968Y349886D01*
X203061Y349907D01*
X203155Y349925D01*
X203159Y349928D01*
X203164Y349929D01*
X203241Y349984D01*
X203320Y350038D01*
X203323Y350042D01*
X203327Y350045D01*
X203378Y350127D01*
X203430Y350206D01*
X203430Y350211D01*
X203433Y350216D01*
X203465Y350393D01*
X203465Y369647D01*
X204656Y370838D01*
X229200Y370838D01*
X230391Y369647D01*
X230391Y352425D01*
X230392Y352420D01*
X230391Y352415D01*
X230412Y352322D01*
X230430Y352228D01*
X230433Y352224D01*
X230434Y352219D01*
X230490Y352141D01*
X230543Y352063D01*
X230547Y352060D01*
X230550Y352056D01*
X230632Y352005D01*
X230711Y351953D01*
X230716Y351953D01*
X230721Y351950D01*
X230898Y351918D01*
X238270Y351918D01*
X240884Y350835D01*
X287078Y304641D01*
X287084Y304637D01*
X287089Y304631D01*
X287167Y304582D01*
X287245Y304530D01*
X287252Y304529D01*
X287259Y304525D01*
X287436Y304493D01*
X330000Y304493D01*
X330008Y304494D01*
X330015Y304493D01*
X330105Y304514D01*
X330197Y304532D01*
X330203Y304537D01*
X330211Y304539D01*
X330359Y304641D01*
X335359Y309641D01*
X335362Y309646D01*
X335366Y309649D01*
X335417Y309729D01*
X335470Y309808D01*
X335471Y309813D01*
X335473Y309818D01*
X335489Y309912D01*
X335507Y310005D01*
X335506Y310010D01*
X335507Y310015D01*
X335485Y310108D01*
X335466Y310201D01*
X335463Y310206D01*
X335461Y310211D01*
X335359Y310359D01*
X330507Y315210D01*
X330507Y334864D01*
X330506Y334871D01*
X330507Y334879D01*
X330486Y334969D01*
X330468Y335060D01*
X330463Y335067D01*
X330461Y335074D01*
X330359Y335222D01*
X315589Y349992D01*
X315583Y349996D01*
X315578Y350002D01*
X315500Y350051D01*
X315422Y350103D01*
X315415Y350104D01*
X315408Y350108D01*
X315231Y350140D01*
X308711Y350140D01*
X308706Y350139D01*
X308701Y350140D01*
X308608Y350119D01*
X308514Y350101D01*
X308510Y350098D01*
X308505Y350097D01*
X308427Y350041D01*
X308349Y349988D01*
X308346Y349984D01*
X308342Y349981D01*
X308291Y349899D01*
X308239Y349820D01*
X308239Y349815D01*
X308236Y349810D01*
X308204Y349633D01*
X308204Y335911D01*
X307013Y334720D01*
X270329Y334720D01*
X269138Y335911D01*
X269138Y378595D01*
X270329Y379786D01*
X307013Y379786D01*
X307617Y379181D01*
X307620Y379180D01*
X307621Y379178D01*
X307701Y379126D01*
X307784Y379070D01*
X307787Y379070D01*
X307789Y379069D01*
X307885Y379051D01*
X307981Y379033D01*
X307984Y379033D01*
X307986Y379033D01*
X308083Y379054D01*
X308177Y379074D01*
X308179Y379076D01*
X308182Y379076D01*
X308262Y379133D01*
X308342Y379189D01*
X308343Y379191D01*
X308345Y379192D01*
X308397Y379276D01*
X308449Y379358D01*
X308450Y379360D01*
X308451Y379363D01*
X308483Y379540D01*
X308483Y380516D01*
X309935Y384020D01*
X312616Y386701D01*
X312629Y386707D01*
X313854Y387214D01*
X315078Y387721D01*
X315079Y387721D01*
X316120Y388153D01*
X319912Y388153D01*
X323416Y386701D01*
X326097Y384020D01*
X327549Y380516D01*
X327549Y376724D01*
X326097Y373220D01*
X323416Y370539D01*
X322902Y370326D01*
X322896Y370322D01*
X322890Y370321D01*
X322814Y370266D01*
X322735Y370214D01*
X322732Y370208D01*
X322727Y370205D01*
X322677Y370125D01*
X322625Y370046D01*
X322624Y370040D01*
X322621Y370034D01*
X322589Y369857D01*
X322589Y363320D01*
X322590Y363313D01*
X322589Y363305D01*
X322610Y363215D01*
X322628Y363124D01*
X322633Y363117D01*
X322635Y363110D01*
X322737Y362962D01*
X329641Y356058D01*
X329644Y356056D01*
X329645Y356054D01*
X329726Y356002D01*
X329808Y355947D01*
X329811Y355946D01*
X329813Y355945D01*
X329909Y355927D01*
X330005Y355909D01*
X330008Y355910D01*
X330010Y355909D01*
X330107Y355931D01*
X330201Y355951D01*
X330203Y355952D01*
X330206Y355953D01*
X330286Y356009D01*
X330366Y356065D01*
X330367Y356067D01*
X330369Y356069D01*
X330421Y356152D01*
X330473Y356234D01*
X330474Y356237D01*
X330475Y356239D01*
X330507Y356416D01*
X330507Y410000D01*
X330506Y410007D01*
X330506Y410011D01*
X330507Y410015D01*
X330486Y410105D01*
X330468Y410197D01*
X330464Y410202D01*
X330463Y410207D01*
X330462Y410208D01*
X330461Y410211D01*
X330359Y410359D01*
X325359Y415359D01*
X325352Y415363D01*
X325348Y415369D01*
X325269Y415418D01*
X325192Y415470D01*
X325184Y415471D01*
X325177Y415475D01*
X325000Y415507D01*
X90000Y415507D01*
X89995Y415506D01*
X89990Y415507D01*
X89897Y415486D01*
X89804Y415468D01*
X89799Y415465D01*
X89794Y415464D01*
X89716Y415408D01*
X89638Y415355D01*
X89635Y415351D01*
X89631Y415348D01*
X89580Y415266D01*
X89528Y415187D01*
X89528Y415182D01*
X89525Y415177D01*
X89493Y415000D01*
X89493Y411400D01*
X89494Y411395D01*
X89493Y411390D01*
X89514Y411297D01*
X89532Y411203D01*
X89535Y411199D01*
X89536Y411194D01*
X89592Y411116D01*
X89645Y411038D01*
X89649Y411035D01*
X89652Y411031D01*
X89734Y410980D01*
X89813Y410928D01*
X89818Y410928D01*
X89823Y410925D01*
X90000Y410893D01*
X90299Y410893D01*
X92884Y409822D01*
X94862Y407844D01*
X95933Y405259D01*
X95933Y402461D01*
X94862Y399876D01*
X92884Y397898D01*
X92616Y397787D01*
X91392Y397280D01*
X90299Y396827D01*
X90000Y396827D01*
X89995Y396826D01*
X89990Y396827D01*
X89897Y396806D01*
X89804Y396788D01*
X89799Y396785D01*
X89794Y396784D01*
X89716Y396728D01*
X89638Y396675D01*
X89635Y396671D01*
X89631Y396668D01*
X89580Y396586D01*
X89528Y396507D01*
X89528Y396502D01*
X89525Y396497D01*
X89493Y396320D01*
X89493Y330000D01*
X89494Y329992D01*
X89493Y329985D01*
X89514Y329895D01*
X89532Y329804D01*
X89537Y329797D01*
X89539Y329789D01*
X89641Y329641D01*
X105412Y313870D01*
X105415Y313869D01*
X105416Y313867D01*
X105497Y313814D01*
X105579Y313759D01*
X105582Y313759D01*
X105584Y313757D01*
X105680Y313740D01*
X105776Y313722D01*
X105779Y313722D01*
X105781Y313722D01*
X105878Y313743D01*
X105972Y313763D01*
X105974Y313765D01*
X105977Y313765D01*
X106057Y313822D01*
X106137Y313878D01*
X106138Y313880D01*
X106140Y313881D01*
X106192Y313964D01*
X106244Y314047D01*
X106245Y314049D01*
X106246Y314052D01*
X106278Y314229D01*
X106278Y324601D01*
X107469Y325792D01*
X117153Y325792D01*
X118344Y324601D01*
X118344Y310917D01*
X117540Y310114D01*
X117536Y310107D01*
X117530Y310102D01*
X117481Y310024D01*
X117429Y309947D01*
X117428Y309939D01*
X117424Y309932D01*
X117392Y309755D01*
X117392Y305000D01*
X117393Y304995D01*
X117392Y304990D01*
X117413Y304897D01*
X117431Y304804D01*
X117434Y304799D01*
X117435Y304794D01*
X117491Y304716D01*
X117544Y304638D01*
X117548Y304635D01*
X117551Y304631D01*
X117633Y304580D01*
X117712Y304528D01*
X117717Y304528D01*
X117722Y304525D01*
X117899Y304493D01*
X126517Y304493D01*
X126520Y304493D01*
G37*
G36*
X190332Y304494D02*
X190332Y304494D01*
X190337Y304493D01*
X190430Y304514D01*
X190524Y304532D01*
X190528Y304535D01*
X190533Y304536D01*
X190611Y304592D01*
X190689Y304645D01*
X190692Y304649D01*
X190696Y304652D01*
X190747Y304734D01*
X190799Y304813D01*
X190799Y304818D01*
X190802Y304823D01*
X190834Y305000D01*
X190834Y308595D01*
X191007Y309241D01*
X191342Y309820D01*
X191815Y310293D01*
X192394Y310628D01*
X193040Y310801D01*
X196360Y310801D01*
X196360Y305000D01*
X196361Y304995D01*
X196360Y304990D01*
X196381Y304897D01*
X196399Y304804D01*
X196402Y304799D01*
X196403Y304794D01*
X196459Y304716D01*
X196512Y304638D01*
X196516Y304635D01*
X196519Y304631D01*
X196601Y304580D01*
X196680Y304528D01*
X196685Y304528D01*
X196690Y304525D01*
X196867Y304493D01*
X197883Y304493D01*
X197888Y304494D01*
X197893Y304493D01*
X197986Y304514D01*
X198079Y304532D01*
X198084Y304535D01*
X198089Y304536D01*
X198167Y304592D01*
X198245Y304645D01*
X198248Y304649D01*
X198252Y304652D01*
X198303Y304734D01*
X198354Y304813D01*
X198355Y304818D01*
X198358Y304823D01*
X198390Y305000D01*
X198390Y310801D01*
X201710Y310801D01*
X202356Y310628D01*
X202935Y310293D01*
X203408Y309820D01*
X203743Y309241D01*
X203916Y308595D01*
X203916Y305000D01*
X203917Y304995D01*
X203916Y304990D01*
X203937Y304897D01*
X203955Y304804D01*
X203958Y304799D01*
X203959Y304794D01*
X204015Y304716D01*
X204068Y304638D01*
X204072Y304635D01*
X204075Y304631D01*
X204157Y304580D01*
X204236Y304528D01*
X204241Y304528D01*
X204246Y304525D01*
X204423Y304493D01*
X208835Y304493D01*
X208840Y304494D01*
X208845Y304493D01*
X208938Y304514D01*
X209032Y304532D01*
X209036Y304535D01*
X209041Y304536D01*
X209119Y304592D01*
X209197Y304645D01*
X209200Y304649D01*
X209204Y304652D01*
X209255Y304734D01*
X209307Y304813D01*
X209307Y304818D01*
X209310Y304823D01*
X209342Y305000D01*
X209342Y309102D01*
X210533Y310293D01*
X220217Y310293D01*
X221408Y309102D01*
X221408Y305000D01*
X221409Y304995D01*
X221408Y304990D01*
X221429Y304897D01*
X221447Y304804D01*
X221450Y304799D01*
X221451Y304794D01*
X221507Y304716D01*
X221560Y304638D01*
X221564Y304635D01*
X221567Y304631D01*
X221649Y304580D01*
X221728Y304528D01*
X221733Y304528D01*
X221738Y304525D01*
X221915Y304493D01*
X265884Y304493D01*
X265886Y304493D01*
X265889Y304493D01*
X265984Y304513D01*
X266080Y304532D01*
X266082Y304534D01*
X266085Y304534D01*
X266166Y304590D01*
X266246Y304645D01*
X266247Y304647D01*
X266250Y304649D01*
X266303Y304732D01*
X266355Y304813D01*
X266356Y304816D01*
X266357Y304818D01*
X266374Y304914D01*
X266391Y305010D01*
X266390Y305013D01*
X266391Y305015D01*
X266369Y305109D01*
X266347Y305206D01*
X266346Y305208D01*
X266345Y305211D01*
X266242Y305359D01*
X234057Y337544D01*
X234051Y337548D01*
X234046Y337554D01*
X233968Y337603D01*
X233890Y337655D01*
X233883Y337656D01*
X233876Y337660D01*
X233699Y337692D01*
X230898Y337692D01*
X230893Y337691D01*
X230888Y337692D01*
X230795Y337671D01*
X230701Y337653D01*
X230697Y337650D01*
X230692Y337649D01*
X230614Y337593D01*
X230536Y337540D01*
X230533Y337536D01*
X230529Y337533D01*
X230478Y337451D01*
X230426Y337372D01*
X230426Y337367D01*
X230423Y337362D01*
X230391Y337185D01*
X230391Y319963D01*
X229200Y318772D01*
X204656Y318772D01*
X203465Y319963D01*
X203465Y339217D01*
X203464Y339222D01*
X203465Y339227D01*
X203444Y339320D01*
X203426Y339414D01*
X203423Y339418D01*
X203422Y339423D01*
X203366Y339501D01*
X203313Y339579D01*
X203309Y339582D01*
X203306Y339586D01*
X203224Y339637D01*
X203145Y339689D01*
X203140Y339689D01*
X203135Y339692D01*
X202958Y339724D01*
X189640Y339724D01*
X189632Y339723D01*
X189624Y339724D01*
X189534Y339703D01*
X189443Y339685D01*
X189437Y339680D01*
X189429Y339678D01*
X189281Y339576D01*
X183029Y333324D01*
X183025Y333317D01*
X183019Y333313D01*
X182970Y333234D01*
X182918Y333157D01*
X182917Y333149D01*
X182913Y333143D01*
X182881Y332965D01*
X182881Y312855D01*
X175384Y305359D01*
X175382Y305356D01*
X175380Y305355D01*
X175328Y305274D01*
X175273Y305192D01*
X175272Y305189D01*
X175271Y305187D01*
X175254Y305091D01*
X175235Y304995D01*
X175236Y304992D01*
X175235Y304990D01*
X175257Y304893D01*
X175277Y304799D01*
X175278Y304797D01*
X175279Y304794D01*
X175336Y304714D01*
X175391Y304634D01*
X175394Y304633D01*
X175395Y304631D01*
X175478Y304579D01*
X175560Y304527D01*
X175563Y304526D01*
X175565Y304525D01*
X175743Y304493D01*
X190327Y304493D01*
X190332Y304494D01*
G37*
G36*
X901702Y-101725D02*
X901702Y-101725D01*
X901704Y-101726D01*
X901747Y-101706D01*
X901791Y-101688D01*
X901791Y-101686D01*
X901793Y-101685D01*
X901826Y-101600D01*
X901826Y-81280D01*
X901825Y-81278D01*
X901826Y-81276D01*
X901806Y-81233D01*
X901788Y-81189D01*
X901786Y-81189D01*
X901785Y-81187D01*
X901700Y-81154D01*
X863600Y-81154D01*
X863598Y-81155D01*
X863596Y-81154D01*
X863553Y-81174D01*
X863509Y-81192D01*
X863509Y-81194D01*
X863507Y-81195D01*
X863474Y-81280D01*
X863474Y-101600D01*
X863475Y-101602D01*
X863474Y-101604D01*
X863494Y-101647D01*
X863512Y-101691D01*
X863514Y-101691D01*
X863515Y-101693D01*
X863600Y-101726D01*
X901700Y-101726D01*
X901702Y-101725D01*
G37*
G36*
X901702Y-76325D02*
X901702Y-76325D01*
X901704Y-76326D01*
X901747Y-76306D01*
X901791Y-76288D01*
X901791Y-76286D01*
X901793Y-76285D01*
X901826Y-76200D01*
X901826Y-55880D01*
X901825Y-55878D01*
X901826Y-55876D01*
X901806Y-55833D01*
X901788Y-55789D01*
X901786Y-55789D01*
X901785Y-55787D01*
X901700Y-55754D01*
X863600Y-55754D01*
X863598Y-55755D01*
X863596Y-55754D01*
X863553Y-55774D01*
X863509Y-55792D01*
X863509Y-55794D01*
X863507Y-55795D01*
X863474Y-55880D01*
X863474Y-76200D01*
X863475Y-76202D01*
X863474Y-76204D01*
X863494Y-76247D01*
X863512Y-76291D01*
X863514Y-76291D01*
X863515Y-76293D01*
X863600Y-76326D01*
X901700Y-76326D01*
X901702Y-76325D01*
G37*
G36*
X812802Y-101725D02*
X812802Y-101725D01*
X812804Y-101726D01*
X812847Y-101706D01*
X812891Y-101688D01*
X812891Y-101686D01*
X812893Y-101685D01*
X812926Y-101600D01*
X812926Y-81280D01*
X812925Y-81278D01*
X812926Y-81276D01*
X812906Y-81233D01*
X812888Y-81189D01*
X812886Y-81189D01*
X812885Y-81187D01*
X812800Y-81154D01*
X779780Y-81154D01*
X779778Y-81155D01*
X779776Y-81154D01*
X779733Y-81174D01*
X779689Y-81192D01*
X779689Y-81194D01*
X779687Y-81195D01*
X779654Y-81280D01*
X779654Y-101600D01*
X779655Y-101602D01*
X779654Y-101604D01*
X779674Y-101647D01*
X779692Y-101691D01*
X779694Y-101691D01*
X779695Y-101693D01*
X779780Y-101726D01*
X812800Y-101726D01*
X812802Y-101725D01*
G37*
G36*
X812802Y-76325D02*
X812802Y-76325D01*
X812804Y-76326D01*
X812847Y-76306D01*
X812891Y-76288D01*
X812891Y-76286D01*
X812893Y-76285D01*
X812926Y-76200D01*
X812926Y-55880D01*
X812925Y-55878D01*
X812926Y-55876D01*
X812906Y-55833D01*
X812888Y-55789D01*
X812886Y-55789D01*
X812885Y-55787D01*
X812800Y-55754D01*
X785199Y-55754D01*
X785196Y-55755D01*
X785193Y-55754D01*
X785110Y-55791D01*
X783196Y-57705D01*
X779780Y-57705D01*
X779778Y-57706D01*
X779776Y-57705D01*
X779733Y-57725D01*
X779689Y-57743D01*
X779689Y-57745D01*
X779687Y-57746D01*
X779654Y-57831D01*
X779654Y-76200D01*
X779655Y-76202D01*
X779654Y-76204D01*
X779674Y-76247D01*
X779692Y-76291D01*
X779694Y-76291D01*
X779695Y-76293D01*
X779780Y-76326D01*
X812800Y-76326D01*
X812802Y-76325D01*
G37*
%LPC*%
G36*
X155943Y345820D02*
X155943Y345820D01*
X155943Y371346D01*
X166693Y371346D01*
X167339Y371173D01*
X167918Y370838D01*
X168391Y370365D01*
X168726Y369786D01*
X168899Y369140D01*
X168899Y345820D01*
X155943Y345820D01*
G37*
%LPD*%
%LPC*%
G36*
X155943Y318264D02*
X155943Y318264D01*
X155943Y343790D01*
X168899Y343790D01*
X168899Y320470D01*
X168726Y319824D01*
X168391Y319245D01*
X167918Y318772D01*
X167339Y318437D01*
X166693Y318264D01*
X155943Y318264D01*
G37*
%LPD*%
%LPC*%
G36*
X140957Y345820D02*
X140957Y345820D01*
X140957Y369140D01*
X141130Y369786D01*
X141465Y370365D01*
X141938Y370838D01*
X142517Y371173D01*
X143163Y371346D01*
X153913Y371346D01*
X153913Y345820D01*
X140957Y345820D01*
G37*
%LPD*%
%LPC*%
G36*
X143163Y318264D02*
X143163Y318264D01*
X142517Y318437D01*
X141938Y318772D01*
X141465Y319245D01*
X141130Y319824D01*
X140957Y320470D01*
X140957Y343790D01*
X153913Y343790D01*
X153913Y318264D01*
X143163Y318264D01*
G37*
%LPD*%
%LPC*%
G36*
X154927Y344804D02*
X154927Y344804D01*
X154927Y344806D01*
X154929Y344806D01*
X154929Y344804D01*
X154927Y344804D01*
G37*
%LPD*%
D10*
X785070Y68600D03*
X785070Y17800D03*
X785070Y43200D03*
D11*
X860000Y-22840D03*
X860000Y109240D03*
D10*
X929850Y17800D03*
X929850Y68600D03*
D12*
X353822Y266446D03*
X353822Y257048D03*
X353822Y247650D03*
X379222Y247650D03*
X379222Y266446D03*
D13*
X224155Y191533D03*
X224155Y209533D03*
X241935Y191533D03*
X241935Y209533D03*
X259715Y191533D03*
X259715Y209533D03*
X277495Y191533D03*
X277495Y209533D03*
X313055Y191533D03*
X313055Y209533D03*
X295275Y191533D03*
X295275Y209533D03*
X204851Y191406D03*
X204851Y209406D03*
X186309Y191406D03*
X186309Y209406D03*
D14*
X194454Y252222D03*
X212454Y252222D03*
D15*
X344170Y224723D03*
X344170Y168723D03*
D14*
X269604Y16510D03*
X251604Y16510D03*
X251604Y34290D03*
X269604Y34290D03*
X251604Y52070D03*
X269604Y52070D03*
D16*
X396320Y371420D03*
D17*
X421720Y371420D03*
X447120Y371420D03*
X472520Y371420D03*
X497920Y371420D03*
X523320Y371420D03*
D18*
X589120Y127820D03*
X357120Y127820D03*
X357120Y364820D03*
X589120Y364820D03*
D17*
X548720Y371420D03*
D13*
X762000Y51960D03*
X762000Y69960D03*
X769620Y125620D03*
X769620Y143620D03*
D14*
X918320Y-40640D03*
X900320Y-40640D03*
D13*
X939800Y-21700D03*
X939800Y-3700D03*
X24257Y198738D03*
X24257Y180738D03*
D14*
X399940Y342900D03*
X417940Y342900D03*
D19*
X422940Y314960D03*
X394940Y314960D03*
D13*
X798957Y246778D03*
X798957Y264778D03*
D20*
X149680Y173040D03*
X59680Y173040D03*
X149680Y213040D03*
X59680Y213040D03*
D14*
X162162Y232537D03*
X144162Y232537D03*
D13*
X563880Y331360D03*
X563880Y349360D03*
X781177Y246778D03*
X781177Y264778D03*
D21*
X787527Y158053D03*
X787527Y170053D03*
X787527Y182053D03*
D22*
X816991Y220278D03*
X816991Y212278D03*
X816991Y204278D03*
X816991Y196278D03*
X816991Y188278D03*
X816991Y180278D03*
X816991Y172278D03*
X816991Y164278D03*
D23*
X831917Y149352D03*
X839917Y149352D03*
X847917Y149352D03*
X855917Y149352D03*
X863917Y149352D03*
X871917Y149352D03*
X879917Y149352D03*
X887917Y149352D03*
D22*
X902843Y164278D03*
X902843Y172278D03*
X902843Y180278D03*
X902843Y188278D03*
X902843Y196278D03*
X902843Y204278D03*
X902843Y212278D03*
X902843Y220278D03*
D23*
X887917Y235204D03*
X879917Y235204D03*
X871917Y235204D03*
X863917Y235204D03*
X855917Y235204D03*
X847917Y235204D03*
X839917Y235204D03*
X831917Y235204D03*
D13*
X903859Y254491D03*
X903859Y236491D03*
D24*
X274955Y167573D03*
X262255Y167573D03*
X249555Y167573D03*
X236855Y167573D03*
X224155Y167573D03*
X211455Y167573D03*
X198755Y167573D03*
X186055Y167573D03*
X186055Y111573D03*
X198755Y111573D03*
X211455Y111573D03*
X224155Y111573D03*
X236855Y111573D03*
X249555Y111573D03*
X262255Y111573D03*
X274955Y111573D03*
D13*
X298450Y131081D03*
X298450Y149081D03*
X447040Y331360D03*
X447040Y349360D03*
X472440Y331360D03*
X472440Y349360D03*
X497840Y331360D03*
X497840Y349360D03*
X523240Y331360D03*
X523240Y349360D03*
X548640Y331360D03*
X548640Y349360D03*
D25*
X776809Y313411D03*
X776809Y303911D03*
X776809Y294411D03*
X802309Y294411D03*
X802309Y303911D03*
X802309Y313411D03*
D26*
X113617Y296545D03*
X113617Y283845D03*
X113617Y271145D03*
X113617Y258445D03*
X171117Y258445D03*
X171117Y271145D03*
X171117Y283845D03*
X171117Y296545D03*
D27*
X142367Y277495D03*
D28*
X815594Y346884D02*
X847344Y346884D01*
X847344Y340634D01*
X815594Y340634D01*
X815594Y346884D01*
X815594Y346571D02*
X847344Y346571D01*
X847344Y374884D02*
X815594Y374884D01*
X847344Y374884D02*
X847344Y368634D01*
X815594Y368634D01*
X815594Y374884D01*
X815594Y374571D02*
X847344Y374571D01*
D29*
X288671Y262253D03*
X288671Y357253D03*
D14*
X780559Y329311D03*
X798559Y329311D03*
D30*
X826389Y321691D03*
X859409Y321691D03*
D31*
X866521Y373029D03*
X866521Y345029D03*
D14*
X727981Y305689D03*
X745981Y305689D03*
D13*
X761619Y299991D03*
X761619Y317991D03*
D14*
X745981Y287909D03*
X727981Y287909D03*
D19*
X828899Y298831D03*
X856899Y298831D03*
D32*
X569809Y157519D03*
X548809Y148019D03*
X548809Y167019D03*
D14*
X550029Y121479D03*
X532029Y121479D03*
D13*
X531379Y145931D03*
X531379Y163931D03*
D14*
X602598Y267843D03*
X584598Y267843D03*
D13*
X557657Y239378D03*
X557657Y221378D03*
X557657Y190898D03*
X557657Y208898D03*
D31*
X560578Y256383D03*
X560578Y284383D03*
D14*
X638700Y186563D03*
X656700Y186563D03*
X644415Y168910D03*
X662415Y168910D03*
D13*
X661162Y241537D03*
X661162Y223537D03*
D33*
X34798Y302512D03*
X34798Y270512D03*
X66421Y302004D03*
X66421Y270004D03*
X24892Y252347D03*
X24892Y220347D03*
D13*
X89667Y266099D03*
X89667Y284099D03*
D14*
X112311Y317759D03*
X130311Y317759D03*
D13*
X214757Y282812D03*
X214757Y264812D03*
D14*
X197375Y302260D03*
X215375Y302260D03*
D13*
X194437Y283447D03*
X194437Y265447D03*
D14*
X194213Y236748D03*
X212213Y236748D03*
D34*
X216928Y344805D03*
X154928Y344805D03*
D35*
X212725Y60579D03*
X165735Y60579D03*
D13*
X53848Y247633D03*
X53848Y229633D03*
X616712Y307611D03*
X616712Y325611D03*
D36*
X634342Y313330D03*
X647342Y313330D03*
X640842Y331830D03*
D37*
X119761Y108423D03*
X119761Y55923D03*
D34*
X18657Y97282D03*
X80657Y97282D03*
D13*
X596519Y308246D03*
X596519Y326246D03*
D38*
X88900Y403860D03*
X893699Y388366D03*
X949960Y-99060D03*
D13*
X20320Y145940D03*
X20320Y163940D03*
X939800Y92600D03*
X939800Y110600D03*
X229362Y253856D03*
X229362Y235856D03*
D19*
X41880Y142240D03*
X69880Y142240D03*
D14*
X69740Y48260D03*
X87740Y48260D03*
D19*
X372207Y286639D03*
X400207Y286639D03*
D14*
X390000Y228600D03*
X372000Y228600D03*
X778400Y197104D03*
X796400Y197104D03*
D13*
X904240Y133240D03*
X904240Y151240D03*
D39*
X229616Y29591D03*
D40*
X621411Y366522D03*
X646811Y366522D03*
D41*
X942340Y157480D03*
D40*
X942340Y182880D03*
X942340Y208280D03*
X942340Y233680D03*
X942340Y259080D03*
X942340Y284480D03*
D42*
X580350Y243020D03*
X580350Y236520D03*
X580350Y230020D03*
X580350Y223520D03*
X580350Y217020D03*
X580350Y210520D03*
X580350Y204020D03*
X638850Y204020D03*
X638850Y210520D03*
X638850Y217020D03*
X638850Y223520D03*
X638850Y230020D03*
X638850Y236520D03*
X638850Y243020D03*
D43*
X710750Y165060D03*
X717250Y165060D03*
X723750Y165060D03*
X730250Y165060D03*
X736750Y165060D03*
X743250Y165060D03*
X749750Y165060D03*
X749750Y223560D03*
X743250Y223560D03*
X736750Y223560D03*
X730250Y223560D03*
X723750Y223560D03*
X717250Y223560D03*
X710750Y223560D03*
D14*
X733950Y262890D03*
X751950Y262890D03*
X733950Y247650D03*
X751950Y247650D03*
X744330Y143510D03*
X726330Y143510D03*
X744838Y120142D03*
X726838Y120142D03*
D13*
X687070Y170070D03*
X687070Y188070D03*
D44*
X801190Y-66040D03*
X801190Y-91440D03*
X875690Y-91440D03*
X875690Y-66040D03*
D36*
X103020Y148950D03*
X90020Y148950D03*
X96520Y130450D03*
D14*
X806560Y124460D03*
X788560Y124460D03*
D13*
X767080Y-71010D03*
X767080Y-89010D03*
X797560Y-29608D03*
X797560Y-47608D03*
D14*
X661780Y259080D03*
X643780Y259080D03*
D13*
X687070Y221090D03*
X687070Y203090D03*
D45*
X690880Y365760D03*
X690880Y391160D03*
X716280Y365760D03*
X716280Y391160D03*
X741680Y365760D03*
X741680Y391160D03*
D14*
X294530Y113030D03*
X312530Y113030D03*
X290720Y168910D03*
X308720Y168910D03*
D39*
X498348Y144526D03*
D40*
X280670Y71120D03*
D39*
X641350Y288290D03*
X317500Y152400D03*
X317500Y130810D03*
X153670Y142240D03*
X621030Y167640D03*
X668020Y288290D03*
X154940Y102870D03*
X224790Y11430D03*
X942340Y132080D03*
D14*
X899050Y115570D03*
X917050Y115570D03*
D13*
X473964Y146956D03*
X473964Y164956D03*
D39*
X944880Y43180D03*
D14*
X795892Y224536D03*
X777892Y224536D03*
D39*
X318016Y378620D03*
D46*
X471424Y188680D03*
X471424Y278680D03*
D36*
X465732Y133202D03*
X452732Y133202D03*
X459232Y114702D03*
D14*
X433688Y174752D03*
X415688Y174752D03*
D40*
X402844Y127000D03*
X428244Y127000D03*
D14*
X714104Y119888D03*
X696104Y119888D03*
D40*
X645668Y127000D03*
X671068Y127000D03*
D14*
X501760Y118110D03*
X483760Y118110D03*
D47*
X103000Y32000D03*
X71000Y30000D03*
X767000Y-71000D03*
X774000Y-3000D03*
D48*
X90020Y144630D02*
X90020Y148950D01*
X90020Y144630D02*
X87630Y142240D01*
X69880Y142240D01*
X69880Y157450D01*
X68580Y158750D01*
D49*
X68580Y158750D03*
D48*
X59680Y167650D02*
X59680Y173040D01*
X59680Y167650D02*
X68580Y158750D01*
X20320Y145940D02*
X20320Y137160D01*
X17780Y134620D01*
D49*
X17780Y134620D03*
D50*
X10797Y220347D02*
X24892Y220347D01*
X10797Y220347D02*
X8890Y218440D01*
D49*
X8890Y218440D03*
D50*
X51000Y270004D02*
X66421Y270004D01*
X51000Y270004D02*
X35306Y270004D01*
D51*
X34798Y270512D01*
D50*
X53848Y247633D02*
X62213Y247633D01*
X66040Y251460D01*
D49*
X66040Y251460D03*
D50*
X66421Y251841D02*
X66421Y270004D01*
D51*
X66421Y251841D02*
X66040Y251460D01*
D49*
X91440Y229108D03*
D48*
X171117Y283845D02*
X194039Y283845D01*
D51*
X194437Y283447D01*
D48*
X171117Y283845D02*
X148717Y283845D01*
D51*
X142367Y277495D01*
D48*
X197375Y293895D02*
X197375Y302260D01*
X197375Y293895D02*
X194310Y290830D01*
X194310Y283574D01*
D51*
X194437Y283447D01*
D48*
X197375Y302260D02*
X197375Y317737D01*
X193040Y322072D01*
D49*
X193040Y322072D03*
D48*
X154928Y344805D02*
X138303Y344805D01*
X136398Y342900D01*
D49*
X136398Y342900D03*
D48*
X229362Y253856D02*
X240648Y253856D01*
X242062Y255270D01*
D49*
X242062Y255270D03*
X314960Y278130D03*
D52*
X833120Y196850D03*
D51*
X825692Y204278D02*
X816991Y204278D01*
X825692Y204278D02*
X833120Y196850D01*
X824548Y188278D02*
X816991Y188278D01*
X824548Y188278D02*
X833120Y196850D01*
D48*
X889572Y196278D02*
X902843Y196278D01*
X889572Y196278D02*
X889000Y196850D01*
D53*
X889000Y196850D03*
D51*
X859409Y321691D02*
X859790Y322072D01*
D48*
X866521Y345029D02*
X879699Y345029D01*
X881380Y346710D01*
D49*
X881380Y346710D03*
X892810Y130810D03*
D48*
X939800Y92600D02*
X950070Y92600D01*
X951230Y91440D01*
D49*
X951230Y91440D03*
D48*
X950070Y-21700D02*
X939800Y-21700D01*
X950070Y-21700D02*
X951230Y-22860D01*
D52*
X951230Y-22860D03*
D49*
X856996Y-92710D03*
D48*
X251604Y34290D02*
X235077Y34290D01*
X229616Y29591D01*
X165735Y60579D02*
X165735Y76835D01*
X160020Y82550D01*
D49*
X160020Y82550D03*
X69850Y60960D03*
D48*
X186055Y111573D02*
X198755Y111573D01*
D49*
X175260Y120650D03*
D48*
X186055Y154305D02*
X186055Y167573D01*
X186055Y154305D02*
X185420Y153670D01*
D53*
X185420Y153670D03*
D48*
X186055Y167573D02*
X198755Y167573D01*
X279671Y131081D02*
X298450Y131081D01*
X279671Y131081D02*
X275590Y127000D01*
D49*
X275590Y127000D03*
D48*
X274955Y126365D02*
X274955Y111573D01*
X274955Y126365D02*
X275590Y127000D01*
X353822Y257048D02*
X353822Y266446D01*
X353822Y277368D01*
D51*
X353060Y278130D01*
D49*
X353060Y278130D03*
D48*
X394940Y314960D02*
X394940Y327630D01*
X399940Y332630D01*
X399940Y342900D01*
X399940Y367800D01*
X396320Y371420D01*
X550029Y121479D02*
X557971Y121479D01*
X560070Y119380D01*
D49*
X560070Y119380D03*
D48*
X569809Y157519D02*
X577889Y157519D01*
X580390Y160020D01*
D49*
X580390Y160020D03*
D48*
X571898Y190898D02*
X557657Y190898D01*
X571898Y190898D02*
X574040Y193040D01*
D52*
X574040Y193040D03*
D51*
X574850Y193850D01*
D52*
X673100Y214122D03*
D48*
X675750Y221090D02*
X687070Y221090D01*
X675750Y221090D02*
X673100Y218440D01*
X673100Y214122D01*
X722630Y262890D02*
X733950Y262890D01*
D52*
X722630Y262890D03*
D48*
X673100Y259080D02*
X661780Y259080D01*
D52*
X673100Y259080D03*
D49*
X670560Y320040D03*
D48*
X560578Y284383D02*
X544927Y284383D01*
D51*
X544830Y284480D01*
D52*
X544830Y284480D03*
D48*
X751349Y317991D02*
X761619Y317991D01*
X751349Y317991D02*
X750570Y318770D01*
D49*
X750570Y318770D03*
X734060Y335280D03*
D48*
X787527Y170053D02*
X797433Y170053D01*
X801370Y166370D01*
D53*
X801370Y166370D03*
D52*
X768350Y201422D03*
D49*
X186690Y127000D03*
X236220Y88900D03*
D48*
X242570Y16510D02*
X251604Y16510D01*
X242570Y16510D02*
X240030Y13970D01*
D49*
X240030Y13970D03*
D48*
X251604Y16510D02*
X251604Y34290D01*
D52*
X599440Y232410D03*
X742950Y211836D03*
X859790Y166370D03*
D49*
X945642Y320040D03*
D52*
X199390Y219710D03*
D49*
X830580Y15240D03*
X806450Y45720D03*
D48*
X895240Y133240D02*
X904240Y133240D01*
X895240Y133240D02*
X892810Y130810D01*
D50*
X77976Y270004D02*
X66421Y270004D01*
X77976Y270004D02*
X81280Y266700D01*
X89066Y266700D01*
D51*
X89667Y266099D01*
D48*
X177987Y111573D02*
X186055Y111573D01*
X177987Y111573D02*
X175260Y114300D01*
X175260Y120650D01*
X647342Y313330D02*
X664570Y313330D01*
X670560Y320040D01*
X602598Y267843D02*
X602598Y235568D01*
X599440Y232410D01*
X856899Y298831D02*
X856899Y319181D01*
D54*
X859409Y321691D01*
D48*
X859790Y322072D02*
X859790Y331470D01*
X866140Y337820D01*
X866140Y344648D01*
D54*
X866521Y345029D01*
X787400Y170180D02*
X787527Y170053D01*
D55*
X770890Y153670D03*
D53*
X151130Y289560D03*
X143510Y289560D03*
X135890Y289560D03*
X133350Y281940D03*
X140970Y281940D03*
X148590Y281940D03*
X151130Y274320D03*
X143510Y274320D03*
X135890Y274320D03*
X133350Y266700D03*
X140970Y266700D03*
X148590Y266700D03*
D52*
X754380Y117856D03*
D54*
X772668Y197104D02*
X768350Y201422D01*
X772668Y197104D02*
X778400Y197104D01*
X777892Y215536D02*
X777892Y224536D01*
X777892Y215536D02*
X769620Y207264D01*
X769620Y202692D01*
X768350Y201422D01*
D51*
X580350Y199350D02*
X580350Y204020D01*
X580350Y199350D02*
X574040Y193040D01*
D54*
X749750Y165060D02*
X759500Y165060D01*
X770890Y153670D01*
D49*
X517398Y145796D03*
D48*
X517533Y145931D02*
X531379Y145931D01*
X517533Y145931D02*
X517398Y145796D01*
D49*
X830580Y-68072D03*
D50*
X858266Y-91440D02*
X875690Y-91440D01*
D48*
X858266Y-91440D02*
X856996Y-92710D01*
D52*
X643636Y154178D03*
D48*
X644415Y154957D02*
X644415Y168910D01*
X644415Y154957D02*
X643636Y154178D01*
X744838Y120142D02*
X752094Y120142D01*
X754380Y117856D01*
X452732Y133202D02*
X445918Y133202D01*
D54*
X442976Y136144D01*
D49*
X442976Y136144D03*
D54*
X501760Y118110D02*
X508000Y118110D01*
X511810Y121920D01*
X511810Y132080D01*
X517398Y137668D01*
X517398Y145796D01*
D48*
X69850Y60960D02*
X69850Y48370D01*
X69740Y48260D01*
D56*
X105000Y405000D03*
X115000Y405000D03*
X125000Y405000D03*
X135000Y405000D03*
X145000Y405000D03*
X155000Y405000D03*
X165000Y405000D03*
X175000Y405000D03*
X185000Y405000D03*
X195000Y405000D03*
X205000Y405000D03*
X215000Y405000D03*
X225000Y405000D03*
X235000Y405000D03*
X245000Y405000D03*
X255000Y405000D03*
X265000Y405000D03*
X275000Y405000D03*
X110000Y395000D03*
X120000Y395000D03*
X130000Y395000D03*
X140000Y395000D03*
X150000Y395000D03*
X160000Y395000D03*
X170000Y395000D03*
X180000Y395000D03*
X190000Y395000D03*
X200000Y395000D03*
X210000Y395000D03*
X220000Y395000D03*
X230000Y395000D03*
X240000Y395000D03*
X250000Y395000D03*
X260000Y395000D03*
X270000Y395000D03*
X280000Y395000D03*
X105000Y385000D03*
X115000Y385000D03*
X125000Y385000D03*
X135000Y385000D03*
X145000Y385000D03*
X155000Y385000D03*
X165000Y385000D03*
X175000Y385000D03*
X185000Y385000D03*
X195000Y385000D03*
X205000Y385000D03*
X215000Y385000D03*
X225000Y385000D03*
X235000Y385000D03*
X245000Y385000D03*
X255000Y385000D03*
X265000Y385000D03*
X275000Y385000D03*
X110000Y375000D03*
X120000Y375000D03*
X130000Y375000D03*
X140000Y375000D03*
X150000Y375000D03*
X160000Y375000D03*
X170000Y375000D03*
X180000Y375000D03*
X190000Y375000D03*
X200000Y375000D03*
X210000Y375000D03*
X220000Y375000D03*
X230000Y375000D03*
X240000Y375000D03*
X250000Y375000D03*
X260000Y375000D03*
X95000Y365000D03*
X105000Y365000D03*
X115000Y365000D03*
X125000Y365000D03*
X100000Y355000D03*
X110000Y355000D03*
X120000Y355000D03*
X130000Y355000D03*
X95000Y345000D03*
X105000Y345000D03*
X115000Y345000D03*
X125000Y345000D03*
X100000Y335000D03*
X110000Y335000D03*
X120000Y335000D03*
X130000Y335000D03*
D57*
X154928Y344805D02*
X154928Y355072D01*
X140000Y370000D01*
X140000Y369733D01*
X154928Y354805D01*
X154928Y344805D01*
X140123Y330000D01*
X130000Y330000D01*
X130000Y350000D01*
X160000Y350000D01*
X175000Y365000D01*
D51*
X776120Y304600D02*
X776809Y303911D01*
X776120Y304600D02*
X771175Y304600D01*
X771175Y305464D01*
X767900Y311710D02*
X761619Y317991D01*
X767900Y308739D02*
X771175Y305464D01*
X767900Y308739D02*
X767900Y311710D01*
D56*
X781198Y401800D03*
X290700Y324300D03*
X300900Y324300D03*
X312100Y324700D03*
X323100Y325100D03*
D50*
X52000Y269004D02*
X51000Y270004D01*
D55*
X52000Y261000D03*
D50*
X52000Y269004D01*
D58*
X71000Y22000D03*
D50*
X69740Y23260D02*
X69740Y48260D01*
X71000Y30000D02*
X67000Y26000D01*
X69740Y23260D01*
D58*
X189000Y20000D03*
D55*
X789432Y212852D03*
D54*
X789432Y218076D01*
X795892Y224536D01*
D59*
X44450Y75438D03*
D60*
X49231Y302004D02*
X66421Y302004D01*
D50*
X49231Y302004D02*
X35306Y302004D01*
D51*
X34798Y302512D01*
D48*
X49231Y289469D02*
X47540Y287778D01*
X47540Y286110D01*
X47380Y285950D01*
D49*
X47380Y285950D03*
D48*
X89921Y283845D02*
X113617Y283845D01*
D51*
X89921Y283845D02*
X89667Y284099D01*
D48*
X826359Y299309D02*
X828899Y298831D01*
D49*
X815340Y300990D03*
D51*
X828010Y299720D02*
X828899Y298831D01*
D50*
X24892Y252347D02*
X11813Y252347D01*
X9620Y254540D01*
X9620Y291180D01*
X20700Y302260D01*
X34546Y302260D01*
D51*
X34798Y302512D01*
D48*
X548809Y148019D02*
X560641Y148019D01*
X559816Y146812D01*
D49*
X559816Y146812D03*
D48*
X817021Y299309D02*
X826359Y299309D01*
X817021Y299309D02*
X815340Y300990D01*
X89667Y284099D02*
X84326Y284099D01*
D50*
X66421Y302004D01*
D49*
X520700Y120650D03*
D48*
X531200Y120650D02*
X532029Y121479D01*
X531200Y120650D02*
X520700Y120650D01*
D60*
X44450Y89662D02*
X44450Y75438D01*
X44450Y89662D02*
X36576Y97536D01*
X34544Y97536D01*
X18911Y97536D01*
X18657Y97282D01*
X41880Y104872D02*
X41880Y142240D01*
X41880Y104872D02*
X34544Y97536D01*
D48*
X473964Y139700D02*
X473964Y146956D01*
X473964Y139700D02*
X477520Y136144D01*
D49*
X477520Y136144D03*
D48*
X49231Y289469D02*
X49231Y302004D01*
D57*
X812419Y303911D02*
X815340Y300990D01*
X812419Y303911D02*
X802309Y303911D01*
D61*
X828899Y298831D02*
X849122Y319054D01*
X849122Y330044D01*
X854100Y335022D02*
X854100Y357000D01*
X854100Y335022D02*
X849122Y330044D01*
X854100Y357000D02*
X856300Y359200D01*
X879800Y359200D01*
X884100Y363500D01*
X884100Y385100D02*
X862100Y407100D01*
X802000Y407100D01*
X783800Y388900D01*
X884100Y385100D02*
X884100Y363500D01*
X783800Y388900D02*
X783650Y389050D01*
D56*
X783800Y388900D03*
D54*
X211455Y180975D02*
X211455Y167573D01*
X223520Y190898D02*
X224155Y191533D01*
X222013Y191533D01*
X211455Y180975D01*
X224155Y174879D02*
X224155Y167573D01*
X241300Y190898D02*
X241935Y191533D01*
X241300Y190898D02*
X240174Y190898D01*
X224155Y174879D01*
X236855Y175895D02*
X236855Y167573D01*
X236855Y175895D02*
X241300Y180340D01*
X246998Y180340D01*
X258191Y191533D02*
X259715Y191533D01*
X258191Y191533D02*
X246998Y180340D01*
X249555Y173355D02*
X249555Y167573D01*
X249555Y173355D02*
X256540Y180340D01*
X266302Y180340D01*
X277495Y191533D01*
X313055Y191533D02*
X313055Y184785D01*
X314960Y182880D01*
D53*
X314960Y182880D03*
X274320Y91440D03*
D54*
X249555Y100965D02*
X249555Y111573D01*
X249555Y100965D02*
X256540Y93980D01*
X271780Y93980D01*
X274320Y91440D01*
X295275Y186055D02*
X295275Y191533D01*
X295275Y186055D02*
X292100Y182880D01*
D53*
X292100Y182880D03*
X266700Y86360D03*
D54*
X236855Y100965D02*
X236855Y111573D01*
X236855Y100965D02*
X251460Y86360D01*
X266700Y86360D01*
X224155Y111573D02*
X224155Y133985D01*
X213360Y144780D01*
X180340Y144780D01*
X175260Y149860D01*
X175260Y175260D01*
X180340Y180340D01*
X200660Y180340D01*
X204851Y184531D01*
X204851Y191406D01*
X211455Y133985D02*
X211455Y111573D01*
X211455Y133985D02*
X208280Y137160D01*
X131620Y157940D02*
X127000Y162560D01*
X127000Y182880D01*
X134620Y190500D01*
X185403Y190500D01*
X186309Y191406D01*
X168000Y153000D02*
X168000Y145000D01*
X175840Y137160D01*
X163060Y157940D02*
X131620Y157940D01*
X163060Y157940D02*
X168000Y153000D01*
X175840Y137160D02*
X208280Y137160D01*
D48*
X269604Y34290D02*
X269604Y16510D01*
X269604Y34290D02*
X269604Y52070D01*
X269604Y66404D01*
X274320Y71120D01*
X280670Y71120D01*
D52*
X877570Y176530D03*
D54*
X881318Y180278D02*
X902843Y180278D01*
X881318Y180278D02*
X877570Y176530D01*
X839917Y187137D02*
X839917Y149352D01*
X839917Y187137D02*
X843280Y190500D01*
X843280Y200660D01*
D52*
X843280Y200660D03*
D54*
X601980Y208280D02*
X594360Y215900D01*
X601980Y208280D02*
X601980Y186690D01*
X621030Y167640D01*
X593240Y217020D02*
X580350Y217020D01*
X593240Y217020D02*
X594360Y215900D01*
D53*
X594360Y215900D03*
D54*
X171577Y232537D02*
X162162Y232537D01*
X171577Y232537D02*
X175260Y236220D01*
D52*
X175260Y236220D03*
D54*
X633268Y236520D02*
X638850Y236520D01*
X633268Y236520D02*
X630936Y234188D01*
X627380Y234188D01*
X624840Y236728D01*
X624840Y251460D01*
X635000Y261620D01*
X635000Y281940D01*
X641350Y288290D01*
X353822Y247650D02*
X339090Y247650D01*
X337820Y248920D01*
D49*
X337820Y248920D03*
D54*
X890462Y204278D02*
X902843Y204278D01*
X890462Y204278D02*
X889000Y205740D01*
D53*
X889000Y205740D03*
D62*
X767080Y365760D03*
D54*
X685800Y284480D02*
X677164Y275844D01*
X653796Y275844D01*
X641350Y288290D01*
X685800Y284480D02*
X685800Y318770D01*
X665480Y339090D01*
X665480Y392430D01*
X681990Y408940D01*
X758190Y408940D01*
X767080Y400050D01*
X767080Y365760D01*
D49*
X767080Y330200D03*
D54*
X767080Y365760D01*
D48*
X918320Y-11320D02*
X918320Y-40640D01*
X918320Y-11320D02*
X925940Y-3700D01*
X939800Y-3700D01*
D60*
X939800Y7850D01*
X929850Y17800D01*
D53*
X700532Y140208D03*
X818896Y75184D03*
D48*
X872466Y75184D01*
D54*
X710750Y150426D02*
X710750Y165060D01*
D48*
X710750Y150426D02*
X700532Y140208D01*
X872466Y75184D02*
X929850Y17800D01*
D50*
X769620Y89916D02*
X769620Y125620D01*
X769620Y89916D02*
X784860Y74676D01*
D60*
X784860Y68810D01*
D54*
X785070Y68600D01*
X736750Y153820D02*
X736750Y165060D01*
X736750Y153820D02*
X735330Y152400D01*
X735330Y135890D01*
X737870Y133350D01*
X750570Y133350D01*
X758190Y125730D01*
X769510Y125730D01*
X769620Y125620D01*
D50*
X762000Y51960D02*
X762000Y30480D01*
X774700Y17780D01*
D60*
X785050Y17780D01*
D54*
X785070Y17800D01*
X730250Y183642D02*
X730250Y223560D01*
D53*
X724916Y178308D03*
X858520Y30480D03*
D60*
X797750Y17780D02*
X785070Y17800D01*
D48*
X724916Y178308D02*
X730250Y183642D01*
D50*
X810450Y30480D02*
X858520Y30480D01*
X810450Y30480D02*
X797750Y17780D01*
D53*
X538480Y266700D03*
D54*
X548640Y307340D02*
X548640Y331360D01*
D55*
X860806Y223774D03*
D54*
X871917Y168213D02*
X871917Y149352D01*
X871917Y168213D02*
X863600Y176530D01*
X863600Y220980D01*
X860806Y223774D01*
X548640Y307340D02*
X535940Y294640D01*
X535940Y269240D01*
X538480Y266700D01*
X483980Y331360D02*
X472440Y331360D01*
X483980Y331360D02*
X485140Y330200D01*
D53*
X485140Y330200D03*
D54*
X879917Y149352D02*
X879917Y138623D01*
X880110Y135890D01*
D52*
X880110Y135890D03*
D54*
X532240Y331360D02*
X523240Y331360D01*
X532240Y331360D02*
X535940Y327660D01*
D53*
X535940Y327660D03*
D54*
X887917Y157293D02*
X887917Y149352D01*
X887917Y157293D02*
X881380Y165100D01*
D49*
X881380Y165100D03*
X684530Y334010D03*
D48*
X684530Y355600D01*
X690880Y365760D01*
D54*
X447040Y331360D02*
X447040Y325120D01*
X452120Y320040D01*
D53*
X452120Y320040D03*
D54*
X892362Y164278D02*
X902843Y164278D01*
X892362Y164278D02*
X891540Y165100D01*
D53*
X891540Y165100D03*
D54*
X312530Y125840D02*
X312530Y113030D01*
X312530Y125840D02*
X317500Y130810D01*
D53*
X863600Y248920D03*
X814832Y261620D03*
D54*
X799355Y246380D02*
X798957Y246778D01*
X863917Y248603D02*
X863917Y235204D01*
X863917Y248603D02*
X863600Y248920D01*
D53*
X393700Y208280D03*
D54*
X393700Y165100D01*
X388620Y160020D01*
D53*
X388620Y160020D03*
D54*
X798957Y246778D02*
X809642Y246778D01*
X814832Y251968D01*
X814832Y261620D01*
X871917Y235204D02*
X871917Y224217D01*
X871220Y223520D01*
D53*
X871220Y223520D03*
D54*
X313690Y168910D02*
X308720Y168910D01*
X313690Y168910D02*
X317500Y165100D01*
X317500Y152400D01*
D53*
X383540Y210820D03*
D54*
X383540Y172720D01*
X378460Y167640D01*
D53*
X378460Y167640D03*
X525780Y266700D03*
X848360Y223520D03*
D54*
X855917Y157543D02*
X855917Y149352D01*
X855917Y157543D02*
X850900Y162560D01*
X850900Y184150D01*
X857250Y190500D01*
X857250Y216154D01*
X849884Y223520D01*
X848360Y223520D01*
X497840Y294640D02*
X497840Y331360D01*
X497840Y294640D02*
X525780Y266700D01*
D48*
X56498Y198738D02*
X24257Y198738D01*
X56498Y198738D02*
X60960Y203200D01*
X60960Y211760D01*
D54*
X59680Y213040D01*
D48*
X59927Y229633D02*
X53848Y229633D01*
X59927Y229633D02*
X63500Y226060D01*
X63500Y216860D01*
D54*
X59680Y213040D01*
D48*
X106360Y213040D01*
X125857Y232537D01*
X144162Y232537D01*
D51*
X872808Y188278D02*
X902843Y188278D01*
X872808Y188278D02*
X871220Y186690D01*
D53*
X871220Y186690D03*
D54*
X756920Y274320D02*
X706120Y274320D01*
X693420Y287020D01*
X693420Y330200D01*
X708660Y345440D01*
X734060Y345440D01*
X741680Y353060D01*
X741680Y365760D01*
X762000Y279400D02*
X756920Y274320D01*
X903859Y259461D02*
X903859Y254491D01*
X903859Y259461D02*
X889000Y274320D01*
X855980Y235267D02*
X855917Y235204D01*
X855980Y267970D02*
X839470Y284480D01*
X781177Y246778D02*
X766682Y246778D01*
X762000Y251460D01*
X762000Y258064D01*
X760984Y259080D01*
X760984Y270256D01*
X756920Y274320D01*
X855980Y267970D02*
X855980Y235267D01*
X862330Y274320D02*
X889000Y274320D01*
X862330Y274320D02*
X855980Y267970D01*
X797560Y279400D02*
X762000Y279400D01*
X797560Y279400D02*
X802640Y284480D01*
X839470Y284480D01*
X810766Y158053D02*
X787527Y158053D01*
X810766Y158053D02*
X816991Y164278D01*
X816991Y172278D02*
X808162Y172278D01*
X798387Y182053D02*
X787527Y182053D01*
X798387Y182053D02*
X808162Y172278D01*
D48*
X421720Y359490D02*
X421720Y371420D01*
X421720Y359490D02*
X417830Y355600D01*
X417830Y343010D01*
D51*
X417940Y342900D01*
D48*
X417940Y332630D01*
X422910Y327660D01*
X422910Y314990D01*
D51*
X422940Y314960D01*
D48*
X816991Y180278D02*
X829372Y180278D01*
X831342Y179070D01*
D52*
X831342Y179070D03*
X633730Y245110D03*
X702310Y219710D03*
D48*
X20320Y170180D02*
X20320Y163940D01*
X20320Y170180D02*
X24130Y173990D01*
X24130Y180611D01*
D51*
X24257Y180738D01*
D48*
X900320Y-29100D02*
X900320Y-40640D01*
X900320Y-29100D02*
X899160Y-27940D01*
D49*
X899160Y-27940D03*
D48*
X939800Y110600D02*
X951340Y110600D01*
X952500Y111760D01*
D49*
X952500Y111760D03*
D48*
X913240Y151240D02*
X904240Y151240D01*
X913240Y151240D02*
X916940Y149860D01*
D49*
X916940Y149860D03*
D48*
X914842Y172278D02*
X902843Y172278D01*
X914842Y172278D02*
X916940Y170180D01*
X916940Y149860D01*
X762000Y78740D02*
X762000Y69960D01*
D49*
X762000Y78740D03*
D48*
X769620Y143620D02*
X780940Y143620D01*
X782320Y142240D01*
D52*
X782320Y142240D03*
X799084Y207772D03*
D48*
X798957Y264778D02*
X781177Y264778D01*
X770238Y264778D01*
X769620Y264160D01*
D52*
X769620Y264160D03*
D48*
X855629Y373029D02*
X866521Y373029D01*
X855629Y373029D02*
X853440Y370840D01*
X832388Y370840D01*
D51*
X831469Y371759D01*
D48*
X831469Y387731D01*
X828040Y391160D01*
D52*
X828040Y391160D03*
X863600Y391160D03*
D48*
X727981Y305689D02*
X727981Y287909D01*
D49*
X706120Y322580D03*
D51*
X584200Y299720D02*
X584200Y297180D01*
D49*
X584200Y299720D03*
D48*
X587646Y308246D02*
X596519Y308246D01*
X587646Y308246D02*
X584200Y304800D01*
X584200Y299720D01*
X563880Y302260D02*
X563880Y331360D01*
D49*
X563880Y302260D03*
D48*
X24257Y180738D02*
X10558Y180738D01*
D51*
X10160Y180340D01*
D49*
X10160Y180340D03*
X172720Y200660D03*
D48*
X277639Y149081D02*
X298450Y149081D01*
D51*
X277639Y149081D02*
X276860Y149860D01*
D49*
X276860Y149860D03*
D48*
X274955Y151765D02*
X274955Y167573D01*
X274955Y151765D02*
X276860Y149860D01*
D49*
X236220Y149860D03*
X218440Y152400D03*
D52*
X848360Y210820D03*
D54*
X638850Y243020D02*
X635820Y243020D01*
X633730Y245110D01*
D48*
X727981Y305689D02*
X727981Y318499D01*
X723900Y322580D01*
X706120Y322580D01*
D54*
X796400Y196278D02*
X816991Y196278D01*
X796400Y196278D02*
X796400Y197104D01*
X796400Y205088D01*
X799084Y207772D01*
X710750Y223560D02*
X706160Y223560D01*
D57*
X702310Y219710D01*
D48*
X714104Y119888D02*
X714104Y110888D01*
X717296Y107696D01*
D49*
X717296Y107696D03*
D48*
X440944Y174752D02*
X433688Y174752D01*
X440944Y174752D02*
X442976Y176784D01*
D49*
X442976Y176784D03*
D54*
X934720Y208280D02*
X942340Y208280D01*
X934720Y208280D02*
X928370Y214630D01*
X928370Y260350D01*
X847917Y264603D02*
X838200Y274320D01*
D53*
X838200Y274320D03*
X866140Y281940D03*
D54*
X899160Y289560D02*
X928370Y260350D01*
X847917Y264603D02*
X847917Y235204D01*
X873760Y289560D02*
X899160Y289560D01*
X873760Y289560D02*
X866140Y281940D01*
X942340Y187960D02*
X942340Y182880D01*
X942340Y187960D02*
X920750Y209550D01*
X920750Y257810D01*
D52*
X828040Y274320D03*
D53*
X878840Y281940D03*
D54*
X896620Y281940D02*
X920750Y257810D01*
X839917Y260411D02*
X839917Y235204D01*
X839917Y260411D02*
X828040Y272288D01*
X828040Y274320D01*
X878840Y281940D02*
X896620Y281940D01*
D52*
X505968Y201168D03*
D48*
X501904Y201168D01*
X491744Y211328D01*
X491744Y235712D01*
X471424Y256032D01*
X471424Y278680D01*
X447040Y349360D02*
X447040Y371340D01*
D54*
X447120Y371420D01*
D48*
X472440Y371340D02*
X472440Y349360D01*
D54*
X472440Y371340D02*
X472520Y371420D01*
D48*
X497840Y371340D02*
X497840Y349360D01*
D54*
X497840Y371340D02*
X497920Y371420D01*
D48*
X548640Y371340D02*
X548640Y349360D01*
D54*
X548640Y371340D02*
X548720Y371420D01*
D48*
X548640Y349360D02*
X563880Y349360D01*
D54*
X780559Y329311D02*
X780559Y320819D01*
X776809Y317069D02*
X776809Y313411D01*
X776809Y317069D02*
X780559Y320819D01*
X798559Y321581D02*
X798559Y329311D01*
X802309Y317831D02*
X802309Y313411D01*
X802309Y317831D02*
X798559Y321581D01*
X819531Y321691D02*
X826389Y321691D01*
X819531Y321691D02*
X811251Y313411D01*
X802309Y313411D01*
X826389Y321691D02*
X826389Y331089D01*
X831469Y336169D01*
X831469Y343759D01*
X745981Y305689D02*
X745981Y287909D01*
X761619Y291719D02*
X761619Y299991D01*
X761619Y291719D02*
X757809Y287909D01*
X745981Y287909D01*
X776809Y289129D02*
X776809Y294411D01*
X776809Y289129D02*
X774700Y287020D01*
X766318Y287020D01*
X761619Y291719D01*
D48*
X231521Y60579D02*
X212725Y60579D01*
X231521Y60579D02*
X240030Y52070D01*
X251604Y52070D01*
X212725Y60579D02*
X212725Y80645D01*
X215900Y83820D01*
D49*
X215900Y83820D03*
D48*
X372000Y176420D02*
X372000Y228600D01*
X372000Y176420D02*
X364303Y168723D01*
X344170Y168723D01*
D54*
X344170Y171450D01*
D48*
X332740Y182880D01*
D49*
X332740Y182880D03*
D58*
X155000Y20000D03*
D49*
X886968Y-39624D03*
D50*
X875690Y-50902D02*
X875690Y-66040D01*
X875690Y-50902D02*
X886968Y-39624D01*
D54*
X557657Y208898D02*
X557657Y221378D01*
X560220Y230020D02*
X580350Y230020D01*
X560220Y230020D02*
X557657Y227457D01*
X557657Y221378D01*
X568152Y236520D02*
X580350Y236520D01*
X568152Y236520D02*
X565912Y238760D01*
X558275Y238760D01*
X557657Y239378D01*
D48*
X531379Y163931D02*
X510641Y163931D01*
X531379Y163931D02*
X545721Y163931D01*
X548809Y167019D01*
X558687Y167019D01*
D52*
X817880Y-45720D03*
X565404Y173736D03*
D48*
X498348Y151638D02*
X498348Y144526D01*
X498348Y151638D02*
X510641Y163931D01*
X801190Y-66040D02*
X813816Y-66040D01*
X817880Y-61976D01*
X817880Y-45720D01*
X565404Y173736D02*
X558687Y167019D01*
D54*
X638850Y210520D02*
X646984Y210520D01*
X652272Y205232D01*
X652272Y199136D01*
X656336Y195072D01*
X656336Y186927D01*
X656700Y186563D01*
X656700Y180484D01*
X660400Y176784D01*
X660400Y170925D01*
X662415Y168910D01*
X661145Y223520D02*
X665480Y223520D01*
X673100Y231140D01*
X673100Y243840D01*
X683260Y254000D01*
X683260Y264160D01*
X678180Y269240D01*
X647700Y269240D01*
X643780Y265320D02*
X643780Y259080D01*
X643780Y265320D02*
X647700Y269240D01*
X638850Y223520D02*
X661145Y223520D01*
X661162Y223537D01*
D53*
X872490Y248920D03*
X719836Y251968D03*
D54*
X723750Y247754D02*
X723750Y223560D01*
X723750Y247754D02*
X719836Y251968D01*
X879917Y245811D02*
X879917Y235204D01*
X879917Y245811D02*
X876808Y248920D01*
X872490Y248920D01*
X616712Y297688D02*
X616712Y307611D01*
X616712Y297688D02*
X617220Y297180D01*
D53*
X617220Y297180D03*
D54*
X893766Y220278D02*
X902843Y220278D01*
X893766Y220278D02*
X889000Y223012D01*
D53*
X889000Y223012D03*
D54*
X113617Y254683D02*
X113617Y258445D01*
X113617Y254683D02*
X119380Y248920D01*
D53*
X119380Y248920D03*
D48*
X112311Y297851D02*
X112311Y317759D01*
D54*
X112311Y297851D02*
X113617Y296545D01*
D48*
X171117Y296545D02*
X171117Y301323D01*
X167640Y304800D01*
X134620Y304800D01*
X130311Y309109D01*
X130311Y317759D01*
X187325Y344805D02*
X216928Y344805D01*
X187325Y344805D02*
X177800Y335280D01*
X177800Y314960D01*
X167640Y304800D01*
D60*
X216928Y344805D02*
X236855Y344805D01*
X288671Y292989D01*
X288671Y262253D01*
D48*
X214757Y264812D02*
X195072Y264812D01*
D54*
X194437Y265447D01*
D48*
X188739Y271145D02*
X171117Y271145D01*
X188739Y271145D02*
X194437Y265447D01*
X215375Y283430D02*
X215375Y302260D01*
X215375Y283430D02*
X214757Y282812D01*
X194454Y252222D02*
X194454Y236989D01*
D54*
X194213Y236748D01*
X194454Y252222D02*
X174498Y252222D01*
X171117Y255603D01*
X171117Y258445D01*
X186309Y234569D02*
X186309Y209406D01*
X186309Y234569D02*
X187960Y236220D01*
X193685Y236220D01*
X194213Y236748D01*
X186309Y209406D02*
X204851Y209406D01*
X224028Y209406D01*
X224155Y209533D01*
X241935Y209533D01*
X259715Y209533D01*
X277495Y209533D01*
X295275Y209533D01*
X313055Y209533D01*
D50*
X87740Y52180D02*
X87740Y48260D01*
X87740Y52180D02*
X91440Y55880D01*
X119718Y55880D01*
D54*
X119761Y55923D01*
D60*
X122301Y55118D01*
D58*
X106000Y22000D03*
D50*
X106000Y30000D02*
X87740Y48260D01*
X106000Y30000D02*
X106000Y22000D01*
X106000Y29000D01*
X103000Y32000D01*
D54*
X887917Y235204D02*
X887917Y261179D01*
D52*
X884428Y264668D03*
D54*
X638850Y204020D02*
X623004Y204020D01*
X612140Y223012D02*
X612140Y261620D01*
X619760Y269240D01*
X619760Y288036D01*
D53*
X619760Y288036D03*
D54*
X884428Y264668D02*
X887917Y261179D01*
X617728Y217424D02*
X612140Y223012D01*
X617728Y217424D02*
X617728Y209296D01*
X623004Y204020D01*
D48*
X626889Y325611D02*
X616712Y325611D01*
X626889Y325611D02*
X634342Y318158D01*
X634342Y313330D01*
D60*
X119761Y108423D02*
X100295Y108423D01*
X89408Y97536D01*
X80911Y97536D01*
X80657Y97282D01*
D48*
X523240Y349360D02*
X523240Y371340D01*
D54*
X523320Y371420D01*
X387350Y247650D02*
X379222Y247650D01*
X390000Y245000D02*
X390000Y228600D01*
X390000Y245000D02*
X387350Y247650D01*
X400207Y260507D02*
X400207Y286639D01*
X400207Y260507D02*
X387350Y247650D01*
D48*
X596519Y326246D02*
X596519Y334899D01*
X601980Y340360D01*
X614680Y340360D01*
X619760Y345440D01*
X619760Y364871D01*
X621411Y366522D01*
X640842Y360553D02*
X640842Y331830D01*
X640842Y360553D02*
X646811Y366522D01*
D54*
X634636Y159656D02*
X629920Y154940D01*
X614680Y154940D01*
X591820Y177800D01*
X591820Y205740D01*
X587040Y210520D02*
X580350Y210520D01*
X587040Y210520D02*
X591820Y205740D01*
X634636Y182499D02*
X634636Y159656D01*
X634636Y182499D02*
X638700Y186563D01*
X638850Y230020D02*
X649628Y230020D01*
X653288Y233680D01*
X657860Y233680D01*
X661162Y236982D01*
X661162Y241537D01*
X748030Y247650D02*
X751950Y247650D01*
X748030Y247650D02*
X743250Y242870D01*
X743250Y223560D01*
X751950Y247650D02*
X751950Y262890D01*
X736750Y238610D02*
X736750Y223560D01*
X736750Y238610D02*
X734060Y241300D01*
X734060Y247540D01*
X733950Y247650D01*
X816991Y226949D02*
X816991Y220278D01*
X816991Y226949D02*
X807720Y236220D01*
X754380Y236220D01*
X749808Y231648D01*
X749808Y223618D01*
X749750Y223560D01*
X743250Y165060D02*
X743250Y144590D01*
X744330Y143510D01*
X723750Y152550D02*
X723750Y165060D01*
X723750Y152550D02*
X726440Y149860D01*
X726440Y143620D01*
X726330Y143510D01*
X726838Y143002D02*
X726838Y120142D01*
X726838Y143002D02*
X726330Y143510D01*
X816991Y212278D02*
X833308Y212278D01*
D52*
X836930Y220980D03*
D54*
X730250Y170942D02*
X730250Y165060D01*
D52*
X756920Y212090D03*
D54*
X756920Y197612D02*
X730250Y170942D01*
X756920Y197612D02*
X756920Y212090D01*
X833308Y212278D02*
X836930Y215900D01*
X836930Y220980D01*
X903859Y236491D02*
X911589Y236491D01*
X924560Y175260D02*
X942340Y157480D01*
X924560Y175260D02*
X924560Y195580D01*
X914400Y205740D01*
X914400Y233680D01*
X911589Y236491D01*
X717250Y173274D02*
X717250Y165060D01*
X717250Y173274D02*
X713740Y176784D01*
X701040Y176784D01*
X694436Y170180D01*
X687180Y170180D01*
X687070Y170070D01*
X687070Y188070D02*
X687070Y203090D01*
X717250Y206710D02*
X717250Y223560D01*
X717250Y206710D02*
X713740Y203200D01*
X687180Y203200D01*
X687070Y203090D01*
D48*
X125370Y130450D02*
X96520Y130450D01*
X125370Y130450D02*
X132080Y137160D01*
D49*
X132080Y137160D03*
D63*
X801116Y139446D03*
D48*
X113390Y148950D02*
X103020Y148950D01*
X113390Y148950D02*
X114300Y149860D01*
D49*
X114300Y149860D03*
X403860Y185420D03*
D54*
X390652Y105156D02*
X673100Y105156D01*
D53*
X684784Y116840D03*
D54*
X673100Y105156D01*
X390652Y105156D02*
X382016Y113792D01*
X382016Y138176D01*
X404368Y160528D01*
X404368Y184912D01*
X403860Y185420D01*
X788560Y131970D02*
X788560Y124460D01*
X788560Y131970D02*
X796290Y139700D01*
X800862Y139700D01*
X801116Y139446D01*
X806560Y124460D02*
X835660Y124460D01*
X847917Y136717D01*
X847917Y149352D01*
D50*
X820928Y-91440D02*
X801190Y-91440D01*
D54*
X820928Y-91440D02*
X823468Y-88900D01*
D49*
X823468Y-88900D03*
D54*
X762000Y-71010D02*
X758842Y-71010D01*
X754380Y-66548D01*
X754380Y-43180D01*
D48*
X759460Y-38100D01*
D58*
X768000Y-32000D03*
D48*
X761900Y-38100D01*
X759460Y-38100D01*
D51*
X762000Y-71010D02*
X767080Y-71010D01*
D50*
X797560Y-29608D02*
X797560Y-17272D01*
D58*
X767000Y-3000D03*
D50*
X783288Y-3000D01*
X797560Y-17272D01*
D54*
X618236Y227076D02*
X618236Y254000D01*
X627888Y263652D01*
X627888Y295148D01*
X635000Y302260D01*
X654050Y302260D01*
X668020Y288290D01*
X650644Y217020D02*
X638850Y217020D01*
X650644Y217020D02*
X672592Y195072D01*
X672592Y164592D01*
X674624Y160528D01*
D52*
X674624Y160528D03*
X819912Y134874D03*
D54*
X830901Y148336D02*
X831917Y149352D01*
X638850Y217020D02*
X628292Y217020D01*
X618236Y227076D01*
X821182Y145542D02*
X824230Y148590D01*
X831155Y148590D01*
X831917Y149352D01*
X821182Y145542D02*
X821182Y136144D01*
X819912Y134874D01*
X767080Y-89010D02*
X754490Y-89010D01*
X755396Y-88900D01*
D49*
X755396Y-88900D03*
D53*
X762000Y-53340D03*
D54*
X762300Y-53640D02*
X781512Y-53640D01*
X787544Y-47608D02*
X797560Y-47608D01*
X787544Y-47608D02*
X781512Y-53640D01*
D51*
X762300Y-53640D02*
X762000Y-53340D01*
D54*
X262255Y156845D02*
X262255Y167573D01*
X262255Y156845D02*
X264160Y154940D01*
D53*
X264160Y154940D03*
D54*
X290720Y168910D02*
X290720Y171560D01*
X281940Y180340D01*
D53*
X281940Y180340D03*
D54*
X262255Y111573D02*
X262255Y103505D01*
X265430Y100330D01*
X280670Y100330D01*
X284480Y104140D01*
X284480Y109220D01*
X288290Y113030D02*
X294530Y113030D01*
X288290Y113030D02*
X284480Y109220D01*
X580350Y223520D02*
X599440Y223520D01*
X609600Y213360D01*
X826516Y235204D02*
X831917Y235204D01*
X826516Y235204D02*
X824992Y233680D01*
D53*
X824992Y233680D03*
X609600Y213360D03*
D54*
X917050Y127110D02*
X917050Y115570D01*
X917050Y127110D02*
X922020Y132080D01*
X942340Y132080D01*
X465732Y133202D02*
X465732Y127612D01*
X471424Y121920D01*
D52*
X492506Y129540D03*
D54*
X917050Y115570D02*
X917050Y96122D01*
X904240Y83312D01*
X790448Y83312D01*
X786384Y87376D01*
D53*
X786384Y87376D03*
D54*
X483760Y121920D02*
X471424Y121920D01*
X483760Y121920D02*
X483760Y118110D01*
X483760Y121920D02*
X483870Y121920D01*
X483870Y127000D01*
X486410Y129540D01*
X492506Y129540D01*
X863917Y136843D02*
X863917Y149352D01*
D52*
X863917Y136843D03*
X889000Y115570D03*
D54*
X899050Y115570D01*
D48*
X473964Y164956D02*
X473964Y186140D01*
D54*
X471424Y188680D01*
D48*
X471424Y205232D01*
X475488Y209296D01*
D52*
X475488Y209296D03*
D54*
X560578Y256383D02*
X560735Y256540D01*
X565023Y267843D02*
X584598Y267843D01*
X560578Y263398D02*
X560578Y256383D01*
X560578Y263398D02*
X565023Y267843D01*
D49*
X868680Y49530D03*
D52*
X590804Y241808D03*
D54*
X589592Y243020D02*
X580350Y243020D01*
X589592Y243020D02*
X590804Y241808D01*
D51*
X580350Y243020D02*
X580350Y250738D01*
X575056Y256032D01*
X560929Y256032D01*
X560578Y256383D01*
D54*
X893130Y212278D02*
X902843Y212278D01*
X893130Y212278D02*
X889000Y214376D01*
D53*
X889000Y214376D03*
D50*
X372207Y275493D02*
X372207Y286639D01*
X372207Y275493D02*
X379222Y268478D01*
D54*
X379222Y266446D01*
X344170Y224723D02*
X344170Y209550D01*
X345440Y208280D01*
D49*
X345440Y208280D03*
D48*
X212454Y236989D02*
X212454Y252222D01*
D54*
X212454Y236989D02*
X212213Y236748D01*
D48*
X228470Y236748D01*
D54*
X229362Y235856D01*
D50*
X229362Y227838D01*
X231140Y226060D01*
D49*
X231140Y226060D03*
D60*
X288671Y357253D02*
X318387Y357253D01*
X372207Y303433D01*
X372207Y286639D01*
D49*
X381000Y259080D03*
D50*
X381000Y264668D01*
X379222Y266446D01*
D57*
X318016Y357624D02*
X318016Y378620D01*
X318016Y357624D02*
X318387Y357253D01*
D48*
X402844Y140716D02*
X402844Y127000D01*
X402844Y140716D02*
X415688Y153560D01*
X415688Y174752D01*
X696104Y130920D02*
X696104Y119888D01*
X696104Y130920D02*
X682752Y144272D01*
X662940Y144272D01*
X645668Y127000D01*
D54*
X459232Y114702D02*
X440542Y114702D01*
X428244Y127000D01*
D51*
X113617Y271145D02*
X102855Y271145D01*
X99200Y274800D02*
X99000Y274800D01*
D53*
X99000Y274800D03*
D51*
X99200Y274800D02*
X102855Y271145D01*
D61*
X795489Y294411D02*
X802309Y294411D01*
X795489Y294411D02*
X789400Y300500D01*
X789400Y355100D01*
X799800Y365500D02*
X799800Y374500D01*
X799700Y374600D01*
X799500Y374600D01*
D56*
X799500Y374600D03*
D61*
X799800Y365500D02*
X789400Y355100D01*
D64*
X0Y0D02*
X293500Y0D01*
X293500Y100000D01*
X748100Y100000D01*
X748100Y-110000D01*
X960000Y-110000D01*
X960000Y340000D01*
X880028Y419972D01*
X79972Y419972D01*
X0Y340000D01*
X0Y0D01*
M02*
