G04 EAGLE Gerber RS-274X export*
G75*
%MOMM*%
%FSLAX34Y34*%
%LPD*%
%INTop Paste*%
%IPPOS*%
%AMOC8*
5,1,8,0,0,1.08239X$1,22.5*%
G01*
%ADD10R,1.320800X0.558800*%
%ADD11R,1.200000X0.800000*%
%ADD12R,0.800000X1.200000*%
%ADD13R,3.200000X1.800000*%
%ADD14R,1.600000X1.800000*%
%ADD15R,3.100000X1.000000*%
%ADD16R,1.700000X0.700000*%
%ADD17R,1.270000X0.558800*%
%ADD18R,0.558800X1.270000*%
%ADD19R,0.600000X1.200000*%
%ADD20R,0.800000X0.450000*%
%ADD21R,2.150000X0.500000*%
%ADD22R,2.400000X3.100000*%
%ADD23C,0.625000*%
%ADD24R,3.500000X4.100000*%
%ADD25R,1.397000X1.397000*%
%ADD26R,1.800000X1.600000*%
%ADD27R,0.900000X0.800000*%
%ADD28R,2.000000X1.200000*%
%ADD29R,2.286000X4.800000*%
%ADD30R,2.540000X2.540000*%
%ADD31R,0.700000X0.700000*%
%ADD32R,3.700000X1.800000*%
%ADD33R,0.900000X0.350000*%
%ADD34R,0.350000X0.900000*%
%ADD35R,2.000000X1.780000*%
%ADD36R,3.400000X2.600000*%
%ADD37C,0.254000*%


D10*
X353822Y266446D03*
X353822Y257048D03*
X353822Y247650D03*
X379222Y247650D03*
X379222Y266446D03*
D11*
X224155Y191533D03*
X224155Y209533D03*
X241935Y191533D03*
X241935Y209533D03*
X259715Y191533D03*
X259715Y209533D03*
X277495Y191533D03*
X277495Y209533D03*
X313055Y191533D03*
X313055Y209533D03*
X295275Y191533D03*
X295275Y209533D03*
X204851Y191406D03*
X204851Y209406D03*
X186309Y191406D03*
X186309Y209406D03*
D12*
X194454Y252222D03*
X212454Y252222D03*
D13*
X344170Y224723D03*
X344170Y168723D03*
D12*
X269604Y16510D03*
X251604Y16510D03*
X251604Y34290D03*
X269604Y34290D03*
X251604Y52070D03*
X269604Y52070D03*
D11*
X762000Y51960D03*
X762000Y69960D03*
X769620Y125620D03*
X769620Y143620D03*
D12*
X918320Y-40640D03*
X900320Y-40640D03*
D11*
X939800Y-21700D03*
X939800Y-3700D03*
X24257Y198738D03*
X24257Y180738D03*
D12*
X399940Y342900D03*
X417940Y342900D03*
D14*
X422940Y314960D03*
X394940Y314960D03*
D11*
X798957Y246778D03*
X798957Y264778D03*
D15*
X149680Y173040D03*
X59680Y173040D03*
X149680Y213040D03*
X59680Y213040D03*
D12*
X162162Y232537D03*
X144162Y232537D03*
D11*
X563880Y331360D03*
X563880Y349360D03*
X781177Y246778D03*
X781177Y264778D03*
D16*
X787527Y158053D03*
X787527Y170053D03*
X787527Y182053D03*
D17*
X816991Y220278D03*
X816991Y212278D03*
X816991Y204278D03*
X816991Y196278D03*
X816991Y188278D03*
X816991Y180278D03*
X816991Y172278D03*
X816991Y164278D03*
D18*
X831917Y149352D03*
X839917Y149352D03*
X847917Y149352D03*
X855917Y149352D03*
X863917Y149352D03*
X871917Y149352D03*
X879917Y149352D03*
X887917Y149352D03*
D17*
X902843Y164278D03*
X902843Y172278D03*
X902843Y180278D03*
X902843Y188278D03*
X902843Y196278D03*
X902843Y204278D03*
X902843Y212278D03*
X902843Y220278D03*
D18*
X887917Y235204D03*
X879917Y235204D03*
X871917Y235204D03*
X863917Y235204D03*
X855917Y235204D03*
X847917Y235204D03*
X839917Y235204D03*
X831917Y235204D03*
D11*
X903859Y254491D03*
X903859Y236491D03*
D19*
X274955Y167573D03*
X262255Y167573D03*
X249555Y167573D03*
X236855Y167573D03*
X224155Y167573D03*
X211455Y167573D03*
X198755Y167573D03*
X186055Y167573D03*
X186055Y111573D03*
X198755Y111573D03*
X211455Y111573D03*
X224155Y111573D03*
X236855Y111573D03*
X249555Y111573D03*
X262255Y111573D03*
X274955Y111573D03*
D11*
X298450Y131081D03*
X298450Y149081D03*
X447040Y331360D03*
X447040Y349360D03*
X472440Y331360D03*
X472440Y349360D03*
X497840Y331360D03*
X497840Y349360D03*
X523240Y331360D03*
X523240Y349360D03*
X548640Y331360D03*
X548640Y349360D03*
D20*
X776809Y313411D03*
X776809Y303911D03*
X776809Y294411D03*
X802309Y294411D03*
X802309Y303911D03*
X802309Y313411D03*
D21*
X113617Y296545D03*
X113617Y283845D03*
X113617Y271145D03*
X113617Y258445D03*
X171117Y258445D03*
X171117Y271145D03*
X171117Y283845D03*
X171117Y296545D03*
D22*
X142367Y277495D03*
D23*
X815594Y346884D02*
X847344Y346884D01*
X847344Y340634D01*
X815594Y340634D01*
X815594Y346884D01*
X815594Y346571D02*
X847344Y346571D01*
X847344Y374884D02*
X815594Y374884D01*
X847344Y374884D02*
X847344Y368634D01*
X815594Y368634D01*
X815594Y374884D01*
X815594Y374571D02*
X847344Y374571D01*
D24*
X288671Y262253D03*
X288671Y357253D03*
D12*
X780559Y329311D03*
X798559Y329311D03*
D25*
X826389Y321691D03*
X859409Y321691D03*
D26*
X866521Y373029D03*
X866521Y345029D03*
D12*
X727981Y305689D03*
X745981Y305689D03*
D11*
X761619Y299991D03*
X761619Y317991D03*
D12*
X745981Y287909D03*
X727981Y287909D03*
D14*
X828899Y298831D03*
X856899Y298831D03*
D27*
X569809Y157519D03*
X548809Y148019D03*
X548809Y167019D03*
D12*
X550029Y121479D03*
X532029Y121479D03*
D11*
X531379Y145931D03*
X531379Y163931D03*
D12*
X602598Y267843D03*
X584598Y267843D03*
D11*
X557657Y239378D03*
X557657Y221378D03*
X557657Y190898D03*
X557657Y208898D03*
D26*
X560578Y256383D03*
X560578Y284383D03*
D12*
X638700Y186563D03*
X656700Y186563D03*
X644415Y168910D03*
X662415Y168910D03*
D11*
X661162Y241537D03*
X661162Y223537D03*
D28*
X34798Y302512D03*
X34798Y270512D03*
X66421Y302004D03*
X66421Y270004D03*
X24892Y252347D03*
X24892Y220347D03*
D11*
X89667Y266099D03*
X89667Y284099D03*
D12*
X112311Y317759D03*
X130311Y317759D03*
D11*
X214757Y282812D03*
X214757Y264812D03*
D12*
X197375Y302260D03*
X215375Y302260D03*
D11*
X194437Y283447D03*
X194437Y265447D03*
D12*
X194213Y236748D03*
X212213Y236748D03*
D29*
X216928Y344805D03*
X154928Y344805D03*
D30*
X212725Y60579D03*
X165735Y60579D03*
D11*
X53848Y247633D03*
X53848Y229633D03*
X616712Y307611D03*
X616712Y325611D03*
D31*
X634342Y313330D03*
X647342Y313330D03*
X640842Y331830D03*
D32*
X119761Y108423D03*
X119761Y55923D03*
D29*
X18657Y97282D03*
X80657Y97282D03*
D11*
X596519Y308246D03*
X596519Y326246D03*
X20320Y145940D03*
X20320Y163940D03*
X939800Y92600D03*
X939800Y110600D03*
X229362Y253856D03*
X229362Y235856D03*
D14*
X41880Y142240D03*
X69880Y142240D03*
D12*
X69740Y48260D03*
X87740Y48260D03*
D14*
X372207Y286639D03*
X400207Y286639D03*
D12*
X390000Y228600D03*
X372000Y228600D03*
X778400Y197104D03*
X796400Y197104D03*
D11*
X904240Y133240D03*
X904240Y151240D03*
D33*
X580350Y243020D03*
X580350Y236520D03*
X580350Y230020D03*
X580350Y223520D03*
X580350Y217020D03*
X580350Y210520D03*
X580350Y204020D03*
X638850Y204020D03*
X638850Y210520D03*
X638850Y217020D03*
X638850Y223520D03*
X638850Y230020D03*
X638850Y236520D03*
X638850Y243020D03*
D34*
X710750Y165060D03*
X717250Y165060D03*
X723750Y165060D03*
X730250Y165060D03*
X736750Y165060D03*
X743250Y165060D03*
X749750Y165060D03*
X749750Y223560D03*
X743250Y223560D03*
X736750Y223560D03*
X730250Y223560D03*
X723750Y223560D03*
X717250Y223560D03*
X710750Y223560D03*
D12*
X733950Y262890D03*
X751950Y262890D03*
X733950Y247650D03*
X751950Y247650D03*
X744330Y143510D03*
X726330Y143510D03*
X744838Y120142D03*
X726838Y120142D03*
D11*
X687070Y170070D03*
X687070Y188070D03*
D35*
X801190Y-66040D03*
X801190Y-91440D03*
X875690Y-91440D03*
X875690Y-66040D03*
D31*
X103020Y148950D03*
X90020Y148950D03*
X96520Y130450D03*
D12*
X806560Y124460D03*
X788560Y124460D03*
D11*
X767080Y-71010D03*
X767080Y-89010D03*
X797560Y-29608D03*
X797560Y-47608D03*
D12*
X661780Y259080D03*
X643780Y259080D03*
D11*
X687070Y221090D03*
X687070Y203090D03*
D12*
X294530Y113030D03*
X312530Y113030D03*
X290720Y168910D03*
X308720Y168910D03*
X899050Y115570D03*
X917050Y115570D03*
D11*
X473964Y146956D03*
X473964Y164956D03*
D12*
X795892Y224536D03*
X777892Y224536D03*
D36*
X471424Y188680D03*
X471424Y278680D03*
D31*
X465732Y133202D03*
X452732Y133202D03*
X459232Y114702D03*
D12*
X433688Y174752D03*
X415688Y174752D03*
X714104Y119888D03*
X696104Y119888D03*
X501760Y118110D03*
X483760Y118110D03*
D37*
X0Y0D02*
X293500Y0D01*
X293500Y100000D01*
X748100Y100000D01*
X748100Y-110000D01*
X960000Y-110000D01*
X960000Y340000D01*
X880028Y419972D01*
X79972Y419972D01*
X0Y340000D01*
X0Y0D01*
M02*
