G04 EAGLE Gerber RS-274X export*
G75*
%MOMM*%
%FSLAX34Y34*%
%LPD*%
%INBottom Copper*%
%IPPOS*%
%AMOC8*
5,1,8,0,0,1.08239X$1,22.5*%
G01*
%ADD10C,2.000000*%
%ADD11C,4.000000*%
%ADD12R,0.800000X1.200000*%
%ADD13R,2.032000X2.032000*%
%ADD14C,2.032000*%
%ADD15C,3.600000*%
%ADD16R,1.200000X0.800000*%
%ADD17R,0.700000X0.700000*%
%ADD18R,1.600000X1.800000*%
%ADD19R,2.000000X1.200000*%
%ADD20R,1.000000X1.400000*%
%ADD21C,1.000000*%
%ADD22C,1.500000*%
%ADD23C,1.879600*%
%ADD24R,1.879600X1.879600*%
%ADD25R,1.800000X0.800000*%
%ADD26R,2.500000X2.500000*%
%ADD27R,1.800000X1.600000*%
%ADD28P,2.034460X8X22.500000*%
%ADD29R,1.114600X1.361200*%
%ADD30C,0.762000*%
%ADD31C,0.914400*%
%ADD32C,0.304800*%
%ADD33C,0.609600*%
%ADD34C,0.812800*%
%ADD35C,0.635000*%
%ADD36C,0.406400*%
%ADD37C,0.609600*%
%ADD38C,0.812800*%
%ADD39C,0.603500*%
%ADD40C,2.500000*%
%ADD41C,1.676400*%
%ADD42C,1.930400*%
%ADD43C,1.016000*%
%ADD44R,1.016000X1.016000*%
%ADD45C,0.254000*%
%ADD46C,0.254000*%

G36*
X104594Y303266D02*
X104594Y303266D01*
X104602Y303265D01*
X104692Y303286D01*
X104783Y303304D01*
X104789Y303309D01*
X104797Y303311D01*
X104945Y303413D01*
X109365Y307833D01*
X109366Y307836D01*
X109369Y307837D01*
X109421Y307918D01*
X109476Y308000D01*
X109476Y308003D01*
X109478Y308005D01*
X109495Y308101D01*
X109513Y308197D01*
X109513Y308200D01*
X109513Y308202D01*
X109492Y308299D01*
X109472Y308393D01*
X109470Y308395D01*
X109470Y308398D01*
X109413Y308478D01*
X109358Y308558D01*
X109355Y308559D01*
X109354Y308561D01*
X109271Y308613D01*
X109188Y308665D01*
X109186Y308666D01*
X109184Y308667D01*
X109006Y308699D01*
X106415Y308699D01*
X106415Y316225D01*
X111941Y316225D01*
X111941Y311634D01*
X111941Y311631D01*
X111941Y311629D01*
X111961Y311534D01*
X111980Y311437D01*
X111982Y311435D01*
X111982Y311432D01*
X112038Y311352D01*
X112093Y311271D01*
X112095Y311270D01*
X112097Y311268D01*
X112180Y311215D01*
X112261Y311162D01*
X112264Y311162D01*
X112266Y311160D01*
X112362Y311144D01*
X112458Y311127D01*
X112461Y311127D01*
X112463Y311127D01*
X112557Y311149D01*
X112654Y311170D01*
X112656Y311172D01*
X112659Y311172D01*
X112807Y311275D01*
X118016Y316485D01*
X335000Y316485D01*
X335005Y316486D01*
X335010Y316485D01*
X335103Y316506D01*
X335197Y316524D01*
X335201Y316527D01*
X335206Y316528D01*
X335284Y316584D01*
X335362Y316637D01*
X335365Y316641D01*
X335369Y316644D01*
X335420Y316726D01*
X335472Y316805D01*
X335472Y316810D01*
X335475Y316815D01*
X335507Y316992D01*
X335507Y410000D01*
X335506Y410008D01*
X335507Y410015D01*
X335486Y410105D01*
X335468Y410197D01*
X335463Y410203D01*
X335461Y410211D01*
X335359Y410359D01*
X330359Y415359D01*
X330352Y415363D01*
X330348Y415369D01*
X330269Y415418D01*
X330192Y415470D01*
X330184Y415471D01*
X330177Y415475D01*
X330000Y415507D01*
X85000Y415507D01*
X84995Y415506D01*
X84990Y415507D01*
X84897Y415486D01*
X84804Y415468D01*
X84799Y415465D01*
X84794Y415464D01*
X84716Y415408D01*
X84638Y415355D01*
X84635Y415351D01*
X84631Y415348D01*
X84580Y415266D01*
X84528Y415187D01*
X84528Y415182D01*
X84525Y415177D01*
X84493Y415000D01*
X84493Y410480D01*
X84494Y410474D01*
X84493Y410467D01*
X84514Y410376D01*
X84532Y410284D01*
X84536Y410278D01*
X84538Y410272D01*
X84592Y410195D01*
X84645Y410118D01*
X84650Y410114D01*
X84654Y410109D01*
X84806Y410012D01*
X85264Y409822D01*
X87242Y407844D01*
X88313Y405259D01*
X88313Y402461D01*
X87242Y399876D01*
X85264Y397898D01*
X84806Y397708D01*
X84800Y397705D01*
X84794Y397703D01*
X84717Y397649D01*
X84640Y397597D01*
X84636Y397591D01*
X84631Y397587D01*
X84581Y397507D01*
X84529Y397429D01*
X84528Y397423D01*
X84525Y397417D01*
X84493Y397240D01*
X84493Y325780D01*
X84494Y325775D01*
X84493Y325770D01*
X84514Y325677D01*
X84532Y325583D01*
X84535Y325579D01*
X84536Y325574D01*
X84592Y325496D01*
X84645Y325418D01*
X84649Y325415D01*
X84652Y325411D01*
X84734Y325360D01*
X84813Y325308D01*
X84818Y325308D01*
X84823Y325305D01*
X85000Y325273D01*
X92242Y325273D01*
X93433Y324082D01*
X93433Y310398D01*
X92242Y309207D01*
X89972Y309207D01*
X89967Y309206D01*
X89962Y309207D01*
X89869Y309186D01*
X89775Y309168D01*
X89771Y309165D01*
X89766Y309164D01*
X89688Y309108D01*
X89610Y309055D01*
X89607Y309051D01*
X89603Y309048D01*
X89552Y308966D01*
X89500Y308887D01*
X89500Y308882D01*
X89497Y308877D01*
X89465Y308700D01*
X89465Y303772D01*
X89466Y303767D01*
X89465Y303762D01*
X89486Y303669D01*
X89504Y303575D01*
X89507Y303571D01*
X89508Y303566D01*
X89564Y303488D01*
X89617Y303410D01*
X89621Y303407D01*
X89624Y303403D01*
X89706Y303352D01*
X89785Y303300D01*
X89790Y303300D01*
X89795Y303297D01*
X89972Y303265D01*
X104586Y303265D01*
X104594Y303266D01*
G37*
G36*
X159610Y234963D02*
X159610Y234963D01*
X159709Y234966D01*
X159767Y234983D01*
X159828Y234991D01*
X159920Y235027D01*
X160015Y235055D01*
X160067Y235085D01*
X160123Y235108D01*
X160203Y235166D01*
X160289Y235216D01*
X160364Y235282D01*
X160381Y235294D01*
X160388Y235304D01*
X160410Y235323D01*
X179580Y254493D01*
X185000Y254493D01*
X185008Y254494D01*
X185015Y254493D01*
X185105Y254514D01*
X185197Y254532D01*
X185203Y254537D01*
X185211Y254539D01*
X185359Y254641D01*
X230210Y299493D01*
X330000Y299493D01*
X330008Y299494D01*
X330015Y299493D01*
X330105Y299514D01*
X330197Y299532D01*
X330203Y299537D01*
X330211Y299539D01*
X330359Y299641D01*
X335359Y304641D01*
X335363Y304648D01*
X335369Y304652D01*
X335418Y304731D01*
X335470Y304808D01*
X335471Y304816D01*
X335475Y304823D01*
X335507Y305000D01*
X335507Y307848D01*
X335506Y307853D01*
X335507Y307858D01*
X335486Y307951D01*
X335468Y308045D01*
X335465Y308049D01*
X335464Y308054D01*
X335408Y308132D01*
X335355Y308210D01*
X335351Y308213D01*
X335348Y308217D01*
X335266Y308268D01*
X335187Y308320D01*
X335182Y308320D01*
X335177Y308323D01*
X335000Y308355D01*
X121594Y308355D01*
X121586Y308354D01*
X121578Y308355D01*
X121488Y308334D01*
X121397Y308316D01*
X121391Y308311D01*
X121383Y308309D01*
X121235Y308207D01*
X119742Y306714D01*
X119742Y306713D01*
X119498Y306470D01*
X108164Y295135D01*
X90372Y295135D01*
X90369Y295135D01*
X90367Y295135D01*
X90272Y295115D01*
X90175Y295096D01*
X90173Y295094D01*
X90171Y295094D01*
X90090Y295038D01*
X90010Y294983D01*
X90008Y294981D01*
X90006Y294979D01*
X89953Y294896D01*
X89900Y294815D01*
X89900Y294812D01*
X89899Y294810D01*
X89882Y294714D01*
X89865Y294618D01*
X89865Y294615D01*
X89865Y294613D01*
X89887Y294519D01*
X89908Y294422D01*
X89910Y294420D01*
X89911Y294417D01*
X90013Y294269D01*
X119130Y265153D01*
X119139Y265078D01*
X119142Y264979D01*
X119159Y264921D01*
X119167Y264860D01*
X119203Y264768D01*
X119231Y264673D01*
X119261Y264621D01*
X119284Y264565D01*
X119342Y264485D01*
X119392Y264399D01*
X119458Y264324D01*
X119470Y264307D01*
X119480Y264300D01*
X119499Y264279D01*
X127763Y256014D01*
X127763Y243840D01*
X127775Y243742D01*
X127778Y243643D01*
X127789Y243605D01*
X127790Y243599D01*
X127796Y243580D01*
X127803Y243524D01*
X127839Y243432D01*
X127867Y243337D01*
X127884Y243308D01*
X127888Y243296D01*
X127902Y243273D01*
X127920Y243229D01*
X127978Y243149D01*
X128028Y243063D01*
X128053Y243036D01*
X128058Y243027D01*
X128070Y243016D01*
X128094Y242988D01*
X128106Y242971D01*
X128116Y242964D01*
X128135Y242943D01*
X135755Y235323D01*
X135833Y235262D01*
X135905Y235194D01*
X135958Y235165D01*
X136006Y235128D01*
X136097Y235088D01*
X136183Y235040D01*
X136242Y235025D01*
X136298Y235001D01*
X136396Y234986D01*
X136491Y234961D01*
X136591Y234955D01*
X136612Y234951D01*
X136624Y234953D01*
X136652Y234951D01*
X159512Y234951D01*
X159610Y234963D01*
G37*
%LPC*%
G36*
X316120Y369087D02*
X316120Y369087D01*
X312616Y370539D01*
X309935Y373220D01*
X308483Y376724D01*
X308483Y380516D01*
X309935Y384020D01*
X312616Y386701D01*
X313155Y386925D01*
X314379Y387432D01*
X314380Y387432D01*
X315604Y387939D01*
X316120Y388153D01*
X319912Y388153D01*
X323416Y386701D01*
X326097Y384020D01*
X327549Y380516D01*
X327549Y376724D01*
X326097Y373220D01*
X323416Y370539D01*
X322372Y370106D01*
X321148Y369599D01*
X321147Y369599D01*
X319923Y369092D01*
X319912Y369087D01*
X316120Y369087D01*
G37*
%LPD*%
%LPC*%
G36*
X106415Y318255D02*
X106415Y318255D01*
X106415Y325781D01*
X109735Y325781D01*
X110381Y325608D01*
X110960Y325273D01*
X111433Y324800D01*
X111768Y324221D01*
X111941Y323575D01*
X111941Y318255D01*
X106415Y318255D01*
G37*
%LPD*%
%LPC*%
G36*
X98859Y318255D02*
X98859Y318255D01*
X98859Y323575D01*
X99032Y324221D01*
X99367Y324800D01*
X99840Y325273D01*
X100419Y325608D01*
X101065Y325781D01*
X104385Y325781D01*
X104385Y318255D01*
X98859Y318255D01*
G37*
%LPD*%
%LPC*%
G36*
X101065Y308699D02*
X101065Y308699D01*
X100419Y308872D01*
X99840Y309207D01*
X99367Y309680D01*
X99032Y310259D01*
X98859Y310905D01*
X98859Y316225D01*
X104385Y316225D01*
X104385Y308699D01*
X101065Y308699D01*
G37*
%LPD*%
%LPC*%
G36*
X105399Y317239D02*
X105399Y317239D01*
X105399Y317241D01*
X105401Y317241D01*
X105401Y317239D01*
X105399Y317239D01*
G37*
%LPD*%
D10*
X785070Y68600D03*
X785070Y17800D03*
X785070Y43200D03*
D11*
X860000Y-22840D03*
X860000Y109240D03*
D10*
X929850Y17800D03*
X929850Y68600D03*
D12*
X828277Y210058D03*
X810277Y210058D03*
D13*
X396320Y371420D03*
D14*
X421720Y371420D03*
X447120Y371420D03*
X472520Y371420D03*
X497920Y371420D03*
X523320Y371420D03*
D15*
X589120Y127820D03*
X357120Y127820D03*
X357120Y364820D03*
X589120Y364820D03*
D14*
X548720Y371420D03*
D16*
X817880Y13860D03*
X817880Y31860D03*
X817880Y46880D03*
X817880Y64880D03*
D12*
X879077Y212598D03*
X861077Y212598D03*
D16*
X779399Y204707D03*
X779399Y186707D03*
X795401Y177817D03*
X795401Y195817D03*
D12*
X858757Y179578D03*
X840757Y179578D03*
X879077Y197358D03*
X861077Y197358D03*
D17*
X810237Y193908D03*
X823237Y193908D03*
X816737Y175408D03*
D12*
X877206Y2413D03*
X895206Y2413D03*
D18*
X776321Y-88138D03*
X804321Y-88138D03*
D16*
X89662Y239666D03*
X89662Y257666D03*
X109347Y240555D03*
X109347Y258555D03*
D19*
X317119Y235079D03*
X317119Y267079D03*
X286639Y235079D03*
X286639Y267079D03*
X347218Y235587D03*
X347218Y267587D03*
X257429Y235079D03*
X257429Y267079D03*
D20*
X246001Y51741D03*
X255501Y73741D03*
X236501Y73741D03*
D21*
X81280Y403860D03*
X888619Y388366D03*
X949960Y-60960D03*
D12*
X950324Y306832D03*
X932324Y306832D03*
D16*
X866140Y346600D03*
X866140Y364600D03*
D22*
X229616Y29591D03*
D23*
X621411Y366522D03*
X646811Y366522D03*
D24*
X942340Y157480D03*
D23*
X942340Y182880D03*
X942340Y208280D03*
X942340Y233680D03*
X942340Y259080D03*
X942340Y284480D03*
D12*
X725280Y335280D03*
X707280Y335280D03*
D25*
X202640Y152300D03*
X132640Y152300D03*
X202640Y120300D03*
X132640Y120300D03*
X202640Y98300D03*
X132640Y98300D03*
X202640Y76300D03*
X132640Y76300D03*
D26*
X185140Y171800D03*
X150140Y56800D03*
D16*
X215900Y186800D03*
X215900Y168800D03*
D20*
X149860Y179500D03*
X159360Y201500D03*
X140360Y201500D03*
D27*
X236220Y163800D03*
X236220Y191800D03*
D16*
X622300Y224680D03*
X622300Y242680D03*
D12*
X731630Y217170D03*
X713630Y217170D03*
D18*
X775940Y-64770D03*
X803940Y-64770D03*
D28*
X690880Y365760D03*
X690880Y391160D03*
X716280Y365760D03*
X716280Y391160D03*
X741680Y365760D03*
X741680Y391160D03*
D16*
X835660Y46372D03*
X835660Y64372D03*
D22*
X498348Y144526D03*
D23*
X280670Y71120D03*
D22*
X641350Y288290D03*
X317500Y152400D03*
X317500Y130810D03*
X153670Y142240D03*
X621030Y167640D03*
X668020Y288290D03*
X154940Y102870D03*
X224790Y11430D03*
X942340Y132080D03*
X944880Y43180D03*
D12*
X895460Y26670D03*
X877460Y26670D03*
D22*
X318016Y378620D03*
D23*
X402844Y127000D03*
X428244Y127000D03*
X645668Y127000D03*
X671068Y127000D03*
D17*
X79500Y291710D03*
X79500Y278710D03*
X61000Y285210D03*
D16*
X32300Y268000D03*
X32300Y286000D03*
D12*
X105400Y317240D03*
X87400Y317240D03*
X810160Y385670D03*
X792160Y385670D03*
X791880Y402100D03*
X809880Y402100D03*
D29*
X393256Y333800D03*
X425264Y333800D03*
D30*
X137000Y31000D03*
X209000Y12000D03*
D31*
X68580Y158750D03*
X17780Y134620D03*
X8890Y218440D03*
X66040Y251460D03*
D32*
X89662Y239666D02*
X108458Y239666D01*
X109347Y240555D01*
X89662Y239666D02*
X89662Y230886D01*
X91440Y229108D01*
D31*
X91440Y229108D03*
X193040Y322072D03*
X136398Y342900D03*
X242062Y255270D03*
D32*
X257429Y267079D02*
X286639Y267079D01*
D33*
X317119Y267079D02*
X346710Y267079D01*
D32*
X347218Y267587D01*
D33*
X317119Y267079D02*
X317119Y275971D01*
X314960Y278130D01*
D31*
X314960Y278130D03*
D32*
X317119Y267079D02*
X286639Y267079D01*
D34*
X833120Y196850D03*
D35*
X889000Y196850D03*
D31*
X881380Y346710D03*
X892810Y130810D03*
X951230Y91440D03*
D34*
X951230Y-22860D03*
D31*
X856996Y-92710D03*
X160020Y82550D03*
D33*
X153770Y76300D02*
X132640Y76300D01*
X153770Y76300D02*
X160020Y82550D01*
D31*
X69850Y60960D03*
X175260Y120650D03*
D35*
X185420Y153670D03*
D31*
X275590Y127000D03*
X353060Y278130D03*
D33*
X349250Y278130D01*
X346710Y275590D01*
X346710Y268095D01*
D32*
X347218Y267587D01*
D31*
X560070Y119380D03*
X580390Y160020D03*
D34*
X574040Y193040D03*
X673100Y214122D03*
X722630Y262890D03*
X673100Y259080D03*
D31*
X670560Y320040D03*
D34*
X544830Y284480D03*
D31*
X750570Y318770D03*
D33*
X734060Y335280D02*
X725280Y335280D01*
D31*
X734060Y335280D03*
D35*
X801370Y166370D03*
D34*
X768350Y201422D03*
D31*
X186690Y127000D03*
X236220Y88900D03*
X240030Y13970D03*
D34*
X599440Y232410D03*
D33*
X731630Y217170D02*
X737616Y217170D01*
X742950Y211836D01*
D34*
X742950Y211836D03*
D33*
X858757Y179578D02*
X858757Y167403D01*
X859790Y166370D01*
D34*
X859790Y166370D03*
D33*
X879077Y197358D02*
X888492Y197358D01*
D32*
X889000Y196850D01*
X830178Y193908D02*
X823237Y193908D01*
X830178Y193908D02*
X833120Y196850D01*
D31*
X945642Y320040D03*
D34*
X199390Y219710D03*
D33*
X215900Y186800D02*
X223630Y186800D01*
X226060Y189230D01*
X233650Y189230D01*
D32*
X236220Y191800D01*
D33*
X817880Y13860D02*
X829200Y13860D01*
X830580Y15240D01*
D31*
X830580Y15240D03*
D33*
X817880Y46880D02*
X807610Y46880D01*
X806450Y45720D01*
D31*
X806450Y45720D03*
D33*
X236501Y73741D02*
X236501Y89181D01*
D36*
X202640Y120300D02*
X202640Y122480D01*
D33*
X198120Y127000D01*
X186690Y127000D01*
X236220Y88900D02*
X236501Y89181D01*
X607170Y224680D02*
X622300Y224680D01*
X607170Y224680D02*
X599440Y232410D01*
X866140Y346600D02*
X881270Y346600D01*
D36*
X881380Y346710D01*
D33*
X199390Y219710D02*
X199390Y212090D01*
X215900Y195580D01*
X215900Y186800D01*
D37*
X770890Y153670D03*
D35*
X151130Y289560D03*
X143510Y289560D03*
X135890Y289560D03*
X133350Y281940D03*
X140970Y281940D03*
X148590Y281940D03*
X151130Y274320D03*
X143510Y274320D03*
X135890Y274320D03*
X133350Y266700D03*
X140970Y266700D03*
X148590Y266700D03*
D34*
X754380Y117856D03*
D36*
X771635Y204707D02*
X779399Y204707D01*
X771635Y204707D02*
X768350Y201422D01*
X950324Y306832D02*
X950324Y315358D01*
X945642Y320040D01*
D31*
X517398Y145796D03*
X830580Y-68072D03*
D38*
X827278Y-64770D02*
X803940Y-64770D01*
X827278Y-64770D02*
X830580Y-68072D01*
D34*
X643636Y154178D03*
D33*
X818388Y46372D02*
X835660Y46372D01*
D36*
X818388Y46372D02*
X817880Y46880D01*
D31*
X442976Y136144D03*
D33*
X222760Y98300D02*
X202640Y98300D01*
X226060Y95000D02*
X226060Y63500D01*
X226060Y95000D02*
X222760Y98300D01*
D36*
X105400Y317240D02*
X105400Y325530D01*
X105200Y325730D01*
D39*
X105000Y405000D03*
X115000Y405000D03*
X125000Y405000D03*
X135000Y405000D03*
X145000Y405000D03*
X155000Y405000D03*
X165000Y405000D03*
X175000Y405000D03*
X185000Y405000D03*
X195000Y405000D03*
X205000Y405000D03*
X215000Y405000D03*
X225000Y405000D03*
X235000Y405000D03*
X245000Y405000D03*
X255000Y405000D03*
X265000Y405000D03*
X275000Y405000D03*
X110000Y395000D03*
X120000Y395000D03*
X130000Y395000D03*
X140000Y395000D03*
X150000Y395000D03*
X160000Y395000D03*
X170000Y395000D03*
X180000Y395000D03*
X190000Y395000D03*
X200000Y395000D03*
X210000Y395000D03*
X220000Y395000D03*
X230000Y395000D03*
X240000Y395000D03*
X250000Y395000D03*
X260000Y395000D03*
X270000Y395000D03*
X280000Y395000D03*
X105000Y385000D03*
X115000Y385000D03*
X125000Y385000D03*
X135000Y385000D03*
X145000Y385000D03*
X155000Y385000D03*
X165000Y385000D03*
X175000Y385000D03*
X185000Y385000D03*
X195000Y385000D03*
X205000Y385000D03*
X215000Y385000D03*
X225000Y385000D03*
X235000Y385000D03*
X245000Y385000D03*
X255000Y385000D03*
X265000Y385000D03*
X275000Y385000D03*
X110000Y375000D03*
X120000Y375000D03*
X130000Y375000D03*
X140000Y375000D03*
X150000Y375000D03*
X160000Y375000D03*
X170000Y375000D03*
X180000Y375000D03*
X190000Y375000D03*
X200000Y375000D03*
X210000Y375000D03*
X220000Y375000D03*
X230000Y375000D03*
X240000Y375000D03*
X250000Y375000D03*
X260000Y375000D03*
X95000Y365000D03*
X105000Y365000D03*
X115000Y365000D03*
X125000Y365000D03*
X100000Y355000D03*
X110000Y355000D03*
X120000Y355000D03*
X130000Y355000D03*
X95000Y345000D03*
X105000Y345000D03*
X115000Y345000D03*
X125000Y345000D03*
X100000Y335000D03*
X110000Y335000D03*
X120000Y335000D03*
X130000Y335000D03*
D32*
X782600Y402100D02*
X791880Y402100D01*
X782600Y402100D02*
X782500Y402200D01*
X781598Y402200D01*
X781198Y401800D01*
D39*
X781198Y401800D03*
D36*
X105400Y329600D02*
X105400Y317240D01*
X105400Y329600D02*
X100000Y335000D01*
D39*
X290700Y324300D03*
X300900Y324300D03*
X312100Y324700D03*
X323100Y325100D03*
D33*
X396320Y336864D02*
X396320Y371420D01*
X396320Y336864D02*
X393256Y333800D01*
D37*
X52000Y261000D03*
D40*
X71000Y22000D03*
X189000Y20000D03*
D33*
X197570Y11430D02*
X224790Y11430D01*
X197570Y11430D02*
X189000Y20000D01*
X209000Y12000D02*
X209570Y11430D01*
X224790Y11430D01*
X189000Y20000D02*
X189000Y26440D01*
X226060Y63500D01*
D36*
X810237Y193908D02*
X810237Y210018D01*
X810277Y210058D01*
D37*
X789432Y212852D03*
D32*
X789432Y213868D01*
X792988Y217424D01*
X802640Y217424D01*
X803656Y216408D01*
X803927Y216408D01*
X810277Y210058D01*
D41*
X44450Y75438D03*
D31*
X47380Y285950D03*
X815340Y300990D03*
X559816Y146812D03*
X520700Y120650D03*
X477520Y136144D03*
D36*
X32420Y285880D02*
X32300Y286000D01*
X47310Y285880D02*
X47380Y285950D01*
X47310Y285880D02*
X32420Y285880D01*
D39*
X783800Y388900D03*
D36*
X788930Y388900D01*
X792160Y385670D01*
D35*
X314960Y182880D03*
X274320Y91440D03*
D36*
X297180Y121920D02*
X297180Y165100D01*
X314960Y182880D01*
X297180Y121920D02*
X274320Y99060D01*
X274320Y91440D01*
D35*
X292100Y182880D03*
X266700Y86360D03*
D36*
X289560Y124460D02*
X289560Y172720D01*
X292100Y175260D01*
X292100Y182880D01*
X289560Y124460D02*
X266700Y101600D01*
X266700Y86360D01*
X274320Y71120D02*
X280670Y71120D01*
D34*
X877570Y176530D03*
D33*
X261291Y51741D02*
X246001Y51741D01*
X261291Y51741D02*
X280670Y71120D01*
D36*
X280670Y80010D01*
X284480Y83820D01*
X284480Y99060D01*
X294640Y109220D01*
X325120Y109220D01*
X332740Y116840D01*
X332740Y139700D01*
X345440Y152400D01*
X477520Y152400D01*
X508000Y182880D01*
X594360Y182880D01*
X601980Y190500D01*
X727964Y190500D01*
X748284Y170180D01*
X784860Y170180D01*
X797560Y157480D01*
X863600Y157480D01*
X871220Y165100D01*
X871220Y170180D01*
X877570Y176530D01*
D34*
X843280Y200660D03*
D36*
X843280Y203200D01*
X836422Y210058D01*
X828277Y210058D01*
D35*
X594360Y215900D03*
D34*
X175260Y236220D03*
D36*
X228092Y216408D02*
X322072Y216408D01*
X340360Y198120D01*
X396240Y198120D01*
X462280Y264160D01*
X517550Y264160D01*
X564690Y217020D01*
X593240Y217020D01*
X594360Y215900D01*
X228092Y216408D02*
X208280Y236220D01*
X175260Y236220D01*
D31*
X337820Y248920D03*
D36*
X363220Y248920D01*
X368300Y254000D01*
X368300Y294640D01*
X378460Y304800D01*
X548640Y304800D01*
X574040Y280416D01*
D35*
X889000Y205740D03*
D36*
X635000Y280416D02*
X574040Y280416D01*
X635000Y280416D02*
X641350Y288290D01*
X889000Y205740D02*
X895604Y205740D01*
X900176Y211836D01*
X900176Y291084D01*
X878840Y312420D01*
X830580Y312420D01*
X822960Y320040D01*
X775970Y320040D01*
D42*
X767080Y365760D03*
D36*
X767080Y330200D02*
X775970Y320040D01*
D31*
X767080Y330200D03*
D35*
X700532Y140208D03*
D33*
X706120Y134620D02*
X751332Y134620D01*
D35*
X818896Y75184D03*
D33*
X706120Y134620D02*
X700532Y140208D01*
X751332Y134620D02*
X810768Y75184D01*
X818896Y75184D01*
D38*
X817880Y64880D02*
X788790Y64880D01*
D43*
X785070Y68600D01*
D38*
X799130Y31860D02*
X817880Y31860D01*
X799130Y31860D02*
X785070Y17800D01*
D35*
X724916Y178308D03*
D33*
X832612Y136652D02*
X832612Y100076D01*
X855980Y76708D01*
X855980Y33020D01*
X858520Y30480D01*
D35*
X858520Y30480D03*
D33*
X782320Y162560D02*
X745744Y162560D01*
D36*
X782320Y162560D02*
X795020Y149860D01*
D33*
X745744Y162560D02*
X729996Y178308D01*
X724916Y178308D01*
D36*
X795020Y149860D02*
X819404Y149860D01*
X832612Y136652D01*
D35*
X538480Y266700D03*
D37*
X860806Y223774D03*
D36*
X654304Y260096D02*
X545084Y260096D01*
X538480Y266700D01*
X860806Y223774D02*
X861060Y224028D01*
X837184Y247904D01*
X729488Y247904D01*
X725424Y243840D01*
X670560Y243840D01*
X654304Y260096D01*
D35*
X485140Y330200D03*
D36*
X487680Y327660D01*
X520700Y327660D01*
X528320Y335280D01*
X647700Y335280D01*
X673100Y360680D01*
X673100Y396240D01*
X683260Y406400D01*
X708660Y406400D01*
X716280Y398780D01*
X716280Y391160D01*
D34*
X880110Y135890D03*
D36*
X882650Y138430D01*
X899160Y157480D01*
X910336Y157480D01*
X924560Y171704D01*
X924560Y215900D01*
X919480Y220980D01*
X919480Y299720D01*
X769620Y406400D02*
X723900Y406400D01*
X716280Y398780D01*
X881380Y337820D02*
X919480Y299720D01*
X771716Y404304D02*
X769620Y406400D01*
X784600Y375483D02*
X784600Y366300D01*
X771716Y388367D02*
X771716Y404304D01*
X771716Y388367D02*
X784600Y375483D01*
X784600Y366300D02*
X797294Y353606D01*
X822175Y353606D01*
X837961Y337820D01*
X881380Y337820D01*
D35*
X535940Y327660D03*
D36*
X652780Y327660D01*
X690880Y365760D01*
D31*
X881380Y165100D03*
D36*
X881380Y167640D01*
X886460Y172720D01*
X904240Y172720D01*
X909320Y177800D01*
X909320Y210820D01*
X906272Y214884D01*
X906272Y293624D01*
D31*
X684530Y334010D03*
D36*
X877316Y322580D02*
X906272Y293624D01*
X877316Y322580D02*
X830580Y322580D01*
X821690Y332740D01*
X744220Y332740D02*
X726440Y312420D01*
X698500Y312420D01*
X685800Y325120D01*
X684530Y334010D01*
X744220Y332740D02*
X749300Y339090D01*
X816610Y339090D01*
X821690Y332740D01*
D35*
X452120Y320040D03*
D36*
X657860Y320040D01*
D35*
X891540Y165100D03*
D36*
X907796Y165100D01*
X916940Y174244D01*
X916940Y213360D01*
X912876Y217424D01*
X912876Y296164D01*
X819150Y346710D02*
X732790Y346710D01*
X716280Y365760D01*
X878840Y330200D02*
X912876Y296164D01*
X878840Y330200D02*
X835660Y330200D01*
X819150Y346710D01*
X683260Y345440D02*
X657860Y320040D01*
X683260Y345440D02*
X698500Y345440D01*
X716280Y365760D01*
D35*
X863600Y248920D03*
X814832Y261620D03*
D36*
X317500Y134620D02*
X317500Y130810D01*
X317500Y134620D02*
X342900Y160020D01*
X459740Y274320D02*
X556260Y274320D01*
X459740Y274320D02*
X393700Y208280D01*
D35*
X393700Y208280D03*
X388620Y160020D03*
D36*
X342900Y160020D01*
X863600Y248920D02*
X863600Y254000D01*
X857504Y260096D01*
X817372Y260096D01*
X814832Y261620D01*
X814832Y262128D01*
X800608Y276352D01*
X690880Y276352D01*
X682752Y268224D01*
X562356Y268224D01*
X556260Y274320D01*
D35*
X871220Y223520D03*
D36*
X874522Y212598D02*
X879077Y212598D01*
X874522Y212598D02*
X871220Y215900D01*
X325120Y152400D02*
X317500Y152400D01*
X325120Y152400D02*
X340360Y167640D01*
X378460Y167640D01*
X871220Y215900D02*
X871220Y223520D01*
X876808Y223520D01*
X880872Y227584D01*
X880872Y251968D01*
X568960Y274320D02*
X546100Y297180D01*
X469900Y297180D01*
X383540Y210820D01*
D35*
X383540Y210820D03*
X378460Y167640D03*
D36*
X822960Y266192D02*
X866648Y266192D01*
X880872Y251968D01*
X678688Y274320D02*
X568960Y274320D01*
X678688Y274320D02*
X686816Y282448D01*
X806704Y282448D01*
X822960Y266192D01*
D35*
X525780Y266700D03*
X848360Y223520D03*
D36*
X650240Y254000D02*
X538480Y254000D01*
X525780Y266700D01*
X650240Y254000D02*
X666496Y237744D01*
X729488Y237744D01*
X733552Y241808D01*
X830072Y241808D01*
X848360Y223520D01*
D35*
X871220Y186690D03*
D32*
X867410Y186690D01*
X866140Y187960D01*
X866140Y192295D01*
X861077Y197358D01*
D34*
X831342Y179070D03*
D33*
X840249Y179070D01*
D32*
X840757Y179578D01*
D34*
X633730Y245110D03*
D32*
X622410Y242570D02*
X622300Y242680D01*
D34*
X702310Y219710D03*
D31*
X899160Y-27940D03*
X952500Y111760D03*
X916940Y149860D03*
X762000Y78740D03*
D34*
X782320Y142240D03*
X799084Y207772D03*
X769620Y264160D03*
X828040Y391160D03*
D33*
X866140Y388620D02*
X866140Y364600D01*
X866140Y388620D02*
X863600Y391160D01*
D34*
X863600Y391160D03*
D33*
X707280Y335280D02*
X707280Y323740D01*
X706120Y322580D01*
D31*
X706120Y322580D03*
X584200Y299720D03*
X563880Y302260D03*
X10160Y180340D03*
D33*
X159360Y201500D02*
X171880Y201500D01*
X172720Y200660D01*
D31*
X172720Y200660D03*
X276860Y149860D03*
D33*
X236220Y149860D02*
X236220Y163800D01*
D31*
X236220Y149860D03*
D33*
X218340Y152300D02*
X202640Y152300D01*
D32*
X218340Y152300D02*
X218440Y152400D01*
D31*
X218440Y152400D03*
D33*
X215900Y154940D02*
X215900Y168800D01*
X215900Y154940D02*
X218440Y152400D01*
X255501Y128501D02*
X276860Y149860D01*
X851662Y212598D02*
X861077Y212598D01*
X851662Y212598D02*
X848360Y210820D01*
D34*
X848360Y210820D03*
D36*
X631190Y242570D02*
X622410Y242570D01*
X631190Y242570D02*
X633730Y245110D01*
D33*
X255501Y128501D02*
X255501Y73741D01*
D36*
X937260Y233680D02*
X942340Y233680D01*
X937260Y233680D02*
X927100Y243840D01*
X927100Y301608D01*
D33*
X713630Y217170D02*
X704850Y217170D01*
X702310Y219710D01*
X895206Y2413D02*
X895206Y-23986D01*
X899160Y-27940D01*
D36*
X927100Y301608D02*
X932324Y306832D01*
D31*
X717296Y107696D03*
X442976Y176784D03*
D33*
X425264Y367876D02*
X421720Y371420D01*
X425264Y367876D02*
X425264Y333800D01*
D35*
X838200Y274320D03*
X866140Y281940D03*
D36*
X845820Y281940D01*
X838200Y274320D01*
D34*
X828040Y274320D03*
D35*
X878840Y281940D03*
D36*
X878840Y284480D01*
X873760Y289560D01*
X839724Y289560D01*
X828040Y277876D01*
X828040Y274320D01*
X816737Y175408D02*
X807572Y175408D01*
X805180Y177800D01*
X795418Y177800D01*
X795401Y177817D01*
X750807Y177817D01*
X730504Y198120D01*
X579120Y203200D02*
X508000Y203200D01*
X584200Y198120D02*
X730504Y198120D01*
X584200Y198120D02*
X579120Y203200D01*
X508000Y203200D02*
X505968Y201168D01*
D34*
X505968Y201168D03*
D31*
X215900Y83820D03*
D33*
X205740Y83820D01*
X203200Y81280D01*
X203200Y76860D01*
D36*
X202640Y76300D01*
D33*
X132080Y114300D02*
X131009Y113229D01*
X132080Y114300D02*
X132080Y119740D01*
D36*
X132640Y120300D01*
D33*
X200660Y83820D02*
X203200Y81280D01*
X200660Y83820D02*
X175260Y83820D01*
X168910Y90170D01*
X168910Y110490D01*
X159100Y120300D01*
X132640Y120300D01*
D31*
X332740Y182880D03*
D33*
X322580Y193040D01*
X266700Y193040D01*
X251460Y177800D01*
X251460Y147320D01*
X243840Y139700D01*
X178500Y139700D01*
X159100Y120300D01*
X132080Y104140D02*
X131009Y105211D01*
X132080Y104140D02*
X132080Y98860D01*
D36*
X132640Y98300D01*
D33*
X150370Y98300D01*
X114300Y93726D02*
X114300Y54420D01*
X114300Y93726D02*
X118872Y98298D01*
X132638Y98298D01*
X132640Y98300D01*
X150370Y98300D02*
X154940Y102870D01*
X131009Y105211D02*
X131009Y113229D01*
D40*
X155000Y20000D03*
D33*
X148720Y20000D01*
X137720Y31000D02*
X114300Y54420D01*
X137000Y31000D02*
X137720Y31000D01*
X148720Y20000D01*
D38*
X895460Y26670D02*
X906018Y26670D01*
X922528Y43180D01*
X944880Y43180D01*
D33*
X877206Y8416D02*
X877206Y2413D01*
X877206Y8416D02*
X895460Y26670D01*
D31*
X886968Y-39624D03*
D36*
X877206Y-1414D02*
X877206Y2413D01*
X877206Y-1414D02*
X877316Y-1524D01*
X877316Y-4572D01*
X886968Y-14224D01*
X886968Y-39624D01*
D34*
X817880Y-45720D03*
X565404Y173736D03*
D33*
X817880Y-23368D02*
X817880Y-45720D01*
X817880Y-23368D02*
X847344Y6096D01*
X847344Y68072D01*
X847344Y72644D01*
X828040Y91948D01*
X807720Y91948D01*
X705104Y150368D02*
X668528Y150368D01*
X705104Y150368D02*
X711200Y144272D01*
X755396Y144272D01*
X807720Y91948D01*
X835660Y64372D02*
X843644Y64372D01*
X847344Y68072D01*
X668528Y150368D02*
X636016Y182880D01*
X605536Y182880D01*
X597408Y174752D01*
X566420Y174752D01*
X565404Y173736D01*
D35*
X872490Y248920D03*
X719836Y251968D03*
D36*
X872490Y248920D02*
X872490Y242570D01*
X868680Y238760D01*
X858520Y238760D01*
X843280Y254000D01*
X721868Y254000D01*
X719836Y251968D01*
D35*
X617220Y297180D03*
D36*
X617220Y307340D01*
X612140Y312420D01*
X119700Y312420D01*
D35*
X889000Y223012D03*
D36*
X657860Y309880D02*
X655320Y312420D01*
X621521Y312420D01*
X616712Y307611D01*
X616712Y297688D01*
X617220Y297180D01*
X893064Y289052D02*
X893064Y227584D01*
X889000Y223012D01*
X675640Y309880D02*
X657860Y309880D01*
X675640Y309880D02*
X688340Y297180D01*
X764540Y297180D01*
X779780Y312420D01*
X877316Y304800D02*
X893064Y289052D01*
X877316Y304800D02*
X828040Y304800D01*
X820420Y312420D01*
X779780Y312420D01*
X87400Y317240D02*
X85400Y315240D01*
X106480Y299200D02*
X119700Y312420D01*
X85400Y297610D02*
X79500Y291710D01*
X85400Y299900D02*
X85400Y315240D01*
X85400Y299900D02*
X85400Y297610D01*
X86100Y299200D02*
X85400Y299900D01*
X86100Y299200D02*
X106480Y299200D01*
D35*
X119380Y248920D03*
D36*
X118982Y248920D01*
X109347Y258555D01*
D40*
X106000Y22000D03*
D34*
X884428Y264668D03*
D35*
X619760Y288036D03*
D36*
X633984Y302260D02*
X673100Y302260D01*
X633984Y302260D02*
X619760Y288036D01*
X829056Y289560D02*
X836676Y297180D01*
X875792Y297180D01*
X886460Y286512D01*
X886460Y266700D01*
X685800Y289560D02*
X673100Y302260D01*
X685800Y289560D02*
X829056Y289560D01*
X884428Y264668D02*
X886460Y266700D01*
D34*
X836930Y220980D03*
X756920Y212090D03*
D36*
X764540Y223520D02*
X834390Y223520D01*
X764540Y223520D02*
X756920Y212090D01*
X834390Y223520D02*
X836930Y220980D01*
D31*
X132080Y137160D03*
D36*
X132080Y151740D01*
X132640Y152300D01*
X132640Y173280D01*
X138860Y179500D01*
X149860Y179500D01*
X143610Y152300D02*
X132640Y152300D01*
X143610Y152300D02*
X153670Y142240D01*
D44*
X801116Y139446D03*
D31*
X114300Y149860D03*
D36*
X114300Y203200D01*
X137160Y226060D01*
X223012Y208788D02*
X319532Y208788D01*
X190500Y226060D02*
X137160Y226060D01*
X190500Y226060D02*
X193040Y228600D01*
X203200Y228600D01*
X223012Y208788D01*
X319532Y208788D02*
X337820Y190500D01*
X398780Y190500D01*
X403860Y185420D01*
D31*
X403860Y185420D03*
D35*
X684784Y116840D03*
D31*
X823468Y-88900D03*
D36*
X807115Y-88900D01*
X804321Y-88138D01*
D40*
X768000Y-32000D03*
X767000Y-3000D03*
D34*
X674624Y160528D03*
D36*
X757936Y154432D02*
X783844Y128524D01*
D34*
X819912Y134874D03*
D36*
X757936Y154432D02*
X713232Y154432D01*
X709168Y158496D01*
X676656Y158496D01*
X674624Y160528D01*
X783844Y128524D02*
X813562Y128524D01*
X819912Y134874D01*
D31*
X755396Y-88900D03*
D36*
X777591Y-88900D01*
X776321Y-88138D01*
D35*
X762000Y-53340D03*
D36*
X762000Y-60960D01*
X765810Y-64770D01*
X775940Y-64770D01*
D35*
X264160Y154940D03*
X281940Y180340D03*
D36*
X264160Y180340D01*
X259080Y175260D01*
X259080Y160020D01*
X264160Y154940D01*
D35*
X824992Y233680D03*
D36*
X735584Y233680D01*
X731520Y229616D01*
X652272Y229616D01*
X638048Y215392D01*
X611632Y215392D01*
X609600Y213360D01*
D35*
X609600Y213360D03*
D34*
X492506Y129540D03*
D36*
X508762Y132080D02*
X558038Y132080D01*
X576326Y150368D01*
X631952Y150368D01*
X640080Y142240D01*
X680720Y142240D01*
X696976Y125984D01*
X733552Y125984D01*
X751840Y107696D01*
X766064Y107696D01*
X786384Y87376D01*
D35*
X786384Y87376D03*
D36*
X508762Y132080D02*
X506222Y129540D01*
X492506Y129540D01*
D34*
X863917Y136843D03*
D36*
X863917Y138113D01*
X862330Y137160D01*
D45*
X864870Y138430D01*
X889000Y115570D01*
D34*
X889000Y115570D03*
D36*
X795401Y195817D02*
X792387Y192803D01*
X753872Y184912D02*
X733044Y205740D01*
X582168Y210312D02*
X476504Y210312D01*
X582168Y210312D02*
X586740Y205740D01*
X753872Y184912D02*
X777604Y184912D01*
X779399Y186707D01*
X792751Y186707D01*
X795528Y189484D01*
X795528Y195690D01*
X795401Y195817D01*
X733044Y205740D02*
X586740Y205740D01*
D34*
X475488Y209296D03*
D36*
X476504Y210312D01*
D31*
X868680Y49530D03*
D33*
X868680Y35450D01*
X877460Y26670D01*
D34*
X590804Y241808D03*
D35*
X889000Y214376D03*
D38*
X286639Y235079D02*
X257429Y235079D01*
X286639Y235079D02*
X317119Y235079D01*
D31*
X345440Y208280D03*
D38*
X346710Y235079D02*
X317119Y235079D01*
D36*
X346710Y235079D02*
X347218Y235587D01*
X346710Y235079D02*
X346710Y209550D01*
X345440Y208280D01*
D31*
X231140Y226060D03*
D38*
X257429Y229489D02*
X257429Y235079D01*
X257429Y229489D02*
X254000Y226060D01*
X231140Y226060D01*
X347218Y235587D02*
X372747Y235587D01*
X378460Y241300D01*
X378460Y256540D01*
X381000Y259080D01*
D31*
X381000Y259080D03*
D36*
X671068Y127000D02*
X671068Y110236D01*
X665480Y104648D01*
X450596Y104648D01*
X428244Y127000D01*
D35*
X99000Y274800D03*
D45*
X99500Y274300D01*
D36*
X79500Y278710D02*
X79500Y267828D01*
X89662Y257666D01*
D32*
X90840Y274800D02*
X99000Y274800D01*
X86930Y278710D02*
X79500Y278710D01*
X86930Y278710D02*
X90840Y274800D01*
D39*
X799500Y374600D03*
D45*
X810160Y385260D01*
X810160Y385670D01*
D36*
X809880Y385950D02*
X809880Y402100D01*
X809880Y385950D02*
X810160Y385670D01*
X60280Y273760D02*
X53328Y269000D01*
X33300Y269000D01*
X32300Y268000D01*
X60280Y273760D02*
X61000Y274480D01*
X61000Y285210D01*
D46*
X0Y0D02*
X293500Y0D01*
X293500Y100000D01*
X748100Y100000D01*
X748100Y-110000D01*
X960000Y-110000D01*
X960000Y340000D01*
X880028Y419972D01*
X79972Y419972D01*
X0Y340000D01*
X0Y0D01*
M02*
