G04 EAGLE Gerber RS-274X export*
G75*
%MOMM*%
%FSLAX34Y34*%
%LPD*%
%INInner Layer 2*%
%IPPOS*%
%AMOC8*
5,1,8,0,0,1.08239X$1,22.5*%
G01*
%ADD10C,1.524000*%
%ADD11C,3.302000*%
%ADD12C,3.216000*%
%ADD13C,1.125000*%
%ADD14C,1.219200*%
%ADD15C,0.711200*%
%ADD16C,0.609600*%
%ADD17C,2.250000*%
%ADD18C,1.333500*%
%ADD19C,1.500000*%
%ADD20C,0.904800*%
%ADD21C,0.254000*%

G36*
X954938Y-106949D02*
X954938Y-106949D01*
X954956Y-106951D01*
X955138Y-106930D01*
X955321Y-106911D01*
X955338Y-106906D01*
X955355Y-106904D01*
X955530Y-106847D01*
X955706Y-106793D01*
X955721Y-106785D01*
X955738Y-106779D01*
X955898Y-106689D01*
X956060Y-106601D01*
X956073Y-106590D01*
X956089Y-106581D01*
X956228Y-106461D01*
X956369Y-106344D01*
X956380Y-106330D01*
X956394Y-106318D01*
X956506Y-106173D01*
X956621Y-106030D01*
X956629Y-106014D01*
X956640Y-106000D01*
X956722Y-105835D01*
X956807Y-105673D01*
X956812Y-105656D01*
X956820Y-105640D01*
X956867Y-105461D01*
X956918Y-105286D01*
X956920Y-105268D01*
X956924Y-105251D01*
X956951Y-104920D01*
X956951Y39445D01*
X956951Y39450D01*
X956951Y39454D01*
X956931Y39648D01*
X956911Y39846D01*
X956910Y39850D01*
X956910Y39855D01*
X956851Y40042D01*
X956793Y40231D01*
X956791Y40235D01*
X956790Y40239D01*
X956697Y40409D01*
X956601Y40585D01*
X956599Y40588D01*
X956596Y40592D01*
X956468Y40745D01*
X956344Y40894D01*
X956340Y40897D01*
X956337Y40900D01*
X956186Y41021D01*
X956030Y41147D01*
X956026Y41149D01*
X956023Y41151D01*
X955848Y41241D01*
X955673Y41332D01*
X955668Y41333D01*
X955664Y41335D01*
X955477Y41388D01*
X955286Y41443D01*
X955281Y41444D01*
X955277Y41445D01*
X955084Y41460D01*
X954884Y41476D01*
X954880Y41476D01*
X954876Y41476D01*
X954682Y41453D01*
X954485Y41429D01*
X954480Y41428D01*
X954476Y41427D01*
X954291Y41366D01*
X954102Y41305D01*
X954098Y41302D01*
X954094Y41301D01*
X953925Y41205D01*
X953751Y41107D01*
X953748Y41104D01*
X953744Y41101D01*
X953595Y40972D01*
X953447Y40843D01*
X953444Y40840D01*
X953440Y40837D01*
X953320Y40680D01*
X953200Y40525D01*
X953198Y40521D01*
X953195Y40518D01*
X953043Y40223D01*
X952233Y38267D01*
X949793Y35827D01*
X946605Y34506D01*
X943155Y34506D01*
X939967Y35827D01*
X937527Y38267D01*
X936206Y41455D01*
X936206Y44905D01*
X937527Y48093D01*
X939967Y50533D01*
X943155Y51854D01*
X946605Y51854D01*
X949793Y50533D01*
X952233Y48093D01*
X953043Y46137D01*
X953045Y46133D01*
X953047Y46129D01*
X953140Y45956D01*
X953234Y45782D01*
X953236Y45779D01*
X953239Y45775D01*
X953363Y45626D01*
X953490Y45472D01*
X953493Y45469D01*
X953496Y45466D01*
X953649Y45343D01*
X953803Y45218D01*
X953807Y45216D01*
X953810Y45213D01*
X953983Y45124D01*
X954159Y45031D01*
X954163Y45030D01*
X954167Y45028D01*
X954356Y44974D01*
X954546Y44918D01*
X954550Y44918D01*
X954554Y44917D01*
X954752Y44900D01*
X954947Y44884D01*
X954951Y44884D01*
X954956Y44884D01*
X955150Y44907D01*
X955347Y44929D01*
X955351Y44930D01*
X955355Y44931D01*
X955541Y44991D01*
X955730Y45052D01*
X955734Y45054D01*
X955738Y45055D01*
X955911Y45153D01*
X956082Y45248D01*
X956085Y45251D01*
X956089Y45253D01*
X956238Y45382D01*
X956387Y45510D01*
X956390Y45514D01*
X956394Y45517D01*
X956514Y45671D01*
X956636Y45827D01*
X956638Y45831D01*
X956640Y45835D01*
X956729Y46013D01*
X956816Y46187D01*
X956818Y46191D01*
X956820Y46195D01*
X956871Y46387D01*
X956923Y46575D01*
X956923Y46580D01*
X956924Y46584D01*
X956951Y46915D01*
X956951Y103415D01*
X956950Y103428D01*
X956951Y103442D01*
X956930Y103628D01*
X956911Y103816D01*
X956907Y103828D01*
X956906Y103842D01*
X956848Y104020D01*
X956793Y104200D01*
X956787Y104212D01*
X956783Y104225D01*
X956691Y104389D01*
X956601Y104554D01*
X956593Y104565D01*
X956586Y104576D01*
X956464Y104719D01*
X956344Y104864D01*
X956333Y104872D01*
X956325Y104882D01*
X956176Y104998D01*
X956030Y105116D01*
X956018Y105122D01*
X956008Y105131D01*
X955838Y105215D01*
X955673Y105302D01*
X955660Y105305D01*
X955648Y105311D01*
X955466Y105361D01*
X955286Y105413D01*
X955272Y105414D01*
X955259Y105418D01*
X955073Y105430D01*
X954884Y105446D01*
X954871Y105444D01*
X954858Y105445D01*
X954672Y105421D01*
X954485Y105399D01*
X954472Y105395D01*
X954459Y105393D01*
X954143Y105292D01*
X953814Y105155D01*
X951186Y105155D01*
X948759Y106161D01*
X946901Y108019D01*
X945895Y110446D01*
X945895Y113074D01*
X946901Y115501D01*
X948759Y117359D01*
X951186Y118365D01*
X953814Y118365D01*
X954143Y118228D01*
X954156Y118225D01*
X954167Y118218D01*
X954348Y118167D01*
X954528Y118112D01*
X954541Y118111D01*
X954554Y118107D01*
X954743Y118092D01*
X954929Y118074D01*
X954942Y118075D01*
X954956Y118074D01*
X955142Y118096D01*
X955329Y118116D01*
X955342Y118120D01*
X955355Y118121D01*
X955534Y118179D01*
X955714Y118235D01*
X955725Y118242D01*
X955738Y118246D01*
X955902Y118338D01*
X956067Y118429D01*
X956077Y118437D01*
X956089Y118444D01*
X956231Y118567D01*
X956375Y118688D01*
X956383Y118698D01*
X956394Y118707D01*
X956508Y118855D01*
X956626Y119003D01*
X956632Y119015D01*
X956640Y119025D01*
X956724Y119193D01*
X956810Y119361D01*
X956814Y119374D01*
X956820Y119386D01*
X956869Y119568D01*
X956920Y119748D01*
X956921Y119761D01*
X956924Y119774D01*
X956951Y120105D01*
X956951Y154664D01*
X956951Y154669D01*
X956951Y154673D01*
X956931Y154867D01*
X956911Y155065D01*
X956910Y155069D01*
X956910Y155074D01*
X956852Y155257D01*
X956793Y155450D01*
X956791Y155454D01*
X956790Y155458D01*
X956697Y155627D01*
X956601Y155804D01*
X956599Y155807D01*
X956596Y155811D01*
X956471Y155961D01*
X956344Y156113D01*
X956340Y156116D01*
X956337Y156119D01*
X956185Y156241D01*
X956030Y156365D01*
X956026Y156367D01*
X956023Y156370D01*
X955848Y156460D01*
X955673Y156551D01*
X955668Y156552D01*
X955664Y156554D01*
X955477Y156607D01*
X955286Y156662D01*
X955281Y156663D01*
X955277Y156664D01*
X955084Y156679D01*
X954884Y156695D01*
X954880Y156695D01*
X954876Y156695D01*
X954683Y156672D01*
X954485Y156648D01*
X954480Y156647D01*
X954476Y156646D01*
X954293Y156586D01*
X954102Y156523D01*
X954098Y156521D01*
X954094Y156520D01*
X953924Y156423D01*
X953751Y156326D01*
X953748Y156323D01*
X953744Y156320D01*
X953593Y156189D01*
X953447Y156062D01*
X953444Y156059D01*
X953440Y156056D01*
X953320Y155899D01*
X953200Y155744D01*
X953198Y155740D01*
X953195Y155737D01*
X953043Y155442D01*
X951385Y151437D01*
X948383Y148435D01*
X944462Y146811D01*
X940218Y146811D01*
X936297Y148435D01*
X933295Y151437D01*
X931671Y155358D01*
X931671Y159602D01*
X933295Y163523D01*
X936297Y166525D01*
X940218Y168149D01*
X944462Y168149D01*
X948383Y166525D01*
X951385Y163523D01*
X953043Y159518D01*
X953045Y159515D01*
X953047Y159510D01*
X953140Y159338D01*
X953234Y159164D01*
X953236Y159160D01*
X953239Y159156D01*
X953365Y159005D01*
X953490Y158853D01*
X953493Y158850D01*
X953496Y158847D01*
X953649Y158724D01*
X953803Y158599D01*
X953807Y158597D01*
X953810Y158595D01*
X953985Y158504D01*
X954159Y158412D01*
X954163Y158411D01*
X954167Y158409D01*
X954357Y158355D01*
X954546Y158299D01*
X954550Y158299D01*
X954554Y158298D01*
X954752Y158281D01*
X954947Y158265D01*
X954951Y158265D01*
X954956Y158265D01*
X955153Y158288D01*
X955347Y158310D01*
X955351Y158311D01*
X955355Y158312D01*
X955544Y158373D01*
X955730Y158433D01*
X955734Y158435D01*
X955738Y158437D01*
X955911Y158534D01*
X956082Y158629D01*
X956085Y158632D01*
X956089Y158634D01*
X956236Y158762D01*
X956387Y158891D01*
X956390Y158895D01*
X956394Y158898D01*
X956512Y159050D01*
X956636Y159208D01*
X956638Y159212D01*
X956640Y159216D01*
X956727Y159391D01*
X956816Y159568D01*
X956818Y159572D01*
X956820Y159576D01*
X956871Y159768D01*
X956923Y159956D01*
X956923Y159961D01*
X956924Y159965D01*
X956951Y160296D01*
X956951Y180064D01*
X956951Y180069D01*
X956951Y180073D01*
X956931Y180267D01*
X956911Y180465D01*
X956910Y180469D01*
X956910Y180474D01*
X956852Y180659D01*
X956793Y180850D01*
X956791Y180854D01*
X956790Y180858D01*
X956696Y181030D01*
X956601Y181204D01*
X956599Y181207D01*
X956596Y181211D01*
X956469Y181363D01*
X956344Y181513D01*
X956340Y181516D01*
X956337Y181519D01*
X956183Y181642D01*
X956030Y181765D01*
X956026Y181767D01*
X956023Y181770D01*
X955847Y181861D01*
X955673Y181951D01*
X955668Y181952D01*
X955664Y181954D01*
X955476Y182008D01*
X955286Y182062D01*
X955281Y182063D01*
X955277Y182064D01*
X955084Y182079D01*
X954884Y182095D01*
X954880Y182095D01*
X954876Y182095D01*
X954683Y182071D01*
X954485Y182048D01*
X954480Y182047D01*
X954476Y182046D01*
X954293Y181986D01*
X954102Y181923D01*
X954098Y181921D01*
X954094Y181920D01*
X953925Y181824D01*
X953751Y181726D01*
X953748Y181723D01*
X953744Y181720D01*
X953595Y181591D01*
X953447Y181462D01*
X953444Y181459D01*
X953440Y181456D01*
X953320Y181299D01*
X953200Y181144D01*
X953198Y181140D01*
X953195Y181137D01*
X953043Y180842D01*
X951385Y176837D01*
X948383Y173835D01*
X944462Y172211D01*
X940218Y172211D01*
X936297Y173835D01*
X933295Y176837D01*
X931671Y180758D01*
X931671Y185002D01*
X933295Y188923D01*
X936297Y191925D01*
X940218Y193549D01*
X944462Y193549D01*
X948383Y191925D01*
X951385Y188923D01*
X953043Y184918D01*
X953045Y184915D01*
X953047Y184910D01*
X953140Y184738D01*
X953234Y184564D01*
X953236Y184560D01*
X953239Y184556D01*
X953365Y184405D01*
X953490Y184253D01*
X953493Y184250D01*
X953496Y184247D01*
X953649Y184124D01*
X953803Y183999D01*
X953807Y183997D01*
X953810Y183995D01*
X953985Y183904D01*
X954159Y183812D01*
X954163Y183811D01*
X954167Y183809D01*
X954357Y183755D01*
X954546Y183699D01*
X954550Y183699D01*
X954554Y183698D01*
X954752Y183681D01*
X954947Y183665D01*
X954951Y183665D01*
X954956Y183665D01*
X955153Y183688D01*
X955347Y183710D01*
X955351Y183711D01*
X955355Y183712D01*
X955544Y183773D01*
X955730Y183833D01*
X955734Y183835D01*
X955738Y183837D01*
X955911Y183934D01*
X956082Y184029D01*
X956085Y184032D01*
X956089Y184034D01*
X956238Y184163D01*
X956387Y184291D01*
X956390Y184295D01*
X956394Y184298D01*
X956513Y184452D01*
X956636Y184608D01*
X956638Y184612D01*
X956640Y184616D01*
X956728Y184792D01*
X956816Y184968D01*
X956818Y184972D01*
X956820Y184976D01*
X956871Y185169D01*
X956923Y185356D01*
X956923Y185361D01*
X956924Y185365D01*
X956951Y185696D01*
X956951Y205464D01*
X956951Y205469D01*
X956951Y205473D01*
X956931Y205667D01*
X956911Y205865D01*
X956910Y205869D01*
X956910Y205874D01*
X956853Y206055D01*
X956793Y206250D01*
X956791Y206254D01*
X956790Y206258D01*
X956696Y206429D01*
X956601Y206604D01*
X956599Y206607D01*
X956596Y206611D01*
X956470Y206762D01*
X956344Y206913D01*
X956340Y206916D01*
X956337Y206919D01*
X956183Y207042D01*
X956030Y207165D01*
X956026Y207167D01*
X956023Y207170D01*
X955847Y207260D01*
X955673Y207351D01*
X955668Y207352D01*
X955664Y207354D01*
X955476Y207407D01*
X955286Y207462D01*
X955281Y207463D01*
X955277Y207464D01*
X955084Y207479D01*
X954884Y207495D01*
X954880Y207495D01*
X954876Y207495D01*
X954683Y207471D01*
X954485Y207448D01*
X954480Y207447D01*
X954476Y207446D01*
X954293Y207386D01*
X954102Y207323D01*
X954098Y207321D01*
X954094Y207320D01*
X953925Y207223D01*
X953751Y207126D01*
X953748Y207123D01*
X953744Y207120D01*
X953592Y206988D01*
X953447Y206862D01*
X953444Y206859D01*
X953440Y206856D01*
X953320Y206699D01*
X953200Y206544D01*
X953198Y206540D01*
X953195Y206537D01*
X953043Y206242D01*
X951385Y202237D01*
X948383Y199235D01*
X944462Y197611D01*
X940218Y197611D01*
X936297Y199235D01*
X933295Y202237D01*
X931671Y206158D01*
X931671Y210402D01*
X933295Y214323D01*
X936297Y217325D01*
X940218Y218949D01*
X944462Y218949D01*
X948383Y217325D01*
X951385Y214323D01*
X953043Y210318D01*
X953045Y210315D01*
X953047Y210310D01*
X953142Y210134D01*
X953234Y209964D01*
X953236Y209960D01*
X953239Y209956D01*
X953363Y209807D01*
X953490Y209653D01*
X953494Y209650D01*
X953496Y209647D01*
X953649Y209524D01*
X953803Y209399D01*
X953807Y209397D01*
X953810Y209395D01*
X953985Y209304D01*
X954159Y209212D01*
X954163Y209211D01*
X954167Y209209D01*
X954357Y209155D01*
X954546Y209099D01*
X954550Y209099D01*
X954554Y209098D01*
X954752Y209081D01*
X954947Y209065D01*
X954951Y209065D01*
X954956Y209065D01*
X955153Y209088D01*
X955347Y209110D01*
X955351Y209111D01*
X955355Y209112D01*
X955544Y209173D01*
X955730Y209233D01*
X955734Y209235D01*
X955738Y209237D01*
X955911Y209334D01*
X956082Y209429D01*
X956085Y209432D01*
X956089Y209434D01*
X956238Y209563D01*
X956387Y209691D01*
X956390Y209695D01*
X956394Y209698D01*
X956512Y209851D01*
X956636Y210008D01*
X956638Y210012D01*
X956640Y210016D01*
X956727Y210190D01*
X956816Y210368D01*
X956818Y210372D01*
X956820Y210376D01*
X956871Y210568D01*
X956923Y210756D01*
X956923Y210761D01*
X956924Y210765D01*
X956951Y211096D01*
X956951Y230864D01*
X956951Y230869D01*
X956951Y230873D01*
X956931Y231067D01*
X956911Y231265D01*
X956910Y231269D01*
X956910Y231274D01*
X956852Y231459D01*
X956793Y231650D01*
X956791Y231654D01*
X956790Y231658D01*
X956696Y231830D01*
X956601Y232004D01*
X956599Y232007D01*
X956596Y232011D01*
X956469Y232163D01*
X956344Y232313D01*
X956340Y232316D01*
X956337Y232319D01*
X956184Y232441D01*
X956030Y232565D01*
X956026Y232567D01*
X956023Y232570D01*
X955847Y232661D01*
X955673Y232751D01*
X955668Y232752D01*
X955664Y232754D01*
X955476Y232807D01*
X955286Y232862D01*
X955281Y232863D01*
X955277Y232864D01*
X955084Y232879D01*
X954884Y232895D01*
X954880Y232895D01*
X954876Y232895D01*
X954683Y232871D01*
X954485Y232848D01*
X954480Y232847D01*
X954476Y232846D01*
X954293Y232786D01*
X954102Y232723D01*
X954098Y232721D01*
X954094Y232720D01*
X953925Y232624D01*
X953751Y232526D01*
X953748Y232523D01*
X953744Y232520D01*
X953592Y232388D01*
X953447Y232262D01*
X953444Y232259D01*
X953440Y232256D01*
X953318Y232097D01*
X953200Y231944D01*
X953198Y231940D01*
X953195Y231937D01*
X953043Y231642D01*
X951385Y227637D01*
X948383Y224635D01*
X944462Y223011D01*
X940218Y223011D01*
X936297Y224635D01*
X933295Y227637D01*
X931671Y231558D01*
X931671Y235802D01*
X933295Y239723D01*
X936297Y242725D01*
X940218Y244349D01*
X944462Y244349D01*
X948383Y242725D01*
X951385Y239723D01*
X953043Y235718D01*
X953045Y235715D01*
X953047Y235710D01*
X953140Y235538D01*
X953234Y235364D01*
X953236Y235360D01*
X953239Y235356D01*
X953363Y235207D01*
X953490Y235053D01*
X953494Y235050D01*
X953496Y235047D01*
X953649Y234924D01*
X953803Y234799D01*
X953807Y234797D01*
X953810Y234795D01*
X953985Y234704D01*
X954159Y234612D01*
X954163Y234611D01*
X954167Y234609D01*
X954357Y234555D01*
X954546Y234499D01*
X954550Y234499D01*
X954554Y234498D01*
X954752Y234481D01*
X954947Y234465D01*
X954951Y234465D01*
X954956Y234465D01*
X955153Y234488D01*
X955347Y234510D01*
X955351Y234511D01*
X955355Y234512D01*
X955544Y234573D01*
X955730Y234633D01*
X955734Y234635D01*
X955738Y234637D01*
X955911Y234734D01*
X956082Y234829D01*
X956085Y234832D01*
X956089Y234834D01*
X956238Y234963D01*
X956387Y235091D01*
X956390Y235095D01*
X956394Y235098D01*
X956512Y235250D01*
X956636Y235408D01*
X956638Y235412D01*
X956640Y235416D01*
X956728Y235592D01*
X956816Y235768D01*
X956818Y235772D01*
X956820Y235776D01*
X956871Y235969D01*
X956923Y236156D01*
X956923Y236161D01*
X956924Y236165D01*
X956951Y236496D01*
X956951Y337896D01*
X956950Y337912D01*
X956951Y337928D01*
X956950Y337938D01*
X956951Y337949D01*
X956929Y338123D01*
X956911Y338296D01*
X956906Y338316D01*
X956904Y338328D01*
X956902Y338334D01*
X956900Y338349D01*
X956845Y338514D01*
X956793Y338681D01*
X956782Y338702D01*
X956779Y338711D01*
X956778Y338714D01*
X956772Y338730D01*
X956685Y338882D01*
X956601Y339035D01*
X956584Y339056D01*
X956583Y339058D01*
X956581Y339061D01*
X956571Y339079D01*
X956356Y339332D01*
X879360Y416328D01*
X879339Y416345D01*
X879322Y416366D01*
X879184Y416473D01*
X879049Y416583D01*
X879025Y416596D01*
X879004Y416612D01*
X878847Y416690D01*
X878693Y416772D01*
X878667Y416780D01*
X878643Y416792D01*
X878474Y416837D01*
X878307Y416887D01*
X878280Y416889D01*
X878255Y416896D01*
X877924Y416923D01*
X82076Y416923D01*
X82050Y416921D01*
X82023Y416923D01*
X81849Y416901D01*
X81676Y416883D01*
X81650Y416876D01*
X81623Y416872D01*
X81458Y416817D01*
X81291Y416765D01*
X81267Y416752D01*
X81242Y416744D01*
X81090Y416657D01*
X80937Y416573D01*
X80916Y416556D01*
X80893Y416543D01*
X80640Y416328D01*
X3644Y339332D01*
X3627Y339311D01*
X3606Y339294D01*
X3499Y339156D01*
X3389Y339021D01*
X3379Y339003D01*
X3379Y339002D01*
X3376Y338997D01*
X3360Y338976D01*
X3282Y338819D01*
X3200Y338665D01*
X3195Y338649D01*
X3193Y338645D01*
X3191Y338636D01*
X3180Y338615D01*
X3135Y338446D01*
X3085Y338279D01*
X3084Y338265D01*
X3082Y338258D01*
X3081Y338245D01*
X3076Y338227D01*
X3049Y337896D01*
X3049Y187473D01*
X3050Y187464D01*
X3049Y187455D01*
X3070Y187263D01*
X3089Y187072D01*
X3091Y187064D01*
X3092Y187055D01*
X3150Y186871D01*
X3207Y186688D01*
X3211Y186680D01*
X3214Y186671D01*
X3306Y186504D01*
X3399Y186334D01*
X3404Y186327D01*
X3409Y186319D01*
X3534Y186171D01*
X3656Y186024D01*
X3663Y186019D01*
X3669Y186012D01*
X3821Y185891D01*
X3970Y185772D01*
X3978Y185768D01*
X3985Y185762D01*
X4158Y185674D01*
X4327Y185586D01*
X4336Y185584D01*
X4344Y185580D01*
X4531Y185528D01*
X4714Y185475D01*
X4723Y185474D01*
X4732Y185472D01*
X4923Y185458D01*
X5116Y185442D01*
X5125Y185443D01*
X5133Y185443D01*
X5323Y185466D01*
X5515Y185489D01*
X5524Y185492D01*
X5533Y185493D01*
X5715Y185554D01*
X5898Y185614D01*
X5906Y185618D01*
X5915Y185621D01*
X6082Y185717D01*
X6249Y185812D01*
X6256Y185818D01*
X6263Y185822D01*
X6385Y185925D01*
X8846Y186945D01*
X11474Y186945D01*
X13901Y185939D01*
X15759Y184081D01*
X16765Y181654D01*
X16765Y179026D01*
X15759Y176599D01*
X13901Y174741D01*
X11474Y173735D01*
X8846Y173735D01*
X6376Y174759D01*
X6354Y174776D01*
X6205Y174898D01*
X6197Y174902D01*
X6190Y174908D01*
X6019Y174997D01*
X5849Y175087D01*
X5841Y175089D01*
X5833Y175094D01*
X5648Y175147D01*
X5463Y175202D01*
X5454Y175202D01*
X5446Y175205D01*
X5255Y175221D01*
X5062Y175238D01*
X5053Y175237D01*
X5044Y175238D01*
X4855Y175216D01*
X4662Y175195D01*
X4653Y175192D01*
X4645Y175191D01*
X4462Y175132D01*
X4278Y175073D01*
X4270Y175069D01*
X4262Y175066D01*
X4094Y174971D01*
X3926Y174878D01*
X3919Y174873D01*
X3911Y174868D01*
X3765Y174742D01*
X3619Y174618D01*
X3613Y174611D01*
X3606Y174605D01*
X3488Y174452D01*
X3369Y174302D01*
X3365Y174294D01*
X3360Y174287D01*
X3274Y174115D01*
X3187Y173943D01*
X3184Y173935D01*
X3180Y173926D01*
X3130Y173739D01*
X3079Y173555D01*
X3078Y173546D01*
X3076Y173538D01*
X3049Y173207D01*
X3049Y5080D01*
X3051Y5062D01*
X3049Y5044D01*
X3070Y4862D01*
X3089Y4679D01*
X3094Y4662D01*
X3096Y4645D01*
X3153Y4470D01*
X3207Y4294D01*
X3215Y4279D01*
X3221Y4262D01*
X3311Y4102D01*
X3399Y3940D01*
X3410Y3927D01*
X3419Y3911D01*
X3539Y3772D01*
X3656Y3631D01*
X3670Y3620D01*
X3682Y3606D01*
X3827Y3494D01*
X3970Y3379D01*
X3986Y3371D01*
X4000Y3360D01*
X4165Y3278D01*
X4327Y3193D01*
X4344Y3188D01*
X4360Y3180D01*
X4539Y3133D01*
X4714Y3082D01*
X4732Y3080D01*
X4749Y3076D01*
X5080Y3049D01*
X148348Y3049D01*
X148352Y3049D01*
X148357Y3049D01*
X148551Y3069D01*
X148748Y3089D01*
X148753Y3090D01*
X148757Y3090D01*
X148944Y3149D01*
X149133Y3207D01*
X149137Y3209D01*
X149142Y3210D01*
X149315Y3305D01*
X149487Y3399D01*
X149491Y3401D01*
X149495Y3404D01*
X149648Y3532D01*
X149797Y3656D01*
X149799Y3660D01*
X149803Y3663D01*
X149926Y3817D01*
X150049Y3970D01*
X150051Y3974D01*
X150054Y3977D01*
X150143Y4152D01*
X150235Y4327D01*
X150236Y4332D01*
X150238Y4336D01*
X150291Y4523D01*
X150346Y4714D01*
X150346Y4719D01*
X150347Y4723D01*
X150362Y4916D01*
X150379Y5116D01*
X150378Y5120D01*
X150379Y5124D01*
X150356Y5313D01*
X150332Y5515D01*
X150330Y5520D01*
X150330Y5524D01*
X150269Y5709D01*
X150207Y5898D01*
X150205Y5902D01*
X150203Y5906D01*
X150106Y6078D01*
X150009Y6249D01*
X150006Y6252D01*
X150004Y6256D01*
X149873Y6407D01*
X149746Y6553D01*
X149742Y6556D01*
X149740Y6560D01*
X149583Y6680D01*
X149428Y6800D01*
X149424Y6802D01*
X149420Y6805D01*
X149125Y6957D01*
X146900Y7878D01*
X142878Y11900D01*
X140701Y17156D01*
X140701Y22844D01*
X142878Y28100D01*
X146900Y32122D01*
X152156Y34299D01*
X157844Y34299D01*
X163100Y32122D01*
X167122Y28100D01*
X169299Y22844D01*
X169299Y17156D01*
X167122Y11900D01*
X163100Y7878D01*
X160875Y6957D01*
X160871Y6955D01*
X160867Y6953D01*
X160694Y6860D01*
X160520Y6766D01*
X160516Y6764D01*
X160513Y6761D01*
X160364Y6637D01*
X160210Y6510D01*
X160207Y6507D01*
X160203Y6504D01*
X160080Y6351D01*
X159956Y6197D01*
X159954Y6193D01*
X159951Y6190D01*
X159861Y6017D01*
X159769Y5841D01*
X159768Y5837D01*
X159765Y5833D01*
X159711Y5643D01*
X159656Y5454D01*
X159655Y5450D01*
X159654Y5446D01*
X159637Y5243D01*
X159621Y5053D01*
X159622Y5049D01*
X159621Y5044D01*
X159644Y4850D01*
X159666Y4653D01*
X159668Y4649D01*
X159668Y4645D01*
X159729Y4457D01*
X159789Y4270D01*
X159792Y4266D01*
X159793Y4262D01*
X159890Y4089D01*
X159986Y3918D01*
X159989Y3915D01*
X159991Y3911D01*
X160119Y3762D01*
X160248Y3613D01*
X160251Y3610D01*
X160254Y3606D01*
X160409Y3486D01*
X160565Y3364D01*
X160569Y3362D01*
X160572Y3360D01*
X160750Y3271D01*
X160924Y3184D01*
X160929Y3182D01*
X160933Y3180D01*
X161125Y3129D01*
X161313Y3077D01*
X161317Y3077D01*
X161321Y3076D01*
X161652Y3049D01*
X288420Y3049D01*
X288438Y3051D01*
X288456Y3049D01*
X288638Y3070D01*
X288821Y3089D01*
X288838Y3094D01*
X288855Y3096D01*
X289030Y3153D01*
X289206Y3207D01*
X289221Y3215D01*
X289238Y3221D01*
X289398Y3311D01*
X289560Y3399D01*
X289573Y3410D01*
X289589Y3419D01*
X289728Y3539D01*
X289869Y3656D01*
X289880Y3670D01*
X289894Y3682D01*
X290006Y3827D01*
X290121Y3970D01*
X290129Y3986D01*
X290140Y4000D01*
X290222Y4165D01*
X290307Y4327D01*
X290312Y4344D01*
X290320Y4360D01*
X290367Y4539D01*
X290418Y4714D01*
X290420Y4732D01*
X290424Y4749D01*
X290451Y5080D01*
X290451Y60910D01*
X290450Y60919D01*
X290451Y60927D01*
X290431Y61118D01*
X290411Y61310D01*
X290409Y61319D01*
X290408Y61328D01*
X290350Y61511D01*
X290293Y61695D01*
X290289Y61703D01*
X290286Y61711D01*
X290193Y61880D01*
X290101Y62049D01*
X290096Y62056D01*
X290091Y62064D01*
X289967Y62210D01*
X289844Y62358D01*
X289837Y62364D01*
X289831Y62371D01*
X289680Y62490D01*
X289530Y62611D01*
X289522Y62615D01*
X289515Y62620D01*
X289342Y62708D01*
X289173Y62796D01*
X289164Y62799D01*
X289156Y62803D01*
X288969Y62855D01*
X288786Y62908D01*
X288777Y62908D01*
X288768Y62911D01*
X288576Y62925D01*
X288384Y62940D01*
X288376Y62939D01*
X288367Y62940D01*
X288175Y62916D01*
X287985Y62894D01*
X287976Y62891D01*
X287967Y62890D01*
X287785Y62828D01*
X287602Y62769D01*
X287594Y62764D01*
X287586Y62761D01*
X287418Y62665D01*
X287251Y62571D01*
X287244Y62565D01*
X287237Y62561D01*
X286984Y62346D01*
X286713Y62075D01*
X282792Y60451D01*
X278548Y60451D01*
X274627Y62075D01*
X271625Y65077D01*
X270001Y68998D01*
X270001Y73242D01*
X271625Y77163D01*
X272322Y77860D01*
X272325Y77863D01*
X272328Y77866D01*
X272453Y78020D01*
X272577Y78171D01*
X272579Y78175D01*
X272582Y78179D01*
X272672Y78351D01*
X272766Y78527D01*
X272767Y78531D01*
X272769Y78535D01*
X272824Y78722D01*
X272880Y78913D01*
X272881Y78917D01*
X272882Y78922D01*
X272899Y79114D01*
X272917Y79314D01*
X272916Y79318D01*
X272917Y79323D01*
X272895Y79513D01*
X272873Y79714D01*
X272872Y79718D01*
X272871Y79723D01*
X272812Y79908D01*
X272752Y80098D01*
X272750Y80102D01*
X272748Y80106D01*
X272693Y80204D01*
X272766Y80168D01*
X272935Y80081D01*
X272944Y80078D01*
X272952Y80074D01*
X273140Y80023D01*
X273323Y79971D01*
X273331Y79971D01*
X273340Y79968D01*
X273535Y79955D01*
X273724Y79940D01*
X273733Y79941D01*
X273742Y79941D01*
X273936Y79966D01*
X274124Y79989D01*
X274132Y79991D01*
X274141Y79993D01*
X274457Y80094D01*
X278548Y81789D01*
X282792Y81789D01*
X286713Y80165D01*
X286984Y79894D01*
X286991Y79888D01*
X286996Y79882D01*
X287146Y79761D01*
X287295Y79639D01*
X287303Y79635D01*
X287310Y79629D01*
X287480Y79541D01*
X287651Y79450D01*
X287660Y79448D01*
X287667Y79444D01*
X287851Y79391D01*
X288037Y79336D01*
X288046Y79335D01*
X288054Y79332D01*
X288245Y79317D01*
X288438Y79299D01*
X288447Y79300D01*
X288456Y79300D01*
X288645Y79322D01*
X288838Y79343D01*
X288847Y79345D01*
X288855Y79346D01*
X289038Y79406D01*
X289222Y79464D01*
X289230Y79468D01*
X289238Y79471D01*
X289407Y79566D01*
X289574Y79659D01*
X289581Y79665D01*
X289589Y79669D01*
X289734Y79795D01*
X289881Y79919D01*
X289887Y79927D01*
X289894Y79932D01*
X290009Y80081D01*
X290131Y80235D01*
X290135Y80243D01*
X290140Y80250D01*
X290226Y80423D01*
X290313Y80594D01*
X290316Y80603D01*
X290320Y80611D01*
X290370Y80799D01*
X290421Y80982D01*
X290422Y80991D01*
X290424Y81000D01*
X290451Y81330D01*
X290451Y101263D01*
X292237Y103049D01*
X709032Y103049D01*
X709045Y103050D01*
X709059Y103049D01*
X709245Y103070D01*
X709433Y103089D01*
X709446Y103093D01*
X709459Y103094D01*
X709638Y103152D01*
X709818Y103207D01*
X709829Y103213D01*
X709842Y103217D01*
X710006Y103309D01*
X710172Y103399D01*
X710182Y103407D01*
X710194Y103414D01*
X710337Y103536D01*
X710481Y103656D01*
X710489Y103667D01*
X710499Y103675D01*
X710615Y103824D01*
X710733Y103970D01*
X710739Y103982D01*
X710748Y103992D01*
X710832Y104160D01*
X710919Y104327D01*
X710922Y104340D01*
X710928Y104352D01*
X710978Y104534D01*
X711030Y104714D01*
X711031Y104728D01*
X711035Y104741D01*
X711048Y104927D01*
X711063Y105116D01*
X711061Y105129D01*
X711062Y105142D01*
X711038Y105328D01*
X711016Y105515D01*
X711012Y105528D01*
X711010Y105541D01*
X710909Y105857D01*
X710691Y106382D01*
X710691Y109010D01*
X711697Y111437D01*
X713555Y113295D01*
X715982Y114301D01*
X718610Y114301D01*
X721037Y113295D01*
X722895Y111437D01*
X723901Y109010D01*
X723901Y106382D01*
X723683Y105857D01*
X723679Y105844D01*
X723673Y105833D01*
X723621Y105652D01*
X723567Y105472D01*
X723566Y105459D01*
X723562Y105446D01*
X723546Y105257D01*
X723529Y105071D01*
X723530Y105058D01*
X723529Y105044D01*
X723551Y104857D01*
X723570Y104671D01*
X723574Y104658D01*
X723576Y104645D01*
X723634Y104467D01*
X723690Y104286D01*
X723697Y104275D01*
X723701Y104262D01*
X723793Y104098D01*
X723883Y103933D01*
X723892Y103923D01*
X723899Y103911D01*
X724021Y103769D01*
X724143Y103625D01*
X724153Y103617D01*
X724162Y103606D01*
X724311Y103491D01*
X724457Y103374D01*
X724469Y103368D01*
X724480Y103360D01*
X724649Y103276D01*
X724816Y103190D01*
X724828Y103186D01*
X724840Y103180D01*
X725023Y103131D01*
X725203Y103080D01*
X725216Y103079D01*
X725229Y103076D01*
X725560Y103049D01*
X749363Y103049D01*
X751149Y101263D01*
X751149Y6274D01*
X751150Y6265D01*
X751149Y6256D01*
X751170Y6064D01*
X751189Y5873D01*
X751191Y5865D01*
X751192Y5856D01*
X751250Y5674D01*
X751307Y5489D01*
X751311Y5481D01*
X751314Y5472D01*
X751407Y5304D01*
X751499Y5134D01*
X751504Y5128D01*
X751509Y5120D01*
X751633Y4973D01*
X751756Y4825D01*
X751763Y4820D01*
X751769Y4813D01*
X751920Y4694D01*
X752070Y4573D01*
X752078Y4569D01*
X752085Y4563D01*
X752258Y4475D01*
X752427Y4387D01*
X752436Y4385D01*
X752444Y4381D01*
X752630Y4329D01*
X752814Y4276D01*
X752823Y4275D01*
X752832Y4273D01*
X753025Y4259D01*
X753216Y4243D01*
X753224Y4244D01*
X753233Y4243D01*
X753426Y4268D01*
X753615Y4290D01*
X753624Y4293D01*
X753633Y4294D01*
X753816Y4355D01*
X753998Y4415D01*
X754006Y4419D01*
X754014Y4422D01*
X754181Y4518D01*
X754349Y4613D01*
X754356Y4619D01*
X754363Y4623D01*
X754616Y4838D01*
X758900Y9122D01*
X764156Y11299D01*
X769844Y11299D01*
X773004Y9990D01*
X773013Y9987D01*
X773021Y9983D01*
X773205Y9929D01*
X773389Y9873D01*
X773398Y9873D01*
X773407Y9870D01*
X773598Y9854D01*
X773790Y9835D01*
X773799Y9836D01*
X773808Y9835D01*
X773998Y9857D01*
X774191Y9877D01*
X774199Y9880D01*
X774208Y9881D01*
X774391Y9939D01*
X774575Y9997D01*
X774583Y10001D01*
X774591Y10004D01*
X774761Y10098D01*
X774928Y10190D01*
X774935Y10196D01*
X774943Y10200D01*
X775089Y10325D01*
X775236Y10449D01*
X775242Y10456D01*
X775249Y10462D01*
X775367Y10613D01*
X775487Y10764D01*
X775491Y10772D01*
X775497Y10779D01*
X775583Y10950D01*
X775671Y11122D01*
X775674Y11131D01*
X775678Y11139D01*
X775729Y11324D01*
X775781Y11509D01*
X775782Y11518D01*
X775784Y11527D01*
X775797Y11721D01*
X775812Y11911D01*
X775811Y11920D01*
X775812Y11929D01*
X775787Y12121D01*
X775764Y12311D01*
X775761Y12319D01*
X775760Y12328D01*
X775658Y12644D01*
X774401Y15678D01*
X774401Y19922D01*
X776025Y23843D01*
X779027Y26845D01*
X782948Y28469D01*
X787192Y28469D01*
X791113Y26845D01*
X794115Y23843D01*
X795739Y19922D01*
X795739Y15678D01*
X794115Y11757D01*
X791113Y8755D01*
X787192Y7131D01*
X782948Y7131D01*
X781844Y7588D01*
X781836Y7591D01*
X781828Y7595D01*
X781641Y7650D01*
X781459Y7705D01*
X781450Y7706D01*
X781441Y7708D01*
X781249Y7725D01*
X781058Y7743D01*
X781049Y7742D01*
X781040Y7743D01*
X780850Y7721D01*
X780658Y7701D01*
X780649Y7699D01*
X780640Y7698D01*
X780458Y7639D01*
X780273Y7582D01*
X780265Y7577D01*
X780257Y7575D01*
X780089Y7481D01*
X779920Y7388D01*
X779913Y7383D01*
X779905Y7378D01*
X779760Y7254D01*
X779612Y7129D01*
X779606Y7122D01*
X779600Y7116D01*
X779482Y6966D01*
X779361Y6814D01*
X779357Y6806D01*
X779351Y6799D01*
X779265Y6628D01*
X779177Y6456D01*
X779174Y6448D01*
X779171Y6440D01*
X779120Y6254D01*
X779067Y6069D01*
X779067Y6060D01*
X779064Y6051D01*
X779051Y5856D01*
X779036Y5667D01*
X779037Y5659D01*
X779037Y5650D01*
X779062Y5457D01*
X779085Y5268D01*
X779088Y5259D01*
X779089Y5250D01*
X779190Y4934D01*
X781299Y-156D01*
X781299Y-5844D01*
X779122Y-11100D01*
X775100Y-15122D01*
X774389Y-15416D01*
X774381Y-15420D01*
X774372Y-15423D01*
X774205Y-15515D01*
X774034Y-15606D01*
X774027Y-15612D01*
X774019Y-15616D01*
X773873Y-15740D01*
X773724Y-15863D01*
X773718Y-15870D01*
X773711Y-15876D01*
X773591Y-16026D01*
X773470Y-16175D01*
X773466Y-16183D01*
X773460Y-16190D01*
X773372Y-16362D01*
X773283Y-16532D01*
X773280Y-16541D01*
X773276Y-16549D01*
X773224Y-16733D01*
X773170Y-16918D01*
X773169Y-16927D01*
X773167Y-16936D01*
X773152Y-17127D01*
X773135Y-17320D01*
X773136Y-17328D01*
X773135Y-17337D01*
X773159Y-17528D01*
X773180Y-17720D01*
X773183Y-17728D01*
X773184Y-17737D01*
X773245Y-17920D01*
X773303Y-18103D01*
X773308Y-18111D01*
X773311Y-18119D01*
X773406Y-18287D01*
X773500Y-18454D01*
X773506Y-18461D01*
X773510Y-18469D01*
X773637Y-18614D01*
X773762Y-18760D01*
X773769Y-18766D01*
X773775Y-18773D01*
X773926Y-18889D01*
X774079Y-19008D01*
X774087Y-19013D01*
X774094Y-19018D01*
X774389Y-19170D01*
X776100Y-19878D01*
X780122Y-23900D01*
X782299Y-29156D01*
X782299Y-34844D01*
X780122Y-40100D01*
X776100Y-44122D01*
X770844Y-46299D01*
X768485Y-46299D01*
X768476Y-46300D01*
X768467Y-46299D01*
X768276Y-46320D01*
X768084Y-46339D01*
X768076Y-46341D01*
X768067Y-46342D01*
X767882Y-46401D01*
X767699Y-46457D01*
X767691Y-46461D01*
X767683Y-46464D01*
X767513Y-46557D01*
X767345Y-46649D01*
X767338Y-46654D01*
X767330Y-46659D01*
X767183Y-46784D01*
X767036Y-46906D01*
X767030Y-46913D01*
X767023Y-46919D01*
X766904Y-47070D01*
X766784Y-47220D01*
X766779Y-47228D01*
X766774Y-47235D01*
X766686Y-47408D01*
X766598Y-47577D01*
X766596Y-47586D01*
X766591Y-47594D01*
X766540Y-47780D01*
X766487Y-47964D01*
X766486Y-47973D01*
X766483Y-47982D01*
X766469Y-48174D01*
X766454Y-48366D01*
X766455Y-48374D01*
X766454Y-48383D01*
X766478Y-48575D01*
X766501Y-48765D01*
X766503Y-48774D01*
X766505Y-48783D01*
X766566Y-48966D01*
X766625Y-49148D01*
X766630Y-49156D01*
X766633Y-49164D01*
X766728Y-49330D01*
X766823Y-49499D01*
X766829Y-49506D01*
X766834Y-49513D01*
X767048Y-49766D01*
X767169Y-49887D01*
X768097Y-52127D01*
X768097Y-54553D01*
X767169Y-56794D01*
X765454Y-58509D01*
X763213Y-59437D01*
X760787Y-59437D01*
X758546Y-58509D01*
X756831Y-56794D01*
X755903Y-54553D01*
X755903Y-52127D01*
X756831Y-49886D01*
X758546Y-48171D01*
X759581Y-47743D01*
X759589Y-47739D01*
X759597Y-47736D01*
X759767Y-47643D01*
X759936Y-47553D01*
X759943Y-47547D01*
X759951Y-47543D01*
X760099Y-47418D01*
X760246Y-47296D01*
X760252Y-47289D01*
X760259Y-47284D01*
X760378Y-47134D01*
X760500Y-46984D01*
X760504Y-46976D01*
X760510Y-46969D01*
X760597Y-46798D01*
X760687Y-46627D01*
X760690Y-46619D01*
X760694Y-46611D01*
X760746Y-46427D01*
X760800Y-46241D01*
X760801Y-46232D01*
X760803Y-46223D01*
X760818Y-46030D01*
X760835Y-45840D01*
X760834Y-45831D01*
X760835Y-45822D01*
X760811Y-45630D01*
X760790Y-45440D01*
X760787Y-45431D01*
X760786Y-45422D01*
X760726Y-45240D01*
X760667Y-45056D01*
X760662Y-45049D01*
X760659Y-45040D01*
X760564Y-44873D01*
X760470Y-44705D01*
X760464Y-44698D01*
X760460Y-44690D01*
X760332Y-44544D01*
X760208Y-44399D01*
X760202Y-44394D01*
X760196Y-44387D01*
X760064Y-44286D01*
X755878Y-40100D01*
X755057Y-38116D01*
X755055Y-38112D01*
X755053Y-38108D01*
X754960Y-37935D01*
X754866Y-37761D01*
X754864Y-37758D01*
X754861Y-37754D01*
X754737Y-37605D01*
X754610Y-37451D01*
X754607Y-37448D01*
X754604Y-37445D01*
X754451Y-37322D01*
X754297Y-37197D01*
X754293Y-37195D01*
X754290Y-37192D01*
X754115Y-37102D01*
X753941Y-37010D01*
X753937Y-37009D01*
X753933Y-37007D01*
X753743Y-36952D01*
X753554Y-36897D01*
X753550Y-36897D01*
X753546Y-36896D01*
X753348Y-36879D01*
X753153Y-36863D01*
X753149Y-36863D01*
X753144Y-36863D01*
X752950Y-36885D01*
X752753Y-36908D01*
X752749Y-36909D01*
X752745Y-36910D01*
X752559Y-36970D01*
X752370Y-37031D01*
X752366Y-37033D01*
X752362Y-37034D01*
X752189Y-37132D01*
X752018Y-37227D01*
X752015Y-37230D01*
X752011Y-37232D01*
X751862Y-37361D01*
X751713Y-37489D01*
X751710Y-37493D01*
X751706Y-37495D01*
X751586Y-37650D01*
X751464Y-37806D01*
X751462Y-37810D01*
X751460Y-37814D01*
X751371Y-37991D01*
X751284Y-38166D01*
X751282Y-38170D01*
X751280Y-38174D01*
X751229Y-38366D01*
X751177Y-38554D01*
X751177Y-38559D01*
X751176Y-38563D01*
X751149Y-38894D01*
X751149Y-80470D01*
X751150Y-80484D01*
X751149Y-80497D01*
X751170Y-80684D01*
X751189Y-80871D01*
X751193Y-80884D01*
X751194Y-80897D01*
X751252Y-81076D01*
X751307Y-81256D01*
X751313Y-81268D01*
X751317Y-81280D01*
X751409Y-81445D01*
X751499Y-81610D01*
X751507Y-81620D01*
X751514Y-81632D01*
X751637Y-81776D01*
X751756Y-81919D01*
X751767Y-81928D01*
X751775Y-81938D01*
X751924Y-82054D01*
X752070Y-82172D01*
X752082Y-82178D01*
X752093Y-82186D01*
X752261Y-82271D01*
X752427Y-82357D01*
X752440Y-82361D01*
X752452Y-82367D01*
X752634Y-82416D01*
X752814Y-82468D01*
X752828Y-82470D01*
X752841Y-82473D01*
X753027Y-82486D01*
X753216Y-82501D01*
X753229Y-82500D01*
X753242Y-82501D01*
X753428Y-82476D01*
X753615Y-82454D01*
X753628Y-82450D01*
X753641Y-82449D01*
X753957Y-82347D01*
X754082Y-82295D01*
X756710Y-82295D01*
X759137Y-83301D01*
X760995Y-85159D01*
X762001Y-87586D01*
X762001Y-90214D01*
X760995Y-92641D01*
X759137Y-94499D01*
X756710Y-95505D01*
X754082Y-95505D01*
X753957Y-95453D01*
X753945Y-95449D01*
X753933Y-95443D01*
X753751Y-95391D01*
X753572Y-95337D01*
X753559Y-95335D01*
X753546Y-95332D01*
X753357Y-95316D01*
X753171Y-95298D01*
X753158Y-95300D01*
X753144Y-95299D01*
X752958Y-95321D01*
X752771Y-95340D01*
X752758Y-95344D01*
X752745Y-95346D01*
X752566Y-95404D01*
X752386Y-95460D01*
X752375Y-95466D01*
X752362Y-95470D01*
X752198Y-95563D01*
X752033Y-95653D01*
X752023Y-95662D01*
X752011Y-95668D01*
X751869Y-95791D01*
X751725Y-95912D01*
X751717Y-95923D01*
X751706Y-95931D01*
X751592Y-96080D01*
X751474Y-96227D01*
X751468Y-96239D01*
X751460Y-96250D01*
X751376Y-96419D01*
X751290Y-96585D01*
X751286Y-96598D01*
X751280Y-96610D01*
X751231Y-96793D01*
X751180Y-96973D01*
X751179Y-96986D01*
X751176Y-96999D01*
X751149Y-97330D01*
X751149Y-104920D01*
X751151Y-104938D01*
X751149Y-104956D01*
X751170Y-105138D01*
X751189Y-105321D01*
X751194Y-105338D01*
X751196Y-105355D01*
X751253Y-105530D01*
X751307Y-105706D01*
X751315Y-105721D01*
X751321Y-105738D01*
X751411Y-105898D01*
X751499Y-106060D01*
X751510Y-106073D01*
X751519Y-106089D01*
X751639Y-106228D01*
X751756Y-106369D01*
X751770Y-106380D01*
X751782Y-106394D01*
X751927Y-106506D01*
X752070Y-106621D01*
X752086Y-106629D01*
X752100Y-106640D01*
X752265Y-106722D01*
X752427Y-106807D01*
X752444Y-106812D01*
X752460Y-106820D01*
X752639Y-106867D01*
X752814Y-106918D01*
X752832Y-106920D01*
X752849Y-106924D01*
X753180Y-106951D01*
X954920Y-106951D01*
X954938Y-106949D01*
G37*
%LPC*%
G36*
X856109Y89681D02*
X856109Y89681D01*
X848921Y92659D01*
X843419Y98161D01*
X840441Y105349D01*
X840441Y113131D01*
X843419Y120319D01*
X848921Y125821D01*
X851285Y126801D01*
X851286Y126801D01*
X856109Y128799D01*
X857717Y128799D01*
X857726Y128800D01*
X857735Y128799D01*
X857927Y128820D01*
X858118Y128839D01*
X858126Y128841D01*
X858135Y128842D01*
X858317Y128900D01*
X858502Y128957D01*
X858510Y128961D01*
X858519Y128964D01*
X858687Y129057D01*
X858856Y129149D01*
X858863Y129154D01*
X858871Y129159D01*
X859019Y129284D01*
X859166Y129406D01*
X859171Y129413D01*
X859178Y129419D01*
X859297Y129570D01*
X859418Y129720D01*
X859422Y129728D01*
X859428Y129735D01*
X859515Y129906D01*
X859604Y130077D01*
X859606Y130086D01*
X859610Y130094D01*
X859662Y130279D01*
X859715Y130464D01*
X859716Y130473D01*
X859718Y130482D01*
X859732Y130673D01*
X859748Y130866D01*
X859747Y130874D01*
X859747Y130883D01*
X859723Y131074D01*
X859701Y131265D01*
X859698Y131274D01*
X859697Y131283D01*
X859636Y131464D01*
X859576Y131648D01*
X859572Y131656D01*
X859569Y131664D01*
X859474Y131830D01*
X859378Y131999D01*
X859372Y132006D01*
X859368Y132013D01*
X859153Y132266D01*
X858318Y133102D01*
X857312Y135529D01*
X857312Y138157D01*
X858318Y140584D01*
X860176Y142442D01*
X862603Y143448D01*
X865231Y143448D01*
X867658Y142442D01*
X869516Y140584D01*
X870334Y138609D01*
X870338Y138602D01*
X870341Y138593D01*
X870434Y138423D01*
X870524Y138255D01*
X870530Y138248D01*
X870534Y138240D01*
X870659Y138091D01*
X870781Y137944D01*
X870788Y137938D01*
X870794Y137932D01*
X870944Y137811D01*
X871093Y137690D01*
X871101Y137686D01*
X871108Y137681D01*
X871280Y137593D01*
X871450Y137503D01*
X871459Y137501D01*
X871467Y137497D01*
X871652Y137444D01*
X871836Y137390D01*
X871845Y137390D01*
X871854Y137387D01*
X872046Y137372D01*
X872238Y137356D01*
X872246Y137357D01*
X872255Y137356D01*
X872447Y137379D01*
X872638Y137401D01*
X872646Y137404D01*
X872655Y137405D01*
X872837Y137465D01*
X873021Y137524D01*
X873029Y137528D01*
X873037Y137531D01*
X873203Y137626D01*
X873372Y137720D01*
X873379Y137726D01*
X873387Y137731D01*
X873533Y137858D01*
X873678Y137982D01*
X873684Y137989D01*
X873691Y137995D01*
X873809Y138149D01*
X873926Y138299D01*
X873930Y138307D01*
X873936Y138314D01*
X874088Y138609D01*
X874511Y139631D01*
X876369Y141489D01*
X878796Y142495D01*
X881424Y142495D01*
X883851Y141489D01*
X885709Y139631D01*
X886715Y137204D01*
X886715Y134576D01*
X885709Y132149D01*
X883851Y130291D01*
X881424Y129285D01*
X878796Y129285D01*
X876369Y130291D01*
X874511Y132149D01*
X873693Y134124D01*
X873689Y134131D01*
X873686Y134140D01*
X873594Y134308D01*
X873503Y134478D01*
X873497Y134485D01*
X873493Y134493D01*
X873370Y134639D01*
X873246Y134789D01*
X873239Y134794D01*
X873233Y134801D01*
X873083Y134921D01*
X872934Y135043D01*
X872926Y135047D01*
X872919Y135052D01*
X872748Y135140D01*
X872577Y135230D01*
X872568Y135232D01*
X872561Y135236D01*
X872376Y135288D01*
X872191Y135343D01*
X872182Y135344D01*
X872173Y135346D01*
X871982Y135361D01*
X871789Y135377D01*
X871781Y135376D01*
X871772Y135377D01*
X871583Y135354D01*
X871389Y135332D01*
X871381Y135329D01*
X871372Y135328D01*
X871191Y135268D01*
X871006Y135209D01*
X870998Y135205D01*
X870990Y135202D01*
X870822Y135106D01*
X870655Y135013D01*
X870648Y135007D01*
X870640Y135002D01*
X870495Y134876D01*
X870349Y134751D01*
X870343Y134744D01*
X870337Y134738D01*
X870219Y134585D01*
X870101Y134434D01*
X870097Y134426D01*
X870091Y134419D01*
X869940Y134124D01*
X869516Y133102D01*
X867658Y131244D01*
X867354Y131118D01*
X867346Y131113D01*
X867337Y131111D01*
X867169Y131019D01*
X866999Y130927D01*
X866992Y130922D01*
X866984Y130917D01*
X866837Y130794D01*
X866688Y130671D01*
X866683Y130664D01*
X866676Y130658D01*
X866556Y130508D01*
X866435Y130358D01*
X866430Y130350D01*
X866425Y130343D01*
X866336Y130170D01*
X866247Y130002D01*
X866245Y129993D01*
X866241Y129985D01*
X866189Y129802D01*
X866134Y129615D01*
X866134Y129606D01*
X866131Y129598D01*
X866116Y129407D01*
X866100Y129214D01*
X866101Y129205D01*
X866100Y129196D01*
X866123Y129007D01*
X866145Y128814D01*
X866148Y128806D01*
X866149Y128797D01*
X866209Y128616D01*
X866268Y128431D01*
X866272Y128423D01*
X866275Y128415D01*
X866370Y128248D01*
X866464Y128079D01*
X866470Y128073D01*
X866475Y128065D01*
X866601Y127919D01*
X866726Y127774D01*
X866733Y127768D01*
X866739Y127761D01*
X866891Y127645D01*
X867043Y127525D01*
X867051Y127521D01*
X867058Y127516D01*
X867354Y127364D01*
X871079Y125821D01*
X876581Y120319D01*
X878487Y115717D01*
X878489Y115713D01*
X878491Y115709D01*
X878584Y115536D01*
X878678Y115362D01*
X878680Y115358D01*
X878683Y115355D01*
X878807Y115205D01*
X878934Y115052D01*
X878937Y115049D01*
X878940Y115045D01*
X879093Y114923D01*
X879247Y114798D01*
X879251Y114796D01*
X879254Y114793D01*
X879429Y114702D01*
X879603Y114611D01*
X879607Y114610D01*
X879611Y114608D01*
X879801Y114553D01*
X879990Y114498D01*
X879994Y114497D01*
X879998Y114496D01*
X880196Y114480D01*
X880391Y114463D01*
X880395Y114464D01*
X880400Y114463D01*
X880597Y114486D01*
X880791Y114508D01*
X880795Y114510D01*
X880799Y114510D01*
X880988Y114572D01*
X881174Y114631D01*
X881178Y114634D01*
X881182Y114635D01*
X881355Y114732D01*
X881526Y114828D01*
X881529Y114831D01*
X881533Y114833D01*
X881682Y114961D01*
X881831Y115090D01*
X881834Y115093D01*
X881838Y115096D01*
X881956Y115249D01*
X882080Y115407D01*
X882082Y115411D01*
X882084Y115414D01*
X882171Y115589D01*
X882260Y115766D01*
X882262Y115771D01*
X882264Y115775D01*
X882315Y115966D01*
X882367Y116155D01*
X882367Y116159D01*
X882368Y116163D01*
X882395Y116494D01*
X882395Y116884D01*
X883401Y119311D01*
X885259Y121169D01*
X887686Y122175D01*
X890314Y122175D01*
X892741Y121169D01*
X894599Y119311D01*
X895605Y116884D01*
X895605Y114256D01*
X894599Y111829D01*
X892741Y109971D01*
X890314Y108965D01*
X887686Y108965D01*
X885259Y109971D01*
X883359Y111870D01*
X883277Y112025D01*
X883274Y112028D01*
X883271Y112032D01*
X883147Y112181D01*
X883020Y112335D01*
X883017Y112338D01*
X883014Y112341D01*
X882864Y112462D01*
X882708Y112589D01*
X882704Y112591D01*
X882700Y112594D01*
X882528Y112683D01*
X882351Y112776D01*
X882347Y112777D01*
X882343Y112779D01*
X882158Y112832D01*
X881965Y112889D01*
X881960Y112889D01*
X881956Y112891D01*
X881758Y112907D01*
X881564Y112924D01*
X881559Y112923D01*
X881554Y112923D01*
X881358Y112900D01*
X881163Y112878D01*
X881159Y112877D01*
X881155Y112877D01*
X880969Y112816D01*
X880780Y112755D01*
X880776Y112753D01*
X880772Y112752D01*
X880600Y112655D01*
X880429Y112559D01*
X880425Y112556D01*
X880421Y112554D01*
X880271Y112424D01*
X880123Y112297D01*
X880120Y112294D01*
X880116Y112291D01*
X879998Y112137D01*
X879875Y111980D01*
X879872Y111976D01*
X879870Y111973D01*
X879783Y111799D01*
X879694Y111621D01*
X879692Y111616D01*
X879690Y111612D01*
X879638Y111417D01*
X879587Y111232D01*
X879587Y111228D01*
X879586Y111223D01*
X879559Y110893D01*
X879559Y105349D01*
X876581Y98161D01*
X871079Y92659D01*
X869376Y91953D01*
X869375Y91953D01*
X863891Y89681D01*
X856109Y89681D01*
G37*
%LPD*%
%LPC*%
G36*
X585315Y345691D02*
X585315Y345691D01*
X578284Y348603D01*
X572903Y353984D01*
X569991Y361015D01*
X569991Y368625D01*
X572903Y375656D01*
X578284Y381037D01*
X585315Y383949D01*
X592925Y383949D01*
X599956Y381037D01*
X605337Y375656D01*
X608279Y368553D01*
X608289Y368453D01*
X608290Y368449D01*
X608290Y368444D01*
X608348Y368258D01*
X608407Y368068D01*
X608409Y368064D01*
X608410Y368060D01*
X608504Y367888D01*
X608599Y367714D01*
X608601Y367711D01*
X608604Y367707D01*
X608731Y367556D01*
X608856Y367405D01*
X608860Y367402D01*
X608863Y367398D01*
X609017Y367275D01*
X609170Y367152D01*
X609174Y367150D01*
X609177Y367148D01*
X609352Y367058D01*
X609527Y366967D01*
X609532Y366966D01*
X609536Y366964D01*
X609723Y366911D01*
X609914Y366855D01*
X609919Y366855D01*
X609923Y366854D01*
X610116Y366839D01*
X610316Y366823D01*
X610320Y366823D01*
X610324Y366823D01*
X610518Y366846D01*
X610715Y366870D01*
X610720Y366871D01*
X610724Y366871D01*
X610909Y366933D01*
X611098Y366994D01*
X611102Y366997D01*
X611106Y366998D01*
X611278Y367096D01*
X611449Y367192D01*
X611452Y367195D01*
X611456Y367197D01*
X611607Y367329D01*
X611753Y367455D01*
X611756Y367459D01*
X611760Y367462D01*
X611880Y367618D01*
X612000Y367774D01*
X612002Y367778D01*
X612005Y367781D01*
X612157Y368076D01*
X613658Y371702D01*
X616231Y374275D01*
X619592Y375667D01*
X623230Y375667D01*
X626591Y374275D01*
X629164Y371702D01*
X630556Y368341D01*
X630556Y364703D01*
X629164Y361342D01*
X626591Y358769D01*
X623230Y357377D01*
X619592Y357377D01*
X616231Y358769D01*
X613658Y361342D01*
X612157Y364968D01*
X612155Y364972D01*
X612153Y364976D01*
X612060Y365148D01*
X611966Y365323D01*
X611964Y365326D01*
X611961Y365330D01*
X611838Y365479D01*
X611710Y365633D01*
X611707Y365636D01*
X611704Y365639D01*
X611551Y365762D01*
X611397Y365887D01*
X611393Y365889D01*
X611390Y365892D01*
X611215Y365982D01*
X611041Y366074D01*
X611037Y366075D01*
X611033Y366077D01*
X610843Y366132D01*
X610654Y366187D01*
X610650Y366187D01*
X610646Y366189D01*
X610448Y366205D01*
X610253Y366222D01*
X610249Y366221D01*
X610244Y366221D01*
X610050Y366199D01*
X609853Y366176D01*
X609849Y366175D01*
X609845Y366174D01*
X609659Y366114D01*
X609470Y366053D01*
X609466Y366051D01*
X609462Y366050D01*
X609289Y365952D01*
X609118Y365857D01*
X609115Y365854D01*
X609111Y365852D01*
X608961Y365722D01*
X608813Y365595D01*
X608810Y365591D01*
X608806Y365589D01*
X608686Y365434D01*
X608564Y365278D01*
X608562Y365274D01*
X608560Y365270D01*
X608471Y365093D01*
X608384Y364918D01*
X608382Y364914D01*
X608380Y364910D01*
X608327Y364713D01*
X608277Y364530D01*
X608277Y364525D01*
X608276Y364521D01*
X608249Y364190D01*
X608249Y361015D01*
X605337Y353984D01*
X599956Y348603D01*
X598235Y347891D01*
X592925Y345691D01*
X585315Y345691D01*
G37*
%LPD*%
%LPC*%
G36*
X856109Y-42399D02*
X856109Y-42399D01*
X848921Y-39421D01*
X843419Y-33919D01*
X840441Y-26731D01*
X840441Y-18949D01*
X843419Y-11761D01*
X848921Y-6259D01*
X856109Y-3281D01*
X863891Y-3281D01*
X871079Y-6259D01*
X876581Y-11761D01*
X879559Y-18949D01*
X879559Y-26731D01*
X876581Y-33919D01*
X871079Y-39421D01*
X869493Y-40078D01*
X863891Y-42399D01*
X856109Y-42399D01*
G37*
%LPD*%
%LPC*%
G36*
X353315Y108691D02*
X353315Y108691D01*
X346284Y111603D01*
X340903Y116984D01*
X337991Y124015D01*
X337991Y131625D01*
X340903Y138656D01*
X346284Y144037D01*
X353315Y146949D01*
X360925Y146949D01*
X367956Y144037D01*
X373337Y138656D01*
X376249Y131625D01*
X376249Y124015D01*
X373337Y116984D01*
X367956Y111603D01*
X360925Y108691D01*
X353315Y108691D01*
G37*
%LPD*%
%LPC*%
G36*
X585315Y108691D02*
X585315Y108691D01*
X578284Y111603D01*
X572903Y116984D01*
X569991Y124015D01*
X569991Y131625D01*
X572903Y138656D01*
X578284Y144037D01*
X585315Y146949D01*
X592925Y146949D01*
X599956Y144037D01*
X605337Y138656D01*
X608249Y131625D01*
X608249Y124015D01*
X605337Y116984D01*
X599956Y111603D01*
X592925Y108691D01*
X585315Y108691D01*
G37*
%LPD*%
%LPC*%
G36*
X353315Y345691D02*
X353315Y345691D01*
X346284Y348603D01*
X340903Y353984D01*
X337991Y361015D01*
X337991Y368625D01*
X340903Y375656D01*
X346284Y381037D01*
X353315Y383949D01*
X360925Y383949D01*
X367956Y381037D01*
X373337Y375656D01*
X376249Y368625D01*
X376249Y361015D01*
X373337Y353984D01*
X367956Y348603D01*
X366235Y347891D01*
X360925Y345691D01*
X353315Y345691D01*
G37*
%LPD*%
%LPC*%
G36*
X27110Y12251D02*
X27110Y12251D01*
X20293Y15075D01*
X15075Y20293D01*
X12251Y27110D01*
X12251Y34490D01*
X15075Y41307D01*
X20293Y46525D01*
X27110Y49349D01*
X34490Y49349D01*
X41307Y46525D01*
X46525Y41307D01*
X49349Y34490D01*
X49349Y27110D01*
X46525Y20293D01*
X41307Y15075D01*
X34490Y12251D01*
X27110Y12251D01*
G37*
%LPD*%
%LPC*%
G36*
X907110Y322251D02*
X907110Y322251D01*
X900293Y325075D01*
X895075Y330293D01*
X892251Y337110D01*
X892251Y344490D01*
X895075Y351307D01*
X900293Y356525D01*
X904731Y358363D01*
X907110Y359349D01*
X914490Y359349D01*
X921307Y356525D01*
X926525Y351307D01*
X929349Y344490D01*
X929349Y337110D01*
X926525Y330293D01*
X921307Y325075D01*
X914490Y322251D01*
X907110Y322251D01*
G37*
%LPD*%
%LPC*%
G36*
X47110Y322251D02*
X47110Y322251D01*
X40293Y325075D01*
X35075Y330293D01*
X32251Y337110D01*
X32251Y344490D01*
X35075Y351307D01*
X40293Y356525D01*
X44731Y358363D01*
X47110Y359349D01*
X54490Y359349D01*
X61307Y356525D01*
X66525Y351307D01*
X69349Y344490D01*
X69349Y337110D01*
X66525Y330293D01*
X61307Y325075D01*
X54490Y322251D01*
X47110Y322251D01*
G37*
%LPD*%
%LPC*%
G36*
X927110Y-97749D02*
X927110Y-97749D01*
X920293Y-94925D01*
X915075Y-89707D01*
X912251Y-82890D01*
X912251Y-75510D01*
X915075Y-68693D01*
X920293Y-63475D01*
X923599Y-62106D01*
X927110Y-60651D01*
X934490Y-60651D01*
X941307Y-63475D01*
X946525Y-68693D01*
X949349Y-75510D01*
X949349Y-82890D01*
X946525Y-89707D01*
X941307Y-94925D01*
X934490Y-97749D01*
X927110Y-97749D01*
G37*
%LPD*%
%LPC*%
G36*
X841966Y194055D02*
X841966Y194055D01*
X839539Y195061D01*
X837681Y196919D01*
X836675Y199346D01*
X836675Y201974D01*
X837681Y204401D01*
X839539Y206259D01*
X840702Y206741D01*
X840718Y206750D01*
X840735Y206755D01*
X840895Y206844D01*
X841057Y206931D01*
X841071Y206943D01*
X841086Y206951D01*
X841225Y207070D01*
X841367Y207188D01*
X841379Y207202D01*
X841392Y207213D01*
X841505Y207358D01*
X841621Y207500D01*
X841629Y207516D01*
X841640Y207530D01*
X841723Y207695D01*
X841808Y207857D01*
X841813Y207874D01*
X841821Y207890D01*
X841870Y208067D01*
X841921Y208243D01*
X841923Y208261D01*
X841927Y208278D01*
X841940Y208461D01*
X841956Y208644D01*
X841954Y208662D01*
X841955Y208680D01*
X841931Y208862D01*
X841911Y209044D01*
X841905Y209061D01*
X841903Y209079D01*
X841801Y209395D01*
X841755Y209506D01*
X841755Y212156D01*
X841788Y212267D01*
X841843Y212450D01*
X841844Y212459D01*
X841846Y212468D01*
X841863Y212660D01*
X841881Y212851D01*
X841880Y212860D01*
X841881Y212869D01*
X841860Y213059D01*
X841840Y213251D01*
X841837Y213260D01*
X841836Y213269D01*
X841777Y213452D01*
X841720Y213636D01*
X841716Y213643D01*
X841713Y213652D01*
X841619Y213820D01*
X841527Y213989D01*
X841521Y213996D01*
X841516Y214004D01*
X841392Y214149D01*
X841267Y214297D01*
X841260Y214303D01*
X841255Y214309D01*
X841103Y214428D01*
X840953Y214548D01*
X840945Y214552D01*
X840938Y214558D01*
X840766Y214644D01*
X840594Y214732D01*
X840586Y214734D01*
X840578Y214738D01*
X840393Y214789D01*
X840207Y214842D01*
X840198Y214842D01*
X840189Y214845D01*
X839998Y214858D01*
X839806Y214873D01*
X839797Y214872D01*
X839788Y214872D01*
X839596Y214847D01*
X839406Y214824D01*
X839398Y214821D01*
X839389Y214820D01*
X839073Y214719D01*
X838244Y214375D01*
X835616Y214375D01*
X833189Y215381D01*
X831331Y217239D01*
X830325Y219666D01*
X830325Y222294D01*
X831331Y224721D01*
X833189Y226579D01*
X835616Y227585D01*
X838244Y227585D01*
X840921Y226476D01*
X840942Y226469D01*
X840962Y226459D01*
X841134Y226411D01*
X841306Y226359D01*
X841328Y226357D01*
X841350Y226351D01*
X841529Y226338D01*
X841707Y226321D01*
X841729Y226324D01*
X841751Y226322D01*
X841930Y226345D01*
X842107Y226363D01*
X842128Y226370D01*
X842151Y226372D01*
X842321Y226430D01*
X842492Y226483D01*
X842511Y226494D01*
X842532Y226501D01*
X842687Y226590D01*
X842845Y226676D01*
X842862Y226691D01*
X842881Y226702D01*
X843134Y226916D01*
X844907Y228689D01*
X847147Y229617D01*
X849573Y229617D01*
X851814Y228689D01*
X853020Y227482D01*
X853034Y227471D01*
X853045Y227457D01*
X853189Y227343D01*
X853331Y227227D01*
X853347Y227219D01*
X853361Y227208D01*
X853525Y227125D01*
X853687Y227039D01*
X853704Y227034D01*
X853720Y227026D01*
X853897Y226976D01*
X854073Y226924D01*
X854091Y226922D01*
X854108Y226918D01*
X854291Y226904D01*
X854474Y226888D01*
X854492Y226889D01*
X854509Y226888D01*
X854691Y226911D01*
X854874Y226931D01*
X854891Y226936D01*
X854909Y226939D01*
X855083Y226997D01*
X855258Y227052D01*
X855274Y227061D01*
X855290Y227067D01*
X855449Y227158D01*
X855610Y227247D01*
X855624Y227259D01*
X855639Y227268D01*
X855892Y227482D01*
X857353Y228943D01*
X859593Y229871D01*
X862019Y229871D01*
X864259Y228943D01*
X864704Y228498D01*
X864717Y228487D01*
X864729Y228473D01*
X864873Y228360D01*
X865015Y228243D01*
X865031Y228235D01*
X865045Y228224D01*
X865208Y228141D01*
X865371Y228055D01*
X865388Y228050D01*
X865404Y228042D01*
X865580Y227992D01*
X865757Y227940D01*
X865775Y227938D01*
X865792Y227934D01*
X865975Y227920D01*
X866158Y227904D01*
X866175Y227905D01*
X866193Y227904D01*
X866375Y227927D01*
X866558Y227947D01*
X866575Y227952D01*
X866593Y227955D01*
X866767Y228013D01*
X866942Y228068D01*
X866957Y228077D01*
X866974Y228083D01*
X867134Y228175D01*
X867294Y228263D01*
X867308Y228275D01*
X867323Y228284D01*
X867576Y228498D01*
X867766Y228689D01*
X870007Y229617D01*
X872433Y229617D01*
X874674Y228689D01*
X876389Y226974D01*
X877317Y224733D01*
X877317Y222307D01*
X876389Y220066D01*
X874674Y218351D01*
X872433Y217423D01*
X870007Y217423D01*
X867766Y218351D01*
X867322Y218796D01*
X867308Y218807D01*
X867297Y218821D01*
X867153Y218934D01*
X867011Y219051D01*
X866995Y219059D01*
X866981Y219070D01*
X866817Y219154D01*
X866655Y219239D01*
X866638Y219244D01*
X866622Y219253D01*
X866445Y219302D01*
X866269Y219354D01*
X866251Y219356D01*
X866234Y219360D01*
X866051Y219374D01*
X865868Y219390D01*
X865850Y219389D01*
X865833Y219390D01*
X865651Y219367D01*
X865468Y219347D01*
X865451Y219342D01*
X865433Y219339D01*
X865260Y219281D01*
X865084Y219226D01*
X865068Y219217D01*
X865051Y219211D01*
X864893Y219120D01*
X864732Y219031D01*
X864718Y219019D01*
X864703Y219010D01*
X864450Y218796D01*
X864260Y218605D01*
X862019Y217677D01*
X859593Y217677D01*
X857352Y218605D01*
X856146Y219812D01*
X856133Y219823D01*
X856121Y219836D01*
X855977Y219950D01*
X855835Y220067D01*
X855819Y220075D01*
X855805Y220086D01*
X855642Y220169D01*
X855479Y220255D01*
X855462Y220260D01*
X855446Y220268D01*
X855270Y220317D01*
X855093Y220370D01*
X855075Y220372D01*
X855058Y220376D01*
X854876Y220390D01*
X854692Y220406D01*
X854675Y220405D01*
X854657Y220406D01*
X854475Y220383D01*
X854292Y220363D01*
X854275Y220358D01*
X854257Y220355D01*
X854084Y220297D01*
X853908Y220242D01*
X853893Y220233D01*
X853876Y220227D01*
X853717Y220136D01*
X853556Y220047D01*
X853542Y220035D01*
X853527Y220026D01*
X853274Y219812D01*
X852428Y218966D01*
X852416Y218952D01*
X852403Y218940D01*
X852288Y218796D01*
X852173Y218654D01*
X852164Y218638D01*
X852153Y218624D01*
X852070Y218461D01*
X851984Y218298D01*
X851979Y218281D01*
X851971Y218265D01*
X851922Y218089D01*
X851869Y217912D01*
X851867Y217895D01*
X851863Y217877D01*
X851849Y217693D01*
X851833Y217511D01*
X851835Y217494D01*
X851833Y217476D01*
X851856Y217294D01*
X851876Y217111D01*
X851881Y217094D01*
X851884Y217076D01*
X851942Y216902D01*
X851998Y216727D01*
X852006Y216712D01*
X852012Y216695D01*
X852103Y216536D01*
X852192Y216375D01*
X852204Y216361D01*
X852213Y216346D01*
X852428Y216093D01*
X853959Y214561D01*
X854965Y212134D01*
X854965Y209506D01*
X853959Y207079D01*
X852101Y205221D01*
X850938Y204739D01*
X850922Y204730D01*
X850905Y204725D01*
X850745Y204636D01*
X850583Y204549D01*
X850569Y204537D01*
X850554Y204529D01*
X850415Y204410D01*
X850273Y204292D01*
X850261Y204278D01*
X850248Y204267D01*
X850135Y204122D01*
X850019Y203980D01*
X850011Y203964D01*
X850000Y203950D01*
X849917Y203785D01*
X849832Y203623D01*
X849827Y203606D01*
X849819Y203590D01*
X849770Y203413D01*
X849719Y203237D01*
X849717Y203219D01*
X849713Y203202D01*
X849700Y203019D01*
X849684Y202836D01*
X849686Y202818D01*
X849685Y202800D01*
X849709Y202617D01*
X849729Y202436D01*
X849735Y202419D01*
X849737Y202401D01*
X849839Y202085D01*
X849885Y201974D01*
X849885Y199346D01*
X848879Y196919D01*
X847021Y195061D01*
X844594Y194055D01*
X841966Y194055D01*
G37*
%LPD*%
%LPC*%
G36*
X103156Y7701D02*
X103156Y7701D01*
X97900Y9878D01*
X93878Y13900D01*
X91701Y19156D01*
X91701Y24844D01*
X93878Y30100D01*
X97900Y34122D01*
X100972Y35394D01*
X103156Y36299D01*
X108844Y36299D01*
X114100Y34122D01*
X118122Y30100D01*
X120299Y24844D01*
X120299Y19156D01*
X118122Y13900D01*
X114100Y9878D01*
X108844Y7701D01*
X103156Y7701D01*
G37*
%LPD*%
%LPC*%
G36*
X491192Y122935D02*
X491192Y122935D01*
X488765Y123941D01*
X486907Y125799D01*
X485901Y128226D01*
X485901Y130281D01*
X485900Y130290D01*
X485901Y130299D01*
X485880Y130491D01*
X485861Y130682D01*
X485859Y130690D01*
X485858Y130699D01*
X485800Y130881D01*
X485743Y131066D01*
X485739Y131074D01*
X485736Y131083D01*
X485643Y131251D01*
X485551Y131420D01*
X485546Y131427D01*
X485541Y131435D01*
X485416Y131583D01*
X485294Y131730D01*
X485287Y131735D01*
X485281Y131742D01*
X485129Y131862D01*
X484980Y131982D01*
X484972Y131986D01*
X484965Y131992D01*
X484793Y132079D01*
X484623Y132168D01*
X484614Y132170D01*
X484606Y132174D01*
X484420Y132226D01*
X484236Y132279D01*
X484227Y132280D01*
X484218Y132282D01*
X484026Y132296D01*
X483834Y132312D01*
X483826Y132311D01*
X483817Y132311D01*
X483624Y132287D01*
X483435Y132265D01*
X483426Y132262D01*
X483417Y132261D01*
X483234Y132200D01*
X483052Y132140D01*
X483044Y132136D01*
X483036Y132133D01*
X482870Y132037D01*
X482701Y131942D01*
X482694Y131936D01*
X482687Y131932D01*
X482434Y131717D01*
X481261Y130545D01*
X478834Y129539D01*
X476206Y129539D01*
X473779Y130545D01*
X471921Y132403D01*
X470915Y134830D01*
X470915Y137458D01*
X471921Y139885D01*
X473779Y141743D01*
X476206Y142749D01*
X478834Y142749D01*
X481261Y141743D01*
X483119Y139885D01*
X484125Y137458D01*
X484125Y135403D01*
X484126Y135394D01*
X484125Y135385D01*
X484146Y135193D01*
X484165Y135002D01*
X484167Y134994D01*
X484168Y134985D01*
X484226Y134803D01*
X484283Y134618D01*
X484287Y134610D01*
X484290Y134601D01*
X484383Y134433D01*
X484475Y134264D01*
X484480Y134257D01*
X484485Y134249D01*
X484610Y134101D01*
X484732Y133954D01*
X484739Y133949D01*
X484745Y133942D01*
X484897Y133822D01*
X485046Y133702D01*
X485054Y133698D01*
X485061Y133692D01*
X485233Y133605D01*
X485403Y133516D01*
X485412Y133514D01*
X485420Y133510D01*
X485606Y133458D01*
X485790Y133405D01*
X485799Y133404D01*
X485808Y133402D01*
X486000Y133388D01*
X486192Y133372D01*
X486200Y133373D01*
X486209Y133373D01*
X486402Y133397D01*
X486591Y133419D01*
X486600Y133422D01*
X486609Y133423D01*
X486792Y133484D01*
X486974Y133544D01*
X486982Y133548D01*
X486990Y133551D01*
X487156Y133647D01*
X487325Y133742D01*
X487332Y133748D01*
X487339Y133752D01*
X487592Y133967D01*
X488765Y135139D01*
X490696Y135939D01*
X490708Y135946D01*
X490721Y135950D01*
X490885Y136040D01*
X491051Y136129D01*
X491062Y136138D01*
X491073Y136144D01*
X491216Y136266D01*
X491362Y136386D01*
X491370Y136396D01*
X491380Y136405D01*
X491497Y136553D01*
X491615Y136699D01*
X491621Y136710D01*
X491630Y136721D01*
X491715Y136889D01*
X491802Y137055D01*
X491806Y137068D01*
X491812Y137080D01*
X491863Y137262D01*
X491915Y137441D01*
X491917Y137455D01*
X491920Y137468D01*
X491934Y137656D01*
X491950Y137843D01*
X491949Y137856D01*
X491950Y137869D01*
X491926Y138056D01*
X491905Y138243D01*
X491901Y138255D01*
X491899Y138269D01*
X491839Y138447D01*
X491782Y138626D01*
X491775Y138638D01*
X491771Y138650D01*
X491677Y138814D01*
X491585Y138977D01*
X491577Y138988D01*
X491570Y138999D01*
X491355Y139252D01*
X490995Y139613D01*
X489674Y142801D01*
X489674Y146251D01*
X490995Y149439D01*
X493435Y151879D01*
X496623Y153200D01*
X500073Y153200D01*
X503261Y151879D01*
X505701Y149439D01*
X507022Y146251D01*
X507022Y142801D01*
X505701Y139613D01*
X503261Y137173D01*
X500071Y135851D01*
X500067Y135851D01*
X500054Y135852D01*
X499867Y135831D01*
X499680Y135812D01*
X499667Y135808D01*
X499653Y135807D01*
X499475Y135750D01*
X499295Y135694D01*
X499283Y135688D01*
X499270Y135684D01*
X499106Y135592D01*
X498941Y135502D01*
X498930Y135494D01*
X498919Y135487D01*
X498775Y135364D01*
X498631Y135245D01*
X498623Y135234D01*
X498613Y135226D01*
X498497Y135077D01*
X498379Y134931D01*
X498373Y134919D01*
X498365Y134909D01*
X498280Y134740D01*
X498194Y134574D01*
X498190Y134561D01*
X498184Y134549D01*
X498133Y134365D01*
X498082Y134187D01*
X498081Y134173D01*
X498078Y134160D01*
X498065Y133974D01*
X498049Y133785D01*
X498051Y133772D01*
X498050Y133759D01*
X498074Y133573D01*
X498096Y133386D01*
X498100Y133373D01*
X498102Y133360D01*
X498204Y133044D01*
X499111Y130854D01*
X499111Y128226D01*
X498105Y125799D01*
X496247Y123941D01*
X493820Y122935D01*
X491192Y122935D01*
G37*
%LPD*%
%LPC*%
G36*
X880066Y158495D02*
X880066Y158495D01*
X877639Y159501D01*
X875781Y161359D01*
X874775Y163786D01*
X874775Y166414D01*
X875456Y168058D01*
X875461Y168075D01*
X875470Y168091D01*
X875519Y168267D01*
X875573Y168443D01*
X875575Y168461D01*
X875579Y168478D01*
X875593Y168661D01*
X875611Y168844D01*
X875609Y168862D01*
X875610Y168880D01*
X875588Y169061D01*
X875569Y169245D01*
X875564Y169262D01*
X875562Y169279D01*
X875504Y169453D01*
X875449Y169629D01*
X875441Y169645D01*
X875435Y169662D01*
X875344Y169821D01*
X875256Y169982D01*
X875245Y169996D01*
X875236Y170011D01*
X875116Y170149D01*
X874997Y170290D01*
X874983Y170302D01*
X874971Y170315D01*
X874826Y170427D01*
X874682Y170541D01*
X874666Y170549D01*
X874652Y170560D01*
X874357Y170712D01*
X873829Y170931D01*
X871971Y172789D01*
X870965Y175216D01*
X870965Y177844D01*
X871020Y177975D01*
X871025Y177992D01*
X871033Y178008D01*
X871083Y178185D01*
X871136Y178361D01*
X871138Y178378D01*
X871143Y178396D01*
X871157Y178579D01*
X871174Y178761D01*
X871172Y178779D01*
X871174Y178797D01*
X871152Y178978D01*
X871133Y179162D01*
X871127Y179179D01*
X871125Y179197D01*
X871068Y179371D01*
X871013Y179546D01*
X871004Y179562D01*
X870999Y179579D01*
X870907Y179739D01*
X870820Y179899D01*
X870808Y179913D01*
X870799Y179929D01*
X870679Y180067D01*
X870560Y180208D01*
X870547Y180219D01*
X870535Y180232D01*
X870390Y180344D01*
X870246Y180459D01*
X870230Y180467D01*
X870216Y180478D01*
X869920Y180629D01*
X867766Y181521D01*
X866051Y183236D01*
X865123Y185477D01*
X865123Y187903D01*
X866051Y190144D01*
X867766Y191859D01*
X870007Y192787D01*
X872433Y192787D01*
X874674Y191859D01*
X876389Y190144D01*
X877317Y187903D01*
X877317Y185141D01*
X877319Y185119D01*
X877317Y185097D01*
X877339Y184918D01*
X877357Y184740D01*
X877363Y184719D01*
X877366Y184697D01*
X877422Y184526D01*
X877475Y184356D01*
X877485Y184336D01*
X877492Y184315D01*
X877581Y184159D01*
X877667Y184001D01*
X877681Y183984D01*
X877692Y183965D01*
X877810Y183830D01*
X877924Y183692D01*
X877942Y183678D01*
X877956Y183661D01*
X878098Y183552D01*
X878238Y183440D01*
X878258Y183430D01*
X878276Y183416D01*
X878571Y183264D01*
X881311Y182129D01*
X883169Y180271D01*
X884175Y177844D01*
X884175Y175216D01*
X883494Y173572D01*
X883489Y173555D01*
X883480Y173539D01*
X883430Y173363D01*
X883377Y173187D01*
X883375Y173169D01*
X883371Y173152D01*
X883357Y172969D01*
X883339Y172786D01*
X883341Y172768D01*
X883340Y172750D01*
X883362Y172569D01*
X883381Y172385D01*
X883386Y172368D01*
X883388Y172351D01*
X883446Y172176D01*
X883501Y172001D01*
X883509Y171985D01*
X883515Y171968D01*
X883606Y171809D01*
X883694Y171648D01*
X883705Y171634D01*
X883714Y171619D01*
X883834Y171481D01*
X883953Y171340D01*
X883967Y171328D01*
X883979Y171315D01*
X884124Y171203D01*
X884268Y171089D01*
X884284Y171081D01*
X884298Y171070D01*
X884593Y170918D01*
X885121Y170699D01*
X885383Y170438D01*
X885397Y170426D01*
X885408Y170412D01*
X885553Y170299D01*
X885694Y170183D01*
X885710Y170174D01*
X885724Y170163D01*
X885889Y170080D01*
X886050Y169994D01*
X886067Y169989D01*
X886083Y169981D01*
X886259Y169932D01*
X886436Y169879D01*
X886454Y169877D01*
X886471Y169873D01*
X886653Y169859D01*
X886837Y169843D01*
X886855Y169845D01*
X886873Y169843D01*
X887054Y169866D01*
X887237Y169886D01*
X887254Y169892D01*
X887272Y169894D01*
X887447Y169952D01*
X887621Y170008D01*
X887637Y170016D01*
X887654Y170022D01*
X887813Y170114D01*
X887973Y170202D01*
X887987Y170214D01*
X888003Y170223D01*
X888028Y170244D01*
X890327Y171197D01*
X892753Y171197D01*
X894994Y170269D01*
X896709Y168554D01*
X897637Y166313D01*
X897637Y163887D01*
X896709Y161646D01*
X894994Y159931D01*
X892753Y159003D01*
X890327Y159003D01*
X888011Y159963D01*
X887944Y160017D01*
X887928Y160026D01*
X887914Y160037D01*
X887751Y160120D01*
X887589Y160206D01*
X887571Y160211D01*
X887555Y160219D01*
X887378Y160269D01*
X887203Y160321D01*
X887185Y160322D01*
X887167Y160327D01*
X886984Y160341D01*
X886802Y160357D01*
X886784Y160355D01*
X886766Y160357D01*
X886584Y160334D01*
X886401Y160314D01*
X886384Y160308D01*
X886366Y160306D01*
X886192Y160248D01*
X886018Y160192D01*
X886002Y160184D01*
X885985Y160178D01*
X885825Y160086D01*
X885665Y159998D01*
X885652Y159986D01*
X885636Y159977D01*
X885383Y159762D01*
X885121Y159501D01*
X882694Y158495D01*
X880066Y158495D01*
G37*
%LPD*%
%LPC*%
G36*
X782948Y57931D02*
X782948Y57931D01*
X779027Y59555D01*
X776025Y62557D01*
X774401Y66478D01*
X774401Y70722D01*
X776025Y74643D01*
X779027Y77645D01*
X782205Y78961D01*
X782217Y78967D01*
X782230Y78971D01*
X782394Y79062D01*
X782560Y79151D01*
X782570Y79160D01*
X782582Y79166D01*
X782725Y79288D01*
X782870Y79408D01*
X782879Y79418D01*
X782889Y79427D01*
X783005Y79574D01*
X783124Y79720D01*
X783130Y79732D01*
X783138Y79743D01*
X783224Y79911D01*
X783311Y80077D01*
X783315Y80090D01*
X783321Y80102D01*
X783371Y80283D01*
X783424Y80463D01*
X783425Y80476D01*
X783429Y80489D01*
X783443Y80678D01*
X783459Y80864D01*
X783457Y80877D01*
X783458Y80891D01*
X783434Y81080D01*
X783414Y81264D01*
X783410Y81277D01*
X783408Y81290D01*
X783348Y81469D01*
X783290Y81648D01*
X783284Y81659D01*
X783280Y81672D01*
X783186Y81835D01*
X783094Y81999D01*
X783085Y82009D01*
X783079Y82021D01*
X782864Y82274D01*
X781215Y83923D01*
X780287Y86163D01*
X780287Y88589D01*
X781215Y90830D01*
X782930Y92545D01*
X785171Y93473D01*
X787597Y93473D01*
X789838Y92545D01*
X791553Y90830D01*
X792481Y88589D01*
X792481Y86163D01*
X791553Y83922D01*
X789838Y82207D01*
X789498Y82067D01*
X789490Y82063D01*
X789482Y82060D01*
X789314Y81968D01*
X789143Y81877D01*
X789136Y81871D01*
X789128Y81867D01*
X788981Y81743D01*
X788833Y81620D01*
X788827Y81613D01*
X788820Y81608D01*
X788700Y81457D01*
X788579Y81308D01*
X788575Y81300D01*
X788569Y81293D01*
X788482Y81123D01*
X788392Y80951D01*
X788390Y80942D01*
X788385Y80935D01*
X788334Y80751D01*
X788279Y80565D01*
X788278Y80556D01*
X788276Y80547D01*
X788261Y80356D01*
X788244Y80164D01*
X788245Y80155D01*
X788245Y80146D01*
X788268Y79956D01*
X788289Y79763D01*
X788292Y79755D01*
X788293Y79746D01*
X788353Y79566D01*
X788413Y79380D01*
X788417Y79372D01*
X788420Y79364D01*
X788515Y79197D01*
X788609Y79029D01*
X788615Y79022D01*
X788619Y79014D01*
X788746Y78868D01*
X788871Y78723D01*
X788878Y78717D01*
X788884Y78711D01*
X789036Y78593D01*
X789188Y78475D01*
X789196Y78471D01*
X789203Y78465D01*
X789498Y78314D01*
X791113Y77645D01*
X794115Y74643D01*
X795739Y70722D01*
X795739Y66478D01*
X794115Y62557D01*
X791113Y59555D01*
X787192Y57931D01*
X782948Y57931D01*
G37*
%LPD*%
%LPC*%
G36*
X683571Y110743D02*
X683571Y110743D01*
X681330Y111671D01*
X679615Y113386D01*
X678687Y115627D01*
X678687Y117218D01*
X678686Y117231D01*
X678687Y117244D01*
X678666Y117431D01*
X678647Y117618D01*
X678643Y117631D01*
X678642Y117645D01*
X678584Y117823D01*
X678529Y118003D01*
X678523Y118015D01*
X678519Y118028D01*
X678427Y118192D01*
X678337Y118357D01*
X678329Y118368D01*
X678322Y118379D01*
X678200Y118523D01*
X678080Y118667D01*
X678069Y118675D01*
X678061Y118685D01*
X677912Y118801D01*
X677766Y118919D01*
X677754Y118925D01*
X677744Y118933D01*
X677575Y119018D01*
X677409Y119104D01*
X677396Y119108D01*
X677384Y119114D01*
X677202Y119164D01*
X677022Y119216D01*
X677008Y119217D01*
X676995Y119221D01*
X676807Y119233D01*
X676620Y119249D01*
X676607Y119247D01*
X676594Y119248D01*
X676406Y119224D01*
X676221Y119202D01*
X676208Y119198D01*
X676195Y119196D01*
X675879Y119094D01*
X672887Y117855D01*
X669249Y117855D01*
X665888Y119247D01*
X663315Y121820D01*
X661923Y125181D01*
X661923Y128819D01*
X663315Y132180D01*
X665888Y134753D01*
X669249Y136145D01*
X672887Y136145D01*
X676248Y134753D01*
X678821Y132180D01*
X680213Y128819D01*
X680213Y125128D01*
X680211Y125122D01*
X680155Y124938D01*
X680154Y124929D01*
X680152Y124920D01*
X680135Y124728D01*
X680117Y124537D01*
X680118Y124528D01*
X680117Y124519D01*
X680139Y124328D01*
X680159Y124137D01*
X680161Y124128D01*
X680162Y124119D01*
X680221Y123936D01*
X680278Y123752D01*
X680283Y123744D01*
X680286Y123736D01*
X680379Y123569D01*
X680472Y123399D01*
X680478Y123392D01*
X680482Y123384D01*
X680607Y123239D01*
X680731Y123091D01*
X680738Y123085D01*
X680744Y123078D01*
X680895Y122960D01*
X681046Y122840D01*
X681054Y122836D01*
X681061Y122830D01*
X681232Y122744D01*
X681404Y122656D01*
X681412Y122654D01*
X681421Y122649D01*
X681606Y122599D01*
X681791Y122546D01*
X681800Y122546D01*
X681809Y122543D01*
X682001Y122530D01*
X682193Y122515D01*
X682202Y122516D01*
X682211Y122516D01*
X682401Y122540D01*
X682592Y122564D01*
X682601Y122567D01*
X682610Y122568D01*
X682926Y122669D01*
X683571Y122937D01*
X685997Y122937D01*
X688238Y122009D01*
X689953Y120294D01*
X690881Y118053D01*
X690881Y115627D01*
X689953Y113386D01*
X688238Y111671D01*
X685997Y110743D01*
X683571Y110743D01*
G37*
%LPD*%
%LPC*%
G36*
X444998Y360751D02*
X444998Y360751D01*
X441077Y362375D01*
X438075Y365377D01*
X436451Y369298D01*
X436451Y373542D01*
X438075Y377463D01*
X441077Y380465D01*
X444998Y382089D01*
X449242Y382089D01*
X453163Y380465D01*
X456165Y377463D01*
X457789Y373542D01*
X457789Y369298D01*
X456165Y365377D01*
X453163Y362375D01*
X449242Y360751D01*
X444998Y360751D01*
G37*
%LPD*%
%LPC*%
G36*
X419598Y360751D02*
X419598Y360751D01*
X415677Y362375D01*
X412675Y365377D01*
X411051Y369298D01*
X411051Y373542D01*
X412675Y377463D01*
X415677Y380465D01*
X419598Y382089D01*
X423842Y382089D01*
X427763Y380465D01*
X430765Y377463D01*
X432389Y373542D01*
X432389Y369298D01*
X430765Y365377D01*
X427763Y362375D01*
X423842Y360751D01*
X419598Y360751D01*
G37*
%LPD*%
%LPC*%
G36*
X688758Y380491D02*
X688758Y380491D01*
X684837Y382115D01*
X681835Y385117D01*
X680211Y389038D01*
X680211Y393282D01*
X681835Y397203D01*
X684837Y400205D01*
X688758Y401829D01*
X693002Y401829D01*
X696923Y400205D01*
X699925Y397203D01*
X701549Y393282D01*
X701549Y389038D01*
X699925Y385117D01*
X696923Y382115D01*
X693002Y380491D01*
X688758Y380491D01*
G37*
%LPD*%
%LPC*%
G36*
X714158Y380491D02*
X714158Y380491D01*
X710237Y382115D01*
X707235Y385117D01*
X705611Y389038D01*
X705611Y393282D01*
X707235Y397203D01*
X710237Y400205D01*
X714158Y401829D01*
X718402Y401829D01*
X722323Y400205D01*
X725325Y397203D01*
X726949Y393282D01*
X726949Y389038D01*
X725325Y385117D01*
X722323Y382115D01*
X718402Y380491D01*
X714158Y380491D01*
G37*
%LPD*%
%LPC*%
G36*
X470398Y360751D02*
X470398Y360751D01*
X466477Y362375D01*
X463475Y365377D01*
X461851Y369298D01*
X461851Y373542D01*
X463475Y377463D01*
X466477Y380465D01*
X470398Y382089D01*
X474642Y382089D01*
X478563Y380465D01*
X481565Y377463D01*
X483189Y373542D01*
X483189Y369298D01*
X481565Y365377D01*
X478563Y362375D01*
X474642Y360751D01*
X470398Y360751D01*
G37*
%LPD*%
%LPC*%
G36*
X739558Y355091D02*
X739558Y355091D01*
X735637Y356715D01*
X732635Y359717D01*
X731011Y363638D01*
X731011Y367882D01*
X732635Y371803D01*
X735637Y374805D01*
X739558Y376429D01*
X743802Y376429D01*
X747723Y374805D01*
X750725Y371803D01*
X752349Y367882D01*
X752349Y363638D01*
X750725Y359717D01*
X747723Y356715D01*
X743802Y355091D01*
X739558Y355091D01*
G37*
%LPD*%
%LPC*%
G36*
X714158Y355091D02*
X714158Y355091D01*
X710237Y356715D01*
X707235Y359717D01*
X705611Y363638D01*
X705611Y367882D01*
X707235Y371803D01*
X710237Y374805D01*
X714158Y376429D01*
X718402Y376429D01*
X722323Y374805D01*
X725325Y371803D01*
X726949Y367882D01*
X726949Y363638D01*
X725325Y359717D01*
X722323Y356715D01*
X718402Y355091D01*
X714158Y355091D01*
G37*
%LPD*%
%LPC*%
G36*
X688758Y355091D02*
X688758Y355091D01*
X684837Y356715D01*
X681835Y359717D01*
X680211Y363638D01*
X680211Y367882D01*
X681835Y371803D01*
X684837Y374805D01*
X688758Y376429D01*
X693002Y376429D01*
X696923Y374805D01*
X699925Y371803D01*
X701549Y367882D01*
X701549Y363638D01*
X699925Y359717D01*
X696923Y356715D01*
X693002Y355091D01*
X688758Y355091D01*
G37*
%LPD*%
%LPC*%
G36*
X495798Y360751D02*
X495798Y360751D01*
X491877Y362375D01*
X488875Y365377D01*
X487251Y369298D01*
X487251Y373542D01*
X488875Y377463D01*
X491877Y380465D01*
X495798Y382089D01*
X500042Y382089D01*
X503963Y380465D01*
X506965Y377463D01*
X508589Y373542D01*
X508589Y369298D01*
X506965Y365377D01*
X503963Y362375D01*
X500042Y360751D01*
X495798Y360751D01*
G37*
%LPD*%
%LPC*%
G36*
X521198Y360751D02*
X521198Y360751D01*
X517277Y362375D01*
X514275Y365377D01*
X512651Y369298D01*
X512651Y373542D01*
X514275Y377463D01*
X517277Y380465D01*
X521198Y382089D01*
X525442Y382089D01*
X529363Y380465D01*
X532365Y377463D01*
X533989Y373542D01*
X533989Y369298D01*
X532365Y365377D01*
X529363Y362375D01*
X525442Y360751D01*
X521198Y360751D01*
G37*
%LPD*%
%LPC*%
G36*
X546598Y360751D02*
X546598Y360751D01*
X542677Y362375D01*
X539675Y365377D01*
X538051Y369298D01*
X538051Y373542D01*
X539675Y377463D01*
X542677Y380465D01*
X546598Y382089D01*
X550842Y382089D01*
X554763Y380465D01*
X557765Y377463D01*
X559389Y373542D01*
X559389Y369298D01*
X557765Y365377D01*
X554763Y362375D01*
X550842Y360751D01*
X546598Y360751D01*
G37*
%LPD*%
%LPC*%
G36*
X927728Y7131D02*
X927728Y7131D01*
X923807Y8755D01*
X920805Y11757D01*
X919181Y15678D01*
X919181Y19922D01*
X920805Y23843D01*
X923807Y26845D01*
X927728Y28469D01*
X931972Y28469D01*
X935893Y26845D01*
X938895Y23843D01*
X940519Y19922D01*
X940519Y15678D01*
X938895Y11757D01*
X935893Y8755D01*
X931972Y7131D01*
X927728Y7131D01*
G37*
%LPD*%
%LPC*%
G36*
X764982Y355211D02*
X764982Y355211D01*
X761105Y356817D01*
X758137Y359785D01*
X756531Y363662D01*
X756531Y367858D01*
X758137Y371735D01*
X761105Y374703D01*
X764982Y376309D01*
X769178Y376309D01*
X773055Y374703D01*
X776023Y371735D01*
X777629Y367858D01*
X777629Y363662D01*
X776023Y359785D01*
X773055Y356817D01*
X769178Y355211D01*
X764982Y355211D01*
G37*
%LPD*%
%LPC*%
G36*
X887787Y199643D02*
X887787Y199643D01*
X885546Y200571D01*
X883831Y202286D01*
X882903Y204527D01*
X882903Y206953D01*
X883868Y209281D01*
X883875Y209306D01*
X883887Y209330D01*
X883933Y209499D01*
X883984Y209666D01*
X883987Y209693D01*
X883994Y209719D01*
X884006Y209893D01*
X884022Y210067D01*
X884019Y210093D01*
X884021Y210120D01*
X883999Y210294D01*
X883981Y210467D01*
X883973Y210493D01*
X883969Y210519D01*
X883868Y210835D01*
X882903Y213163D01*
X882903Y215589D01*
X883868Y217917D01*
X883875Y217942D01*
X883887Y217966D01*
X883933Y218134D01*
X883984Y218302D01*
X883987Y218329D01*
X883994Y218355D01*
X884006Y218529D01*
X884022Y218703D01*
X884019Y218729D01*
X884021Y218756D01*
X883999Y218930D01*
X883981Y219103D01*
X883973Y219129D01*
X883969Y219155D01*
X883868Y219471D01*
X882903Y221799D01*
X882903Y224225D01*
X883831Y226466D01*
X885546Y228181D01*
X885987Y228363D01*
X887787Y229109D01*
X890213Y229109D01*
X892454Y228181D01*
X894169Y226466D01*
X895097Y224225D01*
X895097Y221799D01*
X894132Y219471D01*
X894125Y219446D01*
X894113Y219422D01*
X894067Y219253D01*
X894016Y219086D01*
X894013Y219059D01*
X894006Y219033D01*
X893994Y218859D01*
X893978Y218685D01*
X893981Y218659D01*
X893979Y218632D01*
X894001Y218458D01*
X894019Y218285D01*
X894027Y218259D01*
X894031Y218233D01*
X894132Y217917D01*
X895097Y215589D01*
X895097Y213163D01*
X894132Y210835D01*
X894125Y210810D01*
X894113Y210786D01*
X894067Y210618D01*
X894016Y210450D01*
X894013Y210423D01*
X894006Y210397D01*
X893994Y210223D01*
X893978Y210049D01*
X893981Y210023D01*
X893979Y209996D01*
X894001Y209822D01*
X894019Y209649D01*
X894027Y209623D01*
X894031Y209597D01*
X894132Y209281D01*
X895097Y206953D01*
X895097Y204527D01*
X894169Y202286D01*
X892454Y200571D01*
X890213Y199643D01*
X887787Y199643D01*
G37*
%LPD*%
%LPC*%
G36*
X42517Y65722D02*
X42517Y65722D01*
X38946Y67201D01*
X36213Y69934D01*
X34734Y73505D01*
X34734Y77371D01*
X36213Y80942D01*
X38946Y83675D01*
X42517Y85154D01*
X46383Y85154D01*
X49954Y83675D01*
X52687Y80942D01*
X54166Y77371D01*
X54166Y73505D01*
X52687Y69934D01*
X49954Y67201D01*
X46383Y65722D01*
X42517Y65722D01*
G37*
%LPD*%
%LPC*%
G36*
X885654Y-46229D02*
X885654Y-46229D01*
X883227Y-45223D01*
X881369Y-43365D01*
X880363Y-40938D01*
X880363Y-38310D01*
X881369Y-35883D01*
X883227Y-34025D01*
X885654Y-33019D01*
X888282Y-33019D01*
X890793Y-34059D01*
X890801Y-34062D01*
X890809Y-34066D01*
X890993Y-34120D01*
X891178Y-34176D01*
X891187Y-34177D01*
X891195Y-34179D01*
X891386Y-34196D01*
X891579Y-34214D01*
X891588Y-34213D01*
X891597Y-34214D01*
X891786Y-34192D01*
X891979Y-34172D01*
X891988Y-34170D01*
X891997Y-34169D01*
X892178Y-34110D01*
X892364Y-34052D01*
X892371Y-34048D01*
X892380Y-34045D01*
X892547Y-33952D01*
X892717Y-33859D01*
X892724Y-33853D01*
X892731Y-33849D01*
X892878Y-33724D01*
X893025Y-33600D01*
X893030Y-33593D01*
X893037Y-33587D01*
X893156Y-33436D01*
X893276Y-33285D01*
X893280Y-33277D01*
X893285Y-33270D01*
X893372Y-33098D01*
X893460Y-32927D01*
X893462Y-32918D01*
X893466Y-32910D01*
X893517Y-32724D01*
X893569Y-32540D01*
X893570Y-32531D01*
X893573Y-32522D01*
X893586Y-32330D01*
X893601Y-32138D01*
X893600Y-32129D01*
X893600Y-32120D01*
X893575Y-31930D01*
X893552Y-31739D01*
X893549Y-31730D01*
X893548Y-31721D01*
X893446Y-31405D01*
X892555Y-29254D01*
X892555Y-26626D01*
X893561Y-24199D01*
X895419Y-22341D01*
X897846Y-21335D01*
X900474Y-21335D01*
X902901Y-22341D01*
X904759Y-24199D01*
X905765Y-26626D01*
X905765Y-29254D01*
X904759Y-31681D01*
X902901Y-33539D01*
X900474Y-34545D01*
X897846Y-34545D01*
X895335Y-33505D01*
X895327Y-33502D01*
X895319Y-33498D01*
X895135Y-33444D01*
X894950Y-33388D01*
X894941Y-33387D01*
X894933Y-33385D01*
X894742Y-33368D01*
X894549Y-33350D01*
X894540Y-33351D01*
X894531Y-33350D01*
X894342Y-33372D01*
X894149Y-33392D01*
X894140Y-33394D01*
X894131Y-33395D01*
X893950Y-33454D01*
X893764Y-33512D01*
X893757Y-33516D01*
X893748Y-33519D01*
X893581Y-33612D01*
X893411Y-33705D01*
X893404Y-33711D01*
X893397Y-33715D01*
X893250Y-33840D01*
X893103Y-33964D01*
X893098Y-33971D01*
X893091Y-33977D01*
X892972Y-34128D01*
X892852Y-34279D01*
X892848Y-34287D01*
X892843Y-34294D01*
X892756Y-34466D01*
X892668Y-34637D01*
X892666Y-34646D01*
X892662Y-34654D01*
X892611Y-34840D01*
X892559Y-35024D01*
X892558Y-35033D01*
X892555Y-35042D01*
X892542Y-35235D01*
X892527Y-35426D01*
X892528Y-35435D01*
X892528Y-35444D01*
X892553Y-35634D01*
X892576Y-35825D01*
X892579Y-35834D01*
X892580Y-35843D01*
X892682Y-36159D01*
X893573Y-38310D01*
X893573Y-40938D01*
X892567Y-43365D01*
X890709Y-45223D01*
X888282Y-46229D01*
X885654Y-46229D01*
G37*
%LPD*%
%LPC*%
G36*
X275546Y143255D02*
X275546Y143255D01*
X273119Y144261D01*
X271261Y146119D01*
X270213Y148649D01*
X270204Y148665D01*
X270199Y148682D01*
X270109Y148842D01*
X270022Y149004D01*
X270011Y149018D01*
X270002Y149034D01*
X269883Y149173D01*
X269766Y149315D01*
X269752Y149326D01*
X269740Y149339D01*
X269596Y149453D01*
X269453Y149568D01*
X269438Y149577D01*
X269423Y149588D01*
X269259Y149671D01*
X269097Y149755D01*
X269080Y149760D01*
X269064Y149768D01*
X268886Y149817D01*
X268710Y149869D01*
X268693Y149870D01*
X268675Y149875D01*
X268491Y149887D01*
X268309Y149903D01*
X268292Y149901D01*
X268274Y149902D01*
X268090Y149878D01*
X267909Y149858D01*
X267892Y149853D01*
X267874Y149850D01*
X267559Y149749D01*
X265373Y148843D01*
X262947Y148843D01*
X260706Y149771D01*
X258991Y151486D01*
X258063Y153727D01*
X258063Y156153D01*
X258991Y158394D01*
X260706Y160109D01*
X262947Y161037D01*
X265373Y161037D01*
X267614Y160109D01*
X269329Y158394D01*
X270144Y156426D01*
X270152Y156410D01*
X270158Y156393D01*
X270247Y156233D01*
X270334Y156071D01*
X270345Y156057D01*
X270354Y156041D01*
X270473Y155902D01*
X270590Y155760D01*
X270604Y155749D01*
X270616Y155735D01*
X270761Y155622D01*
X270903Y155507D01*
X270919Y155498D01*
X270933Y155487D01*
X271098Y155404D01*
X271259Y155320D01*
X271276Y155315D01*
X271293Y155306D01*
X271470Y155258D01*
X271646Y155206D01*
X271664Y155205D01*
X271681Y155200D01*
X271865Y155188D01*
X272047Y155172D01*
X272065Y155174D01*
X272083Y155173D01*
X272266Y155197D01*
X272447Y155217D01*
X272464Y155222D01*
X272482Y155225D01*
X272798Y155326D01*
X275546Y156465D01*
X278174Y156465D01*
X280601Y155459D01*
X282459Y153601D01*
X283465Y151174D01*
X283465Y148546D01*
X282459Y146119D01*
X280601Y144261D01*
X278174Y143255D01*
X275546Y143255D01*
G37*
%LPD*%
%LPC*%
G36*
X401025Y117855D02*
X401025Y117855D01*
X397664Y119247D01*
X395091Y121820D01*
X393699Y125181D01*
X393699Y128819D01*
X395091Y132180D01*
X397664Y134753D01*
X401025Y136145D01*
X404663Y136145D01*
X408024Y134753D01*
X410597Y132180D01*
X411989Y128819D01*
X411989Y125181D01*
X410597Y121820D01*
X408024Y119247D01*
X404663Y117855D01*
X401025Y117855D01*
G37*
%LPD*%
%LPC*%
G36*
X643849Y117855D02*
X643849Y117855D01*
X640488Y119247D01*
X637915Y121820D01*
X636523Y125181D01*
X636523Y128819D01*
X637915Y132180D01*
X640488Y134753D01*
X643849Y136145D01*
X647487Y136145D01*
X650848Y134753D01*
X653421Y132180D01*
X654813Y128819D01*
X654813Y125181D01*
X653421Y121820D01*
X650848Y119247D01*
X647487Y117855D01*
X643849Y117855D01*
G37*
%LPD*%
%LPC*%
G36*
X426425Y117855D02*
X426425Y117855D01*
X423064Y119247D01*
X420491Y121820D01*
X419099Y125181D01*
X419099Y128819D01*
X420491Y132180D01*
X423064Y134753D01*
X426425Y136145D01*
X430063Y136145D01*
X433424Y134753D01*
X435997Y132180D01*
X437389Y128819D01*
X437389Y125181D01*
X435997Y121820D01*
X433424Y119247D01*
X430063Y117855D01*
X426425Y117855D01*
G37*
%LPD*%
%LPC*%
G36*
X644992Y357377D02*
X644992Y357377D01*
X641631Y358769D01*
X639058Y361342D01*
X637666Y364703D01*
X637666Y368341D01*
X639058Y371702D01*
X641631Y374275D01*
X644992Y375667D01*
X648630Y375667D01*
X651991Y374275D01*
X654564Y371702D01*
X655956Y368341D01*
X655956Y364703D01*
X654564Y361342D01*
X651991Y358769D01*
X648630Y357377D01*
X644992Y357377D01*
G37*
%LPD*%
%LPC*%
G36*
X797770Y201167D02*
X797770Y201167D01*
X795343Y202173D01*
X793485Y204031D01*
X792876Y205501D01*
X792865Y205521D01*
X792858Y205542D01*
X792770Y205699D01*
X792685Y205856D01*
X792671Y205873D01*
X792660Y205893D01*
X792543Y206029D01*
X792429Y206167D01*
X792412Y206181D01*
X792397Y206198D01*
X792256Y206307D01*
X792116Y206420D01*
X792097Y206431D01*
X792079Y206444D01*
X791919Y206524D01*
X791760Y206607D01*
X791738Y206614D01*
X791718Y206624D01*
X791545Y206670D01*
X791373Y206720D01*
X791351Y206722D01*
X791330Y206728D01*
X790999Y206755D01*
X788219Y206755D01*
X785978Y207683D01*
X784263Y209398D01*
X783335Y211639D01*
X783335Y214065D01*
X784263Y216306D01*
X785978Y218021D01*
X788219Y218949D01*
X790645Y218949D01*
X792886Y218021D01*
X794601Y216306D01*
X794969Y215415D01*
X794978Y215399D01*
X794983Y215382D01*
X795073Y215222D01*
X795160Y215060D01*
X795171Y215046D01*
X795180Y215031D01*
X795299Y214892D01*
X795416Y214750D01*
X795430Y214739D01*
X795442Y214725D01*
X795586Y214612D01*
X795729Y214496D01*
X795744Y214488D01*
X795759Y214477D01*
X795923Y214394D01*
X796085Y214309D01*
X796102Y214304D01*
X796118Y214296D01*
X796295Y214248D01*
X796471Y214196D01*
X796489Y214194D01*
X796507Y214190D01*
X796689Y214177D01*
X796873Y214161D01*
X796890Y214163D01*
X796908Y214162D01*
X797090Y214186D01*
X797273Y214207D01*
X797290Y214212D01*
X797308Y214214D01*
X797623Y214316D01*
X797770Y214377D01*
X800398Y214377D01*
X802825Y213371D01*
X804683Y211513D01*
X805689Y209086D01*
X805689Y206458D01*
X804683Y204031D01*
X802825Y202173D01*
X800398Y201167D01*
X797770Y201167D01*
G37*
%LPD*%
%LPC*%
G36*
X826726Y267715D02*
X826726Y267715D01*
X824299Y268721D01*
X822441Y270579D01*
X821435Y273006D01*
X821435Y275634D01*
X822441Y278061D01*
X824299Y279919D01*
X826726Y280925D01*
X829354Y280925D01*
X831781Y279919D01*
X832043Y279658D01*
X832057Y279646D01*
X832068Y279632D01*
X832213Y279519D01*
X832354Y279403D01*
X832370Y279394D01*
X832384Y279383D01*
X832549Y279300D01*
X832710Y279214D01*
X832727Y279209D01*
X832743Y279201D01*
X832919Y279152D01*
X833096Y279099D01*
X833114Y279097D01*
X833131Y279093D01*
X833313Y279079D01*
X833497Y279063D01*
X833515Y279065D01*
X833533Y279063D01*
X833714Y279086D01*
X833897Y279106D01*
X833914Y279112D01*
X833932Y279114D01*
X834107Y279172D01*
X834281Y279228D01*
X834297Y279236D01*
X834314Y279242D01*
X834473Y279334D01*
X834633Y279422D01*
X834647Y279434D01*
X834663Y279443D01*
X834688Y279464D01*
X836987Y280417D01*
X839413Y280417D01*
X841654Y279489D01*
X843369Y277774D01*
X844297Y275533D01*
X844297Y273107D01*
X843369Y270866D01*
X841654Y269151D01*
X839413Y268223D01*
X836987Y268223D01*
X834671Y269183D01*
X834604Y269237D01*
X834588Y269246D01*
X834574Y269257D01*
X834411Y269340D01*
X834249Y269426D01*
X834231Y269431D01*
X834215Y269439D01*
X834038Y269489D01*
X833863Y269541D01*
X833845Y269542D01*
X833827Y269547D01*
X833644Y269561D01*
X833462Y269577D01*
X833444Y269575D01*
X833426Y269577D01*
X833244Y269554D01*
X833061Y269534D01*
X833044Y269528D01*
X833026Y269526D01*
X832852Y269468D01*
X832678Y269412D01*
X832662Y269404D01*
X832645Y269398D01*
X832485Y269306D01*
X832325Y269218D01*
X832312Y269206D01*
X832296Y269197D01*
X832043Y268982D01*
X831781Y268721D01*
X829354Y267715D01*
X826726Y267715D01*
G37*
%LPD*%
%LPC*%
G36*
X608387Y207263D02*
X608387Y207263D01*
X606146Y208191D01*
X604431Y209906D01*
X603452Y212272D01*
X603404Y212424D01*
X603345Y212616D01*
X603343Y212620D01*
X603342Y212624D01*
X603249Y212794D01*
X603153Y212970D01*
X603151Y212973D01*
X603148Y212977D01*
X603020Y213130D01*
X602896Y213279D01*
X602892Y213282D01*
X602889Y213286D01*
X602734Y213410D01*
X602582Y213532D01*
X602578Y213534D01*
X602574Y213537D01*
X602399Y213627D01*
X602225Y213717D01*
X602220Y213718D01*
X602216Y213720D01*
X602026Y213774D01*
X601838Y213829D01*
X601833Y213829D01*
X601829Y213830D01*
X601634Y213845D01*
X601436Y213861D01*
X601432Y213861D01*
X601428Y213861D01*
X601233Y213838D01*
X601037Y213815D01*
X601032Y213813D01*
X601028Y213813D01*
X600840Y213750D01*
X600654Y213690D01*
X600650Y213687D01*
X600646Y213686D01*
X600476Y213589D01*
X600303Y213492D01*
X600300Y213489D01*
X600296Y213487D01*
X600148Y213358D01*
X599999Y213229D01*
X599996Y213225D01*
X599992Y213222D01*
X599869Y213062D01*
X599752Y212911D01*
X599750Y212907D01*
X599747Y212903D01*
X599595Y212608D01*
X599529Y212446D01*
X597814Y210731D01*
X595573Y209803D01*
X593147Y209803D01*
X590906Y210731D01*
X589191Y212446D01*
X588263Y214687D01*
X588263Y217113D01*
X589191Y219354D01*
X590906Y221069D01*
X593147Y221997D01*
X595573Y221997D01*
X597814Y221069D01*
X599529Y219354D01*
X600508Y216988D01*
X600557Y216831D01*
X600615Y216644D01*
X600617Y216640D01*
X600618Y216636D01*
X600715Y216458D01*
X600807Y216290D01*
X600809Y216287D01*
X600812Y216283D01*
X600940Y216130D01*
X601064Y215981D01*
X601068Y215978D01*
X601071Y215974D01*
X601227Y215850D01*
X601378Y215728D01*
X601382Y215726D01*
X601386Y215723D01*
X601563Y215632D01*
X601735Y215543D01*
X601740Y215542D01*
X601744Y215540D01*
X601934Y215486D01*
X602122Y215431D01*
X602127Y215431D01*
X602131Y215430D01*
X602326Y215415D01*
X602524Y215399D01*
X602528Y215399D01*
X602532Y215399D01*
X602727Y215422D01*
X602923Y215445D01*
X602928Y215447D01*
X602932Y215447D01*
X603120Y215510D01*
X603306Y215570D01*
X603310Y215573D01*
X603314Y215574D01*
X603484Y215671D01*
X603657Y215768D01*
X603660Y215771D01*
X603664Y215773D01*
X603812Y215902D01*
X603961Y216031D01*
X603964Y216035D01*
X603968Y216038D01*
X604090Y216196D01*
X604208Y216349D01*
X604210Y216353D01*
X604213Y216357D01*
X604365Y216652D01*
X604431Y216814D01*
X606146Y218529D01*
X608387Y219457D01*
X610813Y219457D01*
X613054Y218529D01*
X614769Y216814D01*
X615697Y214573D01*
X615697Y212147D01*
X614769Y209906D01*
X613054Y208191D01*
X611950Y207735D01*
X611950Y207734D01*
X610813Y207263D01*
X608387Y207263D01*
G37*
%LPD*%
%LPC*%
G36*
X387407Y153923D02*
X387407Y153923D01*
X385166Y154851D01*
X383451Y156566D01*
X382523Y158807D01*
X382523Y159684D01*
X382522Y159697D01*
X382523Y159711D01*
X382502Y159898D01*
X382483Y160085D01*
X382479Y160097D01*
X382478Y160111D01*
X382420Y160290D01*
X382365Y160470D01*
X382359Y160481D01*
X382355Y160494D01*
X382263Y160658D01*
X382173Y160824D01*
X382165Y160834D01*
X382158Y160846D01*
X382036Y160989D01*
X381916Y161133D01*
X381905Y161141D01*
X381896Y161152D01*
X381748Y161268D01*
X381602Y161385D01*
X381590Y161391D01*
X381579Y161400D01*
X381410Y161485D01*
X381245Y161571D01*
X381232Y161574D01*
X381220Y161580D01*
X381038Y161630D01*
X380858Y161682D01*
X380844Y161683D01*
X380831Y161687D01*
X380645Y161700D01*
X380456Y161715D01*
X380443Y161713D01*
X380430Y161714D01*
X380243Y161690D01*
X380057Y161668D01*
X380044Y161664D01*
X380030Y161662D01*
X379715Y161561D01*
X379673Y161543D01*
X377247Y161543D01*
X375006Y162471D01*
X373291Y164186D01*
X372363Y166427D01*
X372363Y168853D01*
X373291Y171094D01*
X375006Y172809D01*
X376722Y173519D01*
X377247Y173737D01*
X379673Y173737D01*
X381914Y172809D01*
X383629Y171094D01*
X384557Y168853D01*
X384557Y167976D01*
X384558Y167963D01*
X384557Y167949D01*
X384578Y167762D01*
X384597Y167575D01*
X384601Y167563D01*
X384602Y167549D01*
X384660Y167370D01*
X384715Y167190D01*
X384721Y167179D01*
X384725Y167166D01*
X384817Y167002D01*
X384907Y166836D01*
X384915Y166826D01*
X384922Y166814D01*
X385044Y166671D01*
X385164Y166527D01*
X385175Y166519D01*
X385184Y166508D01*
X385332Y166392D01*
X385478Y166275D01*
X385490Y166269D01*
X385501Y166260D01*
X385670Y166175D01*
X385835Y166089D01*
X385848Y166086D01*
X385860Y166080D01*
X386042Y166030D01*
X386222Y165978D01*
X386236Y165977D01*
X386249Y165973D01*
X386435Y165960D01*
X386624Y165945D01*
X386637Y165947D01*
X386650Y165946D01*
X386837Y165970D01*
X387023Y165992D01*
X387036Y165996D01*
X387050Y165998D01*
X387365Y166099D01*
X387407Y166117D01*
X389833Y166117D01*
X392074Y165189D01*
X393789Y163474D01*
X394717Y161233D01*
X394717Y158807D01*
X393789Y156566D01*
X392074Y154851D01*
X389833Y153923D01*
X387407Y153923D01*
G37*
%LPD*%
%LPC*%
G36*
X524567Y260603D02*
X524567Y260603D01*
X522326Y261531D01*
X520611Y263246D01*
X519683Y265487D01*
X519683Y267913D01*
X520611Y270154D01*
X522326Y271869D01*
X524567Y272797D01*
X526993Y272797D01*
X529234Y271869D01*
X530694Y270408D01*
X530708Y270397D01*
X530719Y270383D01*
X530863Y270269D01*
X531005Y270153D01*
X531021Y270145D01*
X531035Y270134D01*
X531199Y270051D01*
X531361Y269965D01*
X531378Y269960D01*
X531394Y269952D01*
X531571Y269902D01*
X531747Y269850D01*
X531765Y269848D01*
X531782Y269844D01*
X531965Y269830D01*
X532148Y269814D01*
X532166Y269815D01*
X532183Y269814D01*
X532365Y269837D01*
X532548Y269857D01*
X532565Y269862D01*
X532583Y269865D01*
X532757Y269923D01*
X532932Y269978D01*
X532948Y269987D01*
X532964Y269993D01*
X533123Y270084D01*
X533284Y270173D01*
X533298Y270185D01*
X533313Y270194D01*
X533566Y270408D01*
X535027Y271869D01*
X537267Y272797D01*
X539693Y272797D01*
X541934Y271869D01*
X543649Y270154D01*
X544577Y267913D01*
X544577Y265487D01*
X543649Y263246D01*
X541934Y261531D01*
X539693Y260603D01*
X537267Y260603D01*
X535027Y261531D01*
X533566Y262992D01*
X533553Y263003D01*
X533541Y263017D01*
X533397Y263130D01*
X533255Y263247D01*
X533239Y263255D01*
X533225Y263266D01*
X533061Y263349D01*
X532899Y263435D01*
X532882Y263440D01*
X532866Y263448D01*
X532689Y263498D01*
X532513Y263550D01*
X532495Y263552D01*
X532478Y263556D01*
X532295Y263570D01*
X532112Y263586D01*
X532094Y263585D01*
X532077Y263586D01*
X531895Y263563D01*
X531712Y263543D01*
X531695Y263538D01*
X531677Y263535D01*
X531504Y263477D01*
X531328Y263422D01*
X531312Y263413D01*
X531296Y263407D01*
X531137Y263316D01*
X530976Y263227D01*
X530962Y263215D01*
X530947Y263206D01*
X530694Y262992D01*
X529234Y261531D01*
X526993Y260603D01*
X524567Y260603D01*
G37*
%LPD*%
%LPC*%
G36*
X864927Y275843D02*
X864927Y275843D01*
X862686Y276771D01*
X860971Y278486D01*
X860043Y280727D01*
X860043Y283153D01*
X860971Y285394D01*
X862686Y287109D01*
X864927Y288037D01*
X867353Y288037D01*
X869593Y287109D01*
X871054Y285648D01*
X871062Y285641D01*
X871065Y285638D01*
X871070Y285634D01*
X871079Y285623D01*
X871223Y285510D01*
X871365Y285393D01*
X871381Y285385D01*
X871395Y285374D01*
X871559Y285291D01*
X871721Y285205D01*
X871738Y285200D01*
X871754Y285192D01*
X871931Y285142D01*
X872107Y285090D01*
X872125Y285088D01*
X872142Y285084D01*
X872325Y285070D01*
X872508Y285054D01*
X872526Y285055D01*
X872543Y285054D01*
X872725Y285077D01*
X872908Y285097D01*
X872925Y285102D01*
X872943Y285105D01*
X873116Y285163D01*
X873292Y285218D01*
X873308Y285227D01*
X873324Y285233D01*
X873483Y285324D01*
X873644Y285413D01*
X873658Y285425D01*
X873673Y285434D01*
X873926Y285648D01*
X875386Y287109D01*
X877627Y288037D01*
X880053Y288037D01*
X882294Y287109D01*
X884009Y285394D01*
X884937Y283153D01*
X884937Y280727D01*
X884009Y278486D01*
X882294Y276771D01*
X880053Y275843D01*
X877627Y275843D01*
X875386Y276771D01*
X873926Y278232D01*
X873912Y278243D01*
X873901Y278257D01*
X873757Y278371D01*
X873615Y278487D01*
X873599Y278495D01*
X873585Y278506D01*
X873421Y278589D01*
X873259Y278675D01*
X873242Y278680D01*
X873226Y278688D01*
X873049Y278738D01*
X872873Y278790D01*
X872855Y278792D01*
X872838Y278796D01*
X872655Y278810D01*
X872472Y278826D01*
X872454Y278825D01*
X872437Y278826D01*
X872255Y278803D01*
X872072Y278783D01*
X872055Y278778D01*
X872037Y278775D01*
X871863Y278717D01*
X871688Y278662D01*
X871672Y278653D01*
X871656Y278647D01*
X871497Y278556D01*
X871336Y278467D01*
X871322Y278455D01*
X871307Y278446D01*
X871054Y278232D01*
X869593Y276771D01*
X867353Y275843D01*
X864927Y275843D01*
G37*
%LPD*%
%LPC*%
G36*
X151945Y133566D02*
X151945Y133566D01*
X148757Y134887D01*
X146317Y137327D01*
X144996Y140515D01*
X144996Y143965D01*
X146317Y147153D01*
X148757Y149593D01*
X151945Y150914D01*
X155395Y150914D01*
X158583Y149593D01*
X161023Y147153D01*
X162344Y143965D01*
X162344Y140515D01*
X161023Y137327D01*
X158583Y134887D01*
X155395Y133566D01*
X151945Y133566D01*
G37*
%LPD*%
%LPC*%
G36*
X619305Y158966D02*
X619305Y158966D01*
X616117Y160287D01*
X613677Y162727D01*
X612356Y165915D01*
X612356Y169365D01*
X613677Y172553D01*
X616117Y174993D01*
X619305Y176314D01*
X622755Y176314D01*
X625943Y174993D01*
X628383Y172553D01*
X629704Y169365D01*
X629704Y165915D01*
X628383Y162727D01*
X625943Y160287D01*
X622755Y158966D01*
X619305Y158966D01*
G37*
%LPD*%
%LPC*%
G36*
X316291Y369946D02*
X316291Y369946D01*
X313103Y371267D01*
X310663Y373707D01*
X309342Y376895D01*
X309342Y380345D01*
X310663Y383533D01*
X313103Y385973D01*
X316291Y387294D01*
X319741Y387294D01*
X322929Y385973D01*
X325369Y383533D01*
X326690Y380345D01*
X326690Y376895D01*
X325369Y373707D01*
X322929Y371267D01*
X319741Y369946D01*
X316291Y369946D01*
G37*
%LPD*%
%LPC*%
G36*
X639625Y279616D02*
X639625Y279616D01*
X636437Y280937D01*
X633997Y283377D01*
X632676Y286565D01*
X632676Y290015D01*
X633997Y293203D01*
X636437Y295643D01*
X639625Y296964D01*
X643075Y296964D01*
X646263Y295643D01*
X648703Y293203D01*
X650024Y290015D01*
X650024Y286565D01*
X648703Y283377D01*
X646263Y280937D01*
X643075Y279616D01*
X639625Y279616D01*
G37*
%LPD*%
%LPC*%
G36*
X315775Y143726D02*
X315775Y143726D01*
X312587Y145047D01*
X310147Y147487D01*
X308826Y150675D01*
X308826Y154125D01*
X310147Y157313D01*
X312587Y159753D01*
X315775Y161074D01*
X319225Y161074D01*
X322413Y159753D01*
X324853Y157313D01*
X326174Y154125D01*
X326174Y150675D01*
X324853Y147487D01*
X322413Y145047D01*
X319225Y143726D01*
X315775Y143726D01*
G37*
%LPD*%
%LPC*%
G36*
X666295Y279616D02*
X666295Y279616D01*
X663107Y280937D01*
X660667Y283377D01*
X659346Y286565D01*
X659346Y290015D01*
X660667Y293203D01*
X663107Y295643D01*
X666295Y296964D01*
X669745Y296964D01*
X672933Y295643D01*
X675373Y293203D01*
X676694Y290015D01*
X676694Y286565D01*
X675373Y283377D01*
X672933Y280937D01*
X669745Y279616D01*
X666295Y279616D01*
G37*
%LPD*%
%LPC*%
G36*
X153215Y94196D02*
X153215Y94196D01*
X150027Y95517D01*
X147587Y97957D01*
X146266Y101145D01*
X146266Y104595D01*
X147587Y107783D01*
X150027Y110223D01*
X153215Y111544D01*
X156665Y111544D01*
X159853Y110223D01*
X162293Y107783D01*
X163614Y104595D01*
X163614Y101145D01*
X162293Y97957D01*
X159853Y95517D01*
X156665Y94196D01*
X153215Y94196D01*
G37*
%LPD*%
%LPC*%
G36*
X940615Y123406D02*
X940615Y123406D01*
X937427Y124727D01*
X934987Y127167D01*
X933666Y130355D01*
X933666Y133805D01*
X934987Y136993D01*
X937427Y139433D01*
X940615Y140754D01*
X944065Y140754D01*
X947253Y139433D01*
X949693Y136993D01*
X951014Y133805D01*
X951014Y130355D01*
X949693Y127167D01*
X947253Y124727D01*
X944065Y123406D01*
X940615Y123406D01*
G37*
%LPD*%
%LPC*%
G36*
X315775Y122136D02*
X315775Y122136D01*
X312587Y123457D01*
X310147Y125897D01*
X308826Y129085D01*
X308826Y132535D01*
X310147Y135723D01*
X312587Y138163D01*
X315775Y139484D01*
X319225Y139484D01*
X322413Y138163D01*
X324853Y135723D01*
X326174Y132535D01*
X326174Y129085D01*
X324853Y125897D01*
X322413Y123457D01*
X319225Y122136D01*
X315775Y122136D01*
G37*
%LPD*%
%LPC*%
G36*
X392487Y202183D02*
X392487Y202183D01*
X390246Y203111D01*
X388457Y204901D01*
X388440Y204915D01*
X388426Y204932D01*
X388285Y205042D01*
X388146Y205156D01*
X388126Y205166D01*
X388109Y205180D01*
X387948Y205260D01*
X387790Y205344D01*
X387769Y205351D01*
X387749Y205361D01*
X387576Y205408D01*
X387404Y205459D01*
X387382Y205461D01*
X387361Y205467D01*
X387182Y205479D01*
X387003Y205495D01*
X386981Y205493D01*
X386959Y205495D01*
X386781Y205471D01*
X386603Y205452D01*
X386582Y205445D01*
X386560Y205442D01*
X386244Y205341D01*
X384753Y204723D01*
X382327Y204723D01*
X380086Y205651D01*
X378371Y207366D01*
X377443Y209607D01*
X377443Y212033D01*
X378371Y214274D01*
X380086Y215989D01*
X382327Y216917D01*
X384753Y216917D01*
X386994Y215989D01*
X388783Y214199D01*
X388800Y214185D01*
X388814Y214168D01*
X388955Y214058D01*
X389094Y213944D01*
X389114Y213934D01*
X389131Y213920D01*
X389292Y213840D01*
X389450Y213756D01*
X389471Y213749D01*
X389491Y213739D01*
X389664Y213692D01*
X389836Y213641D01*
X389858Y213639D01*
X389879Y213633D01*
X390058Y213621D01*
X390237Y213605D01*
X390259Y213607D01*
X390281Y213605D01*
X390459Y213629D01*
X390637Y213648D01*
X390658Y213655D01*
X390680Y213658D01*
X390996Y213759D01*
X392487Y214377D01*
X394913Y214377D01*
X397154Y213449D01*
X398869Y211734D01*
X399797Y209493D01*
X399797Y207067D01*
X398869Y204826D01*
X397154Y203111D01*
X394913Y202183D01*
X392487Y202183D01*
G37*
%LPD*%
%LPC*%
G36*
X280727Y174243D02*
X280727Y174243D01*
X278486Y175171D01*
X276771Y176886D01*
X275843Y179127D01*
X275843Y181553D01*
X276771Y183794D01*
X278486Y185509D01*
X280727Y186437D01*
X283153Y186437D01*
X284644Y185819D01*
X284665Y185813D01*
X284685Y185803D01*
X284857Y185755D01*
X285029Y185703D01*
X285051Y185701D01*
X285073Y185695D01*
X285252Y185681D01*
X285430Y185665D01*
X285452Y185667D01*
X285474Y185665D01*
X285652Y185688D01*
X285830Y185706D01*
X285852Y185713D01*
X285874Y185716D01*
X286043Y185773D01*
X286215Y185826D01*
X286234Y185837D01*
X286255Y185844D01*
X286411Y185934D01*
X286568Y186019D01*
X286585Y186034D01*
X286604Y186045D01*
X286857Y186259D01*
X288646Y188049D01*
X290887Y188977D01*
X293313Y188977D01*
X295554Y188049D01*
X297269Y186334D01*
X298197Y184093D01*
X298197Y181667D01*
X297269Y179426D01*
X295554Y177711D01*
X294478Y177266D01*
X294477Y177266D01*
X293313Y176783D01*
X290887Y176783D01*
X289396Y177401D01*
X289375Y177407D01*
X289355Y177417D01*
X289182Y177465D01*
X289011Y177517D01*
X288989Y177519D01*
X288967Y177525D01*
X288788Y177539D01*
X288610Y177555D01*
X288588Y177553D01*
X288566Y177555D01*
X288387Y177532D01*
X288210Y177514D01*
X288188Y177507D01*
X288166Y177504D01*
X287996Y177447D01*
X287825Y177394D01*
X287806Y177383D01*
X287784Y177376D01*
X287629Y177287D01*
X287472Y177201D01*
X287455Y177186D01*
X287436Y177175D01*
X287183Y176961D01*
X285393Y175171D01*
X283153Y174243D01*
X280727Y174243D01*
G37*
%LPD*%
%LPC*%
G36*
X618547Y281939D02*
X618547Y281939D01*
X616306Y282867D01*
X614591Y284582D01*
X613663Y286823D01*
X613663Y289249D01*
X613983Y290021D01*
X613990Y290043D01*
X614000Y290063D01*
X614048Y290236D01*
X614100Y290407D01*
X614102Y290429D01*
X614108Y290450D01*
X614121Y290630D01*
X614138Y290807D01*
X614136Y290830D01*
X614137Y290852D01*
X614115Y291030D01*
X614096Y291208D01*
X614090Y291229D01*
X614087Y291251D01*
X614030Y291421D01*
X613976Y291592D01*
X613966Y291612D01*
X613959Y291633D01*
X613869Y291788D01*
X613783Y291946D01*
X613769Y291963D01*
X613758Y291982D01*
X613543Y292235D01*
X612051Y293727D01*
X611123Y295967D01*
X611123Y298393D01*
X612051Y300634D01*
X613766Y302349D01*
X616007Y303277D01*
X618433Y303277D01*
X620674Y302349D01*
X622389Y300634D01*
X623317Y298393D01*
X623317Y295967D01*
X622997Y295195D01*
X622990Y295173D01*
X622980Y295153D01*
X622932Y294980D01*
X622880Y294809D01*
X622878Y294787D01*
X622872Y294766D01*
X622859Y294586D01*
X622842Y294409D01*
X622844Y294386D01*
X622843Y294364D01*
X622865Y294186D01*
X622884Y294008D01*
X622890Y293987D01*
X622893Y293965D01*
X622950Y293795D01*
X623004Y293624D01*
X623014Y293604D01*
X623021Y293583D01*
X623111Y293428D01*
X623197Y293270D01*
X623211Y293253D01*
X623222Y293234D01*
X623437Y292981D01*
X624929Y291489D01*
X625857Y289249D01*
X625857Y286823D01*
X624929Y284582D01*
X623214Y282867D01*
X620973Y281939D01*
X618547Y281939D01*
G37*
%LPD*%
%LPC*%
G36*
X265487Y80263D02*
X265487Y80263D01*
X263246Y81191D01*
X261531Y82906D01*
X260603Y85147D01*
X260603Y87573D01*
X261531Y89814D01*
X263246Y91529D01*
X265487Y92457D01*
X266785Y92457D01*
X266807Y92459D01*
X266829Y92457D01*
X267007Y92479D01*
X267185Y92497D01*
X267207Y92503D01*
X267229Y92506D01*
X267399Y92562D01*
X267570Y92615D01*
X267590Y92625D01*
X267611Y92632D01*
X267767Y92721D01*
X267924Y92807D01*
X267942Y92821D01*
X267961Y92832D01*
X268096Y92950D01*
X268234Y93064D01*
X268248Y93082D01*
X268264Y93096D01*
X268374Y93239D01*
X268486Y93378D01*
X268496Y93398D01*
X268510Y93416D01*
X268661Y93711D01*
X269151Y94894D01*
X270866Y96609D01*
X273107Y97537D01*
X275533Y97537D01*
X277774Y96609D01*
X279489Y94894D01*
X280417Y92653D01*
X280417Y90227D01*
X279489Y87986D01*
X277774Y86271D01*
X275533Y85343D01*
X274235Y85343D01*
X274213Y85341D01*
X274191Y85343D01*
X274013Y85321D01*
X273835Y85303D01*
X273813Y85297D01*
X273791Y85294D01*
X273622Y85238D01*
X273450Y85185D01*
X273430Y85175D01*
X273409Y85168D01*
X273253Y85079D01*
X273096Y84993D01*
X273078Y84979D01*
X273059Y84968D01*
X272924Y84850D01*
X272786Y84736D01*
X272772Y84718D01*
X272756Y84704D01*
X272646Y84562D01*
X272534Y84422D01*
X272524Y84402D01*
X272510Y84384D01*
X272359Y84089D01*
X271803Y82748D01*
X271800Y82740D01*
X271796Y82732D01*
X271742Y82546D01*
X271687Y82363D01*
X271686Y82354D01*
X271683Y82345D01*
X271667Y82154D01*
X271648Y81962D01*
X271649Y81953D01*
X271649Y81944D01*
X271670Y81752D01*
X271690Y81561D01*
X271693Y81553D01*
X271694Y81544D01*
X271753Y81360D01*
X271810Y81177D01*
X271814Y81169D01*
X271817Y81161D01*
X271872Y81063D01*
X271798Y81100D01*
X271622Y81189D01*
X271617Y81190D01*
X271613Y81192D01*
X271427Y81243D01*
X271234Y81297D01*
X271229Y81298D01*
X271225Y81299D01*
X271029Y81312D01*
X270832Y81327D01*
X270828Y81326D01*
X270823Y81326D01*
X270627Y81301D01*
X270433Y81276D01*
X270429Y81275D01*
X270424Y81274D01*
X270108Y81173D01*
X267913Y80263D01*
X265487Y80263D01*
G37*
%LPD*%
%LPC*%
G36*
X862387Y242823D02*
X862387Y242823D01*
X860146Y243751D01*
X858431Y245466D01*
X857503Y247707D01*
X857503Y250133D01*
X858431Y252374D01*
X860146Y254089D01*
X862387Y255017D01*
X864813Y255017D01*
X867268Y254000D01*
X867293Y253992D01*
X867317Y253980D01*
X867485Y253934D01*
X867653Y253883D01*
X867680Y253881D01*
X867706Y253874D01*
X867880Y253862D01*
X868054Y253845D01*
X868080Y253848D01*
X868107Y253846D01*
X868281Y253869D01*
X868454Y253887D01*
X868480Y253895D01*
X868506Y253898D01*
X868822Y254000D01*
X871277Y255017D01*
X873703Y255017D01*
X875944Y254089D01*
X877659Y252374D01*
X878587Y250133D01*
X878587Y247707D01*
X877659Y245466D01*
X875944Y243751D01*
X873703Y242823D01*
X871277Y242823D01*
X868822Y243840D01*
X868797Y243848D01*
X868773Y243860D01*
X868604Y243906D01*
X868437Y243957D01*
X868410Y243959D01*
X868384Y243966D01*
X868210Y243978D01*
X868036Y243995D01*
X868010Y243992D01*
X867983Y243994D01*
X867808Y243971D01*
X867636Y243953D01*
X867610Y243945D01*
X867584Y243942D01*
X867268Y243840D01*
X864813Y242823D01*
X862387Y242823D01*
G37*
%LPD*%
%LPC*%
G36*
X799610Y131873D02*
X799610Y131873D01*
X796826Y133026D01*
X794696Y135156D01*
X793543Y137940D01*
X793543Y140952D01*
X794696Y143736D01*
X796826Y145866D01*
X799610Y147019D01*
X802622Y147019D01*
X805406Y145866D01*
X807536Y143736D01*
X808689Y140952D01*
X808689Y137940D01*
X807536Y135156D01*
X805406Y133026D01*
X804324Y132578D01*
X802622Y131873D01*
X799610Y131873D01*
G37*
%LPD*%
%LPC*%
G36*
X822154Y-95505D02*
X822154Y-95505D01*
X819727Y-94499D01*
X817869Y-92641D01*
X816863Y-90214D01*
X816863Y-87586D01*
X817869Y-85159D01*
X819727Y-83301D01*
X822154Y-82295D01*
X824782Y-82295D01*
X827209Y-83301D01*
X829067Y-85159D01*
X830073Y-87586D01*
X830073Y-90214D01*
X829067Y-92641D01*
X827209Y-94499D01*
X824782Y-95505D01*
X822154Y-95505D01*
G37*
%LPD*%
%LPC*%
G36*
X46066Y279345D02*
X46066Y279345D01*
X43639Y280351D01*
X41781Y282209D01*
X40775Y284636D01*
X40775Y287264D01*
X41781Y289691D01*
X43639Y291549D01*
X46066Y292555D01*
X48694Y292555D01*
X51121Y291549D01*
X52979Y289691D01*
X53985Y287264D01*
X53985Y284636D01*
X52979Y282209D01*
X51121Y280351D01*
X48694Y279345D01*
X46066Y279345D01*
G37*
%LPD*%
%LPC*%
G36*
X336506Y242315D02*
X336506Y242315D01*
X334079Y243321D01*
X332221Y245179D01*
X331215Y247606D01*
X331215Y250234D01*
X332221Y252661D01*
X334079Y254519D01*
X336506Y255525D01*
X339134Y255525D01*
X341561Y254519D01*
X343419Y252661D01*
X344425Y250234D01*
X344425Y247606D01*
X343419Y245179D01*
X341561Y243321D01*
X339134Y242315D01*
X336506Y242315D01*
G37*
%LPD*%
%LPC*%
G36*
X816566Y-52325D02*
X816566Y-52325D01*
X814139Y-51319D01*
X812281Y-49461D01*
X811275Y-47034D01*
X811275Y-44406D01*
X812281Y-41979D01*
X814139Y-40121D01*
X816566Y-39115D01*
X819194Y-39115D01*
X821621Y-40121D01*
X823479Y-41979D01*
X824485Y-44406D01*
X824485Y-47034D01*
X823479Y-49461D01*
X821621Y-51319D01*
X819194Y-52325D01*
X816566Y-52325D01*
G37*
%LPD*%
%LPC*%
G36*
X683216Y327405D02*
X683216Y327405D01*
X680789Y328411D01*
X678931Y330269D01*
X677925Y332696D01*
X677925Y335324D01*
X678931Y337751D01*
X680789Y339609D01*
X683216Y340615D01*
X685844Y340615D01*
X688271Y339609D01*
X690129Y337751D01*
X691135Y335324D01*
X691135Y332696D01*
X690129Y330269D01*
X688271Y328411D01*
X685844Y327405D01*
X683216Y327405D01*
G37*
%LPD*%
%LPC*%
G36*
X632416Y238505D02*
X632416Y238505D01*
X629989Y239511D01*
X628131Y241369D01*
X627125Y243796D01*
X627125Y246424D01*
X628131Y248851D01*
X629989Y250709D01*
X632416Y251715D01*
X635044Y251715D01*
X637471Y250709D01*
X639329Y248851D01*
X640335Y246424D01*
X640335Y243796D01*
X639329Y241369D01*
X637471Y239511D01*
X635044Y238505D01*
X632416Y238505D01*
G37*
%LPD*%
%LPC*%
G36*
X589490Y235203D02*
X589490Y235203D01*
X587063Y236209D01*
X585205Y238067D01*
X584199Y240494D01*
X584199Y243122D01*
X585205Y245549D01*
X587063Y247407D01*
X589490Y248413D01*
X592118Y248413D01*
X594545Y247407D01*
X596403Y245549D01*
X597409Y243122D01*
X597409Y240494D01*
X596403Y238067D01*
X594545Y236209D01*
X592118Y235203D01*
X589490Y235203D01*
G37*
%LPD*%
%LPC*%
G36*
X173946Y229615D02*
X173946Y229615D01*
X171519Y230621D01*
X169661Y232479D01*
X168655Y234906D01*
X168655Y237534D01*
X169661Y239961D01*
X171519Y241819D01*
X173946Y242825D01*
X176574Y242825D01*
X179001Y241819D01*
X180859Y239961D01*
X181865Y237534D01*
X181865Y234906D01*
X180859Y232479D01*
X179001Y230621D01*
X176574Y229615D01*
X173946Y229615D01*
G37*
%LPD*%
%LPC*%
G36*
X826726Y384555D02*
X826726Y384555D01*
X824299Y385561D01*
X822441Y387419D01*
X821435Y389846D01*
X821435Y392474D01*
X822441Y394901D01*
X824299Y396759D01*
X826726Y397765D01*
X829354Y397765D01*
X831781Y396759D01*
X833639Y394901D01*
X834645Y392474D01*
X834645Y389846D01*
X833639Y387419D01*
X831781Y385561D01*
X829354Y384555D01*
X826726Y384555D01*
G37*
%LPD*%
%LPC*%
G36*
X229826Y219455D02*
X229826Y219455D01*
X227399Y220461D01*
X225541Y222319D01*
X224535Y224746D01*
X224535Y227374D01*
X225541Y229801D01*
X227399Y231659D01*
X229826Y232665D01*
X232454Y232665D01*
X234881Y231659D01*
X236739Y229801D01*
X237745Y227374D01*
X237745Y224746D01*
X236739Y222319D01*
X234881Y220461D01*
X232454Y219455D01*
X229826Y219455D01*
G37*
%LPD*%
%LPC*%
G36*
X862286Y384555D02*
X862286Y384555D01*
X859859Y385561D01*
X858001Y387419D01*
X856995Y389846D01*
X856995Y392474D01*
X858001Y394901D01*
X859859Y396759D01*
X862286Y397765D01*
X864914Y397765D01*
X867341Y396759D01*
X869199Y394901D01*
X870205Y392474D01*
X870205Y389846D01*
X869199Y387419D01*
X867341Y385561D01*
X864914Y384555D01*
X862286Y384555D01*
G37*
%LPD*%
%LPC*%
G36*
X867366Y42925D02*
X867366Y42925D01*
X864939Y43931D01*
X863081Y45789D01*
X862075Y48216D01*
X862075Y50844D01*
X863081Y53271D01*
X864939Y55129D01*
X867366Y56135D01*
X869994Y56135D01*
X872421Y55129D01*
X874279Y53271D01*
X875285Y50844D01*
X875285Y48216D01*
X874279Y45789D01*
X872421Y43931D01*
X869994Y42925D01*
X867366Y42925D01*
G37*
%LPD*%
%LPC*%
G36*
X700996Y213105D02*
X700996Y213105D01*
X698569Y214111D01*
X696711Y215969D01*
X695705Y218396D01*
X695705Y221024D01*
X696711Y223451D01*
X698569Y225309D01*
X700996Y226315D01*
X703624Y226315D01*
X706051Y225309D01*
X707909Y223451D01*
X708915Y221024D01*
X708915Y218396D01*
X707909Y215969D01*
X706051Y214111D01*
X703624Y213105D01*
X700996Y213105D01*
G37*
%LPD*%
%LPC*%
G36*
X379686Y252475D02*
X379686Y252475D01*
X377259Y253481D01*
X375401Y255339D01*
X374395Y257766D01*
X374395Y260394D01*
X375401Y262821D01*
X377259Y264679D01*
X379686Y265685D01*
X382314Y265685D01*
X384741Y264679D01*
X386599Y262821D01*
X387605Y260394D01*
X387605Y257766D01*
X386599Y255339D01*
X384741Y253481D01*
X382314Y252475D01*
X379686Y252475D01*
G37*
%LPD*%
%LPC*%
G36*
X130766Y130555D02*
X130766Y130555D01*
X128339Y131561D01*
X126481Y133419D01*
X125475Y135846D01*
X125475Y138474D01*
X126481Y140901D01*
X128339Y142759D01*
X130766Y143765D01*
X133394Y143765D01*
X135821Y142759D01*
X137679Y140901D01*
X138685Y138474D01*
X138685Y135846D01*
X137679Y133419D01*
X135821Y131561D01*
X133394Y130555D01*
X130766Y130555D01*
G37*
%LPD*%
%LPC*%
G36*
X755606Y205485D02*
X755606Y205485D01*
X753179Y206491D01*
X751321Y208349D01*
X750315Y210776D01*
X750315Y213404D01*
X751321Y215831D01*
X753179Y217689D01*
X755606Y218695D01*
X758234Y218695D01*
X760661Y217689D01*
X762519Y215831D01*
X763525Y213404D01*
X763525Y210776D01*
X762519Y208349D01*
X760661Y206491D01*
X758234Y205485D01*
X755606Y205485D01*
G37*
%LPD*%
%LPC*%
G36*
X765766Y323595D02*
X765766Y323595D01*
X763339Y324601D01*
X761481Y326459D01*
X760475Y328886D01*
X760475Y331514D01*
X761481Y333941D01*
X763339Y335799D01*
X765766Y336805D01*
X768394Y336805D01*
X770821Y335799D01*
X772679Y333941D01*
X773685Y331514D01*
X773685Y328886D01*
X772679Y326459D01*
X770821Y324601D01*
X768394Y323595D01*
X765766Y323595D01*
G37*
%LPD*%
%LPC*%
G36*
X474174Y202691D02*
X474174Y202691D01*
X471747Y203697D01*
X469889Y205555D01*
X468883Y207982D01*
X468883Y210610D01*
X469889Y213037D01*
X471747Y214895D01*
X474174Y215901D01*
X476802Y215901D01*
X479229Y214895D01*
X481087Y213037D01*
X482093Y210610D01*
X482093Y207982D01*
X481087Y205555D01*
X479229Y203697D01*
X476802Y202691D01*
X474174Y202691D01*
G37*
%LPD*%
%LPC*%
G36*
X344126Y201675D02*
X344126Y201675D01*
X341699Y202681D01*
X339841Y204539D01*
X338835Y206966D01*
X338835Y209594D01*
X339841Y212021D01*
X341699Y213879D01*
X344126Y214885D01*
X346754Y214885D01*
X349181Y213879D01*
X351039Y212021D01*
X352045Y209594D01*
X352045Y206966D01*
X351039Y204539D01*
X349181Y202681D01*
X346754Y201675D01*
X344126Y201675D01*
G37*
%LPD*%
%LPC*%
G36*
X504654Y194563D02*
X504654Y194563D01*
X502227Y195569D01*
X500369Y197427D01*
X499363Y199854D01*
X499363Y202482D01*
X500369Y204909D01*
X502227Y206767D01*
X504654Y207773D01*
X507282Y207773D01*
X509709Y206767D01*
X511567Y204909D01*
X512573Y202482D01*
X512573Y199854D01*
X511567Y197427D01*
X509709Y195569D01*
X507282Y194563D01*
X504654Y194563D01*
G37*
%LPD*%
%LPC*%
G36*
X171406Y194055D02*
X171406Y194055D01*
X168979Y195061D01*
X167121Y196919D01*
X166115Y199346D01*
X166115Y201974D01*
X167121Y204401D01*
X168979Y206259D01*
X171406Y207265D01*
X174034Y207265D01*
X176461Y206259D01*
X178319Y204401D01*
X179325Y201974D01*
X179325Y199346D01*
X178319Y196919D01*
X176461Y195061D01*
X174034Y194055D01*
X171406Y194055D01*
G37*
%LPD*%
%LPC*%
G36*
X760686Y72135D02*
X760686Y72135D01*
X758259Y73141D01*
X756401Y74999D01*
X755395Y77426D01*
X755395Y80054D01*
X756401Y82481D01*
X758259Y84339D01*
X760686Y85345D01*
X763314Y85345D01*
X765741Y84339D01*
X767599Y82481D01*
X768605Y80054D01*
X768605Y77426D01*
X767599Y74999D01*
X765741Y73141D01*
X763314Y72135D01*
X760686Y72135D01*
G37*
%LPD*%
%LPC*%
G36*
X402546Y178815D02*
X402546Y178815D01*
X400119Y179821D01*
X398261Y181679D01*
X397255Y184106D01*
X397255Y186734D01*
X398261Y189161D01*
X400119Y191019D01*
X402546Y192025D01*
X405174Y192025D01*
X407601Y191019D01*
X409459Y189161D01*
X410465Y186734D01*
X410465Y184106D01*
X409459Y181679D01*
X407601Y179821D01*
X405174Y178815D01*
X402546Y178815D01*
G37*
%LPD*%
%LPC*%
G36*
X331426Y176275D02*
X331426Y176275D01*
X328999Y177281D01*
X327141Y179139D01*
X326135Y181566D01*
X326135Y184194D01*
X327141Y186621D01*
X328999Y188479D01*
X331426Y189485D01*
X334054Y189485D01*
X336481Y188479D01*
X338339Y186621D01*
X339345Y184194D01*
X339345Y181566D01*
X338339Y179139D01*
X336481Y177281D01*
X334054Y176275D01*
X331426Y176275D01*
G37*
%LPD*%
%LPC*%
G36*
X214586Y77215D02*
X214586Y77215D01*
X212159Y78221D01*
X210301Y80079D01*
X209295Y82506D01*
X209295Y85134D01*
X210301Y87561D01*
X212159Y89419D01*
X214586Y90425D01*
X217214Y90425D01*
X219641Y89419D01*
X221499Y87561D01*
X222505Y85134D01*
X222505Y82506D01*
X221499Y80079D01*
X219641Y78221D01*
X217214Y77215D01*
X214586Y77215D01*
G37*
%LPD*%
%LPC*%
G36*
X768306Y257555D02*
X768306Y257555D01*
X765879Y258561D01*
X764021Y260419D01*
X763015Y262846D01*
X763015Y265474D01*
X764021Y267901D01*
X765879Y269759D01*
X768306Y270765D01*
X770934Y270765D01*
X773361Y269759D01*
X775219Y267901D01*
X776225Y265474D01*
X776225Y262846D01*
X775219Y260419D01*
X773361Y258561D01*
X770934Y257555D01*
X768306Y257555D01*
G37*
%LPD*%
%LPC*%
G36*
X830028Y172465D02*
X830028Y172465D01*
X827601Y173471D01*
X825743Y175329D01*
X824737Y177756D01*
X824737Y180384D01*
X825743Y182811D01*
X827601Y184669D01*
X830028Y185675D01*
X832656Y185675D01*
X835083Y184669D01*
X836941Y182811D01*
X837947Y180384D01*
X837947Y177756D01*
X836941Y175329D01*
X835083Y173471D01*
X832656Y172465D01*
X830028Y172465D01*
G37*
%LPD*%
%LPC*%
G36*
X519386Y114045D02*
X519386Y114045D01*
X516959Y115051D01*
X515101Y116909D01*
X514095Y119336D01*
X514095Y121964D01*
X515101Y124391D01*
X516959Y126249D01*
X519386Y127255D01*
X522014Y127255D01*
X524441Y126249D01*
X526299Y124391D01*
X527305Y121964D01*
X527305Y119336D01*
X526299Y116909D01*
X524441Y115051D01*
X522014Y114045D01*
X519386Y114045D01*
G37*
%LPD*%
%LPC*%
G36*
X441662Y170179D02*
X441662Y170179D01*
X439235Y171185D01*
X437377Y173043D01*
X436371Y175470D01*
X436371Y178098D01*
X437377Y180525D01*
X439235Y182383D01*
X441662Y183389D01*
X444290Y183389D01*
X446717Y182383D01*
X448575Y180525D01*
X449581Y178098D01*
X449581Y175470D01*
X448575Y173043D01*
X446717Y171185D01*
X444290Y170179D01*
X441662Y170179D01*
G37*
%LPD*%
%LPC*%
G36*
X564090Y167131D02*
X564090Y167131D01*
X561663Y168137D01*
X559805Y169995D01*
X558799Y172422D01*
X558799Y175050D01*
X559805Y177477D01*
X561663Y179335D01*
X564090Y180341D01*
X566718Y180341D01*
X569145Y179335D01*
X571003Y177477D01*
X572009Y175050D01*
X572009Y172422D01*
X571003Y169995D01*
X569145Y168137D01*
X566718Y167131D01*
X564090Y167131D01*
G37*
%LPD*%
%LPC*%
G36*
X883114Y258063D02*
X883114Y258063D01*
X880687Y259069D01*
X878829Y260927D01*
X877823Y263354D01*
X877823Y265982D01*
X878829Y268409D01*
X880687Y270267D01*
X883114Y271273D01*
X885742Y271273D01*
X888169Y270267D01*
X890027Y268409D01*
X891033Y265982D01*
X891033Y263354D01*
X890027Y260927D01*
X888169Y259069D01*
X885742Y258063D01*
X883114Y258063D01*
G37*
%LPD*%
%LPC*%
G36*
X704806Y315975D02*
X704806Y315975D01*
X702379Y316981D01*
X700521Y318839D01*
X699515Y321266D01*
X699515Y323894D01*
X700521Y326321D01*
X702379Y328179D01*
X704806Y329185D01*
X707434Y329185D01*
X709861Y328179D01*
X711719Y326321D01*
X712725Y323894D01*
X712725Y321266D01*
X711719Y318839D01*
X709861Y316981D01*
X707434Y315975D01*
X704806Y315975D01*
G37*
%LPD*%
%LPC*%
G36*
X673310Y153923D02*
X673310Y153923D01*
X670883Y154929D01*
X669025Y156787D01*
X668019Y159214D01*
X668019Y161842D01*
X669025Y164269D01*
X670883Y166127D01*
X673310Y167133D01*
X675938Y167133D01*
X678365Y166127D01*
X680223Y164269D01*
X681229Y161842D01*
X681229Y159214D01*
X680223Y156787D01*
X678365Y154929D01*
X675938Y153923D01*
X673310Y153923D01*
G37*
%LPD*%
%LPC*%
G36*
X562566Y295655D02*
X562566Y295655D01*
X560139Y296661D01*
X558281Y298519D01*
X557275Y300946D01*
X557275Y303574D01*
X558281Y306001D01*
X560139Y307859D01*
X562566Y308865D01*
X565194Y308865D01*
X567621Y307859D01*
X569479Y306001D01*
X570485Y303574D01*
X570485Y300946D01*
X569479Y298519D01*
X567621Y296661D01*
X565194Y295655D01*
X562566Y295655D01*
G37*
%LPD*%
%LPC*%
G36*
X814026Y294385D02*
X814026Y294385D01*
X811599Y295391D01*
X809741Y297249D01*
X808735Y299676D01*
X808735Y302304D01*
X809741Y304731D01*
X811599Y306589D01*
X814026Y307595D01*
X816654Y307595D01*
X819081Y306589D01*
X820939Y304731D01*
X821945Y302304D01*
X821945Y299676D01*
X820939Y297249D01*
X819081Y295391D01*
X816654Y294385D01*
X814026Y294385D01*
G37*
%LPD*%
%LPC*%
G36*
X217126Y145795D02*
X217126Y145795D01*
X214699Y146801D01*
X212841Y148659D01*
X211835Y151086D01*
X211835Y153714D01*
X212841Y156141D01*
X214699Y157999D01*
X217126Y159005D01*
X219754Y159005D01*
X222181Y157999D01*
X224039Y156141D01*
X225045Y153714D01*
X225045Y151086D01*
X224039Y148659D01*
X222181Y146801D01*
X219754Y145795D01*
X217126Y145795D01*
G37*
%LPD*%
%LPC*%
G36*
X112986Y143255D02*
X112986Y143255D01*
X110559Y144261D01*
X108701Y146119D01*
X107695Y148546D01*
X107695Y151174D01*
X108701Y153601D01*
X110559Y155459D01*
X112986Y156465D01*
X115614Y156465D01*
X118041Y155459D01*
X119899Y153601D01*
X120905Y151174D01*
X120905Y148546D01*
X119899Y146119D01*
X118041Y144261D01*
X115614Y143255D01*
X112986Y143255D01*
G37*
%LPD*%
%LPC*%
G36*
X234906Y143255D02*
X234906Y143255D01*
X232479Y144261D01*
X230621Y146119D01*
X229615Y148546D01*
X229615Y151174D01*
X230621Y153601D01*
X232479Y155459D01*
X234906Y156465D01*
X237534Y156465D01*
X239961Y155459D01*
X241819Y153601D01*
X242825Y151174D01*
X242825Y148546D01*
X241819Y146119D01*
X239961Y144261D01*
X237534Y143255D01*
X234906Y143255D01*
G37*
%LPD*%
%LPC*%
G36*
X915626Y143255D02*
X915626Y143255D01*
X913199Y144261D01*
X911341Y146119D01*
X910335Y148546D01*
X910335Y151174D01*
X911341Y153601D01*
X913199Y155459D01*
X915626Y156465D01*
X918254Y156465D01*
X920681Y155459D01*
X922539Y153601D01*
X923545Y151174D01*
X923545Y148546D01*
X922539Y146119D01*
X920681Y144261D01*
X918254Y143255D01*
X915626Y143255D01*
G37*
%LPD*%
%LPC*%
G36*
X558502Y140207D02*
X558502Y140207D01*
X556075Y141213D01*
X554217Y143071D01*
X553211Y145498D01*
X553211Y148126D01*
X554217Y150553D01*
X556075Y152411D01*
X558502Y153417D01*
X561130Y153417D01*
X563557Y152411D01*
X565415Y150553D01*
X566421Y148126D01*
X566421Y145498D01*
X565415Y143071D01*
X563557Y141213D01*
X561130Y140207D01*
X558502Y140207D01*
G37*
%LPD*%
%LPC*%
G36*
X582886Y293115D02*
X582886Y293115D01*
X580459Y294121D01*
X578601Y295979D01*
X577595Y298406D01*
X577595Y301034D01*
X578601Y303461D01*
X580459Y305319D01*
X582886Y306325D01*
X585514Y306325D01*
X587941Y305319D01*
X589799Y303461D01*
X590805Y301034D01*
X590805Y298406D01*
X589799Y295979D01*
X587941Y294121D01*
X585514Y293115D01*
X582886Y293115D01*
G37*
%LPD*%
%LPC*%
G36*
X818598Y128269D02*
X818598Y128269D01*
X816171Y129275D01*
X814313Y131133D01*
X813307Y133560D01*
X813307Y136188D01*
X814313Y138615D01*
X816171Y140473D01*
X818598Y141479D01*
X821226Y141479D01*
X823653Y140473D01*
X825511Y138615D01*
X826517Y136188D01*
X826517Y133560D01*
X825511Y131133D01*
X823653Y129275D01*
X821226Y128269D01*
X818598Y128269D01*
G37*
%LPD*%
%LPC*%
G36*
X781006Y135635D02*
X781006Y135635D01*
X778579Y136641D01*
X776721Y138499D01*
X775715Y140926D01*
X775715Y143554D01*
X776721Y145981D01*
X778579Y147839D01*
X781006Y148845D01*
X783634Y148845D01*
X786061Y147839D01*
X787919Y145981D01*
X788925Y143554D01*
X788925Y140926D01*
X787919Y138499D01*
X786061Y136641D01*
X783634Y135635D01*
X781006Y135635D01*
G37*
%LPD*%
%LPC*%
G36*
X813619Y255523D02*
X813619Y255523D01*
X811378Y256451D01*
X809663Y258166D01*
X808735Y260407D01*
X808735Y262833D01*
X809663Y265074D01*
X811378Y266789D01*
X811785Y266957D01*
X813619Y267717D01*
X816045Y267717D01*
X818286Y266789D01*
X820001Y265074D01*
X820929Y262833D01*
X820929Y260407D01*
X820001Y258166D01*
X818286Y256451D01*
X816045Y255523D01*
X813619Y255523D01*
G37*
%LPD*%
%LPC*%
G36*
X723703Y172211D02*
X723703Y172211D01*
X721462Y173139D01*
X719747Y174854D01*
X718819Y177095D01*
X718819Y179521D01*
X719747Y181762D01*
X721462Y183477D01*
X723703Y184405D01*
X726129Y184405D01*
X728370Y183477D01*
X730085Y181762D01*
X731013Y179521D01*
X731013Y177095D01*
X730085Y174854D01*
X728370Y173139D01*
X726129Y172211D01*
X723703Y172211D01*
G37*
%LPD*%
%LPC*%
G36*
X97787Y268703D02*
X97787Y268703D01*
X95546Y269631D01*
X93831Y271346D01*
X92903Y273587D01*
X92903Y276013D01*
X93831Y278254D01*
X95546Y279969D01*
X97787Y280897D01*
X100213Y280897D01*
X102454Y279969D01*
X104169Y278254D01*
X105097Y276013D01*
X105097Y273587D01*
X104169Y271346D01*
X102454Y269631D01*
X100213Y268703D01*
X97787Y268703D01*
G37*
%LPD*%
%LPC*%
G36*
X782587Y382803D02*
X782587Y382803D01*
X780346Y383731D01*
X778631Y385446D01*
X777703Y387687D01*
X777703Y390113D01*
X778631Y392354D01*
X780346Y394069D01*
X782587Y394997D01*
X785013Y394997D01*
X787254Y394069D01*
X788969Y392354D01*
X789897Y390113D01*
X789897Y387687D01*
X788969Y385446D01*
X787254Y383731D01*
X785013Y382803D01*
X782587Y382803D01*
G37*
%LPD*%
%LPC*%
G36*
X483927Y324103D02*
X483927Y324103D01*
X481686Y325031D01*
X479971Y326746D01*
X479043Y328987D01*
X479043Y331413D01*
X479971Y333654D01*
X481686Y335369D01*
X483927Y336297D01*
X486353Y336297D01*
X488594Y335369D01*
X490309Y333654D01*
X491237Y331413D01*
X491237Y328987D01*
X490309Y326746D01*
X488594Y325031D01*
X486353Y324103D01*
X483927Y324103D01*
G37*
%LPD*%
%LPC*%
G36*
X534727Y321563D02*
X534727Y321563D01*
X532486Y322491D01*
X530771Y324206D01*
X529843Y326447D01*
X529843Y328873D01*
X530771Y331114D01*
X532486Y332829D01*
X534727Y333757D01*
X537153Y333757D01*
X539394Y332829D01*
X541109Y331114D01*
X542037Y328873D01*
X542037Y326447D01*
X541109Y324206D01*
X539394Y322491D01*
X537153Y321563D01*
X534727Y321563D01*
G37*
%LPD*%
%LPC*%
G36*
X857307Y24383D02*
X857307Y24383D01*
X855066Y25311D01*
X853351Y27026D01*
X852423Y29267D01*
X852423Y31693D01*
X853351Y33934D01*
X855066Y35649D01*
X857307Y36577D01*
X859733Y36577D01*
X861974Y35649D01*
X863689Y33934D01*
X864617Y31693D01*
X864617Y29267D01*
X863689Y27026D01*
X861974Y25311D01*
X859733Y24383D01*
X857307Y24383D01*
G37*
%LPD*%
%LPC*%
G36*
X798287Y368503D02*
X798287Y368503D01*
X796046Y369431D01*
X794331Y371146D01*
X793403Y373387D01*
X793403Y375813D01*
X794331Y378054D01*
X796046Y379769D01*
X798287Y380697D01*
X800713Y380697D01*
X802954Y379769D01*
X804669Y378054D01*
X805597Y375813D01*
X805597Y373387D01*
X804669Y371146D01*
X802954Y369431D01*
X800713Y368503D01*
X798287Y368503D01*
G37*
%LPD*%
%LPC*%
G36*
X118167Y242823D02*
X118167Y242823D01*
X115926Y243751D01*
X114211Y245466D01*
X113283Y247707D01*
X113283Y250133D01*
X114211Y252374D01*
X115926Y254089D01*
X118167Y255017D01*
X120593Y255017D01*
X122834Y254089D01*
X124549Y252374D01*
X125477Y250133D01*
X125477Y247707D01*
X124549Y245466D01*
X122834Y243751D01*
X120593Y242823D01*
X118167Y242823D01*
G37*
%LPD*%
%LPC*%
G36*
X823779Y227583D02*
X823779Y227583D01*
X821538Y228511D01*
X819823Y230226D01*
X818895Y232467D01*
X818895Y234893D01*
X819823Y237134D01*
X821538Y238849D01*
X823779Y239777D01*
X826205Y239777D01*
X828446Y238849D01*
X830161Y237134D01*
X831089Y234893D01*
X831089Y232467D01*
X830161Y230226D01*
X828446Y228511D01*
X826205Y227583D01*
X823779Y227583D01*
G37*
%LPD*%
%LPC*%
G36*
X450907Y313943D02*
X450907Y313943D01*
X448666Y314871D01*
X446951Y316586D01*
X446023Y318827D01*
X446023Y321253D01*
X446951Y323494D01*
X448666Y325209D01*
X450907Y326137D01*
X453333Y326137D01*
X455574Y325209D01*
X457289Y323494D01*
X458217Y321253D01*
X458217Y318827D01*
X457289Y316586D01*
X455574Y314871D01*
X453333Y313943D01*
X450907Y313943D01*
G37*
%LPD*%
%LPC*%
G36*
X817683Y69087D02*
X817683Y69087D01*
X815442Y70015D01*
X813727Y71730D01*
X812799Y73971D01*
X812799Y76397D01*
X813727Y78638D01*
X815442Y80353D01*
X817683Y81281D01*
X820109Y81281D01*
X822350Y80353D01*
X824065Y78638D01*
X824993Y76397D01*
X824993Y73971D01*
X824065Y71730D01*
X822350Y70015D01*
X821370Y69610D01*
X821369Y69609D01*
X820109Y69087D01*
X817683Y69087D01*
G37*
%LPD*%
%LPC*%
G36*
X718623Y245871D02*
X718623Y245871D01*
X716382Y246799D01*
X714667Y248514D01*
X713739Y250755D01*
X713739Y253181D01*
X714667Y255422D01*
X716382Y257137D01*
X718623Y258065D01*
X721049Y258065D01*
X723290Y257137D01*
X725005Y255422D01*
X725933Y253181D01*
X725933Y250755D01*
X725005Y248514D01*
X723290Y246799D01*
X722152Y246328D01*
X721049Y245871D01*
X718623Y245871D01*
G37*
%LPD*%
%LPC*%
G36*
X699319Y134111D02*
X699319Y134111D01*
X697078Y135039D01*
X695363Y136754D01*
X694435Y138995D01*
X694435Y141421D01*
X695363Y143662D01*
X697078Y145377D01*
X699319Y146305D01*
X701745Y146305D01*
X703986Y145377D01*
X705701Y143662D01*
X706629Y141421D01*
X706629Y138995D01*
X705701Y136754D01*
X703986Y135039D01*
X702948Y134610D01*
X702947Y134609D01*
X701745Y134111D01*
X699319Y134111D01*
G37*
%LPD*%
%LPC*%
G36*
X313747Y176783D02*
X313747Y176783D01*
X311506Y177711D01*
X309791Y179426D01*
X308863Y181667D01*
X308863Y184093D01*
X309791Y186334D01*
X311506Y188049D01*
X313747Y188977D01*
X316173Y188977D01*
X318414Y188049D01*
X320129Y186334D01*
X321057Y184093D01*
X321057Y181667D01*
X320129Y179426D01*
X318414Y177711D01*
X317338Y177266D01*
X317337Y177266D01*
X316173Y176783D01*
X313747Y176783D01*
G37*
%LPD*%
%LPC*%
G36*
X944879Y287019D02*
X944879Y287019D01*
X944879Y294339D01*
X946240Y293896D01*
X947665Y293170D01*
X948959Y292230D01*
X950090Y291099D01*
X951030Y289805D01*
X951756Y288380D01*
X952199Y287019D01*
X944879Y287019D01*
G37*
%LPD*%
%LPC*%
G36*
X744219Y393699D02*
X744219Y393699D01*
X744219Y401019D01*
X745580Y400576D01*
X747005Y399850D01*
X748299Y398910D01*
X749430Y397779D01*
X750370Y396485D01*
X751096Y395060D01*
X751539Y393699D01*
X744219Y393699D01*
G37*
%LPD*%
%LPC*%
G36*
X398859Y373959D02*
X398859Y373959D01*
X398859Y381279D01*
X400220Y380836D01*
X401645Y380110D01*
X402939Y379170D01*
X404070Y378039D01*
X405010Y376745D01*
X405736Y375320D01*
X406179Y373959D01*
X398859Y373959D01*
G37*
%LPD*%
%LPC*%
G36*
X944879Y261619D02*
X944879Y261619D01*
X944879Y268939D01*
X946240Y268496D01*
X947665Y267770D01*
X948959Y266830D01*
X950090Y265699D01*
X951030Y264405D01*
X951756Y262980D01*
X952199Y261619D01*
X944879Y261619D01*
G37*
%LPD*%
%LPC*%
G36*
X787609Y45739D02*
X787609Y45739D01*
X787609Y53059D01*
X788970Y52616D01*
X790395Y51890D01*
X791689Y50950D01*
X792820Y49819D01*
X793760Y48525D01*
X794486Y47100D01*
X794929Y45739D01*
X787609Y45739D01*
G37*
%LPD*%
%LPC*%
G36*
X932389Y71139D02*
X932389Y71139D01*
X932389Y78459D01*
X933750Y78016D01*
X935175Y77290D01*
X936469Y76350D01*
X937600Y75219D01*
X938540Y73925D01*
X939266Y72500D01*
X939709Y71139D01*
X932389Y71139D01*
G37*
%LPD*%
%LPC*%
G36*
X386461Y373959D02*
X386461Y373959D01*
X386904Y375320D01*
X387630Y376745D01*
X388570Y378039D01*
X389701Y379170D01*
X390995Y380110D01*
X392420Y380836D01*
X393781Y381279D01*
X393781Y373959D01*
X386461Y373959D01*
G37*
%LPD*%
%LPC*%
G36*
X919991Y71139D02*
X919991Y71139D01*
X920434Y72500D01*
X921160Y73925D01*
X922100Y75219D01*
X923231Y76350D01*
X924525Y77290D01*
X925950Y78016D01*
X927311Y78459D01*
X927311Y71139D01*
X919991Y71139D01*
G37*
%LPD*%
%LPC*%
G36*
X731821Y393699D02*
X731821Y393699D01*
X732264Y395060D01*
X732990Y396485D01*
X733930Y397779D01*
X735061Y398910D01*
X736355Y399850D01*
X737780Y400576D01*
X739141Y401019D01*
X739141Y393699D01*
X731821Y393699D01*
G37*
%LPD*%
%LPC*%
G36*
X932389Y66061D02*
X932389Y66061D01*
X939709Y66061D01*
X939266Y64700D01*
X938540Y63275D01*
X937600Y61981D01*
X936469Y60850D01*
X935175Y59910D01*
X933750Y59184D01*
X932389Y58741D01*
X932389Y66061D01*
G37*
%LPD*%
%LPC*%
G36*
X398859Y368881D02*
X398859Y368881D01*
X406179Y368881D01*
X405736Y367520D01*
X405010Y366095D01*
X404070Y364801D01*
X402939Y363670D01*
X401645Y362730D01*
X400220Y362004D01*
X398859Y361561D01*
X398859Y368881D01*
G37*
%LPD*%
%LPC*%
G36*
X932481Y261619D02*
X932481Y261619D01*
X932924Y262980D01*
X933650Y264405D01*
X934590Y265699D01*
X935721Y266830D01*
X937015Y267770D01*
X938440Y268496D01*
X939801Y268939D01*
X939801Y261619D01*
X932481Y261619D01*
G37*
%LPD*%
%LPC*%
G36*
X775211Y45739D02*
X775211Y45739D01*
X775654Y47100D01*
X776380Y48525D01*
X777320Y49819D01*
X778451Y50950D01*
X779745Y51890D01*
X781170Y52616D01*
X782531Y53059D01*
X782531Y45739D01*
X775211Y45739D01*
G37*
%LPD*%
%LPC*%
G36*
X932481Y287019D02*
X932481Y287019D01*
X932924Y288380D01*
X933650Y289805D01*
X934590Y291099D01*
X935721Y292230D01*
X937015Y293170D01*
X938440Y293896D01*
X939801Y294339D01*
X939801Y287019D01*
X932481Y287019D01*
G37*
%LPD*%
%LPC*%
G36*
X787609Y40661D02*
X787609Y40661D01*
X794929Y40661D01*
X794486Y39300D01*
X793760Y37875D01*
X792820Y36581D01*
X791689Y35450D01*
X790395Y34510D01*
X788970Y33784D01*
X787609Y33341D01*
X787609Y40661D01*
G37*
%LPD*%
%LPC*%
G36*
X944879Y281941D02*
X944879Y281941D01*
X952199Y281941D01*
X951756Y280580D01*
X951030Y279155D01*
X950090Y277861D01*
X948959Y276730D01*
X947665Y275790D01*
X946240Y275064D01*
X944879Y274621D01*
X944879Y281941D01*
G37*
%LPD*%
%LPC*%
G36*
X944879Y256541D02*
X944879Y256541D01*
X952199Y256541D01*
X951756Y255180D01*
X951030Y253755D01*
X950090Y252461D01*
X948959Y251330D01*
X947665Y250390D01*
X946240Y249664D01*
X944879Y249221D01*
X944879Y256541D01*
G37*
%LPD*%
%LPC*%
G36*
X744219Y388621D02*
X744219Y388621D01*
X751539Y388621D01*
X751096Y387260D01*
X750370Y385835D01*
X749430Y384541D01*
X748299Y383410D01*
X747005Y382470D01*
X745580Y381744D01*
X744219Y381301D01*
X744219Y388621D01*
G37*
%LPD*%
%LPC*%
G36*
X392420Y362004D02*
X392420Y362004D01*
X390995Y362730D01*
X389701Y363670D01*
X388570Y364801D01*
X387630Y366095D01*
X386904Y367520D01*
X386461Y368881D01*
X393781Y368881D01*
X393781Y361561D01*
X392420Y362004D01*
G37*
%LPD*%
%LPC*%
G36*
X938440Y275064D02*
X938440Y275064D01*
X937015Y275790D01*
X935721Y276730D01*
X934590Y277861D01*
X933650Y279155D01*
X932924Y280580D01*
X932481Y281941D01*
X939801Y281941D01*
X939801Y274621D01*
X938440Y275064D01*
G37*
%LPD*%
%LPC*%
G36*
X781170Y33784D02*
X781170Y33784D01*
X779745Y34510D01*
X778451Y35450D01*
X777320Y36581D01*
X776380Y37875D01*
X775654Y39300D01*
X775211Y40661D01*
X782531Y40661D01*
X782531Y33341D01*
X781170Y33784D01*
G37*
%LPD*%
%LPC*%
G36*
X737780Y381744D02*
X737780Y381744D01*
X736355Y382470D01*
X735061Y383410D01*
X733930Y384541D01*
X732990Y385835D01*
X732264Y387260D01*
X731821Y388621D01*
X739141Y388621D01*
X739141Y381301D01*
X737780Y381744D01*
G37*
%LPD*%
%LPC*%
G36*
X925950Y59184D02*
X925950Y59184D01*
X924525Y59910D01*
X923231Y60850D01*
X922100Y61981D01*
X921160Y63275D01*
X920434Y64700D01*
X919991Y66061D01*
X927311Y66061D01*
X927311Y58741D01*
X925950Y59184D01*
G37*
%LPD*%
%LPC*%
G36*
X938440Y249664D02*
X938440Y249664D01*
X937015Y250390D01*
X935721Y251330D01*
X934590Y252461D01*
X933650Y253755D01*
X932924Y255180D01*
X932481Y256541D01*
X939801Y256541D01*
X939801Y249221D01*
X938440Y249664D01*
G37*
%LPD*%
D10*
X785070Y68600D03*
X785070Y17800D03*
X785070Y43200D03*
D11*
X860000Y-22840D03*
X860000Y109240D03*
D10*
X929850Y17800D03*
X929850Y68600D03*
X396320Y371420D03*
X421720Y371420D03*
X447120Y371420D03*
X472520Y371420D03*
X497920Y371420D03*
X523320Y371420D03*
D12*
X589120Y127820D03*
X357120Y127820D03*
X357120Y364820D03*
X589120Y364820D03*
D10*
X548720Y371420D03*
D13*
X229616Y29591D03*
D14*
X621411Y366522D03*
X646811Y366522D03*
D10*
X942340Y157480D03*
X942340Y182880D03*
X942340Y208280D03*
X942340Y233680D03*
X942340Y259080D03*
X942340Y284480D03*
X690880Y365760D03*
X690880Y391160D03*
X716280Y365760D03*
X716280Y391160D03*
X741680Y365760D03*
X741680Y391160D03*
D13*
X498348Y144526D03*
D10*
X280670Y71120D03*
D13*
X641350Y288290D03*
X317500Y152400D03*
X317500Y130810D03*
X153670Y142240D03*
X621030Y167640D03*
X668020Y288290D03*
X154940Y102870D03*
X224790Y11430D03*
X942340Y132080D03*
X944880Y43180D03*
X318016Y378620D03*
D14*
X402844Y127000D03*
X428244Y127000D03*
X645668Y127000D03*
X671068Y127000D03*
D15*
X68580Y158750D03*
X17780Y134620D03*
X8890Y218440D03*
X66040Y251460D03*
X91440Y229108D03*
X193040Y322072D03*
X136398Y342900D03*
X242062Y255270D03*
X314960Y278130D03*
X833120Y196850D03*
D16*
X889000Y196850D03*
D15*
X881380Y346710D03*
X892810Y130810D03*
X951230Y91440D03*
X951230Y-22860D03*
X856996Y-92710D03*
X160020Y82550D03*
X69850Y60960D03*
X175260Y120650D03*
D16*
X185420Y153670D03*
D15*
X275590Y127000D03*
X353060Y278130D03*
X560070Y119380D03*
X580390Y160020D03*
X574040Y193040D03*
X673100Y214122D03*
X722630Y262890D03*
X673100Y259080D03*
X670560Y320040D03*
X544830Y284480D03*
X750570Y318770D03*
X734060Y335280D03*
D16*
X801370Y166370D03*
D15*
X768350Y201422D03*
X186690Y127000D03*
X236220Y88900D03*
X240030Y13970D03*
X599440Y232410D03*
X742950Y211836D03*
X859790Y166370D03*
X945642Y320040D03*
X199390Y219710D03*
X830580Y15240D03*
X806450Y45720D03*
D16*
X770890Y153670D03*
X151130Y289560D03*
X143510Y289560D03*
X135890Y289560D03*
X133350Y281940D03*
X140970Y281940D03*
X148590Y281940D03*
X151130Y274320D03*
X143510Y274320D03*
X135890Y274320D03*
X133350Y266700D03*
X140970Y266700D03*
X148590Y266700D03*
D15*
X754380Y117856D03*
X517398Y145796D03*
X830580Y-68072D03*
X643636Y154178D03*
X442976Y136144D03*
D16*
X105000Y405000D03*
X115000Y405000D03*
X125000Y405000D03*
X135000Y405000D03*
X145000Y405000D03*
X155000Y405000D03*
X165000Y405000D03*
X175000Y405000D03*
X185000Y405000D03*
X195000Y405000D03*
X205000Y405000D03*
X215000Y405000D03*
X225000Y405000D03*
X235000Y405000D03*
X245000Y405000D03*
X255000Y405000D03*
X265000Y405000D03*
X275000Y405000D03*
X110000Y395000D03*
X120000Y395000D03*
X130000Y395000D03*
X140000Y395000D03*
X150000Y395000D03*
X160000Y395000D03*
X170000Y395000D03*
X180000Y395000D03*
X190000Y395000D03*
X200000Y395000D03*
X210000Y395000D03*
X220000Y395000D03*
X230000Y395000D03*
X240000Y395000D03*
X250000Y395000D03*
X260000Y395000D03*
X270000Y395000D03*
X280000Y395000D03*
X105000Y385000D03*
X115000Y385000D03*
X125000Y385000D03*
X135000Y385000D03*
X145000Y385000D03*
X155000Y385000D03*
X165000Y385000D03*
X175000Y385000D03*
X185000Y385000D03*
X195000Y385000D03*
X205000Y385000D03*
X215000Y385000D03*
X225000Y385000D03*
X235000Y385000D03*
X245000Y385000D03*
X255000Y385000D03*
X265000Y385000D03*
X275000Y385000D03*
X110000Y375000D03*
X120000Y375000D03*
X130000Y375000D03*
X140000Y375000D03*
X150000Y375000D03*
X160000Y375000D03*
X170000Y375000D03*
X180000Y375000D03*
X190000Y375000D03*
X200000Y375000D03*
X210000Y375000D03*
X220000Y375000D03*
X230000Y375000D03*
X240000Y375000D03*
X250000Y375000D03*
X260000Y375000D03*
X95000Y365000D03*
X105000Y365000D03*
X115000Y365000D03*
X125000Y365000D03*
X100000Y355000D03*
X110000Y355000D03*
X120000Y355000D03*
X130000Y355000D03*
X95000Y345000D03*
X105000Y345000D03*
X115000Y345000D03*
X125000Y345000D03*
X100000Y335000D03*
X110000Y335000D03*
X120000Y335000D03*
X130000Y335000D03*
X781198Y401800D03*
X290700Y324300D03*
X300900Y324300D03*
X312100Y324700D03*
X323100Y325100D03*
D15*
X52000Y261000D03*
D17*
X71000Y22000D03*
X189000Y20000D03*
D16*
X789432Y212852D03*
D18*
X44450Y75438D03*
D15*
X47380Y285950D03*
X815340Y300990D03*
X559816Y146812D03*
X520700Y120650D03*
X477520Y136144D03*
D16*
X783800Y388900D03*
X314960Y182880D03*
X274320Y91440D03*
X292100Y182880D03*
X266700Y86360D03*
D15*
X877570Y176530D03*
X843280Y200660D03*
D16*
X594360Y215900D03*
D15*
X175260Y236220D03*
X337820Y248920D03*
D16*
X889000Y205740D03*
D19*
X767080Y365760D03*
D15*
X767080Y330200D03*
D16*
X700532Y140208D03*
X818896Y75184D03*
X724916Y178308D03*
X858520Y30480D03*
X538480Y266700D03*
X860806Y223774D03*
X485140Y330200D03*
D15*
X880110Y135890D03*
D16*
X535940Y327660D03*
D15*
X881380Y165100D03*
X684530Y334010D03*
D16*
X452120Y320040D03*
X891540Y165100D03*
X863600Y248920D03*
X814832Y261620D03*
X393700Y208280D03*
X388620Y160020D03*
X871220Y223520D03*
X383540Y210820D03*
X378460Y167640D03*
X525780Y266700D03*
X848360Y223520D03*
X871220Y186690D03*
D15*
X831342Y179070D03*
X633730Y245110D03*
X702310Y219710D03*
X899160Y-27940D03*
X952500Y111760D03*
X916940Y149860D03*
X762000Y78740D03*
X782320Y142240D03*
X799084Y207772D03*
X769620Y264160D03*
X828040Y391160D03*
X863600Y391160D03*
X706120Y322580D03*
X584200Y299720D03*
X563880Y302260D03*
X10160Y180340D03*
X172720Y200660D03*
X276860Y149860D03*
X236220Y149860D03*
X218440Y152400D03*
X848360Y210820D03*
X717296Y107696D03*
X442976Y176784D03*
D16*
X838200Y274320D03*
X866140Y281940D03*
D15*
X828040Y274320D03*
D16*
X878840Y281940D03*
D15*
X505968Y201168D03*
X215900Y83820D03*
X332740Y182880D03*
D17*
X155000Y20000D03*
D15*
X886968Y-39624D03*
X817880Y-45720D03*
X565404Y173736D03*
D16*
X872490Y248920D03*
X719836Y251968D03*
X617220Y297180D03*
X889000Y223012D03*
X119380Y248920D03*
D17*
X106000Y22000D03*
D15*
X884428Y264668D03*
D16*
X619760Y288036D03*
D15*
X836930Y220980D03*
X756920Y212090D03*
X132080Y137160D03*
D20*
X801116Y139446D03*
D15*
X114300Y149860D03*
X403860Y185420D03*
D16*
X684784Y116840D03*
D15*
X823468Y-88900D03*
D17*
X768000Y-32000D03*
X767000Y-3000D03*
D15*
X674624Y160528D03*
X819912Y134874D03*
X755396Y-88900D03*
D16*
X762000Y-53340D03*
X264160Y154940D03*
X281940Y180340D03*
X824992Y233680D03*
X609600Y213360D03*
D15*
X492506Y129540D03*
D16*
X786384Y87376D03*
D15*
X863917Y136843D03*
X889000Y115570D03*
X475488Y209296D03*
X868680Y49530D03*
X590804Y241808D03*
D16*
X889000Y214376D03*
D15*
X345440Y208280D03*
X231140Y226060D03*
X381000Y259080D03*
D16*
X99000Y274800D03*
X799500Y374600D03*
D21*
X0Y0D02*
X293500Y0D01*
X293500Y100000D01*
X748100Y100000D01*
X748100Y-110000D01*
X960000Y-110000D01*
X960000Y340000D01*
X880028Y419972D01*
X79972Y419972D01*
X0Y340000D01*
X0Y0D01*
M02*
