M48
;GenerationSoftware,Autodesk,EAGLE,9.5.2*%
;CreationDate,2020-11-20T18:21:50Z*%
FMAT,2
ICI,OFF
METRIC,TZ,000.000
T12C0.305
T11C0.406
T10C0.600
T9C0.750
T8C0.813
T7C0.889
T6C1.000
T5C1.016
T4C1.500
T3C2.200
T2C2.286
T1C3.100
%
G90
M71
T1
X5080Y34080
X91080Y34080
X3080Y3080
X93080Y-7920
T2
X86000Y10924
X86000Y-2284
T3
X58912Y12782
X35712Y12782
X35712Y36482
X58912Y36482
T4
X7100Y2200
X18900Y2000
X15500Y2000
X10600Y2200
X76800Y-3200
X76700Y-300
T5
X28067Y7112
X74168Y39116
X74168Y36576
X71628Y39116
X71628Y36576
X69088Y39116
X69088Y36576
X94234Y28448
X94234Y25908
X94234Y23368
X94234Y20828
X94234Y18288
X94234Y15748
X78507Y4320
X92985Y1780
X92985Y6860
X54872Y37142
X78507Y1780
X78507Y6860
X52332Y37142
X49792Y37142
X47252Y37142
X44712Y37142
X42172Y37142
X39632Y37142
T6
X76708Y36576
T7
X4445Y7544
T8
X67107Y12700
X62141Y36652
X64681Y36652
X40284Y12700
X42824Y12700
X64567Y12700
T9
X49835Y14453
X64135Y28829
X31750Y15240
X31750Y13081
X15367Y14224
X62103Y16764
X66802Y28829
X15494Y10287
X22479Y1143
X94234Y13208
X94488Y4318
X31802Y37862
X22962Y2959
T10
X80112Y13945
T11
X6858Y15875
X1778Y13462
X889Y21844
X6604Y25146
X9144Y22911
X19304Y32207
X13640Y34290
X24206Y25527
X31496Y27813
X83312Y19685
X88138Y34671
X89281Y13081
X95123Y9144
X95123Y-2286
X85700Y-9271
X16002Y8255
X6985Y6096
X17526Y12065
X27559Y12700
X35306Y27813
X56007Y11938
X58039Y16002
X57404Y19304
X67310Y21412
X72263Y26289
X67310Y25908
X67056Y32004
X54483Y28448
X75057Y31877
X73406Y33528
X76835Y20142
X18669Y12700
X23622Y8890
X24003Y1397
X59944Y23241
X74295Y21184
X85979Y16637
X94564Y32004
X19939Y21971
X83058Y1524
X80645Y4572
X38100Y25908
X23114Y22606
X34544Y20828
X59080Y24181
X86868Y4953
X47549Y20930
X88900Y11557
X86392Y13684
X49251Y12954
X75540Y-8890
X81991Y13487
X67462Y16053
X82347Y-8890
X40386Y18542
X11430Y14986
X13208Y13716
X75692Y21209
X83693Y22098
X88443Y26467
X75438Y11786
X56540Y17374
X81788Y-4572
X88697Y-3962
X51740Y14580
X33274Y18288
X21590Y8382
X50597Y20117
X82804Y27432
X44298Y17678
X71730Y10770
X84836Y21082
X21844Y15240
X23622Y14986
X27686Y14986
X17272Y20066
X1016Y18034
X56388Y30226
X58420Y29972
X70612Y32258
X86360Y39116
X82804Y39116
X76962Y26416
X79908Y20777
X78232Y14224
X76200Y7874
X91694Y14986
X95250Y11176
X89916Y-2794
X70231Y21971
X5200Y26100
X63373Y24511
X44298Y13614
X83134Y17907
X64364Y15418
X4738Y28595
X81534Y30099
X55982Y14681
X52070Y12065
X47752Y13614
X68453Y33401
X88138Y16510
X88011Y13589
X76708Y33020
X83058Y-6807
X87757Y17653
X84328Y20066
X33782Y24892
X17526Y23622
T12
X59436Y21590
X88900Y20574
X26670Y8636
X29210Y18288
X70053Y14021
X81890Y7518
X72492Y17831
X85852Y3048
X53848Y26670
X86081Y22377
X48514Y33020
X27432Y9144
X53594Y32766
X31496Y18288
X11500Y40500
X45212Y32004
X89154Y16510
X86360Y24892
X81483Y26162
X39370Y20828
X38862Y16002
X87122Y22352
X38354Y21082
X37846Y16764
X52578Y26670
X84836Y22352
X87122Y18669
X78943Y21285
X10500Y40500
X32310Y32510
X31210Y32470
X30090Y32430
X29070Y32430
X78120Y40180
X13000Y33500
X12000Y33500
X11000Y33500
X10000Y33500
X12500Y34500
X11500Y34500
X10500Y34500
X9500Y34500
X13000Y35500
X12000Y35500
X11000Y35500
X10000Y35500
X12500Y36500
X11500Y36500
X10500Y36500
X9500Y36500
X83820Y27432
X86614Y28194
X26000Y37500
X87884Y28194
X25000Y37500
X24000Y37500
X23000Y37500
X22000Y37500
X21000Y37500
X20000Y37500
X19000Y37500
X87249Y24892
X71984Y25197
X61722Y29718
X88900Y22301
X11938Y24892
X18000Y37500
X17000Y37500
X61976Y28804
X16000Y37500
X15000Y37500
X14000Y37500
X14859Y26670
X13000Y37500
X12000Y37500
X68478Y11684
X11000Y37500
X14097Y26670
X13335Y26670
X27500Y38500
X26500Y38500
X25500Y38500
X76200Y-5334
X26416Y15494
X28194Y18034
X82499Y23368
X60960Y21336
X24500Y38500
X78638Y8738
X23500Y38500
X22500Y38500
X21500Y38500
X20500Y38500
X19500Y38500
X88900Y21438
X18500Y38500
X17500Y38500
X16500Y38500
X9900Y27480
X79950Y37460
X13589Y27432
X14351Y27432
X15113Y27432
X14859Y28194
X14097Y28194
X13335Y28194
X13589Y28956
X14351Y28956
X15113Y28956
X77089Y15367
X15500Y38500
X14500Y38500
X13500Y38500
X12500Y38500
X11500Y38500
X10500Y38500
X28000Y39500
X27000Y39500
X26000Y39500
X25000Y39500
X24000Y39500
X80137Y16637
X23000Y39500
X22000Y39500
X21000Y39500
X20000Y39500
X19000Y39500
X18000Y39500
X17000Y39500
X16000Y39500
X15000Y39500
X14000Y39500
X13000Y39500
X12000Y39500
X18542Y15367
X11000Y39500
X27500Y40500
X26500Y40500
X25500Y40500
X24500Y40500
X23500Y40500
X22500Y40500
X21500Y40500
X88900Y19685
X20500Y40500
X19500Y40500
X18500Y40500
X17500Y40500
X16500Y40500
X15500Y40500
X14500Y40500
X13500Y40500
X12500Y40500
X78380Y38890
M30