G04 EAGLE Gerber RS-274X export*
G75*
%MOMM*%
%FSLAX34Y34*%
%LPD*%
%INMechanical*%
%IPPOS*%
%AMOC8*
5,1,8,0,0,1.08239X$1,22.5*%
G01*
%ADD10C,0.000000*%
%ADD11C,0.254000*%


D10*
X960000Y-110000D02*
X960000Y340000D01*
X880028Y419972D01*
X79972Y419972D01*
X0Y340000D01*
X0Y0D01*
X293500Y0D01*
X293500Y100000D01*
X748100Y100000D01*
X748100Y-110000D01*
X960000Y-110000D01*
X35300Y340800D02*
X35305Y341180D01*
X35319Y341561D01*
X35342Y341940D01*
X35375Y342319D01*
X35417Y342697D01*
X35468Y343074D01*
X35528Y343450D01*
X35598Y343824D01*
X35677Y344196D01*
X35765Y344566D01*
X35861Y344934D01*
X35967Y345299D01*
X36082Y345662D01*
X36206Y346022D01*
X36339Y346378D01*
X36480Y346732D01*
X36630Y347081D01*
X36788Y347427D01*
X36955Y347769D01*
X37130Y348107D01*
X37314Y348440D01*
X37505Y348769D01*
X37705Y349092D01*
X37912Y349411D01*
X38127Y349725D01*
X38350Y350033D01*
X38581Y350336D01*
X38818Y350633D01*
X39063Y350924D01*
X39315Y351209D01*
X39574Y351488D01*
X39840Y351760D01*
X40112Y352026D01*
X40391Y352285D01*
X40676Y352537D01*
X40967Y352782D01*
X41264Y353019D01*
X41567Y353250D01*
X41875Y353473D01*
X42189Y353688D01*
X42508Y353895D01*
X42831Y354095D01*
X43160Y354286D01*
X43493Y354470D01*
X43831Y354645D01*
X44173Y354812D01*
X44519Y354970D01*
X44868Y355120D01*
X45222Y355261D01*
X45578Y355394D01*
X45938Y355518D01*
X46301Y355633D01*
X46666Y355739D01*
X47034Y355835D01*
X47404Y355923D01*
X47776Y356002D01*
X48150Y356072D01*
X48526Y356132D01*
X48903Y356183D01*
X49281Y356225D01*
X49660Y356258D01*
X50039Y356281D01*
X50420Y356295D01*
X50800Y356300D01*
X51180Y356295D01*
X51561Y356281D01*
X51940Y356258D01*
X52319Y356225D01*
X52697Y356183D01*
X53074Y356132D01*
X53450Y356072D01*
X53824Y356002D01*
X54196Y355923D01*
X54566Y355835D01*
X54934Y355739D01*
X55299Y355633D01*
X55662Y355518D01*
X56022Y355394D01*
X56378Y355261D01*
X56732Y355120D01*
X57081Y354970D01*
X57427Y354812D01*
X57769Y354645D01*
X58107Y354470D01*
X58440Y354286D01*
X58769Y354095D01*
X59092Y353895D01*
X59411Y353688D01*
X59725Y353473D01*
X60033Y353250D01*
X60336Y353019D01*
X60633Y352782D01*
X60924Y352537D01*
X61209Y352285D01*
X61488Y352026D01*
X61760Y351760D01*
X62026Y351488D01*
X62285Y351209D01*
X62537Y350924D01*
X62782Y350633D01*
X63019Y350336D01*
X63250Y350033D01*
X63473Y349725D01*
X63688Y349411D01*
X63895Y349092D01*
X64095Y348769D01*
X64286Y348440D01*
X64470Y348107D01*
X64645Y347769D01*
X64812Y347427D01*
X64970Y347081D01*
X65120Y346732D01*
X65261Y346378D01*
X65394Y346022D01*
X65518Y345662D01*
X65633Y345299D01*
X65739Y344934D01*
X65835Y344566D01*
X65923Y344196D01*
X66002Y343824D01*
X66072Y343450D01*
X66132Y343074D01*
X66183Y342697D01*
X66225Y342319D01*
X66258Y341940D01*
X66281Y341561D01*
X66295Y341180D01*
X66300Y340800D01*
X66295Y340420D01*
X66281Y340039D01*
X66258Y339660D01*
X66225Y339281D01*
X66183Y338903D01*
X66132Y338526D01*
X66072Y338150D01*
X66002Y337776D01*
X65923Y337404D01*
X65835Y337034D01*
X65739Y336666D01*
X65633Y336301D01*
X65518Y335938D01*
X65394Y335578D01*
X65261Y335222D01*
X65120Y334868D01*
X64970Y334519D01*
X64812Y334173D01*
X64645Y333831D01*
X64470Y333493D01*
X64286Y333160D01*
X64095Y332831D01*
X63895Y332508D01*
X63688Y332189D01*
X63473Y331875D01*
X63250Y331567D01*
X63019Y331264D01*
X62782Y330967D01*
X62537Y330676D01*
X62285Y330391D01*
X62026Y330112D01*
X61760Y329840D01*
X61488Y329574D01*
X61209Y329315D01*
X60924Y329063D01*
X60633Y328818D01*
X60336Y328581D01*
X60033Y328350D01*
X59725Y328127D01*
X59411Y327912D01*
X59092Y327705D01*
X58769Y327505D01*
X58440Y327314D01*
X58107Y327130D01*
X57769Y326955D01*
X57427Y326788D01*
X57081Y326630D01*
X56732Y326480D01*
X56378Y326339D01*
X56022Y326206D01*
X55662Y326082D01*
X55299Y325967D01*
X54934Y325861D01*
X54566Y325765D01*
X54196Y325677D01*
X53824Y325598D01*
X53450Y325528D01*
X53074Y325468D01*
X52697Y325417D01*
X52319Y325375D01*
X51940Y325342D01*
X51561Y325319D01*
X51180Y325305D01*
X50800Y325300D01*
X50420Y325305D01*
X50039Y325319D01*
X49660Y325342D01*
X49281Y325375D01*
X48903Y325417D01*
X48526Y325468D01*
X48150Y325528D01*
X47776Y325598D01*
X47404Y325677D01*
X47034Y325765D01*
X46666Y325861D01*
X46301Y325967D01*
X45938Y326082D01*
X45578Y326206D01*
X45222Y326339D01*
X44868Y326480D01*
X44519Y326630D01*
X44173Y326788D01*
X43831Y326955D01*
X43493Y327130D01*
X43160Y327314D01*
X42831Y327505D01*
X42508Y327705D01*
X42189Y327912D01*
X41875Y328127D01*
X41567Y328350D01*
X41264Y328581D01*
X40967Y328818D01*
X40676Y329063D01*
X40391Y329315D01*
X40112Y329574D01*
X39840Y329840D01*
X39574Y330112D01*
X39315Y330391D01*
X39063Y330676D01*
X38818Y330967D01*
X38581Y331264D01*
X38350Y331567D01*
X38127Y331875D01*
X37912Y332189D01*
X37705Y332508D01*
X37505Y332831D01*
X37314Y333160D01*
X37130Y333493D01*
X36955Y333831D01*
X36788Y334173D01*
X36630Y334519D01*
X36480Y334868D01*
X36339Y335222D01*
X36206Y335578D01*
X36082Y335938D01*
X35967Y336301D01*
X35861Y336666D01*
X35765Y337034D01*
X35677Y337404D01*
X35598Y337776D01*
X35528Y338150D01*
X35468Y338526D01*
X35417Y338903D01*
X35375Y339281D01*
X35342Y339660D01*
X35319Y340039D01*
X35305Y340420D01*
X35300Y340800D01*
X895300Y340800D02*
X895305Y341180D01*
X895319Y341561D01*
X895342Y341940D01*
X895375Y342319D01*
X895417Y342697D01*
X895468Y343074D01*
X895528Y343450D01*
X895598Y343824D01*
X895677Y344196D01*
X895765Y344566D01*
X895861Y344934D01*
X895967Y345299D01*
X896082Y345662D01*
X896206Y346022D01*
X896339Y346378D01*
X896480Y346732D01*
X896630Y347081D01*
X896788Y347427D01*
X896955Y347769D01*
X897130Y348107D01*
X897314Y348440D01*
X897505Y348769D01*
X897705Y349092D01*
X897912Y349411D01*
X898127Y349725D01*
X898350Y350033D01*
X898581Y350336D01*
X898818Y350633D01*
X899063Y350924D01*
X899315Y351209D01*
X899574Y351488D01*
X899840Y351760D01*
X900112Y352026D01*
X900391Y352285D01*
X900676Y352537D01*
X900967Y352782D01*
X901264Y353019D01*
X901567Y353250D01*
X901875Y353473D01*
X902189Y353688D01*
X902508Y353895D01*
X902831Y354095D01*
X903160Y354286D01*
X903493Y354470D01*
X903831Y354645D01*
X904173Y354812D01*
X904519Y354970D01*
X904868Y355120D01*
X905222Y355261D01*
X905578Y355394D01*
X905938Y355518D01*
X906301Y355633D01*
X906666Y355739D01*
X907034Y355835D01*
X907404Y355923D01*
X907776Y356002D01*
X908150Y356072D01*
X908526Y356132D01*
X908903Y356183D01*
X909281Y356225D01*
X909660Y356258D01*
X910039Y356281D01*
X910420Y356295D01*
X910800Y356300D01*
X911180Y356295D01*
X911561Y356281D01*
X911940Y356258D01*
X912319Y356225D01*
X912697Y356183D01*
X913074Y356132D01*
X913450Y356072D01*
X913824Y356002D01*
X914196Y355923D01*
X914566Y355835D01*
X914934Y355739D01*
X915299Y355633D01*
X915662Y355518D01*
X916022Y355394D01*
X916378Y355261D01*
X916732Y355120D01*
X917081Y354970D01*
X917427Y354812D01*
X917769Y354645D01*
X918107Y354470D01*
X918440Y354286D01*
X918769Y354095D01*
X919092Y353895D01*
X919411Y353688D01*
X919725Y353473D01*
X920033Y353250D01*
X920336Y353019D01*
X920633Y352782D01*
X920924Y352537D01*
X921209Y352285D01*
X921488Y352026D01*
X921760Y351760D01*
X922026Y351488D01*
X922285Y351209D01*
X922537Y350924D01*
X922782Y350633D01*
X923019Y350336D01*
X923250Y350033D01*
X923473Y349725D01*
X923688Y349411D01*
X923895Y349092D01*
X924095Y348769D01*
X924286Y348440D01*
X924470Y348107D01*
X924645Y347769D01*
X924812Y347427D01*
X924970Y347081D01*
X925120Y346732D01*
X925261Y346378D01*
X925394Y346022D01*
X925518Y345662D01*
X925633Y345299D01*
X925739Y344934D01*
X925835Y344566D01*
X925923Y344196D01*
X926002Y343824D01*
X926072Y343450D01*
X926132Y343074D01*
X926183Y342697D01*
X926225Y342319D01*
X926258Y341940D01*
X926281Y341561D01*
X926295Y341180D01*
X926300Y340800D01*
X926295Y340420D01*
X926281Y340039D01*
X926258Y339660D01*
X926225Y339281D01*
X926183Y338903D01*
X926132Y338526D01*
X926072Y338150D01*
X926002Y337776D01*
X925923Y337404D01*
X925835Y337034D01*
X925739Y336666D01*
X925633Y336301D01*
X925518Y335938D01*
X925394Y335578D01*
X925261Y335222D01*
X925120Y334868D01*
X924970Y334519D01*
X924812Y334173D01*
X924645Y333831D01*
X924470Y333493D01*
X924286Y333160D01*
X924095Y332831D01*
X923895Y332508D01*
X923688Y332189D01*
X923473Y331875D01*
X923250Y331567D01*
X923019Y331264D01*
X922782Y330967D01*
X922537Y330676D01*
X922285Y330391D01*
X922026Y330112D01*
X921760Y329840D01*
X921488Y329574D01*
X921209Y329315D01*
X920924Y329063D01*
X920633Y328818D01*
X920336Y328581D01*
X920033Y328350D01*
X919725Y328127D01*
X919411Y327912D01*
X919092Y327705D01*
X918769Y327505D01*
X918440Y327314D01*
X918107Y327130D01*
X917769Y326955D01*
X917427Y326788D01*
X917081Y326630D01*
X916732Y326480D01*
X916378Y326339D01*
X916022Y326206D01*
X915662Y326082D01*
X915299Y325967D01*
X914934Y325861D01*
X914566Y325765D01*
X914196Y325677D01*
X913824Y325598D01*
X913450Y325528D01*
X913074Y325468D01*
X912697Y325417D01*
X912319Y325375D01*
X911940Y325342D01*
X911561Y325319D01*
X911180Y325305D01*
X910800Y325300D01*
X910420Y325305D01*
X910039Y325319D01*
X909660Y325342D01*
X909281Y325375D01*
X908903Y325417D01*
X908526Y325468D01*
X908150Y325528D01*
X907776Y325598D01*
X907404Y325677D01*
X907034Y325765D01*
X906666Y325861D01*
X906301Y325967D01*
X905938Y326082D01*
X905578Y326206D01*
X905222Y326339D01*
X904868Y326480D01*
X904519Y326630D01*
X904173Y326788D01*
X903831Y326955D01*
X903493Y327130D01*
X903160Y327314D01*
X902831Y327505D01*
X902508Y327705D01*
X902189Y327912D01*
X901875Y328127D01*
X901567Y328350D01*
X901264Y328581D01*
X900967Y328818D01*
X900676Y329063D01*
X900391Y329315D01*
X900112Y329574D01*
X899840Y329840D01*
X899574Y330112D01*
X899315Y330391D01*
X899063Y330676D01*
X898818Y330967D01*
X898581Y331264D01*
X898350Y331567D01*
X898127Y331875D01*
X897912Y332189D01*
X897705Y332508D01*
X897505Y332831D01*
X897314Y333160D01*
X897130Y333493D01*
X896955Y333831D01*
X896788Y334173D01*
X896630Y334519D01*
X896480Y334868D01*
X896339Y335222D01*
X896206Y335578D01*
X896082Y335938D01*
X895967Y336301D01*
X895861Y336666D01*
X895765Y337034D01*
X895677Y337404D01*
X895598Y337776D01*
X895528Y338150D01*
X895468Y338526D01*
X895417Y338903D01*
X895375Y339281D01*
X895342Y339660D01*
X895319Y340039D01*
X895305Y340420D01*
X895300Y340800D01*
X15300Y30800D02*
X15305Y31180D01*
X15319Y31561D01*
X15342Y31940D01*
X15375Y32319D01*
X15417Y32697D01*
X15468Y33074D01*
X15528Y33450D01*
X15598Y33824D01*
X15677Y34196D01*
X15765Y34566D01*
X15861Y34934D01*
X15967Y35299D01*
X16082Y35662D01*
X16206Y36022D01*
X16339Y36378D01*
X16480Y36732D01*
X16630Y37081D01*
X16788Y37427D01*
X16955Y37769D01*
X17130Y38107D01*
X17314Y38440D01*
X17505Y38769D01*
X17705Y39092D01*
X17912Y39411D01*
X18127Y39725D01*
X18350Y40033D01*
X18581Y40336D01*
X18818Y40633D01*
X19063Y40924D01*
X19315Y41209D01*
X19574Y41488D01*
X19840Y41760D01*
X20112Y42026D01*
X20391Y42285D01*
X20676Y42537D01*
X20967Y42782D01*
X21264Y43019D01*
X21567Y43250D01*
X21875Y43473D01*
X22189Y43688D01*
X22508Y43895D01*
X22831Y44095D01*
X23160Y44286D01*
X23493Y44470D01*
X23831Y44645D01*
X24173Y44812D01*
X24519Y44970D01*
X24868Y45120D01*
X25222Y45261D01*
X25578Y45394D01*
X25938Y45518D01*
X26301Y45633D01*
X26666Y45739D01*
X27034Y45835D01*
X27404Y45923D01*
X27776Y46002D01*
X28150Y46072D01*
X28526Y46132D01*
X28903Y46183D01*
X29281Y46225D01*
X29660Y46258D01*
X30039Y46281D01*
X30420Y46295D01*
X30800Y46300D01*
X31180Y46295D01*
X31561Y46281D01*
X31940Y46258D01*
X32319Y46225D01*
X32697Y46183D01*
X33074Y46132D01*
X33450Y46072D01*
X33824Y46002D01*
X34196Y45923D01*
X34566Y45835D01*
X34934Y45739D01*
X35299Y45633D01*
X35662Y45518D01*
X36022Y45394D01*
X36378Y45261D01*
X36732Y45120D01*
X37081Y44970D01*
X37427Y44812D01*
X37769Y44645D01*
X38107Y44470D01*
X38440Y44286D01*
X38769Y44095D01*
X39092Y43895D01*
X39411Y43688D01*
X39725Y43473D01*
X40033Y43250D01*
X40336Y43019D01*
X40633Y42782D01*
X40924Y42537D01*
X41209Y42285D01*
X41488Y42026D01*
X41760Y41760D01*
X42026Y41488D01*
X42285Y41209D01*
X42537Y40924D01*
X42782Y40633D01*
X43019Y40336D01*
X43250Y40033D01*
X43473Y39725D01*
X43688Y39411D01*
X43895Y39092D01*
X44095Y38769D01*
X44286Y38440D01*
X44470Y38107D01*
X44645Y37769D01*
X44812Y37427D01*
X44970Y37081D01*
X45120Y36732D01*
X45261Y36378D01*
X45394Y36022D01*
X45518Y35662D01*
X45633Y35299D01*
X45739Y34934D01*
X45835Y34566D01*
X45923Y34196D01*
X46002Y33824D01*
X46072Y33450D01*
X46132Y33074D01*
X46183Y32697D01*
X46225Y32319D01*
X46258Y31940D01*
X46281Y31561D01*
X46295Y31180D01*
X46300Y30800D01*
X46295Y30420D01*
X46281Y30039D01*
X46258Y29660D01*
X46225Y29281D01*
X46183Y28903D01*
X46132Y28526D01*
X46072Y28150D01*
X46002Y27776D01*
X45923Y27404D01*
X45835Y27034D01*
X45739Y26666D01*
X45633Y26301D01*
X45518Y25938D01*
X45394Y25578D01*
X45261Y25222D01*
X45120Y24868D01*
X44970Y24519D01*
X44812Y24173D01*
X44645Y23831D01*
X44470Y23493D01*
X44286Y23160D01*
X44095Y22831D01*
X43895Y22508D01*
X43688Y22189D01*
X43473Y21875D01*
X43250Y21567D01*
X43019Y21264D01*
X42782Y20967D01*
X42537Y20676D01*
X42285Y20391D01*
X42026Y20112D01*
X41760Y19840D01*
X41488Y19574D01*
X41209Y19315D01*
X40924Y19063D01*
X40633Y18818D01*
X40336Y18581D01*
X40033Y18350D01*
X39725Y18127D01*
X39411Y17912D01*
X39092Y17705D01*
X38769Y17505D01*
X38440Y17314D01*
X38107Y17130D01*
X37769Y16955D01*
X37427Y16788D01*
X37081Y16630D01*
X36732Y16480D01*
X36378Y16339D01*
X36022Y16206D01*
X35662Y16082D01*
X35299Y15967D01*
X34934Y15861D01*
X34566Y15765D01*
X34196Y15677D01*
X33824Y15598D01*
X33450Y15528D01*
X33074Y15468D01*
X32697Y15417D01*
X32319Y15375D01*
X31940Y15342D01*
X31561Y15319D01*
X31180Y15305D01*
X30800Y15300D01*
X30420Y15305D01*
X30039Y15319D01*
X29660Y15342D01*
X29281Y15375D01*
X28903Y15417D01*
X28526Y15468D01*
X28150Y15528D01*
X27776Y15598D01*
X27404Y15677D01*
X27034Y15765D01*
X26666Y15861D01*
X26301Y15967D01*
X25938Y16082D01*
X25578Y16206D01*
X25222Y16339D01*
X24868Y16480D01*
X24519Y16630D01*
X24173Y16788D01*
X23831Y16955D01*
X23493Y17130D01*
X23160Y17314D01*
X22831Y17505D01*
X22508Y17705D01*
X22189Y17912D01*
X21875Y18127D01*
X21567Y18350D01*
X21264Y18581D01*
X20967Y18818D01*
X20676Y19063D01*
X20391Y19315D01*
X20112Y19574D01*
X19840Y19840D01*
X19574Y20112D01*
X19315Y20391D01*
X19063Y20676D01*
X18818Y20967D01*
X18581Y21264D01*
X18350Y21567D01*
X18127Y21875D01*
X17912Y22189D01*
X17705Y22508D01*
X17505Y22831D01*
X17314Y23160D01*
X17130Y23493D01*
X16955Y23831D01*
X16788Y24173D01*
X16630Y24519D01*
X16480Y24868D01*
X16339Y25222D01*
X16206Y25578D01*
X16082Y25938D01*
X15967Y26301D01*
X15861Y26666D01*
X15765Y27034D01*
X15677Y27404D01*
X15598Y27776D01*
X15528Y28150D01*
X15468Y28526D01*
X15417Y28903D01*
X15375Y29281D01*
X15342Y29660D01*
X15319Y30039D01*
X15305Y30420D01*
X15300Y30800D01*
X915300Y-79200D02*
X915305Y-78820D01*
X915319Y-78439D01*
X915342Y-78060D01*
X915375Y-77681D01*
X915417Y-77303D01*
X915468Y-76926D01*
X915528Y-76550D01*
X915598Y-76176D01*
X915677Y-75804D01*
X915765Y-75434D01*
X915861Y-75066D01*
X915967Y-74701D01*
X916082Y-74338D01*
X916206Y-73978D01*
X916339Y-73622D01*
X916480Y-73268D01*
X916630Y-72919D01*
X916788Y-72573D01*
X916955Y-72231D01*
X917130Y-71893D01*
X917314Y-71560D01*
X917505Y-71231D01*
X917705Y-70908D01*
X917912Y-70589D01*
X918127Y-70275D01*
X918350Y-69967D01*
X918581Y-69664D01*
X918818Y-69367D01*
X919063Y-69076D01*
X919315Y-68791D01*
X919574Y-68512D01*
X919840Y-68240D01*
X920112Y-67974D01*
X920391Y-67715D01*
X920676Y-67463D01*
X920967Y-67218D01*
X921264Y-66981D01*
X921567Y-66750D01*
X921875Y-66527D01*
X922189Y-66312D01*
X922508Y-66105D01*
X922831Y-65905D01*
X923160Y-65714D01*
X923493Y-65530D01*
X923831Y-65355D01*
X924173Y-65188D01*
X924519Y-65030D01*
X924868Y-64880D01*
X925222Y-64739D01*
X925578Y-64606D01*
X925938Y-64482D01*
X926301Y-64367D01*
X926666Y-64261D01*
X927034Y-64165D01*
X927404Y-64077D01*
X927776Y-63998D01*
X928150Y-63928D01*
X928526Y-63868D01*
X928903Y-63817D01*
X929281Y-63775D01*
X929660Y-63742D01*
X930039Y-63719D01*
X930420Y-63705D01*
X930800Y-63700D01*
X931180Y-63705D01*
X931561Y-63719D01*
X931940Y-63742D01*
X932319Y-63775D01*
X932697Y-63817D01*
X933074Y-63868D01*
X933450Y-63928D01*
X933824Y-63998D01*
X934196Y-64077D01*
X934566Y-64165D01*
X934934Y-64261D01*
X935299Y-64367D01*
X935662Y-64482D01*
X936022Y-64606D01*
X936378Y-64739D01*
X936732Y-64880D01*
X937081Y-65030D01*
X937427Y-65188D01*
X937769Y-65355D01*
X938107Y-65530D01*
X938440Y-65714D01*
X938769Y-65905D01*
X939092Y-66105D01*
X939411Y-66312D01*
X939725Y-66527D01*
X940033Y-66750D01*
X940336Y-66981D01*
X940633Y-67218D01*
X940924Y-67463D01*
X941209Y-67715D01*
X941488Y-67974D01*
X941760Y-68240D01*
X942026Y-68512D01*
X942285Y-68791D01*
X942537Y-69076D01*
X942782Y-69367D01*
X943019Y-69664D01*
X943250Y-69967D01*
X943473Y-70275D01*
X943688Y-70589D01*
X943895Y-70908D01*
X944095Y-71231D01*
X944286Y-71560D01*
X944470Y-71893D01*
X944645Y-72231D01*
X944812Y-72573D01*
X944970Y-72919D01*
X945120Y-73268D01*
X945261Y-73622D01*
X945394Y-73978D01*
X945518Y-74338D01*
X945633Y-74701D01*
X945739Y-75066D01*
X945835Y-75434D01*
X945923Y-75804D01*
X946002Y-76176D01*
X946072Y-76550D01*
X946132Y-76926D01*
X946183Y-77303D01*
X946225Y-77681D01*
X946258Y-78060D01*
X946281Y-78439D01*
X946295Y-78820D01*
X946300Y-79200D01*
X946295Y-79580D01*
X946281Y-79961D01*
X946258Y-80340D01*
X946225Y-80719D01*
X946183Y-81097D01*
X946132Y-81474D01*
X946072Y-81850D01*
X946002Y-82224D01*
X945923Y-82596D01*
X945835Y-82966D01*
X945739Y-83334D01*
X945633Y-83699D01*
X945518Y-84062D01*
X945394Y-84422D01*
X945261Y-84778D01*
X945120Y-85132D01*
X944970Y-85481D01*
X944812Y-85827D01*
X944645Y-86169D01*
X944470Y-86507D01*
X944286Y-86840D01*
X944095Y-87169D01*
X943895Y-87492D01*
X943688Y-87811D01*
X943473Y-88125D01*
X943250Y-88433D01*
X943019Y-88736D01*
X942782Y-89033D01*
X942537Y-89324D01*
X942285Y-89609D01*
X942026Y-89888D01*
X941760Y-90160D01*
X941488Y-90426D01*
X941209Y-90685D01*
X940924Y-90937D01*
X940633Y-91182D01*
X940336Y-91419D01*
X940033Y-91650D01*
X939725Y-91873D01*
X939411Y-92088D01*
X939092Y-92295D01*
X938769Y-92495D01*
X938440Y-92686D01*
X938107Y-92870D01*
X937769Y-93045D01*
X937427Y-93212D01*
X937081Y-93370D01*
X936732Y-93520D01*
X936378Y-93661D01*
X936022Y-93794D01*
X935662Y-93918D01*
X935299Y-94033D01*
X934934Y-94139D01*
X934566Y-94235D01*
X934196Y-94323D01*
X933824Y-94402D01*
X933450Y-94472D01*
X933074Y-94532D01*
X932697Y-94583D01*
X932319Y-94625D01*
X931940Y-94658D01*
X931561Y-94681D01*
X931180Y-94695D01*
X930800Y-94700D01*
X930420Y-94695D01*
X930039Y-94681D01*
X929660Y-94658D01*
X929281Y-94625D01*
X928903Y-94583D01*
X928526Y-94532D01*
X928150Y-94472D01*
X927776Y-94402D01*
X927404Y-94323D01*
X927034Y-94235D01*
X926666Y-94139D01*
X926301Y-94033D01*
X925938Y-93918D01*
X925578Y-93794D01*
X925222Y-93661D01*
X924868Y-93520D01*
X924519Y-93370D01*
X924173Y-93212D01*
X923831Y-93045D01*
X923493Y-92870D01*
X923160Y-92686D01*
X922831Y-92495D01*
X922508Y-92295D01*
X922189Y-92088D01*
X921875Y-91873D01*
X921567Y-91650D01*
X921264Y-91419D01*
X920967Y-91182D01*
X920676Y-90937D01*
X920391Y-90685D01*
X920112Y-90426D01*
X919840Y-90160D01*
X919574Y-89888D01*
X919315Y-89609D01*
X919063Y-89324D01*
X918818Y-89033D01*
X918581Y-88736D01*
X918350Y-88433D01*
X918127Y-88125D01*
X917912Y-87811D01*
X917705Y-87492D01*
X917505Y-87169D01*
X917314Y-86840D01*
X917130Y-86507D01*
X916955Y-86169D01*
X916788Y-85827D01*
X916630Y-85481D01*
X916480Y-85132D01*
X916339Y-84778D01*
X916206Y-84422D01*
X916082Y-84062D01*
X915967Y-83699D01*
X915861Y-83334D01*
X915765Y-82966D01*
X915677Y-82596D01*
X915598Y-82224D01*
X915528Y-81850D01*
X915468Y-81474D01*
X915417Y-81097D01*
X915375Y-80719D01*
X915342Y-80340D01*
X915319Y-79961D01*
X915305Y-79580D01*
X915300Y-79200D01*
D11*
X0Y0D02*
X293500Y0D01*
X293500Y100000D01*
X748100Y100000D01*
X748100Y-110000D01*
X960000Y-110000D01*
X960000Y340000D01*
X880028Y419972D01*
X79972Y419972D01*
X0Y340000D01*
X0Y0D01*
X66300Y340246D02*
X66221Y339142D01*
X66063Y338046D01*
X65828Y336964D01*
X65516Y335902D01*
X65129Y334865D01*
X64669Y333858D01*
X64139Y332886D01*
X63540Y331954D01*
X62877Y331068D01*
X62152Y330231D01*
X61369Y329448D01*
X60532Y328723D01*
X59646Y328060D01*
X58714Y327461D01*
X57742Y326931D01*
X56735Y326471D01*
X55698Y326084D01*
X54636Y325772D01*
X53554Y325537D01*
X52458Y325379D01*
X51354Y325300D01*
X50246Y325300D01*
X49142Y325379D01*
X48046Y325537D01*
X46964Y325772D01*
X45902Y326084D01*
X44865Y326471D01*
X43858Y326931D01*
X42886Y327461D01*
X41954Y328060D01*
X41068Y328723D01*
X40231Y329448D01*
X39448Y330231D01*
X38723Y331068D01*
X38060Y331954D01*
X37461Y332886D01*
X36931Y333858D01*
X36471Y334865D01*
X36084Y335902D01*
X35772Y336964D01*
X35537Y338046D01*
X35379Y339142D01*
X35300Y340246D01*
X35300Y341354D01*
X35379Y342458D01*
X35537Y343554D01*
X35772Y344636D01*
X36084Y345698D01*
X36471Y346735D01*
X36931Y347742D01*
X37461Y348714D01*
X38060Y349646D01*
X38723Y350532D01*
X39448Y351369D01*
X40231Y352152D01*
X41068Y352877D01*
X41954Y353540D01*
X42886Y354139D01*
X43858Y354669D01*
X44865Y355129D01*
X45902Y355516D01*
X46964Y355828D01*
X48046Y356063D01*
X49142Y356221D01*
X50246Y356300D01*
X51354Y356300D01*
X52458Y356221D01*
X53554Y356063D01*
X54636Y355828D01*
X55698Y355516D01*
X56735Y355129D01*
X57742Y354669D01*
X58714Y354139D01*
X59646Y353540D01*
X60532Y352877D01*
X61369Y352152D01*
X62152Y351369D01*
X62877Y350532D01*
X63540Y349646D01*
X64139Y348714D01*
X64669Y347742D01*
X65129Y346735D01*
X65516Y345698D01*
X65828Y344636D01*
X66063Y343554D01*
X66221Y342458D01*
X66300Y341354D01*
X66300Y340246D01*
X926300Y340246D02*
X926221Y339142D01*
X926063Y338046D01*
X925828Y336964D01*
X925516Y335902D01*
X925129Y334865D01*
X924669Y333858D01*
X924139Y332886D01*
X923540Y331954D01*
X922877Y331068D01*
X922152Y330231D01*
X921369Y329448D01*
X920532Y328723D01*
X919646Y328060D01*
X918714Y327461D01*
X917742Y326931D01*
X916735Y326471D01*
X915698Y326084D01*
X914636Y325772D01*
X913554Y325537D01*
X912458Y325379D01*
X911354Y325300D01*
X910246Y325300D01*
X909142Y325379D01*
X908046Y325537D01*
X906964Y325772D01*
X905902Y326084D01*
X904865Y326471D01*
X903858Y326931D01*
X902886Y327461D01*
X901954Y328060D01*
X901068Y328723D01*
X900231Y329448D01*
X899448Y330231D01*
X898723Y331068D01*
X898060Y331954D01*
X897461Y332886D01*
X896931Y333858D01*
X896471Y334865D01*
X896084Y335902D01*
X895772Y336964D01*
X895537Y338046D01*
X895379Y339142D01*
X895300Y340246D01*
X895300Y341354D01*
X895379Y342458D01*
X895537Y343554D01*
X895772Y344636D01*
X896084Y345698D01*
X896471Y346735D01*
X896931Y347742D01*
X897461Y348714D01*
X898060Y349646D01*
X898723Y350532D01*
X899448Y351369D01*
X900231Y352152D01*
X901068Y352877D01*
X901954Y353540D01*
X902886Y354139D01*
X903858Y354669D01*
X904865Y355129D01*
X905902Y355516D01*
X906964Y355828D01*
X908046Y356063D01*
X909142Y356221D01*
X910246Y356300D01*
X911354Y356300D01*
X912458Y356221D01*
X913554Y356063D01*
X914636Y355828D01*
X915698Y355516D01*
X916735Y355129D01*
X917742Y354669D01*
X918714Y354139D01*
X919646Y353540D01*
X920532Y352877D01*
X921369Y352152D01*
X922152Y351369D01*
X922877Y350532D01*
X923540Y349646D01*
X924139Y348714D01*
X924669Y347742D01*
X925129Y346735D01*
X925516Y345698D01*
X925828Y344636D01*
X926063Y343554D01*
X926221Y342458D01*
X926300Y341354D01*
X926300Y340246D01*
X46300Y30246D02*
X46221Y29142D01*
X46063Y28046D01*
X45828Y26964D01*
X45516Y25902D01*
X45129Y24865D01*
X44669Y23858D01*
X44139Y22886D01*
X43540Y21954D01*
X42877Y21068D01*
X42152Y20231D01*
X41369Y19448D01*
X40532Y18723D01*
X39646Y18060D01*
X38714Y17461D01*
X37742Y16931D01*
X36735Y16471D01*
X35698Y16084D01*
X34636Y15772D01*
X33554Y15537D01*
X32458Y15379D01*
X31354Y15300D01*
X30246Y15300D01*
X29142Y15379D01*
X28046Y15537D01*
X26964Y15772D01*
X25902Y16084D01*
X24865Y16471D01*
X23858Y16931D01*
X22886Y17461D01*
X21954Y18060D01*
X21068Y18723D01*
X20231Y19448D01*
X19448Y20231D01*
X18723Y21068D01*
X18060Y21954D01*
X17461Y22886D01*
X16931Y23858D01*
X16471Y24865D01*
X16084Y25902D01*
X15772Y26964D01*
X15537Y28046D01*
X15379Y29142D01*
X15300Y30246D01*
X15300Y31354D01*
X15379Y32458D01*
X15537Y33554D01*
X15772Y34636D01*
X16084Y35698D01*
X16471Y36735D01*
X16931Y37742D01*
X17461Y38714D01*
X18060Y39646D01*
X18723Y40532D01*
X19448Y41369D01*
X20231Y42152D01*
X21068Y42877D01*
X21954Y43540D01*
X22886Y44139D01*
X23858Y44669D01*
X24865Y45129D01*
X25902Y45516D01*
X26964Y45828D01*
X28046Y46063D01*
X29142Y46221D01*
X30246Y46300D01*
X31354Y46300D01*
X32458Y46221D01*
X33554Y46063D01*
X34636Y45828D01*
X35698Y45516D01*
X36735Y45129D01*
X37742Y44669D01*
X38714Y44139D01*
X39646Y43540D01*
X40532Y42877D01*
X41369Y42152D01*
X42152Y41369D01*
X42877Y40532D01*
X43540Y39646D01*
X44139Y38714D01*
X44669Y37742D01*
X45129Y36735D01*
X45516Y35698D01*
X45828Y34636D01*
X46063Y33554D01*
X46221Y32458D01*
X46300Y31354D01*
X46300Y30246D01*
X946300Y-79754D02*
X946221Y-80858D01*
X946063Y-81954D01*
X945828Y-83036D01*
X945516Y-84098D01*
X945129Y-85135D01*
X944669Y-86142D01*
X944139Y-87114D01*
X943540Y-88046D01*
X942877Y-88932D01*
X942152Y-89769D01*
X941369Y-90552D01*
X940532Y-91277D01*
X939646Y-91940D01*
X938714Y-92539D01*
X937742Y-93069D01*
X936735Y-93529D01*
X935698Y-93916D01*
X934636Y-94228D01*
X933554Y-94463D01*
X932458Y-94621D01*
X931354Y-94700D01*
X930246Y-94700D01*
X929142Y-94621D01*
X928046Y-94463D01*
X926964Y-94228D01*
X925902Y-93916D01*
X924865Y-93529D01*
X923858Y-93069D01*
X922886Y-92539D01*
X921954Y-91940D01*
X921068Y-91277D01*
X920231Y-90552D01*
X919448Y-89769D01*
X918723Y-88932D01*
X918060Y-88046D01*
X917461Y-87114D01*
X916931Y-86142D01*
X916471Y-85135D01*
X916084Y-84098D01*
X915772Y-83036D01*
X915537Y-81954D01*
X915379Y-80858D01*
X915300Y-79754D01*
X915300Y-78646D01*
X915379Y-77542D01*
X915537Y-76446D01*
X915772Y-75364D01*
X916084Y-74302D01*
X916471Y-73265D01*
X916931Y-72258D01*
X917461Y-71286D01*
X918060Y-70354D01*
X918723Y-69468D01*
X919448Y-68631D01*
X920231Y-67848D01*
X921068Y-67123D01*
X921954Y-66460D01*
X922886Y-65861D01*
X923858Y-65331D01*
X924865Y-64871D01*
X925902Y-64484D01*
X926964Y-64172D01*
X928046Y-63937D01*
X929142Y-63779D01*
X930246Y-63700D01*
X931354Y-63700D01*
X932458Y-63779D01*
X933554Y-63937D01*
X934636Y-64172D01*
X935698Y-64484D01*
X936735Y-64871D01*
X937742Y-65331D01*
X938714Y-65861D01*
X939646Y-66460D01*
X940532Y-67123D01*
X941369Y-67848D01*
X942152Y-68631D01*
X942877Y-69468D01*
X943540Y-70354D01*
X944139Y-71286D01*
X944669Y-72258D01*
X945129Y-73265D01*
X945516Y-74302D01*
X945828Y-75364D01*
X946063Y-76446D01*
X946221Y-77542D01*
X946300Y-78646D01*
X946300Y-79754D01*
M02*
