  0
SECTION
  2
HEADER
  9
$ACADVER
  1
AC1009
  9
$FILLMODE
 70
1
  9
$EXTMIN
 10
1.4792
 20
-10.1600
 30
0.0000
  9
$EXTMAX
 10
100.8338
 20
41.5538
 30
0.0000
  0
ENDSEC
  0
SECTION
  2
TABLES
  0
TABLE
  2
LTYPE
 70
1
  0
LTYPE
  2
CONTINUOUS
 70
64
  3
Solid line
 72
65
 73
0
 40
0
  0
ENDTAB
  0
TABLE
  2
LAYER
 70
255
  0
LAYER
  2
20
 70
64
 62
53
  6
CONTINUOUS
  0
LAYER
  2
21
 70
64
 62
253
  6
CONTINUOUS
  0
ENDTAB
  0
ENDSEC
  0
SECTION
  2
BLOCKS
  0
BLOCK
  8
0
  2
RECT
 70
64
 10
0.0000
 20
0.0000
 30
0.0000
  3
RECT
  0
SOLID
  8
0
 10
-0.5000
 20
-0.5000
 30
0.0000
 11
0.5000
 21
-0.5000
 31
0.0000
 12
-0.5000
 22
0.5000
 32
0.0000
 13
0.5000
 23
0.5000
 33
0.0000
  0
ENDBLK
  8
0
  0
BLOCK
  8
0
  2
PIE
 70
64
 10
0.0000
 20
0.0000
 30
0.0000
  3
PIE
  0
POLYLINE
  8
0
 66
1
 10
0.0000
 20
0.0000
 30
0.0000
 40
0.5000
 41
0.5000
 70
0
  0
VERTEX
  8
0
 10
0.0000
 20
-0.2500
 30
0.0000
 42
1.0000
  0
VERTEX
  8
0
 10
0.0000
 20
0.2500
 30
0.0000
 42
1.0000
  0
VERTEX
  8
0
 10
0.0000
 20
-0.2500
 30
0.0000
  0
SEQEND
  8
0
  0
ENDBLK
  8
0
  0
BLOCK
  8
0
  2
OCTAGONP
 70
64
 10
0.0000
 20
0.0000
 30
0.0000
  3
OCTAGONP
  0
POLYLINE
  8
0
 66
1
 10
0.0000
 20
0.0000
 30
0.0000
 40
0.5000
 41
0.5000
 70
0
  0
VERTEX
  8
0
 10
-0.2500
 20
-0.1036
 30
0.0000
  0
VERTEX
  8
0
 10
-0.2500
 20
0.1036
 30
0.0000
  0
VERTEX
  8
0
 10
-0.1036
 20
0.2500
 30
0.0000
  0
VERTEX
  8
0
 10
0.1036
 20
0.2500
 30
0.0000
  0
VERTEX
  8
0
 10
0.2500
 20
0.1036
 30
0.0000
  0
VERTEX
  8
0
 10
0.2500
 20
-0.1036
 30
0.0000
  0
VERTEX
  8
0
 10
0.1036
 20
-0.2500
 30
0.0000
  0
VERTEX
  8
0
 10
-0.1036
 20
-0.2500
 30
0.0000
  0
VERTEX
  8
0
 10
-0.2500
 20
-0.1036
 30
0.0000
  0
VERTEX
  8
0
 10
-0.2500
 20
0.1036
 30
0.0000
  0
SEQEND
  8
0
  0
ENDBLK
  8
0
  0
BLOCK
  8
0
  2
SQUAREP
 70
64
 10
0.0000
 20
0.0000
 30
0.0000
  3
SQUAREP
  0
SOLID
  8
0
 10
-0.5000
 20
-0.5000
 30
0.0000
 11
0.5000
 21
-0.5000
 31
0.0000
 12
-0.5000
 22
0.5000
 32
0.0000
 13
0.5000
 23
0.5000
 33
0.0000
  0
ENDBLK
  8
0
  0
BLOCK
  8
0
  2
ROUNDP
 70
64
 10
0.0000
 20
0.0000
 30
0.0000
  3
ROUNDP
  0
POLYLINE
  8
0
 66
1
 10
0.0000
 20
0.0000
 30
0.0000
 40
0.5000
 41
0.5000
 70
0
  0
VERTEX
  8
0
 10
0.0000
 20
-0.2500
 30
0.0000
 42
1.0000
  0
VERTEX
  8
0
 10
0.0000
 20
0.2500
 30
0.0000
 42
1.0000
  0
VERTEX
  8
0
 10
0.0000
 20
-0.2500
 30
0.0000
  0
SEQEND
  8
0
  0
ENDBLK
  8
0
  0
BLOCK
  8
0
  2
ANNULUSP
 70
64
 10
0.0000
 20
0.0000
 30
0.0000
  3
ANNULUSP
  0
POLYLINE
  8
0
 66
1
 10
0.0000
 20
0.0000
 30
0.0000
 40
0.5000
 41
0.5000
 70
0
  0
VERTEX
  8
0
 10
0.0000
 20
-0.2500
 30
0.0000
 42
1.0000
  0
VERTEX
  8
0
 10
0.0000
 20
0.2500
 30
0.0000
 42
1.0000
  0
VERTEX
  8
0
 10
0.0000
 20
-0.2500
 30
0.0000
  0
SEQEND
  8
0
  0
ENDBLK
  8
0
  0
BLOCK
  8
0
  2
THERMALP
 70
64
 10
0.0000
 20
0.0000
 30
0.0000
  3
THERMALP
  0
POLYLINE
  8
0
 66
1
 10
0.0000
 20
0.0000
 30
0.0000
 40
0.1000
 41
0.1000
 70
0
  0
VERTEX
  8
0
 10
-0.2379
 20
0.4500
 30
0.0000
  0
VERTEX
  8
0
 10
0.2379
 20
0.4500
 30
0.0000
  0
SEQEND
  8
0
  0
POLYLINE
  8
0
 66
1
 10
0.0000
 20
0.0000
 30
0.0000
 40
0.0500
 41
0.0500
 70
0
  0
VERTEX
  8
0
 10
0.2379
 20
0.4250
 30
0.0000
 42
1.0000
  0
VERTEX
  8
0
 10
0.2379
 20
0.4750
 30
0.0000
  0
SEQEND
  8
0
  0
POLYLINE
  8
0
 66
1
 10
0.0000
 20
0.0000
 30
0.0000
 40
0.0500
 41
0.0500
 70
0
  0
VERTEX
  8
0
 10
-0.2379
 20
0.4750
 30
0.0000
 42
1.0000
  0
VERTEX
  8
0
 10
-0.2379
 20
0.4250
 30
0.0000
  0
SEQEND
  8
0
  0
POLYLINE
  8
0
 66
1
 10
0.0000
 20
0.0000
 30
0.0000
 40
0.1000
 41
0.1000
 70
0
  0
VERTEX
  8
0
 10
0.4500
 20
0.2379
 30
0.0000
  0
VERTEX
  8
0
 10
0.4500
 20
-0.2379
 30
0.0000
  0
SEQEND
  8
0
  0
POLYLINE
  8
0
 66
1
 10
0.0000
 20
0.0000
 30
0.0000
 40
0.0500
 41
0.0500
 70
0
  0
VERTEX
  8
0
 10
0.4250
 20
-0.2379
 30
0.0000
 42
1.0000
  0
VERTEX
  8
0
 10
0.4750
 20
-0.2379
 30
0.0000
  0
SEQEND
  8
0
  0
POLYLINE
  8
0
 66
1
 10
0.0000
 20
0.0000
 30
0.0000
 40
0.0500
 41
0.0500
 70
0
  0
VERTEX
  8
0
 10
0.4750
 20
0.2379
 30
0.0000
 42
1.0000
  0
VERTEX
  8
0
 10
0.4250
 20
0.2379
 30
0.0000
  0
SEQEND
  8
0
  0
POLYLINE
  8
0
 66
1
 10
0.0000
 20
0.0000
 30
0.0000
 40
0.1000
 41
0.1000
 70
0
  0
VERTEX
  8
0
 10
0.2379
 20
-0.4500
 30
0.0000
  0
VERTEX
  8
0
 10
-0.2379
 20
-0.4500
 30
0.0000
  0
SEQEND
  8
0
  0
POLYLINE
  8
0
 66
1
 10
0.0000
 20
0.0000
 30
0.0000
 40
0.0500
 41
0.0500
 70
0
  0
VERTEX
  8
0
 10
-0.2379
 20
-0.4250
 30
0.0000
 42
1.0000
  0
VERTEX
  8
0
 10
-0.2379
 20
-0.4750
 30
0.0000
  0
SEQEND
  8
0
  0
POLYLINE
  8
0
 66
1
 10
0.0000
 20
0.0000
 30
0.0000
 40
0.0500
 41
0.0500
 70
0
  0
VERTEX
  8
0
 10
0.2379
 20
-0.4750
 30
0.0000
 42
1.0000
  0
VERTEX
  8
0
 10
0.2379
 20
-0.4250
 30
0.0000
  0
SEQEND
  8
0
  0
POLYLINE
  8
0
 66
1
 10
0.0000
 20
0.0000
 30
0.0000
 40
0.1000
 41
0.1000
 70
0
  0
VERTEX
  8
0
 10
-0.4500
 20
-0.2379
 30
0.0000
  0
VERTEX
  8
0
 10
-0.4500
 20
0.2379
 30
0.0000
  0
SEQEND
  8
0
  0
POLYLINE
  8
0
 66
1
 10
0.0000
 20
0.0000
 30
0.0000
 40
0.0500
 41
0.0500
 70
0
  0
VERTEX
  8
0
 10
-0.4250
 20
0.2379
 30
0.0000
 42
1.0000
  0
VERTEX
  8
0
 10
-0.4750
 20
0.2379
 30
0.0000
  0
SEQEND
  8
0
  0
POLYLINE
  8
0
 66
1
 10
0.0000
 20
0.0000
 30
0.0000
 40
0.0500
 41
0.0500
 70
0
  0
VERTEX
  8
0
 10
-0.4750
 20
-0.2379
 30
0.0000
 42
1.0000
  0
VERTEX
  8
0
 10
-0.4250
 20
-0.2379
 30
0.0000
  0
SEQEND
  8
0
  0
ENDBLK
  8
0
  0
BLOCK
  8
0
  2
OCTAGONV
 70
64
 10
0.0000
 20
0.0000
 30
0.0000
  3
OCTAGONV
  0
POLYLINE
  8
0
 66
1
 10
0.0000
 20
0.0000
 30
0.0000
 40
0.5000
 41
0.5000
 70
0
  0
VERTEX
  8
0
 10
-0.2500
 20
-0.1036
 30
0.0000
  0
VERTEX
  8
0
 10
-0.2500
 20
0.1036
 30
0.0000
  0
VERTEX
  8
0
 10
-0.1036
 20
0.2500
 30
0.0000
  0
VERTEX
  8
0
 10
0.1036
 20
0.2500
 30
0.0000
  0
VERTEX
  8
0
 10
0.2500
 20
0.1036
 30
0.0000
  0
VERTEX
  8
0
 10
0.2500
 20
-0.1036
 30
0.0000
  0
VERTEX
  8
0
 10
0.1036
 20
-0.2500
 30
0.0000
  0
VERTEX
  8
0
 10
-0.1036
 20
-0.2500
 30
0.0000
  0
VERTEX
  8
0
 10
-0.2500
 20
-0.1036
 30
0.0000
  0
VERTEX
  8
0
 10
-0.2500
 20
0.1036
 30
0.0000
  0
SEQEND
  8
0
  0
ENDBLK
  8
0
  0
BLOCK
  8
0
  2
SQUAREV
 70
64
 10
0.0000
 20
0.0000
 30
0.0000
  3
SQUAREV
  0
SOLID
  8
0
 10
-0.5000
 20
-0.5000
 30
0.0000
 11
0.5000
 21
-0.5000
 31
0.0000
 12
-0.5000
 22
0.5000
 32
0.0000
 13
0.5000
 23
0.5000
 33
0.0000
  0
ENDBLK
  8
0
  0
BLOCK
  8
0
  2
ROUNDV
 70
64
 10
0.0000
 20
0.0000
 30
0.0000
  3
ROUNDV
  0
POLYLINE
  8
0
 66
1
 10
0.0000
 20
0.0000
 30
0.0000
 40
0.5000
 41
0.5000
 70
0
  0
VERTEX
  8
0
 10
0.0000
 20
-0.2500
 30
0.0000
 42
1.0000
  0
VERTEX
  8
0
 10
0.0000
 20
0.2500
 30
0.0000
 42
1.0000
  0
VERTEX
  8
0
 10
0.0000
 20
-0.2500
 30
0.0000
  0
SEQEND
  8
0
  0
ENDBLK
  8
0
  0
BLOCK
  8
0
  2
ANNULUSV
 70
64
 10
0.0000
 20
0.0000
 30
0.0000
  3
ANNULUSV
  0
POLYLINE
  8
0
 66
1
 10
0.0000
 20
0.0000
 30
0.0000
 40
0.5000
 41
0.5000
 70
0
  0
VERTEX
  8
0
 10
0.0000
 20
-0.2500
 30
0.0000
 42
1.0000
  0
VERTEX
  8
0
 10
0.0000
 20
0.2500
 30
0.0000
 42
1.0000
  0
VERTEX
  8
0
 10
0.0000
 20
-0.2500
 30
0.0000
  0
SEQEND
  8
0
  0
ENDBLK
  8
0
  0
BLOCK
  8
0
  2
THERMALV
 70
64
 10
0.0000
 20
0.0000
 30
0.0000
  3
THERMALV
  0
POLYLINE
  8
0
 66
1
 10
0.0000
 20
0.0000
 30
0.0000
 40
0.1000
 41
0.1000
 70
0
  0
VERTEX
  8
0
 10
-0.2379
 20
0.4500
 30
0.0000
  0
VERTEX
  8
0
 10
0.2379
 20
0.4500
 30
0.0000
  0
SEQEND
  8
0
  0
POLYLINE
  8
0
 66
1
 10
0.0000
 20
0.0000
 30
0.0000
 40
0.0500
 41
0.0500
 70
0
  0
VERTEX
  8
0
 10
0.2379
 20
0.4250
 30
0.0000
 42
1.0000
  0
VERTEX
  8
0
 10
0.2379
 20
0.4750
 30
0.0000
  0
SEQEND
  8
0
  0
POLYLINE
  8
0
 66
1
 10
0.0000
 20
0.0000
 30
0.0000
 40
0.0500
 41
0.0500
 70
0
  0
VERTEX
  8
0
 10
-0.2379
 20
0.4750
 30
0.0000
 42
1.0000
  0
VERTEX
  8
0
 10
-0.2379
 20
0.4250
 30
0.0000
  0
SEQEND
  8
0
  0
POLYLINE
  8
0
 66
1
 10
0.0000
 20
0.0000
 30
0.0000
 40
0.1000
 41
0.1000
 70
0
  0
VERTEX
  8
0
 10
0.4500
 20
0.2379
 30
0.0000
  0
VERTEX
  8
0
 10
0.4500
 20
-0.2379
 30
0.0000
  0
SEQEND
  8
0
  0
POLYLINE
  8
0
 66
1
 10
0.0000
 20
0.0000
 30
0.0000
 40
0.0500
 41
0.0500
 70
0
  0
VERTEX
  8
0
 10
0.4250
 20
-0.2379
 30
0.0000
 42
1.0000
  0
VERTEX
  8
0
 10
0.4750
 20
-0.2379
 30
0.0000
  0
SEQEND
  8
0
  0
POLYLINE
  8
0
 66
1
 10
0.0000
 20
0.0000
 30
0.0000
 40
0.0500
 41
0.0500
 70
0
  0
VERTEX
  8
0
 10
0.4750
 20
0.2379
 30
0.0000
 42
1.0000
  0
VERTEX
  8
0
 10
0.4250
 20
0.2379
 30
0.0000
  0
SEQEND
  8
0
  0
POLYLINE
  8
0
 66
1
 10
0.0000
 20
0.0000
 30
0.0000
 40
0.1000
 41
0.1000
 70
0
  0
VERTEX
  8
0
 10
0.2379
 20
-0.4500
 30
0.0000
  0
VERTEX
  8
0
 10
-0.2379
 20
-0.4500
 30
0.0000
  0
SEQEND
  8
0
  0
POLYLINE
  8
0
 66
1
 10
0.0000
 20
0.0000
 30
0.0000
 40
0.0500
 41
0.0500
 70
0
  0
VERTEX
  8
0
 10
-0.2379
 20
-0.4250
 30
0.0000
 42
1.0000
  0
VERTEX
  8
0
 10
-0.2379
 20
-0.4750
 30
0.0000
  0
SEQEND
  8
0
  0
POLYLINE
  8
0
 66
1
 10
0.0000
 20
0.0000
 30
0.0000
 40
0.0500
 41
0.0500
 70
0
  0
VERTEX
  8
0
 10
0.2379
 20
-0.4750
 30
0.0000
 42
1.0000
  0
VERTEX
  8
0
 10
0.2379
 20
-0.4250
 30
0.0000
  0
SEQEND
  8
0
  0
POLYLINE
  8
0
 66
1
 10
0.0000
 20
0.0000
 30
0.0000
 40
0.1000
 41
0.1000
 70
0
  0
VERTEX
  8
0
 10
-0.4500
 20
-0.2379
 30
0.0000
  0
VERTEX
  8
0
 10
-0.4500
 20
0.2379
 30
0.0000
  0
SEQEND
  8
0
  0
POLYLINE
  8
0
 66
1
 10
0.0000
 20
0.0000
 30
0.0000
 40
0.0500
 41
0.0500
 70
0
  0
VERTEX
  8
0
 10
-0.4250
 20
0.2379
 30
0.0000
 42
1.0000
  0
VERTEX
  8
0
 10
-0.4750
 20
0.2379
 30
0.0000
  0
SEQEND
  8
0
  0
POLYLINE
  8
0
 66
1
 10
0.0000
 20
0.0000
 30
0.0000
 40
0.0500
 41
0.0500
 70
0
  0
VERTEX
  8
0
 10
-0.4750
 20
-0.2379
 30
0.0000
 42
1.0000
  0
VERTEX
  8
0
 10
-0.4250
 20
-0.2379
 30
0.0000
  0
SEQEND
  8
0
  0
ENDBLK
  8
0
  0
ENDSEC
  0
SECTION
  2
ENTITIES
  0
POLYLINE
  8
20
 66
1
 10
0.0000
 20
0.0000
 30
0.0000
 40
0.1524
 41
0.1524
 70
0
  0
VERTEX
  8
20
 10
63.0000
 20
29.0000
 30
0.0000
  0
VERTEX
  8
20
 10
61.5000
 20
30.5000
 30
0.0000
  0
SEQEND
  8
0
  0
POLYLINE
  8
20
 66
1
 10
0.0000
 20
0.0000
 30
0.0000
 40
0.0762
 41
0.0762
 70
0
  0
VERTEX
  8
20
 10
61.5269
 20
30.5269
 30
0.0000
 42
1.0000
  0
VERTEX
  8
20
 10
61.4731
 20
30.4731
 30
0.0000
  0
SEQEND
  8
0
  0
POLYLINE
  8
20
 66
1
 10
0.0000
 20
0.0000
 30
0.0000
 40
0.0762
 41
0.0762
 70
0
  0
VERTEX
  8
20
 10
62.9731
 20
28.9731
 30
0.0000
 42
1.0000
  0
VERTEX
  8
20
 10
63.0269
 20
29.0269
 30
0.0000
  0
SEQEND
  8
0
  0
POLYLINE
  8
20
 66
1
 10
0.0000
 20
0.0000
 30
0.0000
 40
0.1524
 41
0.1524
 70
0
  0
VERTEX
  8
20
 10
61.5000
 20
30.5000
 30
0.0000
  0
VERTEX
  8
20
 10
61.5000
 20
39.5000
 30
0.0000
  0
SEQEND
  8
0
  0
POLYLINE
  8
20
 66
1
 10
0.0000
 20
0.0000
 30
0.0000
 40
0.0762
 41
0.0762
 70
0
  0
VERTEX
  8
20
 10
61.5381
 20
39.5000
 30
0.0000
 42
1.0000
  0
VERTEX
  8
20
 10
61.4619
 20
39.5000
 30
0.0000
  0
SEQEND
  8
0
  0
POLYLINE
  8
20
 66
1
 10
0.0000
 20
0.0000
 30
0.0000
 40
0.0762
 41
0.0762
 70
0
  0
VERTEX
  8
20
 10
61.4619
 20
30.5000
 30
0.0000
 42
1.0000
  0
VERTEX
  8
20
 10
61.5381
 20
30.5000
 30
0.0000
  0
SEQEND
  8
0
  0
POLYLINE
  8
20
 66
1
 10
0.0000
 20
0.0000
 30
0.0000
 40
0.1524
 41
0.1524
 70
0
  0
VERTEX
  8
20
 10
61.5000
 20
39.5000
 30
0.0000
  0
VERTEX
  8
20
 10
63.0000
 20
41.0000
 30
0.0000
  0
SEQEND
  8
0
  0
POLYLINE
  8
20
 66
1
 10
0.0000
 20
0.0000
 30
0.0000
 40
0.0762
 41
0.0762
 70
0
  0
VERTEX
  8
20
 10
63.0269
 20
40.9731
 30
0.0000
 42
1.0000
  0
VERTEX
  8
20
 10
62.9731
 20
41.0269
 30
0.0000
  0
SEQEND
  8
0
  0
POLYLINE
  8
20
 66
1
 10
0.0000
 20
0.0000
 30
0.0000
 40
0.0762
 41
0.0762
 70
0
  0
VERTEX
  8
20
 10
61.4731
 20
39.5269
 30
0.0000
 42
1.0000
  0
VERTEX
  8
20
 10
61.5269
 20
39.4731
 30
0.0000
  0
SEQEND
  8
0
  0
POLYLINE
  8
20
 66
1
 10
0.0000
 20
0.0000
 30
0.0000
 40
0.1524
 41
0.1524
 70
0
  0
VERTEX
  8
20
 10
63.0000
 20
41.0000
 30
0.0000
  0
VERTEX
  8
20
 10
79.0000
 20
41.0000
 30
0.0000
  0
SEQEND
  8
0
  0
POLYLINE
  8
20
 66
1
 10
0.0000
 20
0.0000
 30
0.0000
 40
0.0762
 41
0.0762
 70
0
  0
VERTEX
  8
20
 10
79.0000
 20
40.9619
 30
0.0000
 42
1.0000
  0
VERTEX
  8
20
 10
79.0000
 20
41.0381
 30
0.0000
  0
SEQEND
  8
0
  0
POLYLINE
  8
20
 66
1
 10
0.0000
 20
0.0000
 30
0.0000
 40
0.0762
 41
0.0762
 70
0
  0
VERTEX
  8
20
 10
63.0000
 20
41.0381
 30
0.0000
 42
1.0000
  0
VERTEX
  8
20
 10
63.0000
 20
40.9619
 30
0.0000
  0
SEQEND
  8
0
  0
POLYLINE
  8
20
 66
1
 10
0.0000
 20
0.0000
 30
0.0000
 40
0.1524
 41
0.1524
 70
0
  0
VERTEX
  8
20
 10
79.0000
 20
41.0000
 30
0.0000
  0
VERTEX
  8
20
 10
89.0000
 20
31.0000
 30
0.0000
  0
SEQEND
  8
0
  0
POLYLINE
  8
20
 66
1
 10
0.0000
 20
0.0000
 30
0.0000
 40
0.0762
 41
0.0762
 70
0
  0
VERTEX
  8
20
 10
88.9731
 20
30.9731
 30
0.0000
 42
1.0000
  0
VERTEX
  8
20
 10
89.0269
 20
31.0269
 30
0.0000
  0
SEQEND
  8
0
  0
POLYLINE
  8
20
 66
1
 10
0.0000
 20
0.0000
 30
0.0000
 40
0.0762
 41
0.0762
 70
0
  0
VERTEX
  8
20
 10
79.0269
 20
41.0269
 30
0.0000
 42
1.0000
  0
VERTEX
  8
20
 10
78.9731
 20
40.9731
 30
0.0000
  0
SEQEND
  8
0
  0
POLYLINE
  8
20
 66
1
 10
0.0000
 20
0.0000
 30
0.0000
 40
0.1524
 41
0.1524
 70
0
  0
VERTEX
  8
20
 10
89.0000
 20
31.0000
 30
0.0000
  0
VERTEX
  8
20
 10
96.0000
 20
31.0000
 30
0.0000
  0
SEQEND
  8
0
  0
POLYLINE
  8
20
 66
1
 10
0.0000
 20
0.0000
 30
0.0000
 40
0.0762
 41
0.0762
 70
0
  0
VERTEX
  8
20
 10
96.0000
 20
30.9619
 30
0.0000
 42
1.0000
  0
VERTEX
  8
20
 10
96.0000
 20
31.0381
 30
0.0000
  0
SEQEND
  8
0
  0
POLYLINE
  8
20
 66
1
 10
0.0000
 20
0.0000
 30
0.0000
 40
0.0762
 41
0.0762
 70
0
  0
VERTEX
  8
20
 10
89.0000
 20
31.0381
 30
0.0000
 42
1.0000
  0
VERTEX
  8
20
 10
89.0000
 20
30.9619
 30
0.0000
  0
SEQEND
  8
0
  0
POLYLINE
  8
20
 66
1
 10
0.0000
 20
0.0000
 30
0.0000
 40
0.1524
 41
0.1524
 70
0
  0
VERTEX
  8
20
 10
96.0000
 20
31.0000
 30
0.0000
  0
VERTEX
  8
20
 10
97.5000
 20
29.5000
 30
0.0000
  0
SEQEND
  8
0
  0
POLYLINE
  8
20
 66
1
 10
0.0000
 20
0.0000
 30
0.0000
 40
0.0762
 41
0.0762
 70
0
  0
VERTEX
  8
20
 10
97.4731
 20
29.4731
 30
0.0000
 42
1.0000
  0
VERTEX
  8
20
 10
97.5269
 20
29.5269
 30
0.0000
  0
SEQEND
  8
0
  0
POLYLINE
  8
20
 66
1
 10
0.0000
 20
0.0000
 30
0.0000
 40
0.0762
 41
0.0762
 70
0
  0
VERTEX
  8
20
 10
96.0269
 20
31.0269
 30
0.0000
 42
1.0000
  0
VERTEX
  8
20
 10
95.9731
 20
30.9731
 30
0.0000
  0
SEQEND
  8
0
  0
POLYLINE
  8
20
 66
1
 10
0.0000
 20
0.0000
 30
0.0000
 40
0.1524
 41
0.1524
 70
0
  0
VERTEX
  8
20
 10
97.5000
 20
29.5000
 30
0.0000
  0
VERTEX
  8
20
 10
97.5000
 20
12.5000
 30
0.0000
  0
SEQEND
  8
0
  0
POLYLINE
  8
20
 66
1
 10
0.0000
 20
0.0000
 30
0.0000
 40
0.0762
 41
0.0762
 70
0
  0
VERTEX
  8
20
 10
97.4619
 20
12.5000
 30
0.0000
 42
1.0000
  0
VERTEX
  8
20
 10
97.5381
 20
12.5000
 30
0.0000
  0
SEQEND
  8
0
  0
POLYLINE
  8
20
 66
1
 10
0.0000
 20
0.0000
 30
0.0000
 40
0.0762
 41
0.0762
 70
0
  0
VERTEX
  8
20
 10
97.5381
 20
29.5000
 30
0.0000
 42
1.0000
  0
VERTEX
  8
20
 10
97.4619
 20
29.5000
 30
0.0000
  0
SEQEND
  8
0
  0
POLYLINE
  8
20
 66
1
 10
0.0000
 20
0.0000
 30
0.0000
 40
0.1524
 41
0.1524
 70
0
  0
VERTEX
  8
20
 10
97.5000
 20
12.5000
 30
0.0000
  0
VERTEX
  8
20
 10
96.5000
 20
11.5000
 30
0.0000
  0
SEQEND
  8
0
  0
POLYLINE
  8
20
 66
1
 10
0.0000
 20
0.0000
 30
0.0000
 40
0.0762
 41
0.0762
 70
0
  0
VERTEX
  8
20
 10
96.4731
 20
11.5269
 30
0.0000
 42
1.0000
  0
VERTEX
  8
20
 10
96.5269
 20
11.4731
 30
0.0000
  0
SEQEND
  8
0
  0
POLYLINE
  8
20
 66
1
 10
0.0000
 20
0.0000
 30
0.0000
 40
0.0762
 41
0.0762
 70
0
  0
VERTEX
  8
20
 10
97.5269
 20
12.4731
 30
0.0000
 42
1.0000
  0
VERTEX
  8
20
 10
97.4731
 20
12.5269
 30
0.0000
  0
SEQEND
  8
0
  0
POLYLINE
  8
20
 66
1
 10
0.0000
 20
0.0000
 30
0.0000
 40
0.1524
 41
0.1524
 70
0
  0
VERTEX
  8
20
 10
96.5000
 20
11.5000
 30
0.0000
  0
VERTEX
  8
20
 10
79.5000
 20
11.5000
 30
0.0000
  0
SEQEND
  8
0
  0
POLYLINE
  8
20
 66
1
 10
0.0000
 20
0.0000
 30
0.0000
 40
0.0762
 41
0.0762
 70
0
  0
VERTEX
  8
20
 10
79.5000
 20
11.5381
 30
0.0000
 42
1.0000
  0
VERTEX
  8
20
 10
79.5000
 20
11.4619
 30
0.0000
  0
SEQEND
  8
0
  0
POLYLINE
  8
20
 66
1
 10
0.0000
 20
0.0000
 30
0.0000
 40
0.0762
 41
0.0762
 70
0
  0
VERTEX
  8
20
 10
96.5000
 20
11.4619
 30
0.0000
 42
1.0000
  0
VERTEX
  8
20
 10
96.5000
 20
11.5381
 30
0.0000
  0
SEQEND
  8
0
  0
POLYLINE
  8
20
 66
1
 10
0.0000
 20
0.0000
 30
0.0000
 40
0.1524
 41
0.1524
 70
0
  0
VERTEX
  8
20
 10
79.5000
 20
11.5000
 30
0.0000
  0
VERTEX
  8
20
 10
78.0000
 20
13.0000
 30
0.0000
  0
SEQEND
  8
0
  0
POLYLINE
  8
20
 66
1
 10
0.0000
 20
0.0000
 30
0.0000
 40
0.0762
 41
0.0762
 70
0
  0
VERTEX
  8
20
 10
78.0269
 20
13.0269
 30
0.0000
 42
1.0000
  0
VERTEX
  8
20
 10
77.9731
 20
12.9731
 30
0.0000
  0
SEQEND
  8
0
  0
POLYLINE
  8
20
 66
1
 10
0.0000
 20
0.0000
 30
0.0000
 40
0.0762
 41
0.0762
 70
0
  0
VERTEX
  8
20
 10
79.4731
 20
11.4731
 30
0.0000
 42
1.0000
  0
VERTEX
  8
20
 10
79.5269
 20
11.5269
 30
0.0000
  0
SEQEND
  8
0
  0
POLYLINE
  8
20
 66
1
 10
0.0000
 20
0.0000
 30
0.0000
 40
0.1524
 41
0.1524
 70
0
  0
VERTEX
  8
20
 10
78.0000
 20
13.0000
 30
0.0000
  0
VERTEX
  8
20
 10
78.0000
 20
28.5000
 30
0.0000
  0
SEQEND
  8
0
  0
POLYLINE
  8
20
 66
1
 10
0.0000
 20
0.0000
 30
0.0000
 40
0.0762
 41
0.0762
 70
0
  0
VERTEX
  8
20
 10
78.0381
 20
28.5000
 30
0.0000
 42
1.0000
  0
VERTEX
  8
20
 10
77.9619
 20
28.5000
 30
0.0000
  0
SEQEND
  8
0
  0
POLYLINE
  8
20
 66
1
 10
0.0000
 20
0.0000
 30
0.0000
 40
0.0762
 41
0.0762
 70
0
  0
VERTEX
  8
20
 10
77.9619
 20
13.0000
 30
0.0000
 42
1.0000
  0
VERTEX
  8
20
 10
78.0381
 20
13.0000
 30
0.0000
  0
SEQEND
  8
0
  0
POLYLINE
  8
20
 66
1
 10
0.0000
 20
0.0000
 30
0.0000
 40
0.1524
 41
0.1524
 70
0
  0
VERTEX
  8
20
 10
78.0000
 20
28.5000
 30
0.0000
  0
VERTEX
  8
20
 10
77.5000
 20
29.0000
 30
0.0000
  0
SEQEND
  8
0
  0
POLYLINE
  8
20
 66
1
 10
0.0000
 20
0.0000
 30
0.0000
 40
0.0762
 41
0.0762
 70
0
  0
VERTEX
  8
20
 10
77.5269
 20
29.0269
 30
0.0000
 42
1.0000
  0
VERTEX
  8
20
 10
77.4731
 20
28.9731
 30
0.0000
  0
SEQEND
  8
0
  0
POLYLINE
  8
20
 66
1
 10
0.0000
 20
0.0000
 30
0.0000
 40
0.0762
 41
0.0762
 70
0
  0
VERTEX
  8
20
 10
77.9731
 20
28.4731
 30
0.0000
 42
1.0000
  0
VERTEX
  8
20
 10
78.0269
 20
28.5269
 30
0.0000
  0
SEQEND
  8
0
  0
POLYLINE
  8
20
 66
1
 10
0.0000
 20
0.0000
 30
0.0000
 40
0.1524
 41
0.1524
 70
0
  0
VERTEX
  8
20
 10
77.5000
 20
29.0000
 30
0.0000
  0
VERTEX
  8
20
 10
63.0000
 20
29.0000
 30
0.0000
  0
SEQEND
  8
0
  0
POLYLINE
  8
20
 66
1
 10
0.0000
 20
0.0000
 30
0.0000
 40
0.0762
 41
0.0762
 70
0
  0
VERTEX
  8
20
 10
63.0000
 20
29.0381
 30
0.0000
 42
1.0000
  0
VERTEX
  8
20
 10
63.0000
 20
28.9619
 30
0.0000
  0
SEQEND
  8
0
  0
POLYLINE
  8
20
 66
1
 10
0.0000
 20
0.0000
 30
0.0000
 40
0.0762
 41
0.0762
 70
0
  0
VERTEX
  8
20
 10
77.5000
 20
28.9619
 30
0.0000
 42
1.0000
  0
VERTEX
  8
20
 10
77.5000
 20
29.0381
 30
0.0000
  0
SEQEND
  8
0
  0
INSERT
  8
21
  2
RECT
 10
66.9925
 20
35.8775
 30
0.0000
 41
0.8890
 42
0.8890
 43
1.0000
 50
0.0000
  0
CIRCLE
  8
20
 10
5.0800
 20
34.0800
 30
0.0000
 40
1.5500
  0
CIRCLE
  8
20
 10
91.0800
 20
34.0800
 30
0.0000
 40
1.5500
  0
CIRCLE
  8
20
 10
3.0800
 20
3.0800
 30
0.0000
 40
1.5500
  0
CIRCLE
  8
20
 10
93.0800
 20
-7.9200
 30
0.0000
 40
1.5500
  0
POLYLINE
  8
21
 66
1
 10
0.0000
 20
0.0000
 30
0.0000
 40
0.2032
 41
0.2032
 70
0
  0
VERTEX
  8
21
 10
95.4900
 20
13.8550
 30
0.0000
  0
VERTEX
  8
21
 10
94.8550
 20
14.4900
 30
0.0000
  0
SEQEND
  8
0
  0
POLYLINE
  8
21
 66
1
 10
0.0000
 20
0.0000
 30
0.0000
 40
0.1016
 41
0.1016
 70
0
  0
VERTEX
  8
21
 10
94.8909
 20
14.5259
 30
0.0000
 42
1.0000
  0
VERTEX
  8
21
 10
94.8191
 20
14.4541
 30
0.0000
  0
SEQEND
  8
0
  0
POLYLINE
  8
21
 66
1
 10
0.0000
 20
0.0000
 30
0.0000
 40
0.1016
 41
0.1016
 70
0
  0
VERTEX
  8
21
 10
95.4541
 20
13.8191
 30
0.0000
 42
1.0000
  0
VERTEX
  8
21
 10
95.5259
 20
13.8909
 30
0.0000
  0
SEQEND
  8
0
  0
POLYLINE
  8
21
 66
1
 10
0.0000
 20
0.0000
 30
0.0000
 40
0.2032
 41
0.2032
 70
0
  0
VERTEX
  8
21
 10
94.8550
 20
14.4900
 30
0.0000
  0
VERTEX
  8
21
 10
93.5850
 20
14.4900
 30
0.0000
  0
SEQEND
  8
0
  0
POLYLINE
  8
21
 66
1
 10
0.0000
 20
0.0000
 30
0.0000
 40
0.1016
 41
0.1016
 70
0
  0
VERTEX
  8
21
 10
93.5850
 20
14.5408
 30
0.0000
 42
1.0000
  0
VERTEX
  8
21
 10
93.5850
 20
14.4392
 30
0.0000
  0
SEQEND
  8
0
  0
POLYLINE
  8
21
 66
1
 10
0.0000
 20
0.0000
 30
0.0000
 40
0.1016
 41
0.1016
 70
0
  0
VERTEX
  8
21
 10
94.8550
 20
14.4392
 30
0.0000
 42
1.0000
  0
VERTEX
  8
21
 10
94.8550
 20
14.5408
 30
0.0000
  0
SEQEND
  8
0
  0
POLYLINE
  8
21
 66
1
 10
0.0000
 20
0.0000
 30
0.0000
 40
0.2032
 41
0.2032
 70
0
  0
VERTEX
  8
21
 10
93.5850
 20
14.4900
 30
0.0000
  0
VERTEX
  8
21
 10
92.9500
 20
13.8550
 30
0.0000
  0
SEQEND
  8
0
  0
POLYLINE
  8
21
 66
1
 10
0.0000
 20
0.0000
 30
0.0000
 40
0.1016
 41
0.1016
 70
0
  0
VERTEX
  8
21
 10
92.9141
 20
13.8909
 30
0.0000
 42
1.0000
  0
VERTEX
  8
21
 10
92.9859
 20
13.8191
 30
0.0000
  0
SEQEND
  8
0
  0
POLYLINE
  8
21
 66
1
 10
0.0000
 20
0.0000
 30
0.0000
 40
0.1016
 41
0.1016
 70
0
  0
VERTEX
  8
21
 10
93.6209
 20
14.4541
 30
0.0000
 42
1.0000
  0
VERTEX
  8
21
 10
93.5491
 20
14.5259
 30
0.0000
  0
SEQEND
  8
0
  0
POLYLINE
  8
21
 66
1
 10
0.0000
 20
0.0000
 30
0.0000
 40
0.2032
 41
0.2032
 70
0
  0
VERTEX
  8
21
 10
92.9500
 20
13.8550
 30
0.0000
  0
VERTEX
  8
21
 10
92.9500
 20
12.5850
 30
0.0000
  0
SEQEND
  8
0
  0
POLYLINE
  8
21
 66
1
 10
0.0000
 20
0.0000
 30
0.0000
 40
0.1016
 41
0.1016
 70
0
  0
VERTEX
  8
21
 10
92.8992
 20
12.5850
 30
0.0000
 42
1.0000
  0
VERTEX
  8
21
 10
93.0008
 20
12.5850
 30
0.0000
  0
SEQEND
  8
0
  0
POLYLINE
  8
21
 66
1
 10
0.0000
 20
0.0000
 30
0.0000
 40
0.1016
 41
0.1016
 70
0
  0
VERTEX
  8
21
 10
93.0008
 20
13.8550
 30
0.0000
 42
1.0000
  0
VERTEX
  8
21
 10
92.8992
 20
13.8550
 30
0.0000
  0
SEQEND
  8
0
  0
POLYLINE
  8
21
 66
1
 10
0.0000
 20
0.0000
 30
0.0000
 40
0.2032
 41
0.2032
 70
0
  0
VERTEX
  8
21
 10
92.9500
 20
12.5850
 30
0.0000
  0
VERTEX
  8
21
 10
93.5850
 20
11.9500
 30
0.0000
  0
SEQEND
  8
0
  0
POLYLINE
  8
21
 66
1
 10
0.0000
 20
0.0000
 30
0.0000
 40
0.1016
 41
0.1016
 70
0
  0
VERTEX
  8
21
 10
93.5491
 20
11.9141
 30
0.0000
 42
1.0000
  0
VERTEX
  8
21
 10
93.6209
 20
11.9859
 30
0.0000
  0
SEQEND
  8
0
  0
POLYLINE
  8
21
 66
1
 10
0.0000
 20
0.0000
 30
0.0000
 40
0.1016
 41
0.1016
 70
0
  0
VERTEX
  8
21
 10
92.9859
 20
12.6209
 30
0.0000
 42
1.0000
  0
VERTEX
  8
21
 10
92.9141
 20
12.5491
 30
0.0000
  0
SEQEND
  8
0
  0
POLYLINE
  8
21
 66
1
 10
0.0000
 20
0.0000
 30
0.0000
 40
0.2032
 41
0.2032
 70
0
  0
VERTEX
  8
21
 10
93.5850
 20
11.9500
 30
0.0000
  0
VERTEX
  8
21
 10
94.8550
 20
11.9500
 30
0.0000
  0
SEQEND
  8
0
  0
POLYLINE
  8
21
 66
1
 10
0.0000
 20
0.0000
 30
0.0000
 40
0.1016
 41
0.1016
 70
0
  0
VERTEX
  8
21
 10
94.8550
 20
11.8992
 30
0.0000
 42
1.0000
  0
VERTEX
  8
21
 10
94.8550
 20
12.0008
 30
0.0000
  0
SEQEND
  8
0
  0
POLYLINE
  8
21
 66
1
 10
0.0000
 20
0.0000
 30
0.0000
 40
0.1016
 41
0.1016
 70
0
  0
VERTEX
  8
21
 10
93.5850
 20
12.0008
 30
0.0000
 42
1.0000
  0
VERTEX
  8
21
 10
93.5850
 20
11.8992
 30
0.0000
  0
SEQEND
  8
0
  0
POLYLINE
  8
21
 66
1
 10
0.0000
 20
0.0000
 30
0.0000
 40
0.2032
 41
0.2032
 70
0
  0
VERTEX
  8
21
 10
94.8550
 20
11.9500
 30
0.0000
  0
VERTEX
  8
21
 10
95.4900
 20
12.5850
 30
0.0000
  0
SEQEND
  8
0
  0
POLYLINE
  8
21
 66
1
 10
0.0000
 20
0.0000
 30
0.0000
 40
0.1016
 41
0.1016
 70
0
  0
VERTEX
  8
21
 10
95.5259
 20
12.5491
 30
0.0000
 42
1.0000
  0
VERTEX
  8
21
 10
95.4541
 20
12.6209
 30
0.0000
  0
SEQEND
  8
0
  0
POLYLINE
  8
21
 66
1
 10
0.0000
 20
0.0000
 30
0.0000
 40
0.1016
 41
0.1016
 70
0
  0
VERTEX
  8
21
 10
94.8191
 20
11.9859
 30
0.0000
 42
1.0000
  0
VERTEX
  8
21
 10
94.8909
 20
11.9141
 30
0.0000
  0
SEQEND
  8
0
  0
POLYLINE
  8
21
 66
1
 10
0.0000
 20
0.0000
 30
0.0000
 40
0.2032
 41
0.2032
 70
0
  0
VERTEX
  8
21
 10
95.4900
 20
12.5850
 30
0.0000
  0
VERTEX
  8
21
 10
95.4900
 20
13.8550
 30
0.0000
  0
SEQEND
  8
0
  0
POLYLINE
  8
21
 66
1
 10
0.0000
 20
0.0000
 30
0.0000
 40
0.1016
 41
0.1016
 70
0
  0
VERTEX
  8
21
 10
95.5408
 20
13.8550
 30
0.0000
 42
1.0000
  0
VERTEX
  8
21
 10
95.4392
 20
13.8550
 30
0.0000
  0
SEQEND
  8
0
  0
POLYLINE
  8
21
 66
1
 10
0.0000
 20
0.0000
 30
0.0000
 40
0.1016
 41
0.1016
 70
0
  0
VERTEX
  8
21
 10
95.4392
 20
12.5850
 30
0.0000
 42
1.0000
  0
VERTEX
  8
21
 10
95.5408
 20
12.5850
 30
0.0000
  0
SEQEND
  8
0
  0
POLYLINE
  8
21
 66
1
 10
0.0000
 20
0.0000
 30
0.0000
 40
0.1270
 41
0.1270
 70
0
  0
VERTEX
  8
21
 10
92.9640
 20
14.4780
 30
0.0000
  0
VERTEX
  8
21
 10
92.9640
 20
29.7180
 30
0.0000
  0
SEQEND
  8
0
  0
POLYLINE
  8
21
 66
1
 10
0.0000
 20
0.0000
 30
0.0000
 40
0.0635
 41
0.0635
 70
0
  0
VERTEX
  8
21
 10
92.9958
 20
29.7180
 30
0.0000
 42
1.0000
  0
VERTEX
  8
21
 10
92.9322
 20
29.7180
 30
0.0000
  0
SEQEND
  8
0
  0
POLYLINE
  8
21
 66
1
 10
0.0000
 20
0.0000
 30
0.0000
 40
0.0635
 41
0.0635
 70
0
  0
VERTEX
  8
21
 10
92.9322
 20
14.4780
 30
0.0000
 42
1.0000
  0
VERTEX
  8
21
 10
92.9958
 20
14.4780
 30
0.0000
  0
SEQEND
  8
0
  0
POLYLINE
  8
21
 66
1
 10
0.0000
 20
0.0000
 30
0.0000
 40
0.1270
 41
0.1270
 70
0
  0
VERTEX
  8
21
 10
92.9640
 20
29.7180
 30
0.0000
  0
VERTEX
  8
21
 10
95.5040
 20
29.7180
 30
0.0000
  0
SEQEND
  8
0
  0
POLYLINE
  8
21
 66
1
 10
0.0000
 20
0.0000
 30
0.0000
 40
0.0635
 41
0.0635
 70
0
  0
VERTEX
  8
21
 10
95.5040
 20
29.6863
 30
0.0000
 42
1.0000
  0
VERTEX
  8
21
 10
95.5040
 20
29.7497
 30
0.0000
  0
SEQEND
  8
0
  0
POLYLINE
  8
21
 66
1
 10
0.0000
 20
0.0000
 30
0.0000
 40
0.0635
 41
0.0635
 70
0
  0
VERTEX
  8
21
 10
92.9640
 20
29.7497
 30
0.0000
 42
1.0000
  0
VERTEX
  8
21
 10
92.9640
 20
29.6863
 30
0.0000
  0
SEQEND
  8
0
  0
POLYLINE
  8
21
 66
1
 10
0.0000
 20
0.0000
 30
0.0000
 40
0.1270
 41
0.1270
 70
0
  0
VERTEX
  8
21
 10
95.5040
 20
29.7180
 30
0.0000
  0
VERTEX
  8
21
 10
95.5040
 20
14.4780
 30
0.0000
  0
SEQEND
  8
0
  0
POLYLINE
  8
21
 66
1
 10
0.0000
 20
0.0000
 30
0.0000
 40
0.0635
 41
0.0635
 70
0
  0
VERTEX
  8
21
 10
95.4723
 20
14.4780
 30
0.0000
 42
1.0000
  0
VERTEX
  8
21
 10
95.5358
 20
14.4780
 30
0.0000
  0
SEQEND
  8
0
  0
POLYLINE
  8
21
 66
1
 10
0.0000
 20
0.0000
 30
0.0000
 40
0.0635
 41
0.0635
 70
0
  0
VERTEX
  8
21
 10
95.5358
 20
29.7180
 30
0.0000
 42
1.0000
  0
VERTEX
  8
21
 10
95.4723
 20
29.7180
 30
0.0000
  0
SEQEND
  8
0
  0
POLYLINE
  8
21
 66
1
 10
0.0000
 20
0.0000
 30
0.0000
 40
0.1270
 41
0.1270
 70
0
  0
VERTEX
  8
21
 10
95.5040
 20
14.4780
 30
0.0000
  0
VERTEX
  8
21
 10
92.9640
 20
14.4780
 30
0.0000
  0
SEQEND
  8
0
  0
POLYLINE
  8
21
 66
1
 10
0.0000
 20
0.0000
 30
0.0000
 40
0.0635
 41
0.0635
 70
0
  0
VERTEX
  8
21
 10
92.9640
 20
14.5098
 30
0.0000
 42
1.0000
  0
VERTEX
  8
21
 10
92.9640
 20
14.4463
 30
0.0000
  0
SEQEND
  8
0
  0
POLYLINE
  8
21
 66
1
 10
0.0000
 20
0.0000
 30
0.0000
 40
0.0635
 41
0.0635
 70
0
  0
VERTEX
  8
21
 10
95.5040
 20
14.4463
 30
0.0000
 42
1.0000
  0
VERTEX
  8
21
 10
95.5040
 20
14.5098
 30
0.0000
  0
SEQEND
  8
0
  0
POLYLINE
  8
21
 66
1
 10
0.0000
 20
0.0000
 30
0.0000
 40
0.2032
 41
0.2032
 70
0
  0
VERTEX
  8
21
 10
92.4282
 20
13.9454
 30
0.0000
  0
VERTEX
  8
21
 10
92.2503
 20
14.1233
 30
0.0000
  0
SEQEND
  8
0
  0
POLYLINE
  8
21
 66
1
 10
0.0000
 20
0.0000
 30
0.0000
 40
0.1016
 41
0.1016
 70
0
  0
VERTEX
  8
21
 10
92.2862
 20
14.1592
 30
0.0000
 42
1.0000
  0
VERTEX
  8
21
 10
92.2143
 20
14.0874
 30
0.0000
  0
SEQEND
  8
0
  0
POLYLINE
  8
21
 66
1
 10
0.0000
 20
0.0000
 30
0.0000
 40
0.1016
 41
0.1016
 70
0
  0
VERTEX
  8
21
 10
92.3923
 20
13.9094
 30
0.0000
 42
1.0000
  0
VERTEX
  8
21
 10
92.4641
 20
13.9813
 30
0.0000
  0
SEQEND
  8
0
  0
POLYLINE
  8
21
 66
1
 10
0.0000
 20
0.0000
 30
0.0000
 40
0.2032
 41
0.2032
 70
0
  0
VERTEX
  8
21
 10
92.2503
 20
14.1233
 30
0.0000
  0
VERTEX
  8
21
 10
91.8944
 20
14.1233
 30
0.0000
  0
SEQEND
  8
0
  0
POLYLINE
  8
21
 66
1
 10
0.0000
 20
0.0000
 30
0.0000
 40
0.1016
 41
0.1016
 70
0
  0
VERTEX
  8
21
 10
91.8944
 20
14.1741
 30
0.0000
 42
1.0000
  0
VERTEX
  8
21
 10
91.8944
 20
14.0725
 30
0.0000
  0
SEQEND
  8
0
  0
POLYLINE
  8
21
 66
1
 10
0.0000
 20
0.0000
 30
0.0000
 40
0.1016
 41
0.1016
 70
0
  0
VERTEX
  8
21
 10
92.2503
 20
14.0725
 30
0.0000
 42
1.0000
  0
VERTEX
  8
21
 10
92.2503
 20
14.1741
 30
0.0000
  0
SEQEND
  8
0
  0
POLYLINE
  8
21
 66
1
 10
0.0000
 20
0.0000
 30
0.0000
 40
0.2032
 41
0.2032
 70
0
  0
VERTEX
  8
21
 10
91.8944
 20
14.1233
 30
0.0000
  0
VERTEX
  8
21
 10
91.7164
 20
13.9454
 30
0.0000
  0
SEQEND
  8
0
  0
POLYLINE
  8
21
 66
1
 10
0.0000
 20
0.0000
 30
0.0000
 40
0.1016
 41
0.1016
 70
0
  0
VERTEX
  8
21
 10
91.6805
 20
13.9813
 30
0.0000
 42
1.0000
  0
VERTEX
  8
21
 10
91.7523
 20
13.9094
 30
0.0000
  0
SEQEND
  8
0
  0
POLYLINE
  8
21
 66
1
 10
0.0000
 20
0.0000
 30
0.0000
 40
0.1016
 41
0.1016
 70
0
  0
VERTEX
  8
21
 10
91.9303
 20
14.0874
 30
0.0000
 42
1.0000
  0
VERTEX
  8
21
 10
91.8584
 20
14.1592
 30
0.0000
  0
SEQEND
  8
0
  0
POLYLINE
  8
21
 66
1
 10
0.0000
 20
0.0000
 30
0.0000
 40
0.2032
 41
0.2032
 70
0
  0
VERTEX
  8
21
 10
91.7164
 20
13.9454
 30
0.0000
  0
VERTEX
  8
21
 10
91.7164
 20
13.2336
 30
0.0000
  0
SEQEND
  8
0
  0
POLYLINE
  8
21
 66
1
 10
0.0000
 20
0.0000
 30
0.0000
 40
0.1016
 41
0.1016
 70
0
  0
VERTEX
  8
21
 10
91.6656
 20
13.2336
 30
0.0000
 42
1.0000
  0
VERTEX
  8
21
 10
91.7672
 20
13.2336
 30
0.0000
  0
SEQEND
  8
0
  0
POLYLINE
  8
21
 66
1
 10
0.0000
 20
0.0000
 30
0.0000
 40
0.1016
 41
0.1016
 70
0
  0
VERTEX
  8
21
 10
91.7672
 20
13.9454
 30
0.0000
 42
1.0000
  0
VERTEX
  8
21
 10
91.6656
 20
13.9454
 30
0.0000
  0
SEQEND
  8
0
  0
POLYLINE
  8
21
 66
1
 10
0.0000
 20
0.0000
 30
0.0000
 40
0.2032
 41
0.2032
 70
0
  0
VERTEX
  8
21
 10
91.7164
 20
13.2336
 30
0.0000
  0
VERTEX
  8
21
 10
91.8944
 20
13.0556
 30
0.0000
  0
SEQEND
  8
0
  0
POLYLINE
  8
21
 66
1
 10
0.0000
 20
0.0000
 30
0.0000
 40
0.1016
 41
0.1016
 70
0
  0
VERTEX
  8
21
 10
91.8584
 20
13.0197
 30
0.0000
 42
1.0000
  0
VERTEX
  8
21
 10
91.9303
 20
13.0915
 30
0.0000
  0
SEQEND
  8
0
  0
POLYLINE
  8
21
 66
1
 10
0.0000
 20
0.0000
 30
0.0000
 40
0.1016
 41
0.1016
 70
0
  0
VERTEX
  8
21
 10
91.7523
 20
13.2695
 30
0.0000
 42
1.0000
  0
VERTEX
  8
21
 10
91.6805
 20
13.1976
 30
0.0000
  0
SEQEND
  8
0
  0
POLYLINE
  8
21
 66
1
 10
0.0000
 20
0.0000
 30
0.0000
 40
0.2032
 41
0.2032
 70
0
  0
VERTEX
  8
21
 10
91.8944
 20
13.0556
 30
0.0000
  0
VERTEX
  8
21
 10
92.2503
 20
13.0556
 30
0.0000
  0
SEQEND
  8
0
  0
POLYLINE
  8
21
 66
1
 10
0.0000
 20
0.0000
 30
0.0000
 40
0.1016
 41
0.1016
 70
0
  0
VERTEX
  8
21
 10
92.2503
 20
13.0048
 30
0.0000
 42
1.0000
  0
VERTEX
  8
21
 10
92.2503
 20
13.1064
 30
0.0000
  0
SEQEND
  8
0
  0
POLYLINE
  8
21
 66
1
 10
0.0000
 20
0.0000
 30
0.0000
 40
0.1016
 41
0.1016
 70
0
  0
VERTEX
  8
21
 10
91.8944
 20
13.1064
 30
0.0000
 42
1.0000
  0
VERTEX
  8
21
 10
91.8944
 20
13.0048
 30
0.0000
  0
SEQEND
  8
0
  0
POLYLINE
  8
21
 66
1
 10
0.0000
 20
0.0000
 30
0.0000
 40
0.2032
 41
0.2032
 70
0
  0
VERTEX
  8
21
 10
92.2503
 20
13.0556
 30
0.0000
  0
VERTEX
  8
21
 10
92.4282
 20
13.2336
 30
0.0000
  0
SEQEND
  8
0
  0
POLYLINE
  8
21
 66
1
 10
0.0000
 20
0.0000
 30
0.0000
 40
0.1016
 41
0.1016
 70
0
  0
VERTEX
  8
21
 10
92.4641
 20
13.1976
 30
0.0000
 42
1.0000
  0
VERTEX
  8
21
 10
92.3923
 20
13.2695
 30
0.0000
  0
SEQEND
  8
0
  0
POLYLINE
  8
21
 66
1
 10
0.0000
 20
0.0000
 30
0.0000
 40
0.1016
 41
0.1016
 70
0
  0
VERTEX
  8
21
 10
92.2143
 20
13.0915
 30
0.0000
 42
1.0000
  0
VERTEX
  8
21
 10
92.2862
 20
13.0197
 30
0.0000
  0
SEQEND
  8
0
  0
POLYLINE
  8
21
 66
1
 10
0.0000
 20
0.0000
 30
0.0000
 40
0.2032
 41
0.2032
 70
0
  0
VERTEX
  8
21
 10
92.4282
 20
13.2336
 30
0.0000
  0
VERTEX
  8
21
 10
92.4282
 20
13.5895
 30
0.0000
  0
SEQEND
  8
0
  0
POLYLINE
  8
21
 66
1
 10
0.0000
 20
0.0000
 30
0.0000
 40
0.1016
 41
0.1016
 70
0
  0
VERTEX
  8
21
 10
92.4790
 20
13.5895
 30
0.0000
 42
1.0000
  0
VERTEX
  8
21
 10
92.3774
 20
13.5895
 30
0.0000
  0
SEQEND
  8
0
  0
POLYLINE
  8
21
 66
1
 10
0.0000
 20
0.0000
 30
0.0000
 40
0.1016
 41
0.1016
 70
0
  0
VERTEX
  8
21
 10
92.3774
 20
13.2336
 30
0.0000
 42
1.0000
  0
VERTEX
  8
21
 10
92.4790
 20
13.2336
 30
0.0000
  0
SEQEND
  8
0
  0
POLYLINE
  8
21
 66
1
 10
0.0000
 20
0.0000
 30
0.0000
 40
0.2032
 41
0.2032
 70
0
  0
VERTEX
  8
21
 10
92.4282
 20
13.5895
 30
0.0000
  0
VERTEX
  8
21
 10
92.0723
 20
13.5895
 30
0.0000
  0
SEQEND
  8
0
  0
POLYLINE
  8
21
 66
1
 10
0.0000
 20
0.0000
 30
0.0000
 40
0.1016
 41
0.1016
 70
0
  0
VERTEX
  8
21
 10
92.0723
 20
13.6403
 30
0.0000
 42
1.0000
  0
VERTEX
  8
21
 10
92.0723
 20
13.5387
 30
0.0000
  0
SEQEND
  8
0
  0
POLYLINE
  8
21
 66
1
 10
0.0000
 20
0.0000
 30
0.0000
 40
0.1016
 41
0.1016
 70
0
  0
VERTEX
  8
21
 10
92.4282
 20
13.5387
 30
0.0000
 42
1.0000
  0
VERTEX
  8
21
 10
92.4282
 20
13.6403
 30
0.0000
  0
SEQEND
  8
0
  0
POLYLINE
  8
21
 66
1
 10
0.0000
 20
0.0000
 30
0.0000
 40
0.2032
 41
0.2032
 70
0
  0
VERTEX
  8
21
 10
92.8858
 20
13.0556
 30
0.0000
  0
VERTEX
  8
21
 10
92.8858
 20
14.1233
 30
0.0000
  0
SEQEND
  8
0
  0
POLYLINE
  8
21
 66
1
 10
0.0000
 20
0.0000
 30
0.0000
 40
0.1016
 41
0.1016
 70
0
  0
VERTEX
  8
21
 10
92.9366
 20
14.1233
 30
0.0000
 42
1.0000
  0
VERTEX
  8
21
 10
92.8350
 20
14.1233
 30
0.0000
  0
SEQEND
  8
0
  0
POLYLINE
  8
21
 66
1
 10
0.0000
 20
0.0000
 30
0.0000
 40
0.1016
 41
0.1016
 70
0
  0
VERTEX
  8
21
 10
92.8350
 20
13.0556
 30
0.0000
 42
1.0000
  0
VERTEX
  8
21
 10
92.9366
 20
13.0556
 30
0.0000
  0
SEQEND
  8
0
  0
POLYLINE
  8
21
 66
1
 10
0.0000
 20
0.0000
 30
0.0000
 40
0.2032
 41
0.2032
 70
0
  0
VERTEX
  8
21
 10
92.8858
 20
14.1233
 30
0.0000
  0
VERTEX
  8
21
 10
93.4197
 20
14.1233
 30
0.0000
  0
SEQEND
  8
0
  0
POLYLINE
  8
21
 66
1
 10
0.0000
 20
0.0000
 30
0.0000
 40
0.1016
 41
0.1016
 70
0
  0
VERTEX
  8
21
 10
93.4197
 20
14.0725
 30
0.0000
 42
1.0000
  0
VERTEX
  8
21
 10
93.4197
 20
14.1741
 30
0.0000
  0
SEQEND
  8
0
  0
POLYLINE
  8
21
 66
1
 10
0.0000
 20
0.0000
 30
0.0000
 40
0.1016
 41
0.1016
 70
0
  0
VERTEX
  8
21
 10
92.8858
 20
14.1741
 30
0.0000
 42
1.0000
  0
VERTEX
  8
21
 10
92.8858
 20
14.0725
 30
0.0000
  0
SEQEND
  8
0
  0
POLYLINE
  8
21
 66
1
 10
0.0000
 20
0.0000
 30
0.0000
 40
0.2032
 41
0.2032
 70
0
  0
VERTEX
  8
21
 10
93.4197
 20
14.1233
 30
0.0000
  0
VERTEX
  8
21
 10
93.5976
 20
13.9454
 30
0.0000
  0
SEQEND
  8
0
  0
POLYLINE
  8
21
 66
1
 10
0.0000
 20
0.0000
 30
0.0000
 40
0.1016
 41
0.1016
 70
0
  0
VERTEX
  8
21
 10
93.5617
 20
13.9094
 30
0.0000
 42
1.0000
  0
VERTEX
  8
21
 10
93.6335
 20
13.9813
 30
0.0000
  0
SEQEND
  8
0
  0
POLYLINE
  8
21
 66
1
 10
0.0000
 20
0.0000
 30
0.0000
 40
0.1016
 41
0.1016
 70
0
  0
VERTEX
  8
21
 10
93.4556
 20
14.1592
 30
0.0000
 42
1.0000
  0
VERTEX
  8
21
 10
93.3837
 20
14.0874
 30
0.0000
  0
SEQEND
  8
0
  0
POLYLINE
  8
21
 66
1
 10
0.0000
 20
0.0000
 30
0.0000
 40
0.2032
 41
0.2032
 70
0
  0
VERTEX
  8
21
 10
93.5976
 20
13.9454
 30
0.0000
  0
VERTEX
  8
21
 10
93.5976
 20
13.5895
 30
0.0000
  0
SEQEND
  8
0
  0
POLYLINE
  8
21
 66
1
 10
0.0000
 20
0.0000
 30
0.0000
 40
0.1016
 41
0.1016
 70
0
  0
VERTEX
  8
21
 10
93.5468
 20
13.5895
 30
0.0000
 42
1.0000
  0
VERTEX
  8
21
 10
93.6484
 20
13.5895
 30
0.0000
  0
SEQEND
  8
0
  0
POLYLINE
  8
21
 66
1
 10
0.0000
 20
0.0000
 30
0.0000
 40
0.1016
 41
0.1016
 70
0
  0
VERTEX
  8
21
 10
93.6484
 20
13.9454
 30
0.0000
 42
1.0000
  0
VERTEX
  8
21
 10
93.5468
 20
13.9454
 30
0.0000
  0
SEQEND
  8
0
  0
POLYLINE
  8
21
 66
1
 10
0.0000
 20
0.0000
 30
0.0000
 40
0.2032
 41
0.2032
 70
0
  0
VERTEX
  8
21
 10
93.5976
 20
13.5895
 30
0.0000
  0
VERTEX
  8
21
 10
93.4197
 20
13.4115
 30
0.0000
  0
SEQEND
  8
0
  0
POLYLINE
  8
21
 66
1
 10
0.0000
 20
0.0000
 30
0.0000
 40
0.1016
 41
0.1016
 70
0
  0
VERTEX
  8
21
 10
93.3837
 20
13.4474
 30
0.0000
 42
1.0000
  0
VERTEX
  8
21
 10
93.4556
 20
13.3756
 30
0.0000
  0
SEQEND
  8
0
  0
POLYLINE
  8
21
 66
1
 10
0.0000
 20
0.0000
 30
0.0000
 40
0.1016
 41
0.1016
 70
0
  0
VERTEX
  8
21
 10
93.6335
 20
13.5535
 30
0.0000
 42
1.0000
  0
VERTEX
  8
21
 10
93.5617
 20
13.6254
 30
0.0000
  0
SEQEND
  8
0
  0
POLYLINE
  8
21
 66
1
 10
0.0000
 20
0.0000
 30
0.0000
 40
0.2032
 41
0.2032
 70
0
  0
VERTEX
  8
21
 10
93.4197
 20
13.4115
 30
0.0000
  0
VERTEX
  8
21
 10
92.8858
 20
13.4115
 30
0.0000
  0
SEQEND
  8
0
  0
POLYLINE
  8
21
 66
1
 10
0.0000
 20
0.0000
 30
0.0000
 40
0.1016
 41
0.1016
 70
0
  0
VERTEX
  8
21
 10
92.8858
 20
13.4623
 30
0.0000
 42
1.0000
  0
VERTEX
  8
21
 10
92.8858
 20
13.3607
 30
0.0000
  0
SEQEND
  8
0
  0
POLYLINE
  8
21
 66
1
 10
0.0000
 20
0.0000
 30
0.0000
 40
0.1016
 41
0.1016
 70
0
  0
VERTEX
  8
21
 10
93.4197
 20
13.3607
 30
0.0000
 42
1.0000
  0
VERTEX
  8
21
 10
93.4197
 20
13.4623
 30
0.0000
  0
SEQEND
  8
0
  0
POLYLINE
  8
21
 66
1
 10
0.0000
 20
0.0000
 30
0.0000
 40
0.2032
 41
0.2032
 70
0
  0
VERTEX
  8
21
 10
93.2417
 20
13.4115
 30
0.0000
  0
VERTEX
  8
21
 10
93.5976
 20
13.0556
 30
0.0000
  0
SEQEND
  8
0
  0
POLYLINE
  8
21
 66
1
 10
0.0000
 20
0.0000
 30
0.0000
 40
0.1016
 41
0.1016
 70
0
  0
VERTEX
  8
21
 10
93.5617
 20
13.0197
 30
0.0000
 42
1.0000
  0
VERTEX
  8
21
 10
93.6335
 20
13.0915
 30
0.0000
  0
SEQEND
  8
0
  0
POLYLINE
  8
21
 66
1
 10
0.0000
 20
0.0000
 30
0.0000
 40
0.1016
 41
0.1016
 70
0
  0
VERTEX
  8
21
 10
93.2776
 20
13.4474
 30
0.0000
 42
1.0000
  0
VERTEX
  8
21
 10
93.2058
 20
13.3756
 30
0.0000
  0
SEQEND
  8
0
  0
POLYLINE
  8
21
 66
1
 10
0.0000
 20
0.0000
 30
0.0000
 40
0.2032
 41
0.2032
 70
0
  0
VERTEX
  8
21
 10
94.0552
 20
13.0556
 30
0.0000
  0
VERTEX
  8
21
 10
94.0552
 20
14.1233
 30
0.0000
  0
SEQEND
  8
0
  0
POLYLINE
  8
21
 66
1
 10
0.0000
 20
0.0000
 30
0.0000
 40
0.1016
 41
0.1016
 70
0
  0
VERTEX
  8
21
 10
94.1060
 20
14.1233
 30
0.0000
 42
1.0000
  0
VERTEX
  8
21
 10
94.0044
 20
14.1233
 30
0.0000
  0
SEQEND
  8
0
  0
POLYLINE
  8
21
 66
1
 10
0.0000
 20
0.0000
 30
0.0000
 40
0.1016
 41
0.1016
 70
0
  0
VERTEX
  8
21
 10
94.0044
 20
13.0556
 30
0.0000
 42
1.0000
  0
VERTEX
  8
21
 10
94.1060
 20
13.0556
 30
0.0000
  0
SEQEND
  8
0
  0
POLYLINE
  8
21
 66
1
 10
0.0000
 20
0.0000
 30
0.0000
 40
0.2032
 41
0.2032
 70
0
  0
VERTEX
  8
21
 10
94.0552
 20
14.1233
 30
0.0000
  0
VERTEX
  8
21
 10
94.7670
 20
13.0556
 30
0.0000
  0
SEQEND
  8
0
  0
POLYLINE
  8
21
 66
1
 10
0.0000
 20
0.0000
 30
0.0000
 40
0.1016
 41
0.1016
 70
0
  0
VERTEX
  8
21
 10
94.7247
 20
13.0274
 30
0.0000
 42
1.0000
  0
VERTEX
  8
21
 10
94.8093
 20
13.0838
 30
0.0000
  0
SEQEND
  8
0
  0
POLYLINE
  8
21
 66
1
 10
0.0000
 20
0.0000
 30
0.0000
 40
0.1016
 41
0.1016
 70
0
  0
VERTEX
  8
21
 10
94.0975
 20
14.1515
 30
0.0000
 42
1.0000
  0
VERTEX
  8
21
 10
94.0129
 20
14.0951
 30
0.0000
  0
SEQEND
  8
0
  0
POLYLINE
  8
21
 66
1
 10
0.0000
 20
0.0000
 30
0.0000
 40
0.2032
 41
0.2032
 70
0
  0
VERTEX
  8
21
 10
94.7670
 20
13.0556
 30
0.0000
  0
VERTEX
  8
21
 10
94.7670
 20
14.1233
 30
0.0000
  0
SEQEND
  8
0
  0
POLYLINE
  8
21
 66
1
 10
0.0000
 20
0.0000
 30
0.0000
 40
0.1016
 41
0.1016
 70
0
  0
VERTEX
  8
21
 10
94.8178
 20
14.1233
 30
0.0000
 42
1.0000
  0
VERTEX
  8
21
 10
94.7162
 20
14.1233
 30
0.0000
  0
SEQEND
  8
0
  0
POLYLINE
  8
21
 66
1
 10
0.0000
 20
0.0000
 30
0.0000
 40
0.1016
 41
0.1016
 70
0
  0
VERTEX
  8
21
 10
94.7162
 20
13.0556
 30
0.0000
 42
1.0000
  0
VERTEX
  8
21
 10
94.8178
 20
13.0556
 30
0.0000
  0
SEQEND
  8
0
  0
POLYLINE
  8
21
 66
1
 10
0.0000
 20
0.0000
 30
0.0000
 40
0.2032
 41
0.2032
 70
0
  0
VERTEX
  8
21
 10
91.7164
 20
30.0736
 30
0.0000
  0
VERTEX
  8
21
 10
91.7164
 20
31.1413
 30
0.0000
  0
SEQEND
  8
0
  0
POLYLINE
  8
21
 66
1
 10
0.0000
 20
0.0000
 30
0.0000
 40
0.1016
 41
0.1016
 70
0
  0
VERTEX
  8
21
 10
91.7672
 20
31.1413
 30
0.0000
 42
1.0000
  0
VERTEX
  8
21
 10
91.6656
 20
31.1413
 30
0.0000
  0
SEQEND
  8
0
  0
POLYLINE
  8
21
 66
1
 10
0.0000
 20
0.0000
 30
0.0000
 40
0.1016
 41
0.1016
 70
0
  0
VERTEX
  8
21
 10
91.6656
 20
30.0736
 30
0.0000
 42
1.0000
  0
VERTEX
  8
21
 10
91.7672
 20
30.0736
 30
0.0000
  0
SEQEND
  8
0
  0
POLYLINE
  8
21
 66
1
 10
0.0000
 20
0.0000
 30
0.0000
 40
0.2032
 41
0.2032
 70
0
  0
VERTEX
  8
21
 10
91.7164
 20
31.1413
 30
0.0000
  0
VERTEX
  8
21
 10
92.2503
 20
31.1413
 30
0.0000
  0
SEQEND
  8
0
  0
POLYLINE
  8
21
 66
1
 10
0.0000
 20
0.0000
 30
0.0000
 40
0.1016
 41
0.1016
 70
0
  0
VERTEX
  8
21
 10
92.2503
 20
31.0905
 30
0.0000
 42
1.0000
  0
VERTEX
  8
21
 10
92.2503
 20
31.1921
 30
0.0000
  0
SEQEND
  8
0
  0
POLYLINE
  8
21
 66
1
 10
0.0000
 20
0.0000
 30
0.0000
 40
0.1016
 41
0.1016
 70
0
  0
VERTEX
  8
21
 10
91.7164
 20
31.1921
 30
0.0000
 42
1.0000
  0
VERTEX
  8
21
 10
91.7164
 20
31.0905
 30
0.0000
  0
SEQEND
  8
0
  0
POLYLINE
  8
21
 66
1
 10
0.0000
 20
0.0000
 30
0.0000
 40
0.2032
 41
0.2032
 70
0
  0
VERTEX
  8
21
 10
92.2503
 20
31.1413
 30
0.0000
  0
VERTEX
  8
21
 10
92.4282
 20
30.9634
 30
0.0000
  0
SEQEND
  8
0
  0
POLYLINE
  8
21
 66
1
 10
0.0000
 20
0.0000
 30
0.0000
 40
0.1016
 41
0.1016
 70
0
  0
VERTEX
  8
21
 10
92.3923
 20
30.9274
 30
0.0000
 42
1.0000
  0
VERTEX
  8
21
 10
92.4641
 20
30.9993
 30
0.0000
  0
SEQEND
  8
0
  0
POLYLINE
  8
21
 66
1
 10
0.0000
 20
0.0000
 30
0.0000
 40
0.1016
 41
0.1016
 70
0
  0
VERTEX
  8
21
 10
92.2862
 20
31.1772
 30
0.0000
 42
1.0000
  0
VERTEX
  8
21
 10
92.2143
 20
31.1054
 30
0.0000
  0
SEQEND
  8
0
  0
POLYLINE
  8
21
 66
1
 10
0.0000
 20
0.0000
 30
0.0000
 40
0.2032
 41
0.2032
 70
0
  0
VERTEX
  8
21
 10
92.4282
 20
30.9634
 30
0.0000
  0
VERTEX
  8
21
 10
92.4282
 20
30.7854
 30
0.0000
  0
SEQEND
  8
0
  0
POLYLINE
  8
21
 66
1
 10
0.0000
 20
0.0000
 30
0.0000
 40
0.1016
 41
0.1016
 70
0
  0
VERTEX
  8
21
 10
92.3774
 20
30.7854
 30
0.0000
 42
1.0000
  0
VERTEX
  8
21
 10
92.4790
 20
30.7854
 30
0.0000
  0
SEQEND
  8
0
  0
POLYLINE
  8
21
 66
1
 10
0.0000
 20
0.0000
 30
0.0000
 40
0.1016
 41
0.1016
 70
0
  0
VERTEX
  8
21
 10
92.4790
 20
30.9634
 30
0.0000
 42
1.0000
  0
VERTEX
  8
21
 10
92.3774
 20
30.9634
 30
0.0000
  0
SEQEND
  8
0
  0
POLYLINE
  8
21
 66
1
 10
0.0000
 20
0.0000
 30
0.0000
 40
0.2032
 41
0.2032
 70
0
  0
VERTEX
  8
21
 10
92.4282
 20
30.7854
 30
0.0000
  0
VERTEX
  8
21
 10
92.2503
 20
30.6075
 30
0.0000
  0
SEQEND
  8
0
  0
POLYLINE
  8
21
 66
1
 10
0.0000
 20
0.0000
 30
0.0000
 40
0.1016
 41
0.1016
 70
0
  0
VERTEX
  8
21
 10
92.2143
 20
30.6434
 30
0.0000
 42
1.0000
  0
VERTEX
  8
21
 10
92.2862
 20
30.5715
 30
0.0000
  0
SEQEND
  8
0
  0
POLYLINE
  8
21
 66
1
 10
0.0000
 20
0.0000
 30
0.0000
 40
0.1016
 41
0.1016
 70
0
  0
VERTEX
  8
21
 10
92.4641
 20
30.7495
 30
0.0000
 42
1.0000
  0
VERTEX
  8
21
 10
92.3923
 20
30.8213
 30
0.0000
  0
SEQEND
  8
0
  0
POLYLINE
  8
21
 66
1
 10
0.0000
 20
0.0000
 30
0.0000
 40
0.2032
 41
0.2032
 70
0
  0
VERTEX
  8
21
 10
92.2503
 20
30.6075
 30
0.0000
  0
VERTEX
  8
21
 10
92.4282
 20
30.4295
 30
0.0000
  0
SEQEND
  8
0
  0
POLYLINE
  8
21
 66
1
 10
0.0000
 20
0.0000
 30
0.0000
 40
0.1016
 41
0.1016
 70
0
  0
VERTEX
  8
21
 10
92.3923
 20
30.3936
 30
0.0000
 42
1.0000
  0
VERTEX
  8
21
 10
92.4641
 20
30.4654
 30
0.0000
  0
SEQEND
  8
0
  0
POLYLINE
  8
21
 66
1
 10
0.0000
 20
0.0000
 30
0.0000
 40
0.1016
 41
0.1016
 70
0
  0
VERTEX
  8
21
 10
92.2862
 20
30.6434
 30
0.0000
 42
1.0000
  0
VERTEX
  8
21
 10
92.2143
 20
30.5715
 30
0.0000
  0
SEQEND
  8
0
  0
POLYLINE
  8
21
 66
1
 10
0.0000
 20
0.0000
 30
0.0000
 40
0.2032
 41
0.2032
 70
0
  0
VERTEX
  8
21
 10
92.4282
 20
30.4295
 30
0.0000
  0
VERTEX
  8
21
 10
92.4282
 20
30.2516
 30
0.0000
  0
SEQEND
  8
0
  0
POLYLINE
  8
21
 66
1
 10
0.0000
 20
0.0000
 30
0.0000
 40
0.1016
 41
0.1016
 70
0
  0
VERTEX
  8
21
 10
92.3774
 20
30.2516
 30
0.0000
 42
1.0000
  0
VERTEX
  8
21
 10
92.4790
 20
30.2516
 30
0.0000
  0
SEQEND
  8
0
  0
POLYLINE
  8
21
 66
1
 10
0.0000
 20
0.0000
 30
0.0000
 40
0.1016
 41
0.1016
 70
0
  0
VERTEX
  8
21
 10
92.4790
 20
30.4295
 30
0.0000
 42
1.0000
  0
VERTEX
  8
21
 10
92.3774
 20
30.4295
 30
0.0000
  0
SEQEND
  8
0
  0
POLYLINE
  8
21
 66
1
 10
0.0000
 20
0.0000
 30
0.0000
 40
0.2032
 41
0.2032
 70
0
  0
VERTEX
  8
21
 10
92.4282
 20
30.2516
 30
0.0000
  0
VERTEX
  8
21
 10
92.2503
 20
30.0736
 30
0.0000
  0
SEQEND
  8
0
  0
POLYLINE
  8
21
 66
1
 10
0.0000
 20
0.0000
 30
0.0000
 40
0.1016
 41
0.1016
 70
0
  0
VERTEX
  8
21
 10
92.2143
 20
30.1095
 30
0.0000
 42
1.0000
  0
VERTEX
  8
21
 10
92.2862
 20
30.0377
 30
0.0000
  0
SEQEND
  8
0
  0
POLYLINE
  8
21
 66
1
 10
0.0000
 20
0.0000
 30
0.0000
 40
0.1016
 41
0.1016
 70
0
  0
VERTEX
  8
21
 10
92.4641
 20
30.2156
 30
0.0000
 42
1.0000
  0
VERTEX
  8
21
 10
92.3923
 20
30.2875
 30
0.0000
  0
SEQEND
  8
0
  0
POLYLINE
  8
21
 66
1
 10
0.0000
 20
0.0000
 30
0.0000
 40
0.2032
 41
0.2032
 70
0
  0
VERTEX
  8
21
 10
92.2503
 20
30.0736
 30
0.0000
  0
VERTEX
  8
21
 10
91.7164
 20
30.0736
 30
0.0000
  0
SEQEND
  8
0
  0
POLYLINE
  8
21
 66
1
 10
0.0000
 20
0.0000
 30
0.0000
 40
0.1016
 41
0.1016
 70
0
  0
VERTEX
  8
21
 10
91.7164
 20
30.1244
 30
0.0000
 42
1.0000
  0
VERTEX
  8
21
 10
91.7164
 20
30.0228
 30
0.0000
  0
SEQEND
  8
0
  0
POLYLINE
  8
21
 66
1
 10
0.0000
 20
0.0000
 30
0.0000
 40
0.1016
 41
0.1016
 70
0
  0
VERTEX
  8
21
 10
92.2503
 20
30.0228
 30
0.0000
 42
1.0000
  0
VERTEX
  8
21
 10
92.2503
 20
30.1244
 30
0.0000
  0
SEQEND
  8
0
  0
POLYLINE
  8
21
 66
1
 10
0.0000
 20
0.0000
 30
0.0000
 40
0.2032
 41
0.2032
 70
0
  0
VERTEX
  8
21
 10
91.7164
 20
30.6075
 30
0.0000
  0
VERTEX
  8
21
 10
92.2503
 20
30.6075
 30
0.0000
  0
SEQEND
  8
0
  0
POLYLINE
  8
21
 66
1
 10
0.0000
 20
0.0000
 30
0.0000
 40
0.1016
 41
0.1016
 70
0
  0
VERTEX
  8
21
 10
92.2503
 20
30.5567
 30
0.0000
 42
1.0000
  0
VERTEX
  8
21
 10
92.2503
 20
30.6583
 30
0.0000
  0
SEQEND
  8
0
  0
POLYLINE
  8
21
 66
1
 10
0.0000
 20
0.0000
 30
0.0000
 40
0.1016
 41
0.1016
 70
0
  0
VERTEX
  8
21
 10
91.7164
 20
30.6583
 30
0.0000
 42
1.0000
  0
VERTEX
  8
21
 10
91.7164
 20
30.5567
 30
0.0000
  0
SEQEND
  8
0
  0
POLYLINE
  8
21
 66
1
 10
0.0000
 20
0.0000
 30
0.0000
 40
0.2032
 41
0.2032
 70
0
  0
VERTEX
  8
21
 10
92.8858
 20
31.1413
 30
0.0000
  0
VERTEX
  8
21
 10
92.8858
 20
30.0736
 30
0.0000
  0
SEQEND
  8
0
  0
POLYLINE
  8
21
 66
1
 10
0.0000
 20
0.0000
 30
0.0000
 40
0.1016
 41
0.1016
 70
0
  0
VERTEX
  8
21
 10
92.8350
 20
30.0736
 30
0.0000
 42
1.0000
  0
VERTEX
  8
21
 10
92.9366
 20
30.0736
 30
0.0000
  0
SEQEND
  8
0
  0
POLYLINE
  8
21
 66
1
 10
0.0000
 20
0.0000
 30
0.0000
 40
0.1016
 41
0.1016
 70
0
  0
VERTEX
  8
21
 10
92.9366
 20
31.1413
 30
0.0000
 42
1.0000
  0
VERTEX
  8
21
 10
92.8350
 20
31.1413
 30
0.0000
  0
SEQEND
  8
0
  0
POLYLINE
  8
21
 66
1
 10
0.0000
 20
0.0000
 30
0.0000
 40
0.2032
 41
0.2032
 70
0
  0
VERTEX
  8
21
 10
92.8858
 20
30.0736
 30
0.0000
  0
VERTEX
  8
21
 10
93.5976
 20
30.0736
 30
0.0000
  0
SEQEND
  8
0
  0
POLYLINE
  8
21
 66
1
 10
0.0000
 20
0.0000
 30
0.0000
 40
0.1016
 41
0.1016
 70
0
  0
VERTEX
  8
21
 10
93.5976
 20
30.0228
 30
0.0000
 42
1.0000
  0
VERTEX
  8
21
 10
93.5976
 20
30.1244
 30
0.0000
  0
SEQEND
  8
0
  0
POLYLINE
  8
21
 66
1
 10
0.0000
 20
0.0000
 30
0.0000
 40
0.1016
 41
0.1016
 70
0
  0
VERTEX
  8
21
 10
92.8858
 20
30.1244
 30
0.0000
 42
1.0000
  0
VERTEX
  8
21
 10
92.8858
 20
30.0228
 30
0.0000
  0
SEQEND
  8
0
  0
POLYLINE
  8
21
 66
1
 10
0.0000
 20
0.0000
 30
0.0000
 40
0.2032
 41
0.2032
 70
0
  0
VERTEX
  8
21
 10
94.0552
 20
31.1413
 30
0.0000
  0
VERTEX
  8
21
 10
94.0552
 20
30.0736
 30
0.0000
  0
SEQEND
  8
0
  0
POLYLINE
  8
21
 66
1
 10
0.0000
 20
0.0000
 30
0.0000
 40
0.1016
 41
0.1016
 70
0
  0
VERTEX
  8
21
 10
94.0044
 20
30.0736
 30
0.0000
 42
1.0000
  0
VERTEX
  8
21
 10
94.1060
 20
30.0736
 30
0.0000
  0
SEQEND
  8
0
  0
POLYLINE
  8
21
 66
1
 10
0.0000
 20
0.0000
 30
0.0000
 40
0.1016
 41
0.1016
 70
0
  0
VERTEX
  8
21
 10
94.1060
 20
31.1413
 30
0.0000
 42
1.0000
  0
VERTEX
  8
21
 10
94.0044
 20
31.1413
 30
0.0000
  0
SEQEND
  8
0
  0
POLYLINE
  8
21
 66
1
 10
0.0000
 20
0.0000
 30
0.0000
 40
0.2032
 41
0.2032
 70
0
  0
VERTEX
  8
21
 10
94.0552
 20
30.4295
 30
0.0000
  0
VERTEX
  8
21
 10
94.7670
 20
31.1413
 30
0.0000
  0
SEQEND
  8
0
  0
POLYLINE
  8
21
 66
1
 10
0.0000
 20
0.0000
 30
0.0000
 40
0.1016
 41
0.1016
 70
0
  0
VERTEX
  8
21
 10
94.8029
 20
31.1054
 30
0.0000
 42
1.0000
  0
VERTEX
  8
21
 10
94.7311
 20
31.1772
 30
0.0000
  0
SEQEND
  8
0
  0
POLYLINE
  8
21
 66
1
 10
0.0000
 20
0.0000
 30
0.0000
 40
0.1016
 41
0.1016
 70
0
  0
VERTEX
  8
21
 10
94.0193
 20
30.4654
 30
0.0000
 42
1.0000
  0
VERTEX
  8
21
 10
94.0911
 20
30.3936
 30
0.0000
  0
SEQEND
  8
0
  0
POLYLINE
  8
21
 66
1
 10
0.0000
 20
0.0000
 30
0.0000
 40
0.2032
 41
0.2032
 70
0
  0
VERTEX
  8
21
 10
94.2331
 20
30.6075
 30
0.0000
  0
VERTEX
  8
21
 10
94.7670
 20
30.0736
 30
0.0000
  0
SEQEND
  8
0
  0
POLYLINE
  8
21
 66
1
 10
0.0000
 20
0.0000
 30
0.0000
 40
0.1016
 41
0.1016
 70
0
  0
VERTEX
  8
21
 10
94.7311
 20
30.0377
 30
0.0000
 42
1.0000
  0
VERTEX
  8
21
 10
94.8029
 20
30.1095
 30
0.0000
  0
SEQEND
  8
0
  0
POLYLINE
  8
21
 66
1
 10
0.0000
 20
0.0000
 30
0.0000
 40
0.1016
 41
0.1016
 70
0
  0
VERTEX
  8
21
 10
94.2691
 20
30.6434
 30
0.0000
 42
1.0000
  0
VERTEX
  8
21
 10
94.1972
 20
30.5715
 30
0.0000
  0
SEQEND
  8
0
  0
POLYLINE
  8
21
 66
1
 10
0.0000
 20
0.0000
 30
0.0000
 40
0.1270
 41
0.1270
 70
0
  0
VERTEX
  8
21
 10
92.6465
 20
17.5643
 30
0.0000
  0
VERTEX
  8
21
 10
91.9601
 20
17.5643
 30
0.0000
  0
SEQEND
  8
0
  0
POLYLINE
  8
21
 66
1
 10
0.0000
 20
0.0000
 30
0.0000
 40
0.0635
 41
0.0635
 70
0
  0
VERTEX
  8
21
 10
91.9601
 20
17.5960
 30
0.0000
 42
1.0000
  0
VERTEX
  8
21
 10
91.9601
 20
17.5325
 30
0.0000
  0
SEQEND
  8
0
  0
POLYLINE
  8
21
 66
1
 10
0.0000
 20
0.0000
 30
0.0000
 40
0.0635
 41
0.0635
 70
0
  0
VERTEX
  8
21
 10
92.6465
 20
17.5325
 30
0.0000
 42
1.0000
  0
VERTEX
  8
21
 10
92.6465
 20
17.5960
 30
0.0000
  0
SEQEND
  8
0
  0
POLYLINE
  8
21
 66
1
 10
0.0000
 20
0.0000
 30
0.0000
 40
0.1270
 41
0.1270
 70
0
  0
VERTEX
  8
21
 10
91.9601
 20
17.3355
 30
0.0000
  0
VERTEX
  8
21
 10
91.9601
 20
17.7931
 30
0.0000
  0
SEQEND
  8
0
  0
POLYLINE
  8
21
 66
1
 10
0.0000
 20
0.0000
 30
0.0000
 40
0.0635
 41
0.0635
 70
0
  0
VERTEX
  8
21
 10
91.9919
 20
17.7931
 30
0.0000
 42
1.0000
  0
VERTEX
  8
21
 10
91.9284
 20
17.7931
 30
0.0000
  0
SEQEND
  8
0
  0
POLYLINE
  8
21
 66
1
 10
0.0000
 20
0.0000
 30
0.0000
 40
0.0635
 41
0.0635
 70
0
  0
VERTEX
  8
21
 10
91.9284
 20
17.3355
 30
0.0000
 42
1.0000
  0
VERTEX
  8
21
 10
91.9919
 20
17.3355
 30
0.0000
  0
SEQEND
  8
0
  0
POLYLINE
  8
21
 66
1
 10
0.0000
 20
0.0000
 30
0.0000
 40
0.1270
 41
0.1270
 70
0
  0
VERTEX
  8
21
 10
91.9601
 20
18.0839
 30
0.0000
  0
VERTEX
  8
21
 10
92.6465
 20
18.5415
 30
0.0000
  0
SEQEND
  8
0
  0
POLYLINE
  8
21
 66
1
 10
0.0000
 20
0.0000
 30
0.0000
 40
0.0635
 41
0.0635
 70
0
  0
VERTEX
  8
21
 10
92.6641
 20
18.5151
 30
0.0000
 42
1.0000
  0
VERTEX
  8
21
 10
92.6289
 20
18.5679
 30
0.0000
  0
SEQEND
  8
0
  0
POLYLINE
  8
21
 66
1
 10
0.0000
 20
0.0000
 30
0.0000
 40
0.0635
 41
0.0635
 70
0
  0
VERTEX
  8
21
 10
91.9425
 20
18.1103
 30
0.0000
 42
1.0000
  0
VERTEX
  8
21
 10
91.9777
 20
18.0575
 30
0.0000
  0
SEQEND
  8
0
  0
POLYLINE
  8
21
 66
1
 10
0.0000
 20
0.0000
 30
0.0000
 40
0.1270
 41
0.1270
 70
0
  0
VERTEX
  8
21
 10
91.9601
 20
18.5415
 30
0.0000
  0
VERTEX
  8
21
 10
92.6465
 20
18.0839
 30
0.0000
  0
SEQEND
  8
0
  0
POLYLINE
  8
21
 66
1
 10
0.0000
 20
0.0000
 30
0.0000
 40
0.0635
 41
0.0635
 70
0
  0
VERTEX
  8
21
 10
92.6289
 20
18.0575
 30
0.0000
 42
1.0000
  0
VERTEX
  8
21
 10
92.6641
 20
18.1103
 30
0.0000
  0
SEQEND
  8
0
  0
POLYLINE
  8
21
 66
1
 10
0.0000
 20
0.0000
 30
0.0000
 40
0.0635
 41
0.0635
 70
0
  0
VERTEX
  8
21
 10
91.9777
 20
18.5679
 30
0.0000
 42
1.0000
  0
VERTEX
  8
21
 10
91.9425
 20
18.5151
 30
0.0000
  0
SEQEND
  8
0
  0
POLYLINE
  8
21
 66
1
 10
0.0000
 20
0.0000
 30
0.0000
 40
0.1270
 41
0.1270
 70
0
  0
VERTEX
  8
21
 10
91.9601
 20
19.1755
 30
0.0000
  0
VERTEX
  8
21
 10
91.9601
 20
18.9467
 30
0.0000
  0
SEQEND
  8
0
  0
POLYLINE
  8
21
 66
1
 10
0.0000
 20
0.0000
 30
0.0000
 40
0.0635
 41
0.0635
 70
0
  0
VERTEX
  8
21
 10
91.9284
 20
18.9467
 30
0.0000
 42
1.0000
  0
VERTEX
  8
21
 10
91.9919
 20
18.9467
 30
0.0000
  0
SEQEND
  8
0
  0
POLYLINE
  8
21
 66
1
 10
0.0000
 20
0.0000
 30
0.0000
 40
0.0635
 41
0.0635
 70
0
  0
VERTEX
  8
21
 10
91.9919
 20
19.1755
 30
0.0000
 42
1.0000
  0
VERTEX
  8
21
 10
91.9284
 20
19.1755
 30
0.0000
  0
SEQEND
  8
0
  0
POLYLINE
  8
21
 66
1
 10
0.0000
 20
0.0000
 30
0.0000
 40
0.1270
 41
0.1270
 70
0
  0
VERTEX
  8
21
 10
91.9601
 20
18.9467
 30
0.0000
  0
VERTEX
  8
21
 10
92.0745
 20
18.8323
 30
0.0000
  0
SEQEND
  8
0
  0
POLYLINE
  8
21
 66
1
 10
0.0000
 20
0.0000
 30
0.0000
 40
0.0635
 41
0.0635
 70
0
  0
VERTEX
  8
21
 10
92.0521
 20
18.8099
 30
0.0000
 42
1.0000
  0
VERTEX
  8
21
 10
92.0970
 20
18.8548
 30
0.0000
  0
SEQEND
  8
0
  0
POLYLINE
  8
21
 66
1
 10
0.0000
 20
0.0000
 30
0.0000
 40
0.0635
 41
0.0635
 70
0
  0
VERTEX
  8
21
 10
91.9826
 20
18.9692
 30
0.0000
 42
1.0000
  0
VERTEX
  8
21
 10
91.9377
 20
18.9243
 30
0.0000
  0
SEQEND
  8
0
  0
POLYLINE
  8
21
 66
1
 10
0.0000
 20
0.0000
 30
0.0000
 40
0.1270
 41
0.1270
 70
0
  0
VERTEX
  8
21
 10
92.0745
 20
18.8323
 30
0.0000
  0
VERTEX
  8
21
 10
92.5321
 20
18.8323
 30
0.0000
  0
SEQEND
  8
0
  0
POLYLINE
  8
21
 66
1
 10
0.0000
 20
0.0000
 30
0.0000
 40
0.0635
 41
0.0635
 70
0
  0
VERTEX
  8
21
 10
92.5321
 20
18.8006
 30
0.0000
 42
1.0000
  0
VERTEX
  8
21
 10
92.5321
 20
18.8641
 30
0.0000
  0
SEQEND
  8
0
  0
POLYLINE
  8
21
 66
1
 10
0.0000
 20
0.0000
 30
0.0000
 40
0.0635
 41
0.0635
 70
0
  0
VERTEX
  8
21
 10
92.0745
 20
18.8641
 30
0.0000
 42
1.0000
  0
VERTEX
  8
21
 10
92.0745
 20
18.8006
 30
0.0000
  0
SEQEND
  8
0
  0
POLYLINE
  8
21
 66
1
 10
0.0000
 20
0.0000
 30
0.0000
 40
0.1270
 41
0.1270
 70
0
  0
VERTEX
  8
21
 10
92.5321
 20
18.8323
 30
0.0000
  0
VERTEX
  8
21
 10
92.6465
 20
18.9467
 30
0.0000
  0
SEQEND
  8
0
  0
POLYLINE
  8
21
 66
1
 10
0.0000
 20
0.0000
 30
0.0000
 40
0.0635
 41
0.0635
 70
0
  0
VERTEX
  8
21
 10
92.6690
 20
18.9243
 30
0.0000
 42
1.0000
  0
VERTEX
  8
21
 10
92.6240
 20
18.9692
 30
0.0000
  0
SEQEND
  8
0
  0
POLYLINE
  8
21
 66
1
 10
0.0000
 20
0.0000
 30
0.0000
 40
0.0635
 41
0.0635
 70
0
  0
VERTEX
  8
21
 10
92.5097
 20
18.8548
 30
0.0000
 42
1.0000
  0
VERTEX
  8
21
 10
92.5546
 20
18.8099
 30
0.0000
  0
SEQEND
  8
0
  0
POLYLINE
  8
21
 66
1
 10
0.0000
 20
0.0000
 30
0.0000
 40
0.1270
 41
0.1270
 70
0
  0
VERTEX
  8
21
 10
92.6465
 20
18.9467
 30
0.0000
  0
VERTEX
  8
21
 10
92.6465
 20
19.1755
 30
0.0000
  0
SEQEND
  8
0
  0
POLYLINE
  8
21
 66
1
 10
0.0000
 20
0.0000
 30
0.0000
 40
0.0635
 41
0.0635
 70
0
  0
VERTEX
  8
21
 10
92.6783
 20
19.1755
 30
0.0000
 42
1.0000
  0
VERTEX
  8
21
 10
92.6148
 20
19.1755
 30
0.0000
  0
SEQEND
  8
0
  0
POLYLINE
  8
21
 66
1
 10
0.0000
 20
0.0000
 30
0.0000
 40
0.0635
 41
0.0635
 70
0
  0
VERTEX
  8
21
 10
92.6148
 20
18.9467
 30
0.0000
 42
1.0000
  0
VERTEX
  8
21
 10
92.6783
 20
18.9467
 30
0.0000
  0
SEQEND
  8
0
  0
POLYLINE
  8
21
 66
1
 10
0.0000
 20
0.0000
 30
0.0000
 40
0.1270
 41
0.1270
 70
0
  0
VERTEX
  8
21
 10
92.6465
 20
19.1755
 30
0.0000
  0
VERTEX
  8
21
 10
92.5321
 20
19.2899
 30
0.0000
  0
SEQEND
  8
0
  0
POLYLINE
  8
21
 66
1
 10
0.0000
 20
0.0000
 30
0.0000
 40
0.0635
 41
0.0635
 70
0
  0
VERTEX
  8
21
 10
92.5546
 20
19.3124
 30
0.0000
 42
1.0000
  0
VERTEX
  8
21
 10
92.5097
 20
19.2675
 30
0.0000
  0
SEQEND
  8
0
  0
POLYLINE
  8
21
 66
1
 10
0.0000
 20
0.0000
 30
0.0000
 40
0.0635
 41
0.0635
 70
0
  0
VERTEX
  8
21
 10
92.6240
 20
19.1531
 30
0.0000
 42
1.0000
  0
VERTEX
  8
21
 10
92.6690
 20
19.1980
 30
0.0000
  0
SEQEND
  8
0
  0
POLYLINE
  8
21
 66
1
 10
0.0000
 20
0.0000
 30
0.0000
 40
0.1270
 41
0.1270
 70
0
  0
VERTEX
  8
21
 10
92.5321
 20
19.2899
 30
0.0000
  0
VERTEX
  8
21
 10
92.0745
 20
19.2899
 30
0.0000
  0
SEQEND
  8
0
  0
POLYLINE
  8
21
 66
1
 10
0.0000
 20
0.0000
 30
0.0000
 40
0.0635
 41
0.0635
 70
0
  0
VERTEX
  8
21
 10
92.0745
 20
19.3217
 30
0.0000
 42
1.0000
  0
VERTEX
  8
21
 10
92.0745
 20
19.2582
 30
0.0000
  0
SEQEND
  8
0
  0
POLYLINE
  8
21
 66
1
 10
0.0000
 20
0.0000
 30
0.0000
 40
0.0635
 41
0.0635
 70
0
  0
VERTEX
  8
21
 10
92.5321
 20
19.2582
 30
0.0000
 42
1.0000
  0
VERTEX
  8
21
 10
92.5321
 20
19.3217
 30
0.0000
  0
SEQEND
  8
0
  0
POLYLINE
  8
21
 66
1
 10
0.0000
 20
0.0000
 30
0.0000
 40
0.1270
 41
0.1270
 70
0
  0
VERTEX
  8
21
 10
92.0745
 20
19.2899
 30
0.0000
  0
VERTEX
  8
21
 10
91.9601
 20
19.1755
 30
0.0000
  0
SEQEND
  8
0
  0
POLYLINE
  8
21
 66
1
 10
0.0000
 20
0.0000
 30
0.0000
 40
0.0635
 41
0.0635
 70
0
  0
VERTEX
  8
21
 10
91.9377
 20
19.1980
 30
0.0000
 42
1.0000
  0
VERTEX
  8
21
 10
91.9826
 20
19.1531
 30
0.0000
  0
SEQEND
  8
0
  0
POLYLINE
  8
21
 66
1
 10
0.0000
 20
0.0000
 30
0.0000
 40
0.0635
 41
0.0635
 70
0
  0
VERTEX
  8
21
 10
92.0970
 20
19.2675
 30
0.0000
 42
1.0000
  0
VERTEX
  8
21
 10
92.0521
 20
19.3124
 30
0.0000
  0
SEQEND
  8
0
  0
POLYLINE
  8
21
 66
1
 10
0.0000
 20
0.0000
 30
0.0000
 40
0.1270
 41
0.1270
 70
0
  0
VERTEX
  8
21
 10
92.6465
 20
19.8755
 30
0.0000
  0
VERTEX
  8
21
 10
91.9601
 20
19.8755
 30
0.0000
  0
SEQEND
  8
0
  0
POLYLINE
  8
21
 66
1
 10
0.0000
 20
0.0000
 30
0.0000
 40
0.0635
 41
0.0635
 70
0
  0
VERTEX
  8
21
 10
91.9601
 20
19.9073
 30
0.0000
 42
1.0000
  0
VERTEX
  8
21
 10
91.9601
 20
19.8438
 30
0.0000
  0
SEQEND
  8
0
  0
POLYLINE
  8
21
 66
1
 10
0.0000
 20
0.0000
 30
0.0000
 40
0.0635
 41
0.0635
 70
0
  0
VERTEX
  8
21
 10
92.6465
 20
19.8438
 30
0.0000
 42
1.0000
  0
VERTEX
  8
21
 10
92.6465
 20
19.9073
 30
0.0000
  0
SEQEND
  8
0
  0
POLYLINE
  8
21
 66
1
 10
0.0000
 20
0.0000
 30
0.0000
 40
0.1270
 41
0.1270
 70
0
  0
VERTEX
  8
21
 10
91.9601
 20
19.8755
 30
0.0000
  0
VERTEX
  8
21
 10
91.9601
 20
20.2187
 30
0.0000
  0
SEQEND
  8
0
  0
POLYLINE
  8
21
 66
1
 10
0.0000
 20
0.0000
 30
0.0000
 40
0.0635
 41
0.0635
 70
0
  0
VERTEX
  8
21
 10
91.9919
 20
20.2187
 30
0.0000
 42
1.0000
  0
VERTEX
  8
21
 10
91.9284
 20
20.2187
 30
0.0000
  0
SEQEND
  8
0
  0
POLYLINE
  8
21
 66
1
 10
0.0000
 20
0.0000
 30
0.0000
 40
0.0635
 41
0.0635
 70
0
  0
VERTEX
  8
21
 10
91.9284
 20
19.8755
 30
0.0000
 42
1.0000
  0
VERTEX
  8
21
 10
91.9919
 20
19.8755
 30
0.0000
  0
SEQEND
  8
0
  0
POLYLINE
  8
21
 66
1
 10
0.0000
 20
0.0000
 30
0.0000
 40
0.1270
 41
0.1270
 70
0
  0
VERTEX
  8
21
 10
91.9601
 20
20.2187
 30
0.0000
  0
VERTEX
  8
21
 10
92.0745
 20
20.3331
 30
0.0000
  0
SEQEND
  8
0
  0
POLYLINE
  8
21
 66
1
 10
0.0000
 20
0.0000
 30
0.0000
 40
0.0635
 41
0.0635
 70
0
  0
VERTEX
  8
21
 10
92.0970
 20
20.3106
 30
0.0000
 42
1.0000
  0
VERTEX
  8
21
 10
92.0521
 20
20.3555
 30
0.0000
  0
SEQEND
  8
0
  0
POLYLINE
  8
21
 66
1
 10
0.0000
 20
0.0000
 30
0.0000
 40
0.0635
 41
0.0635
 70
0
  0
VERTEX
  8
21
 10
91.9377
 20
20.2411
 30
0.0000
 42
1.0000
  0
VERTEX
  8
21
 10
91.9826
 20
20.1962
 30
0.0000
  0
SEQEND
  8
0
  0
POLYLINE
  8
21
 66
1
 10
0.0000
 20
0.0000
 30
0.0000
 40
0.1270
 41
0.1270
 70
0
  0
VERTEX
  8
21
 10
92.0745
 20
20.3331
 30
0.0000
  0
VERTEX
  8
21
 10
92.3033
 20
20.3331
 30
0.0000
  0
SEQEND
  8
0
  0
POLYLINE
  8
21
 66
1
 10
0.0000
 20
0.0000
 30
0.0000
 40
0.0635
 41
0.0635
 70
0
  0
VERTEX
  8
21
 10
92.3033
 20
20.3013
 30
0.0000
 42
1.0000
  0
VERTEX
  8
21
 10
92.3033
 20
20.3648
 30
0.0000
  0
SEQEND
  8
0
  0
POLYLINE
  8
21
 66
1
 10
0.0000
 20
0.0000
 30
0.0000
 40
0.0635
 41
0.0635
 70
0
  0
VERTEX
  8
21
 10
92.0745
 20
20.3648
 30
0.0000
 42
1.0000
  0
VERTEX
  8
21
 10
92.0745
 20
20.3013
 30
0.0000
  0
SEQEND
  8
0
  0
POLYLINE
  8
21
 66
1
 10
0.0000
 20
0.0000
 30
0.0000
 40
0.1270
 41
0.1270
 70
0
  0
VERTEX
  8
21
 10
92.3033
 20
20.3331
 30
0.0000
  0
VERTEX
  8
21
 10
92.4177
 20
20.2187
 30
0.0000
  0
SEQEND
  8
0
  0
POLYLINE
  8
21
 66
1
 10
0.0000
 20
0.0000
 30
0.0000
 40
0.0635
 41
0.0635
 70
0
  0
VERTEX
  8
21
 10
92.3953
 20
20.1962
 30
0.0000
 42
1.0000
  0
VERTEX
  8
21
 10
92.4402
 20
20.2411
 30
0.0000
  0
SEQEND
  8
0
  0
POLYLINE
  8
21
 66
1
 10
0.0000
 20
0.0000
 30
0.0000
 40
0.0635
 41
0.0635
 70
0
  0
VERTEX
  8
21
 10
92.3258
 20
20.3555
 30
0.0000
 42
1.0000
  0
VERTEX
  8
21
 10
92.2809
 20
20.3106
 30
0.0000
  0
SEQEND
  8
0
  0
POLYLINE
  8
21
 66
1
 10
0.0000
 20
0.0000
 30
0.0000
 40
0.1270
 41
0.1270
 70
0
  0
VERTEX
  8
21
 10
92.4177
 20
20.2187
 30
0.0000
  0
VERTEX
  8
21
 10
92.4177
 20
19.8755
 30
0.0000
  0
SEQEND
  8
0
  0
POLYLINE
  8
21
 66
1
 10
0.0000
 20
0.0000
 30
0.0000
 40
0.0635
 41
0.0635
 70
0
  0
VERTEX
  8
21
 10
92.3860
 20
19.8755
 30
0.0000
 42
1.0000
  0
VERTEX
  8
21
 10
92.4495
 20
19.8755
 30
0.0000
  0
SEQEND
  8
0
  0
POLYLINE
  8
21
 66
1
 10
0.0000
 20
0.0000
 30
0.0000
 40
0.0635
 41
0.0635
 70
0
  0
VERTEX
  8
21
 10
92.4495
 20
20.2187
 30
0.0000
 42
1.0000
  0
VERTEX
  8
21
 10
92.3860
 20
20.2187
 30
0.0000
  0
SEQEND
  8
0
  0
POLYLINE
  8
21
 66
1
 10
0.0000
 20
0.0000
 30
0.0000
 40
0.1270
 41
0.1270
 70
0
  0
VERTEX
  8
21
 10
92.4177
 20
20.1043
 30
0.0000
  0
VERTEX
  8
21
 10
92.6465
 20
20.3331
 30
0.0000
  0
SEQEND
  8
0
  0
POLYLINE
  8
21
 66
1
 10
0.0000
 20
0.0000
 30
0.0000
 40
0.0635
 41
0.0635
 70
0
  0
VERTEX
  8
21
 10
92.6690
 20
20.3106
 30
0.0000
 42
1.0000
  0
VERTEX
  8
21
 10
92.6240
 20
20.3555
 30
0.0000
  0
SEQEND
  8
0
  0
POLYLINE
  8
21
 66
1
 10
0.0000
 20
0.0000
 30
0.0000
 40
0.0635
 41
0.0635
 70
0
  0
VERTEX
  8
21
 10
92.3953
 20
20.1267
 30
0.0000
 42
1.0000
  0
VERTEX
  8
21
 10
92.4402
 20
20.0818
 30
0.0000
  0
SEQEND
  8
0
  0
POLYLINE
  8
21
 66
1
 10
0.0000
 20
0.0000
 30
0.0000
 40
0.1270
 41
0.1270
 70
0
  0
VERTEX
  8
21
 10
91.9601
 20
20.6239
 30
0.0000
  0
VERTEX
  8
21
 10
92.6465
 20
21.0815
 30
0.0000
  0
SEQEND
  8
0
  0
POLYLINE
  8
21
 66
1
 10
0.0000
 20
0.0000
 30
0.0000
 40
0.0635
 41
0.0635
 70
0
  0
VERTEX
  8
21
 10
92.6641
 20
21.0551
 30
0.0000
 42
1.0000
  0
VERTEX
  8
21
 10
92.6289
 20
21.1079
 30
0.0000
  0
SEQEND
  8
0
  0
POLYLINE
  8
21
 66
1
 10
0.0000
 20
0.0000
 30
0.0000
 40
0.0635
 41
0.0635
 70
0
  0
VERTEX
  8
21
 10
91.9425
 20
20.6503
 30
0.0000
 42
1.0000
  0
VERTEX
  8
21
 10
91.9777
 20
20.5975
 30
0.0000
  0
SEQEND
  8
0
  0
POLYLINE
  8
21
 66
1
 10
0.0000
 20
0.0000
 30
0.0000
 40
0.1270
 41
0.1270
 70
0
  0
VERTEX
  8
21
 10
91.9601
 20
21.0815
 30
0.0000
  0
VERTEX
  8
21
 10
92.6465
 20
20.6239
 30
0.0000
  0
SEQEND
  8
0
  0
POLYLINE
  8
21
 66
1
 10
0.0000
 20
0.0000
 30
0.0000
 40
0.0635
 41
0.0635
 70
0
  0
VERTEX
  8
21
 10
92.6289
 20
20.5975
 30
0.0000
 42
1.0000
  0
VERTEX
  8
21
 10
92.6641
 20
20.6503
 30
0.0000
  0
SEQEND
  8
0
  0
POLYLINE
  8
21
 66
1
 10
0.0000
 20
0.0000
 30
0.0000
 40
0.0635
 41
0.0635
 70
0
  0
VERTEX
  8
21
 10
91.9777
 20
21.1079
 30
0.0000
 42
1.0000
  0
VERTEX
  8
21
 10
91.9425
 20
21.0551
 30
0.0000
  0
SEQEND
  8
0
  0
POLYLINE
  8
21
 66
1
 10
0.0000
 20
0.0000
 30
0.0000
 40
0.1270
 41
0.1270
 70
0
  0
VERTEX
  8
21
 10
92.6465
 20
21.3723
 30
0.0000
  0
VERTEX
  8
21
 10
92.6465
 20
21.6011
 30
0.0000
  0
SEQEND
  8
0
  0
POLYLINE
  8
21
 66
1
 10
0.0000
 20
0.0000
 30
0.0000
 40
0.0635
 41
0.0635
 70
0
  0
VERTEX
  8
21
 10
92.6783
 20
21.6011
 30
0.0000
 42
1.0000
  0
VERTEX
  8
21
 10
92.6148
 20
21.6011
 30
0.0000
  0
SEQEND
  8
0
  0
POLYLINE
  8
21
 66
1
 10
0.0000
 20
0.0000
 30
0.0000
 40
0.0635
 41
0.0635
 70
0
  0
VERTEX
  8
21
 10
92.6148
 20
21.3723
 30
0.0000
 42
1.0000
  0
VERTEX
  8
21
 10
92.6783
 20
21.3723
 30
0.0000
  0
SEQEND
  8
0
  0
POLYLINE
  8
21
 66
1
 10
0.0000
 20
0.0000
 30
0.0000
 40
0.1270
 41
0.1270
 70
0
  0
VERTEX
  8
21
 10
92.6465
 20
21.4867
 30
0.0000
  0
VERTEX
  8
21
 10
91.9601
 20
21.4867
 30
0.0000
  0
SEQEND
  8
0
  0
POLYLINE
  8
21
 66
1
 10
0.0000
 20
0.0000
 30
0.0000
 40
0.0635
 41
0.0635
 70
0
  0
VERTEX
  8
21
 10
91.9601
 20
21.5185
 30
0.0000
 42
1.0000
  0
VERTEX
  8
21
 10
91.9601
 20
21.4550
 30
0.0000
  0
SEQEND
  8
0
  0
POLYLINE
  8
21
 66
1
 10
0.0000
 20
0.0000
 30
0.0000
 40
0.0635
 41
0.0635
 70
0
  0
VERTEX
  8
21
 10
92.6465
 20
21.4550
 30
0.0000
 42
1.0000
  0
VERTEX
  8
21
 10
92.6465
 20
21.5185
 30
0.0000
  0
SEQEND
  8
0
  0
POLYLINE
  8
21
 66
1
 10
0.0000
 20
0.0000
 30
0.0000
 40
0.1270
 41
0.1270
 70
0
  0
VERTEX
  8
21
 10
91.9601
 20
21.3723
 30
0.0000
  0
VERTEX
  8
21
 10
91.9601
 20
21.6011
 30
0.0000
  0
SEQEND
  8
0
  0
POLYLINE
  8
21
 66
1
 10
0.0000
 20
0.0000
 30
0.0000
 40
0.0635
 41
0.0635
 70
0
  0
VERTEX
  8
21
 10
91.9919
 20
21.6011
 30
0.0000
 42
1.0000
  0
VERTEX
  8
21
 10
91.9284
 20
21.6011
 30
0.0000
  0
SEQEND
  8
0
  0
POLYLINE
  8
21
 66
1
 10
0.0000
 20
0.0000
 30
0.0000
 40
0.0635
 41
0.0635
 70
0
  0
VERTEX
  8
21
 10
91.9284
 20
21.3723
 30
0.0000
 42
1.0000
  0
VERTEX
  8
21
 10
91.9919
 20
21.3723
 30
0.0000
  0
SEQEND
  8
0
  0
POLYLINE
  8
21
 66
1
 10
0.0000
 20
0.0000
 30
0.0000
 40
0.1270
 41
0.1270
 70
0
  0
VERTEX
  8
21
 10
91.9601
 20
22.4155
 30
0.0000
  0
VERTEX
  8
21
 10
92.4177
 20
22.4155
 30
0.0000
  0
SEQEND
  8
0
  0
POLYLINE
  8
21
 66
1
 10
0.0000
 20
0.0000
 30
0.0000
 40
0.0635
 41
0.0635
 70
0
  0
VERTEX
  8
21
 10
92.4177
 20
22.3838
 30
0.0000
 42
1.0000
  0
VERTEX
  8
21
 10
92.4177
 20
22.4473
 30
0.0000
  0
SEQEND
  8
0
  0
POLYLINE
  8
21
 66
1
 10
0.0000
 20
0.0000
 30
0.0000
 40
0.0635
 41
0.0635
 70
0
  0
VERTEX
  8
21
 10
91.9601
 20
22.4473
 30
0.0000
 42
1.0000
  0
VERTEX
  8
21
 10
91.9601
 20
22.3838
 30
0.0000
  0
SEQEND
  8
0
  0
POLYLINE
  8
21
 66
1
 10
0.0000
 20
0.0000
 30
0.0000
 40
0.1270
 41
0.1270
 70
0
  0
VERTEX
  8
21
 10
92.4177
 20
22.4155
 30
0.0000
  0
VERTEX
  8
21
 10
92.6465
 20
22.6443
 30
0.0000
  0
SEQEND
  8
0
  0
POLYLINE
  8
21
 66
1
 10
0.0000
 20
0.0000
 30
0.0000
 40
0.0635
 41
0.0635
 70
0
  0
VERTEX
  8
21
 10
92.6690
 20
22.6218
 30
0.0000
 42
1.0000
  0
VERTEX
  8
21
 10
92.6240
 20
22.6667
 30
0.0000
  0
SEQEND
  8
0
  0
POLYLINE
  8
21
 66
1
 10
0.0000
 20
0.0000
 30
0.0000
 40
0.0635
 41
0.0635
 70
0
  0
VERTEX
  8
21
 10
92.3953
 20
22.4380
 30
0.0000
 42
1.0000
  0
VERTEX
  8
21
 10
92.4402
 20
22.3930
 30
0.0000
  0
SEQEND
  8
0
  0
POLYLINE
  8
21
 66
1
 10
0.0000
 20
0.0000
 30
0.0000
 40
0.1270
 41
0.1270
 70
0
  0
VERTEX
  8
21
 10
92.6465
 20
22.6443
 30
0.0000
  0
VERTEX
  8
21
 10
92.4177
 20
22.8731
 30
0.0000
  0
SEQEND
  8
0
  0
POLYLINE
  8
21
 66
1
 10
0.0000
 20
0.0000
 30
0.0000
 40
0.0635
 41
0.0635
 70
0
  0
VERTEX
  8
21
 10
92.4402
 20
22.8955
 30
0.0000
 42
1.0000
  0
VERTEX
  8
21
 10
92.3953
 20
22.8506
 30
0.0000
  0
SEQEND
  8
0
  0
POLYLINE
  8
21
 66
1
 10
0.0000
 20
0.0000
 30
0.0000
 40
0.0635
 41
0.0635
 70
0
  0
VERTEX
  8
21
 10
92.6240
 20
22.6218
 30
0.0000
 42
1.0000
  0
VERTEX
  8
21
 10
92.6690
 20
22.6667
 30
0.0000
  0
SEQEND
  8
0
  0
POLYLINE
  8
21
 66
1
 10
0.0000
 20
0.0000
 30
0.0000
 40
0.1270
 41
0.1270
 70
0
  0
VERTEX
  8
21
 10
92.4177
 20
22.8731
 30
0.0000
  0
VERTEX
  8
21
 10
91.9601
 20
22.8731
 30
0.0000
  0
SEQEND
  8
0
  0
POLYLINE
  8
21
 66
1
 10
0.0000
 20
0.0000
 30
0.0000
 40
0.0635
 41
0.0635
 70
0
  0
VERTEX
  8
21
 10
91.9601
 20
22.9048
 30
0.0000
 42
1.0000
  0
VERTEX
  8
21
 10
91.9601
 20
22.8413
 30
0.0000
  0
SEQEND
  8
0
  0
POLYLINE
  8
21
 66
1
 10
0.0000
 20
0.0000
 30
0.0000
 40
0.0635
 41
0.0635
 70
0
  0
VERTEX
  8
21
 10
92.4177
 20
22.8413
 30
0.0000
 42
1.0000
  0
VERTEX
  8
21
 10
92.4177
 20
22.9048
 30
0.0000
  0
SEQEND
  8
0
  0
POLYLINE
  8
21
 66
1
 10
0.0000
 20
0.0000
 30
0.0000
 40
0.1270
 41
0.1270
 70
0
  0
VERTEX
  8
21
 10
92.0745
 20
23.6215
 30
0.0000
  0
VERTEX
  8
21
 10
91.9601
 20
23.5071
 30
0.0000
  0
SEQEND
  8
0
  0
POLYLINE
  8
21
 66
1
 10
0.0000
 20
0.0000
 30
0.0000
 40
0.0635
 41
0.0635
 70
0
  0
VERTEX
  8
21
 10
91.9377
 20
23.5296
 30
0.0000
 42
1.0000
  0
VERTEX
  8
21
 10
91.9826
 20
23.4847
 30
0.0000
  0
SEQEND
  8
0
  0
POLYLINE
  8
21
 66
1
 10
0.0000
 20
0.0000
 30
0.0000
 40
0.0635
 41
0.0635
 70
0
  0
VERTEX
  8
21
 10
92.0970
 20
23.5991
 30
0.0000
 42
1.0000
  0
VERTEX
  8
21
 10
92.0521
 20
23.6440
 30
0.0000
  0
SEQEND
  8
0
  0
POLYLINE
  8
21
 66
1
 10
0.0000
 20
0.0000
 30
0.0000
 40
0.1270
 41
0.1270
 70
0
  0
VERTEX
  8
21
 10
91.9601
 20
23.5071
 30
0.0000
  0
VERTEX
  8
21
 10
91.9601
 20
23.2783
 30
0.0000
  0
SEQEND
  8
0
  0
POLYLINE
  8
21
 66
1
 10
0.0000
 20
0.0000
 30
0.0000
 40
0.0635
 41
0.0635
 70
0
  0
VERTEX
  8
21
 10
91.9284
 20
23.2783
 30
0.0000
 42
1.0000
  0
VERTEX
  8
21
 10
91.9919
 20
23.2783
 30
0.0000
  0
SEQEND
  8
0
  0
POLYLINE
  8
21
 66
1
 10
0.0000
 20
0.0000
 30
0.0000
 40
0.0635
 41
0.0635
 70
0
  0
VERTEX
  8
21
 10
91.9919
 20
23.5071
 30
0.0000
 42
1.0000
  0
VERTEX
  8
21
 10
91.9284
 20
23.5071
 30
0.0000
  0
SEQEND
  8
0
  0
POLYLINE
  8
21
 66
1
 10
0.0000
 20
0.0000
 30
0.0000
 40
0.1270
 41
0.1270
 70
0
  0
VERTEX
  8
21
 10
91.9601
 20
23.2783
 30
0.0000
  0
VERTEX
  8
21
 10
92.0745
 20
23.1639
 30
0.0000
  0
SEQEND
  8
0
  0
POLYLINE
  8
21
 66
1
 10
0.0000
 20
0.0000
 30
0.0000
 40
0.0635
 41
0.0635
 70
0
  0
VERTEX
  8
21
 10
92.0521
 20
23.1415
 30
0.0000
 42
1.0000
  0
VERTEX
  8
21
 10
92.0970
 20
23.1864
 30
0.0000
  0
SEQEND
  8
0
  0
POLYLINE
  8
21
 66
1
 10
0.0000
 20
0.0000
 30
0.0000
 40
0.0635
 41
0.0635
 70
0
  0
VERTEX
  8
21
 10
91.9826
 20
23.3008
 30
0.0000
 42
1.0000
  0
VERTEX
  8
21
 10
91.9377
 20
23.2559
 30
0.0000
  0
SEQEND
  8
0
  0
POLYLINE
  8
21
 66
1
 10
0.0000
 20
0.0000
 30
0.0000
 40
0.1270
 41
0.1270
 70
0
  0
VERTEX
  8
21
 10
92.0745
 20
23.1639
 30
0.0000
  0
VERTEX
  8
21
 10
92.5321
 20
23.1639
 30
0.0000
  0
SEQEND
  8
0
  0
POLYLINE
  8
21
 66
1
 10
0.0000
 20
0.0000
 30
0.0000
 40
0.0635
 41
0.0635
 70
0
  0
VERTEX
  8
21
 10
92.5321
 20
23.1322
 30
0.0000
 42
1.0000
  0
VERTEX
  8
21
 10
92.5321
 20
23.1957
 30
0.0000
  0
SEQEND
  8
0
  0
POLYLINE
  8
21
 66
1
 10
0.0000
 20
0.0000
 30
0.0000
 40
0.0635
 41
0.0635
 70
0
  0
VERTEX
  8
21
 10
92.0745
 20
23.1957
 30
0.0000
 42
1.0000
  0
VERTEX
  8
21
 10
92.0745
 20
23.1322
 30
0.0000
  0
SEQEND
  8
0
  0
POLYLINE
  8
21
 66
1
 10
0.0000
 20
0.0000
 30
0.0000
 40
0.1270
 41
0.1270
 70
0
  0
VERTEX
  8
21
 10
92.5321
 20
23.1639
 30
0.0000
  0
VERTEX
  8
21
 10
92.6465
 20
23.2783
 30
0.0000
  0
SEQEND
  8
0
  0
POLYLINE
  8
21
 66
1
 10
0.0000
 20
0.0000
 30
0.0000
 40
0.0635
 41
0.0635
 70
0
  0
VERTEX
  8
21
 10
92.6690
 20
23.2559
 30
0.0000
 42
1.0000
  0
VERTEX
  8
21
 10
92.6240
 20
23.3008
 30
0.0000
  0
SEQEND
  8
0
  0
POLYLINE
  8
21
 66
1
 10
0.0000
 20
0.0000
 30
0.0000
 40
0.0635
 41
0.0635
 70
0
  0
VERTEX
  8
21
 10
92.5097
 20
23.1864
 30
0.0000
 42
1.0000
  0
VERTEX
  8
21
 10
92.5546
 20
23.1415
 30
0.0000
  0
SEQEND
  8
0
  0
POLYLINE
  8
21
 66
1
 10
0.0000
 20
0.0000
 30
0.0000
 40
0.1270
 41
0.1270
 70
0
  0
VERTEX
  8
21
 10
92.6465
 20
23.2783
 30
0.0000
  0
VERTEX
  8
21
 10
92.6465
 20
23.5071
 30
0.0000
  0
SEQEND
  8
0
  0
POLYLINE
  8
21
 66
1
 10
0.0000
 20
0.0000
 30
0.0000
 40
0.0635
 41
0.0635
 70
0
  0
VERTEX
  8
21
 10
92.6783
 20
23.5071
 30
0.0000
 42
1.0000
  0
VERTEX
  8
21
 10
92.6148
 20
23.5071
 30
0.0000
  0
SEQEND
  8
0
  0
POLYLINE
  8
21
 66
1
 10
0.0000
 20
0.0000
 30
0.0000
 40
0.0635
 41
0.0635
 70
0
  0
VERTEX
  8
21
 10
92.6148
 20
23.2783
 30
0.0000
 42
1.0000
  0
VERTEX
  8
21
 10
92.6783
 20
23.2783
 30
0.0000
  0
SEQEND
  8
0
  0
POLYLINE
  8
21
 66
1
 10
0.0000
 20
0.0000
 30
0.0000
 40
0.1270
 41
0.1270
 70
0
  0
VERTEX
  8
21
 10
92.6465
 20
23.5071
 30
0.0000
  0
VERTEX
  8
21
 10
92.5321
 20
23.6215
 30
0.0000
  0
SEQEND
  8
0
  0
POLYLINE
  8
21
 66
1
 10
0.0000
 20
0.0000
 30
0.0000
 40
0.0635
 41
0.0635
 70
0
  0
VERTEX
  8
21
 10
92.5546
 20
23.6440
 30
0.0000
 42
1.0000
  0
VERTEX
  8
21
 10
92.5097
 20
23.5991
 30
0.0000
  0
SEQEND
  8
0
  0
POLYLINE
  8
21
 66
1
 10
0.0000
 20
0.0000
 30
0.0000
 40
0.0635
 41
0.0635
 70
0
  0
VERTEX
  8
21
 10
92.6240
 20
23.4847
 30
0.0000
 42
1.0000
  0
VERTEX
  8
21
 10
92.6690
 20
23.5296
 30
0.0000
  0
SEQEND
  8
0
  0
POLYLINE
  8
21
 66
1
 10
0.0000
 20
0.0000
 30
0.0000
 40
0.1270
 41
0.1270
 70
0
  0
VERTEX
  8
21
 10
92.0745
 20
24.3699
 30
0.0000
  0
VERTEX
  8
21
 10
91.9601
 20
24.2555
 30
0.0000
  0
SEQEND
  8
0
  0
POLYLINE
  8
21
 66
1
 10
0.0000
 20
0.0000
 30
0.0000
 40
0.0635
 41
0.0635
 70
0
  0
VERTEX
  8
21
 10
91.9377
 20
24.2780
 30
0.0000
 42
1.0000
  0
VERTEX
  8
21
 10
91.9826
 20
24.2331
 30
0.0000
  0
SEQEND
  8
0
  0
POLYLINE
  8
21
 66
1
 10
0.0000
 20
0.0000
 30
0.0000
 40
0.0635
 41
0.0635
 70
0
  0
VERTEX
  8
21
 10
92.0970
 20
24.3475
 30
0.0000
 42
1.0000
  0
VERTEX
  8
21
 10
92.0521
 20
24.3924
 30
0.0000
  0
SEQEND
  8
0
  0
POLYLINE
  8
21
 66
1
 10
0.0000
 20
0.0000
 30
0.0000
 40
0.1270
 41
0.1270
 70
0
  0
VERTEX
  8
21
 10
91.9601
 20
24.2555
 30
0.0000
  0
VERTEX
  8
21
 10
91.9601
 20
24.0267
 30
0.0000
  0
SEQEND
  8
0
  0
POLYLINE
  8
21
 66
1
 10
0.0000
 20
0.0000
 30
0.0000
 40
0.0635
 41
0.0635
 70
0
  0
VERTEX
  8
21
 10
91.9284
 20
24.0267
 30
0.0000
 42
1.0000
  0
VERTEX
  8
21
 10
91.9919
 20
24.0267
 30
0.0000
  0
SEQEND
  8
0
  0
POLYLINE
  8
21
 66
1
 10
0.0000
 20
0.0000
 30
0.0000
 40
0.0635
 41
0.0635
 70
0
  0
VERTEX
  8
21
 10
91.9919
 20
24.2555
 30
0.0000
 42
1.0000
  0
VERTEX
  8
21
 10
91.9284
 20
24.2555
 30
0.0000
  0
SEQEND
  8
0
  0
POLYLINE
  8
21
 66
1
 10
0.0000
 20
0.0000
 30
0.0000
 40
0.1270
 41
0.1270
 70
0
  0
VERTEX
  8
21
 10
91.9601
 20
24.0267
 30
0.0000
  0
VERTEX
  8
21
 10
92.0745
 20
23.9123
 30
0.0000
  0
SEQEND
  8
0
  0
POLYLINE
  8
21
 66
1
 10
0.0000
 20
0.0000
 30
0.0000
 40
0.0635
 41
0.0635
 70
0
  0
VERTEX
  8
21
 10
92.0521
 20
23.8899
 30
0.0000
 42
1.0000
  0
VERTEX
  8
21
 10
92.0970
 20
23.9348
 30
0.0000
  0
SEQEND
  8
0
  0
POLYLINE
  8
21
 66
1
 10
0.0000
 20
0.0000
 30
0.0000
 40
0.0635
 41
0.0635
 70
0
  0
VERTEX
  8
21
 10
91.9826
 20
24.0492
 30
0.0000
 42
1.0000
  0
VERTEX
  8
21
 10
91.9377
 20
24.0043
 30
0.0000
  0
SEQEND
  8
0
  0
POLYLINE
  8
21
 66
1
 10
0.0000
 20
0.0000
 30
0.0000
 40
0.1270
 41
0.1270
 70
0
  0
VERTEX
  8
21
 10
92.0745
 20
23.9123
 30
0.0000
  0
VERTEX
  8
21
 10
92.5321
 20
23.9123
 30
0.0000
  0
SEQEND
  8
0
  0
POLYLINE
  8
21
 66
1
 10
0.0000
 20
0.0000
 30
0.0000
 40
0.0635
 41
0.0635
 70
0
  0
VERTEX
  8
21
 10
92.5321
 20
23.8806
 30
0.0000
 42
1.0000
  0
VERTEX
  8
21
 10
92.5321
 20
23.9441
 30
0.0000
  0
SEQEND
  8
0
  0
POLYLINE
  8
21
 66
1
 10
0.0000
 20
0.0000
 30
0.0000
 40
0.0635
 41
0.0635
 70
0
  0
VERTEX
  8
21
 10
92.0745
 20
23.9441
 30
0.0000
 42
1.0000
  0
VERTEX
  8
21
 10
92.0745
 20
23.8806
 30
0.0000
  0
SEQEND
  8
0
  0
POLYLINE
  8
21
 66
1
 10
0.0000
 20
0.0000
 30
0.0000
 40
0.1270
 41
0.1270
 70
0
  0
VERTEX
  8
21
 10
92.5321
 20
23.9123
 30
0.0000
  0
VERTEX
  8
21
 10
92.6465
 20
24.0267
 30
0.0000
  0
SEQEND
  8
0
  0
POLYLINE
  8
21
 66
1
 10
0.0000
 20
0.0000
 30
0.0000
 40
0.0635
 41
0.0635
 70
0
  0
VERTEX
  8
21
 10
92.6690
 20
24.0043
 30
0.0000
 42
1.0000
  0
VERTEX
  8
21
 10
92.6240
 20
24.0492
 30
0.0000
  0
SEQEND
  8
0
  0
POLYLINE
  8
21
 66
1
 10
0.0000
 20
0.0000
 30
0.0000
 40
0.0635
 41
0.0635
 70
0
  0
VERTEX
  8
21
 10
92.5097
 20
23.9348
 30
0.0000
 42
1.0000
  0
VERTEX
  8
21
 10
92.5546
 20
23.8899
 30
0.0000
  0
SEQEND
  8
0
  0
POLYLINE
  8
21
 66
1
 10
0.0000
 20
0.0000
 30
0.0000
 40
0.1270
 41
0.1270
 70
0
  0
VERTEX
  8
21
 10
92.6465
 20
24.0267
 30
0.0000
  0
VERTEX
  8
21
 10
92.6465
 20
24.2555
 30
0.0000
  0
SEQEND
  8
0
  0
POLYLINE
  8
21
 66
1
 10
0.0000
 20
0.0000
 30
0.0000
 40
0.0635
 41
0.0635
 70
0
  0
VERTEX
  8
21
 10
92.6783
 20
24.2555
 30
0.0000
 42
1.0000
  0
VERTEX
  8
21
 10
92.6148
 20
24.2555
 30
0.0000
  0
SEQEND
  8
0
  0
POLYLINE
  8
21
 66
1
 10
0.0000
 20
0.0000
 30
0.0000
 40
0.0635
 41
0.0635
 70
0
  0
VERTEX
  8
21
 10
92.6148
 20
24.0267
 30
0.0000
 42
1.0000
  0
VERTEX
  8
21
 10
92.6783
 20
24.0267
 30
0.0000
  0
SEQEND
  8
0
  0
POLYLINE
  8
21
 66
1
 10
0.0000
 20
0.0000
 30
0.0000
 40
0.1270
 41
0.1270
 70
0
  0
VERTEX
  8
21
 10
92.6465
 20
24.2555
 30
0.0000
  0
VERTEX
  8
21
 10
92.5321
 20
24.3699
 30
0.0000
  0
SEQEND
  8
0
  0
POLYLINE
  8
21
 66
1
 10
0.0000
 20
0.0000
 30
0.0000
 40
0.0635
 41
0.0635
 70
0
  0
VERTEX
  8
21
 10
92.5546
 20
24.3924
 30
0.0000
 42
1.0000
  0
VERTEX
  8
21
 10
92.5097
 20
24.3475
 30
0.0000
  0
SEQEND
  8
0
  0
POLYLINE
  8
21
 66
1
 10
0.0000
 20
0.0000
 30
0.0000
 40
0.0635
 41
0.0635
 70
0
  0
VERTEX
  8
21
 10
92.6240
 20
24.2331
 30
0.0000
 42
1.0000
  0
VERTEX
  8
21
 10
92.6690
 20
24.2780
 30
0.0000
  0
SEQEND
  8
0
  0
POLYLINE
  8
21
 66
1
 10
0.0000
 20
0.0000
 30
0.0000
 40
0.1270
 41
0.1270
 70
0
  0
VERTEX
  8
21
 10
91.9601
 20
14.7955
 30
0.0000
  0
VERTEX
  8
21
 10
92.6465
 20
14.7955
 30
0.0000
  0
SEQEND
  8
0
  0
POLYLINE
  8
21
 66
1
 10
0.0000
 20
0.0000
 30
0.0000
 40
0.0635
 41
0.0635
 70
0
  0
VERTEX
  8
21
 10
92.6465
 20
14.7637
 30
0.0000
 42
1.0000
  0
VERTEX
  8
21
 10
92.6465
 20
14.8273
 30
0.0000
  0
SEQEND
  8
0
  0
POLYLINE
  8
21
 66
1
 10
0.0000
 20
0.0000
 30
0.0000
 40
0.0635
 41
0.0635
 70
0
  0
VERTEX
  8
21
 10
91.9601
 20
14.8273
 30
0.0000
 42
1.0000
  0
VERTEX
  8
21
 10
91.9601
 20
14.7637
 30
0.0000
  0
SEQEND
  8
0
  0
POLYLINE
  8
21
 66
1
 10
0.0000
 20
0.0000
 30
0.0000
 40
0.1270
 41
0.1270
 70
0
  0
VERTEX
  8
21
 10
92.6465
 20
14.7955
 30
0.0000
  0
VERTEX
  8
21
 10
92.6465
 20
15.1387
 30
0.0000
  0
SEQEND
  8
0
  0
POLYLINE
  8
21
 66
1
 10
0.0000
 20
0.0000
 30
0.0000
 40
0.0635
 41
0.0635
 70
0
  0
VERTEX
  8
21
 10
92.6783
 20
15.1387
 30
0.0000
 42
1.0000
  0
VERTEX
  8
21
 10
92.6148
 20
15.1387
 30
0.0000
  0
SEQEND
  8
0
  0
POLYLINE
  8
21
 66
1
 10
0.0000
 20
0.0000
 30
0.0000
 40
0.0635
 41
0.0635
 70
0
  0
VERTEX
  8
21
 10
92.6148
 20
14.7955
 30
0.0000
 42
1.0000
  0
VERTEX
  8
21
 10
92.6783
 20
14.7955
 30
0.0000
  0
SEQEND
  8
0
  0
POLYLINE
  8
21
 66
1
 10
0.0000
 20
0.0000
 30
0.0000
 40
0.1270
 41
0.1270
 70
0
  0
VERTEX
  8
21
 10
92.6465
 20
15.1387
 30
0.0000
  0
VERTEX
  8
21
 10
92.5321
 20
15.2531
 30
0.0000
  0
SEQEND
  8
0
  0
POLYLINE
  8
21
 66
1
 10
0.0000
 20
0.0000
 30
0.0000
 40
0.0635
 41
0.0635
 70
0
  0
VERTEX
  8
21
 10
92.5546
 20
15.2755
 30
0.0000
 42
1.0000
  0
VERTEX
  8
21
 10
92.5097
 20
15.2306
 30
0.0000
  0
SEQEND
  8
0
  0
POLYLINE
  8
21
 66
1
 10
0.0000
 20
0.0000
 30
0.0000
 40
0.0635
 41
0.0635
 70
0
  0
VERTEX
  8
21
 10
92.6240
 20
15.1162
 30
0.0000
 42
1.0000
  0
VERTEX
  8
21
 10
92.6690
 20
15.1611
 30
0.0000
  0
SEQEND
  8
0
  0
POLYLINE
  8
21
 66
1
 10
0.0000
 20
0.0000
 30
0.0000
 40
0.1270
 41
0.1270
 70
0
  0
VERTEX
  8
21
 10
92.5321
 20
15.2531
 30
0.0000
  0
VERTEX
  8
21
 10
92.0745
 20
15.2531
 30
0.0000
  0
SEQEND
  8
0
  0
POLYLINE
  8
21
 66
1
 10
0.0000
 20
0.0000
 30
0.0000
 40
0.0635
 41
0.0635
 70
0
  0
VERTEX
  8
21
 10
92.0745
 20
15.2848
 30
0.0000
 42
1.0000
  0
VERTEX
  8
21
 10
92.0745
 20
15.2213
 30
0.0000
  0
SEQEND
  8
0
  0
POLYLINE
  8
21
 66
1
 10
0.0000
 20
0.0000
 30
0.0000
 40
0.0635
 41
0.0635
 70
0
  0
VERTEX
  8
21
 10
92.5321
 20
15.2213
 30
0.0000
 42
1.0000
  0
VERTEX
  8
21
 10
92.5321
 20
15.2848
 30
0.0000
  0
SEQEND
  8
0
  0
POLYLINE
  8
21
 66
1
 10
0.0000
 20
0.0000
 30
0.0000
 40
0.1270
 41
0.1270
 70
0
  0
VERTEX
  8
21
 10
92.0745
 20
15.2531
 30
0.0000
  0
VERTEX
  8
21
 10
91.9601
 20
15.1387
 30
0.0000
  0
SEQEND
  8
0
  0
POLYLINE
  8
21
 66
1
 10
0.0000
 20
0.0000
 30
0.0000
 40
0.0635
 41
0.0635
 70
0
  0
VERTEX
  8
21
 10
91.9377
 20
15.1611
 30
0.0000
 42
1.0000
  0
VERTEX
  8
21
 10
91.9826
 20
15.1162
 30
0.0000
  0
SEQEND
  8
0
  0
POLYLINE
  8
21
 66
1
 10
0.0000
 20
0.0000
 30
0.0000
 40
0.0635
 41
0.0635
 70
0
  0
VERTEX
  8
21
 10
92.0970
 20
15.2306
 30
0.0000
 42
1.0000
  0
VERTEX
  8
21
 10
92.0521
 20
15.2755
 30
0.0000
  0
SEQEND
  8
0
  0
POLYLINE
  8
21
 66
1
 10
0.0000
 20
0.0000
 30
0.0000
 40
0.1270
 41
0.1270
 70
0
  0
VERTEX
  8
21
 10
91.9601
 20
15.1387
 30
0.0000
  0
VERTEX
  8
21
 10
91.9601
 20
14.7955
 30
0.0000
  0
SEQEND
  8
0
  0
POLYLINE
  8
21
 66
1
 10
0.0000
 20
0.0000
 30
0.0000
 40
0.0635
 41
0.0635
 70
0
  0
VERTEX
  8
21
 10
91.9284
 20
14.7955
 30
0.0000
 42
1.0000
  0
VERTEX
  8
21
 10
91.9919
 20
14.7955
 30
0.0000
  0
SEQEND
  8
0
  0
POLYLINE
  8
21
 66
1
 10
0.0000
 20
0.0000
 30
0.0000
 40
0.0635
 41
0.0635
 70
0
  0
VERTEX
  8
21
 10
91.9919
 20
15.1387
 30
0.0000
 42
1.0000
  0
VERTEX
  8
21
 10
91.9284
 20
15.1387
 30
0.0000
  0
SEQEND
  8
0
  0
POLYLINE
  8
21
 66
1
 10
0.0000
 20
0.0000
 30
0.0000
 40
0.1270
 41
0.1270
 70
0
  0
VERTEX
  8
21
 10
92.6465
 20
15.7727
 30
0.0000
  0
VERTEX
  8
21
 10
91.9601
 20
15.7727
 30
0.0000
  0
SEQEND
  8
0
  0
POLYLINE
  8
21
 66
1
 10
0.0000
 20
0.0000
 30
0.0000
 40
0.0635
 41
0.0635
 70
0
  0
VERTEX
  8
21
 10
91.9601
 20
15.8045
 30
0.0000
 42
1.0000
  0
VERTEX
  8
21
 10
91.9601
 20
15.7410
 30
0.0000
  0
SEQEND
  8
0
  0
POLYLINE
  8
21
 66
1
 10
0.0000
 20
0.0000
 30
0.0000
 40
0.0635
 41
0.0635
 70
0
  0
VERTEX
  8
21
 10
92.6465
 20
15.7410
 30
0.0000
 42
1.0000
  0
VERTEX
  8
21
 10
92.6465
 20
15.8045
 30
0.0000
  0
SEQEND
  8
0
  0
POLYLINE
  8
21
 66
1
 10
0.0000
 20
0.0000
 30
0.0000
 40
0.1270
 41
0.1270
 70
0
  0
VERTEX
  8
21
 10
91.9601
 20
15.5439
 30
0.0000
  0
VERTEX
  8
21
 10
91.9601
 20
16.0015
 30
0.0000
  0
SEQEND
  8
0
  0
POLYLINE
  8
21
 66
1
 10
0.0000
 20
0.0000
 30
0.0000
 40
0.0635
 41
0.0635
 70
0
  0
VERTEX
  8
21
 10
91.9919
 20
16.0015
 30
0.0000
 42
1.0000
  0
VERTEX
  8
21
 10
91.9284
 20
16.0015
 30
0.0000
  0
SEQEND
  8
0
  0
POLYLINE
  8
21
 66
1
 10
0.0000
 20
0.0000
 30
0.0000
 40
0.0635
 41
0.0635
 70
0
  0
VERTEX
  8
21
 10
91.9284
 20
15.5439
 30
0.0000
 42
1.0000
  0
VERTEX
  8
21
 10
91.9919
 20
15.5439
 30
0.0000
  0
SEQEND
  8
0
  0
POLYLINE
  8
21
 66
1
 10
0.0000
 20
0.0000
 30
0.0000
 40
0.1270
 41
0.1270
 70
0
  0
VERTEX
  8
21
 10
92.6465
 20
16.2923
 30
0.0000
  0
VERTEX
  8
21
 10
91.9601
 20
16.2923
 30
0.0000
  0
SEQEND
  8
0
  0
POLYLINE
  8
21
 66
1
 10
0.0000
 20
0.0000
 30
0.0000
 40
0.0635
 41
0.0635
 70
0
  0
VERTEX
  8
21
 10
91.9601
 20
16.3241
 30
0.0000
 42
1.0000
  0
VERTEX
  8
21
 10
91.9601
 20
16.2606
 30
0.0000
  0
SEQEND
  8
0
  0
POLYLINE
  8
21
 66
1
 10
0.0000
 20
0.0000
 30
0.0000
 40
0.0635
 41
0.0635
 70
0
  0
VERTEX
  8
21
 10
92.6465
 20
16.2606
 30
0.0000
 42
1.0000
  0
VERTEX
  8
21
 10
92.6465
 20
16.3241
 30
0.0000
  0
SEQEND
  8
0
  0
POLYLINE
  8
21
 66
1
 10
0.0000
 20
0.0000
 30
0.0000
 40
0.1270
 41
0.1270
 70
0
  0
VERTEX
  8
21
 10
91.9601
 20
16.2923
 30
0.0000
  0
VERTEX
  8
21
 10
91.9601
 20
16.6355
 30
0.0000
  0
SEQEND
  8
0
  0
POLYLINE
  8
21
 66
1
 10
0.0000
 20
0.0000
 30
0.0000
 40
0.0635
 41
0.0635
 70
0
  0
VERTEX
  8
21
 10
91.9919
 20
16.6355
 30
0.0000
 42
1.0000
  0
VERTEX
  8
21
 10
91.9284
 20
16.6355
 30
0.0000
  0
SEQEND
  8
0
  0
POLYLINE
  8
21
 66
1
 10
0.0000
 20
0.0000
 30
0.0000
 40
0.0635
 41
0.0635
 70
0
  0
VERTEX
  8
21
 10
91.9284
 20
16.2923
 30
0.0000
 42
1.0000
  0
VERTEX
  8
21
 10
91.9919
 20
16.2923
 30
0.0000
  0
SEQEND
  8
0
  0
POLYLINE
  8
21
 66
1
 10
0.0000
 20
0.0000
 30
0.0000
 40
0.1270
 41
0.1270
 70
0
  0
VERTEX
  8
21
 10
91.9601
 20
16.6355
 30
0.0000
  0
VERTEX
  8
21
 10
92.0745
 20
16.7499
 30
0.0000
  0
SEQEND
  8
0
  0
POLYLINE
  8
21
 66
1
 10
0.0000
 20
0.0000
 30
0.0000
 40
0.0635
 41
0.0635
 70
0
  0
VERTEX
  8
21
 10
92.0970
 20
16.7275
 30
0.0000
 42
1.0000
  0
VERTEX
  8
21
 10
92.0521
 20
16.7724
 30
0.0000
  0
SEQEND
  8
0
  0
POLYLINE
  8
21
 66
1
 10
0.0000
 20
0.0000
 30
0.0000
 40
0.0635
 41
0.0635
 70
0
  0
VERTEX
  8
21
 10
91.9377
 20
16.6580
 30
0.0000
 42
1.0000
  0
VERTEX
  8
21
 10
91.9826
 20
16.6131
 30
0.0000
  0
SEQEND
  8
0
  0
POLYLINE
  8
21
 66
1
 10
0.0000
 20
0.0000
 30
0.0000
 40
0.1270
 41
0.1270
 70
0
  0
VERTEX
  8
21
 10
92.0745
 20
16.7499
 30
0.0000
  0
VERTEX
  8
21
 10
92.3033
 20
16.7499
 30
0.0000
  0
SEQEND
  8
0
  0
POLYLINE
  8
21
 66
1
 10
0.0000
 20
0.0000
 30
0.0000
 40
0.0635
 41
0.0635
 70
0
  0
VERTEX
  8
21
 10
92.3033
 20
16.7182
 30
0.0000
 42
1.0000
  0
VERTEX
  8
21
 10
92.3033
 20
16.7817
 30
0.0000
  0
SEQEND
  8
0
  0
POLYLINE
  8
21
 66
1
 10
0.0000
 20
0.0000
 30
0.0000
 40
0.0635
 41
0.0635
 70
0
  0
VERTEX
  8
21
 10
92.0745
 20
16.7817
 30
0.0000
 42
1.0000
  0
VERTEX
  8
21
 10
92.0745
 20
16.7182
 30
0.0000
  0
SEQEND
  8
0
  0
POLYLINE
  8
21
 66
1
 10
0.0000
 20
0.0000
 30
0.0000
 40
0.1270
 41
0.1270
 70
0
  0
VERTEX
  8
21
 10
92.3033
 20
16.7499
 30
0.0000
  0
VERTEX
  8
21
 10
92.4177
 20
16.6355
 30
0.0000
  0
SEQEND
  8
0
  0
POLYLINE
  8
21
 66
1
 10
0.0000
 20
0.0000
 30
0.0000
 40
0.0635
 41
0.0635
 70
0
  0
VERTEX
  8
21
 10
92.3953
 20
16.6131
 30
0.0000
 42
1.0000
  0
VERTEX
  8
21
 10
92.4402
 20
16.6580
 30
0.0000
  0
SEQEND
  8
0
  0
POLYLINE
  8
21
 66
1
 10
0.0000
 20
0.0000
 30
0.0000
 40
0.0635
 41
0.0635
 70
0
  0
VERTEX
  8
21
 10
92.3258
 20
16.7724
 30
0.0000
 42
1.0000
  0
VERTEX
  8
21
 10
92.2809
 20
16.7275
 30
0.0000
  0
SEQEND
  8
0
  0
POLYLINE
  8
21
 66
1
 10
0.0000
 20
0.0000
 30
0.0000
 40
0.1270
 41
0.1270
 70
0
  0
VERTEX
  8
21
 10
92.4177
 20
16.6355
 30
0.0000
  0
VERTEX
  8
21
 10
92.4177
 20
16.2923
 30
0.0000
  0
SEQEND
  8
0
  0
POLYLINE
  8
21
 66
1
 10
0.0000
 20
0.0000
 30
0.0000
 40
0.0635
 41
0.0635
 70
0
  0
VERTEX
  8
21
 10
92.3860
 20
16.2923
 30
0.0000
 42
1.0000
  0
VERTEX
  8
21
 10
92.4495
 20
16.2923
 30
0.0000
  0
SEQEND
  8
0
  0
POLYLINE
  8
21
 66
1
 10
0.0000
 20
0.0000
 30
0.0000
 40
0.0635
 41
0.0635
 70
0
  0
VERTEX
  8
21
 10
92.4495
 20
16.6355
 30
0.0000
 42
1.0000
  0
VERTEX
  8
21
 10
92.3860
 20
16.6355
 30
0.0000
  0
SEQEND
  8
0
  0
POLYLINE
  8
21
 66
1
 10
0.0000
 20
0.0000
 30
0.0000
 40
0.1270
 41
0.1270
 70
0
  0
VERTEX
  8
21
 10
92.4177
 20
16.5211
 30
0.0000
  0
VERTEX
  8
21
 10
92.6465
 20
16.7499
 30
0.0000
  0
SEQEND
  8
0
  0
POLYLINE
  8
21
 66
1
 10
0.0000
 20
0.0000
 30
0.0000
 40
0.0635
 41
0.0635
 70
0
  0
VERTEX
  8
21
 10
92.6690
 20
16.7275
 30
0.0000
 42
1.0000
  0
VERTEX
  8
21
 10
92.6240
 20
16.7724
 30
0.0000
  0
SEQEND
  8
0
  0
POLYLINE
  8
21
 66
1
 10
0.0000
 20
0.0000
 30
0.0000
 40
0.0635
 41
0.0635
 70
0
  0
VERTEX
  8
21
 10
92.3953
 20
16.5436
 30
0.0000
 42
1.0000
  0
VERTEX
  8
21
 10
92.4402
 20
16.4987
 30
0.0000
  0
SEQEND
  8
0
  0
POLYLINE
  8
21
 66
1
 10
0.0000
 20
0.0000
 30
0.0000
 40
0.1270
 41
0.1270
 70
0
  0
VERTEX
  8
21
 10
92.0745
 20
27.9531
 30
0.0000
  0
VERTEX
  8
21
 10
91.9601
 20
27.8387
 30
0.0000
  0
SEQEND
  8
0
  0
POLYLINE
  8
21
 66
1
 10
0.0000
 20
0.0000
 30
0.0000
 40
0.0635
 41
0.0635
 70
0
  0
VERTEX
  8
21
 10
91.9377
 20
27.8611
 30
0.0000
 42
1.0000
  0
VERTEX
  8
21
 10
91.9826
 20
27.8162
 30
0.0000
  0
SEQEND
  8
0
  0
POLYLINE
  8
21
 66
1
 10
0.0000
 20
0.0000
 30
0.0000
 40
0.0635
 41
0.0635
 70
0
  0
VERTEX
  8
21
 10
92.0970
 20
27.9306
 30
0.0000
 42
1.0000
  0
VERTEX
  8
21
 10
92.0521
 20
27.9755
 30
0.0000
  0
SEQEND
  8
0
  0
POLYLINE
  8
21
 66
1
 10
0.0000
 20
0.0000
 30
0.0000
 40
0.1270
 41
0.1270
 70
0
  0
VERTEX
  8
21
 10
91.9601
 20
27.8387
 30
0.0000
  0
VERTEX
  8
21
 10
91.9601
 20
27.6099
 30
0.0000
  0
SEQEND
  8
0
  0
POLYLINE
  8
21
 66
1
 10
0.0000
 20
0.0000
 30
0.0000
 40
0.0635
 41
0.0635
 70
0
  0
VERTEX
  8
21
 10
91.9284
 20
27.6099
 30
0.0000
 42
1.0000
  0
VERTEX
  8
21
 10
91.9919
 20
27.6099
 30
0.0000
  0
SEQEND
  8
0
  0
POLYLINE
  8
21
 66
1
 10
0.0000
 20
0.0000
 30
0.0000
 40
0.0635
 41
0.0635
 70
0
  0
VERTEX
  8
21
 10
91.9919
 20
27.8387
 30
0.0000
 42
1.0000
  0
VERTEX
  8
21
 10
91.9284
 20
27.8387
 30
0.0000
  0
SEQEND
  8
0
  0
POLYLINE
  8
21
 66
1
 10
0.0000
 20
0.0000
 30
0.0000
 40
0.1270
 41
0.1270
 70
0
  0
VERTEX
  8
21
 10
91.9601
 20
27.6099
 30
0.0000
  0
VERTEX
  8
21
 10
92.0745
 20
27.4955
 30
0.0000
  0
SEQEND
  8
0
  0
POLYLINE
  8
21
 66
1
 10
0.0000
 20
0.0000
 30
0.0000
 40
0.0635
 41
0.0635
 70
0
  0
VERTEX
  8
21
 10
92.0521
 20
27.4730
 30
0.0000
 42
1.0000
  0
VERTEX
  8
21
 10
92.0970
 20
27.5180
 30
0.0000
  0
SEQEND
  8
0
  0
POLYLINE
  8
21
 66
1
 10
0.0000
 20
0.0000
 30
0.0000
 40
0.0635
 41
0.0635
 70
0
  0
VERTEX
  8
21
 10
91.9826
 20
27.6323
 30
0.0000
 42
1.0000
  0
VERTEX
  8
21
 10
91.9377
 20
27.5874
 30
0.0000
  0
SEQEND
  8
0
  0
POLYLINE
  8
21
 66
1
 10
0.0000
 20
0.0000
 30
0.0000
 40
0.1270
 41
0.1270
 70
0
  0
VERTEX
  8
21
 10
92.0745
 20
27.4955
 30
0.0000
  0
VERTEX
  8
21
 10
92.5321
 20
27.4955
 30
0.0000
  0
SEQEND
  8
0
  0
POLYLINE
  8
21
 66
1
 10
0.0000
 20
0.0000
 30
0.0000
 40
0.0635
 41
0.0635
 70
0
  0
VERTEX
  8
21
 10
92.5321
 20
27.4638
 30
0.0000
 42
1.0000
  0
VERTEX
  8
21
 10
92.5321
 20
27.5272
 30
0.0000
  0
SEQEND
  8
0
  0
POLYLINE
  8
21
 66
1
 10
0.0000
 20
0.0000
 30
0.0000
 40
0.0635
 41
0.0635
 70
0
  0
VERTEX
  8
21
 10
92.0745
 20
27.5272
 30
0.0000
 42
1.0000
  0
VERTEX
  8
21
 10
92.0745
 20
27.4638
 30
0.0000
  0
SEQEND
  8
0
  0
POLYLINE
  8
21
 66
1
 10
0.0000
 20
0.0000
 30
0.0000
 40
0.1270
 41
0.1270
 70
0
  0
VERTEX
  8
21
 10
92.5321
 20
27.4955
 30
0.0000
  0
VERTEX
  8
21
 10
92.6465
 20
27.6099
 30
0.0000
  0
SEQEND
  8
0
  0
POLYLINE
  8
21
 66
1
 10
0.0000
 20
0.0000
 30
0.0000
 40
0.0635
 41
0.0635
 70
0
  0
VERTEX
  8
21
 10
92.6690
 20
27.5874
 30
0.0000
 42
1.0000
  0
VERTEX
  8
21
 10
92.6240
 20
27.6323
 30
0.0000
  0
SEQEND
  8
0
  0
POLYLINE
  8
21
 66
1
 10
0.0000
 20
0.0000
 30
0.0000
 40
0.0635
 41
0.0635
 70
0
  0
VERTEX
  8
21
 10
92.5097
 20
27.5180
 30
0.0000
 42
1.0000
  0
VERTEX
  8
21
 10
92.5546
 20
27.4730
 30
0.0000
  0
SEQEND
  8
0
  0
POLYLINE
  8
21
 66
1
 10
0.0000
 20
0.0000
 30
0.0000
 40
0.1270
 41
0.1270
 70
0
  0
VERTEX
  8
21
 10
92.6465
 20
27.6099
 30
0.0000
  0
VERTEX
  8
21
 10
92.6465
 20
27.8387
 30
0.0000
  0
SEQEND
  8
0
  0
POLYLINE
  8
21
 66
1
 10
0.0000
 20
0.0000
 30
0.0000
 40
0.0635
 41
0.0635
 70
0
  0
VERTEX
  8
21
 10
92.6783
 20
27.8387
 30
0.0000
 42
1.0000
  0
VERTEX
  8
21
 10
92.6148
 20
27.8387
 30
0.0000
  0
SEQEND
  8
0
  0
POLYLINE
  8
21
 66
1
 10
0.0000
 20
0.0000
 30
0.0000
 40
0.0635
 41
0.0635
 70
0
  0
VERTEX
  8
21
 10
92.6148
 20
27.6099
 30
0.0000
 42
1.0000
  0
VERTEX
  8
21
 10
92.6783
 20
27.6099
 30
0.0000
  0
SEQEND
  8
0
  0
POLYLINE
  8
21
 66
1
 10
0.0000
 20
0.0000
 30
0.0000
 40
0.1270
 41
0.1270
 70
0
  0
VERTEX
  8
21
 10
92.6465
 20
27.8387
 30
0.0000
  0
VERTEX
  8
21
 10
92.5321
 20
27.9531
 30
0.0000
  0
SEQEND
  8
0
  0
POLYLINE
  8
21
 66
1
 10
0.0000
 20
0.0000
 30
0.0000
 40
0.0635
 41
0.0635
 70
0
  0
VERTEX
  8
21
 10
92.5546
 20
27.9755
 30
0.0000
 42
1.0000
  0
VERTEX
  8
21
 10
92.5097
 20
27.9306
 30
0.0000
  0
SEQEND
  8
0
  0
POLYLINE
  8
21
 66
1
 10
0.0000
 20
0.0000
 30
0.0000
 40
0.0635
 41
0.0635
 70
0
  0
VERTEX
  8
21
 10
92.6240
 20
27.8162
 30
0.0000
 42
1.0000
  0
VERTEX
  8
21
 10
92.6690
 20
27.8611
 30
0.0000
  0
SEQEND
  8
0
  0
POLYLINE
  8
21
 66
1
 10
0.0000
 20
0.0000
 30
0.0000
 40
0.1270
 41
0.1270
 70
0
  0
VERTEX
  8
21
 10
92.5321
 20
27.9531
 30
0.0000
  0
VERTEX
  8
21
 10
92.3033
 20
27.9531
 30
0.0000
  0
SEQEND
  8
0
  0
POLYLINE
  8
21
 66
1
 10
0.0000
 20
0.0000
 30
0.0000
 40
0.0635
 41
0.0635
 70
0
  0
VERTEX
  8
21
 10
92.3033
 20
27.9848
 30
0.0000
 42
1.0000
  0
VERTEX
  8
21
 10
92.3033
 20
27.9213
 30
0.0000
  0
SEQEND
  8
0
  0
POLYLINE
  8
21
 66
1
 10
0.0000
 20
0.0000
 30
0.0000
 40
0.0635
 41
0.0635
 70
0
  0
VERTEX
  8
21
 10
92.5321
 20
27.9213
 30
0.0000
 42
1.0000
  0
VERTEX
  8
21
 10
92.5321
 20
27.9848
 30
0.0000
  0
SEQEND
  8
0
  0
POLYLINE
  8
21
 66
1
 10
0.0000
 20
0.0000
 30
0.0000
 40
0.1270
 41
0.1270
 70
0
  0
VERTEX
  8
21
 10
92.3033
 20
27.9531
 30
0.0000
  0
VERTEX
  8
21
 10
92.3033
 20
27.7243
 30
0.0000
  0
SEQEND
  8
0
  0
POLYLINE
  8
21
 66
1
 10
0.0000
 20
0.0000
 30
0.0000
 40
0.0635
 41
0.0635
 70
0
  0
VERTEX
  8
21
 10
92.2716
 20
27.7243
 30
0.0000
 42
1.0000
  0
VERTEX
  8
21
 10
92.3351
 20
27.7243
 30
0.0000
  0
SEQEND
  8
0
  0
POLYLINE
  8
21
 66
1
 10
0.0000
 20
0.0000
 30
0.0000
 40
0.0635
 41
0.0635
 70
0
  0
VERTEX
  8
21
 10
92.3351
 20
27.9531
 30
0.0000
 42
1.0000
  0
VERTEX
  8
21
 10
92.2716
 20
27.9531
 30
0.0000
  0
SEQEND
  8
0
  0
POLYLINE
  8
21
 66
1
 10
0.0000
 20
0.0000
 30
0.0000
 40
0.1270
 41
0.1270
 70
0
  0
VERTEX
  8
21
 10
92.6465
 20
28.2439
 30
0.0000
  0
VERTEX
  8
21
 10
91.9601
 20
28.2439
 30
0.0000
  0
SEQEND
  8
0
  0
POLYLINE
  8
21
 66
1
 10
0.0000
 20
0.0000
 30
0.0000
 40
0.0635
 41
0.0635
 70
0
  0
VERTEX
  8
21
 10
91.9601
 20
28.2757
 30
0.0000
 42
1.0000
  0
VERTEX
  8
21
 10
91.9601
 20
28.2122
 30
0.0000
  0
SEQEND
  8
0
  0
POLYLINE
  8
21
 66
1
 10
0.0000
 20
0.0000
 30
0.0000
 40
0.0635
 41
0.0635
 70
0
  0
VERTEX
  8
21
 10
92.6465
 20
28.2122
 30
0.0000
 42
1.0000
  0
VERTEX
  8
21
 10
92.6465
 20
28.2757
 30
0.0000
  0
SEQEND
  8
0
  0
POLYLINE
  8
21
 66
1
 10
0.0000
 20
0.0000
 30
0.0000
 40
0.1270
 41
0.1270
 70
0
  0
VERTEX
  8
21
 10
91.9601
 20
28.2439
 30
0.0000
  0
VERTEX
  8
21
 10
92.6465
 20
28.7015
 30
0.0000
  0
SEQEND
  8
0
  0
POLYLINE
  8
21
 66
1
 10
0.0000
 20
0.0000
 30
0.0000
 40
0.0635
 41
0.0635
 70
0
  0
VERTEX
  8
21
 10
92.6641
 20
28.6751
 30
0.0000
 42
1.0000
  0
VERTEX
  8
21
 10
92.6289
 20
28.7279
 30
0.0000
  0
SEQEND
  8
0
  0
POLYLINE
  8
21
 66
1
 10
0.0000
 20
0.0000
 30
0.0000
 40
0.0635
 41
0.0635
 70
0
  0
VERTEX
  8
21
 10
91.9425
 20
28.2703
 30
0.0000
 42
1.0000
  0
VERTEX
  8
21
 10
91.9777
 20
28.2175
 30
0.0000
  0
SEQEND
  8
0
  0
POLYLINE
  8
21
 66
1
 10
0.0000
 20
0.0000
 30
0.0000
 40
0.1270
 41
0.1270
 70
0
  0
VERTEX
  8
21
 10
92.6465
 20
28.7015
 30
0.0000
  0
VERTEX
  8
21
 10
91.9601
 20
28.7015
 30
0.0000
  0
SEQEND
  8
0
  0
POLYLINE
  8
21
 66
1
 10
0.0000
 20
0.0000
 30
0.0000
 40
0.0635
 41
0.0635
 70
0
  0
VERTEX
  8
21
 10
91.9601
 20
28.7333
 30
0.0000
 42
1.0000
  0
VERTEX
  8
21
 10
91.9601
 20
28.6698
 30
0.0000
  0
SEQEND
  8
0
  0
POLYLINE
  8
21
 66
1
 10
0.0000
 20
0.0000
 30
0.0000
 40
0.0635
 41
0.0635
 70
0
  0
VERTEX
  8
21
 10
92.6465
 20
28.6698
 30
0.0000
 42
1.0000
  0
VERTEX
  8
21
 10
92.6465
 20
28.7333
 30
0.0000
  0
SEQEND
  8
0
  0
POLYLINE
  8
21
 66
1
 10
0.0000
 20
0.0000
 30
0.0000
 40
0.1270
 41
0.1270
 70
0
  0
VERTEX
  8
21
 10
91.9601
 20
28.9923
 30
0.0000
  0
VERTEX
  8
21
 10
92.6465
 20
28.9923
 30
0.0000
  0
SEQEND
  8
0
  0
POLYLINE
  8
21
 66
1
 10
0.0000
 20
0.0000
 30
0.0000
 40
0.0635
 41
0.0635
 70
0
  0
VERTEX
  8
21
 10
92.6465
 20
28.9606
 30
0.0000
 42
1.0000
  0
VERTEX
  8
21
 10
92.6465
 20
29.0241
 30
0.0000
  0
SEQEND
  8
0
  0
POLYLINE
  8
21
 66
1
 10
0.0000
 20
0.0000
 30
0.0000
 40
0.0635
 41
0.0635
 70
0
  0
VERTEX
  8
21
 10
91.9601
 20
29.0241
 30
0.0000
 42
1.0000
  0
VERTEX
  8
21
 10
91.9601
 20
28.9606
 30
0.0000
  0
SEQEND
  8
0
  0
POLYLINE
  8
21
 66
1
 10
0.0000
 20
0.0000
 30
0.0000
 40
0.1270
 41
0.1270
 70
0
  0
VERTEX
  8
21
 10
92.6465
 20
28.9923
 30
0.0000
  0
VERTEX
  8
21
 10
92.6465
 20
29.3355
 30
0.0000
  0
SEQEND
  8
0
  0
POLYLINE
  8
21
 66
1
 10
0.0000
 20
0.0000
 30
0.0000
 40
0.0635
 41
0.0635
 70
0
  0
VERTEX
  8
21
 10
92.6783
 20
29.3355
 30
0.0000
 42
1.0000
  0
VERTEX
  8
21
 10
92.6148
 20
29.3355
 30
0.0000
  0
SEQEND
  8
0
  0
POLYLINE
  8
21
 66
1
 10
0.0000
 20
0.0000
 30
0.0000
 40
0.0635
 41
0.0635
 70
0
  0
VERTEX
  8
21
 10
92.6148
 20
28.9923
 30
0.0000
 42
1.0000
  0
VERTEX
  8
21
 10
92.6783
 20
28.9923
 30
0.0000
  0
SEQEND
  8
0
  0
POLYLINE
  8
21
 66
1
 10
0.0000
 20
0.0000
 30
0.0000
 40
0.1270
 41
0.1270
 70
0
  0
VERTEX
  8
21
 10
92.6465
 20
29.3355
 30
0.0000
  0
VERTEX
  8
21
 10
92.5321
 20
29.4499
 30
0.0000
  0
SEQEND
  8
0
  0
POLYLINE
  8
21
 66
1
 10
0.0000
 20
0.0000
 30
0.0000
 40
0.0635
 41
0.0635
 70
0
  0
VERTEX
  8
21
 10
92.5546
 20
29.4724
 30
0.0000
 42
1.0000
  0
VERTEX
  8
21
 10
92.5097
 20
29.4275
 30
0.0000
  0
SEQEND
  8
0
  0
POLYLINE
  8
21
 66
1
 10
0.0000
 20
0.0000
 30
0.0000
 40
0.0635
 41
0.0635
 70
0
  0
VERTEX
  8
21
 10
92.6240
 20
29.3131
 30
0.0000
 42
1.0000
  0
VERTEX
  8
21
 10
92.6690
 20
29.3580
 30
0.0000
  0
SEQEND
  8
0
  0
POLYLINE
  8
21
 66
1
 10
0.0000
 20
0.0000
 30
0.0000
 40
0.1270
 41
0.1270
 70
0
  0
VERTEX
  8
21
 10
92.5321
 20
29.4499
 30
0.0000
  0
VERTEX
  8
21
 10
92.0745
 20
29.4499
 30
0.0000
  0
SEQEND
  8
0
  0
POLYLINE
  8
21
 66
1
 10
0.0000
 20
0.0000
 30
0.0000
 40
0.0635
 41
0.0635
 70
0
  0
VERTEX
  8
21
 10
92.0745
 20
29.4817
 30
0.0000
 42
1.0000
  0
VERTEX
  8
21
 10
92.0745
 20
29.4182
 30
0.0000
  0
SEQEND
  8
0
  0
POLYLINE
  8
21
 66
1
 10
0.0000
 20
0.0000
 30
0.0000
 40
0.0635
 41
0.0635
 70
0
  0
VERTEX
  8
21
 10
92.5321
 20
29.4182
 30
0.0000
 42
1.0000
  0
VERTEX
  8
21
 10
92.5321
 20
29.4817
 30
0.0000
  0
SEQEND
  8
0
  0
POLYLINE
  8
21
 66
1
 10
0.0000
 20
0.0000
 30
0.0000
 40
0.1270
 41
0.1270
 70
0
  0
VERTEX
  8
21
 10
92.0745
 20
29.4499
 30
0.0000
  0
VERTEX
  8
21
 10
91.9601
 20
29.3355
 30
0.0000
  0
SEQEND
  8
0
  0
POLYLINE
  8
21
 66
1
 10
0.0000
 20
0.0000
 30
0.0000
 40
0.0635
 41
0.0635
 70
0
  0
VERTEX
  8
21
 10
91.9377
 20
29.3580
 30
0.0000
 42
1.0000
  0
VERTEX
  8
21
 10
91.9826
 20
29.3131
 30
0.0000
  0
SEQEND
  8
0
  0
POLYLINE
  8
21
 66
1
 10
0.0000
 20
0.0000
 30
0.0000
 40
0.0635
 41
0.0635
 70
0
  0
VERTEX
  8
21
 10
92.0970
 20
29.4275
 30
0.0000
 42
1.0000
  0
VERTEX
  8
21
 10
92.0521
 20
29.4724
 30
0.0000
  0
SEQEND
  8
0
  0
POLYLINE
  8
21
 66
1
 10
0.0000
 20
0.0000
 30
0.0000
 40
0.1270
 41
0.1270
 70
0
  0
VERTEX
  8
21
 10
91.9601
 20
29.3355
 30
0.0000
  0
VERTEX
  8
21
 10
91.9601
 20
28.9923
 30
0.0000
  0
SEQEND
  8
0
  0
POLYLINE
  8
21
 66
1
 10
0.0000
 20
0.0000
 30
0.0000
 40
0.0635
 41
0.0635
 70
0
  0
VERTEX
  8
21
 10
91.9284
 20
28.9923
 30
0.0000
 42
1.0000
  0
VERTEX
  8
21
 10
91.9919
 20
28.9923
 30
0.0000
  0
SEQEND
  8
0
  0
POLYLINE
  8
21
 66
1
 10
0.0000
 20
0.0000
 30
0.0000
 40
0.0635
 41
0.0635
 70
0
  0
VERTEX
  8
21
 10
91.9919
 20
29.3355
 30
0.0000
 42
1.0000
  0
VERTEX
  8
21
 10
91.9284
 20
29.3355
 30
0.0000
  0
SEQEND
  8
0
  0
POLYLINE
  8
21
 66
1
 10
0.0000
 20
0.0000
 30
0.0000
 40
0.1270
 41
0.1270
 70
0
  0
VERTEX
  8
21
 10
92.0745
 20
25.4131
 30
0.0000
  0
VERTEX
  8
21
 10
91.9601
 20
25.2987
 30
0.0000
  0
SEQEND
  8
0
  0
POLYLINE
  8
21
 66
1
 10
0.0000
 20
0.0000
 30
0.0000
 40
0.0635
 41
0.0635
 70
0
  0
VERTEX
  8
21
 10
91.9377
 20
25.3211
 30
0.0000
 42
1.0000
  0
VERTEX
  8
21
 10
91.9826
 20
25.2762
 30
0.0000
  0
SEQEND
  8
0
  0
POLYLINE
  8
21
 66
1
 10
0.0000
 20
0.0000
 30
0.0000
 40
0.0635
 41
0.0635
 70
0
  0
VERTEX
  8
21
 10
92.0970
 20
25.3906
 30
0.0000
 42
1.0000
  0
VERTEX
  8
21
 10
92.0521
 20
25.4355
 30
0.0000
  0
SEQEND
  8
0
  0
POLYLINE
  8
21
 66
1
 10
0.0000
 20
0.0000
 30
0.0000
 40
0.1270
 41
0.1270
 70
0
  0
VERTEX
  8
21
 10
91.9601
 20
25.2987
 30
0.0000
  0
VERTEX
  8
21
 10
91.9601
 20
25.0699
 30
0.0000
  0
SEQEND
  8
0
  0
POLYLINE
  8
21
 66
1
 10
0.0000
 20
0.0000
 30
0.0000
 40
0.0635
 41
0.0635
 70
0
  0
VERTEX
  8
21
 10
91.9284
 20
25.0699
 30
0.0000
 42
1.0000
  0
VERTEX
  8
21
 10
91.9919
 20
25.0699
 30
0.0000
  0
SEQEND
  8
0
  0
POLYLINE
  8
21
 66
1
 10
0.0000
 20
0.0000
 30
0.0000
 40
0.0635
 41
0.0635
 70
0
  0
VERTEX
  8
21
 10
91.9919
 20
25.2987
 30
0.0000
 42
1.0000
  0
VERTEX
  8
21
 10
91.9284
 20
25.2987
 30
0.0000
  0
SEQEND
  8
0
  0
POLYLINE
  8
21
 66
1
 10
0.0000
 20
0.0000
 30
0.0000
 40
0.1270
 41
0.1270
 70
0
  0
VERTEX
  8
21
 10
91.9601
 20
25.0699
 30
0.0000
  0
VERTEX
  8
21
 10
92.0745
 20
24.9555
 30
0.0000
  0
SEQEND
  8
0
  0
POLYLINE
  8
21
 66
1
 10
0.0000
 20
0.0000
 30
0.0000
 40
0.0635
 41
0.0635
 70
0
  0
VERTEX
  8
21
 10
92.0521
 20
24.9330
 30
0.0000
 42
1.0000
  0
VERTEX
  8
21
 10
92.0970
 20
24.9780
 30
0.0000
  0
SEQEND
  8
0
  0
POLYLINE
  8
21
 66
1
 10
0.0000
 20
0.0000
 30
0.0000
 40
0.0635
 41
0.0635
 70
0
  0
VERTEX
  8
21
 10
91.9826
 20
25.0923
 30
0.0000
 42
1.0000
  0
VERTEX
  8
21
 10
91.9377
 20
25.0474
 30
0.0000
  0
SEQEND
  8
0
  0
POLYLINE
  8
21
 66
1
 10
0.0000
 20
0.0000
 30
0.0000
 40
0.1270
 41
0.1270
 70
0
  0
VERTEX
  8
21
 10
92.0745
 20
24.9555
 30
0.0000
  0
VERTEX
  8
21
 10
92.5321
 20
24.9555
 30
0.0000
  0
SEQEND
  8
0
  0
POLYLINE
  8
21
 66
1
 10
0.0000
 20
0.0000
 30
0.0000
 40
0.0635
 41
0.0635
 70
0
  0
VERTEX
  8
21
 10
92.5321
 20
24.9238
 30
0.0000
 42
1.0000
  0
VERTEX
  8
21
 10
92.5321
 20
24.9872
 30
0.0000
  0
SEQEND
  8
0
  0
POLYLINE
  8
21
 66
1
 10
0.0000
 20
0.0000
 30
0.0000
 40
0.0635
 41
0.0635
 70
0
  0
VERTEX
  8
21
 10
92.0745
 20
24.9872
 30
0.0000
 42
1.0000
  0
VERTEX
  8
21
 10
92.0745
 20
24.9238
 30
0.0000
  0
SEQEND
  8
0
  0
POLYLINE
  8
21
 66
1
 10
0.0000
 20
0.0000
 30
0.0000
 40
0.1270
 41
0.1270
 70
0
  0
VERTEX
  8
21
 10
92.5321
 20
24.9555
 30
0.0000
  0
VERTEX
  8
21
 10
92.6465
 20
25.0699
 30
0.0000
  0
SEQEND
  8
0
  0
POLYLINE
  8
21
 66
1
 10
0.0000
 20
0.0000
 30
0.0000
 40
0.0635
 41
0.0635
 70
0
  0
VERTEX
  8
21
 10
92.6690
 20
25.0474
 30
0.0000
 42
1.0000
  0
VERTEX
  8
21
 10
92.6240
 20
25.0923
 30
0.0000
  0
SEQEND
  8
0
  0
POLYLINE
  8
21
 66
1
 10
0.0000
 20
0.0000
 30
0.0000
 40
0.0635
 41
0.0635
 70
0
  0
VERTEX
  8
21
 10
92.5097
 20
24.9780
 30
0.0000
 42
1.0000
  0
VERTEX
  8
21
 10
92.5546
 20
24.9330
 30
0.0000
  0
SEQEND
  8
0
  0
POLYLINE
  8
21
 66
1
 10
0.0000
 20
0.0000
 30
0.0000
 40
0.1270
 41
0.1270
 70
0
  0
VERTEX
  8
21
 10
92.6465
 20
25.0699
 30
0.0000
  0
VERTEX
  8
21
 10
92.6465
 20
25.2987
 30
0.0000
  0
SEQEND
  8
0
  0
POLYLINE
  8
21
 66
1
 10
0.0000
 20
0.0000
 30
0.0000
 40
0.0635
 41
0.0635
 70
0
  0
VERTEX
  8
21
 10
92.6783
 20
25.2987
 30
0.0000
 42
1.0000
  0
VERTEX
  8
21
 10
92.6148
 20
25.2987
 30
0.0000
  0
SEQEND
  8
0
  0
POLYLINE
  8
21
 66
1
 10
0.0000
 20
0.0000
 30
0.0000
 40
0.0635
 41
0.0635
 70
0
  0
VERTEX
  8
21
 10
92.6148
 20
25.0699
 30
0.0000
 42
1.0000
  0
VERTEX
  8
21
 10
92.6783
 20
25.0699
 30
0.0000
  0
SEQEND
  8
0
  0
POLYLINE
  8
21
 66
1
 10
0.0000
 20
0.0000
 30
0.0000
 40
0.1270
 41
0.1270
 70
0
  0
VERTEX
  8
21
 10
92.6465
 20
25.2987
 30
0.0000
  0
VERTEX
  8
21
 10
92.5321
 20
25.4131
 30
0.0000
  0
SEQEND
  8
0
  0
POLYLINE
  8
21
 66
1
 10
0.0000
 20
0.0000
 30
0.0000
 40
0.0635
 41
0.0635
 70
0
  0
VERTEX
  8
21
 10
92.5546
 20
25.4355
 30
0.0000
 42
1.0000
  0
VERTEX
  8
21
 10
92.5097
 20
25.3906
 30
0.0000
  0
SEQEND
  8
0
  0
POLYLINE
  8
21
 66
1
 10
0.0000
 20
0.0000
 30
0.0000
 40
0.0635
 41
0.0635
 70
0
  0
VERTEX
  8
21
 10
92.6240
 20
25.2762
 30
0.0000
 42
1.0000
  0
VERTEX
  8
21
 10
92.6690
 20
25.3211
 30
0.0000
  0
SEQEND
  8
0
  0
POLYLINE
  8
21
 66
1
 10
0.0000
 20
0.0000
 30
0.0000
 40
0.1270
 41
0.1270
 70
0
  0
VERTEX
  8
21
 10
92.6465
 20
25.9327
 30
0.0000
  0
VERTEX
  8
21
 10
91.9601
 20
25.9327
 30
0.0000
  0
SEQEND
  8
0
  0
POLYLINE
  8
21
 66
1
 10
0.0000
 20
0.0000
 30
0.0000
 40
0.0635
 41
0.0635
 70
0
  0
VERTEX
  8
21
 10
91.9601
 20
25.9645
 30
0.0000
 42
1.0000
  0
VERTEX
  8
21
 10
91.9601
 20
25.9010
 30
0.0000
  0
SEQEND
  8
0
  0
POLYLINE
  8
21
 66
1
 10
0.0000
 20
0.0000
 30
0.0000
 40
0.0635
 41
0.0635
 70
0
  0
VERTEX
  8
21
 10
92.6465
 20
25.9010
 30
0.0000
 42
1.0000
  0
VERTEX
  8
21
 10
92.6465
 20
25.9645
 30
0.0000
  0
SEQEND
  8
0
  0
POLYLINE
  8
21
 66
1
 10
0.0000
 20
0.0000
 30
0.0000
 40
0.1270
 41
0.1270
 70
0
  0
VERTEX
  8
21
 10
91.9601
 20
25.7039
 30
0.0000
  0
VERTEX
  8
21
 10
91.9601
 20
26.1615
 30
0.0000
  0
SEQEND
  8
0
  0
POLYLINE
  8
21
 66
1
 10
0.0000
 20
0.0000
 30
0.0000
 40
0.0635
 41
0.0635
 70
0
  0
VERTEX
  8
21
 10
91.9919
 20
26.1615
 30
0.0000
 42
1.0000
  0
VERTEX
  8
21
 10
91.9284
 20
26.1615
 30
0.0000
  0
SEQEND
  8
0
  0
POLYLINE
  8
21
 66
1
 10
0.0000
 20
0.0000
 30
0.0000
 40
0.0635
 41
0.0635
 70
0
  0
VERTEX
  8
21
 10
91.9284
 20
25.7039
 30
0.0000
 42
1.0000
  0
VERTEX
  8
21
 10
91.9919
 20
25.7039
 30
0.0000
  0
SEQEND
  8
0
  0
POLYLINE
  8
21
 66
1
 10
0.0000
 20
0.0000
 30
0.0000
 40
0.1270
 41
0.1270
 70
0
  0
VERTEX
  8
21
 10
92.0745
 20
26.9099
 30
0.0000
  0
VERTEX
  8
21
 10
91.9601
 20
26.7955
 30
0.0000
  0
SEQEND
  8
0
  0
POLYLINE
  8
21
 66
1
 10
0.0000
 20
0.0000
 30
0.0000
 40
0.0635
 41
0.0635
 70
0
  0
VERTEX
  8
21
 10
91.9377
 20
26.8180
 30
0.0000
 42
1.0000
  0
VERTEX
  8
21
 10
91.9826
 20
26.7731
 30
0.0000
  0
SEQEND
  8
0
  0
POLYLINE
  8
21
 66
1
 10
0.0000
 20
0.0000
 30
0.0000
 40
0.0635
 41
0.0635
 70
0
  0
VERTEX
  8
21
 10
92.0970
 20
26.8875
 30
0.0000
 42
1.0000
  0
VERTEX
  8
21
 10
92.0521
 20
26.9324
 30
0.0000
  0
SEQEND
  8
0
  0
POLYLINE
  8
21
 66
1
 10
0.0000
 20
0.0000
 30
0.0000
 40
0.1270
 41
0.1270
 70
0
  0
VERTEX
  8
21
 10
91.9601
 20
26.7955
 30
0.0000
  0
VERTEX
  8
21
 10
91.9601
 20
26.5667
 30
0.0000
  0
SEQEND
  8
0
  0
POLYLINE
  8
21
 66
1
 10
0.0000
 20
0.0000
 30
0.0000
 40
0.0635
 41
0.0635
 70
0
  0
VERTEX
  8
21
 10
91.9284
 20
26.5667
 30
0.0000
 42
1.0000
  0
VERTEX
  8
21
 10
91.9919
 20
26.5667
 30
0.0000
  0
SEQEND
  8
0
  0
POLYLINE
  8
21
 66
1
 10
0.0000
 20
0.0000
 30
0.0000
 40
0.0635
 41
0.0635
 70
0
  0
VERTEX
  8
21
 10
91.9919
 20
26.7955
 30
0.0000
 42
1.0000
  0
VERTEX
  8
21
 10
91.9284
 20
26.7955
 30
0.0000
  0
SEQEND
  8
0
  0
POLYLINE
  8
21
 66
1
 10
0.0000
 20
0.0000
 30
0.0000
 40
0.1270
 41
0.1270
 70
0
  0
VERTEX
  8
21
 10
91.9601
 20
26.5667
 30
0.0000
  0
VERTEX
  8
21
 10
92.0745
 20
26.4523
 30
0.0000
  0
SEQEND
  8
0
  0
POLYLINE
  8
21
 66
1
 10
0.0000
 20
0.0000
 30
0.0000
 40
0.0635
 41
0.0635
 70
0
  0
VERTEX
  8
21
 10
92.0521
 20
26.4299
 30
0.0000
 42
1.0000
  0
VERTEX
  8
21
 10
92.0970
 20
26.4748
 30
0.0000
  0
SEQEND
  8
0
  0
POLYLINE
  8
21
 66
1
 10
0.0000
 20
0.0000
 30
0.0000
 40
0.0635
 41
0.0635
 70
0
  0
VERTEX
  8
21
 10
91.9826
 20
26.5892
 30
0.0000
 42
1.0000
  0
VERTEX
  8
21
 10
91.9377
 20
26.5443
 30
0.0000
  0
SEQEND
  8
0
  0
POLYLINE
  8
21
 66
1
 10
0.0000
 20
0.0000
 30
0.0000
 40
0.1270
 41
0.1270
 70
0
  0
VERTEX
  8
21
 10
92.0745
 20
26.4523
 30
0.0000
  0
VERTEX
  8
21
 10
92.1889
 20
26.4523
 30
0.0000
  0
SEQEND
  8
0
  0
POLYLINE
  8
21
 66
1
 10
0.0000
 20
0.0000
 30
0.0000
 40
0.0635
 41
0.0635
 70
0
  0
VERTEX
  8
21
 10
92.1889
 20
26.4206
 30
0.0000
 42
1.0000
  0
VERTEX
  8
21
 10
92.1889
 20
26.4841
 30
0.0000
  0
SEQEND
  8
0
  0
POLYLINE
  8
21
 66
1
 10
0.0000
 20
0.0000
 30
0.0000
 40
0.0635
 41
0.0635
 70
0
  0
VERTEX
  8
21
 10
92.0745
 20
26.4841
 30
0.0000
 42
1.0000
  0
VERTEX
  8
21
 10
92.0745
 20
26.4206
 30
0.0000
  0
SEQEND
  8
0
  0
POLYLINE
  8
21
 66
1
 10
0.0000
 20
0.0000
 30
0.0000
 40
0.1270
 41
0.1270
 70
0
  0
VERTEX
  8
21
 10
92.1889
 20
26.4523
 30
0.0000
  0
VERTEX
  8
21
 10
92.3033
 20
26.5667
 30
0.0000
  0
SEQEND
  8
0
  0
POLYLINE
  8
21
 66
1
 10
0.0000
 20
0.0000
 30
0.0000
 40
0.0635
 41
0.0635
 70
0
  0
VERTEX
  8
21
 10
92.3258
 20
26.5443
 30
0.0000
 42
1.0000
  0
VERTEX
  8
21
 10
92.2809
 20
26.5892
 30
0.0000
  0
SEQEND
  8
0
  0
POLYLINE
  8
21
 66
1
 10
0.0000
 20
0.0000
 30
0.0000
 40
0.0635
 41
0.0635
 70
0
  0
VERTEX
  8
21
 10
92.1665
 20
26.4748
 30
0.0000
 42
1.0000
  0
VERTEX
  8
21
 10
92.2114
 20
26.4299
 30
0.0000
  0
SEQEND
  8
0
  0
POLYLINE
  8
21
 66
1
 10
0.0000
 20
0.0000
 30
0.0000
 40
0.1270
 41
0.1270
 70
0
  0
VERTEX
  8
21
 10
92.3033
 20
26.5667
 30
0.0000
  0
VERTEX
  8
21
 10
92.3033
 20
26.7955
 30
0.0000
  0
SEQEND
  8
0
  0
POLYLINE
  8
21
 66
1
 10
0.0000
 20
0.0000
 30
0.0000
 40
0.0635
 41
0.0635
 70
0
  0
VERTEX
  8
21
 10
92.3351
 20
26.7955
 30
0.0000
 42
1.0000
  0
VERTEX
  8
21
 10
92.2716
 20
26.7955
 30
0.0000
  0
SEQEND
  8
0
  0
POLYLINE
  8
21
 66
1
 10
0.0000
 20
0.0000
 30
0.0000
 40
0.0635
 41
0.0635
 70
0
  0
VERTEX
  8
21
 10
92.2716
 20
26.5667
 30
0.0000
 42
1.0000
  0
VERTEX
  8
21
 10
92.3351
 20
26.5667
 30
0.0000
  0
SEQEND
  8
0
  0
POLYLINE
  8
21
 66
1
 10
0.0000
 20
0.0000
 30
0.0000
 40
0.1270
 41
0.1270
 70
0
  0
VERTEX
  8
21
 10
92.3033
 20
26.7955
 30
0.0000
  0
VERTEX
  8
21
 10
92.4177
 20
26.9099
 30
0.0000
  0
SEQEND
  8
0
  0
POLYLINE
  8
21
 66
1
 10
0.0000
 20
0.0000
 30
0.0000
 40
0.0635
 41
0.0635
 70
0
  0
VERTEX
  8
21
 10
92.4402
 20
26.8875
 30
0.0000
 42
1.0000
  0
VERTEX
  8
21
 10
92.3953
 20
26.9324
 30
0.0000
  0
SEQEND
  8
0
  0
POLYLINE
  8
21
 66
1
 10
0.0000
 20
0.0000
 30
0.0000
 40
0.0635
 41
0.0635
 70
0
  0
VERTEX
  8
21
 10
92.2809
 20
26.8180
 30
0.0000
 42
1.0000
  0
VERTEX
  8
21
 10
92.3258
 20
26.7731
 30
0.0000
  0
SEQEND
  8
0
  0
POLYLINE
  8
21
 66
1
 10
0.0000
 20
0.0000
 30
0.0000
 40
0.1270
 41
0.1270
 70
0
  0
VERTEX
  8
21
 10
92.4177
 20
26.9099
 30
0.0000
  0
VERTEX
  8
21
 10
92.5321
 20
26.9099
 30
0.0000
  0
SEQEND
  8
0
  0
POLYLINE
  8
21
 66
1
 10
0.0000
 20
0.0000
 30
0.0000
 40
0.0635
 41
0.0635
 70
0
  0
VERTEX
  8
21
 10
92.5321
 20
26.8782
 30
0.0000
 42
1.0000
  0
VERTEX
  8
21
 10
92.5321
 20
26.9417
 30
0.0000
  0
SEQEND
  8
0
  0
POLYLINE
  8
21
 66
1
 10
0.0000
 20
0.0000
 30
0.0000
 40
0.0635
 41
0.0635
 70
0
  0
VERTEX
  8
21
 10
92.4177
 20
26.9417
 30
0.0000
 42
1.0000
  0
VERTEX
  8
21
 10
92.4177
 20
26.8782
 30
0.0000
  0
SEQEND
  8
0
  0
POLYLINE
  8
21
 66
1
 10
0.0000
 20
0.0000
 30
0.0000
 40
0.1270
 41
0.1270
 70
0
  0
VERTEX
  8
21
 10
92.5321
 20
26.9099
 30
0.0000
  0
VERTEX
  8
21
 10
92.6465
 20
26.7955
 30
0.0000
  0
SEQEND
  8
0
  0
POLYLINE
  8
21
 66
1
 10
0.0000
 20
0.0000
 30
0.0000
 40
0.0635
 41
0.0635
 70
0
  0
VERTEX
  8
21
 10
92.6240
 20
26.7731
 30
0.0000
 42
1.0000
  0
VERTEX
  8
21
 10
92.6690
 20
26.8180
 30
0.0000
  0
SEQEND
  8
0
  0
POLYLINE
  8
21
 66
1
 10
0.0000
 20
0.0000
 30
0.0000
 40
0.0635
 41
0.0635
 70
0
  0
VERTEX
  8
21
 10
92.5546
 20
26.9324
 30
0.0000
 42
1.0000
  0
VERTEX
  8
21
 10
92.5097
 20
26.8875
 30
0.0000
  0
SEQEND
  8
0
  0
POLYLINE
  8
21
 66
1
 10
0.0000
 20
0.0000
 30
0.0000
 40
0.1270
 41
0.1270
 70
0
  0
VERTEX
  8
21
 10
92.6465
 20
26.7955
 30
0.0000
  0
VERTEX
  8
21
 10
92.6465
 20
26.5667
 30
0.0000
  0
SEQEND
  8
0
  0
POLYLINE
  8
21
 66
1
 10
0.0000
 20
0.0000
 30
0.0000
 40
0.0635
 41
0.0635
 70
0
  0
VERTEX
  8
21
 10
92.6148
 20
26.5667
 30
0.0000
 42
1.0000
  0
VERTEX
  8
21
 10
92.6783
 20
26.5667
 30
0.0000
  0
SEQEND
  8
0
  0
POLYLINE
  8
21
 66
1
 10
0.0000
 20
0.0000
 30
0.0000
 40
0.0635
 41
0.0635
 70
0
  0
VERTEX
  8
21
 10
92.6783
 20
26.7955
 30
0.0000
 42
1.0000
  0
VERTEX
  8
21
 10
92.6148
 20
26.7955
 30
0.0000
  0
SEQEND
  8
0
  0
POLYLINE
  8
21
 66
1
 10
0.0000
 20
0.0000
 30
0.0000
 40
0.1270
 41
0.1270
 70
0
  0
VERTEX
  8
21
 10
92.6465
 20
26.5667
 30
0.0000
  0
VERTEX
  8
21
 10
92.5321
 20
26.4523
 30
0.0000
  0
SEQEND
  8
0
  0
POLYLINE
  8
21
 66
1
 10
0.0000
 20
0.0000
 30
0.0000
 40
0.0635
 41
0.0635
 70
0
  0
VERTEX
  8
21
 10
92.5097
 20
26.4748
 30
0.0000
 42
1.0000
  0
VERTEX
  8
21
 10
92.5546
 20
26.4299
 30
0.0000
  0
SEQEND
  8
0
  0
POLYLINE
  8
21
 66
1
 10
0.0000
 20
0.0000
 30
0.0000
 40
0.0635
 41
0.0635
 70
0
  0
VERTEX
  8
21
 10
92.6690
 20
26.5443
 30
0.0000
 42
1.0000
  0
VERTEX
  8
21
 10
92.6240
 20
26.5892
 30
0.0000
  0
SEQEND
  8
0
  0
POLYLINE
  8
21
 66
1
 10
0.0000
 20
0.0000
 30
0.0000
 40
0.1524
 41
0.1524
 70
0
  0
VERTEX
  8
21
 10
61.5004
 20
36.6200
 30
0.0000
  0
VERTEX
  8
21
 10
62.2878
 20
36.6200
 30
0.0000
  0
SEQEND
  8
0
  0
POLYLINE
  8
21
 66
1
 10
0.0000
 20
0.0000
 30
0.0000
 40
0.0762
 41
0.0762
 70
0
  0
VERTEX
  8
21
 10
62.2878
 20
36.5819
 30
0.0000
 42
1.0000
  0
VERTEX
  8
21
 10
62.2878
 20
36.6581
 30
0.0000
  0
SEQEND
  8
0
  0
POLYLINE
  8
21
 66
1
 10
0.0000
 20
0.0000
 30
0.0000
 40
0.0762
 41
0.0762
 70
0
  0
VERTEX
  8
21
 10
61.5004
 20
36.6581
 30
0.0000
 42
1.0000
  0
VERTEX
  8
21
 10
61.5004
 20
36.5819
 30
0.0000
  0
SEQEND
  8
0
  0
POLYLINE
  8
21
 66
1
 10
0.0000
 20
0.0000
 30
0.0000
 40
0.1524
 41
0.1524
 70
0
  0
VERTEX
  8
21
 10
62.1354
 20
37.2550
 30
0.0000
  0
VERTEX
  8
21
 10
62.1354
 20
35.9850
 30
0.0000
  0
SEQEND
  8
0
  0
POLYLINE
  8
21
 66
1
 10
0.0000
 20
0.0000
 30
0.0000
 40
0.0762
 41
0.0762
 70
0
  0
VERTEX
  8
21
 10
62.0973
 20
35.9850
 30
0.0000
 42
1.0000
  0
VERTEX
  8
21
 10
62.1735
 20
35.9850
 30
0.0000
  0
SEQEND
  8
0
  0
POLYLINE
  8
21
 66
1
 10
0.0000
 20
0.0000
 30
0.0000
 40
0.0762
 41
0.0762
 70
0
  0
VERTEX
  8
21
 10
62.1735
 20
37.2550
 30
0.0000
 42
1.0000
  0
VERTEX
  8
21
 10
62.0973
 20
37.2550
 30
0.0000
  0
SEQEND
  8
0
  0
POLYLINE
  8
21
 66
1
 10
0.0000
 20
0.0000
 30
0.0000
 40
0.1524
 41
0.1524
 70
0
  0
VERTEX
  8
21
 10
67.6218
 20
37.6868
 30
0.0000
 42
0.6249
  0
VERTEX
  8
21
 10
63.1514
 20
37.7122
 30
0.0000
  0
SEQEND
  8
0
  0
POLYLINE
  8
21
 66
1
 10
0.0000
 20
0.0000
 30
0.0000
 40
0.0762
 41
0.0762
 70
0
  0
VERTEX
  8
21
 10
67.5875
 20
37.6703
 30
0.0000
 42
1.0000
  0
VERTEX
  8
21
 10
67.6561
 20
37.7033
 30
0.0000
  0
SEQEND
  8
0
  0
POLYLINE
  8
21
 66
1
 10
0.0000
 20
0.0000
 30
0.0000
 40
0.0762
 41
0.0762
 70
0
  0
VERTEX
  8
21
 10
63.1173
 20
37.7291
 30
0.0000
 42
1.0000
  0
VERTEX
  8
21
 10
63.1855
 20
37.6953
 30
0.0000
  0
SEQEND
  8
0
  0
POLYLINE
  8
21
 66
1
 10
0.0000
 20
0.0000
 30
0.0000
 40
0.1524
 41
0.1524
 70
0
  0
VERTEX
  8
21
 10
63.1514
 20
35.5278
 30
0.0000
 42
0.6249
  0
VERTEX
  8
21
 10
67.6218
 20
35.5532
 30
0.0000
  0
SEQEND
  8
0
  0
POLYLINE
  8
21
 66
1
 10
0.0000
 20
0.0000
 30
0.0000
 40
0.0762
 41
0.0762
 70
0
  0
VERTEX
  8
21
 10
63.1855
 20
35.5447
 30
0.0000
 42
1.0000
  0
VERTEX
  8
21
 10
63.1173
 20
35.5109
 30
0.0000
  0
SEQEND
  8
0
  0
POLYLINE
  8
21
 66
1
 10
0.0000
 20
0.0000
 30
0.0000
 40
0.0762
 41
0.0762
 70
0
  0
VERTEX
  8
21
 10
67.6561
 20
35.5367
 30
0.0000
 42
1.0000
  0
VERTEX
  8
21
 10
67.5875
 20
35.5697
 30
0.0000
  0
SEQEND
  8
0
  0
POLYLINE
  8
21
 66
1
 10
0.0000
 20
0.0000
 30
0.0000
 40
0.1524
 41
0.1524
 70
0
  0
VERTEX
  8
21
 10
68.5204
 20
36.6400
 30
0.0000
  0
VERTEX
  8
21
 10
69.3078
 20
36.6400
 30
0.0000
  0
SEQEND
  8
0
  0
POLYLINE
  8
21
 66
1
 10
0.0000
 20
0.0000
 30
0.0000
 40
0.0762
 41
0.0762
 70
0
  0
VERTEX
  8
21
 10
69.3078
 20
36.6019
 30
0.0000
 42
1.0000
  0
VERTEX
  8
21
 10
69.3078
 20
36.6781
 30
0.0000
  0
SEQEND
  8
0
  0
POLYLINE
  8
21
 66
1
 10
0.0000
 20
0.0000
 30
0.0000
 40
0.0762
 41
0.0762
 70
0
  0
VERTEX
  8
21
 10
68.5204
 20
36.6781
 30
0.0000
 42
1.0000
  0
VERTEX
  8
21
 10
68.5204
 20
36.6019
 30
0.0000
  0
SEQEND
  8
0
  0
POLYLINE
  8
21
 66
1
 10
0.0000
 20
0.0000
 30
0.0000
 40
0.1524
 41
0.1524
 70
0
  0
VERTEX
  8
21
 10
69.1554
 20
37.2750
 30
0.0000
  0
VERTEX
  8
21
 10
69.1554
 20
36.0050
 30
0.0000
  0
SEQEND
  8
0
  0
POLYLINE
  8
21
 66
1
 10
0.0000
 20
0.0000
 30
0.0000
 40
0.0762
 41
0.0762
 70
0
  0
VERTEX
  8
21
 10
69.1173
 20
36.0050
 30
0.0000
 42
1.0000
  0
VERTEX
  8
21
 10
69.1935
 20
36.0050
 30
0.0000
  0
SEQEND
  8
0
  0
POLYLINE
  8
21
 66
1
 10
0.0000
 20
0.0000
 30
0.0000
 40
0.0762
 41
0.0762
 70
0
  0
VERTEX
  8
21
 10
69.1935
 20
37.2750
 30
0.0000
 42
1.0000
  0
VERTEX
  8
21
 10
69.1173
 20
37.2750
 30
0.0000
  0
SEQEND
  8
0
  0
POLYLINE
  8
21
 66
1
 10
0.0000
 20
0.0000
 30
0.0000
 40
0.1524
 41
0.1524
 70
0
  0
VERTEX
  8
21
 10
74.6418
 20
37.7068
 30
0.0000
 42
0.6249
  0
VERTEX
  8
21
 10
70.1714
 20
37.7322
 30
0.0000
  0
SEQEND
  8
0
  0
POLYLINE
  8
21
 66
1
 10
0.0000
 20
0.0000
 30
0.0000
 40
0.0762
 41
0.0762
 70
0
  0
VERTEX
  8
21
 10
74.6075
 20
37.6903
 30
0.0000
 42
1.0000
  0
VERTEX
  8
21
 10
74.6761
 20
37.7233
 30
0.0000
  0
SEQEND
  8
0
  0
POLYLINE
  8
21
 66
1
 10
0.0000
 20
0.0000
 30
0.0000
 40
0.0762
 41
0.0762
 70
0
  0
VERTEX
  8
21
 10
70.1373
 20
37.7491
 30
0.0000
 42
1.0000
  0
VERTEX
  8
21
 10
70.2055
 20
37.7153
 30
0.0000
  0
SEQEND
  8
0
  0
POLYLINE
  8
21
 66
1
 10
0.0000
 20
0.0000
 30
0.0000
 40
0.1524
 41
0.1524
 70
0
  0
VERTEX
  8
21
 10
70.1714
 20
35.5478
 30
0.0000
 42
0.6249
  0
VERTEX
  8
21
 10
74.6418
 20
35.5732
 30
0.0000
  0
SEQEND
  8
0
  0
POLYLINE
  8
21
 66
1
 10
0.0000
 20
0.0000
 30
0.0000
 40
0.0762
 41
0.0762
 70
0
  0
VERTEX
  8
21
 10
70.2055
 20
35.5647
 30
0.0000
 42
1.0000
  0
VERTEX
  8
21
 10
70.1373
 20
35.5309
 30
0.0000
  0
SEQEND
  8
0
  0
POLYLINE
  8
21
 66
1
 10
0.0000
 20
0.0000
 30
0.0000
 40
0.0762
 41
0.0762
 70
0
  0
VERTEX
  8
21
 10
74.6761
 20
35.5567
 30
0.0000
 42
1.0000
  0
VERTEX
  8
21
 10
74.6075
 20
35.5897
 30
0.0000
  0
SEQEND
  8
0
  0
POLYLINE
  8
21
 66
1
 10
0.0000
 20
0.0000
 30
0.0000
 40
0.2032
 41
0.2032
 70
0
  0
VERTEX
  8
21
 10
88.1600
 20
13.7800
 30
0.0000
  0
VERTEX
  8
21
 10
88.1600
 20
13.4800
 30
0.0000
  0
SEQEND
  8
0
  0
POLYLINE
  8
21
 66
1
 10
0.0000
 20
0.0000
 30
0.0000
 40
0.1016
 41
0.1016
 70
0
  0
VERTEX
  8
21
 10
88.1092
 20
13.4800
 30
0.0000
 42
1.0000
  0
VERTEX
  8
21
 10
88.2108
 20
13.4800
 30
0.0000
  0
SEQEND
  8
0
  0
POLYLINE
  8
21
 66
1
 10
0.0000
 20
0.0000
 30
0.0000
 40
0.1016
 41
0.1016
 70
0
  0
VERTEX
  8
21
 10
88.2108
 20
13.7800
 30
0.0000
 42
1.0000
  0
VERTEX
  8
21
 10
88.1092
 20
13.7800
 30
0.0000
  0
SEQEND
  8
0
  0
POLYLINE
  8
21
 66
1
 10
0.0000
 20
0.0000
 30
0.0000
 40
0.2032
 41
0.2032
 70
0
  0
VERTEX
  8
21
 10
88.1600
 20
13.4800
 30
0.0000
  0
VERTEX
  8
21
 10
88.9600
 20
13.4800
 30
0.0000
  0
SEQEND
  8
0
  0
POLYLINE
  8
21
 66
1
 10
0.0000
 20
0.0000
 30
0.0000
 40
0.1016
 41
0.1016
 70
0
  0
VERTEX
  8
21
 10
88.9600
 20
13.4292
 30
0.0000
 42
1.0000
  0
VERTEX
  8
21
 10
88.9600
 20
13.5308
 30
0.0000
  0
SEQEND
  8
0
  0
POLYLINE
  8
21
 66
1
 10
0.0000
 20
0.0000
 30
0.0000
 40
0.1016
 41
0.1016
 70
0
  0
VERTEX
  8
21
 10
88.1600
 20
13.5308
 30
0.0000
 42
1.0000
  0
VERTEX
  8
21
 10
88.1600
 20
13.4292
 30
0.0000
  0
SEQEND
  8
0
  0
POLYLINE
  8
21
 66
1
 10
0.0000
 20
0.0000
 30
0.0000
 40
0.2032
 41
0.2032
 70
0
  0
VERTEX
  8
21
 10
88.1600
 20
15.3800
 30
0.0000
  0
VERTEX
  8
21
 10
88.1600
 20
15.6800
 30
0.0000
  0
SEQEND
  8
0
  0
POLYLINE
  8
21
 66
1
 10
0.0000
 20
0.0000
 30
0.0000
 40
0.1016
 41
0.1016
 70
0
  0
VERTEX
  8
21
 10
88.2108
 20
15.6800
 30
0.0000
 42
1.0000
  0
VERTEX
  8
21
 10
88.1092
 20
15.6800
 30
0.0000
  0
SEQEND
  8
0
  0
POLYLINE
  8
21
 66
1
 10
0.0000
 20
0.0000
 30
0.0000
 40
0.1016
 41
0.1016
 70
0
  0
VERTEX
  8
21
 10
88.1092
 20
15.3800
 30
0.0000
 42
1.0000
  0
VERTEX
  8
21
 10
88.2108
 20
15.3800
 30
0.0000
  0
SEQEND
  8
0
  0
POLYLINE
  8
21
 66
1
 10
0.0000
 20
0.0000
 30
0.0000
 40
0.2032
 41
0.2032
 70
0
  0
VERTEX
  8
21
 10
88.1600
 20
15.6800
 30
0.0000
  0
VERTEX
  8
21
 10
88.9600
 20
15.6800
 30
0.0000
  0
SEQEND
  8
0
  0
POLYLINE
  8
21
 66
1
 10
0.0000
 20
0.0000
 30
0.0000
 40
0.1016
 41
0.1016
 70
0
  0
VERTEX
  8
21
 10
88.9600
 20
15.6292
 30
0.0000
 42
1.0000
  0
VERTEX
  8
21
 10
88.9600
 20
15.7308
 30
0.0000
  0
SEQEND
  8
0
  0
POLYLINE
  8
21
 66
1
 10
0.0000
 20
0.0000
 30
0.0000
 40
0.1016
 41
0.1016
 70
0
  0
VERTEX
  8
21
 10
88.1600
 20
15.7308
 30
0.0000
 42
1.0000
  0
VERTEX
  8
21
 10
88.1600
 20
15.6292
 30
0.0000
  0
SEQEND
  8
0
  0
POLYLINE
  8
21
 66
1
 10
0.0000
 20
0.0000
 30
0.0000
 40
0.2032
 41
0.2032
 70
0
  0
VERTEX
  8
21
 10
66.8800
 20
32.0200
 30
0.0000
  0
VERTEX
  8
21
 10
66.8800
 20
32.3200
 30
0.0000
  0
SEQEND
  8
0
  0
POLYLINE
  8
21
 66
1
 10
0.0000
 20
0.0000
 30
0.0000
 40
0.1016
 41
0.1016
 70
0
  0
VERTEX
  8
21
 10
66.9308
 20
32.3200
 30
0.0000
 42
1.0000
  0
VERTEX
  8
21
 10
66.8292
 20
32.3200
 30
0.0000
  0
SEQEND
  8
0
  0
POLYLINE
  8
21
 66
1
 10
0.0000
 20
0.0000
 30
0.0000
 40
0.1016
 41
0.1016
 70
0
  0
VERTEX
  8
21
 10
66.8292
 20
32.0200
 30
0.0000
 42
1.0000
  0
VERTEX
  8
21
 10
66.9308
 20
32.0200
 30
0.0000
  0
SEQEND
  8
0
  0
POLYLINE
  8
21
 66
1
 10
0.0000
 20
0.0000
 30
0.0000
 40
0.2032
 41
0.2032
 70
0
  0
VERTEX
  8
21
 10
66.8800
 20
32.3200
 30
0.0000
  0
VERTEX
  8
21
 10
66.0800
 20
32.3200
 30
0.0000
  0
SEQEND
  8
0
  0
POLYLINE
  8
21
 66
1
 10
0.0000
 20
0.0000
 30
0.0000
 40
0.1016
 41
0.1016
 70
0
  0
VERTEX
  8
21
 10
66.0800
 20
32.3708
 30
0.0000
 42
1.0000
  0
VERTEX
  8
21
 10
66.0800
 20
32.2692
 30
0.0000
  0
SEQEND
  8
0
  0
POLYLINE
  8
21
 66
1
 10
0.0000
 20
0.0000
 30
0.0000
 40
0.1016
 41
0.1016
 70
0
  0
VERTEX
  8
21
 10
66.8800
 20
32.2692
 30
0.0000
 42
1.0000
  0
VERTEX
  8
21
 10
66.8800
 20
32.3708
 30
0.0000
  0
SEQEND
  8
0
  0
POLYLINE
  8
21
 66
1
 10
0.0000
 20
0.0000
 30
0.0000
 40
0.2032
 41
0.2032
 70
0
  0
VERTEX
  8
21
 10
66.8800
 20
30.4200
 30
0.0000
  0
VERTEX
  8
21
 10
66.8800
 20
30.1200
 30
0.0000
  0
SEQEND
  8
0
  0
POLYLINE
  8
21
 66
1
 10
0.0000
 20
0.0000
 30
0.0000
 40
0.1016
 41
0.1016
 70
0
  0
VERTEX
  8
21
 10
66.8292
 20
30.1200
 30
0.0000
 42
1.0000
  0
VERTEX
  8
21
 10
66.9308
 20
30.1200
 30
0.0000
  0
SEQEND
  8
0
  0
POLYLINE
  8
21
 66
1
 10
0.0000
 20
0.0000
 30
0.0000
 40
0.1016
 41
0.1016
 70
0
  0
VERTEX
  8
21
 10
66.9308
 20
30.4200
 30
0.0000
 42
1.0000
  0
VERTEX
  8
21
 10
66.8292
 20
30.4200
 30
0.0000
  0
SEQEND
  8
0
  0
POLYLINE
  8
21
 66
1
 10
0.0000
 20
0.0000
 30
0.0000
 40
0.2032
 41
0.2032
 70
0
  0
VERTEX
  8
21
 10
66.8800
 20
30.1200
 30
0.0000
  0
VERTEX
  8
21
 10
66.0800
 20
30.1200
 30
0.0000
  0
SEQEND
  8
0
  0
POLYLINE
  8
21
 66
1
 10
0.0000
 20
0.0000
 30
0.0000
 40
0.1016
 41
0.1016
 70
0
  0
VERTEX
  8
21
 10
66.0800
 20
30.1708
 30
0.0000
 42
1.0000
  0
VERTEX
  8
21
 10
66.0800
 20
30.0692
 30
0.0000
  0
SEQEND
  8
0
  0
POLYLINE
  8
21
 66
1
 10
0.0000
 20
0.0000
 30
0.0000
 40
0.1016
 41
0.1016
 70
0
  0
VERTEX
  8
21
 10
66.8800
 20
30.0692
 30
0.0000
 42
1.0000
  0
VERTEX
  8
21
 10
66.8800
 20
30.1708
 30
0.0000
  0
SEQEND
  8
0
  0
POLYLINE
  8
21
 66
1
 10
0.0000
 20
0.0000
 30
0.0000
 40
0.2032
 41
0.2032
 70
0
  0
VERTEX
  8
21
 10
88.3000
 20
18.2000
 30
0.0000
  0
VERTEX
  8
21
 10
88.3000
 20
17.9000
 30
0.0000
  0
SEQEND
  8
0
  0
POLYLINE
  8
21
 66
1
 10
0.0000
 20
0.0000
 30
0.0000
 40
0.1016
 41
0.1016
 70
0
  0
VERTEX
  8
21
 10
88.2492
 20
17.9000
 30
0.0000
 42
1.0000
  0
VERTEX
  8
21
 10
88.3508
 20
17.9000
 30
0.0000
  0
SEQEND
  8
0
  0
POLYLINE
  8
21
 66
1
 10
0.0000
 20
0.0000
 30
0.0000
 40
0.1016
 41
0.1016
 70
0
  0
VERTEX
  8
21
 10
88.3508
 20
18.2000
 30
0.0000
 42
1.0000
  0
VERTEX
  8
21
 10
88.2492
 20
18.2000
 30
0.0000
  0
SEQEND
  8
0
  0
POLYLINE
  8
21
 66
1
 10
0.0000
 20
0.0000
 30
0.0000
 40
0.2032
 41
0.2032
 70
0
  0
VERTEX
  8
21
 10
88.3000
 20
17.9000
 30
0.0000
  0
VERTEX
  8
21
 10
89.1000
 20
17.9000
 30
0.0000
  0
SEQEND
  8
0
  0
POLYLINE
  8
21
 66
1
 10
0.0000
 20
0.0000
 30
0.0000
 40
0.1016
 41
0.1016
 70
0
  0
VERTEX
  8
21
 10
89.1000
 20
17.8492
 30
0.0000
 42
1.0000
  0
VERTEX
  8
21
 10
89.1000
 20
17.9508
 30
0.0000
  0
SEQEND
  8
0
  0
POLYLINE
  8
21
 66
1
 10
0.0000
 20
0.0000
 30
0.0000
 40
0.1016
 41
0.1016
 70
0
  0
VERTEX
  8
21
 10
88.3000
 20
17.9508
 30
0.0000
 42
1.0000
  0
VERTEX
  8
21
 10
88.3000
 20
17.8492
 30
0.0000
  0
SEQEND
  8
0
  0
POLYLINE
  8
21
 66
1
 10
0.0000
 20
0.0000
 30
0.0000
 40
0.2032
 41
0.2032
 70
0
  0
VERTEX
  8
21
 10
88.3000
 20
19.8000
 30
0.0000
  0
VERTEX
  8
21
 10
88.3000
 20
20.1000
 30
0.0000
  0
SEQEND
  8
0
  0
POLYLINE
  8
21
 66
1
 10
0.0000
 20
0.0000
 30
0.0000
 40
0.1016
 41
0.1016
 70
0
  0
VERTEX
  8
21
 10
88.3508
 20
20.1000
 30
0.0000
 42
1.0000
  0
VERTEX
  8
21
 10
88.2492
 20
20.1000
 30
0.0000
  0
SEQEND
  8
0
  0
POLYLINE
  8
21
 66
1
 10
0.0000
 20
0.0000
 30
0.0000
 40
0.1016
 41
0.1016
 70
0
  0
VERTEX
  8
21
 10
88.2492
 20
19.8000
 30
0.0000
 42
1.0000
  0
VERTEX
  8
21
 10
88.3508
 20
19.8000
 30
0.0000
  0
SEQEND
  8
0
  0
POLYLINE
  8
21
 66
1
 10
0.0000
 20
0.0000
 30
0.0000
 40
0.2032
 41
0.2032
 70
0
  0
VERTEX
  8
21
 10
88.3000
 20
20.1000
 30
0.0000
  0
VERTEX
  8
21
 10
89.1000
 20
20.1000
 30
0.0000
  0
SEQEND
  8
0
  0
POLYLINE
  8
21
 66
1
 10
0.0000
 20
0.0000
 30
0.0000
 40
0.1016
 41
0.1016
 70
0
  0
VERTEX
  8
21
 10
89.1000
 20
20.0492
 30
0.0000
 42
1.0000
  0
VERTEX
  8
21
 10
89.1000
 20
20.1508
 30
0.0000
  0
SEQEND
  8
0
  0
POLYLINE
  8
21
 66
1
 10
0.0000
 20
0.0000
 30
0.0000
 40
0.1016
 41
0.1016
 70
0
  0
VERTEX
  8
21
 10
88.3000
 20
20.1508
 30
0.0000
 42
1.0000
  0
VERTEX
  8
21
 10
88.3000
 20
20.0492
 30
0.0000
  0
SEQEND
  8
0
  0
POLYLINE
  8
21
 66
1
 10
0.0000
 20
0.0000
 30
0.0000
 40
0.2032
 41
0.2032
 70
0
  0
VERTEX
  8
21
 10
75.5000
 20
30.3800
 30
0.0000
  0
VERTEX
  8
21
 10
75.5000
 20
30.0800
 30
0.0000
  0
SEQEND
  8
0
  0
POLYLINE
  8
21
 66
1
 10
0.0000
 20
0.0000
 30
0.0000
 40
0.1016
 41
0.1016
 70
0
  0
VERTEX
  8
21
 10
75.4492
 20
30.0800
 30
0.0000
 42
1.0000
  0
VERTEX
  8
21
 10
75.5508
 20
30.0800
 30
0.0000
  0
SEQEND
  8
0
  0
POLYLINE
  8
21
 66
1
 10
0.0000
 20
0.0000
 30
0.0000
 40
0.1016
 41
0.1016
 70
0
  0
VERTEX
  8
21
 10
75.5508
 20
30.3800
 30
0.0000
 42
1.0000
  0
VERTEX
  8
21
 10
75.4492
 20
30.3800
 30
0.0000
  0
SEQEND
  8
0
  0
POLYLINE
  8
21
 66
1
 10
0.0000
 20
0.0000
 30
0.0000
 40
0.2032
 41
0.2032
 70
0
  0
VERTEX
  8
21
 10
75.5000
 20
30.0800
 30
0.0000
  0
VERTEX
  8
21
 10
76.3000
 20
30.0800
 30
0.0000
  0
SEQEND
  8
0
  0
POLYLINE
  8
21
 66
1
 10
0.0000
 20
0.0000
 30
0.0000
 40
0.1016
 41
0.1016
 70
0
  0
VERTEX
  8
21
 10
76.3000
 20
30.0292
 30
0.0000
 42
1.0000
  0
VERTEX
  8
21
 10
76.3000
 20
30.1308
 30
0.0000
  0
SEQEND
  8
0
  0
POLYLINE
  8
21
 66
1
 10
0.0000
 20
0.0000
 30
0.0000
 40
0.1016
 41
0.1016
 70
0
  0
VERTEX
  8
21
 10
75.5000
 20
30.1308
 30
0.0000
 42
1.0000
  0
VERTEX
  8
21
 10
75.5000
 20
30.0292
 30
0.0000
  0
SEQEND
  8
0
  0
POLYLINE
  8
21
 66
1
 10
0.0000
 20
0.0000
 30
0.0000
 40
0.2032
 41
0.2032
 70
0
  0
VERTEX
  8
21
 10
75.5000
 20
31.9800
 30
0.0000
  0
VERTEX
  8
21
 10
75.5000
 20
32.2800
 30
0.0000
  0
SEQEND
  8
0
  0
POLYLINE
  8
21
 66
1
 10
0.0000
 20
0.0000
 30
0.0000
 40
0.1016
 41
0.1016
 70
0
  0
VERTEX
  8
21
 10
75.5508
 20
32.2800
 30
0.0000
 42
1.0000
  0
VERTEX
  8
21
 10
75.4492
 20
32.2800
 30
0.0000
  0
SEQEND
  8
0
  0
POLYLINE
  8
21
 66
1
 10
0.0000
 20
0.0000
 30
0.0000
 40
0.1016
 41
0.1016
 70
0
  0
VERTEX
  8
21
 10
75.4492
 20
31.9800
 30
0.0000
 42
1.0000
  0
VERTEX
  8
21
 10
75.5508
 20
31.9800
 30
0.0000
  0
SEQEND
  8
0
  0
POLYLINE
  8
21
 66
1
 10
0.0000
 20
0.0000
 30
0.0000
 40
0.2032
 41
0.2032
 70
0
  0
VERTEX
  8
21
 10
75.5000
 20
32.2800
 30
0.0000
  0
VERTEX
  8
21
 10
76.3000
 20
32.2800
 30
0.0000
  0
SEQEND
  8
0
  0
POLYLINE
  8
21
 66
1
 10
0.0000
 20
0.0000
 30
0.0000
 40
0.1016
 41
0.1016
 70
0
  0
VERTEX
  8
21
 10
76.3000
 20
32.2292
 30
0.0000
 42
1.0000
  0
VERTEX
  8
21
 10
76.3000
 20
32.3308
 30
0.0000
  0
SEQEND
  8
0
  0
POLYLINE
  8
21
 66
1
 10
0.0000
 20
0.0000
 30
0.0000
 40
0.1016
 41
0.1016
 70
0
  0
VERTEX
  8
21
 10
75.5000
 20
32.3308
 30
0.0000
 42
1.0000
  0
VERTEX
  8
21
 10
75.5000
 20
32.2292
 30
0.0000
  0
SEQEND
  8
0
  0
POLYLINE
  8
21
 66
1
 10
0.0000
 20
0.0000
 30
0.0000
 40
0.2032
 41
0.2032
 70
0
  0
VERTEX
  8
21
 10
74.0500
 20
31.7750
 30
0.0000
  0
VERTEX
  8
21
 10
73.4150
 20
32.4100
 30
0.0000
  0
SEQEND
  8
0
  0
POLYLINE
  8
21
 66
1
 10
0.0000
 20
0.0000
 30
0.0000
 40
0.1016
 41
0.1016
 70
0
  0
VERTEX
  8
21
 10
73.4509
 20
32.4459
 30
0.0000
 42
1.0000
  0
VERTEX
  8
21
 10
73.3791
 20
32.3741
 30
0.0000
  0
SEQEND
  8
0
  0
POLYLINE
  8
21
 66
1
 10
0.0000
 20
0.0000
 30
0.0000
 40
0.1016
 41
0.1016
 70
0
  0
VERTEX
  8
21
 10
74.0141
 20
31.7391
 30
0.0000
 42
1.0000
  0
VERTEX
  8
21
 10
74.0859
 20
31.8109
 30
0.0000
  0
SEQEND
  8
0
  0
POLYLINE
  8
21
 66
1
 10
0.0000
 20
0.0000
 30
0.0000
 40
0.2032
 41
0.2032
 70
0
  0
VERTEX
  8
21
 10
73.4150
 20
32.4100
 30
0.0000
  0
VERTEX
  8
21
 10
72.1450
 20
32.4100
 30
0.0000
  0
SEQEND
  8
0
  0
POLYLINE
  8
21
 66
1
 10
0.0000
 20
0.0000
 30
0.0000
 40
0.1016
 41
0.1016
 70
0
  0
VERTEX
  8
21
 10
72.1450
 20
32.4608
 30
0.0000
 42
1.0000
  0
VERTEX
  8
21
 10
72.1450
 20
32.3592
 30
0.0000
  0
SEQEND
  8
0
  0
POLYLINE
  8
21
 66
1
 10
0.0000
 20
0.0000
 30
0.0000
 40
0.1016
 41
0.1016
 70
0
  0
VERTEX
  8
21
 10
73.4150
 20
32.3592
 30
0.0000
 42
1.0000
  0
VERTEX
  8
21
 10
73.4150
 20
32.4608
 30
0.0000
  0
SEQEND
  8
0
  0
POLYLINE
  8
21
 66
1
 10
0.0000
 20
0.0000
 30
0.0000
 40
0.2032
 41
0.2032
 70
0
  0
VERTEX
  8
21
 10
72.1450
 20
32.4100
 30
0.0000
  0
VERTEX
  8
21
 10
71.5100
 20
31.7750
 30
0.0000
  0
SEQEND
  8
0
  0
POLYLINE
  8
21
 66
1
 10
0.0000
 20
0.0000
 30
0.0000
 40
0.1016
 41
0.1016
 70
0
  0
VERTEX
  8
21
 10
71.4741
 20
31.8109
 30
0.0000
 42
1.0000
  0
VERTEX
  8
21
 10
71.5459
 20
31.7391
 30
0.0000
  0
SEQEND
  8
0
  0
POLYLINE
  8
21
 66
1
 10
0.0000
 20
0.0000
 30
0.0000
 40
0.1016
 41
0.1016
 70
0
  0
VERTEX
  8
21
 10
72.1809
 20
32.3741
 30
0.0000
 42
1.0000
  0
VERTEX
  8
21
 10
72.1091
 20
32.4459
 30
0.0000
  0
SEQEND
  8
0
  0
POLYLINE
  8
21
 66
1
 10
0.0000
 20
0.0000
 30
0.0000
 40
0.2032
 41
0.2032
 70
0
  0
VERTEX
  8
21
 10
71.5100
 20
31.7750
 30
0.0000
  0
VERTEX
  8
21
 10
71.5100
 20
30.5050
 30
0.0000
  0
SEQEND
  8
0
  0
POLYLINE
  8
21
 66
1
 10
0.0000
 20
0.0000
 30
0.0000
 40
0.1016
 41
0.1016
 70
0
  0
VERTEX
  8
21
 10
71.4592
 20
30.5050
 30
0.0000
 42
1.0000
  0
VERTEX
  8
21
 10
71.5608
 20
30.5050
 30
0.0000
  0
SEQEND
  8
0
  0
POLYLINE
  8
21
 66
1
 10
0.0000
 20
0.0000
 30
0.0000
 40
0.1016
 41
0.1016
 70
0
  0
VERTEX
  8
21
 10
71.5608
 20
31.7750
 30
0.0000
 42
1.0000
  0
VERTEX
  8
21
 10
71.4592
 20
31.7750
 30
0.0000
  0
SEQEND
  8
0
  0
POLYLINE
  8
21
 66
1
 10
0.0000
 20
0.0000
 30
0.0000
 40
0.2032
 41
0.2032
 70
0
  0
VERTEX
  8
21
 10
71.5100
 20
30.5050
 30
0.0000
  0
VERTEX
  8
21
 10
72.1450
 20
29.8700
 30
0.0000
  0
SEQEND
  8
0
  0
POLYLINE
  8
21
 66
1
 10
0.0000
 20
0.0000
 30
0.0000
 40
0.1016
 41
0.1016
 70
0
  0
VERTEX
  8
21
 10
72.1091
 20
29.8341
 30
0.0000
 42
1.0000
  0
VERTEX
  8
21
 10
72.1809
 20
29.9059
 30
0.0000
  0
SEQEND
  8
0
  0
POLYLINE
  8
21
 66
1
 10
0.0000
 20
0.0000
 30
0.0000
 40
0.1016
 41
0.1016
 70
0
  0
VERTEX
  8
21
 10
71.5459
 20
30.5409
 30
0.0000
 42
1.0000
  0
VERTEX
  8
21
 10
71.4741
 20
30.4691
 30
0.0000
  0
SEQEND
  8
0
  0
POLYLINE
  8
21
 66
1
 10
0.0000
 20
0.0000
 30
0.0000
 40
0.2032
 41
0.2032
 70
0
  0
VERTEX
  8
21
 10
72.1450
 20
29.8700
 30
0.0000
  0
VERTEX
  8
21
 10
73.4150
 20
29.8700
 30
0.0000
  0
SEQEND
  8
0
  0
POLYLINE
  8
21
 66
1
 10
0.0000
 20
0.0000
 30
0.0000
 40
0.1016
 41
0.1016
 70
0
  0
VERTEX
  8
21
 10
73.4150
 20
29.8192
 30
0.0000
 42
1.0000
  0
VERTEX
  8
21
 10
73.4150
 20
29.9208
 30
0.0000
  0
SEQEND
  8
0
  0
POLYLINE
  8
21
 66
1
 10
0.0000
 20
0.0000
 30
0.0000
 40
0.1016
 41
0.1016
 70
0
  0
VERTEX
  8
21
 10
72.1450
 20
29.9208
 30
0.0000
 42
1.0000
  0
VERTEX
  8
21
 10
72.1450
 20
29.8192
 30
0.0000
  0
SEQEND
  8
0
  0
POLYLINE
  8
21
 66
1
 10
0.0000
 20
0.0000
 30
0.0000
 40
0.2032
 41
0.2032
 70
0
  0
VERTEX
  8
21
 10
73.4150
 20
29.8700
 30
0.0000
  0
VERTEX
  8
21
 10
74.0500
 20
30.5050
 30
0.0000
  0
SEQEND
  8
0
  0
POLYLINE
  8
21
 66
1
 10
0.0000
 20
0.0000
 30
0.0000
 40
0.1016
 41
0.1016
 70
0
  0
VERTEX
  8
21
 10
74.0859
 20
30.4691
 30
0.0000
 42
1.0000
  0
VERTEX
  8
21
 10
74.0141
 20
30.5409
 30
0.0000
  0
SEQEND
  8
0
  0
POLYLINE
  8
21
 66
1
 10
0.0000
 20
0.0000
 30
0.0000
 40
0.1016
 41
0.1016
 70
0
  0
VERTEX
  8
21
 10
73.3791
 20
29.9059
 30
0.0000
 42
1.0000
  0
VERTEX
  8
21
 10
73.4509
 20
29.8341
 30
0.0000
  0
SEQEND
  8
0
  0
POLYLINE
  8
21
 66
1
 10
0.0000
 20
0.0000
 30
0.0000
 40
0.2032
 41
0.2032
 70
0
  0
VERTEX
  8
21
 10
74.0500
 20
30.5050
 30
0.0000
  0
VERTEX
  8
21
 10
74.0500
 20
31.7750
 30
0.0000
  0
SEQEND
  8
0
  0
POLYLINE
  8
21
 66
1
 10
0.0000
 20
0.0000
 30
0.0000
 40
0.1016
 41
0.1016
 70
0
  0
VERTEX
  8
21
 10
74.1008
 20
31.7750
 30
0.0000
 42
1.0000
  0
VERTEX
  8
21
 10
73.9992
 20
31.7750
 30
0.0000
  0
SEQEND
  8
0
  0
POLYLINE
  8
21
 66
1
 10
0.0000
 20
0.0000
 30
0.0000
 40
0.1016
 41
0.1016
 70
0
  0
VERTEX
  8
21
 10
73.9992
 20
30.5050
 30
0.0000
 42
1.0000
  0
VERTEX
  8
21
 10
74.1008
 20
30.5050
 30
0.0000
  0
SEQEND
  8
0
  0
POLYLINE
  8
21
 66
1
 10
0.0000
 20
0.0000
 30
0.0000
 40
0.2032
 41
0.2032
 70
0
  0
VERTEX
  8
21
 10
70.9500
 20
31.7550
 30
0.0000
  0
VERTEX
  8
21
 10
70.3150
 20
32.3900
 30
0.0000
  0
SEQEND
  8
0
  0
POLYLINE
  8
21
 66
1
 10
0.0000
 20
0.0000
 30
0.0000
 40
0.1016
 41
0.1016
 70
0
  0
VERTEX
  8
21
 10
70.3509
 20
32.4259
 30
0.0000
 42
1.0000
  0
VERTEX
  8
21
 10
70.2791
 20
32.3541
 30
0.0000
  0
SEQEND
  8
0
  0
POLYLINE
  8
21
 66
1
 10
0.0000
 20
0.0000
 30
0.0000
 40
0.1016
 41
0.1016
 70
0
  0
VERTEX
  8
21
 10
70.9141
 20
31.7191
 30
0.0000
 42
1.0000
  0
VERTEX
  8
21
 10
70.9859
 20
31.7909
 30
0.0000
  0
SEQEND
  8
0
  0
POLYLINE
  8
21
 66
1
 10
0.0000
 20
0.0000
 30
0.0000
 40
0.2032
 41
0.2032
 70
0
  0
VERTEX
  8
21
 10
70.3150
 20
32.3900
 30
0.0000
  0
VERTEX
  8
21
 10
69.0450
 20
32.3900
 30
0.0000
  0
SEQEND
  8
0
  0
POLYLINE
  8
21
 66
1
 10
0.0000
 20
0.0000
 30
0.0000
 40
0.1016
 41
0.1016
 70
0
  0
VERTEX
  8
21
 10
69.0450
 20
32.4408
 30
0.0000
 42
1.0000
  0
VERTEX
  8
21
 10
69.0450
 20
32.3392
 30
0.0000
  0
SEQEND
  8
0
  0
POLYLINE
  8
21
 66
1
 10
0.0000
 20
0.0000
 30
0.0000
 40
0.1016
 41
0.1016
 70
0
  0
VERTEX
  8
21
 10
70.3150
 20
32.3392
 30
0.0000
 42
1.0000
  0
VERTEX
  8
21
 10
70.3150
 20
32.4408
 30
0.0000
  0
SEQEND
  8
0
  0
POLYLINE
  8
21
 66
1
 10
0.0000
 20
0.0000
 30
0.0000
 40
0.2032
 41
0.2032
 70
0
  0
VERTEX
  8
21
 10
69.0450
 20
32.3900
 30
0.0000
  0
VERTEX
  8
21
 10
68.4100
 20
31.7550
 30
0.0000
  0
SEQEND
  8
0
  0
POLYLINE
  8
21
 66
1
 10
0.0000
 20
0.0000
 30
0.0000
 40
0.1016
 41
0.1016
 70
0
  0
VERTEX
  8
21
 10
68.3741
 20
31.7909
 30
0.0000
 42
1.0000
  0
VERTEX
  8
21
 10
68.4459
 20
31.7191
 30
0.0000
  0
SEQEND
  8
0
  0
POLYLINE
  8
21
 66
1
 10
0.0000
 20
0.0000
 30
0.0000
 40
0.1016
 41
0.1016
 70
0
  0
VERTEX
  8
21
 10
69.0809
 20
32.3541
 30
0.0000
 42
1.0000
  0
VERTEX
  8
21
 10
69.0091
 20
32.4259
 30
0.0000
  0
SEQEND
  8
0
  0
POLYLINE
  8
21
 66
1
 10
0.0000
 20
0.0000
 30
0.0000
 40
0.2032
 41
0.2032
 70
0
  0
VERTEX
  8
21
 10
68.4100
 20
31.7550
 30
0.0000
  0
VERTEX
  8
21
 10
68.4100
 20
30.4850
 30
0.0000
  0
SEQEND
  8
0
  0
POLYLINE
  8
21
 66
1
 10
0.0000
 20
0.0000
 30
0.0000
 40
0.1016
 41
0.1016
 70
0
  0
VERTEX
  8
21
 10
68.3592
 20
30.4850
 30
0.0000
 42
1.0000
  0
VERTEX
  8
21
 10
68.4608
 20
30.4850
 30
0.0000
  0
SEQEND
  8
0
  0
POLYLINE
  8
21
 66
1
 10
0.0000
 20
0.0000
 30
0.0000
 40
0.1016
 41
0.1016
 70
0
  0
VERTEX
  8
21
 10
68.4608
 20
31.7550
 30
0.0000
 42
1.0000
  0
VERTEX
  8
21
 10
68.3592
 20
31.7550
 30
0.0000
  0
SEQEND
  8
0
  0
POLYLINE
  8
21
 66
1
 10
0.0000
 20
0.0000
 30
0.0000
 40
0.2032
 41
0.2032
 70
0
  0
VERTEX
  8
21
 10
68.4100
 20
30.4850
 30
0.0000
  0
VERTEX
  8
21
 10
69.0450
 20
29.8500
 30
0.0000
  0
SEQEND
  8
0
  0
POLYLINE
  8
21
 66
1
 10
0.0000
 20
0.0000
 30
0.0000
 40
0.1016
 41
0.1016
 70
0
  0
VERTEX
  8
21
 10
69.0091
 20
29.8141
 30
0.0000
 42
1.0000
  0
VERTEX
  8
21
 10
69.0809
 20
29.8859
 30
0.0000
  0
SEQEND
  8
0
  0
POLYLINE
  8
21
 66
1
 10
0.0000
 20
0.0000
 30
0.0000
 40
0.1016
 41
0.1016
 70
0
  0
VERTEX
  8
21
 10
68.4459
 20
30.5209
 30
0.0000
 42
1.0000
  0
VERTEX
  8
21
 10
68.3741
 20
30.4491
 30
0.0000
  0
SEQEND
  8
0
  0
POLYLINE
  8
21
 66
1
 10
0.0000
 20
0.0000
 30
0.0000
 40
0.2032
 41
0.2032
 70
0
  0
VERTEX
  8
21
 10
69.0450
 20
29.8500
 30
0.0000
  0
VERTEX
  8
21
 10
70.3150
 20
29.8500
 30
0.0000
  0
SEQEND
  8
0
  0
POLYLINE
  8
21
 66
1
 10
0.0000
 20
0.0000
 30
0.0000
 40
0.1016
 41
0.1016
 70
0
  0
VERTEX
  8
21
 10
70.3150
 20
29.7992
 30
0.0000
 42
1.0000
  0
VERTEX
  8
21
 10
70.3150
 20
29.9008
 30
0.0000
  0
SEQEND
  8
0
  0
POLYLINE
  8
21
 66
1
 10
0.0000
 20
0.0000
 30
0.0000
 40
0.1016
 41
0.1016
 70
0
  0
VERTEX
  8
21
 10
69.0450
 20
29.9008
 30
0.0000
 42
1.0000
  0
VERTEX
  8
21
 10
69.0450
 20
29.7992
 30
0.0000
  0
SEQEND
  8
0
  0
POLYLINE
  8
21
 66
1
 10
0.0000
 20
0.0000
 30
0.0000
 40
0.2032
 41
0.2032
 70
0
  0
VERTEX
  8
21
 10
70.3150
 20
29.8500
 30
0.0000
  0
VERTEX
  8
21
 10
70.9500
 20
30.4850
 30
0.0000
  0
SEQEND
  8
0
  0
POLYLINE
  8
21
 66
1
 10
0.0000
 20
0.0000
 30
0.0000
 40
0.1016
 41
0.1016
 70
0
  0
VERTEX
  8
21
 10
70.9859
 20
30.4491
 30
0.0000
 42
1.0000
  0
VERTEX
  8
21
 10
70.9141
 20
30.5209
 30
0.0000
  0
SEQEND
  8
0
  0
POLYLINE
  8
21
 66
1
 10
0.0000
 20
0.0000
 30
0.0000
 40
0.1016
 41
0.1016
 70
0
  0
VERTEX
  8
21
 10
70.2791
 20
29.8859
 30
0.0000
 42
1.0000
  0
VERTEX
  8
21
 10
70.3509
 20
29.8141
 30
0.0000
  0
SEQEND
  8
0
  0
POLYLINE
  8
21
 66
1
 10
0.0000
 20
0.0000
 30
0.0000
 40
0.2032
 41
0.2032
 70
0
  0
VERTEX
  8
21
 10
70.9500
 20
30.4850
 30
0.0000
  0
VERTEX
  8
21
 10
70.9500
 20
31.7550
 30
0.0000
  0
SEQEND
  8
0
  0
POLYLINE
  8
21
 66
1
 10
0.0000
 20
0.0000
 30
0.0000
 40
0.1016
 41
0.1016
 70
0
  0
VERTEX
  8
21
 10
71.0008
 20
31.7550
 30
0.0000
 42
1.0000
  0
VERTEX
  8
21
 10
70.8992
 20
31.7550
 30
0.0000
  0
SEQEND
  8
0
  0
POLYLINE
  8
21
 66
1
 10
0.0000
 20
0.0000
 30
0.0000
 40
0.1016
 41
0.1016
 70
0
  0
VERTEX
  8
21
 10
70.8992
 20
30.4850
 30
0.0000
 42
1.0000
  0
VERTEX
  8
21
 10
71.0008
 20
30.4850
 30
0.0000
  0
SEQEND
  8
0
  0
POLYLINE
  8
21
 66
1
 10
0.0000
 20
0.0000
 30
0.0000
 40
0.1524
 41
0.1524
 70
0
  0
VERTEX
  8
21
 10
82.1102
 20
24.4908
 30
0.0000
  0
VERTEX
  8
21
 10
86.5298
 20
24.4908
 30
0.0000
  0
SEQEND
  8
0
  0
POLYLINE
  8
21
 66
1
 10
0.0000
 20
0.0000
 30
0.0000
 40
0.0762
 41
0.0762
 70
0
  0
VERTEX
  8
21
 10
86.5298
 20
24.4527
 30
0.0000
 42
1.0000
  0
VERTEX
  8
21
 10
86.5298
 20
24.5289
 30
0.0000
  0
SEQEND
  8
0
  0
POLYLINE
  8
21
 66
1
 10
0.0000
 20
0.0000
 30
0.0000
 40
0.0762
 41
0.0762
 70
0
  0
VERTEX
  8
21
 10
82.1102
 20
24.5289
 30
0.0000
 42
1.0000
  0
VERTEX
  8
21
 10
82.1102
 20
24.4527
 30
0.0000
  0
SEQEND
  8
0
  0
POLYLINE
  8
21
 66
1
 10
0.0000
 20
0.0000
 30
0.0000
 40
0.1524
 41
0.1524
 70
0
  0
VERTEX
  8
21
 10
86.5298
 20
29.4692
 30
0.0000
  0
VERTEX
  8
21
 10
84.6248
 20
29.4692
 30
0.0000
  0
SEQEND
  8
0
  0
POLYLINE
  8
21
 66
1
 10
0.0000
 20
0.0000
 30
0.0000
 40
0.0762
 41
0.0762
 70
0
  0
VERTEX
  8
21
 10
84.6248
 20
29.5073
 30
0.0000
 42
1.0000
  0
VERTEX
  8
21
 10
84.6248
 20
29.4311
 30
0.0000
  0
SEQEND
  8
0
  0
POLYLINE
  8
21
 66
1
 10
0.0000
 20
0.0000
 30
0.0000
 40
0.0762
 41
0.0762
 70
0
  0
VERTEX
  8
21
 10
86.5298
 20
29.4311
 30
0.0000
 42
1.0000
  0
VERTEX
  8
21
 10
86.5298
 20
29.5073
 30
0.0000
  0
SEQEND
  8
0
  0
POLYLINE
  8
21
 66
1
 10
0.0000
 20
0.0000
 30
0.0000
 40
0.1524
 41
0.1524
 70
0
  0
VERTEX
  8
21
 10
84.6248
 20
29.4692
 30
0.0000
  0
VERTEX
  8
21
 10
84.0152
 20
29.4692
 30
0.0000
  0
SEQEND
  8
0
  0
POLYLINE
  8
21
 66
1
 10
0.0000
 20
0.0000
 30
0.0000
 40
0.0762
 41
0.0762
 70
0
  0
VERTEX
  8
21
 10
84.0152
 20
29.5073
 30
0.0000
 42
1.0000
  0
VERTEX
  8
21
 10
84.0152
 20
29.4311
 30
0.0000
  0
SEQEND
  8
0
  0
POLYLINE
  8
21
 66
1
 10
0.0000
 20
0.0000
 30
0.0000
 40
0.0762
 41
0.0762
 70
0
  0
VERTEX
  8
21
 10
84.6248
 20
29.4311
 30
0.0000
 42
1.0000
  0
VERTEX
  8
21
 10
84.6248
 20
29.5073
 30
0.0000
  0
SEQEND
  8
0
  0
POLYLINE
  8
21
 66
1
 10
0.0000
 20
0.0000
 30
0.0000
 40
0.1524
 41
0.1524
 70
0
  0
VERTEX
  8
21
 10
84.0152
 20
29.4692
 30
0.0000
  0
VERTEX
  8
21
 10
82.1102
 20
29.4692
 30
0.0000
  0
SEQEND
  8
0
  0
POLYLINE
  8
21
 66
1
 10
0.0000
 20
0.0000
 30
0.0000
 40
0.0762
 41
0.0762
 70
0
  0
VERTEX
  8
21
 10
82.1102
 20
29.5073
 30
0.0000
 42
1.0000
  0
VERTEX
  8
21
 10
82.1102
 20
29.4311
 30
0.0000
  0
SEQEND
  8
0
  0
POLYLINE
  8
21
 66
1
 10
0.0000
 20
0.0000
 30
0.0000
 40
0.0762
 41
0.0762
 70
0
  0
VERTEX
  8
21
 10
84.0152
 20
29.4311
 30
0.0000
 42
1.0000
  0
VERTEX
  8
21
 10
84.0152
 20
29.5073
 30
0.0000
  0
SEQEND
  8
0
  0
POLYLINE
  8
21
 66
1
 10
0.0000
 20
0.0000
 30
0.0000
 40
0.1524
 41
0.1524
 70
0
  0
VERTEX
  8
21
 10
84.0152
 20
29.4692
 30
0.0000
 42
1.0000
  0
VERTEX
  8
21
 10
84.6248
 20
29.4692
 30
0.0000
  0
SEQEND
  8
0
  0
POLYLINE
  8
21
 66
1
 10
0.0000
 20
0.0000
 30
0.0000
 40
0.0762
 41
0.0762
 70
0
  0
VERTEX
  8
21
 10
84.0533
 20
29.4692
 30
0.0000
 42
1.0000
  0
VERTEX
  8
21
 10
83.9771
 20
29.4692
 30
0.0000
  0
SEQEND
  8
0
  0
POLYLINE
  8
21
 66
1
 10
0.0000
 20
0.0000
 30
0.0000
 40
0.0762
 41
0.0762
 70
0
  0
VERTEX
  8
21
 10
84.6629
 20
29.4692
 30
0.0000
 42
1.0000
  0
VERTEX
  8
21
 10
84.5867
 20
29.4692
 30
0.0000
  0
SEQEND
  8
0
  0
ENDSEC
  0
EOF
