G04 EAGLE Gerber RS-274X export*
G75*
%MOMM*%
%FSLAX34Y34*%
%LPD*%
%INTop Copper*%
%IPPOS*%
%AMOC8*
5,1,8,0,0,1.08239X$1,22.5*%
G01*
%ADD10C,2.000000*%
%ADD11C,4.000000*%
%ADD12R,1.320800X0.558800*%
%ADD13R,1.200000X0.800000*%
%ADD14R,0.800000X1.200000*%
%ADD15R,3.200000X1.800000*%
%ADD16R,2.032000X2.032000*%
%ADD17C,2.032000*%
%ADD18C,3.600000*%
%ADD19R,1.600000X1.800000*%
%ADD20R,3.100000X1.000000*%
%ADD21R,1.700000X0.700000*%
%ADD22R,1.270000X0.558800*%
%ADD23R,0.558800X1.270000*%
%ADD24R,0.600000X1.200000*%
%ADD25R,0.800000X0.450000*%
%ADD26R,2.150000X0.500000*%
%ADD27R,2.400000X3.100000*%
%ADD28C,0.625000*%
%ADD29R,3.500000X4.100000*%
%ADD30R,1.397000X1.397000*%
%ADD31R,1.800000X1.600000*%
%ADD32R,0.900000X0.800000*%
%ADD33R,2.000000X1.200000*%
%ADD34R,2.286000X4.800000*%
%ADD35R,2.540000X2.540000*%
%ADD36R,0.700000X0.700000*%
%ADD37R,3.700000X1.800000*%
%ADD38C,1.524000*%
%ADD39C,1.000000*%
%ADD40C,1.500000*%
%ADD41C,1.879600*%
%ADD42R,1.879600X1.879600*%
%ADD43R,0.900000X0.350000*%
%ADD44R,0.350000X0.900000*%
%ADD45R,2.000000X1.780000*%
%ADD46P,2.034460X8X22.500000*%
%ADD47R,3.400000X2.600000*%
%ADD48C,0.609600*%
%ADD49C,0.914400*%
%ADD50C,0.406400*%
%ADD51C,0.304800*%
%ADD52C,0.812800*%
%ADD53C,0.635000*%
%ADD54C,0.609600*%
%ADD55C,0.812800*%
%ADD56C,1.676400*%
%ADD57C,1.016000*%
%ADD58C,1.930400*%
%ADD59C,0.508000*%
%ADD60R,1.016000X1.016000*%
%ADD61C,0.254000*%

G36*
X328255Y281640D02*
X328255Y281640D01*
X328304Y281641D01*
X328410Y281672D01*
X328518Y281694D01*
X328562Y281716D01*
X328610Y281730D01*
X328704Y281785D01*
X328803Y281834D01*
X328841Y281866D01*
X328884Y281891D01*
X329005Y281998D01*
X336686Y289679D01*
X336746Y289757D01*
X336814Y289829D01*
X336843Y289882D01*
X336880Y289930D01*
X336920Y290021D01*
X336968Y290107D01*
X336983Y290166D01*
X337007Y290222D01*
X337022Y290320D01*
X337047Y290415D01*
X337053Y290515D01*
X337057Y290536D01*
X337055Y290548D01*
X337057Y290576D01*
X337057Y347405D01*
X337045Y347504D01*
X337042Y347603D01*
X337025Y347661D01*
X337017Y347721D01*
X336981Y347813D01*
X336953Y347908D01*
X336923Y347960D01*
X336900Y348017D01*
X336842Y348097D01*
X336792Y348182D01*
X336726Y348257D01*
X336714Y348274D01*
X336704Y348282D01*
X336685Y348303D01*
X336212Y348777D01*
X332772Y354735D01*
X330991Y361380D01*
X330991Y368260D01*
X332772Y374905D01*
X335347Y379366D01*
X335391Y379469D01*
X335442Y379569D01*
X335452Y379615D01*
X335470Y379659D01*
X335487Y379770D01*
X335511Y379880D01*
X335510Y379927D01*
X335517Y379973D01*
X335505Y380085D01*
X335502Y380197D01*
X335489Y380243D01*
X335484Y380290D01*
X335444Y380395D01*
X335413Y380503D01*
X335389Y380544D01*
X335373Y380588D01*
X335309Y380680D01*
X335252Y380777D01*
X335204Y380831D01*
X335191Y380849D01*
X335178Y380861D01*
X335145Y380898D01*
X304571Y411472D01*
X304493Y411532D01*
X304421Y411600D01*
X304368Y411629D01*
X304320Y411666D01*
X304229Y411706D01*
X304143Y411754D01*
X304084Y411769D01*
X304028Y411793D01*
X303930Y411808D01*
X303835Y411833D01*
X303735Y411839D01*
X303714Y411843D01*
X303702Y411841D01*
X303674Y411843D01*
X111870Y411843D01*
X111772Y411831D01*
X111673Y411828D01*
X111615Y411811D01*
X111554Y411803D01*
X111462Y411767D01*
X111367Y411739D01*
X111315Y411709D01*
X111259Y411686D01*
X111179Y411628D01*
X111093Y411578D01*
X111018Y411512D01*
X111001Y411500D01*
X110994Y411490D01*
X110973Y411472D01*
X109847Y410346D01*
X109786Y410267D01*
X109718Y410195D01*
X109689Y410142D01*
X109652Y410094D01*
X109612Y410003D01*
X109564Y409917D01*
X109549Y409858D01*
X109525Y409802D01*
X109510Y409704D01*
X109485Y409609D01*
X109479Y409509D01*
X109475Y409488D01*
X109477Y409476D01*
X109475Y409448D01*
X109475Y400830D01*
X92946Y384301D01*
X86360Y384301D01*
X86262Y384289D01*
X86163Y384286D01*
X86105Y384269D01*
X86044Y384261D01*
X85952Y384225D01*
X85857Y384197D01*
X85805Y384167D01*
X85749Y384144D01*
X85669Y384086D01*
X85583Y384036D01*
X85508Y383970D01*
X85491Y383958D01*
X85484Y383948D01*
X85463Y383930D01*
X82415Y380882D01*
X82354Y380803D01*
X82286Y380731D01*
X82257Y380678D01*
X82220Y380630D01*
X82180Y380539D01*
X82132Y380453D01*
X82117Y380394D01*
X82093Y380338D01*
X82078Y380240D01*
X82053Y380145D01*
X82047Y380045D01*
X82043Y380024D01*
X82045Y380012D01*
X82043Y379984D01*
X82043Y353568D01*
X82055Y353470D01*
X82058Y353371D01*
X82075Y353313D01*
X82083Y353252D01*
X82119Y353160D01*
X82147Y353065D01*
X82177Y353013D01*
X82200Y352957D01*
X82258Y352877D01*
X82308Y352791D01*
X82374Y352716D01*
X82386Y352699D01*
X82396Y352692D01*
X82415Y352671D01*
X86479Y348607D01*
X86557Y348546D01*
X86629Y348478D01*
X86682Y348449D01*
X86730Y348412D01*
X86821Y348372D01*
X86907Y348324D01*
X86966Y348309D01*
X87022Y348285D01*
X87120Y348270D01*
X87215Y348245D01*
X87315Y348239D01*
X87336Y348235D01*
X87348Y348237D01*
X87357Y348236D01*
X87495Y348099D01*
X87573Y348038D01*
X87645Y347970D01*
X87698Y347941D01*
X87746Y347904D01*
X87837Y347864D01*
X87923Y347816D01*
X87982Y347801D01*
X88038Y347777D01*
X88136Y347762D01*
X88231Y347737D01*
X88331Y347731D01*
X88352Y347727D01*
X88364Y347729D01*
X88392Y347727D01*
X112268Y347727D01*
X112366Y347739D01*
X112465Y347742D01*
X112523Y347759D01*
X112584Y347767D01*
X112676Y347803D01*
X112771Y347831D01*
X112823Y347861D01*
X112879Y347884D01*
X112959Y347942D01*
X113045Y347992D01*
X113120Y348058D01*
X113137Y348070D01*
X113144Y348080D01*
X113166Y348099D01*
X135106Y370039D01*
X135112Y370047D01*
X135119Y370052D01*
X135209Y370172D01*
X135301Y370290D01*
X135305Y370299D01*
X135310Y370306D01*
X135381Y370451D01*
X136607Y373410D01*
X138893Y375696D01*
X141881Y376934D01*
X167975Y376934D01*
X170963Y375696D01*
X172652Y374007D01*
X172731Y373946D01*
X172803Y373878D01*
X172856Y373849D01*
X172904Y373812D01*
X172995Y373772D01*
X173081Y373724D01*
X173140Y373709D01*
X173195Y373685D01*
X173293Y373670D01*
X173389Y373645D01*
X173489Y373639D01*
X173509Y373635D01*
X173522Y373637D01*
X173550Y373635D01*
X198306Y373635D01*
X198404Y373647D01*
X198503Y373650D01*
X198562Y373667D01*
X198622Y373675D01*
X198714Y373711D01*
X198809Y373739D01*
X198861Y373769D01*
X198917Y373792D01*
X198997Y373850D01*
X199083Y373900D01*
X199158Y373966D01*
X199175Y373978D01*
X199183Y373988D01*
X199204Y374007D01*
X200893Y375696D01*
X203881Y376934D01*
X229975Y376934D01*
X232963Y375696D01*
X235249Y373410D01*
X236487Y370422D01*
X236487Y361176D01*
X236499Y361078D01*
X236502Y360979D01*
X236519Y360921D01*
X236527Y360860D01*
X236563Y360768D01*
X236591Y360673D01*
X236621Y360621D01*
X236644Y360565D01*
X236702Y360485D01*
X236752Y360399D01*
X236818Y360324D01*
X236830Y360307D01*
X236840Y360300D01*
X236858Y360279D01*
X238752Y358385D01*
X238830Y358325D01*
X238902Y358257D01*
X238955Y358228D01*
X239003Y358191D01*
X239094Y358151D01*
X239180Y358103D01*
X239239Y358088D01*
X239295Y358064D01*
X239393Y358049D01*
X239407Y358045D01*
X244337Y356003D01*
X299869Y300471D01*
X301901Y295564D01*
X301912Y295528D01*
X301920Y295467D01*
X301956Y295375D01*
X301984Y295280D01*
X302014Y295228D01*
X302037Y295172D01*
X302095Y295092D01*
X302145Y295006D01*
X302211Y294931D01*
X302223Y294914D01*
X302233Y294907D01*
X302251Y294886D01*
X305884Y291253D01*
X305962Y291193D01*
X306034Y291125D01*
X306087Y291096D01*
X306135Y291059D01*
X306226Y291019D01*
X306312Y290971D01*
X306371Y290956D01*
X306427Y290932D01*
X306525Y290917D01*
X306620Y290892D01*
X306720Y290886D01*
X306741Y290882D01*
X306753Y290884D01*
X306781Y290882D01*
X307788Y290882D01*
X309687Y290095D01*
X309782Y290069D01*
X309875Y290034D01*
X309935Y290027D01*
X309993Y290011D01*
X310092Y290010D01*
X310191Y289999D01*
X310251Y290007D01*
X310311Y290006D01*
X310408Y290029D01*
X310506Y290043D01*
X310601Y290076D01*
X310621Y290080D01*
X310632Y290086D01*
X310658Y290095D01*
X312434Y290831D01*
X317486Y290831D01*
X322154Y288897D01*
X325727Y285324D01*
X326935Y282409D01*
X326959Y282366D01*
X326976Y282320D01*
X327038Y282229D01*
X327092Y282133D01*
X327127Y282098D01*
X327155Y282056D01*
X327237Y281984D01*
X327313Y281905D01*
X327356Y281879D01*
X327393Y281846D01*
X327491Y281796D01*
X327584Y281739D01*
X327632Y281724D01*
X327676Y281701D01*
X327783Y281677D01*
X327888Y281645D01*
X327938Y281643D01*
X327987Y281632D01*
X328097Y281635D01*
X328206Y281630D01*
X328255Y281640D01*
G37*
G36*
X901702Y-101725D02*
X901702Y-101725D01*
X901704Y-101726D01*
X901747Y-101706D01*
X901791Y-101688D01*
X901791Y-101686D01*
X901793Y-101685D01*
X901826Y-101600D01*
X901826Y-81280D01*
X901825Y-81278D01*
X901826Y-81276D01*
X901806Y-81233D01*
X901788Y-81189D01*
X901786Y-81189D01*
X901785Y-81187D01*
X901700Y-81154D01*
X863600Y-81154D01*
X863598Y-81155D01*
X863596Y-81154D01*
X863553Y-81174D01*
X863509Y-81192D01*
X863509Y-81194D01*
X863507Y-81195D01*
X863474Y-81280D01*
X863474Y-101600D01*
X863475Y-101602D01*
X863474Y-101604D01*
X863494Y-101647D01*
X863512Y-101691D01*
X863514Y-101691D01*
X863515Y-101693D01*
X863600Y-101726D01*
X901700Y-101726D01*
X901702Y-101725D01*
G37*
G36*
X901702Y-76325D02*
X901702Y-76325D01*
X901704Y-76326D01*
X901747Y-76306D01*
X901791Y-76288D01*
X901791Y-76286D01*
X901793Y-76285D01*
X901826Y-76200D01*
X901826Y-55880D01*
X901825Y-55878D01*
X901826Y-55876D01*
X901806Y-55833D01*
X901788Y-55789D01*
X901786Y-55789D01*
X901785Y-55787D01*
X901700Y-55754D01*
X863600Y-55754D01*
X863598Y-55755D01*
X863596Y-55754D01*
X863553Y-55774D01*
X863509Y-55792D01*
X863509Y-55794D01*
X863507Y-55795D01*
X863474Y-55880D01*
X863474Y-76200D01*
X863475Y-76202D01*
X863474Y-76204D01*
X863494Y-76247D01*
X863512Y-76291D01*
X863514Y-76291D01*
X863515Y-76293D01*
X863600Y-76326D01*
X901700Y-76326D01*
X901702Y-76325D01*
G37*
G36*
X812802Y-76325D02*
X812802Y-76325D01*
X812804Y-76326D01*
X812847Y-76306D01*
X812891Y-76288D01*
X812891Y-76286D01*
X812893Y-76285D01*
X812926Y-76200D01*
X812926Y-55880D01*
X812925Y-55878D01*
X812926Y-55876D01*
X812906Y-55833D01*
X812888Y-55789D01*
X812886Y-55789D01*
X812885Y-55787D01*
X812800Y-55754D01*
X779780Y-55754D01*
X779778Y-55755D01*
X779776Y-55754D01*
X779733Y-55774D01*
X779689Y-55792D01*
X779689Y-55794D01*
X779687Y-55795D01*
X779654Y-55880D01*
X779654Y-76200D01*
X779655Y-76202D01*
X779654Y-76204D01*
X779674Y-76247D01*
X779692Y-76291D01*
X779694Y-76291D01*
X779695Y-76293D01*
X779780Y-76326D01*
X812800Y-76326D01*
X812802Y-76325D01*
G37*
G36*
X812802Y-101725D02*
X812802Y-101725D01*
X812804Y-101726D01*
X812847Y-101706D01*
X812891Y-101688D01*
X812891Y-101686D01*
X812893Y-101685D01*
X812926Y-101600D01*
X812926Y-81280D01*
X812925Y-81278D01*
X812926Y-81276D01*
X812906Y-81233D01*
X812888Y-81189D01*
X812886Y-81189D01*
X812885Y-81187D01*
X812800Y-81154D01*
X779780Y-81154D01*
X779778Y-81155D01*
X779776Y-81154D01*
X779733Y-81174D01*
X779689Y-81192D01*
X779689Y-81194D01*
X779687Y-81195D01*
X779654Y-81280D01*
X779654Y-101600D01*
X779655Y-101602D01*
X779654Y-101604D01*
X779674Y-101647D01*
X779692Y-101691D01*
X779694Y-101691D01*
X779695Y-101693D01*
X779780Y-101726D01*
X812800Y-101726D01*
X812802Y-101725D01*
G37*
%LPC*%
G36*
X291210Y359792D02*
X291210Y359792D01*
X291210Y380294D01*
X306505Y380294D01*
X307152Y380121D01*
X307731Y379786D01*
X308204Y379313D01*
X308539Y378734D01*
X308712Y378087D01*
X308712Y359792D01*
X291210Y359792D01*
G37*
%LPD*%
%LPC*%
G36*
X291210Y334212D02*
X291210Y334212D01*
X291210Y354714D01*
X308712Y354714D01*
X308712Y336419D01*
X308539Y335772D01*
X308204Y335193D01*
X307731Y334720D01*
X307152Y334385D01*
X306505Y334212D01*
X291210Y334212D01*
G37*
%LPD*%
%LPC*%
G36*
X268630Y359792D02*
X268630Y359792D01*
X268630Y378087D01*
X268803Y378734D01*
X269138Y379313D01*
X269611Y379786D01*
X270190Y380121D01*
X270837Y380294D01*
X286132Y380294D01*
X286132Y359792D01*
X268630Y359792D01*
G37*
%LPD*%
%LPC*%
G36*
X270837Y334212D02*
X270837Y334212D01*
X270190Y334385D01*
X269611Y334720D01*
X269138Y335193D01*
X268803Y335772D01*
X268630Y336419D01*
X268630Y354714D01*
X286132Y354714D01*
X286132Y334212D01*
X270837Y334212D01*
G37*
%LPD*%
%LPC*%
G36*
X288670Y357252D02*
X288670Y357252D01*
X288670Y357254D01*
X288672Y357254D01*
X288672Y357252D01*
X288670Y357252D01*
G37*
%LPD*%
D10*
X785070Y68600D03*
X785070Y17800D03*
X785070Y43200D03*
D11*
X860000Y-22840D03*
X860000Y109240D03*
D10*
X929850Y17800D03*
X929850Y68600D03*
D12*
X353822Y266446D03*
X353822Y257048D03*
X353822Y247650D03*
X379222Y247650D03*
X379222Y266446D03*
D13*
X224155Y191533D03*
X224155Y209533D03*
X241935Y191533D03*
X241935Y209533D03*
X259715Y191533D03*
X259715Y209533D03*
X277495Y191533D03*
X277495Y209533D03*
X313055Y191533D03*
X313055Y209533D03*
X295275Y191533D03*
X295275Y209533D03*
X204851Y191406D03*
X204851Y209406D03*
X186309Y191406D03*
X186309Y209406D03*
D14*
X194454Y252222D03*
X212454Y252222D03*
D15*
X344170Y224723D03*
X344170Y168723D03*
D14*
X269604Y16510D03*
X251604Y16510D03*
X251604Y34290D03*
X269604Y34290D03*
X251604Y52070D03*
X269604Y52070D03*
D16*
X396320Y371420D03*
D17*
X421720Y371420D03*
X447120Y371420D03*
X472520Y371420D03*
X497920Y371420D03*
X523320Y371420D03*
D18*
X589120Y127820D03*
X357120Y127820D03*
X357120Y364820D03*
X589120Y364820D03*
D17*
X548720Y371420D03*
D13*
X762000Y51960D03*
X762000Y69960D03*
X769620Y125620D03*
X769620Y143620D03*
D14*
X918320Y-40640D03*
X900320Y-40640D03*
D13*
X939800Y-21700D03*
X939800Y-3700D03*
X24257Y198738D03*
X24257Y180738D03*
D14*
X399940Y342900D03*
X417940Y342900D03*
D19*
X422940Y314960D03*
X394940Y314960D03*
D13*
X798957Y246778D03*
X798957Y264778D03*
D20*
X151680Y173040D03*
X61680Y173040D03*
X151680Y213040D03*
X61680Y213040D03*
D14*
X162162Y232537D03*
X144162Y232537D03*
D13*
X563880Y331360D03*
X563880Y349360D03*
X781177Y246778D03*
X781177Y264778D03*
D21*
X787527Y158053D03*
X787527Y170053D03*
X787527Y182053D03*
D22*
X816991Y220278D03*
X816991Y212278D03*
X816991Y204278D03*
X816991Y196278D03*
X816991Y188278D03*
X816991Y180278D03*
X816991Y172278D03*
X816991Y164278D03*
D23*
X831917Y149352D03*
X839917Y149352D03*
X847917Y149352D03*
X855917Y149352D03*
X863917Y149352D03*
X871917Y149352D03*
X879917Y149352D03*
X887917Y149352D03*
D22*
X902843Y164278D03*
X902843Y172278D03*
X902843Y180278D03*
X902843Y188278D03*
X902843Y196278D03*
X902843Y204278D03*
X902843Y212278D03*
X902843Y220278D03*
D23*
X887917Y235204D03*
X879917Y235204D03*
X871917Y235204D03*
X863917Y235204D03*
X855917Y235204D03*
X847917Y235204D03*
X839917Y235204D03*
X831917Y235204D03*
D13*
X903859Y254491D03*
X903859Y236491D03*
D24*
X274955Y167573D03*
X262255Y167573D03*
X249555Y167573D03*
X236855Y167573D03*
X224155Y167573D03*
X211455Y167573D03*
X198755Y167573D03*
X186055Y167573D03*
X186055Y111573D03*
X198755Y111573D03*
X211455Y111573D03*
X224155Y111573D03*
X236855Y111573D03*
X249555Y111573D03*
X262255Y111573D03*
X274955Y111573D03*
D13*
X298450Y131081D03*
X298450Y149081D03*
X447040Y331360D03*
X447040Y349360D03*
X472440Y331360D03*
X472440Y349360D03*
X497840Y331360D03*
X497840Y349360D03*
X523240Y331360D03*
X523240Y349360D03*
X548640Y331360D03*
X548640Y349360D03*
D25*
X776809Y313411D03*
X776809Y303911D03*
X776809Y294411D03*
X802309Y294411D03*
X802309Y303911D03*
X802309Y313411D03*
D26*
X113617Y296545D03*
X113617Y283845D03*
X113617Y271145D03*
X113617Y258445D03*
X171117Y258445D03*
X171117Y271145D03*
X171117Y283845D03*
X171117Y296545D03*
D27*
X142367Y277495D03*
D28*
X815594Y346884D02*
X847344Y346884D01*
X847344Y340634D01*
X815594Y340634D01*
X815594Y346884D01*
X815594Y346571D02*
X847344Y346571D01*
X847344Y374884D02*
X815594Y374884D01*
X847344Y374884D02*
X847344Y368634D01*
X815594Y368634D01*
X815594Y374884D01*
X815594Y374571D02*
X847344Y374571D01*
D29*
X288671Y262253D03*
X288671Y357253D03*
D14*
X780559Y329311D03*
X798559Y329311D03*
D30*
X826389Y321691D03*
X859409Y321691D03*
D31*
X866521Y373029D03*
X866521Y345029D03*
D14*
X727981Y305689D03*
X745981Y305689D03*
D13*
X761619Y299991D03*
X761619Y317991D03*
D14*
X745981Y287909D03*
X727981Y287909D03*
D19*
X828899Y298831D03*
X856899Y298831D03*
D32*
X569809Y157519D03*
X548809Y148019D03*
X548809Y167019D03*
D14*
X550029Y121479D03*
X532029Y121479D03*
D13*
X531379Y145931D03*
X531379Y163931D03*
D14*
X602598Y267843D03*
X584598Y267843D03*
D13*
X557657Y239378D03*
X557657Y221378D03*
X557657Y190898D03*
X557657Y208898D03*
D31*
X560578Y256383D03*
X560578Y284383D03*
D14*
X638700Y186563D03*
X656700Y186563D03*
X644415Y168910D03*
X662415Y168910D03*
D13*
X661162Y241537D03*
X661162Y223537D03*
D33*
X34798Y302512D03*
X34798Y270512D03*
X66421Y302004D03*
X66421Y270004D03*
X24892Y252347D03*
X24892Y220347D03*
D13*
X89667Y266099D03*
X89667Y284099D03*
D14*
X112311Y317759D03*
X130311Y317759D03*
D13*
X214757Y282812D03*
X214757Y264812D03*
D14*
X197375Y302260D03*
X215375Y302260D03*
D13*
X194437Y283447D03*
X194437Y265447D03*
D14*
X194213Y236748D03*
X212213Y236748D03*
D34*
X216928Y344805D03*
X154928Y344805D03*
D35*
X212725Y60579D03*
X165735Y60579D03*
D13*
X53848Y247633D03*
X53848Y229633D03*
X616712Y307611D03*
X616712Y325611D03*
D36*
X634342Y313330D03*
X647342Y313330D03*
X640842Y331830D03*
D37*
X119761Y108423D03*
X119761Y55923D03*
D34*
X18657Y97282D03*
X80657Y97282D03*
D13*
X596519Y308246D03*
X596519Y326246D03*
D38*
X94361Y28448D02*
X94361Y13208D01*
X122301Y13208D02*
X122301Y28448D01*
X176784Y28829D02*
X176784Y13589D01*
X204724Y13589D02*
X204724Y28829D01*
X762000Y-36830D02*
X777240Y-36830D01*
X777240Y-8890D02*
X762000Y-8890D01*
D39*
X88900Y403860D03*
X893699Y388366D03*
X949960Y-99060D03*
D13*
X20320Y145940D03*
X20320Y163940D03*
X939800Y92600D03*
X939800Y110600D03*
X229362Y253856D03*
X229362Y235856D03*
D19*
X41880Y142240D03*
X69880Y142240D03*
D14*
X69740Y48260D03*
X87740Y48260D03*
D19*
X372207Y286639D03*
X400207Y286639D03*
D14*
X390000Y228600D03*
X372000Y228600D03*
X778400Y197104D03*
X796400Y197104D03*
D13*
X904240Y133240D03*
X904240Y151240D03*
D40*
X229616Y29591D03*
D41*
X621411Y366522D03*
X646811Y366522D03*
D42*
X942340Y157480D03*
D41*
X942340Y182880D03*
X942340Y208280D03*
X942340Y233680D03*
X942340Y259080D03*
X942340Y284480D03*
D43*
X580350Y243020D03*
X580350Y236520D03*
X580350Y230020D03*
X580350Y223520D03*
X580350Y217020D03*
X580350Y210520D03*
X580350Y204020D03*
X638850Y204020D03*
X638850Y210520D03*
X638850Y217020D03*
X638850Y223520D03*
X638850Y230020D03*
X638850Y236520D03*
X638850Y243020D03*
D44*
X710750Y165060D03*
X717250Y165060D03*
X723750Y165060D03*
X730250Y165060D03*
X736750Y165060D03*
X743250Y165060D03*
X749750Y165060D03*
X749750Y223560D03*
X743250Y223560D03*
X736750Y223560D03*
X730250Y223560D03*
X723750Y223560D03*
X717250Y223560D03*
X710750Y223560D03*
D14*
X733950Y262890D03*
X751950Y262890D03*
X733950Y247650D03*
X751950Y247650D03*
X744330Y143510D03*
X726330Y143510D03*
X744838Y120142D03*
X726838Y120142D03*
D13*
X687070Y170070D03*
X687070Y188070D03*
D45*
X801190Y-66040D03*
X801190Y-91440D03*
X875690Y-91440D03*
X875690Y-66040D03*
D36*
X103020Y148950D03*
X90020Y148950D03*
X96520Y130450D03*
D14*
X806560Y124460D03*
X788560Y124460D03*
D13*
X767080Y-71010D03*
X767080Y-89010D03*
X797560Y-29608D03*
X797560Y-47608D03*
D14*
X661780Y259080D03*
X643780Y259080D03*
D13*
X687070Y221090D03*
X687070Y203090D03*
D46*
X690880Y365760D03*
X690880Y391160D03*
X716280Y365760D03*
X716280Y391160D03*
X741680Y365760D03*
X741680Y391160D03*
D14*
X294530Y113030D03*
X312530Y113030D03*
X290720Y168910D03*
X308720Y168910D03*
D40*
X498348Y144526D03*
D41*
X280670Y71120D03*
D40*
X641350Y288290D03*
X317500Y152400D03*
X317500Y130810D03*
X153670Y142240D03*
X621030Y167640D03*
X668020Y288290D03*
X154940Y102870D03*
X224790Y11430D03*
X942340Y132080D03*
D14*
X899050Y115570D03*
X917050Y115570D03*
D13*
X473964Y146956D03*
X473964Y164956D03*
D40*
X944880Y43180D03*
D14*
X795892Y224536D03*
X777892Y224536D03*
D40*
X191516Y401320D03*
D47*
X471424Y188680D03*
X471424Y278680D03*
D36*
X465732Y133202D03*
X452732Y133202D03*
X459232Y114702D03*
D14*
X433688Y174752D03*
X415688Y174752D03*
D41*
X402844Y127000D03*
X428244Y127000D03*
D14*
X714104Y119888D03*
X696104Y119888D03*
D41*
X645668Y127000D03*
X671068Y127000D03*
D14*
X501760Y118110D03*
X483760Y118110D03*
D48*
X90020Y144630D02*
X90020Y148950D01*
X90020Y144630D02*
X87630Y142240D01*
X69880Y142240D01*
X69880Y157450D01*
X68580Y158750D01*
D49*
X68580Y158750D03*
D48*
X61680Y165650D02*
X61680Y173040D01*
X61680Y165650D02*
X68580Y158750D01*
X20320Y145940D02*
X20320Y137160D01*
X17780Y134620D01*
D49*
X17780Y134620D03*
D50*
X10797Y220347D02*
X24892Y220347D01*
X10797Y220347D02*
X8890Y218440D01*
D49*
X8890Y218440D03*
D48*
X35306Y270004D02*
X66421Y270004D01*
D51*
X35306Y270004D02*
X34798Y270512D01*
D48*
X53848Y247633D02*
X62213Y247633D01*
X66040Y251460D01*
D49*
X66040Y251460D03*
D48*
X66421Y251841D02*
X66421Y270004D01*
D51*
X66421Y251841D02*
X66040Y251460D01*
D49*
X91440Y229108D03*
D48*
X171117Y283845D02*
X194039Y283845D01*
D51*
X194437Y283447D01*
D48*
X171117Y283845D02*
X148717Y283845D01*
D51*
X142367Y277495D01*
D48*
X197375Y293895D02*
X197375Y302260D01*
X197375Y293895D02*
X194310Y290830D01*
X194310Y283574D01*
D51*
X194437Y283447D01*
D48*
X197375Y302260D02*
X197375Y317737D01*
X193040Y322072D01*
D49*
X193040Y322072D03*
D48*
X154928Y344805D02*
X138303Y344805D01*
X136398Y342900D01*
D49*
X136398Y342900D03*
D48*
X229362Y253856D02*
X240648Y253856D01*
X242062Y255270D01*
D49*
X242062Y255270D03*
X314960Y278130D03*
D52*
X833120Y196850D03*
D51*
X825692Y204278D02*
X816991Y204278D01*
X825692Y204278D02*
X833120Y196850D01*
X824548Y188278D02*
X816991Y188278D01*
X824548Y188278D02*
X833120Y196850D01*
D48*
X889572Y196278D02*
X902843Y196278D01*
X889572Y196278D02*
X889000Y196850D01*
D53*
X889000Y196850D03*
D51*
X859409Y321691D02*
X859790Y322072D01*
D48*
X866521Y345029D02*
X879699Y345029D01*
X881380Y346710D01*
D49*
X881380Y346710D03*
X892810Y130810D03*
D48*
X939800Y92600D02*
X950070Y92600D01*
X951230Y91440D01*
D49*
X951230Y91440D03*
D48*
X950070Y-21700D02*
X939800Y-21700D01*
X950070Y-21700D02*
X951230Y-22860D01*
D52*
X951230Y-22860D03*
D49*
X856996Y-92710D03*
D48*
X251604Y34290D02*
X235077Y34290D01*
X229616Y29591D01*
X165735Y60579D02*
X165735Y76835D01*
X160020Y82550D01*
D49*
X160020Y82550D03*
X69850Y60960D03*
D48*
X186055Y111573D02*
X198755Y111573D01*
D49*
X175260Y120650D03*
D48*
X186055Y154305D02*
X186055Y167573D01*
X186055Y154305D02*
X185420Y153670D01*
D53*
X185420Y153670D03*
D48*
X186055Y167573D02*
X198755Y167573D01*
X279671Y131081D02*
X298450Y131081D01*
X279671Y131081D02*
X275590Y127000D01*
D49*
X275590Y127000D03*
D48*
X274955Y126365D02*
X274955Y111573D01*
X274955Y126365D02*
X275590Y127000D01*
X353822Y257048D02*
X353822Y266446D01*
X353822Y277368D01*
D51*
X353060Y278130D01*
D49*
X353060Y278130D03*
D48*
X394940Y314960D02*
X394940Y327630D01*
X399940Y332630D01*
X399940Y342900D01*
X399940Y367800D01*
X396320Y371420D01*
X550029Y121479D02*
X557971Y121479D01*
X560070Y119380D01*
D49*
X560070Y119380D03*
D48*
X569809Y157519D02*
X577889Y157519D01*
X580390Y160020D01*
D49*
X580390Y160020D03*
D48*
X571898Y190898D02*
X557657Y190898D01*
X571898Y190898D02*
X574040Y193040D01*
D52*
X574040Y193040D03*
D51*
X574850Y193850D01*
D52*
X673100Y214122D03*
D48*
X675750Y221090D02*
X687070Y221090D01*
X675750Y221090D02*
X673100Y218440D01*
X673100Y214122D01*
X722630Y262890D02*
X733950Y262890D01*
D52*
X722630Y262890D03*
D48*
X673100Y259080D02*
X661780Y259080D01*
D52*
X673100Y259080D03*
D49*
X670560Y320040D03*
D48*
X560578Y284383D02*
X544927Y284383D01*
D51*
X544830Y284480D01*
D52*
X544830Y284480D03*
D48*
X751349Y317991D02*
X761619Y317991D01*
X751349Y317991D02*
X750570Y318770D01*
D49*
X750570Y318770D03*
D48*
X776809Y303911D02*
X785749Y303911D01*
D51*
X786130Y303530D01*
D49*
X786130Y303530D03*
X734060Y335280D03*
D48*
X787527Y170053D02*
X797433Y170053D01*
X801370Y166370D01*
D53*
X801370Y166370D03*
D52*
X768350Y201422D03*
D49*
X186690Y127000D03*
X236220Y88900D03*
D48*
X242570Y16510D02*
X251604Y16510D01*
X242570Y16510D02*
X240030Y13970D01*
D49*
X240030Y13970D03*
D48*
X251604Y16510D02*
X251604Y34290D01*
D52*
X599440Y232410D03*
X742950Y211836D03*
X859790Y166370D03*
D49*
X945642Y320040D03*
D52*
X199390Y219710D03*
D49*
X830580Y15240D03*
X806450Y45720D03*
D48*
X895240Y133240D02*
X904240Y133240D01*
X895240Y133240D02*
X892810Y130810D01*
X77976Y270004D02*
X66421Y270004D01*
X77976Y270004D02*
X81280Y266700D01*
X89066Y266700D01*
D51*
X89667Y266099D01*
D48*
X177987Y111573D02*
X186055Y111573D01*
X177987Y111573D02*
X175260Y114300D01*
X175260Y120650D01*
X647342Y313330D02*
X664570Y313330D01*
X670560Y320040D01*
X602598Y267843D02*
X602598Y235568D01*
X599440Y232410D01*
X856899Y298831D02*
X856899Y319181D01*
D50*
X859409Y321691D01*
D48*
X859790Y322072D02*
X859790Y331470D01*
X866140Y337820D01*
X866140Y344648D01*
D50*
X866521Y345029D01*
X787400Y170180D02*
X787527Y170053D01*
D54*
X770890Y153670D03*
D53*
X151130Y289560D03*
X143510Y289560D03*
X135890Y289560D03*
X133350Y281940D03*
X140970Y281940D03*
X148590Y281940D03*
X151130Y274320D03*
X143510Y274320D03*
X135890Y274320D03*
X133350Y266700D03*
X140970Y266700D03*
X148590Y266700D03*
D52*
X754380Y117856D03*
D50*
X772668Y197104D02*
X768350Y201422D01*
X772668Y197104D02*
X778400Y197104D01*
X777892Y215536D02*
X777892Y224536D01*
X777892Y215536D02*
X769620Y207264D01*
X769620Y202692D01*
X768350Y201422D01*
D51*
X580350Y199350D02*
X580350Y204020D01*
X580350Y199350D02*
X574040Y193040D01*
D50*
X749750Y165060D02*
X759500Y165060D01*
X770890Y153670D01*
D49*
X517398Y145796D03*
D48*
X517533Y145931D02*
X531379Y145931D01*
X517533Y145931D02*
X517398Y145796D01*
D49*
X830580Y-68072D03*
D55*
X858266Y-91440D02*
X875690Y-91440D01*
D48*
X858266Y-91440D02*
X856996Y-92710D01*
D52*
X643636Y154178D03*
D48*
X644415Y154957D02*
X644415Y168910D01*
X644415Y154957D02*
X643636Y154178D01*
X744838Y120142D02*
X752094Y120142D01*
X754380Y117856D01*
X452732Y133202D02*
X445918Y133202D01*
D50*
X442976Y136144D01*
D49*
X442976Y136144D03*
D50*
X501760Y118110D02*
X508000Y118110D01*
X511810Y121920D01*
X511810Y132080D01*
X517398Y137668D01*
X517398Y145796D01*
D48*
X69850Y60960D02*
X69850Y48370D01*
X69740Y48260D01*
D54*
X789432Y212852D03*
D50*
X789432Y218076D01*
X795892Y224536D01*
D56*
X44450Y75438D03*
D48*
X49530Y302004D02*
X66421Y302004D01*
X49530Y302004D02*
X35306Y302004D01*
D51*
X34798Y302512D01*
D48*
X50800Y290830D02*
X51181Y290449D01*
D49*
X50800Y290830D03*
D48*
X89921Y283845D02*
X113617Y283845D01*
D51*
X89921Y283845D02*
X89667Y284099D01*
D48*
X826359Y299309D02*
X828899Y298831D01*
D49*
X815340Y300990D03*
D51*
X828010Y299720D02*
X828899Y298831D01*
D48*
X802309Y294411D02*
X802309Y303911D01*
X24892Y252347D02*
X11813Y252347D01*
X7620Y256540D01*
X7620Y297180D01*
X12700Y302260D01*
X34546Y302260D01*
D51*
X34798Y302512D01*
D48*
X548809Y148019D02*
X560641Y148019D01*
X559816Y146812D01*
D49*
X559816Y146812D03*
D48*
X817021Y299309D02*
X826359Y299309D01*
X817021Y299309D02*
X815340Y300990D01*
X808761Y294411D02*
X802309Y294411D01*
X808761Y294411D02*
X815340Y300990D01*
X89667Y284099D02*
X84326Y284099D01*
X66421Y302004D01*
D49*
X520700Y120650D03*
D48*
X531200Y120650D02*
X532029Y121479D01*
X531200Y120650D02*
X520700Y120650D01*
D57*
X44450Y89662D02*
X44450Y75438D01*
X44450Y89662D02*
X36576Y97536D01*
X34544Y97536D01*
X18911Y97536D01*
X18657Y97282D01*
X41880Y104872D02*
X41880Y142240D01*
X41880Y104872D02*
X34544Y97536D01*
D48*
X473964Y139700D02*
X473964Y146956D01*
X473964Y139700D02*
X477520Y136144D01*
D49*
X477520Y136144D03*
D48*
X51181Y290449D02*
X51181Y300353D01*
X49530Y302004D01*
D50*
X211455Y180975D02*
X211455Y167573D01*
X223520Y190898D02*
X224155Y191533D01*
X222013Y191533D01*
X211455Y180975D01*
X224155Y174879D02*
X224155Y167573D01*
X241300Y190898D02*
X241935Y191533D01*
X241300Y190898D02*
X240174Y190898D01*
X224155Y174879D01*
X236855Y175895D02*
X236855Y167573D01*
X236855Y175895D02*
X241300Y180340D01*
X246998Y180340D01*
X258191Y191533D02*
X259715Y191533D01*
X258191Y191533D02*
X246998Y180340D01*
X249555Y173355D02*
X249555Y167573D01*
X249555Y173355D02*
X256540Y180340D01*
X266302Y180340D01*
X277495Y191533D01*
X313055Y191533D02*
X313055Y184785D01*
X314960Y182880D01*
D53*
X314960Y182880D03*
X274320Y91440D03*
D50*
X249555Y100965D02*
X249555Y111573D01*
X249555Y100965D02*
X256540Y93980D01*
X271780Y93980D01*
X274320Y91440D01*
X295275Y186055D02*
X295275Y191533D01*
X295275Y186055D02*
X292100Y182880D01*
D53*
X292100Y182880D03*
X266700Y86360D03*
D50*
X236855Y100965D02*
X236855Y111573D01*
X236855Y100965D02*
X251460Y86360D01*
X266700Y86360D01*
X224155Y111573D02*
X224155Y133985D01*
X213360Y144780D01*
X180340Y144780D01*
X175260Y149860D01*
X175260Y175260D01*
X180340Y180340D01*
X200660Y180340D01*
X204851Y184531D01*
X204851Y191406D01*
X211455Y133985D02*
X211455Y111573D01*
X211455Y133985D02*
X208280Y137160D01*
X177800Y137160D01*
X160020Y154940D01*
X134620Y154940D01*
X127000Y162560D01*
X127000Y182880D01*
X134620Y190500D01*
X185403Y190500D01*
X186309Y191406D01*
D48*
X269604Y34290D02*
X269604Y16510D01*
X269604Y34290D02*
X269604Y52070D01*
X269604Y66404D01*
X274320Y71120D01*
X280670Y71120D01*
D52*
X877570Y176530D03*
D50*
X881318Y180278D02*
X902843Y180278D01*
X881318Y180278D02*
X877570Y176530D01*
X839917Y187137D02*
X839917Y149352D01*
X839917Y187137D02*
X843280Y190500D01*
X843280Y200660D01*
D52*
X843280Y200660D03*
D50*
X601980Y208280D02*
X594360Y215900D01*
X601980Y208280D02*
X601980Y186690D01*
X621030Y167640D01*
X593240Y217020D02*
X580350Y217020D01*
X593240Y217020D02*
X594360Y215900D01*
D53*
X594360Y215900D03*
D50*
X171577Y232537D02*
X162162Y232537D01*
X171577Y232537D02*
X175260Y236220D01*
D52*
X175260Y236220D03*
D50*
X633268Y236520D02*
X638850Y236520D01*
X633268Y236520D02*
X630936Y234188D01*
X627380Y234188D01*
X624840Y236728D01*
X624840Y251460D01*
X635000Y261620D01*
X635000Y281940D01*
X641350Y288290D01*
X353822Y247650D02*
X339090Y247650D01*
X337820Y248920D01*
D49*
X337820Y248920D03*
D50*
X890462Y204278D02*
X902843Y204278D01*
X890462Y204278D02*
X889000Y205740D01*
D53*
X889000Y205740D03*
D58*
X767080Y365760D03*
D50*
X685800Y284480D02*
X677164Y275844D01*
X653796Y275844D01*
X641350Y288290D01*
X685800Y284480D02*
X685800Y318770D01*
X665480Y339090D01*
X665480Y392430D01*
X681990Y408940D01*
X758190Y408940D01*
X767080Y400050D01*
X767080Y365760D01*
D49*
X767080Y330200D03*
D50*
X767080Y365760D01*
D48*
X918320Y-11320D02*
X918320Y-40640D01*
X918320Y-11320D02*
X925940Y-3700D01*
X939800Y-3700D01*
D57*
X939800Y7850D01*
X929850Y17800D01*
D53*
X700532Y140208D03*
X818896Y75184D03*
D48*
X872466Y75184D01*
D50*
X710750Y150426D02*
X710750Y165060D01*
D48*
X710750Y150426D02*
X700532Y140208D01*
X872466Y75184D02*
X929850Y17800D01*
D55*
X769620Y89916D02*
X769620Y125620D01*
X769620Y89916D02*
X784860Y74676D01*
D57*
X784860Y68810D01*
D50*
X785070Y68600D01*
X736750Y153820D02*
X736750Y165060D01*
X736750Y153820D02*
X735330Y152400D01*
X735330Y135890D01*
X737870Y133350D01*
X750570Y133350D01*
X758190Y125730D01*
X769510Y125730D01*
X769620Y125620D01*
D55*
X762000Y51960D02*
X762000Y30480D01*
X774700Y17780D01*
D57*
X785050Y17780D01*
D50*
X785070Y17800D01*
X730250Y183642D02*
X730250Y223560D01*
D53*
X724916Y178308D03*
X858520Y30480D03*
D57*
X797750Y17780D02*
X785070Y17800D01*
D48*
X724916Y178308D02*
X730250Y183642D01*
D55*
X810450Y30480D02*
X858520Y30480D01*
X810450Y30480D02*
X797750Y17780D01*
D53*
X538480Y266700D03*
D50*
X548640Y307340D02*
X548640Y331360D01*
D54*
X860806Y223774D03*
D50*
X871917Y168213D02*
X871917Y149352D01*
X871917Y168213D02*
X863600Y176530D01*
X863600Y220980D01*
X860806Y223774D01*
X548640Y307340D02*
X535940Y294640D01*
X535940Y269240D01*
X538480Y266700D01*
X483980Y331360D02*
X472440Y331360D01*
X483980Y331360D02*
X485140Y330200D01*
D53*
X485140Y330200D03*
D50*
X879917Y149352D02*
X879917Y138623D01*
X880110Y135890D01*
D52*
X880110Y135890D03*
D50*
X532240Y331360D02*
X523240Y331360D01*
X532240Y331360D02*
X535940Y327660D01*
D53*
X535940Y327660D03*
D50*
X887917Y157293D02*
X887917Y149352D01*
X887917Y157293D02*
X881380Y165100D01*
D49*
X881380Y165100D03*
X684530Y334010D03*
D48*
X684530Y355600D01*
X690880Y365760D01*
D50*
X447040Y331360D02*
X447040Y325120D01*
X452120Y320040D01*
D53*
X452120Y320040D03*
D50*
X892362Y164278D02*
X902843Y164278D01*
X892362Y164278D02*
X891540Y165100D01*
D53*
X891540Y165100D03*
D50*
X312530Y125840D02*
X312530Y113030D01*
X312530Y125840D02*
X317500Y130810D01*
D53*
X863600Y248920D03*
X814832Y261620D03*
D50*
X799355Y246380D02*
X798957Y246778D01*
X863917Y248603D02*
X863917Y235204D01*
X863917Y248603D02*
X863600Y248920D01*
D53*
X393700Y208280D03*
D50*
X393700Y165100D01*
X388620Y160020D01*
D53*
X388620Y160020D03*
D50*
X798957Y246778D02*
X809642Y246778D01*
X814832Y251968D01*
X814832Y261620D01*
X871917Y235204D02*
X871917Y224217D01*
X871220Y223520D01*
D53*
X871220Y223520D03*
D50*
X313690Y168910D02*
X308720Y168910D01*
X313690Y168910D02*
X317500Y165100D01*
X317500Y152400D01*
D53*
X383540Y210820D03*
D50*
X383540Y172720D01*
X378460Y167640D01*
D53*
X378460Y167640D03*
X525780Y266700D03*
X848360Y223520D03*
D50*
X855917Y157543D02*
X855917Y149352D01*
X855917Y157543D02*
X850900Y162560D01*
X850900Y184150D01*
X857250Y190500D01*
X857250Y216154D01*
X849884Y223520D01*
X848360Y223520D01*
X497840Y294640D02*
X497840Y331360D01*
X497840Y294640D02*
X525780Y266700D01*
D48*
X56498Y198738D02*
X24257Y198738D01*
X56498Y198738D02*
X60960Y203200D01*
X60960Y212320D01*
D50*
X61680Y213040D01*
D48*
X59927Y229633D02*
X53848Y229633D01*
X59927Y229633D02*
X63500Y226060D01*
X63500Y214860D01*
D50*
X61680Y213040D01*
D48*
X106360Y213040D01*
X125857Y232537D01*
X144162Y232537D01*
D51*
X872808Y188278D02*
X902843Y188278D01*
X872808Y188278D02*
X871220Y186690D01*
D53*
X871220Y186690D03*
D50*
X756920Y274320D02*
X706120Y274320D01*
X693420Y287020D01*
X693420Y330200D01*
X708660Y345440D01*
X734060Y345440D01*
X741680Y353060D01*
X741680Y365760D01*
X762000Y279400D02*
X756920Y274320D01*
X903859Y259461D02*
X903859Y254491D01*
X903859Y259461D02*
X889000Y274320D01*
X855980Y235267D02*
X855917Y235204D01*
X855980Y267970D02*
X839470Y284480D01*
X781177Y246778D02*
X766682Y246778D01*
X762000Y251460D01*
X762000Y258064D01*
X760984Y259080D01*
X760984Y270256D01*
X756920Y274320D01*
X855980Y267970D02*
X855980Y235267D01*
X862330Y274320D02*
X889000Y274320D01*
X862330Y274320D02*
X855980Y267970D01*
X797560Y279400D02*
X762000Y279400D01*
X797560Y279400D02*
X802640Y284480D01*
X839470Y284480D01*
X810766Y158053D02*
X787527Y158053D01*
X810766Y158053D02*
X816991Y164278D01*
X816991Y172278D02*
X808162Y172278D01*
X798387Y182053D02*
X787527Y182053D01*
X798387Y182053D02*
X808162Y172278D01*
D48*
X421720Y359490D02*
X421720Y371420D01*
X421720Y359490D02*
X417830Y355600D01*
X417830Y343010D01*
D51*
X417940Y342900D01*
D48*
X417940Y332630D01*
X422910Y327660D01*
X422910Y314990D01*
D51*
X422940Y314960D01*
D48*
X816991Y180278D02*
X829372Y180278D01*
X831342Y179070D01*
D52*
X831342Y179070D03*
X633730Y245110D03*
X702310Y219710D03*
D48*
X20320Y170180D02*
X20320Y163940D01*
X20320Y170180D02*
X24130Y173990D01*
X24130Y180611D01*
D51*
X24257Y180738D01*
D48*
X900320Y-29100D02*
X900320Y-40640D01*
X900320Y-29100D02*
X899160Y-27940D01*
D49*
X899160Y-27940D03*
D48*
X939800Y110600D02*
X951340Y110600D01*
X952500Y111760D01*
D49*
X952500Y111760D03*
D48*
X913240Y151240D02*
X904240Y151240D01*
X913240Y151240D02*
X916940Y149860D01*
D49*
X916940Y149860D03*
D48*
X914842Y172278D02*
X902843Y172278D01*
X914842Y172278D02*
X916940Y170180D01*
X916940Y149860D01*
X762000Y78740D02*
X762000Y69960D01*
D49*
X762000Y78740D03*
D48*
X769620Y143620D02*
X780940Y143620D01*
X782320Y142240D01*
D52*
X782320Y142240D03*
X799084Y207772D03*
D48*
X798957Y264778D02*
X781177Y264778D01*
X770238Y264778D01*
X769620Y264160D01*
D52*
X769620Y264160D03*
D48*
X855629Y373029D02*
X866521Y373029D01*
X855629Y373029D02*
X853440Y370840D01*
X832388Y370840D01*
D51*
X831469Y371759D01*
D48*
X831469Y387731D01*
X828040Y391160D01*
D52*
X828040Y391160D03*
X863600Y391160D03*
D48*
X727981Y305689D02*
X727981Y287909D01*
D49*
X706120Y322580D03*
D51*
X584200Y299720D02*
X584200Y297180D01*
D49*
X584200Y299720D03*
D48*
X587646Y308246D02*
X596519Y308246D01*
X587646Y308246D02*
X584200Y304800D01*
X584200Y299720D01*
X563880Y302260D02*
X563880Y331360D01*
D49*
X563880Y302260D03*
D48*
X24257Y180738D02*
X10558Y180738D01*
D51*
X10160Y180340D01*
D49*
X10160Y180340D03*
X172720Y200660D03*
D48*
X277639Y149081D02*
X298450Y149081D01*
D51*
X277639Y149081D02*
X276860Y149860D01*
D49*
X276860Y149860D03*
D48*
X274955Y151765D02*
X274955Y167573D01*
X274955Y151765D02*
X276860Y149860D01*
D49*
X236220Y149860D03*
X218440Y152400D03*
D52*
X848360Y210820D03*
D50*
X638850Y243020D02*
X635820Y243020D01*
X633730Y245110D01*
D48*
X727981Y305689D02*
X727981Y318499D01*
X723900Y322580D01*
X706120Y322580D01*
D50*
X796400Y196278D02*
X816991Y196278D01*
X796400Y196278D02*
X796400Y197104D01*
X796400Y205088D01*
X799084Y207772D01*
X710750Y223560D02*
X706160Y223560D01*
D59*
X702310Y219710D01*
D48*
X714104Y119888D02*
X714104Y110888D01*
X717296Y107696D01*
D49*
X717296Y107696D03*
D48*
X440944Y174752D02*
X433688Y174752D01*
X440944Y174752D02*
X442976Y176784D01*
D49*
X442976Y176784D03*
D50*
X934720Y208280D02*
X942340Y208280D01*
X934720Y208280D02*
X928370Y214630D01*
X928370Y260350D01*
X847917Y264603D02*
X838200Y274320D01*
D53*
X838200Y274320D03*
X866140Y281940D03*
D50*
X899160Y289560D02*
X928370Y260350D01*
X847917Y264603D02*
X847917Y235204D01*
X873760Y289560D02*
X899160Y289560D01*
X873760Y289560D02*
X866140Y281940D01*
X942340Y187960D02*
X942340Y182880D01*
X942340Y187960D02*
X920750Y209550D01*
X920750Y257810D01*
D52*
X828040Y274320D03*
D53*
X878840Y281940D03*
D50*
X896620Y281940D02*
X920750Y257810D01*
X839917Y260411D02*
X839917Y235204D01*
X839917Y260411D02*
X828040Y272288D01*
X828040Y274320D01*
X878840Y281940D02*
X896620Y281940D01*
D52*
X505968Y201168D03*
D48*
X501904Y201168D01*
X491744Y211328D01*
X491744Y235712D01*
X471424Y256032D01*
X471424Y278680D01*
X447040Y349360D02*
X447040Y371340D01*
D50*
X447120Y371420D01*
D48*
X472440Y371340D02*
X472440Y349360D01*
D50*
X472440Y371340D02*
X472520Y371420D01*
D48*
X497840Y371340D02*
X497840Y349360D01*
D50*
X497840Y371340D02*
X497920Y371420D01*
D48*
X548640Y371340D02*
X548640Y349360D01*
D50*
X548640Y371340D02*
X548720Y371420D01*
D48*
X548640Y349360D02*
X563880Y349360D01*
D50*
X780559Y329311D02*
X780559Y320819D01*
X776809Y317069D02*
X776809Y313411D01*
X776809Y317069D02*
X780559Y320819D01*
X798559Y321581D02*
X798559Y329311D01*
X802309Y317831D02*
X802309Y313411D01*
X802309Y317831D02*
X798559Y321581D01*
X819531Y321691D02*
X826389Y321691D01*
X819531Y321691D02*
X811251Y313411D01*
X802309Y313411D01*
X826389Y321691D02*
X826389Y331089D01*
X831469Y336169D01*
X831469Y343759D01*
X745981Y305689D02*
X745981Y287909D01*
X761619Y291719D02*
X761619Y299991D01*
X761619Y291719D02*
X757809Y287909D01*
X745981Y287909D01*
X776809Y289129D02*
X776809Y294411D01*
X776809Y289129D02*
X774700Y287020D01*
X766318Y287020D01*
X761619Y291719D01*
D48*
X231521Y60579D02*
X212725Y60579D01*
X231521Y60579D02*
X240030Y52070D01*
X251604Y52070D01*
X212725Y60579D02*
X212725Y80645D01*
X215900Y83820D01*
D49*
X215900Y83820D03*
D48*
X372000Y176420D02*
X372000Y228600D01*
X372000Y176420D02*
X364303Y168723D01*
X344170Y168723D01*
D50*
X344170Y171450D01*
D48*
X332740Y182880D01*
D49*
X332740Y182880D03*
X886968Y-39624D03*
D55*
X875690Y-50902D02*
X875690Y-66040D01*
X875690Y-50902D02*
X886968Y-39624D01*
D50*
X557657Y208898D02*
X557657Y221378D01*
X560220Y230020D02*
X580350Y230020D01*
X560220Y230020D02*
X557657Y227457D01*
X557657Y221378D01*
X568152Y236520D02*
X580350Y236520D01*
X568152Y236520D02*
X565912Y238760D01*
X558275Y238760D01*
X557657Y239378D01*
D48*
X531379Y163931D02*
X510641Y163931D01*
X531379Y163931D02*
X545721Y163931D01*
X548809Y167019D01*
X558687Y167019D01*
D52*
X817880Y-45720D03*
X565404Y173736D03*
D48*
X498348Y151638D02*
X498348Y144526D01*
X498348Y151638D02*
X510641Y163931D01*
X801190Y-66040D02*
X813816Y-66040D01*
X817880Y-61976D01*
X817880Y-45720D01*
X565404Y173736D02*
X558687Y167019D01*
D50*
X638850Y210520D02*
X646984Y210520D01*
X652272Y205232D01*
X652272Y199136D01*
X656336Y195072D01*
X656336Y186927D01*
X656700Y186563D01*
X656700Y180484D01*
X660400Y176784D01*
X660400Y170925D01*
X662415Y168910D01*
X661145Y223520D02*
X665480Y223520D01*
X673100Y231140D01*
X673100Y243840D01*
X683260Y254000D01*
X683260Y264160D01*
X678180Y269240D01*
X647700Y269240D01*
X643780Y265320D02*
X643780Y259080D01*
X643780Y265320D02*
X647700Y269240D01*
X638850Y223520D02*
X661145Y223520D01*
X661162Y223537D01*
D53*
X872490Y248920D03*
X719836Y251968D03*
D50*
X723750Y247754D02*
X723750Y223560D01*
X723750Y247754D02*
X719836Y251968D01*
X879917Y245811D02*
X879917Y235204D01*
X879917Y245811D02*
X876808Y248920D01*
X872490Y248920D01*
X113617Y271145D02*
X102235Y271145D01*
X99060Y274320D01*
D53*
X99060Y274320D03*
D50*
X616712Y297688D02*
X616712Y307611D01*
X616712Y297688D02*
X617220Y297180D01*
D53*
X617220Y297180D03*
D50*
X893766Y220278D02*
X902843Y220278D01*
X893766Y220278D02*
X889000Y223012D01*
D53*
X889000Y223012D03*
D50*
X113617Y254683D02*
X113617Y258445D01*
X113617Y254683D02*
X119380Y248920D01*
D53*
X119380Y248920D03*
D48*
X112311Y297851D02*
X112311Y317759D01*
D50*
X112311Y297851D02*
X113617Y296545D01*
D48*
X171117Y296545D02*
X171117Y301323D01*
X167640Y304800D01*
X134620Y304800D01*
X130311Y309109D01*
X130311Y317759D01*
X187325Y344805D02*
X216928Y344805D01*
X187325Y344805D02*
X177800Y335280D01*
X177800Y314960D01*
X167640Y304800D01*
D57*
X216928Y344805D02*
X236855Y344805D01*
X288671Y292989D01*
X288671Y262253D01*
D48*
X214757Y264812D02*
X195072Y264812D01*
D50*
X194437Y265447D01*
D48*
X188739Y271145D02*
X171117Y271145D01*
X188739Y271145D02*
X194437Y265447D01*
X215375Y283430D02*
X215375Y302260D01*
X215375Y283430D02*
X214757Y282812D01*
X194454Y252222D02*
X194454Y236989D01*
D50*
X194213Y236748D01*
X194454Y252222D02*
X174498Y252222D01*
X171117Y255603D01*
X171117Y258445D01*
X186309Y234569D02*
X186309Y209406D01*
X186309Y234569D02*
X187960Y236220D01*
X193685Y236220D01*
X194213Y236748D01*
X186309Y209406D02*
X204851Y209406D01*
X224028Y209406D01*
X224155Y209533D01*
X241935Y209533D01*
X259715Y209533D01*
X277495Y209533D01*
X295275Y209533D01*
X313055Y209533D01*
D55*
X87740Y52180D02*
X87740Y48260D01*
X87740Y52180D02*
X91440Y55880D01*
X119718Y55880D01*
D50*
X119761Y55923D01*
D57*
X122301Y55118D01*
X122301Y20828D01*
D50*
X887917Y235204D02*
X887917Y261179D01*
D52*
X884428Y264668D03*
D50*
X638850Y204020D02*
X623004Y204020D01*
X612140Y223012D02*
X612140Y261620D01*
X619760Y269240D01*
X619760Y288036D01*
D53*
X619760Y288036D03*
D50*
X884428Y264668D02*
X887917Y261179D01*
X617728Y217424D02*
X612140Y223012D01*
X617728Y217424D02*
X617728Y209296D01*
X623004Y204020D01*
D48*
X626889Y325611D02*
X616712Y325611D01*
X626889Y325611D02*
X634342Y318158D01*
X634342Y313330D01*
D57*
X119761Y108423D02*
X100295Y108423D01*
X89408Y97536D01*
X80911Y97536D01*
X80657Y97282D01*
D48*
X523240Y349360D02*
X523240Y371340D01*
D50*
X523320Y371420D01*
X387350Y247650D02*
X379222Y247650D01*
X390000Y245000D02*
X390000Y228600D01*
X390000Y245000D02*
X387350Y247650D01*
X400207Y260507D02*
X400207Y286639D01*
X400207Y260507D02*
X387350Y247650D01*
D48*
X596519Y326246D02*
X596519Y334899D01*
X601980Y340360D01*
X614680Y340360D01*
X619760Y345440D01*
X619760Y364871D01*
X621411Y366522D01*
X640842Y360553D02*
X640842Y331830D01*
X640842Y360553D02*
X646811Y366522D01*
D50*
X634636Y159656D02*
X629920Y154940D01*
X614680Y154940D01*
X591820Y177800D01*
X591820Y205740D01*
X587040Y210520D02*
X580350Y210520D01*
X587040Y210520D02*
X591820Y205740D01*
X634636Y182499D02*
X634636Y159656D01*
X634636Y182499D02*
X638700Y186563D01*
X638850Y230020D02*
X649628Y230020D01*
X653288Y233680D01*
X657860Y233680D01*
X661162Y236982D01*
X661162Y241537D01*
X748030Y247650D02*
X751950Y247650D01*
X748030Y247650D02*
X743250Y242870D01*
X743250Y223560D01*
X751950Y247650D02*
X751950Y262890D01*
X736750Y238610D02*
X736750Y223560D01*
X736750Y238610D02*
X734060Y241300D01*
X734060Y247540D01*
X733950Y247650D01*
X816991Y226949D02*
X816991Y220278D01*
X816991Y226949D02*
X807720Y236220D01*
X754380Y236220D01*
X749808Y231648D01*
X749808Y223618D01*
X749750Y223560D01*
X743250Y165060D02*
X743250Y144590D01*
X744330Y143510D01*
X723750Y152550D02*
X723750Y165060D01*
X723750Y152550D02*
X726440Y149860D01*
X726440Y143620D01*
X726330Y143510D01*
X726838Y143002D02*
X726838Y120142D01*
X726838Y143002D02*
X726330Y143510D01*
X816991Y212278D02*
X833308Y212278D01*
D52*
X836930Y220980D03*
D50*
X730250Y170942D02*
X730250Y165060D01*
D52*
X756920Y212090D03*
D50*
X756920Y197612D02*
X730250Y170942D01*
X756920Y197612D02*
X756920Y212090D01*
X833308Y212278D02*
X836930Y215900D01*
X836930Y220980D01*
X903859Y236491D02*
X911589Y236491D01*
X924560Y175260D02*
X942340Y157480D01*
X924560Y175260D02*
X924560Y195580D01*
X914400Y205740D01*
X914400Y233680D01*
X911589Y236491D01*
X717250Y173274D02*
X717250Y165060D01*
X717250Y173274D02*
X713740Y176784D01*
X701040Y176784D01*
X694436Y170180D01*
X687180Y170180D01*
X687070Y170070D01*
X687070Y188070D02*
X687070Y203090D01*
X717250Y206710D02*
X717250Y223560D01*
X717250Y206710D02*
X713740Y203200D01*
X687180Y203200D01*
X687070Y203090D01*
D48*
X125370Y130450D02*
X96520Y130450D01*
X125370Y130450D02*
X132080Y137160D01*
D49*
X132080Y137160D03*
D60*
X801116Y139446D03*
D48*
X113390Y148950D02*
X103020Y148950D01*
X113390Y148950D02*
X114300Y149860D01*
D49*
X114300Y149860D03*
X403860Y185420D03*
D50*
X390652Y105156D02*
X673100Y105156D01*
D53*
X684784Y116840D03*
D50*
X673100Y105156D01*
X390652Y105156D02*
X382016Y113792D01*
X382016Y138176D01*
X404368Y160528D01*
X404368Y184912D01*
X403860Y185420D01*
X788560Y131970D02*
X788560Y124460D01*
X788560Y131970D02*
X796290Y139700D01*
X800862Y139700D01*
X801116Y139446D01*
X806560Y124460D02*
X835660Y124460D01*
X847917Y136717D01*
X847917Y149352D01*
D55*
X820928Y-91440D02*
X801190Y-91440D01*
D50*
X820928Y-91440D02*
X823468Y-88900D01*
D49*
X823468Y-88900D03*
D50*
X767080Y-71010D02*
X758842Y-71010D01*
X754380Y-66548D01*
X754380Y-43180D01*
D48*
X759460Y-38100D01*
X768350Y-38100D01*
X769620Y-36830D01*
D55*
X797560Y-29608D02*
X797560Y-17272D01*
X789178Y-8890D01*
X769620Y-8890D01*
D50*
X618236Y227076D02*
X618236Y254000D01*
X627888Y263652D01*
X627888Y295148D01*
X635000Y302260D01*
X654050Y302260D01*
X668020Y288290D01*
X650644Y217020D02*
X638850Y217020D01*
X650644Y217020D02*
X672592Y195072D01*
X672592Y164592D01*
X674624Y160528D01*
D52*
X674624Y160528D03*
X819912Y134874D03*
D50*
X830901Y148336D02*
X831917Y149352D01*
X638850Y217020D02*
X628292Y217020D01*
X618236Y227076D01*
X821182Y145542D02*
X824230Y148590D01*
X831155Y148590D01*
X831917Y149352D01*
X821182Y145542D02*
X821182Y136144D01*
X819912Y134874D01*
X767080Y-89010D02*
X754490Y-89010D01*
X755396Y-88900D01*
D49*
X755396Y-88900D03*
D50*
X762000Y-53340D02*
X765700Y-49640D01*
D53*
X762000Y-53340D03*
D50*
X765700Y-49640D02*
X785512Y-49640D01*
X787544Y-47608D02*
X797560Y-47608D01*
X787544Y-47608D02*
X785512Y-49640D01*
X262255Y156845D02*
X262255Y167573D01*
X262255Y156845D02*
X264160Y154940D01*
D53*
X264160Y154940D03*
D50*
X290720Y168910D02*
X290720Y171560D01*
X281940Y180340D01*
D53*
X281940Y180340D03*
D50*
X262255Y111573D02*
X262255Y103505D01*
X265430Y100330D01*
X280670Y100330D01*
X284480Y104140D01*
X284480Y109220D01*
X288290Y113030D02*
X294530Y113030D01*
X288290Y113030D02*
X284480Y109220D01*
X580350Y223520D02*
X599440Y223520D01*
X609600Y213360D01*
X826516Y235204D02*
X831917Y235204D01*
X826516Y235204D02*
X824992Y233680D01*
D53*
X824992Y233680D03*
X609600Y213360D03*
D50*
X917050Y127110D02*
X917050Y115570D01*
X917050Y127110D02*
X922020Y132080D01*
X942340Y132080D01*
X465732Y133202D02*
X465732Y127612D01*
X471424Y121920D01*
D52*
X492506Y129540D03*
D50*
X917050Y115570D02*
X917050Y96122D01*
X904240Y83312D01*
X790448Y83312D01*
X786384Y87376D01*
D53*
X786384Y87376D03*
D50*
X483760Y121920D02*
X471424Y121920D01*
X483760Y121920D02*
X483760Y118110D01*
X483760Y121920D02*
X483870Y121920D01*
X483870Y127000D01*
X486410Y129540D01*
X492506Y129540D01*
X863917Y136843D02*
X863917Y149352D01*
D52*
X863917Y136843D03*
X889000Y115570D03*
D50*
X899050Y115570D01*
D48*
X473964Y164956D02*
X473964Y186140D01*
D50*
X471424Y188680D01*
D48*
X471424Y205232D01*
X475488Y209296D01*
D52*
X475488Y209296D03*
D50*
X560578Y256383D02*
X560735Y256540D01*
X565023Y267843D02*
X584598Y267843D01*
X560578Y263398D02*
X560578Y256383D01*
X560578Y263398D02*
X565023Y267843D01*
D49*
X868680Y49530D03*
D52*
X590804Y241808D03*
D50*
X589592Y243020D02*
X580350Y243020D01*
X589592Y243020D02*
X590804Y241808D01*
D51*
X580350Y243020D02*
X580350Y250738D01*
X575056Y256032D01*
X560929Y256032D01*
X560578Y256383D01*
D50*
X893130Y212278D02*
X902843Y212278D01*
X893130Y212278D02*
X889000Y214376D01*
D53*
X889000Y214376D03*
D55*
X372207Y275493D02*
X372207Y286639D01*
X372207Y275493D02*
X379222Y268478D01*
D50*
X379222Y266446D01*
X344170Y224723D02*
X344170Y209550D01*
X345440Y208280D01*
D49*
X345440Y208280D03*
D48*
X212454Y236989D02*
X212454Y252222D01*
D50*
X212454Y236989D02*
X212213Y236748D01*
D48*
X228470Y236748D01*
D50*
X229362Y235856D01*
D55*
X229362Y227838D01*
X231140Y226060D01*
D49*
X231140Y226060D03*
D57*
X288671Y357253D02*
X318387Y357253D01*
X372207Y303433D01*
X372207Y286639D01*
D49*
X381000Y259080D03*
D55*
X381000Y264668D01*
X379222Y266446D01*
D52*
X264668Y388620D03*
X273304Y388620D03*
X281940Y388620D03*
X290576Y388620D03*
X299212Y388620D03*
X314960Y383032D03*
X307848Y388112D03*
X315976Y373888D03*
X318516Y364236D03*
X318008Y356108D03*
X317500Y347472D03*
X316992Y338836D03*
X311912Y331724D03*
X303276Y328676D03*
X309880Y324104D03*
X319532Y327660D03*
X324612Y335280D03*
X325120Y344424D03*
X326136Y353060D03*
X324104Y371348D03*
X316484Y392176D03*
X304292Y395732D03*
X294640Y396748D03*
X284480Y397256D03*
X275336Y397256D03*
X266192Y397256D03*
X261112Y379476D03*
X260604Y371348D03*
X260096Y363220D03*
X259588Y354584D03*
X259080Y346456D03*
X279400Y326644D03*
X287528Y326644D03*
X295656Y326644D03*
X326644Y362712D03*
X253492Y376428D03*
X252984Y367792D03*
X252476Y359664D03*
X252476Y352044D03*
X254508Y387604D03*
X257048Y396240D03*
X124460Y405384D03*
X133096Y405384D03*
X96012Y376936D03*
X96012Y367284D03*
X95504Y356616D03*
X105156Y355600D03*
X103124Y385064D03*
X111760Y394208D03*
X146304Y405892D03*
X157988Y406400D03*
X170688Y406908D03*
X208280Y405892D03*
X216408Y406400D03*
X226060Y406908D03*
X235712Y406908D03*
X116332Y360680D03*
X124460Y366776D03*
X117856Y399796D03*
X244856Y406908D03*
X250952Y401828D03*
X260604Y406400D03*
X274320Y407416D03*
X289052Y407416D03*
X303784Y405892D03*
X325120Y382016D03*
X247396Y393700D03*
X246888Y383540D03*
D48*
X402844Y140716D02*
X402844Y127000D01*
X402844Y140716D02*
X415688Y153560D01*
X415688Y174752D01*
X696104Y130920D02*
X696104Y119888D01*
X696104Y130920D02*
X682752Y144272D01*
X662940Y144272D01*
X645668Y127000D01*
D50*
X459232Y114702D02*
X440542Y114702D01*
X428244Y127000D01*
D61*
X0Y0D02*
X293500Y0D01*
X293500Y100000D01*
X748100Y100000D01*
X748100Y-110000D01*
X960000Y-110000D01*
X960000Y340000D01*
X880028Y419972D01*
X79972Y419972D01*
X0Y340000D01*
X0Y0D01*
M02*
