G04 EAGLE Gerber RS-274X export*
G75*
%MOMM*%
%FSLAX34Y34*%
%LPD*%
%INBottom Copper*%
%IPPOS*%
%AMOC8*
5,1,8,0,0,1.08239X$1,22.5*%
G01*
%ADD10C,2.000000*%
%ADD11C,4.000000*%
%ADD12R,0.800000X1.200000*%
%ADD13R,2.032000X2.032000*%
%ADD14C,2.032000*%
%ADD15C,3.600000*%
%ADD16R,1.200000X0.800000*%
%ADD17R,0.700000X0.700000*%
%ADD18R,1.600000X1.800000*%
%ADD19R,2.000000X1.200000*%
%ADD20R,1.000000X1.400000*%
%ADD21C,1.524000*%
%ADD22C,1.000000*%
%ADD23C,1.500000*%
%ADD24C,1.879600*%
%ADD25R,1.879600X1.879600*%
%ADD26R,1.800000X0.800000*%
%ADD27R,2.500000X2.500000*%
%ADD28R,1.800000X1.600000*%
%ADD29P,2.034460X8X22.500000*%
%ADD30C,0.914400*%
%ADD31C,0.304800*%
%ADD32C,0.609600*%
%ADD33C,0.812800*%
%ADD34C,0.635000*%
%ADD35C,0.406400*%
%ADD36C,0.609600*%
%ADD37C,0.812800*%
%ADD38C,1.676400*%
%ADD39C,1.930400*%
%ADD40C,1.016000*%
%ADD41R,1.016000X1.016000*%
%ADD42C,0.254000*%
%ADD43C,0.254000*%

G36*
X106870Y319799D02*
X106870Y319799D01*
X106969Y319802D01*
X107027Y319819D01*
X107087Y319827D01*
X107179Y319863D01*
X107274Y319891D01*
X107326Y319921D01*
X107383Y319944D01*
X107463Y320002D01*
X107548Y320052D01*
X107624Y320118D01*
X107640Y320130D01*
X107648Y320140D01*
X107669Y320159D01*
X108544Y321034D01*
X112279Y322581D01*
X179070Y322581D01*
X179188Y322596D01*
X179307Y322603D01*
X179345Y322616D01*
X179386Y322621D01*
X179496Y322664D01*
X179609Y322701D01*
X179644Y322723D01*
X179681Y322738D01*
X179777Y322807D01*
X179878Y322871D01*
X179906Y322901D01*
X179939Y322924D01*
X180015Y323016D01*
X180096Y323103D01*
X180116Y323138D01*
X180141Y323169D01*
X180192Y323277D01*
X180250Y323381D01*
X180260Y323421D01*
X180277Y323457D01*
X180299Y323574D01*
X180329Y323689D01*
X180333Y323749D01*
X180337Y323769D01*
X180335Y323790D01*
X180339Y323850D01*
X180339Y324598D01*
X182273Y329266D01*
X185846Y332839D01*
X190514Y334773D01*
X195566Y334773D01*
X200234Y332839D01*
X203807Y329266D01*
X205741Y324598D01*
X205741Y323850D01*
X205756Y323732D01*
X205763Y323613D01*
X205776Y323575D01*
X205781Y323534D01*
X205824Y323424D01*
X205861Y323311D01*
X205883Y323276D01*
X205898Y323239D01*
X205967Y323143D01*
X206031Y323042D01*
X206061Y323014D01*
X206084Y322981D01*
X206176Y322905D01*
X206263Y322824D01*
X206298Y322804D01*
X206329Y322779D01*
X206437Y322728D01*
X206541Y322670D01*
X206581Y322660D01*
X206617Y322643D01*
X206734Y322621D01*
X206849Y322591D01*
X206909Y322587D01*
X206929Y322583D01*
X206950Y322585D01*
X207010Y322581D01*
X323850Y322581D01*
X323948Y322593D01*
X324047Y322596D01*
X324105Y322613D01*
X324166Y322621D01*
X324258Y322657D01*
X324353Y322685D01*
X324405Y322715D01*
X324461Y322738D01*
X324541Y322796D01*
X324627Y322846D01*
X324702Y322912D01*
X324719Y322924D01*
X324726Y322934D01*
X324747Y322952D01*
X334282Y332487D01*
X337820Y332487D01*
X337918Y332499D01*
X338017Y332502D01*
X338075Y332519D01*
X338136Y332527D01*
X338228Y332563D01*
X338323Y332591D01*
X338375Y332621D01*
X338431Y332644D01*
X338511Y332702D01*
X338597Y332752D01*
X338672Y332818D01*
X338689Y332830D01*
X338696Y332840D01*
X338718Y332859D01*
X340750Y334891D01*
X340810Y334969D01*
X340878Y335041D01*
X340907Y335094D01*
X340944Y335142D01*
X340984Y335233D01*
X341032Y335319D01*
X341047Y335378D01*
X341071Y335434D01*
X341086Y335532D01*
X341111Y335627D01*
X341117Y335727D01*
X341121Y335748D01*
X341119Y335760D01*
X341121Y335788D01*
X341121Y343341D01*
X341109Y343440D01*
X341106Y343539D01*
X341089Y343597D01*
X341081Y343657D01*
X341045Y343749D01*
X341017Y343844D01*
X340987Y343896D01*
X340964Y343953D01*
X340906Y344033D01*
X340856Y344118D01*
X340790Y344193D01*
X340778Y344210D01*
X340768Y344218D01*
X340750Y344239D01*
X336212Y348777D01*
X332772Y354735D01*
X330991Y361380D01*
X330991Y368260D01*
X332772Y374905D01*
X336212Y380863D01*
X340750Y385401D01*
X340810Y385479D01*
X340878Y385551D01*
X340907Y385604D01*
X340944Y385652D01*
X340984Y385743D01*
X341032Y385830D01*
X341047Y385889D01*
X341071Y385944D01*
X341086Y386042D01*
X341111Y386138D01*
X341117Y386238D01*
X341121Y386258D01*
X341119Y386271D01*
X341121Y386299D01*
X341121Y396240D01*
X341109Y396338D01*
X341106Y396437D01*
X341089Y396495D01*
X341081Y396556D01*
X341045Y396648D01*
X341017Y396743D01*
X340987Y396795D01*
X340964Y396851D01*
X340906Y396931D01*
X340856Y397017D01*
X340790Y397092D01*
X340778Y397109D01*
X340768Y397116D01*
X340750Y397138D01*
X326415Y411472D01*
X326337Y411532D01*
X326265Y411600D01*
X326212Y411629D01*
X326164Y411666D01*
X326073Y411706D01*
X325987Y411754D01*
X325928Y411769D01*
X325872Y411793D01*
X325774Y411808D01*
X325679Y411833D01*
X325579Y411839D01*
X325558Y411843D01*
X325546Y411841D01*
X325518Y411843D01*
X122538Y411843D01*
X122440Y411831D01*
X122341Y411828D01*
X122283Y411811D01*
X122222Y411803D01*
X122130Y411767D01*
X122035Y411739D01*
X121983Y411709D01*
X121927Y411686D01*
X121847Y411628D01*
X121761Y411578D01*
X121686Y411512D01*
X121669Y411500D01*
X121662Y411490D01*
X121641Y411472D01*
X87495Y377326D01*
X87434Y377247D01*
X87366Y377175D01*
X87337Y377122D01*
X87300Y377074D01*
X87260Y376983D01*
X87212Y376897D01*
X87197Y376838D01*
X87173Y376782D01*
X87158Y376684D01*
X87133Y376589D01*
X87127Y376489D01*
X87123Y376468D01*
X87125Y376456D01*
X87123Y376428D01*
X87123Y338328D01*
X87135Y338230D01*
X87138Y338131D01*
X87155Y338073D01*
X87163Y338012D01*
X87199Y337920D01*
X87227Y337825D01*
X87257Y337773D01*
X87280Y337717D01*
X87338Y337637D01*
X87388Y337551D01*
X87454Y337476D01*
X87466Y337459D01*
X87476Y337452D01*
X87495Y337431D01*
X104767Y320159D01*
X104845Y320098D01*
X104917Y320030D01*
X104970Y320001D01*
X105018Y319964D01*
X105109Y319924D01*
X105195Y319876D01*
X105254Y319861D01*
X105310Y319837D01*
X105408Y319822D01*
X105503Y319797D01*
X105603Y319791D01*
X105624Y319787D01*
X105636Y319789D01*
X105664Y319787D01*
X106772Y319787D01*
X106870Y319799D01*
G37*
G36*
X159610Y234963D02*
X159610Y234963D01*
X159709Y234966D01*
X159767Y234983D01*
X159828Y234991D01*
X159920Y235027D01*
X160015Y235055D01*
X160067Y235085D01*
X160123Y235108D01*
X160203Y235166D01*
X160289Y235216D01*
X160364Y235282D01*
X160381Y235294D01*
X160388Y235304D01*
X160410Y235323D01*
X185302Y260215D01*
X185362Y260293D01*
X185430Y260365D01*
X185459Y260418D01*
X185496Y260466D01*
X185536Y260557D01*
X185584Y260643D01*
X185599Y260702D01*
X185623Y260758D01*
X185638Y260856D01*
X185663Y260951D01*
X185669Y261051D01*
X185673Y261072D01*
X185671Y261084D01*
X185673Y261112D01*
X185673Y291066D01*
X189366Y294759D01*
X189426Y294837D01*
X189494Y294909D01*
X189523Y294962D01*
X189560Y295010D01*
X189600Y295101D01*
X189648Y295187D01*
X189663Y295246D01*
X189687Y295302D01*
X189702Y295400D01*
X189727Y295495D01*
X189733Y295595D01*
X189737Y295616D01*
X189735Y295628D01*
X189737Y295656D01*
X189737Y302768D01*
X189725Y302866D01*
X189722Y302965D01*
X189705Y303023D01*
X189697Y303084D01*
X189661Y303176D01*
X189633Y303271D01*
X189603Y303323D01*
X189580Y303379D01*
X189522Y303459D01*
X189472Y303545D01*
X189406Y303620D01*
X189394Y303637D01*
X189384Y303644D01*
X189366Y303666D01*
X186318Y306714D01*
X186239Y306774D01*
X186167Y306842D01*
X186114Y306871D01*
X186066Y306908D01*
X185975Y306948D01*
X185889Y306996D01*
X185830Y307011D01*
X185774Y307035D01*
X185676Y307050D01*
X185581Y307075D01*
X185481Y307081D01*
X185460Y307085D01*
X185448Y307083D01*
X185420Y307085D01*
X120396Y307085D01*
X120278Y307070D01*
X120159Y307063D01*
X120121Y307050D01*
X120080Y307045D01*
X119970Y307002D01*
X119857Y306965D01*
X119822Y306943D01*
X119785Y306928D01*
X119689Y306859D01*
X119588Y306795D01*
X119560Y306765D01*
X119527Y306742D01*
X119452Y306650D01*
X119370Y306563D01*
X119350Y306528D01*
X119325Y306497D01*
X119274Y306389D01*
X119216Y306285D01*
X119206Y306245D01*
X119189Y306209D01*
X119167Y306092D01*
X119137Y305977D01*
X119133Y305917D01*
X119129Y305897D01*
X119131Y305876D01*
X119127Y305816D01*
X119127Y265176D01*
X119139Y265078D01*
X119142Y264979D01*
X119159Y264921D01*
X119167Y264860D01*
X119203Y264768D01*
X119231Y264673D01*
X119261Y264621D01*
X119284Y264565D01*
X119342Y264485D01*
X119392Y264399D01*
X119458Y264324D01*
X119470Y264307D01*
X119480Y264300D01*
X119499Y264279D01*
X127763Y256014D01*
X127763Y243840D01*
X127775Y243742D01*
X127778Y243643D01*
X127789Y243605D01*
X127790Y243599D01*
X127796Y243580D01*
X127803Y243524D01*
X127839Y243432D01*
X127867Y243337D01*
X127884Y243308D01*
X127888Y243296D01*
X127902Y243273D01*
X127920Y243229D01*
X127978Y243149D01*
X128028Y243063D01*
X128053Y243036D01*
X128058Y243027D01*
X128070Y243016D01*
X128094Y242988D01*
X128106Y242971D01*
X128116Y242964D01*
X128135Y242943D01*
X135755Y235323D01*
X135833Y235262D01*
X135905Y235194D01*
X135958Y235165D01*
X136006Y235128D01*
X136097Y235088D01*
X136183Y235040D01*
X136242Y235025D01*
X136298Y235001D01*
X136396Y234986D01*
X136491Y234961D01*
X136591Y234955D01*
X136612Y234951D01*
X136624Y234953D01*
X136652Y234951D01*
X159512Y234951D01*
X159610Y234963D01*
G37*
%LPC*%
G36*
X133872Y330199D02*
X133872Y330199D01*
X129204Y332133D01*
X125631Y335706D01*
X123697Y340374D01*
X123697Y345426D01*
X125631Y350094D01*
X129204Y353667D01*
X133872Y355601D01*
X138924Y355601D01*
X143592Y353667D01*
X147165Y350094D01*
X149099Y345426D01*
X149099Y340374D01*
X147165Y335706D01*
X143592Y332133D01*
X138924Y330199D01*
X133872Y330199D01*
G37*
%LPD*%
D10*
X785070Y68600D03*
X785070Y17800D03*
X785070Y43200D03*
D11*
X860000Y-22840D03*
X860000Y109240D03*
D10*
X929850Y17800D03*
X929850Y68600D03*
D12*
X828277Y210058D03*
X810277Y210058D03*
D13*
X396320Y371420D03*
D14*
X421720Y371420D03*
X447120Y371420D03*
X472520Y371420D03*
X497920Y371420D03*
X523320Y371420D03*
D15*
X589120Y127820D03*
X357120Y127820D03*
X357120Y364820D03*
X589120Y364820D03*
D14*
X548720Y371420D03*
D16*
X817880Y13860D03*
X817880Y31860D03*
X817880Y46880D03*
X817880Y64880D03*
D12*
X879077Y212598D03*
X861077Y212598D03*
D16*
X779399Y204707D03*
X779399Y186707D03*
X795401Y177817D03*
X795401Y195817D03*
D12*
X858757Y179578D03*
X840757Y179578D03*
X879077Y197358D03*
X861077Y197358D03*
D17*
X810237Y193908D03*
X823237Y193908D03*
X816737Y175408D03*
D12*
X877206Y2413D03*
X895206Y2413D03*
D18*
X776321Y-88138D03*
X804321Y-88138D03*
D16*
X89662Y239666D03*
X89662Y257666D03*
X109347Y240555D03*
X109347Y258555D03*
D19*
X317119Y235079D03*
X317119Y267079D03*
X286639Y235079D03*
X286639Y267079D03*
X347218Y235587D03*
X347218Y267587D03*
X257429Y235079D03*
X257429Y267079D03*
D20*
X246001Y51741D03*
X255501Y73741D03*
X236501Y73741D03*
D21*
X94361Y28448D02*
X94361Y13208D01*
X122301Y13208D02*
X122301Y28448D01*
X176784Y28829D02*
X176784Y13589D01*
X204724Y13589D02*
X204724Y28829D01*
X762000Y-36830D02*
X777240Y-36830D01*
X777240Y-8890D02*
X762000Y-8890D01*
D22*
X81280Y403860D03*
X888619Y388366D03*
X949960Y-60960D03*
D12*
X950324Y306832D03*
X932324Y306832D03*
D16*
X866140Y346600D03*
X866140Y364600D03*
D23*
X229616Y29591D03*
D24*
X621411Y366522D03*
X646811Y366522D03*
D25*
X942340Y157480D03*
D24*
X942340Y182880D03*
X942340Y208280D03*
X942340Y233680D03*
X942340Y259080D03*
X942340Y284480D03*
D12*
X725280Y335280D03*
X707280Y335280D03*
D26*
X202640Y152300D03*
X132640Y152300D03*
X202640Y120300D03*
X132640Y120300D03*
X202640Y98300D03*
X132640Y98300D03*
X202640Y76300D03*
X132640Y76300D03*
D27*
X185140Y171800D03*
X150140Y56800D03*
D16*
X215900Y186800D03*
X215900Y168800D03*
D20*
X149860Y179500D03*
X159360Y201500D03*
X140360Y201500D03*
D28*
X236220Y163800D03*
X236220Y191800D03*
D16*
X622300Y224680D03*
X622300Y242680D03*
D12*
X731630Y217170D03*
X713630Y217170D03*
D18*
X775940Y-64770D03*
X803940Y-64770D03*
D29*
X690880Y365760D03*
X690880Y391160D03*
X716280Y365760D03*
X716280Y391160D03*
X741680Y365760D03*
X741680Y391160D03*
D16*
X835660Y46372D03*
X835660Y64372D03*
D23*
X498348Y144526D03*
D24*
X280670Y71120D03*
D23*
X641350Y288290D03*
X317500Y152400D03*
X317500Y130810D03*
X153670Y142240D03*
X621030Y167640D03*
X668020Y288290D03*
X154940Y102870D03*
X224790Y11430D03*
X942340Y132080D03*
X944880Y43180D03*
D12*
X895460Y26670D03*
X877460Y26670D03*
D23*
X191516Y401320D03*
D24*
X402844Y127000D03*
X428244Y127000D03*
X645668Y127000D03*
X671068Y127000D03*
D30*
X68580Y158750D03*
X17780Y134620D03*
X8890Y218440D03*
X66040Y251460D03*
D31*
X89662Y239666D02*
X108458Y239666D01*
X109347Y240555D01*
X89662Y239666D02*
X89662Y230886D01*
X91440Y229108D01*
D30*
X91440Y229108D03*
X193040Y322072D03*
X136398Y342900D03*
X242062Y255270D03*
D31*
X257429Y267079D02*
X286639Y267079D01*
D32*
X317119Y267079D02*
X346710Y267079D01*
D31*
X347218Y267587D01*
D32*
X317119Y267079D02*
X317119Y275971D01*
X314960Y278130D01*
D30*
X314960Y278130D03*
D31*
X317119Y267079D02*
X286639Y267079D01*
D33*
X833120Y196850D03*
D34*
X889000Y196850D03*
D30*
X881380Y346710D03*
X892810Y130810D03*
X951230Y91440D03*
D33*
X951230Y-22860D03*
D30*
X856996Y-92710D03*
X160020Y82550D03*
D32*
X153770Y76300D02*
X132640Y76300D01*
X153770Y76300D02*
X160020Y82550D01*
D30*
X69850Y60960D03*
X175260Y120650D03*
D34*
X185420Y153670D03*
D30*
X275590Y127000D03*
X353060Y278130D03*
D32*
X349250Y278130D01*
X346710Y275590D01*
X346710Y268095D01*
D31*
X347218Y267587D01*
D30*
X560070Y119380D03*
X580390Y160020D03*
D33*
X574040Y193040D03*
X673100Y214122D03*
X722630Y262890D03*
X673100Y259080D03*
D30*
X670560Y320040D03*
D33*
X544830Y284480D03*
D30*
X750570Y318770D03*
X786130Y303530D03*
D32*
X734060Y335280D02*
X725280Y335280D01*
D30*
X734060Y335280D03*
D34*
X801370Y166370D03*
D33*
X768350Y201422D03*
D30*
X186690Y127000D03*
X236220Y88900D03*
X240030Y13970D03*
D33*
X599440Y232410D03*
D32*
X731630Y217170D02*
X737616Y217170D01*
X742950Y211836D01*
D33*
X742950Y211836D03*
D32*
X858757Y179578D02*
X858757Y167403D01*
X859790Y166370D01*
D33*
X859790Y166370D03*
D32*
X879077Y197358D02*
X888492Y197358D01*
D31*
X889000Y196850D01*
X830178Y193908D02*
X823237Y193908D01*
X830178Y193908D02*
X833120Y196850D01*
D30*
X945642Y320040D03*
D33*
X199390Y219710D03*
D32*
X215900Y186800D02*
X223630Y186800D01*
X226060Y189230D01*
X233650Y189230D01*
D31*
X236220Y191800D01*
D32*
X817880Y13860D02*
X829200Y13860D01*
X830580Y15240D01*
D30*
X830580Y15240D03*
D32*
X817880Y46880D02*
X807610Y46880D01*
X806450Y45720D01*
D30*
X806450Y45720D03*
D32*
X236501Y73741D02*
X236501Y89181D01*
D35*
X202640Y120300D02*
X202640Y122480D01*
D32*
X198120Y127000D01*
X186690Y127000D01*
X236220Y88900D02*
X236501Y89181D01*
X607170Y224680D02*
X622300Y224680D01*
X607170Y224680D02*
X599440Y232410D01*
X866140Y346600D02*
X881270Y346600D01*
D35*
X881380Y346710D01*
D32*
X199390Y219710D02*
X199390Y212090D01*
X215900Y195580D01*
X215900Y186800D01*
D36*
X770890Y153670D03*
D34*
X151130Y289560D03*
X143510Y289560D03*
X135890Y289560D03*
X133350Y281940D03*
X140970Y281940D03*
X148590Y281940D03*
X151130Y274320D03*
X143510Y274320D03*
X135890Y274320D03*
X133350Y266700D03*
X140970Y266700D03*
X148590Y266700D03*
D33*
X754380Y117856D03*
D35*
X771635Y204707D02*
X779399Y204707D01*
X771635Y204707D02*
X768350Y201422D01*
X950324Y306832D02*
X950324Y315358D01*
X945642Y320040D01*
D30*
X517398Y145796D03*
X830580Y-68072D03*
D37*
X827278Y-64770D02*
X803940Y-64770D01*
X827278Y-64770D02*
X830580Y-68072D01*
D33*
X643636Y154178D03*
D32*
X818388Y46372D02*
X835660Y46372D01*
D35*
X818388Y46372D02*
X817880Y46880D01*
D30*
X442976Y136144D03*
D32*
X222760Y98300D02*
X202640Y98300D01*
X204724Y42164D02*
X204724Y21209D01*
X204724Y42164D02*
X226060Y63500D01*
X226060Y95000D01*
X222760Y98300D01*
D35*
X810237Y193908D02*
X810237Y210018D01*
X810277Y210058D01*
D36*
X789432Y212852D03*
D31*
X789432Y213868D01*
X792988Y217424D01*
X802640Y217424D01*
X803656Y216408D01*
X803927Y216408D01*
X810277Y210058D01*
D38*
X44450Y75438D03*
D30*
X50800Y290830D03*
X815340Y300990D03*
X559816Y146812D03*
X520700Y120650D03*
X477520Y136144D03*
D34*
X314960Y182880D03*
X274320Y91440D03*
D35*
X297180Y121920D02*
X297180Y165100D01*
X314960Y182880D01*
X297180Y121920D02*
X274320Y99060D01*
X274320Y91440D01*
D34*
X292100Y182880D03*
X266700Y86360D03*
D35*
X289560Y124460D02*
X289560Y172720D01*
X292100Y175260D01*
X292100Y182880D01*
X289560Y124460D02*
X266700Y101600D01*
X266700Y86360D01*
X274320Y71120D02*
X280670Y71120D01*
D33*
X877570Y176530D03*
D32*
X261291Y51741D02*
X246001Y51741D01*
X261291Y51741D02*
X280670Y71120D01*
D35*
X280670Y80010D01*
X284480Y83820D01*
X284480Y99060D01*
X294640Y109220D01*
X325120Y109220D01*
X332740Y116840D01*
X332740Y139700D01*
X345440Y152400D01*
X477520Y152400D01*
X508000Y182880D01*
X594360Y182880D01*
X601980Y190500D01*
X727964Y190500D01*
X748284Y170180D01*
X784860Y170180D01*
X797560Y157480D01*
X863600Y157480D01*
X871220Y165100D01*
X871220Y170180D01*
X877570Y176530D01*
D33*
X843280Y200660D03*
D35*
X843280Y203200D01*
X836422Y210058D01*
X828277Y210058D01*
D34*
X594360Y215900D03*
D33*
X175260Y236220D03*
D35*
X228092Y216408D02*
X322072Y216408D01*
X340360Y198120D01*
X396240Y198120D01*
X462280Y264160D01*
X517550Y264160D01*
X564690Y217020D01*
X593240Y217020D01*
X594360Y215900D01*
X228092Y216408D02*
X208280Y236220D01*
X175260Y236220D01*
D30*
X337820Y248920D03*
D35*
X363220Y248920D01*
X368300Y254000D01*
X368300Y294640D01*
X378460Y304800D01*
X548640Y304800D01*
X574040Y280416D01*
D34*
X889000Y205740D03*
D35*
X635000Y280416D02*
X574040Y280416D01*
X635000Y280416D02*
X641350Y288290D01*
X889000Y205740D02*
X895604Y205740D01*
X900176Y211836D01*
X900176Y291084D01*
X878840Y312420D01*
X830580Y312420D01*
X822960Y320040D01*
X775970Y320040D01*
D39*
X767080Y365760D03*
D35*
X767080Y330200D02*
X775970Y320040D01*
D30*
X767080Y330200D03*
D34*
X700532Y140208D03*
D32*
X706120Y134620D02*
X751332Y134620D01*
D34*
X818896Y75184D03*
D32*
X706120Y134620D02*
X700532Y140208D01*
X751332Y134620D02*
X810768Y75184D01*
X818896Y75184D01*
D37*
X817880Y64880D02*
X788790Y64880D01*
D40*
X785070Y68600D01*
D37*
X799130Y31860D02*
X817880Y31860D01*
X799130Y31860D02*
X785070Y17800D01*
D34*
X724916Y178308D03*
D32*
X832612Y136652D02*
X832612Y100076D01*
X855980Y76708D01*
X855980Y33020D01*
X858520Y30480D01*
D34*
X858520Y30480D03*
D32*
X782320Y162560D02*
X745744Y162560D01*
D35*
X782320Y162560D02*
X795020Y149860D01*
D32*
X745744Y162560D02*
X729996Y178308D01*
X724916Y178308D01*
D35*
X795020Y149860D02*
X819404Y149860D01*
X832612Y136652D01*
D34*
X538480Y266700D03*
D36*
X860806Y223774D03*
D35*
X654304Y260096D02*
X545084Y260096D01*
X538480Y266700D01*
X860806Y223774D02*
X861060Y224028D01*
X837184Y247904D01*
X729488Y247904D01*
X725424Y243840D01*
X670560Y243840D01*
X654304Y260096D01*
D34*
X485140Y330200D03*
D35*
X487680Y327660D01*
X520700Y327660D01*
X528320Y335280D01*
X647700Y335280D01*
X673100Y360680D01*
X673100Y396240D01*
X683260Y406400D01*
X708660Y406400D01*
X716280Y398780D01*
X716280Y391160D01*
D33*
X880110Y135890D03*
D35*
X882650Y138430D01*
X899160Y157480D01*
X910336Y157480D01*
X924560Y171704D01*
X924560Y215900D01*
X919480Y220980D01*
X919480Y299720D01*
X769620Y406400D02*
X723900Y406400D01*
X716280Y398780D01*
X881380Y337820D02*
X919480Y299720D01*
X881380Y337820D02*
X838200Y337820D01*
X769620Y406400D01*
D34*
X535940Y327660D03*
D35*
X652780Y327660D01*
X690880Y365760D01*
D30*
X881380Y165100D03*
D35*
X881380Y167640D01*
X886460Y172720D01*
X904240Y172720D01*
X909320Y177800D01*
X909320Y210820D01*
X906272Y214884D01*
X906272Y293624D01*
D30*
X684530Y334010D03*
D35*
X877316Y322580D02*
X906272Y293624D01*
X877316Y322580D02*
X830580Y322580D01*
X821690Y332740D01*
X744220Y332740D02*
X726440Y312420D01*
X698500Y312420D01*
X685800Y325120D01*
X684530Y334010D01*
X744220Y332740D02*
X749300Y339090D01*
X816610Y339090D01*
X821690Y332740D01*
D34*
X452120Y320040D03*
D35*
X657860Y320040D01*
D34*
X891540Y165100D03*
D35*
X907796Y165100D01*
X916940Y174244D01*
X916940Y213360D01*
X912876Y217424D01*
X912876Y296164D01*
X819150Y346710D02*
X732790Y346710D01*
X716280Y365760D01*
X878840Y330200D02*
X912876Y296164D01*
X878840Y330200D02*
X835660Y330200D01*
X819150Y346710D01*
X683260Y345440D02*
X657860Y320040D01*
X683260Y345440D02*
X698500Y345440D01*
X716280Y365760D01*
D34*
X863600Y248920D03*
X814832Y261620D03*
D35*
X317500Y134620D02*
X317500Y130810D01*
X317500Y134620D02*
X342900Y160020D01*
X459740Y274320D02*
X556260Y274320D01*
X459740Y274320D02*
X393700Y208280D01*
D34*
X393700Y208280D03*
X388620Y160020D03*
D35*
X342900Y160020D01*
X863600Y248920D02*
X863600Y254000D01*
X857504Y260096D01*
X817372Y260096D01*
X814832Y261620D01*
X814832Y262128D01*
X800608Y276352D01*
X690880Y276352D01*
X682752Y268224D01*
X562356Y268224D01*
X556260Y274320D01*
D34*
X871220Y223520D03*
D35*
X874522Y212598D02*
X879077Y212598D01*
X874522Y212598D02*
X871220Y215900D01*
X325120Y152400D02*
X317500Y152400D01*
X325120Y152400D02*
X340360Y167640D01*
X378460Y167640D01*
X871220Y215900D02*
X871220Y223520D01*
X876808Y223520D01*
X880872Y227584D01*
X880872Y251968D01*
X568960Y274320D02*
X546100Y297180D01*
X469900Y297180D01*
X383540Y210820D01*
D34*
X383540Y210820D03*
X378460Y167640D03*
D35*
X822960Y266192D02*
X866648Y266192D01*
X880872Y251968D01*
X678688Y274320D02*
X568960Y274320D01*
X678688Y274320D02*
X686816Y282448D01*
X806704Y282448D01*
X822960Y266192D01*
D34*
X525780Y266700D03*
X848360Y223520D03*
D35*
X650240Y254000D02*
X538480Y254000D01*
X525780Y266700D01*
X650240Y254000D02*
X666496Y237744D01*
X729488Y237744D01*
X733552Y241808D01*
X830072Y241808D01*
X848360Y223520D01*
D34*
X871220Y186690D03*
D31*
X867410Y186690D01*
X866140Y187960D01*
X866140Y192295D01*
X861077Y197358D01*
D33*
X831342Y179070D03*
D32*
X840249Y179070D01*
D31*
X840757Y179578D01*
D33*
X633730Y245110D03*
D31*
X622410Y242570D02*
X622300Y242680D01*
D33*
X702310Y219710D03*
D30*
X899160Y-27940D03*
X952500Y111760D03*
X916940Y149860D03*
X762000Y78740D03*
D33*
X782320Y142240D03*
X799084Y207772D03*
X769620Y264160D03*
X828040Y391160D03*
D32*
X866140Y388620D02*
X866140Y364600D01*
X866140Y388620D02*
X863600Y391160D01*
D33*
X863600Y391160D03*
D32*
X707280Y335280D02*
X707280Y323740D01*
X706120Y322580D01*
D30*
X706120Y322580D03*
X584200Y299720D03*
X563880Y302260D03*
X10160Y180340D03*
D32*
X159360Y201500D02*
X171880Y201500D01*
X172720Y200660D01*
D30*
X172720Y200660D03*
X276860Y149860D03*
D32*
X236220Y149860D02*
X236220Y163800D01*
D30*
X236220Y149860D03*
D32*
X218340Y152300D02*
X202640Y152300D01*
D31*
X218340Y152300D02*
X218440Y152400D01*
D30*
X218440Y152400D03*
D32*
X215900Y154940D02*
X215900Y168800D01*
X215900Y154940D02*
X218440Y152400D01*
X255501Y128501D02*
X276860Y149860D01*
X851662Y212598D02*
X861077Y212598D01*
X851662Y212598D02*
X848360Y210820D01*
D33*
X848360Y210820D03*
D35*
X631190Y242570D02*
X622410Y242570D01*
X631190Y242570D02*
X633730Y245110D01*
D32*
X255501Y128501D02*
X255501Y73741D01*
D35*
X937260Y233680D02*
X942340Y233680D01*
X937260Y233680D02*
X927100Y243840D01*
X927100Y301608D01*
D32*
X713630Y217170D02*
X704850Y217170D01*
X702310Y219710D01*
X895206Y2413D02*
X895206Y-23986D01*
X899160Y-27940D01*
D35*
X927100Y301608D02*
X932324Y306832D01*
D30*
X717296Y107696D03*
X442976Y176784D03*
D34*
X838200Y274320D03*
X866140Y281940D03*
D35*
X845820Y281940D01*
X838200Y274320D01*
D33*
X828040Y274320D03*
D34*
X878840Y281940D03*
D35*
X878840Y284480D01*
X873760Y289560D01*
X839724Y289560D01*
X828040Y277876D01*
X828040Y274320D01*
X816737Y175408D02*
X807572Y175408D01*
X805180Y177800D01*
X795418Y177800D01*
X795401Y177817D01*
X750807Y177817D01*
X730504Y198120D01*
X579120Y203200D02*
X508000Y203200D01*
X584200Y198120D02*
X730504Y198120D01*
X584200Y198120D02*
X579120Y203200D01*
X508000Y203200D02*
X505968Y201168D01*
D33*
X505968Y201168D03*
D30*
X215900Y83820D03*
D32*
X205740Y83820D01*
X203200Y81280D01*
X203200Y76860D01*
D35*
X202640Y76300D01*
D32*
X132080Y114300D02*
X131009Y113229D01*
X132080Y114300D02*
X132080Y119740D01*
D35*
X132640Y120300D01*
D32*
X200660Y83820D02*
X203200Y81280D01*
X200660Y83820D02*
X175260Y83820D01*
X168910Y90170D01*
X168910Y110490D01*
X159100Y120300D01*
X132640Y120300D01*
D30*
X332740Y182880D03*
D32*
X322580Y193040D01*
X266700Y193040D01*
X251460Y177800D01*
X251460Y147320D01*
X243840Y139700D01*
X178500Y139700D01*
X159100Y120300D01*
X132080Y104140D02*
X131009Y105211D01*
X132080Y104140D02*
X132080Y98860D01*
D35*
X132640Y98300D01*
D32*
X150370Y98300D01*
X151511Y21209D02*
X176784Y21209D01*
X151511Y21209D02*
X114300Y58420D01*
X114300Y93726D01*
X118872Y98298D01*
X132638Y98298D01*
X132640Y98300D01*
X150370Y98300D02*
X154940Y102870D01*
X131009Y105211D02*
X131009Y113229D01*
D37*
X895460Y26670D02*
X906018Y26670D01*
X922528Y43180D01*
X944880Y43180D01*
D32*
X877206Y8416D02*
X877206Y2413D01*
X877206Y8416D02*
X895460Y26670D01*
D30*
X886968Y-39624D03*
D35*
X877206Y-1414D02*
X877206Y2413D01*
X877206Y-1414D02*
X877316Y-1524D01*
X877316Y-4572D01*
X886968Y-14224D01*
X886968Y-39624D01*
D33*
X817880Y-45720D03*
X565404Y173736D03*
D32*
X817880Y-23368D02*
X817880Y-45720D01*
X817880Y-23368D02*
X847344Y6096D01*
X847344Y68072D01*
X847344Y72644D01*
X828040Y91948D01*
X807720Y91948D01*
X705104Y150368D02*
X668528Y150368D01*
X705104Y150368D02*
X711200Y144272D01*
X755396Y144272D01*
X807720Y91948D01*
X835660Y64372D02*
X843644Y64372D01*
X847344Y68072D01*
X668528Y150368D02*
X636016Y182880D01*
X605536Y182880D01*
X597408Y174752D01*
X566420Y174752D01*
X565404Y173736D01*
D34*
X872490Y248920D03*
X719836Y251968D03*
D35*
X872490Y248920D02*
X872490Y242570D01*
X868680Y238760D01*
X858520Y238760D01*
X843280Y254000D01*
X721868Y254000D01*
X719836Y251968D01*
D34*
X99060Y274320D03*
D35*
X93980Y274320D01*
X89662Y270002D01*
X89662Y257666D01*
D34*
X617220Y297180D03*
D35*
X617220Y307340D01*
X612140Y312420D01*
X114300Y312420D01*
X99060Y297180D01*
X99060Y274320D01*
D34*
X889000Y223012D03*
D35*
X657860Y309880D02*
X655320Y312420D01*
X621521Y312420D01*
X616712Y307611D01*
X616712Y297688D01*
X617220Y297180D01*
X893064Y289052D02*
X893064Y227584D01*
X889000Y223012D01*
X675640Y309880D02*
X657860Y309880D01*
X675640Y309880D02*
X688340Y297180D01*
X764540Y297180D01*
X779780Y312420D01*
X877316Y304800D02*
X893064Y289052D01*
X877316Y304800D02*
X828040Y304800D01*
X820420Y312420D01*
X779780Y312420D01*
D34*
X119380Y248920D03*
D35*
X118982Y248920D01*
X109347Y258555D01*
D33*
X884428Y264668D03*
D34*
X619760Y288036D03*
D35*
X633984Y302260D02*
X673100Y302260D01*
X633984Y302260D02*
X619760Y288036D01*
X829056Y289560D02*
X836676Y297180D01*
X875792Y297180D01*
X886460Y286512D01*
X886460Y266700D01*
X685800Y289560D02*
X673100Y302260D01*
X685800Y289560D02*
X829056Y289560D01*
X884428Y264668D02*
X886460Y266700D01*
D33*
X836930Y220980D03*
X756920Y212090D03*
D35*
X764540Y223520D02*
X834390Y223520D01*
X764540Y223520D02*
X756920Y212090D01*
X834390Y223520D02*
X836930Y220980D01*
D30*
X132080Y137160D03*
D35*
X132080Y151740D01*
X132640Y152300D01*
X132640Y173280D01*
X138860Y179500D01*
X149860Y179500D01*
X143610Y152300D02*
X132640Y152300D01*
X143610Y152300D02*
X153670Y142240D01*
D41*
X801116Y139446D03*
D30*
X114300Y149860D03*
D35*
X114300Y203200D01*
X137160Y226060D01*
X223012Y208788D02*
X319532Y208788D01*
X190500Y226060D02*
X137160Y226060D01*
X190500Y226060D02*
X193040Y228600D01*
X203200Y228600D01*
X223012Y208788D01*
X319532Y208788D02*
X337820Y190500D01*
X398780Y190500D01*
X403860Y185420D01*
D30*
X403860Y185420D03*
D34*
X684784Y116840D03*
D30*
X823468Y-88900D03*
D35*
X807115Y-88900D01*
X804321Y-88138D01*
D33*
X674624Y160528D03*
D35*
X757936Y154432D02*
X783844Y128524D01*
D33*
X819912Y134874D03*
D35*
X757936Y154432D02*
X713232Y154432D01*
X709168Y158496D01*
X676656Y158496D01*
X674624Y160528D01*
X783844Y128524D02*
X813562Y128524D01*
X819912Y134874D01*
D30*
X755396Y-88900D03*
D35*
X777591Y-88900D01*
X776321Y-88138D01*
D34*
X762000Y-53340D03*
D35*
X762000Y-60960D01*
X765810Y-64770D01*
X775940Y-64770D01*
D34*
X264160Y154940D03*
X281940Y180340D03*
D35*
X264160Y180340D01*
X259080Y175260D01*
X259080Y160020D01*
X264160Y154940D01*
D34*
X824992Y233680D03*
D35*
X735584Y233680D01*
X731520Y229616D01*
X652272Y229616D01*
X638048Y215392D01*
X611632Y215392D01*
X609600Y213360D01*
D34*
X609600Y213360D03*
D33*
X492506Y129540D03*
D35*
X508762Y132080D02*
X558038Y132080D01*
X576326Y150368D01*
X631952Y150368D01*
X640080Y142240D01*
X680720Y142240D01*
X696976Y125984D01*
X733552Y125984D01*
X751840Y107696D01*
X766064Y107696D01*
X786384Y87376D01*
D34*
X786384Y87376D03*
D35*
X508762Y132080D02*
X506222Y129540D01*
X492506Y129540D01*
D33*
X863917Y136843D03*
D35*
X863917Y138113D01*
X862330Y137160D01*
D42*
X864870Y138430D01*
X889000Y115570D01*
D33*
X889000Y115570D03*
D35*
X795401Y195817D02*
X792387Y192803D01*
X753872Y184912D02*
X733044Y205740D01*
X582168Y210312D02*
X476504Y210312D01*
X582168Y210312D02*
X586740Y205740D01*
X753872Y184912D02*
X777604Y184912D01*
X779399Y186707D01*
X792751Y186707D01*
X795528Y189484D01*
X795528Y195690D01*
X795401Y195817D01*
X733044Y205740D02*
X586740Y205740D01*
D33*
X475488Y209296D03*
D35*
X476504Y210312D01*
D30*
X868680Y49530D03*
D32*
X868680Y35450D01*
X877460Y26670D01*
D33*
X590804Y241808D03*
D34*
X889000Y214376D03*
D37*
X286639Y235079D02*
X257429Y235079D01*
X286639Y235079D02*
X317119Y235079D01*
D30*
X345440Y208280D03*
D37*
X346710Y235079D02*
X317119Y235079D01*
D35*
X346710Y235079D02*
X347218Y235587D01*
X346710Y235079D02*
X346710Y209550D01*
X345440Y208280D01*
D30*
X231140Y226060D03*
D37*
X257429Y229489D02*
X257429Y235079D01*
X257429Y229489D02*
X254000Y226060D01*
X231140Y226060D01*
X347218Y235587D02*
X372747Y235587D01*
X378460Y241300D01*
X378460Y256540D01*
X381000Y259080D01*
D30*
X381000Y259080D03*
D33*
X264668Y388620D03*
X273304Y388620D03*
X281940Y388620D03*
X290576Y388620D03*
X299212Y388620D03*
X314960Y383032D03*
X307848Y388112D03*
X315976Y373888D03*
X318516Y364236D03*
X318008Y356108D03*
X317500Y347472D03*
X316992Y338836D03*
X311912Y331724D03*
X303276Y328676D03*
X309880Y324104D03*
X319532Y327660D03*
X324612Y335280D03*
X325120Y344424D03*
X326136Y353060D03*
X324104Y371348D03*
X316484Y392176D03*
X304292Y395732D03*
X294640Y396748D03*
X284480Y397256D03*
X275336Y397256D03*
X266192Y397256D03*
X261112Y379476D03*
X260604Y371348D03*
X260096Y363220D03*
X259588Y354584D03*
X259080Y346456D03*
X279400Y326644D03*
X287528Y326644D03*
X295656Y326644D03*
X326644Y362712D03*
X253492Y376428D03*
X252984Y367792D03*
X252476Y359664D03*
X252476Y352044D03*
X254508Y387604D03*
X257048Y396240D03*
X124460Y405384D03*
X133096Y405384D03*
X96012Y376936D03*
X96012Y367284D03*
X95504Y356616D03*
X105156Y355600D03*
X103124Y385064D03*
X111760Y394208D03*
X146304Y405892D03*
X157988Y406400D03*
X170688Y406908D03*
X208280Y405892D03*
X216408Y406400D03*
X226060Y406908D03*
X235712Y406908D03*
X116332Y360680D03*
X124460Y366776D03*
X117856Y399796D03*
X244856Y406908D03*
X250952Y401828D03*
X260604Y406400D03*
X274320Y407416D03*
X289052Y407416D03*
X303784Y405892D03*
X325120Y382016D03*
X247396Y393700D03*
X246888Y383540D03*
D35*
X671068Y127000D02*
X671068Y110236D01*
X665480Y104648D01*
X450596Y104648D01*
X428244Y127000D01*
D43*
X0Y0D02*
X293500Y0D01*
X293500Y100000D01*
X748100Y100000D01*
X748100Y-110000D01*
X960000Y-110000D01*
X960000Y340000D01*
X880028Y419972D01*
X79972Y419972D01*
X0Y340000D01*
X0Y0D01*
M02*
