G04 EAGLE Gerber RS-274X export*
G75*
%MOMM*%
%FSLAX34Y34*%
%LPD*%
%INCopper Layer 2*%
%IPPOS*%
%AMOC8*
5,1,8,0,0,1.08239X$1,22.5*%
G01*
%ADD10C,1.524000*%
%ADD11C,3.302000*%
%ADD12C,3.216000*%
%ADD13C,1.125000*%
%ADD14C,1.219200*%
%ADD15C,0.609600*%
%ADD16C,0.508000*%
%ADD17C,1.333500*%
%ADD18C,1.500000*%
%ADD19C,0.900000*%
%ADD20C,0.254000*%

G36*
X954938Y-106949D02*
X954938Y-106949D01*
X954956Y-106951D01*
X955138Y-106930D01*
X955321Y-106911D01*
X955338Y-106906D01*
X955355Y-106904D01*
X955530Y-106847D01*
X955706Y-106793D01*
X955721Y-106785D01*
X955738Y-106779D01*
X955898Y-106689D01*
X956060Y-106601D01*
X956073Y-106590D01*
X956089Y-106581D01*
X956228Y-106461D01*
X956369Y-106344D01*
X956380Y-106330D01*
X956394Y-106318D01*
X956506Y-106173D01*
X956621Y-106030D01*
X956629Y-106014D01*
X956640Y-106000D01*
X956722Y-105835D01*
X956807Y-105673D01*
X956812Y-105656D01*
X956820Y-105640D01*
X956867Y-105461D01*
X956918Y-105286D01*
X956920Y-105268D01*
X956924Y-105251D01*
X956951Y-104920D01*
X956951Y39445D01*
X956951Y39450D01*
X956951Y39454D01*
X956931Y39648D01*
X956911Y39846D01*
X956910Y39850D01*
X956910Y39855D01*
X956851Y40042D01*
X956793Y40231D01*
X956791Y40235D01*
X956790Y40239D01*
X956697Y40409D01*
X956601Y40585D01*
X956599Y40588D01*
X956596Y40592D01*
X956468Y40745D01*
X956344Y40894D01*
X956340Y40897D01*
X956337Y40900D01*
X956186Y41021D01*
X956030Y41147D01*
X956026Y41149D01*
X956023Y41151D01*
X955848Y41241D01*
X955673Y41332D01*
X955668Y41333D01*
X955664Y41335D01*
X955477Y41388D01*
X955286Y41443D01*
X955281Y41444D01*
X955277Y41445D01*
X955084Y41460D01*
X954884Y41476D01*
X954880Y41476D01*
X954876Y41476D01*
X954682Y41453D01*
X954485Y41429D01*
X954480Y41428D01*
X954476Y41427D01*
X954291Y41366D01*
X954102Y41305D01*
X954098Y41302D01*
X954094Y41301D01*
X953925Y41205D01*
X953751Y41107D01*
X953748Y41104D01*
X953744Y41101D01*
X953595Y40972D01*
X953447Y40843D01*
X953444Y40840D01*
X953440Y40837D01*
X953320Y40680D01*
X953200Y40525D01*
X953198Y40521D01*
X953195Y40518D01*
X953043Y40223D01*
X952233Y38267D01*
X949793Y35827D01*
X946605Y34506D01*
X943155Y34506D01*
X939967Y35827D01*
X937527Y38267D01*
X936206Y41455D01*
X936206Y44905D01*
X937527Y48093D01*
X939967Y50533D01*
X943155Y51854D01*
X946605Y51854D01*
X949793Y50533D01*
X952233Y48093D01*
X953043Y46137D01*
X953045Y46133D01*
X953047Y46129D01*
X953140Y45956D01*
X953234Y45782D01*
X953236Y45779D01*
X953239Y45775D01*
X953363Y45626D01*
X953490Y45472D01*
X953493Y45469D01*
X953496Y45466D01*
X953649Y45343D01*
X953803Y45218D01*
X953807Y45216D01*
X953810Y45213D01*
X953983Y45124D01*
X954159Y45031D01*
X954163Y45030D01*
X954167Y45028D01*
X954356Y44974D01*
X954546Y44918D01*
X954550Y44918D01*
X954554Y44917D01*
X954752Y44900D01*
X954947Y44884D01*
X954951Y44884D01*
X954956Y44884D01*
X955150Y44907D01*
X955347Y44929D01*
X955351Y44930D01*
X955355Y44931D01*
X955541Y44991D01*
X955730Y45052D01*
X955734Y45054D01*
X955738Y45055D01*
X955911Y45153D01*
X956082Y45248D01*
X956085Y45251D01*
X956089Y45253D01*
X956238Y45382D01*
X956387Y45510D01*
X956390Y45514D01*
X956394Y45517D01*
X956514Y45671D01*
X956636Y45827D01*
X956638Y45831D01*
X956640Y45835D01*
X956729Y46013D01*
X956816Y46187D01*
X956818Y46191D01*
X956820Y46195D01*
X956871Y46387D01*
X956923Y46575D01*
X956923Y46580D01*
X956924Y46584D01*
X956951Y46915D01*
X956951Y103965D01*
X956950Y103978D01*
X956951Y103991D01*
X956930Y104178D01*
X956911Y104365D01*
X956907Y104378D01*
X956906Y104392D01*
X956848Y104571D01*
X956793Y104750D01*
X956787Y104762D01*
X956783Y104775D01*
X956691Y104940D01*
X956601Y105104D01*
X956593Y105115D01*
X956586Y105126D01*
X956463Y105270D01*
X956344Y105414D01*
X956333Y105422D01*
X956325Y105432D01*
X956176Y105548D01*
X956030Y105666D01*
X956018Y105672D01*
X956007Y105680D01*
X955839Y105765D01*
X955673Y105851D01*
X955660Y105855D01*
X955648Y105861D01*
X955466Y105911D01*
X955286Y105963D01*
X955272Y105964D01*
X955259Y105967D01*
X955073Y105980D01*
X954884Y105996D01*
X954871Y105994D01*
X954858Y105995D01*
X954672Y105971D01*
X954485Y105949D01*
X954472Y105945D01*
X954459Y105943D01*
X954143Y105841D01*
X953713Y105663D01*
X951287Y105663D01*
X949046Y106591D01*
X947331Y108306D01*
X946403Y110547D01*
X946403Y112973D01*
X947331Y115214D01*
X949046Y116929D01*
X951287Y117857D01*
X953713Y117857D01*
X954143Y117679D01*
X954156Y117675D01*
X954167Y117669D01*
X954348Y117617D01*
X954528Y117562D01*
X954541Y117561D01*
X954554Y117557D01*
X954743Y117542D01*
X954929Y117524D01*
X954942Y117525D01*
X954956Y117524D01*
X955142Y117546D01*
X955329Y117566D01*
X955342Y117570D01*
X955355Y117571D01*
X955534Y117629D01*
X955714Y117685D01*
X955725Y117692D01*
X955738Y117696D01*
X955902Y117788D01*
X956067Y117879D01*
X956077Y117887D01*
X956089Y117894D01*
X956231Y118017D01*
X956375Y118138D01*
X956383Y118148D01*
X956394Y118157D01*
X956508Y118305D01*
X956626Y118453D01*
X956632Y118465D01*
X956640Y118475D01*
X956724Y118644D01*
X956810Y118811D01*
X956814Y118824D01*
X956820Y118836D01*
X956869Y119018D01*
X956920Y119198D01*
X956921Y119212D01*
X956924Y119225D01*
X956951Y119555D01*
X956951Y154664D01*
X956951Y154669D01*
X956951Y154673D01*
X956931Y154865D01*
X956911Y155065D01*
X956910Y155069D01*
X956910Y155074D01*
X956853Y155256D01*
X956793Y155450D01*
X956791Y155454D01*
X956790Y155458D01*
X956696Y155630D01*
X956601Y155804D01*
X956599Y155807D01*
X956596Y155811D01*
X956469Y155963D01*
X956344Y156113D01*
X956340Y156116D01*
X956337Y156119D01*
X956183Y156242D01*
X956030Y156365D01*
X956026Y156367D01*
X956023Y156370D01*
X955847Y156461D01*
X955673Y156551D01*
X955668Y156552D01*
X955664Y156554D01*
X955476Y156608D01*
X955286Y156662D01*
X955281Y156663D01*
X955277Y156664D01*
X955084Y156679D01*
X954884Y156695D01*
X954880Y156695D01*
X954876Y156695D01*
X954683Y156671D01*
X954485Y156648D01*
X954480Y156647D01*
X954476Y156646D01*
X954293Y156586D01*
X954102Y156523D01*
X954098Y156521D01*
X954094Y156520D01*
X953925Y156424D01*
X953751Y156326D01*
X953748Y156323D01*
X953744Y156320D01*
X953594Y156190D01*
X953447Y156062D01*
X953444Y156059D01*
X953440Y156056D01*
X953319Y155898D01*
X953200Y155744D01*
X953198Y155740D01*
X953195Y155737D01*
X953043Y155442D01*
X951385Y151437D01*
X948383Y148435D01*
X944462Y146811D01*
X940218Y146811D01*
X936297Y148435D01*
X933295Y151437D01*
X931671Y155358D01*
X931671Y159602D01*
X933295Y163523D01*
X936297Y166525D01*
X940218Y168149D01*
X944462Y168149D01*
X948383Y166525D01*
X951385Y163523D01*
X953043Y159518D01*
X953045Y159515D01*
X953047Y159510D01*
X953140Y159338D01*
X953234Y159164D01*
X953236Y159160D01*
X953239Y159156D01*
X953363Y159007D01*
X953490Y158853D01*
X953493Y158850D01*
X953496Y158847D01*
X953649Y158724D01*
X953803Y158599D01*
X953807Y158597D01*
X953810Y158595D01*
X953985Y158504D01*
X954159Y158412D01*
X954163Y158411D01*
X954167Y158409D01*
X954357Y158355D01*
X954546Y158299D01*
X954550Y158299D01*
X954554Y158298D01*
X954752Y158281D01*
X954947Y158265D01*
X954951Y158265D01*
X954956Y158265D01*
X955153Y158288D01*
X955347Y158310D01*
X955351Y158311D01*
X955355Y158312D01*
X955544Y158373D01*
X955730Y158433D01*
X955734Y158435D01*
X955738Y158437D01*
X955911Y158534D01*
X956082Y158629D01*
X956085Y158632D01*
X956089Y158634D01*
X956238Y158763D01*
X956387Y158891D01*
X956390Y158895D01*
X956394Y158898D01*
X956513Y159052D01*
X956636Y159208D01*
X956638Y159212D01*
X956640Y159216D01*
X956728Y159392D01*
X956816Y159568D01*
X956818Y159572D01*
X956820Y159576D01*
X956871Y159767D01*
X956923Y159956D01*
X956923Y159961D01*
X956924Y159965D01*
X956951Y160296D01*
X956951Y180064D01*
X956951Y180069D01*
X956951Y180073D01*
X956931Y180267D01*
X956911Y180465D01*
X956910Y180469D01*
X956910Y180474D01*
X956852Y180659D01*
X956793Y180850D01*
X956791Y180854D01*
X956790Y180858D01*
X956696Y181030D01*
X956601Y181204D01*
X956599Y181207D01*
X956596Y181211D01*
X956469Y181363D01*
X956344Y181513D01*
X956340Y181516D01*
X956337Y181519D01*
X956183Y181642D01*
X956030Y181765D01*
X956026Y181767D01*
X956023Y181770D01*
X955847Y181861D01*
X955673Y181951D01*
X955668Y181952D01*
X955664Y181954D01*
X955476Y182008D01*
X955286Y182062D01*
X955281Y182063D01*
X955277Y182064D01*
X955084Y182079D01*
X954884Y182095D01*
X954880Y182095D01*
X954876Y182095D01*
X954683Y182071D01*
X954485Y182048D01*
X954480Y182047D01*
X954476Y182046D01*
X954293Y181986D01*
X954102Y181923D01*
X954098Y181921D01*
X954094Y181920D01*
X953925Y181824D01*
X953751Y181726D01*
X953748Y181723D01*
X953744Y181720D01*
X953595Y181591D01*
X953447Y181462D01*
X953444Y181459D01*
X953440Y181456D01*
X953320Y181299D01*
X953200Y181144D01*
X953198Y181140D01*
X953195Y181137D01*
X953043Y180842D01*
X951385Y176837D01*
X948383Y173835D01*
X944462Y172211D01*
X940218Y172211D01*
X936297Y173835D01*
X933295Y176837D01*
X931671Y180758D01*
X931671Y185002D01*
X933295Y188923D01*
X936297Y191925D01*
X940218Y193549D01*
X944462Y193549D01*
X948383Y191925D01*
X951385Y188923D01*
X953043Y184918D01*
X953045Y184915D01*
X953047Y184910D01*
X953140Y184738D01*
X953234Y184564D01*
X953236Y184560D01*
X953239Y184556D01*
X953363Y184407D01*
X953490Y184253D01*
X953493Y184250D01*
X953496Y184247D01*
X953649Y184124D01*
X953803Y183999D01*
X953807Y183997D01*
X953810Y183995D01*
X953985Y183904D01*
X954159Y183812D01*
X954163Y183811D01*
X954167Y183809D01*
X954357Y183755D01*
X954546Y183699D01*
X954550Y183699D01*
X954554Y183698D01*
X954752Y183681D01*
X954947Y183665D01*
X954951Y183665D01*
X954956Y183665D01*
X955153Y183688D01*
X955347Y183710D01*
X955351Y183711D01*
X955355Y183712D01*
X955544Y183773D01*
X955730Y183833D01*
X955734Y183835D01*
X955738Y183837D01*
X955910Y183933D01*
X956082Y184029D01*
X956085Y184032D01*
X956089Y184034D01*
X956238Y184163D01*
X956387Y184291D01*
X956390Y184295D01*
X956394Y184298D01*
X956513Y184451D01*
X956636Y184608D01*
X956638Y184612D01*
X956640Y184616D01*
X956728Y184792D01*
X956816Y184968D01*
X956818Y184972D01*
X956820Y184976D01*
X956871Y185167D01*
X956923Y185356D01*
X956923Y185361D01*
X956924Y185365D01*
X956951Y185696D01*
X956951Y205464D01*
X956951Y205469D01*
X956951Y205473D01*
X956931Y205667D01*
X956911Y205865D01*
X956910Y205869D01*
X956910Y205874D01*
X956853Y206056D01*
X956793Y206250D01*
X956791Y206254D01*
X956790Y206258D01*
X956698Y206426D01*
X956601Y206604D01*
X956599Y206607D01*
X956596Y206611D01*
X956469Y206763D01*
X956344Y206913D01*
X956340Y206916D01*
X956337Y206919D01*
X956183Y207042D01*
X956030Y207165D01*
X956026Y207167D01*
X956023Y207170D01*
X955847Y207261D01*
X955673Y207351D01*
X955668Y207352D01*
X955664Y207354D01*
X955476Y207408D01*
X955286Y207462D01*
X955281Y207463D01*
X955277Y207464D01*
X955084Y207479D01*
X954884Y207495D01*
X954880Y207495D01*
X954876Y207495D01*
X954683Y207471D01*
X954485Y207448D01*
X954480Y207447D01*
X954476Y207446D01*
X954293Y207386D01*
X954102Y207323D01*
X954098Y207321D01*
X954094Y207320D01*
X953925Y207223D01*
X953751Y207126D01*
X953748Y207123D01*
X953744Y207120D01*
X953595Y206991D01*
X953447Y206862D01*
X953444Y206859D01*
X953440Y206856D01*
X953320Y206699D01*
X953200Y206544D01*
X953198Y206540D01*
X953195Y206537D01*
X953043Y206242D01*
X951385Y202237D01*
X948383Y199235D01*
X944462Y197611D01*
X940218Y197611D01*
X936297Y199235D01*
X933295Y202237D01*
X931671Y206158D01*
X931671Y210402D01*
X933295Y214323D01*
X936297Y217325D01*
X940218Y218949D01*
X944462Y218949D01*
X948383Y217325D01*
X951385Y214323D01*
X953043Y210318D01*
X953045Y210315D01*
X953047Y210310D01*
X953141Y210135D01*
X953234Y209964D01*
X953236Y209960D01*
X953239Y209956D01*
X953363Y209807D01*
X953490Y209653D01*
X953493Y209650D01*
X953496Y209647D01*
X953649Y209524D01*
X953803Y209399D01*
X953807Y209397D01*
X953810Y209395D01*
X953985Y209304D01*
X954159Y209212D01*
X954163Y209211D01*
X954167Y209209D01*
X954357Y209155D01*
X954546Y209099D01*
X954550Y209099D01*
X954554Y209098D01*
X954752Y209081D01*
X954947Y209065D01*
X954951Y209065D01*
X954956Y209065D01*
X955153Y209088D01*
X955347Y209110D01*
X955351Y209111D01*
X955355Y209112D01*
X955544Y209173D01*
X955730Y209233D01*
X955734Y209235D01*
X955738Y209237D01*
X955911Y209334D01*
X956082Y209429D01*
X956085Y209432D01*
X956089Y209434D01*
X956237Y209563D01*
X956387Y209691D01*
X956390Y209695D01*
X956394Y209698D01*
X956512Y209850D01*
X956636Y210008D01*
X956638Y210012D01*
X956640Y210016D01*
X956728Y210192D01*
X956816Y210368D01*
X956818Y210372D01*
X956820Y210376D01*
X956871Y210567D01*
X956923Y210756D01*
X956923Y210761D01*
X956924Y210765D01*
X956951Y211096D01*
X956951Y230864D01*
X956951Y230869D01*
X956951Y230873D01*
X956931Y231067D01*
X956911Y231265D01*
X956910Y231269D01*
X956910Y231274D01*
X956852Y231458D01*
X956793Y231650D01*
X956791Y231654D01*
X956790Y231658D01*
X956698Y231826D01*
X956601Y232004D01*
X956599Y232007D01*
X956596Y232011D01*
X956469Y232163D01*
X956344Y232313D01*
X956340Y232316D01*
X956337Y232319D01*
X956183Y232442D01*
X956030Y232565D01*
X956026Y232567D01*
X956023Y232570D01*
X955847Y232661D01*
X955673Y232751D01*
X955668Y232752D01*
X955664Y232754D01*
X955476Y232808D01*
X955286Y232862D01*
X955281Y232863D01*
X955277Y232864D01*
X955084Y232879D01*
X954884Y232895D01*
X954880Y232895D01*
X954876Y232895D01*
X954683Y232871D01*
X954485Y232848D01*
X954480Y232847D01*
X954476Y232846D01*
X954293Y232786D01*
X954102Y232723D01*
X954098Y232721D01*
X954094Y232720D01*
X953925Y232624D01*
X953751Y232526D01*
X953748Y232523D01*
X953744Y232520D01*
X953595Y232391D01*
X953447Y232262D01*
X953444Y232259D01*
X953440Y232256D01*
X953320Y232099D01*
X953200Y231944D01*
X953198Y231940D01*
X953195Y231937D01*
X953043Y231642D01*
X951385Y227637D01*
X948383Y224635D01*
X944462Y223011D01*
X940218Y223011D01*
X936297Y224635D01*
X933295Y227637D01*
X931671Y231558D01*
X931671Y235802D01*
X933295Y239723D01*
X936297Y242725D01*
X940218Y244349D01*
X944462Y244349D01*
X948383Y242725D01*
X951385Y239723D01*
X953043Y235718D01*
X953045Y235715D01*
X953047Y235710D01*
X953140Y235537D01*
X953234Y235364D01*
X953236Y235360D01*
X953239Y235356D01*
X953363Y235207D01*
X953490Y235053D01*
X953493Y235050D01*
X953496Y235047D01*
X953649Y234924D01*
X953803Y234799D01*
X953807Y234797D01*
X953810Y234795D01*
X953985Y234704D01*
X954159Y234612D01*
X954163Y234611D01*
X954167Y234609D01*
X954357Y234555D01*
X954546Y234499D01*
X954550Y234499D01*
X954554Y234498D01*
X954752Y234481D01*
X954947Y234465D01*
X954951Y234465D01*
X954956Y234465D01*
X955153Y234488D01*
X955347Y234510D01*
X955351Y234511D01*
X955355Y234512D01*
X955544Y234573D01*
X955730Y234633D01*
X955734Y234635D01*
X955738Y234637D01*
X955911Y234734D01*
X956082Y234829D01*
X956085Y234832D01*
X956089Y234834D01*
X956238Y234963D01*
X956387Y235091D01*
X956390Y235095D01*
X956394Y235098D01*
X956513Y235252D01*
X956636Y235408D01*
X956638Y235412D01*
X956640Y235416D01*
X956728Y235592D01*
X956816Y235768D01*
X956818Y235772D01*
X956820Y235776D01*
X956871Y235969D01*
X956923Y236156D01*
X956923Y236161D01*
X956924Y236165D01*
X956951Y236496D01*
X956951Y337896D01*
X956950Y337912D01*
X956951Y337928D01*
X956950Y337938D01*
X956951Y337949D01*
X956929Y338123D01*
X956911Y338296D01*
X956906Y338316D01*
X956904Y338328D01*
X956902Y338334D01*
X956900Y338349D01*
X956845Y338514D01*
X956793Y338681D01*
X956782Y338702D01*
X956779Y338711D01*
X956778Y338714D01*
X956772Y338730D01*
X956685Y338882D01*
X956601Y339035D01*
X956584Y339056D01*
X956583Y339058D01*
X956581Y339061D01*
X956571Y339079D01*
X956356Y339332D01*
X879360Y416328D01*
X879339Y416345D01*
X879322Y416366D01*
X879184Y416473D01*
X879049Y416583D01*
X879025Y416596D01*
X879004Y416612D01*
X878847Y416690D01*
X878693Y416772D01*
X878667Y416780D01*
X878643Y416792D01*
X878474Y416837D01*
X878307Y416887D01*
X878280Y416889D01*
X878255Y416896D01*
X877924Y416923D01*
X292243Y416923D01*
X292238Y416923D01*
X292234Y416923D01*
X292040Y416903D01*
X291842Y416883D01*
X291838Y416882D01*
X291833Y416882D01*
X291646Y416823D01*
X291457Y416765D01*
X291453Y416763D01*
X291449Y416762D01*
X291274Y416666D01*
X291103Y416573D01*
X291100Y416571D01*
X291096Y416568D01*
X290943Y416440D01*
X290794Y416316D01*
X290791Y416312D01*
X290788Y416309D01*
X290664Y416154D01*
X290542Y416002D01*
X290539Y415998D01*
X290537Y415994D01*
X290445Y415816D01*
X290356Y415645D01*
X290355Y415640D01*
X290353Y415636D01*
X290298Y415443D01*
X290245Y415258D01*
X290244Y415253D01*
X290243Y415249D01*
X290228Y415053D01*
X290212Y414856D01*
X290212Y414852D01*
X290212Y414848D01*
X290236Y414654D01*
X290259Y414457D01*
X290260Y414452D01*
X290261Y414448D01*
X290322Y414262D01*
X290384Y414074D01*
X290386Y414070D01*
X290387Y414066D01*
X290485Y413895D01*
X290581Y413723D01*
X290584Y413720D01*
X290587Y413716D01*
X290716Y413567D01*
X290845Y413419D01*
X290848Y413416D01*
X290851Y413412D01*
X291010Y413290D01*
X291163Y413172D01*
X291167Y413170D01*
X291170Y413167D01*
X291465Y413015D01*
X292506Y412585D01*
X294221Y410870D01*
X294857Y409333D01*
X294861Y409325D01*
X294864Y409316D01*
X294956Y409147D01*
X295047Y408978D01*
X295053Y408971D01*
X295057Y408963D01*
X295180Y408817D01*
X295304Y408668D01*
X295311Y408662D01*
X295316Y408655D01*
X295467Y408535D01*
X295616Y408414D01*
X295624Y408410D01*
X295631Y408404D01*
X295803Y408316D01*
X295973Y408227D01*
X295981Y408224D01*
X295989Y408220D01*
X296175Y408168D01*
X296359Y408114D01*
X296368Y408113D01*
X296377Y408111D01*
X296568Y408096D01*
X296760Y408079D01*
X296769Y408080D01*
X296778Y408080D01*
X296971Y408103D01*
X297160Y408124D01*
X297169Y408127D01*
X297178Y408128D01*
X297362Y408189D01*
X297544Y408248D01*
X297552Y408252D01*
X297560Y408255D01*
X297728Y408350D01*
X297895Y408444D01*
X297902Y408450D01*
X297910Y408454D01*
X298054Y408580D01*
X298201Y408706D01*
X298207Y408713D01*
X298213Y408719D01*
X298330Y408870D01*
X298449Y409023D01*
X298453Y409031D01*
X298459Y409038D01*
X298610Y409333D01*
X298615Y409346D01*
X300330Y411061D01*
X302571Y411989D01*
X304997Y411989D01*
X307238Y411061D01*
X308953Y409346D01*
X309881Y407105D01*
X309881Y404679D01*
X308943Y402416D01*
X308877Y402333D01*
X308761Y402191D01*
X308753Y402175D01*
X308742Y402161D01*
X308658Y401997D01*
X308573Y401835D01*
X308568Y401818D01*
X308560Y401802D01*
X308510Y401625D01*
X308458Y401449D01*
X308456Y401431D01*
X308452Y401414D01*
X308438Y401231D01*
X308422Y401048D01*
X308423Y401030D01*
X308422Y401013D01*
X308445Y400831D01*
X308465Y400648D01*
X308470Y400631D01*
X308473Y400613D01*
X308531Y400440D01*
X308586Y400264D01*
X308595Y400248D01*
X308601Y400232D01*
X308693Y400072D01*
X308781Y399912D01*
X308793Y399898D01*
X308802Y399883D01*
X309016Y399630D01*
X309461Y399186D01*
X309882Y398168D01*
X309888Y398156D01*
X309892Y398143D01*
X309983Y397980D01*
X310072Y397813D01*
X310081Y397803D01*
X310087Y397791D01*
X310209Y397647D01*
X310329Y397503D01*
X310339Y397494D01*
X310348Y397484D01*
X310495Y397368D01*
X310641Y397249D01*
X310653Y397243D01*
X310664Y397234D01*
X310831Y397150D01*
X310998Y397062D01*
X311011Y397058D01*
X311023Y397052D01*
X311203Y397002D01*
X311384Y396949D01*
X311398Y396948D01*
X311411Y396944D01*
X311598Y396930D01*
X311785Y396914D01*
X311799Y396916D01*
X311812Y396915D01*
X311998Y396938D01*
X312185Y396959D01*
X312198Y396964D01*
X312212Y396965D01*
X312390Y397025D01*
X312569Y397083D01*
X312580Y397089D01*
X312593Y397093D01*
X312757Y397188D01*
X312920Y397279D01*
X312930Y397288D01*
X312942Y397294D01*
X312973Y397321D01*
X315271Y398273D01*
X317697Y398273D01*
X319938Y397345D01*
X321653Y395630D01*
X322581Y393389D01*
X322581Y390963D01*
X322563Y390921D01*
X322559Y390908D01*
X322553Y390897D01*
X322502Y390717D01*
X322447Y390536D01*
X322446Y390523D01*
X322442Y390510D01*
X322426Y390321D01*
X322409Y390135D01*
X322410Y390122D01*
X322409Y390108D01*
X322431Y389921D01*
X322450Y389735D01*
X322454Y389722D01*
X322456Y389709D01*
X322514Y389530D01*
X322570Y389350D01*
X322577Y389339D01*
X322581Y389326D01*
X322673Y389162D01*
X322763Y388997D01*
X322772Y388987D01*
X322779Y388975D01*
X322901Y388834D01*
X323023Y388689D01*
X323033Y388681D01*
X323042Y388670D01*
X323189Y388556D01*
X323337Y388438D01*
X323349Y388432D01*
X323360Y388424D01*
X323528Y388340D01*
X323695Y388254D01*
X323708Y388250D01*
X323720Y388244D01*
X323902Y388195D01*
X324083Y388144D01*
X324096Y388143D01*
X324109Y388140D01*
X324440Y388113D01*
X326333Y388113D01*
X328574Y387185D01*
X330289Y385470D01*
X331217Y383229D01*
X331217Y380803D01*
X330289Y378562D01*
X329336Y377610D01*
X329325Y377596D01*
X329311Y377585D01*
X329198Y377441D01*
X329081Y377299D01*
X329073Y377283D01*
X329062Y377269D01*
X328978Y377105D01*
X328893Y376943D01*
X328888Y376926D01*
X328879Y376910D01*
X328830Y376733D01*
X328778Y376557D01*
X328776Y376539D01*
X328772Y376522D01*
X328758Y376340D01*
X328742Y376156D01*
X328743Y376138D01*
X328742Y376121D01*
X328765Y375939D01*
X328785Y375756D01*
X328790Y375739D01*
X328793Y375721D01*
X328851Y375547D01*
X328906Y375372D01*
X328915Y375356D01*
X328921Y375339D01*
X329012Y375181D01*
X329101Y375020D01*
X329113Y375006D01*
X329122Y374991D01*
X329263Y374824D01*
X330201Y372561D01*
X330201Y370135D01*
X330030Y369722D01*
X330023Y369701D01*
X330013Y369681D01*
X329965Y369508D01*
X329913Y369337D01*
X329911Y369314D01*
X329905Y369293D01*
X329892Y369112D01*
X329875Y368936D01*
X329877Y368914D01*
X329876Y368891D01*
X329898Y368713D01*
X329917Y368535D01*
X329923Y368514D01*
X329926Y368492D01*
X329983Y368321D01*
X330036Y368151D01*
X330047Y368131D01*
X330054Y368110D01*
X330143Y367955D01*
X330230Y367798D01*
X330244Y367781D01*
X330255Y367761D01*
X330470Y367508D01*
X331813Y366166D01*
X332741Y363925D01*
X332741Y361499D01*
X331813Y359258D01*
X331609Y359055D01*
X331595Y359038D01*
X331578Y359023D01*
X331467Y358882D01*
X331354Y358743D01*
X331344Y358724D01*
X331330Y358706D01*
X331249Y358546D01*
X331165Y358388D01*
X331159Y358366D01*
X331149Y358346D01*
X331102Y358174D01*
X331051Y358002D01*
X331049Y357980D01*
X331043Y357958D01*
X331030Y357779D01*
X331014Y357601D01*
X331017Y357579D01*
X331015Y357556D01*
X331038Y357379D01*
X331058Y357201D01*
X331064Y357179D01*
X331067Y357157D01*
X331169Y356841D01*
X332233Y354273D01*
X332233Y351847D01*
X331305Y349606D01*
X331039Y349341D01*
X331025Y349324D01*
X331008Y349310D01*
X330898Y349169D01*
X330784Y349030D01*
X330774Y349010D01*
X330760Y348993D01*
X330680Y348832D01*
X330596Y348674D01*
X330589Y348653D01*
X330579Y348633D01*
X330532Y348460D01*
X330481Y348288D01*
X330479Y348266D01*
X330473Y348245D01*
X330461Y348065D01*
X330445Y347887D01*
X330447Y347865D01*
X330445Y347843D01*
X330469Y347665D01*
X330488Y347487D01*
X330495Y347466D01*
X330498Y347444D01*
X330599Y347128D01*
X331217Y345637D01*
X331217Y343211D01*
X330289Y340971D01*
X330234Y340916D01*
X330220Y340899D01*
X330203Y340884D01*
X330092Y340743D01*
X329979Y340604D01*
X329968Y340585D01*
X329955Y340567D01*
X329874Y340407D01*
X329790Y340249D01*
X329784Y340227D01*
X329774Y340207D01*
X329726Y340034D01*
X329675Y339863D01*
X329673Y339841D01*
X329667Y339819D01*
X329655Y339640D01*
X329639Y339462D01*
X329641Y339440D01*
X329640Y339417D01*
X329663Y339239D01*
X329682Y339062D01*
X329689Y339040D01*
X329692Y339018D01*
X329794Y338702D01*
X330709Y336493D01*
X330709Y334067D01*
X329781Y331826D01*
X328066Y330111D01*
X326883Y329621D01*
X326863Y329611D01*
X326842Y329604D01*
X326686Y329516D01*
X326528Y329431D01*
X326511Y329417D01*
X326491Y329406D01*
X326356Y329289D01*
X326217Y329175D01*
X326203Y329158D01*
X326186Y329143D01*
X326077Y329002D01*
X325964Y328862D01*
X325953Y328842D01*
X325940Y328825D01*
X325860Y328664D01*
X325777Y328506D01*
X325770Y328484D01*
X325760Y328464D01*
X325714Y328291D01*
X325664Y328119D01*
X325662Y328103D01*
X325662Y328102D01*
X325661Y328097D01*
X325656Y328076D01*
X325629Y327745D01*
X325629Y326447D01*
X324701Y324206D01*
X322986Y322491D01*
X320745Y321563D01*
X318319Y321563D01*
X317727Y321809D01*
X317710Y321814D01*
X317694Y321822D01*
X317518Y321872D01*
X317342Y321925D01*
X317324Y321927D01*
X317307Y321932D01*
X317123Y321946D01*
X316941Y321963D01*
X316923Y321961D01*
X316905Y321963D01*
X316724Y321941D01*
X316540Y321922D01*
X316523Y321916D01*
X316505Y321914D01*
X316331Y321856D01*
X316156Y321802D01*
X316140Y321793D01*
X316123Y321788D01*
X315964Y321697D01*
X315803Y321609D01*
X315789Y321597D01*
X315773Y321588D01*
X315635Y321467D01*
X315495Y321349D01*
X315483Y321335D01*
X315470Y321324D01*
X315358Y321178D01*
X315244Y321035D01*
X315235Y321019D01*
X315225Y321004D01*
X315073Y320709D01*
X315049Y320650D01*
X313334Y318935D01*
X311093Y318007D01*
X308667Y318007D01*
X306426Y318935D01*
X304711Y320650D01*
X304432Y321325D01*
X304421Y321345D01*
X304414Y321366D01*
X304326Y321522D01*
X304242Y321680D01*
X304227Y321697D01*
X304217Y321717D01*
X304100Y321852D01*
X303985Y321991D01*
X303968Y322005D01*
X303953Y322022D01*
X303812Y322131D01*
X303673Y322244D01*
X303653Y322255D01*
X303635Y322268D01*
X303474Y322348D01*
X303316Y322431D01*
X303295Y322438D01*
X303275Y322448D01*
X303101Y322494D01*
X302930Y322544D01*
X302908Y322546D01*
X302886Y322552D01*
X302555Y322579D01*
X302063Y322579D01*
X302009Y322602D01*
X301988Y322608D01*
X301968Y322618D01*
X301795Y322666D01*
X301624Y322718D01*
X301602Y322720D01*
X301580Y322726D01*
X301400Y322739D01*
X301223Y322756D01*
X301201Y322754D01*
X301178Y322756D01*
X301000Y322733D01*
X300823Y322715D01*
X300801Y322708D01*
X300779Y322705D01*
X300609Y322648D01*
X300438Y322595D01*
X300419Y322584D01*
X300397Y322577D01*
X300242Y322487D01*
X300085Y322402D01*
X300068Y322387D01*
X300048Y322376D01*
X299795Y322161D01*
X299110Y321475D01*
X296869Y320547D01*
X294443Y320547D01*
X292369Y321406D01*
X292344Y321414D01*
X292320Y321426D01*
X292151Y321472D01*
X291984Y321523D01*
X291957Y321525D01*
X291931Y321532D01*
X291757Y321544D01*
X291583Y321561D01*
X291557Y321558D01*
X291530Y321560D01*
X291355Y321537D01*
X291183Y321519D01*
X291157Y321511D01*
X291131Y321508D01*
X290815Y321406D01*
X288741Y320547D01*
X286315Y320547D01*
X284241Y321406D01*
X284216Y321414D01*
X284192Y321426D01*
X284023Y321472D01*
X283856Y321523D01*
X283829Y321525D01*
X283803Y321532D01*
X283629Y321544D01*
X283455Y321561D01*
X283429Y321558D01*
X283402Y321560D01*
X283227Y321537D01*
X283055Y321519D01*
X283029Y321511D01*
X283003Y321508D01*
X282687Y321406D01*
X280613Y320547D01*
X278187Y320547D01*
X275946Y321475D01*
X274231Y323190D01*
X273303Y325431D01*
X273303Y327857D01*
X274231Y330098D01*
X275946Y331813D01*
X276295Y331957D01*
X278187Y332741D01*
X280613Y332741D01*
X282687Y331882D01*
X282712Y331874D01*
X282736Y331862D01*
X282904Y331816D01*
X283072Y331765D01*
X283099Y331763D01*
X283125Y331756D01*
X283299Y331744D01*
X283473Y331727D01*
X283499Y331730D01*
X283526Y331728D01*
X283700Y331751D01*
X283873Y331769D01*
X283899Y331777D01*
X283925Y331780D01*
X284241Y331882D01*
X286315Y332741D01*
X288741Y332741D01*
X290815Y331882D01*
X290840Y331874D01*
X290864Y331862D01*
X291032Y331816D01*
X291200Y331765D01*
X291227Y331763D01*
X291253Y331756D01*
X291427Y331744D01*
X291601Y331727D01*
X291627Y331730D01*
X291654Y331728D01*
X291828Y331751D01*
X292001Y331769D01*
X292027Y331777D01*
X292053Y331780D01*
X292369Y331882D01*
X294443Y332741D01*
X296869Y332741D01*
X296923Y332718D01*
X296944Y332712D01*
X296964Y332702D01*
X297137Y332654D01*
X297308Y332602D01*
X297331Y332600D01*
X297352Y332594D01*
X297531Y332581D01*
X297709Y332564D01*
X297731Y332566D01*
X297754Y332564D01*
X297932Y332587D01*
X298110Y332605D01*
X298131Y332612D01*
X298153Y332615D01*
X298323Y332672D01*
X298494Y332725D01*
X298513Y332736D01*
X298535Y332743D01*
X298691Y332833D01*
X298847Y332918D01*
X298864Y332933D01*
X298884Y332944D01*
X299137Y333159D01*
X299823Y333845D01*
X300169Y333988D01*
X302063Y334773D01*
X304489Y334773D01*
X304543Y334750D01*
X304564Y334744D01*
X304584Y334734D01*
X304757Y334686D01*
X304928Y334634D01*
X304950Y334632D01*
X304972Y334626D01*
X305152Y334613D01*
X305329Y334596D01*
X305351Y334598D01*
X305374Y334596D01*
X305552Y334619D01*
X305729Y334637D01*
X305751Y334644D01*
X305773Y334647D01*
X305943Y334704D01*
X306114Y334757D01*
X306133Y334768D01*
X306155Y334775D01*
X306310Y334865D01*
X306467Y334950D01*
X306484Y334965D01*
X306504Y334976D01*
X306757Y335191D01*
X308458Y336893D01*
X309641Y337383D01*
X309661Y337393D01*
X309682Y337400D01*
X309838Y337488D01*
X309996Y337573D01*
X310013Y337587D01*
X310033Y337598D01*
X310168Y337715D01*
X310307Y337829D01*
X310321Y337846D01*
X310338Y337861D01*
X310447Y338002D01*
X310560Y338142D01*
X310571Y338162D01*
X310584Y338179D01*
X310664Y338340D01*
X310747Y338498D01*
X310754Y338520D01*
X310764Y338540D01*
X310810Y338713D01*
X310860Y338885D01*
X310862Y338907D01*
X310868Y338928D01*
X310895Y339259D01*
X310895Y340049D01*
X311839Y342328D01*
X311871Y342369D01*
X311984Y342507D01*
X311995Y342526D01*
X312009Y342544D01*
X312090Y342705D01*
X312173Y342862D01*
X312179Y342884D01*
X312189Y342904D01*
X312237Y343077D01*
X312288Y343248D01*
X312290Y343271D01*
X312296Y343292D01*
X312308Y343470D01*
X312324Y343649D01*
X312322Y343672D01*
X312323Y343694D01*
X312300Y343871D01*
X312281Y344050D01*
X312274Y344071D01*
X312271Y344093D01*
X312170Y344409D01*
X311403Y346259D01*
X311403Y348685D01*
X312347Y350964D01*
X312379Y351005D01*
X312492Y351143D01*
X312503Y351162D01*
X312517Y351180D01*
X312598Y351341D01*
X312681Y351498D01*
X312687Y351520D01*
X312697Y351540D01*
X312745Y351713D01*
X312796Y351884D01*
X312798Y351907D01*
X312804Y351928D01*
X312816Y352106D01*
X312832Y352285D01*
X312830Y352308D01*
X312831Y352330D01*
X312808Y352507D01*
X312789Y352686D01*
X312782Y352707D01*
X312779Y352729D01*
X312678Y353045D01*
X311911Y354895D01*
X311911Y357321D01*
X312918Y359752D01*
X312956Y359827D01*
X313040Y359985D01*
X313046Y360007D01*
X313057Y360027D01*
X313104Y360200D01*
X313155Y360371D01*
X313157Y360394D01*
X313163Y360416D01*
X313175Y360594D01*
X313191Y360772D01*
X313189Y360795D01*
X313191Y360817D01*
X313168Y360993D01*
X313148Y361172D01*
X313141Y361194D01*
X313138Y361216D01*
X313037Y361532D01*
X312419Y363023D01*
X312419Y365449D01*
X312888Y366581D01*
X312895Y366602D01*
X312905Y366622D01*
X312953Y366794D01*
X313005Y366966D01*
X313007Y366988D01*
X313013Y367010D01*
X313026Y367189D01*
X313043Y367367D01*
X313040Y367389D01*
X313042Y367411D01*
X313020Y367589D01*
X313001Y367767D01*
X312994Y367789D01*
X312992Y367811D01*
X312935Y367981D01*
X312881Y368152D01*
X312870Y368171D01*
X312863Y368192D01*
X312774Y368348D01*
X312688Y368505D01*
X312674Y368522D01*
X312662Y368541D01*
X312448Y368794D01*
X310807Y370435D01*
X309879Y372675D01*
X309879Y375101D01*
X310646Y376951D01*
X310652Y376972D01*
X310662Y376992D01*
X310710Y377165D01*
X310762Y377336D01*
X310764Y377358D01*
X310770Y377380D01*
X310783Y377560D01*
X310800Y377737D01*
X310798Y377759D01*
X310800Y377782D01*
X310777Y377959D01*
X310759Y378138D01*
X310752Y378159D01*
X310749Y378181D01*
X310692Y378351D01*
X310639Y378522D01*
X310628Y378541D01*
X310621Y378563D01*
X310531Y378719D01*
X310446Y378875D01*
X310431Y378892D01*
X310420Y378912D01*
X310205Y379165D01*
X309791Y379579D01*
X309301Y380761D01*
X309291Y380781D01*
X309284Y380802D01*
X309196Y380958D01*
X309111Y381116D01*
X309097Y381133D01*
X309086Y381153D01*
X308969Y381288D01*
X308855Y381427D01*
X308838Y381441D01*
X308823Y381458D01*
X308682Y381567D01*
X308542Y381680D01*
X308522Y381691D01*
X308505Y381704D01*
X308344Y381784D01*
X308186Y381867D01*
X308164Y381874D01*
X308144Y381884D01*
X307971Y381930D01*
X307799Y381980D01*
X307777Y381982D01*
X307756Y381988D01*
X307425Y382015D01*
X306635Y382015D01*
X304356Y382959D01*
X304316Y382991D01*
X304177Y383104D01*
X304157Y383115D01*
X304140Y383129D01*
X303979Y383209D01*
X303821Y383293D01*
X303800Y383299D01*
X303780Y383309D01*
X303607Y383357D01*
X303435Y383408D01*
X303413Y383410D01*
X303392Y383416D01*
X303213Y383428D01*
X303034Y383444D01*
X303012Y383442D01*
X302990Y383443D01*
X302813Y383420D01*
X302634Y383401D01*
X302613Y383394D01*
X302591Y383391D01*
X302275Y383290D01*
X300425Y382523D01*
X297999Y382523D01*
X295671Y383488D01*
X295646Y383495D01*
X295622Y383507D01*
X295453Y383553D01*
X295286Y383604D01*
X295259Y383607D01*
X295233Y383614D01*
X295059Y383626D01*
X294885Y383642D01*
X294859Y383639D01*
X294832Y383641D01*
X294658Y383619D01*
X294485Y383601D01*
X294459Y383593D01*
X294433Y383589D01*
X294117Y383488D01*
X291789Y382523D01*
X289363Y382523D01*
X287035Y383488D01*
X287010Y383495D01*
X286986Y383507D01*
X286817Y383553D01*
X286650Y383604D01*
X286623Y383607D01*
X286597Y383614D01*
X286423Y383626D01*
X286249Y383642D01*
X286223Y383639D01*
X286196Y383641D01*
X286022Y383619D01*
X285849Y383601D01*
X285823Y383593D01*
X285797Y383589D01*
X285481Y383488D01*
X283153Y382523D01*
X280727Y382523D01*
X278399Y383488D01*
X278374Y383495D01*
X278350Y383507D01*
X278181Y383553D01*
X278014Y383604D01*
X277987Y383607D01*
X277961Y383614D01*
X277787Y383626D01*
X277613Y383642D01*
X277587Y383639D01*
X277560Y383641D01*
X277386Y383619D01*
X277213Y383601D01*
X277187Y383593D01*
X277161Y383589D01*
X276845Y383488D01*
X274517Y382523D01*
X272091Y382523D01*
X269811Y383468D01*
X269802Y383470D01*
X269794Y383475D01*
X269610Y383529D01*
X269425Y383584D01*
X269416Y383585D01*
X269408Y383588D01*
X269218Y383604D01*
X269025Y383622D01*
X269016Y383622D01*
X269007Y383622D01*
X268814Y383601D01*
X268624Y383581D01*
X268616Y383578D01*
X268607Y383577D01*
X268423Y383518D01*
X268240Y383461D01*
X268232Y383457D01*
X268223Y383454D01*
X268056Y383360D01*
X267887Y383268D01*
X267880Y383262D01*
X267872Y383258D01*
X267726Y383133D01*
X267578Y383009D01*
X267573Y383001D01*
X267566Y382996D01*
X267448Y382845D01*
X267327Y382694D01*
X267323Y382686D01*
X267318Y382679D01*
X267232Y382507D01*
X267144Y382336D01*
X267141Y382327D01*
X267137Y382319D01*
X267085Y382130D01*
X267034Y381948D01*
X267033Y381939D01*
X267031Y381931D01*
X267018Y381738D01*
X267003Y381547D01*
X267004Y381538D01*
X267003Y381529D01*
X267028Y381337D01*
X267051Y381147D01*
X267054Y381139D01*
X267055Y381130D01*
X267157Y380814D01*
X267209Y380689D01*
X267209Y378263D01*
X266202Y375832D01*
X266163Y375756D01*
X266080Y375598D01*
X266073Y375577D01*
X266063Y375557D01*
X266016Y375384D01*
X265965Y375212D01*
X265963Y375190D01*
X265957Y375169D01*
X265945Y374990D01*
X265929Y374811D01*
X265931Y374789D01*
X265929Y374767D01*
X265953Y374589D01*
X265972Y374411D01*
X265979Y374390D01*
X265982Y374368D01*
X266083Y374052D01*
X266701Y372561D01*
X266701Y370135D01*
X265694Y367704D01*
X265656Y367628D01*
X265572Y367470D01*
X265565Y367449D01*
X265555Y367429D01*
X265508Y367256D01*
X265457Y367084D01*
X265455Y367062D01*
X265449Y367041D01*
X265437Y366861D01*
X265421Y366683D01*
X265423Y366661D01*
X265421Y366639D01*
X265445Y366461D01*
X265464Y366283D01*
X265471Y366262D01*
X265474Y366240D01*
X265575Y365924D01*
X266193Y364433D01*
X266193Y362007D01*
X265249Y359728D01*
X265217Y359687D01*
X265104Y359549D01*
X265093Y359530D01*
X265079Y359512D01*
X264998Y359351D01*
X264915Y359194D01*
X264909Y359172D01*
X264899Y359152D01*
X264851Y358979D01*
X264800Y358808D01*
X264798Y358785D01*
X264792Y358764D01*
X264780Y358586D01*
X264764Y358407D01*
X264766Y358384D01*
X264765Y358362D01*
X264788Y358185D01*
X264807Y358006D01*
X264814Y357985D01*
X264817Y357963D01*
X264918Y357647D01*
X265685Y355797D01*
X265685Y353371D01*
X264678Y350940D01*
X264640Y350864D01*
X264556Y350706D01*
X264549Y350685D01*
X264539Y350665D01*
X264492Y350492D01*
X264441Y350320D01*
X264439Y350298D01*
X264433Y350277D01*
X264421Y350098D01*
X264405Y349919D01*
X264407Y349897D01*
X264405Y349875D01*
X264429Y349697D01*
X264448Y349519D01*
X264455Y349498D01*
X264458Y349476D01*
X264559Y349160D01*
X265177Y347669D01*
X265177Y345243D01*
X264249Y343002D01*
X262534Y341287D01*
X260293Y340359D01*
X257867Y340359D01*
X255626Y341287D01*
X253911Y343002D01*
X253211Y344693D01*
X253201Y344713D01*
X253194Y344734D01*
X253105Y344891D01*
X253021Y345048D01*
X253007Y345065D01*
X252996Y345085D01*
X252878Y345221D01*
X252764Y345359D01*
X252747Y345373D01*
X252733Y345390D01*
X252591Y345499D01*
X252452Y345612D01*
X252432Y345623D01*
X252414Y345636D01*
X252254Y345716D01*
X252095Y345799D01*
X252074Y345806D01*
X252054Y345816D01*
X251881Y345862D01*
X251709Y345912D01*
X251687Y345914D01*
X251665Y345920D01*
X251334Y345947D01*
X251263Y345947D01*
X249022Y346875D01*
X247307Y348590D01*
X246379Y350831D01*
X246379Y353257D01*
X247133Y355077D01*
X247141Y355102D01*
X247153Y355126D01*
X247199Y355295D01*
X247250Y355462D01*
X247252Y355489D01*
X247259Y355515D01*
X247271Y355689D01*
X247288Y355863D01*
X247285Y355889D01*
X247287Y355916D01*
X247264Y356091D01*
X247246Y356263D01*
X247238Y356289D01*
X247235Y356315D01*
X247133Y356631D01*
X246379Y358451D01*
X246379Y360877D01*
X247386Y363308D01*
X247424Y363384D01*
X247508Y363542D01*
X247515Y363563D01*
X247525Y363583D01*
X247572Y363756D01*
X247623Y363928D01*
X247625Y363950D01*
X247631Y363971D01*
X247643Y364150D01*
X247659Y364329D01*
X247657Y364351D01*
X247659Y364373D01*
X247635Y364551D01*
X247616Y364729D01*
X247609Y364750D01*
X247606Y364772D01*
X247505Y365088D01*
X246887Y366579D01*
X246887Y369005D01*
X247831Y371284D01*
X247863Y371324D01*
X247976Y371463D01*
X247987Y371483D01*
X248001Y371500D01*
X248081Y371661D01*
X248165Y371819D01*
X248171Y371840D01*
X248181Y371860D01*
X248229Y372033D01*
X248280Y372205D01*
X248282Y372227D01*
X248288Y372248D01*
X248300Y372427D01*
X248316Y372606D01*
X248314Y372628D01*
X248315Y372650D01*
X248292Y372827D01*
X248273Y373006D01*
X248266Y373027D01*
X248263Y373049D01*
X248162Y373365D01*
X247395Y375215D01*
X247395Y375412D01*
X247393Y375430D01*
X247395Y375448D01*
X247374Y375630D01*
X247355Y375813D01*
X247350Y375830D01*
X247348Y375847D01*
X247291Y376022D01*
X247237Y376198D01*
X247229Y376213D01*
X247223Y376230D01*
X247133Y376390D01*
X247045Y376552D01*
X247034Y376565D01*
X247025Y376581D01*
X246905Y376720D01*
X246788Y376861D01*
X246774Y376872D01*
X246762Y376886D01*
X246617Y376998D01*
X246474Y377113D01*
X246458Y377121D01*
X246444Y377132D01*
X246279Y377214D01*
X246117Y377299D01*
X246100Y377304D01*
X246084Y377312D01*
X245905Y377359D01*
X245814Y377386D01*
X243434Y378371D01*
X241719Y380086D01*
X240791Y382327D01*
X240791Y384753D01*
X241719Y386994D01*
X242164Y387438D01*
X242175Y387452D01*
X242189Y387463D01*
X242302Y387607D01*
X242419Y387749D01*
X242427Y387765D01*
X242438Y387779D01*
X242522Y387943D01*
X242607Y388105D01*
X242612Y388122D01*
X242621Y388138D01*
X242670Y388315D01*
X242722Y388491D01*
X242724Y388509D01*
X242728Y388526D01*
X242742Y388708D01*
X242758Y388892D01*
X242757Y388910D01*
X242758Y388927D01*
X242735Y389109D01*
X242715Y389292D01*
X242710Y389309D01*
X242707Y389327D01*
X242649Y389500D01*
X242594Y389676D01*
X242585Y389692D01*
X242579Y389709D01*
X242488Y389867D01*
X242399Y390028D01*
X242387Y390042D01*
X242378Y390057D01*
X242237Y390224D01*
X241299Y392487D01*
X241299Y394913D01*
X242227Y397154D01*
X243079Y398005D01*
X243087Y398015D01*
X243098Y398024D01*
X243215Y398171D01*
X243334Y398317D01*
X243340Y398328D01*
X243349Y398339D01*
X243435Y398507D01*
X243523Y398672D01*
X243526Y398685D01*
X243533Y398697D01*
X243584Y398877D01*
X243637Y399058D01*
X243639Y399072D01*
X243642Y399084D01*
X243657Y399270D01*
X243674Y399459D01*
X243672Y399473D01*
X243673Y399486D01*
X243651Y399671D01*
X243630Y399859D01*
X243626Y399872D01*
X243625Y399885D01*
X243566Y400064D01*
X243509Y400243D01*
X243502Y400255D01*
X243498Y400268D01*
X243405Y400432D01*
X243314Y400596D01*
X243305Y400606D01*
X243299Y400617D01*
X243175Y400759D01*
X243054Y400903D01*
X243043Y400911D01*
X243034Y400921D01*
X242885Y401036D01*
X242738Y401152D01*
X242726Y401158D01*
X242715Y401166D01*
X242420Y401318D01*
X241061Y401881D01*
X241036Y401888D01*
X241012Y401901D01*
X240843Y401947D01*
X240676Y401997D01*
X240649Y402000D01*
X240623Y402007D01*
X240449Y402019D01*
X240275Y402035D01*
X240249Y402033D01*
X240222Y402034D01*
X240048Y402012D01*
X239875Y401994D01*
X239849Y401986D01*
X239823Y401982D01*
X239507Y401881D01*
X236925Y400811D01*
X234499Y400811D01*
X232236Y401749D01*
X232153Y401814D01*
X232011Y401931D01*
X231995Y401939D01*
X231981Y401950D01*
X231817Y402034D01*
X231655Y402119D01*
X231638Y402124D01*
X231622Y402133D01*
X231445Y402182D01*
X231269Y402234D01*
X231251Y402236D01*
X231234Y402240D01*
X231052Y402254D01*
X230868Y402270D01*
X230850Y402269D01*
X230833Y402270D01*
X230651Y402247D01*
X230468Y402227D01*
X230451Y402222D01*
X230433Y402219D01*
X230260Y402161D01*
X230084Y402106D01*
X230068Y402097D01*
X230051Y402091D01*
X229893Y402000D01*
X229732Y401911D01*
X229718Y401899D01*
X229703Y401890D01*
X229536Y401749D01*
X227273Y400811D01*
X224847Y400811D01*
X222279Y401875D01*
X222257Y401882D01*
X222237Y401892D01*
X222065Y401940D01*
X221893Y401992D01*
X221871Y401994D01*
X221849Y402000D01*
X221670Y402013D01*
X221492Y402030D01*
X221470Y402028D01*
X221448Y402029D01*
X221269Y402007D01*
X221092Y401988D01*
X221071Y401982D01*
X221048Y401979D01*
X220879Y401922D01*
X220708Y401868D01*
X220688Y401858D01*
X220667Y401851D01*
X220512Y401761D01*
X220354Y401675D01*
X220337Y401661D01*
X220318Y401650D01*
X220065Y401435D01*
X219862Y401231D01*
X217621Y400303D01*
X215195Y400303D01*
X213704Y400921D01*
X213683Y400927D01*
X213663Y400937D01*
X213491Y400985D01*
X213319Y401037D01*
X213297Y401039D01*
X213275Y401045D01*
X213096Y401059D01*
X212918Y401075D01*
X212896Y401073D01*
X212874Y401075D01*
X212696Y401052D01*
X212518Y401034D01*
X212496Y401027D01*
X212474Y401024D01*
X212305Y400967D01*
X212133Y400914D01*
X212114Y400903D01*
X212093Y400896D01*
X211944Y400811D01*
X211685Y400703D01*
X209493Y399795D01*
X207067Y399795D01*
X204826Y400723D01*
X203657Y401893D01*
X203650Y401898D01*
X203645Y401905D01*
X203494Y402026D01*
X203346Y402148D01*
X203338Y402152D01*
X203331Y402157D01*
X203161Y402246D01*
X202990Y402336D01*
X202981Y402339D01*
X202974Y402343D01*
X202789Y402396D01*
X202604Y402451D01*
X202595Y402452D01*
X202587Y402454D01*
X202396Y402470D01*
X202203Y402488D01*
X202194Y402487D01*
X202185Y402487D01*
X201996Y402465D01*
X201803Y402444D01*
X201794Y402441D01*
X201786Y402440D01*
X201604Y402381D01*
X201419Y402323D01*
X201411Y402318D01*
X201403Y402316D01*
X201236Y402221D01*
X201067Y402128D01*
X201060Y402122D01*
X201052Y402118D01*
X200906Y401992D01*
X200760Y401867D01*
X200754Y401860D01*
X200747Y401854D01*
X200631Y401704D01*
X200510Y401551D01*
X200506Y401543D01*
X200501Y401536D01*
X200416Y401366D01*
X200328Y401192D01*
X200325Y401184D01*
X200321Y401176D01*
X200272Y400990D01*
X200220Y400805D01*
X200219Y400796D01*
X200217Y400787D01*
X200190Y400456D01*
X200190Y399595D01*
X198869Y396407D01*
X196429Y393967D01*
X193241Y392646D01*
X189791Y392646D01*
X186603Y393967D01*
X184163Y396407D01*
X182842Y399595D01*
X182842Y403045D01*
X184163Y406233D01*
X186603Y408673D01*
X189791Y409994D01*
X193241Y409994D01*
X196429Y408673D01*
X198808Y406295D01*
X198818Y406286D01*
X198827Y406276D01*
X198974Y406159D01*
X199119Y406040D01*
X199131Y406033D01*
X199142Y406025D01*
X199309Y405939D01*
X199475Y405851D01*
X199488Y405847D01*
X199500Y405841D01*
X199680Y405790D01*
X199861Y405736D01*
X199874Y405735D01*
X199887Y405731D01*
X200073Y405717D01*
X200262Y405700D01*
X200275Y405701D01*
X200289Y405700D01*
X200473Y405723D01*
X200662Y405743D01*
X200675Y405747D01*
X200688Y405749D01*
X200866Y405808D01*
X201046Y405865D01*
X201058Y405871D01*
X201070Y405875D01*
X201234Y405969D01*
X201398Y406060D01*
X201408Y406068D01*
X201420Y406075D01*
X201562Y406199D01*
X201705Y406320D01*
X201714Y406331D01*
X201724Y406339D01*
X201838Y406488D01*
X201955Y406636D01*
X201961Y406648D01*
X201969Y406659D01*
X202121Y406954D01*
X203111Y409346D01*
X204826Y411061D01*
X207067Y411989D01*
X209493Y411989D01*
X210984Y411371D01*
X211005Y411365D01*
X211025Y411355D01*
X211197Y411307D01*
X211369Y411255D01*
X211391Y411253D01*
X211413Y411247D01*
X211592Y411233D01*
X211770Y411217D01*
X211792Y411219D01*
X211814Y411217D01*
X211992Y411240D01*
X212170Y411258D01*
X212192Y411265D01*
X212214Y411268D01*
X212383Y411325D01*
X212555Y411378D01*
X212574Y411389D01*
X212595Y411396D01*
X212744Y411481D01*
X215195Y412497D01*
X217621Y412497D01*
X220189Y411433D01*
X220211Y411426D01*
X220231Y411416D01*
X220403Y411368D01*
X220575Y411316D01*
X220597Y411314D01*
X220619Y411308D01*
X220798Y411295D01*
X220976Y411278D01*
X220998Y411280D01*
X221020Y411279D01*
X221199Y411301D01*
X221376Y411320D01*
X221397Y411326D01*
X221420Y411329D01*
X221589Y411386D01*
X221760Y411440D01*
X221780Y411450D01*
X221801Y411457D01*
X221956Y411547D01*
X222114Y411633D01*
X222131Y411647D01*
X222150Y411658D01*
X222403Y411873D01*
X222606Y412077D01*
X224873Y413015D01*
X224877Y413017D01*
X224881Y413019D01*
X225054Y413112D01*
X225228Y413206D01*
X225231Y413208D01*
X225235Y413211D01*
X225384Y413335D01*
X225538Y413462D01*
X225541Y413465D01*
X225545Y413468D01*
X225667Y413621D01*
X225792Y413775D01*
X225794Y413779D01*
X225797Y413782D01*
X225887Y413955D01*
X225979Y414131D01*
X225980Y414135D01*
X225982Y414139D01*
X226036Y414327D01*
X226092Y414518D01*
X226093Y414522D01*
X226094Y414526D01*
X226110Y414721D01*
X226127Y414919D01*
X226126Y414923D01*
X226127Y414928D01*
X226104Y415122D01*
X226082Y415319D01*
X226080Y415323D01*
X226080Y415327D01*
X226019Y415513D01*
X225958Y415702D01*
X225956Y415706D01*
X225955Y415710D01*
X225858Y415882D01*
X225762Y416054D01*
X225759Y416057D01*
X225757Y416061D01*
X225629Y416209D01*
X225500Y416359D01*
X225497Y416362D01*
X225494Y416366D01*
X225339Y416486D01*
X225183Y416608D01*
X225179Y416610D01*
X225176Y416612D01*
X224998Y416701D01*
X224824Y416788D01*
X224819Y416790D01*
X224815Y416792D01*
X224623Y416843D01*
X224435Y416895D01*
X224431Y416895D01*
X224426Y416896D01*
X224096Y416923D01*
X172652Y416923D01*
X172648Y416923D01*
X172643Y416923D01*
X172449Y416903D01*
X172252Y416883D01*
X172247Y416882D01*
X172243Y416882D01*
X172055Y416823D01*
X171867Y416765D01*
X171863Y416763D01*
X171859Y416762D01*
X171684Y416666D01*
X171513Y416573D01*
X171509Y416571D01*
X171505Y416568D01*
X171352Y416440D01*
X171203Y416316D01*
X171201Y416312D01*
X171197Y416309D01*
X171072Y416153D01*
X170951Y416002D01*
X170949Y415998D01*
X170946Y415995D01*
X170854Y415814D01*
X170766Y415645D01*
X170764Y415640D01*
X170762Y415636D01*
X170708Y415446D01*
X170690Y415382D01*
X170647Y415513D01*
X170586Y415702D01*
X170584Y415706D01*
X170583Y415710D01*
X170486Y415882D01*
X170390Y416054D01*
X170387Y416057D01*
X170385Y416061D01*
X170257Y416209D01*
X170128Y416359D01*
X170125Y416362D01*
X170122Y416366D01*
X169967Y416486D01*
X169811Y416608D01*
X169807Y416610D01*
X169804Y416612D01*
X169626Y416701D01*
X169452Y416788D01*
X169447Y416790D01*
X169443Y416792D01*
X169251Y416843D01*
X169063Y416895D01*
X169059Y416895D01*
X169054Y416896D01*
X168724Y416923D01*
X82076Y416923D01*
X82050Y416921D01*
X82023Y416923D01*
X81849Y416901D01*
X81676Y416883D01*
X81650Y416876D01*
X81623Y416872D01*
X81458Y416817D01*
X81291Y416765D01*
X81267Y416752D01*
X81242Y416744D01*
X81090Y416657D01*
X80937Y416573D01*
X80916Y416556D01*
X80893Y416543D01*
X80640Y416328D01*
X3644Y339332D01*
X3627Y339311D01*
X3606Y339294D01*
X3499Y339156D01*
X3389Y339021D01*
X3379Y339003D01*
X3379Y339002D01*
X3376Y338997D01*
X3360Y338976D01*
X3282Y338819D01*
X3200Y338665D01*
X3195Y338649D01*
X3193Y338645D01*
X3191Y338636D01*
X3180Y338615D01*
X3135Y338446D01*
X3085Y338279D01*
X3084Y338265D01*
X3082Y338258D01*
X3081Y338245D01*
X3076Y338227D01*
X3049Y337896D01*
X3049Y186755D01*
X3050Y186746D01*
X3049Y186737D01*
X3070Y186546D01*
X3089Y186354D01*
X3091Y186345D01*
X3092Y186337D01*
X3150Y186153D01*
X3207Y185969D01*
X3211Y185961D01*
X3214Y185953D01*
X3307Y185784D01*
X3399Y185615D01*
X3404Y185608D01*
X3409Y185600D01*
X3534Y185453D01*
X3656Y185306D01*
X3663Y185300D01*
X3669Y185293D01*
X3821Y185173D01*
X3970Y185054D01*
X3978Y185049D01*
X3985Y185044D01*
X4158Y184956D01*
X4327Y184868D01*
X4336Y184866D01*
X4344Y184861D01*
X4530Y184810D01*
X4714Y184757D01*
X4723Y184756D01*
X4732Y184753D01*
X4924Y184739D01*
X5116Y184724D01*
X5124Y184725D01*
X5133Y184724D01*
X5325Y184748D01*
X5515Y184771D01*
X5524Y184773D01*
X5533Y184775D01*
X5714Y184836D01*
X5898Y184895D01*
X5906Y184900D01*
X5914Y184903D01*
X6080Y184998D01*
X6249Y185093D01*
X6256Y185099D01*
X6263Y185104D01*
X6516Y185318D01*
X6706Y185509D01*
X8947Y186437D01*
X11373Y186437D01*
X13614Y185509D01*
X15329Y183794D01*
X16257Y181553D01*
X16257Y179127D01*
X15329Y176886D01*
X13614Y175171D01*
X11373Y174243D01*
X8947Y174243D01*
X6706Y175171D01*
X6516Y175362D01*
X6509Y175367D01*
X6504Y175374D01*
X6354Y175495D01*
X6205Y175617D01*
X6197Y175621D01*
X6190Y175626D01*
X6020Y175715D01*
X5849Y175805D01*
X5840Y175808D01*
X5833Y175812D01*
X5648Y175865D01*
X5463Y175920D01*
X5454Y175921D01*
X5446Y175923D01*
X5253Y175939D01*
X5062Y175957D01*
X5053Y175956D01*
X5044Y175956D01*
X4855Y175934D01*
X4662Y175913D01*
X4653Y175910D01*
X4645Y175909D01*
X4461Y175849D01*
X4278Y175792D01*
X4270Y175787D01*
X4262Y175785D01*
X4093Y175689D01*
X3926Y175597D01*
X3919Y175591D01*
X3911Y175587D01*
X3766Y175461D01*
X3619Y175336D01*
X3613Y175329D01*
X3606Y175323D01*
X3489Y175172D01*
X3369Y175020D01*
X3365Y175012D01*
X3360Y175005D01*
X3274Y174833D01*
X3187Y174661D01*
X3184Y174653D01*
X3180Y174645D01*
X3130Y174457D01*
X3079Y174274D01*
X3078Y174265D01*
X3076Y174256D01*
X3049Y173925D01*
X3049Y5080D01*
X3051Y5062D01*
X3049Y5044D01*
X3070Y4862D01*
X3089Y4679D01*
X3094Y4662D01*
X3096Y4645D01*
X3153Y4470D01*
X3207Y4294D01*
X3215Y4279D01*
X3221Y4262D01*
X3311Y4102D01*
X3399Y3940D01*
X3410Y3927D01*
X3419Y3911D01*
X3539Y3772D01*
X3656Y3631D01*
X3670Y3620D01*
X3682Y3606D01*
X3827Y3494D01*
X3970Y3379D01*
X3986Y3371D01*
X4000Y3360D01*
X4165Y3278D01*
X4327Y3193D01*
X4344Y3188D01*
X4360Y3180D01*
X4539Y3133D01*
X4714Y3082D01*
X4732Y3080D01*
X4749Y3076D01*
X5080Y3049D01*
X288420Y3049D01*
X288438Y3051D01*
X288456Y3049D01*
X288638Y3070D01*
X288821Y3089D01*
X288838Y3094D01*
X288855Y3096D01*
X289030Y3153D01*
X289206Y3207D01*
X289221Y3215D01*
X289238Y3221D01*
X289398Y3311D01*
X289560Y3399D01*
X289573Y3410D01*
X289589Y3419D01*
X289728Y3539D01*
X289869Y3656D01*
X289880Y3670D01*
X289894Y3682D01*
X290006Y3827D01*
X290121Y3970D01*
X290129Y3986D01*
X290140Y4000D01*
X290222Y4165D01*
X290307Y4327D01*
X290312Y4344D01*
X290320Y4360D01*
X290367Y4539D01*
X290418Y4714D01*
X290420Y4732D01*
X290424Y4749D01*
X290451Y5080D01*
X290451Y60910D01*
X290450Y60919D01*
X290451Y60927D01*
X290431Y61118D01*
X290411Y61310D01*
X290409Y61319D01*
X290408Y61328D01*
X290350Y61511D01*
X290293Y61695D01*
X290289Y61703D01*
X290286Y61711D01*
X290193Y61880D01*
X290101Y62049D01*
X290096Y62056D01*
X290091Y62064D01*
X289967Y62210D01*
X289844Y62358D01*
X289837Y62364D01*
X289831Y62371D01*
X289680Y62490D01*
X289530Y62611D01*
X289522Y62615D01*
X289515Y62620D01*
X289342Y62708D01*
X289173Y62796D01*
X289164Y62799D01*
X289156Y62803D01*
X288969Y62855D01*
X288786Y62908D01*
X288777Y62908D01*
X288768Y62911D01*
X288576Y62925D01*
X288384Y62940D01*
X288376Y62939D01*
X288367Y62940D01*
X288175Y62916D01*
X287985Y62894D01*
X287976Y62891D01*
X287967Y62890D01*
X287785Y62828D01*
X287602Y62769D01*
X287594Y62764D01*
X287586Y62761D01*
X287418Y62665D01*
X287251Y62571D01*
X287244Y62565D01*
X287237Y62561D01*
X286984Y62346D01*
X286713Y62075D01*
X282792Y60451D01*
X278548Y60451D01*
X274627Y62075D01*
X271625Y65077D01*
X270001Y68998D01*
X270001Y73242D01*
X271625Y77163D01*
X274627Y80165D01*
X278548Y81789D01*
X282792Y81789D01*
X286713Y80165D01*
X286984Y79894D01*
X286991Y79888D01*
X286996Y79882D01*
X287146Y79761D01*
X287295Y79639D01*
X287303Y79635D01*
X287310Y79629D01*
X287480Y79541D01*
X287651Y79450D01*
X287660Y79448D01*
X287667Y79444D01*
X287851Y79391D01*
X288037Y79336D01*
X288046Y79335D01*
X288054Y79332D01*
X288245Y79317D01*
X288438Y79299D01*
X288447Y79300D01*
X288456Y79300D01*
X288645Y79322D01*
X288838Y79343D01*
X288847Y79345D01*
X288855Y79346D01*
X289038Y79406D01*
X289222Y79464D01*
X289230Y79468D01*
X289238Y79471D01*
X289407Y79566D01*
X289574Y79659D01*
X289581Y79665D01*
X289589Y79669D01*
X289734Y79795D01*
X289881Y79919D01*
X289887Y79927D01*
X289894Y79932D01*
X290009Y80082D01*
X290131Y80235D01*
X290135Y80243D01*
X290140Y80250D01*
X290226Y80423D01*
X290313Y80594D01*
X290316Y80603D01*
X290320Y80611D01*
X290370Y80799D01*
X290421Y80982D01*
X290422Y80991D01*
X290424Y81000D01*
X290451Y81330D01*
X290451Y101263D01*
X292237Y103049D01*
X709582Y103049D01*
X709595Y103050D01*
X709609Y103049D01*
X709795Y103070D01*
X709983Y103089D01*
X709995Y103093D01*
X710009Y103094D01*
X710188Y103152D01*
X710367Y103207D01*
X710379Y103213D01*
X710392Y103217D01*
X710557Y103309D01*
X710721Y103399D01*
X710732Y103407D01*
X710743Y103414D01*
X710886Y103536D01*
X711031Y103656D01*
X711039Y103667D01*
X711049Y103675D01*
X711165Y103823D01*
X711283Y103970D01*
X711289Y103982D01*
X711298Y103992D01*
X711382Y104161D01*
X711469Y104327D01*
X711472Y104340D01*
X711478Y104352D01*
X711528Y104533D01*
X711580Y104714D01*
X711581Y104728D01*
X711585Y104741D01*
X711598Y104929D01*
X711613Y105116D01*
X711611Y105129D01*
X711612Y105142D01*
X711588Y105330D01*
X711566Y105515D01*
X711562Y105528D01*
X711560Y105541D01*
X711459Y105857D01*
X711199Y106483D01*
X711199Y108909D01*
X712127Y111150D01*
X713842Y112865D01*
X716083Y113793D01*
X718509Y113793D01*
X720750Y112865D01*
X722465Y111150D01*
X723393Y108909D01*
X723393Y106483D01*
X723133Y105857D01*
X723130Y105844D01*
X723123Y105833D01*
X723072Y105653D01*
X723017Y105472D01*
X723016Y105459D01*
X723012Y105446D01*
X722997Y105258D01*
X722979Y105071D01*
X722980Y105058D01*
X722979Y105044D01*
X723001Y104857D01*
X723021Y104671D01*
X723024Y104658D01*
X723026Y104645D01*
X723085Y104465D01*
X723140Y104286D01*
X723147Y104275D01*
X723151Y104262D01*
X723244Y104097D01*
X723334Y103933D01*
X723342Y103923D01*
X723349Y103911D01*
X723472Y103769D01*
X723593Y103625D01*
X723603Y103617D01*
X723612Y103606D01*
X723760Y103491D01*
X723908Y103374D01*
X723919Y103368D01*
X723930Y103360D01*
X724099Y103276D01*
X724266Y103190D01*
X724279Y103186D01*
X724291Y103180D01*
X724473Y103131D01*
X724653Y103080D01*
X724666Y103079D01*
X724679Y103076D01*
X725010Y103049D01*
X749363Y103049D01*
X751149Y101263D01*
X751149Y-81020D01*
X751150Y-81034D01*
X751149Y-81047D01*
X751170Y-81234D01*
X751189Y-81421D01*
X751193Y-81434D01*
X751194Y-81447D01*
X751251Y-81626D01*
X751307Y-81806D01*
X751313Y-81818D01*
X751317Y-81830D01*
X751409Y-81994D01*
X751499Y-82160D01*
X751507Y-82170D01*
X751514Y-82182D01*
X751636Y-82325D01*
X751756Y-82469D01*
X751767Y-82478D01*
X751776Y-82488D01*
X751923Y-82603D01*
X752070Y-82721D01*
X752082Y-82728D01*
X752093Y-82736D01*
X752261Y-82820D01*
X752427Y-82907D01*
X752440Y-82911D01*
X752452Y-82917D01*
X752633Y-82966D01*
X752814Y-83018D01*
X752828Y-83019D01*
X752841Y-83023D01*
X753027Y-83036D01*
X753216Y-83051D01*
X753229Y-83050D01*
X753242Y-83051D01*
X753428Y-83026D01*
X753615Y-83004D01*
X753628Y-83000D01*
X753641Y-82998D01*
X753957Y-82897D01*
X754183Y-82803D01*
X756609Y-82803D01*
X758850Y-83731D01*
X760565Y-85446D01*
X761493Y-87687D01*
X761493Y-90113D01*
X760565Y-92354D01*
X758850Y-94069D01*
X756609Y-94997D01*
X754183Y-94997D01*
X753957Y-94903D01*
X753944Y-94899D01*
X753933Y-94893D01*
X753752Y-94841D01*
X753572Y-94787D01*
X753559Y-94785D01*
X753546Y-94782D01*
X753358Y-94766D01*
X753171Y-94749D01*
X753158Y-94750D01*
X753144Y-94749D01*
X752957Y-94771D01*
X752771Y-94790D01*
X752758Y-94794D01*
X752745Y-94796D01*
X752565Y-94854D01*
X752386Y-94910D01*
X752375Y-94916D01*
X752362Y-94921D01*
X752198Y-95013D01*
X752033Y-95103D01*
X752023Y-95112D01*
X752011Y-95118D01*
X751869Y-95241D01*
X751725Y-95362D01*
X751717Y-95373D01*
X751706Y-95382D01*
X751592Y-95529D01*
X751474Y-95677D01*
X751468Y-95689D01*
X751460Y-95700D01*
X751376Y-95867D01*
X751290Y-96035D01*
X751286Y-96048D01*
X751280Y-96060D01*
X751231Y-96242D01*
X751180Y-96423D01*
X751179Y-96436D01*
X751176Y-96449D01*
X751149Y-96780D01*
X751149Y-104920D01*
X751151Y-104938D01*
X751149Y-104956D01*
X751170Y-105138D01*
X751189Y-105321D01*
X751194Y-105338D01*
X751196Y-105355D01*
X751253Y-105530D01*
X751307Y-105706D01*
X751315Y-105721D01*
X751321Y-105738D01*
X751411Y-105898D01*
X751499Y-106060D01*
X751510Y-106073D01*
X751519Y-106089D01*
X751639Y-106228D01*
X751756Y-106369D01*
X751770Y-106380D01*
X751782Y-106394D01*
X751927Y-106506D01*
X752070Y-106621D01*
X752086Y-106629D01*
X752100Y-106640D01*
X752265Y-106722D01*
X752427Y-106807D01*
X752444Y-106812D01*
X752460Y-106820D01*
X752639Y-106867D01*
X752814Y-106918D01*
X752832Y-106920D01*
X752849Y-106924D01*
X753180Y-106951D01*
X954920Y-106951D01*
X954938Y-106949D01*
G37*
%LPC*%
G36*
X103943Y349503D02*
X103943Y349503D01*
X101703Y350431D01*
X101140Y350994D01*
X101123Y351008D01*
X101108Y351025D01*
X100967Y351136D01*
X100828Y351249D01*
X100809Y351260D01*
X100791Y351273D01*
X100632Y351354D01*
X100473Y351438D01*
X100451Y351444D01*
X100431Y351454D01*
X100259Y351501D01*
X100087Y351553D01*
X100064Y351555D01*
X100043Y351561D01*
X99864Y351573D01*
X99686Y351589D01*
X99664Y351587D01*
X99641Y351588D01*
X99463Y351565D01*
X99285Y351546D01*
X99264Y351539D01*
X99242Y351536D01*
X98926Y351434D01*
X96717Y350519D01*
X94291Y350519D01*
X92050Y351447D01*
X90335Y353162D01*
X89407Y355403D01*
X89407Y357829D01*
X90335Y360070D01*
X91034Y360768D01*
X91045Y360782D01*
X91059Y360793D01*
X91172Y360937D01*
X91289Y361079D01*
X91297Y361095D01*
X91308Y361109D01*
X91392Y361273D01*
X91477Y361435D01*
X91482Y361452D01*
X91491Y361468D01*
X91540Y361645D01*
X91592Y361821D01*
X91594Y361839D01*
X91598Y361856D01*
X91612Y362039D01*
X91628Y362222D01*
X91627Y362240D01*
X91628Y362257D01*
X91605Y362439D01*
X91585Y362622D01*
X91580Y362639D01*
X91577Y362657D01*
X91519Y362830D01*
X91464Y363006D01*
X91455Y363022D01*
X91449Y363039D01*
X91358Y363197D01*
X91269Y363358D01*
X91257Y363372D01*
X91248Y363387D01*
X91034Y363640D01*
X90843Y363830D01*
X89915Y366071D01*
X89915Y368497D01*
X90853Y370760D01*
X90918Y370843D01*
X91035Y370985D01*
X91043Y371001D01*
X91054Y371015D01*
X91138Y371179D01*
X91223Y371341D01*
X91228Y371358D01*
X91237Y371374D01*
X91286Y371551D01*
X91338Y371727D01*
X91340Y371745D01*
X91344Y371762D01*
X91358Y371944D01*
X91374Y372128D01*
X91373Y372146D01*
X91374Y372163D01*
X91351Y372345D01*
X91331Y372528D01*
X91326Y372545D01*
X91323Y372563D01*
X91265Y372736D01*
X91210Y372912D01*
X91201Y372928D01*
X91195Y372945D01*
X91104Y373103D01*
X91015Y373264D01*
X91003Y373278D01*
X90994Y373293D01*
X90853Y373460D01*
X89915Y375723D01*
X89915Y378149D01*
X90843Y380390D01*
X92558Y382105D01*
X94088Y382738D01*
X94799Y383033D01*
X94996Y383033D01*
X95014Y383035D01*
X95032Y383033D01*
X95214Y383054D01*
X95397Y383073D01*
X95414Y383078D01*
X95431Y383080D01*
X95606Y383137D01*
X95782Y383191D01*
X95797Y383199D01*
X95814Y383205D01*
X95974Y383295D01*
X96136Y383383D01*
X96149Y383394D01*
X96165Y383403D01*
X96304Y383523D01*
X96445Y383640D01*
X96456Y383654D01*
X96470Y383666D01*
X96582Y383811D01*
X96697Y383954D01*
X96705Y383970D01*
X96716Y383984D01*
X96798Y384149D01*
X96883Y384311D01*
X96888Y384328D01*
X96896Y384344D01*
X96943Y384523D01*
X96994Y384698D01*
X96996Y384716D01*
X97000Y384733D01*
X97027Y385064D01*
X97027Y386277D01*
X97955Y388518D01*
X99670Y390233D01*
X101911Y391161D01*
X103632Y391161D01*
X103650Y391163D01*
X103668Y391161D01*
X103850Y391182D01*
X104033Y391201D01*
X104050Y391206D01*
X104067Y391208D01*
X104242Y391265D01*
X104418Y391319D01*
X104433Y391327D01*
X104450Y391333D01*
X104610Y391423D01*
X104772Y391511D01*
X104785Y391522D01*
X104801Y391531D01*
X104940Y391651D01*
X105081Y391768D01*
X105092Y391782D01*
X105106Y391794D01*
X105218Y391939D01*
X105333Y392082D01*
X105341Y392098D01*
X105352Y392112D01*
X105434Y392277D01*
X105519Y392439D01*
X105524Y392456D01*
X105532Y392472D01*
X105579Y392651D01*
X105630Y392826D01*
X105632Y392844D01*
X105636Y392861D01*
X105663Y393192D01*
X105663Y395421D01*
X106591Y397662D01*
X108306Y399377D01*
X110881Y400443D01*
X110905Y400456D01*
X110930Y400464D01*
X111082Y400550D01*
X111236Y400633D01*
X111256Y400650D01*
X111280Y400663D01*
X111412Y400778D01*
X111546Y400890D01*
X111563Y400910D01*
X111583Y400928D01*
X111690Y401066D01*
X111800Y401202D01*
X111812Y401226D01*
X111829Y401247D01*
X111980Y401542D01*
X112687Y403250D01*
X114402Y404965D01*
X114685Y405082D01*
X114686Y405082D01*
X116643Y405893D01*
X116714Y405893D01*
X116737Y405895D01*
X116759Y405893D01*
X116936Y405915D01*
X117115Y405933D01*
X117136Y405939D01*
X117159Y405942D01*
X117328Y405998D01*
X117500Y406051D01*
X117520Y406061D01*
X117541Y406068D01*
X117697Y406157D01*
X117854Y406243D01*
X117871Y406257D01*
X117890Y406268D01*
X118026Y406386D01*
X118163Y406500D01*
X118177Y406518D01*
X118194Y406532D01*
X118304Y406675D01*
X118416Y406814D01*
X118426Y406834D01*
X118439Y406851D01*
X118591Y407147D01*
X119291Y408838D01*
X121006Y410553D01*
X123247Y411481D01*
X125673Y411481D01*
X128001Y410516D01*
X128026Y410509D01*
X128050Y410497D01*
X128218Y410451D01*
X128386Y410400D01*
X128413Y410397D01*
X128439Y410390D01*
X128613Y410378D01*
X128787Y410362D01*
X128813Y410365D01*
X128840Y410363D01*
X129014Y410385D01*
X129187Y410403D01*
X129213Y410411D01*
X129239Y410415D01*
X129555Y410516D01*
X131883Y411481D01*
X134309Y411481D01*
X136550Y410553D01*
X138010Y409092D01*
X138024Y409081D01*
X138035Y409067D01*
X138179Y408953D01*
X138321Y408837D01*
X138337Y408829D01*
X138351Y408818D01*
X138515Y408735D01*
X138677Y408649D01*
X138694Y408644D01*
X138710Y408636D01*
X138887Y408586D01*
X139063Y408534D01*
X139081Y408532D01*
X139098Y408528D01*
X139281Y408514D01*
X139464Y408498D01*
X139482Y408499D01*
X139499Y408498D01*
X139681Y408521D01*
X139864Y408541D01*
X139881Y408546D01*
X139899Y408549D01*
X140073Y408607D01*
X140248Y408662D01*
X140264Y408671D01*
X140280Y408677D01*
X140439Y408768D01*
X140600Y408857D01*
X140614Y408869D01*
X140629Y408878D01*
X140882Y409092D01*
X142851Y411061D01*
X145091Y411989D01*
X147517Y411989D01*
X149757Y411061D01*
X150456Y410362D01*
X150469Y410351D01*
X150481Y410337D01*
X150625Y410224D01*
X150767Y410107D01*
X150783Y410099D01*
X150797Y410088D01*
X150961Y410005D01*
X151123Y409919D01*
X151140Y409914D01*
X151156Y409906D01*
X151333Y409856D01*
X151509Y409804D01*
X151527Y409802D01*
X151544Y409798D01*
X151727Y409784D01*
X151910Y409768D01*
X151928Y409769D01*
X151945Y409768D01*
X152127Y409791D01*
X152310Y409811D01*
X152327Y409816D01*
X152345Y409819D01*
X152518Y409877D01*
X152694Y409932D01*
X152710Y409941D01*
X152726Y409947D01*
X152885Y410038D01*
X153046Y410127D01*
X153060Y410139D01*
X153075Y410148D01*
X153328Y410362D01*
X154534Y411569D01*
X156775Y412497D01*
X159201Y412497D01*
X161442Y411569D01*
X162648Y410362D01*
X162661Y410351D01*
X162673Y410337D01*
X162818Y410223D01*
X162959Y410107D01*
X162975Y410099D01*
X162989Y410088D01*
X163153Y410005D01*
X163315Y409919D01*
X163332Y409914D01*
X163348Y409906D01*
X163525Y409856D01*
X163701Y409804D01*
X163719Y409802D01*
X163736Y409798D01*
X163919Y409784D01*
X164102Y409768D01*
X164120Y409769D01*
X164137Y409768D01*
X164319Y409791D01*
X164502Y409811D01*
X164519Y409816D01*
X164537Y409819D01*
X164710Y409877D01*
X164886Y409932D01*
X164902Y409941D01*
X164918Y409947D01*
X165077Y410038D01*
X165238Y410127D01*
X165252Y410139D01*
X165267Y410148D01*
X165520Y410362D01*
X167234Y412077D01*
X169501Y413015D01*
X169505Y413017D01*
X169509Y413019D01*
X169682Y413112D01*
X169856Y413206D01*
X169859Y413208D01*
X169863Y413211D01*
X170012Y413335D01*
X170166Y413462D01*
X170169Y413465D01*
X170173Y413468D01*
X170295Y413621D01*
X170420Y413775D01*
X170422Y413779D01*
X170425Y413782D01*
X170515Y413955D01*
X170607Y414131D01*
X170608Y414135D01*
X170610Y414139D01*
X170664Y414327D01*
X170686Y414400D01*
X170732Y414262D01*
X170793Y414074D01*
X170795Y414070D01*
X170797Y414066D01*
X170894Y413895D01*
X170991Y413723D01*
X170994Y413720D01*
X170996Y413716D01*
X171124Y413569D01*
X171254Y413419D01*
X171258Y413416D01*
X171261Y413412D01*
X171418Y413292D01*
X171572Y413172D01*
X171576Y413170D01*
X171580Y413167D01*
X171875Y413015D01*
X174142Y412077D01*
X175857Y410362D01*
X176785Y408121D01*
X176785Y405695D01*
X175857Y403454D01*
X174142Y401739D01*
X171901Y400811D01*
X169475Y400811D01*
X167234Y401739D01*
X166028Y402946D01*
X166014Y402957D01*
X166003Y402971D01*
X165859Y403085D01*
X165717Y403201D01*
X165701Y403209D01*
X165687Y403220D01*
X165523Y403303D01*
X165361Y403389D01*
X165344Y403394D01*
X165328Y403402D01*
X165151Y403452D01*
X164975Y403504D01*
X164957Y403506D01*
X164940Y403510D01*
X164757Y403524D01*
X164574Y403540D01*
X164556Y403539D01*
X164539Y403540D01*
X164357Y403517D01*
X164174Y403497D01*
X164157Y403492D01*
X164139Y403489D01*
X163965Y403431D01*
X163790Y403376D01*
X163774Y403367D01*
X163758Y403361D01*
X163599Y403270D01*
X163438Y403181D01*
X163424Y403169D01*
X163409Y403160D01*
X163156Y402946D01*
X161441Y401231D01*
X159201Y400303D01*
X156775Y400303D01*
X154534Y401231D01*
X153836Y401930D01*
X153822Y401941D01*
X153811Y401955D01*
X153667Y402069D01*
X153525Y402185D01*
X153509Y402193D01*
X153495Y402204D01*
X153331Y402287D01*
X153169Y402373D01*
X153152Y402378D01*
X153136Y402386D01*
X152959Y402436D01*
X152783Y402488D01*
X152765Y402490D01*
X152748Y402494D01*
X152565Y402508D01*
X152382Y402524D01*
X152364Y402523D01*
X152347Y402524D01*
X152165Y402501D01*
X151982Y402481D01*
X151965Y402476D01*
X151947Y402473D01*
X151773Y402415D01*
X151598Y402360D01*
X151582Y402351D01*
X151566Y402345D01*
X151407Y402254D01*
X151246Y402165D01*
X151232Y402153D01*
X151217Y402144D01*
X150964Y401930D01*
X149758Y400723D01*
X149709Y400703D01*
X147517Y399795D01*
X145091Y399795D01*
X142851Y400723D01*
X141390Y402184D01*
X141377Y402195D01*
X141365Y402209D01*
X141221Y402322D01*
X141079Y402439D01*
X141063Y402447D01*
X141049Y402458D01*
X140885Y402541D01*
X140723Y402627D01*
X140706Y402632D01*
X140690Y402640D01*
X140513Y402690D01*
X140337Y402742D01*
X140319Y402744D01*
X140302Y402748D01*
X140119Y402762D01*
X139936Y402778D01*
X139918Y402777D01*
X139901Y402778D01*
X139719Y402755D01*
X139536Y402735D01*
X139519Y402730D01*
X139501Y402727D01*
X139328Y402669D01*
X139152Y402614D01*
X139136Y402605D01*
X139120Y402599D01*
X138961Y402508D01*
X138800Y402419D01*
X138786Y402407D01*
X138771Y402398D01*
X138518Y402184D01*
X136550Y400215D01*
X134309Y399287D01*
X131883Y399287D01*
X129555Y400252D01*
X129530Y400259D01*
X129506Y400271D01*
X129337Y400317D01*
X129170Y400368D01*
X129143Y400371D01*
X129117Y400378D01*
X128943Y400390D01*
X128769Y400406D01*
X128743Y400403D01*
X128716Y400405D01*
X128542Y400383D01*
X128369Y400365D01*
X128343Y400357D01*
X128317Y400353D01*
X128001Y400252D01*
X125673Y399287D01*
X125602Y399287D01*
X125579Y399285D01*
X125557Y399287D01*
X125380Y399265D01*
X125201Y399247D01*
X125180Y399241D01*
X125157Y399238D01*
X124988Y399182D01*
X124816Y399129D01*
X124796Y399119D01*
X124775Y399112D01*
X124620Y399023D01*
X124462Y398937D01*
X124445Y398923D01*
X124425Y398912D01*
X124290Y398794D01*
X124153Y398680D01*
X124139Y398662D01*
X124122Y398648D01*
X124013Y398506D01*
X123900Y398366D01*
X123890Y398346D01*
X123876Y398328D01*
X123725Y398033D01*
X123025Y396342D01*
X121310Y394627D01*
X121266Y394610D01*
X121266Y394609D01*
X118735Y393561D01*
X118711Y393548D01*
X118686Y393540D01*
X118534Y393454D01*
X118380Y393371D01*
X118360Y393354D01*
X118336Y393341D01*
X118204Y393226D01*
X118070Y393114D01*
X118053Y393094D01*
X118033Y393076D01*
X117926Y392938D01*
X117816Y392802D01*
X117804Y392778D01*
X117787Y392757D01*
X117636Y392462D01*
X116929Y390754D01*
X115214Y389039D01*
X112973Y388111D01*
X111252Y388111D01*
X111234Y388109D01*
X111216Y388111D01*
X111034Y388090D01*
X110851Y388071D01*
X110834Y388066D01*
X110817Y388064D01*
X110642Y388007D01*
X110466Y387953D01*
X110451Y387945D01*
X110434Y387939D01*
X110274Y387849D01*
X110112Y387761D01*
X110099Y387750D01*
X110083Y387741D01*
X109944Y387621D01*
X109803Y387504D01*
X109792Y387490D01*
X109778Y387478D01*
X109666Y387333D01*
X109551Y387190D01*
X109543Y387174D01*
X109532Y387160D01*
X109449Y386994D01*
X109365Y386833D01*
X109360Y386816D01*
X109352Y386800D01*
X109305Y386621D01*
X109254Y386446D01*
X109252Y386428D01*
X109248Y386411D01*
X109221Y386080D01*
X109221Y383851D01*
X108293Y381610D01*
X106578Y379895D01*
X104337Y378967D01*
X104140Y378967D01*
X104122Y378965D01*
X104104Y378967D01*
X103922Y378946D01*
X103739Y378927D01*
X103722Y378922D01*
X103705Y378920D01*
X103530Y378863D01*
X103354Y378809D01*
X103339Y378801D01*
X103322Y378795D01*
X103162Y378705D01*
X103000Y378617D01*
X102987Y378606D01*
X102971Y378597D01*
X102832Y378477D01*
X102691Y378360D01*
X102680Y378346D01*
X102666Y378334D01*
X102554Y378189D01*
X102439Y378046D01*
X102431Y378030D01*
X102420Y378016D01*
X102338Y377851D01*
X102253Y377689D01*
X102248Y377672D01*
X102240Y377656D01*
X102193Y377477D01*
X102142Y377302D01*
X102140Y377284D01*
X102136Y377267D01*
X102109Y376936D01*
X102109Y375723D01*
X101171Y373460D01*
X101106Y373377D01*
X100989Y373235D01*
X100981Y373219D01*
X100970Y373205D01*
X100887Y373042D01*
X100801Y372879D01*
X100796Y372862D01*
X100788Y372846D01*
X100738Y372669D01*
X100686Y372493D01*
X100684Y372476D01*
X100680Y372458D01*
X100666Y372275D01*
X100650Y372092D01*
X100651Y372075D01*
X100650Y372057D01*
X100673Y371874D01*
X100693Y371692D01*
X100698Y371675D01*
X100701Y371657D01*
X100759Y371483D01*
X100814Y371308D01*
X100823Y371293D01*
X100829Y371276D01*
X100920Y371116D01*
X101009Y370956D01*
X101021Y370942D01*
X101030Y370927D01*
X101171Y370760D01*
X102109Y368497D01*
X102109Y366071D01*
X101418Y364404D01*
X101416Y364395D01*
X101411Y364388D01*
X101357Y364202D01*
X101302Y364019D01*
X101301Y364010D01*
X101298Y364001D01*
X101282Y363809D01*
X101264Y363618D01*
X101264Y363609D01*
X101264Y363600D01*
X101285Y363410D01*
X101305Y363217D01*
X101308Y363209D01*
X101309Y363200D01*
X101367Y363018D01*
X101425Y362833D01*
X101429Y362825D01*
X101432Y362817D01*
X101525Y362650D01*
X101618Y362480D01*
X101624Y362473D01*
X101628Y362465D01*
X101753Y362319D01*
X101877Y362172D01*
X101884Y362166D01*
X101890Y362159D01*
X102041Y362041D01*
X102192Y361921D01*
X102200Y361917D01*
X102207Y361911D01*
X102377Y361826D01*
X102550Y361737D01*
X102559Y361734D01*
X102567Y361730D01*
X102753Y361679D01*
X102938Y361627D01*
X102947Y361626D01*
X102955Y361624D01*
X103148Y361611D01*
X103339Y361596D01*
X103348Y361597D01*
X103357Y361596D01*
X103547Y361621D01*
X103739Y361645D01*
X103747Y361647D01*
X103756Y361649D01*
X103906Y361697D01*
X106369Y361697D01*
X107723Y361136D01*
X107740Y361130D01*
X107756Y361122D01*
X107932Y361073D01*
X108108Y361019D01*
X108126Y361018D01*
X108143Y361013D01*
X108326Y360999D01*
X108509Y360981D01*
X108527Y360983D01*
X108545Y360982D01*
X108726Y361004D01*
X108910Y361023D01*
X108927Y361028D01*
X108945Y361030D01*
X109117Y361087D01*
X109294Y361143D01*
X109310Y361151D01*
X109327Y361157D01*
X109486Y361248D01*
X109647Y361336D01*
X109661Y361347D01*
X109677Y361356D01*
X109815Y361477D01*
X109955Y361595D01*
X109967Y361609D01*
X109980Y361621D01*
X110092Y361767D01*
X110206Y361910D01*
X110215Y361926D01*
X110225Y361940D01*
X110377Y362235D01*
X111163Y364134D01*
X112878Y365849D01*
X115119Y366777D01*
X116504Y366777D01*
X116526Y366779D01*
X116548Y366777D01*
X116726Y366799D01*
X116905Y366817D01*
X116926Y366823D01*
X116948Y366826D01*
X117117Y366882D01*
X117290Y366935D01*
X117309Y366945D01*
X117330Y366952D01*
X117486Y367041D01*
X117644Y367127D01*
X117661Y367141D01*
X117680Y367152D01*
X117816Y367270D01*
X117953Y367384D01*
X117967Y367402D01*
X117984Y367416D01*
X118093Y367558D01*
X118205Y367698D01*
X118215Y367718D01*
X118229Y367736D01*
X118381Y368031D01*
X119291Y370230D01*
X121006Y371945D01*
X123247Y372873D01*
X125673Y372873D01*
X127914Y371945D01*
X129629Y370230D01*
X130557Y367989D01*
X130557Y365563D01*
X129629Y363322D01*
X127914Y361607D01*
X125673Y360679D01*
X124288Y360679D01*
X124266Y360677D01*
X124244Y360679D01*
X124066Y360657D01*
X123887Y360639D01*
X123866Y360633D01*
X123844Y360630D01*
X123675Y360574D01*
X123502Y360521D01*
X123483Y360511D01*
X123462Y360504D01*
X123306Y360415D01*
X123148Y360329D01*
X123131Y360315D01*
X123112Y360304D01*
X122976Y360186D01*
X122839Y360072D01*
X122825Y360054D01*
X122808Y360040D01*
X122699Y359898D01*
X122587Y359758D01*
X122577Y359738D01*
X122563Y359720D01*
X122411Y359425D01*
X121501Y357226D01*
X119786Y355511D01*
X117545Y354583D01*
X115119Y354583D01*
X113765Y355144D01*
X113748Y355149D01*
X113732Y355158D01*
X113555Y355208D01*
X113379Y355261D01*
X113362Y355262D01*
X113345Y355267D01*
X113162Y355281D01*
X112979Y355299D01*
X112961Y355297D01*
X112943Y355298D01*
X112761Y355276D01*
X112578Y355257D01*
X112561Y355252D01*
X112543Y355250D01*
X112369Y355192D01*
X112194Y355137D01*
X112178Y355129D01*
X112161Y355123D01*
X112002Y355032D01*
X111841Y354944D01*
X111827Y354933D01*
X111811Y354924D01*
X111673Y354803D01*
X111533Y354685D01*
X111521Y354671D01*
X111508Y354659D01*
X111396Y354514D01*
X111282Y354370D01*
X111273Y354354D01*
X111262Y354340D01*
X111111Y354045D01*
X110325Y352146D01*
X108610Y350431D01*
X107380Y349922D01*
X106369Y349503D01*
X103943Y349503D01*
G37*
%LPD*%
%LPC*%
G36*
X585315Y345691D02*
X585315Y345691D01*
X578284Y348603D01*
X572903Y353984D01*
X569991Y361015D01*
X569991Y368625D01*
X572903Y375656D01*
X578284Y381037D01*
X585315Y383949D01*
X592925Y383949D01*
X599956Y381037D01*
X605337Y375656D01*
X608279Y368553D01*
X608289Y368453D01*
X608290Y368449D01*
X608290Y368444D01*
X608348Y368258D01*
X608407Y368068D01*
X608409Y368064D01*
X608410Y368060D01*
X608504Y367888D01*
X608599Y367714D01*
X608601Y367711D01*
X608604Y367707D01*
X608733Y367553D01*
X608856Y367405D01*
X608860Y367402D01*
X608863Y367398D01*
X609017Y367275D01*
X609170Y367152D01*
X609174Y367150D01*
X609177Y367148D01*
X609352Y367058D01*
X609527Y366967D01*
X609532Y366966D01*
X609536Y366964D01*
X609723Y366911D01*
X609914Y366855D01*
X609919Y366855D01*
X609923Y366854D01*
X610116Y366839D01*
X610316Y366823D01*
X610320Y366823D01*
X610324Y366823D01*
X610518Y366846D01*
X610715Y366870D01*
X610720Y366871D01*
X610724Y366871D01*
X610909Y366933D01*
X611098Y366994D01*
X611102Y366997D01*
X611106Y366998D01*
X611278Y367096D01*
X611449Y367192D01*
X611452Y367195D01*
X611456Y367197D01*
X611607Y367329D01*
X611753Y367455D01*
X611756Y367459D01*
X611760Y367462D01*
X611880Y367618D01*
X612000Y367774D01*
X612002Y367778D01*
X612005Y367781D01*
X612157Y368076D01*
X613658Y371702D01*
X616231Y374275D01*
X619592Y375667D01*
X623230Y375667D01*
X626591Y374275D01*
X629164Y371702D01*
X630556Y368341D01*
X630556Y364703D01*
X629164Y361342D01*
X626591Y358769D01*
X623230Y357377D01*
X619592Y357377D01*
X616231Y358769D01*
X613658Y361342D01*
X612157Y364968D01*
X612155Y364972D01*
X612153Y364976D01*
X612061Y365145D01*
X611966Y365323D01*
X611964Y365326D01*
X611961Y365330D01*
X611838Y365478D01*
X611710Y365633D01*
X611707Y365636D01*
X611704Y365639D01*
X611551Y365762D01*
X611397Y365887D01*
X611393Y365889D01*
X611390Y365892D01*
X611215Y365982D01*
X611041Y366074D01*
X611037Y366075D01*
X611033Y366077D01*
X610843Y366132D01*
X610654Y366187D01*
X610650Y366187D01*
X610646Y366189D01*
X610448Y366205D01*
X610253Y366222D01*
X610249Y366221D01*
X610244Y366221D01*
X610050Y366199D01*
X609853Y366176D01*
X609849Y366175D01*
X609845Y366174D01*
X609659Y366114D01*
X609470Y366053D01*
X609466Y366051D01*
X609462Y366050D01*
X609289Y365952D01*
X609118Y365857D01*
X609115Y365854D01*
X609111Y365852D01*
X608961Y365722D01*
X608813Y365595D01*
X608810Y365591D01*
X608806Y365589D01*
X608686Y365434D01*
X608564Y365278D01*
X608562Y365274D01*
X608560Y365270D01*
X608471Y365093D01*
X608384Y364918D01*
X608382Y364914D01*
X608380Y364910D01*
X608327Y364713D01*
X608277Y364530D01*
X608277Y364525D01*
X608276Y364521D01*
X608249Y364190D01*
X608249Y361015D01*
X605337Y353984D01*
X599956Y348603D01*
X598235Y347891D01*
X592925Y345691D01*
X585315Y345691D01*
G37*
%LPD*%
%LPC*%
G36*
X856109Y89681D02*
X856109Y89681D01*
X848921Y92659D01*
X843419Y98161D01*
X840441Y105349D01*
X840441Y113131D01*
X843419Y120319D01*
X848921Y125821D01*
X851285Y126801D01*
X851286Y126801D01*
X856109Y128799D01*
X858435Y128799D01*
X858444Y128800D01*
X858453Y128799D01*
X858645Y128820D01*
X858836Y128839D01*
X858845Y128841D01*
X858853Y128842D01*
X859036Y128900D01*
X859221Y128957D01*
X859229Y128961D01*
X859237Y128964D01*
X859406Y129057D01*
X859575Y129149D01*
X859582Y129154D01*
X859590Y129159D01*
X859737Y129284D01*
X859884Y129406D01*
X859890Y129413D01*
X859897Y129419D01*
X860016Y129570D01*
X860136Y129720D01*
X860141Y129728D01*
X860146Y129735D01*
X860233Y129906D01*
X860322Y130077D01*
X860324Y130086D01*
X860329Y130094D01*
X860380Y130280D01*
X860433Y130464D01*
X860434Y130473D01*
X860437Y130482D01*
X860451Y130674D01*
X860466Y130866D01*
X860465Y130874D01*
X860466Y130883D01*
X860442Y131076D01*
X860419Y131265D01*
X860417Y131274D01*
X860415Y131283D01*
X860354Y131464D01*
X860295Y131648D01*
X860290Y131656D01*
X860287Y131664D01*
X860192Y131830D01*
X860097Y131999D01*
X860091Y132006D01*
X860086Y132013D01*
X859872Y132266D01*
X858748Y133389D01*
X857820Y135630D01*
X857820Y138056D01*
X858748Y140297D01*
X860463Y142012D01*
X862704Y142940D01*
X865130Y142940D01*
X867371Y142012D01*
X869086Y140297D01*
X870014Y138056D01*
X870014Y137659D01*
X870014Y137654D01*
X870014Y137650D01*
X870034Y137456D01*
X870054Y137258D01*
X870055Y137254D01*
X870055Y137249D01*
X870115Y137059D01*
X870172Y136873D01*
X870174Y136869D01*
X870175Y136865D01*
X870270Y136691D01*
X870364Y136519D01*
X870366Y136516D01*
X870369Y136512D01*
X870457Y136407D01*
X870382Y136309D01*
X870262Y136154D01*
X870260Y136150D01*
X870257Y136147D01*
X870105Y135852D01*
X869086Y133389D01*
X867371Y131674D01*
X866690Y131393D01*
X866682Y131388D01*
X866673Y131386D01*
X866505Y131294D01*
X866335Y131202D01*
X866328Y131197D01*
X866320Y131192D01*
X866173Y131069D01*
X866025Y130946D01*
X866019Y130939D01*
X866012Y130933D01*
X865892Y130782D01*
X865771Y130633D01*
X865767Y130625D01*
X865761Y130618D01*
X865673Y130448D01*
X865584Y130277D01*
X865581Y130268D01*
X865577Y130260D01*
X865525Y130077D01*
X865471Y129890D01*
X865470Y129881D01*
X865467Y129873D01*
X865453Y129682D01*
X865436Y129489D01*
X865437Y129480D01*
X865436Y129471D01*
X865459Y129282D01*
X865481Y129089D01*
X865484Y129081D01*
X865485Y129072D01*
X865545Y128889D01*
X865604Y128706D01*
X865609Y128698D01*
X865612Y128690D01*
X865707Y128522D01*
X865801Y128354D01*
X865807Y128348D01*
X865811Y128340D01*
X865937Y128195D01*
X866063Y128049D01*
X866070Y128043D01*
X866075Y128036D01*
X866227Y127920D01*
X866380Y127800D01*
X866388Y127796D01*
X866395Y127791D01*
X866690Y127639D01*
X871079Y125821D01*
X876581Y120319D01*
X878995Y114490D01*
X878997Y114487D01*
X878999Y114482D01*
X879092Y114310D01*
X879186Y114136D01*
X879188Y114132D01*
X879191Y114128D01*
X879317Y113976D01*
X879442Y113825D01*
X879445Y113822D01*
X879448Y113819D01*
X879601Y113696D01*
X879755Y113572D01*
X879759Y113569D01*
X879762Y113567D01*
X879937Y113476D01*
X879986Y113450D01*
X879874Y113308D01*
X879872Y113304D01*
X879870Y113300D01*
X879781Y113121D01*
X879694Y112948D01*
X879692Y112943D01*
X879690Y112939D01*
X879639Y112747D01*
X879587Y112559D01*
X879587Y112555D01*
X879586Y112551D01*
X879559Y112220D01*
X879559Y105349D01*
X876581Y98161D01*
X871079Y92659D01*
X869376Y91953D01*
X869375Y91953D01*
X863891Y89681D01*
X856109Y89681D01*
G37*
%LPD*%
%LPC*%
G36*
X856109Y-42399D02*
X856109Y-42399D01*
X848921Y-39421D01*
X843419Y-33919D01*
X840441Y-26731D01*
X840441Y-18949D01*
X843419Y-11761D01*
X848921Y-6259D01*
X856109Y-3281D01*
X863891Y-3281D01*
X871079Y-6259D01*
X876581Y-11761D01*
X879559Y-18949D01*
X879559Y-26731D01*
X876581Y-33919D01*
X871079Y-39421D01*
X869493Y-40078D01*
X863891Y-42399D01*
X856109Y-42399D01*
G37*
%LPD*%
%LPC*%
G36*
X353315Y108691D02*
X353315Y108691D01*
X346284Y111603D01*
X340903Y116984D01*
X337991Y124015D01*
X337991Y131625D01*
X340903Y138656D01*
X346284Y144037D01*
X353315Y146949D01*
X360925Y146949D01*
X367956Y144037D01*
X373337Y138656D01*
X376249Y131625D01*
X376249Y124015D01*
X373337Y116984D01*
X367956Y111603D01*
X360925Y108691D01*
X353315Y108691D01*
G37*
%LPD*%
%LPC*%
G36*
X585315Y108691D02*
X585315Y108691D01*
X578284Y111603D01*
X572903Y116984D01*
X569991Y124015D01*
X569991Y131625D01*
X572903Y138656D01*
X578284Y144037D01*
X585315Y146949D01*
X592925Y146949D01*
X599956Y144037D01*
X605337Y138656D01*
X608249Y131625D01*
X608249Y124015D01*
X605337Y116984D01*
X599956Y111603D01*
X592925Y108691D01*
X585315Y108691D01*
G37*
%LPD*%
%LPC*%
G36*
X353315Y345691D02*
X353315Y345691D01*
X346284Y348603D01*
X340903Y353984D01*
X337991Y361015D01*
X337991Y368625D01*
X340903Y375656D01*
X346284Y381037D01*
X353315Y383949D01*
X360925Y383949D01*
X367956Y381037D01*
X373337Y375656D01*
X376249Y368625D01*
X376249Y361015D01*
X373337Y353984D01*
X367956Y348603D01*
X366235Y347891D01*
X360925Y345691D01*
X353315Y345691D01*
G37*
%LPD*%
%LPC*%
G36*
X27110Y12251D02*
X27110Y12251D01*
X20293Y15075D01*
X15075Y20293D01*
X12251Y27110D01*
X12251Y34490D01*
X15075Y41307D01*
X20293Y46525D01*
X27110Y49349D01*
X34490Y49349D01*
X41307Y46525D01*
X46525Y41307D01*
X49349Y34490D01*
X49349Y27110D01*
X46525Y20293D01*
X41307Y15075D01*
X34490Y12251D01*
X27110Y12251D01*
G37*
%LPD*%
%LPC*%
G36*
X47110Y322251D02*
X47110Y322251D01*
X40293Y325075D01*
X35075Y330293D01*
X32251Y337110D01*
X32251Y344490D01*
X35075Y351307D01*
X40293Y356525D01*
X44731Y358363D01*
X47110Y359349D01*
X54490Y359349D01*
X61307Y356525D01*
X66525Y351307D01*
X69349Y344490D01*
X69349Y337110D01*
X66525Y330293D01*
X61307Y325075D01*
X54490Y322251D01*
X47110Y322251D01*
G37*
%LPD*%
%LPC*%
G36*
X907110Y322251D02*
X907110Y322251D01*
X900293Y325075D01*
X895075Y330293D01*
X892251Y337110D01*
X892251Y344490D01*
X895075Y351307D01*
X900293Y356525D01*
X904731Y358363D01*
X907110Y359349D01*
X914490Y359349D01*
X921307Y356525D01*
X926525Y351307D01*
X929349Y344490D01*
X929349Y337110D01*
X926525Y330293D01*
X921307Y325075D01*
X914490Y322251D01*
X907110Y322251D01*
G37*
%LPD*%
%LPC*%
G36*
X927110Y-97749D02*
X927110Y-97749D01*
X920293Y-94925D01*
X915075Y-89707D01*
X912251Y-82890D01*
X912251Y-75510D01*
X915075Y-68693D01*
X920293Y-63475D01*
X923599Y-62106D01*
X927110Y-60651D01*
X934490Y-60651D01*
X941307Y-63475D01*
X946525Y-68693D01*
X949349Y-75510D01*
X949349Y-82890D01*
X946525Y-89707D01*
X941307Y-94925D01*
X934490Y-97749D01*
X927110Y-97749D01*
G37*
%LPD*%
%LPC*%
G36*
X842067Y194563D02*
X842067Y194563D01*
X839826Y195491D01*
X838111Y197206D01*
X837183Y199447D01*
X837183Y201873D01*
X838111Y204114D01*
X839826Y205829D01*
X841366Y206466D01*
X841382Y206475D01*
X841399Y206480D01*
X841559Y206569D01*
X841721Y206656D01*
X841734Y206668D01*
X841750Y206676D01*
X841889Y206796D01*
X842031Y206913D01*
X842042Y206927D01*
X842056Y206938D01*
X842169Y207083D01*
X842285Y207225D01*
X842293Y207241D01*
X842304Y207255D01*
X842386Y207419D01*
X842472Y207582D01*
X842477Y207599D01*
X842485Y207615D01*
X842533Y207792D01*
X842585Y207968D01*
X842586Y207986D01*
X842591Y208003D01*
X842604Y208186D01*
X842620Y208369D01*
X842618Y208387D01*
X842619Y208405D01*
X842595Y208586D01*
X842574Y208769D01*
X842569Y208787D01*
X842567Y208804D01*
X842465Y209120D01*
X842263Y209607D01*
X842263Y212033D01*
X842665Y213003D01*
X842668Y213012D01*
X842672Y213020D01*
X842727Y213206D01*
X842782Y213389D01*
X842783Y213398D01*
X842785Y213406D01*
X842802Y213599D01*
X842820Y213790D01*
X842819Y213798D01*
X842820Y213807D01*
X842799Y213996D01*
X842778Y214190D01*
X842776Y214199D01*
X842775Y214207D01*
X842716Y214390D01*
X842658Y214574D01*
X842654Y214582D01*
X842651Y214591D01*
X842558Y214759D01*
X842465Y214928D01*
X842459Y214934D01*
X842455Y214942D01*
X842331Y215087D01*
X842206Y215236D01*
X842199Y215241D01*
X842193Y215248D01*
X842042Y215367D01*
X841891Y215487D01*
X841883Y215491D01*
X841876Y215496D01*
X841705Y215582D01*
X841533Y215671D01*
X841525Y215673D01*
X841516Y215677D01*
X841330Y215728D01*
X841146Y215780D01*
X841137Y215781D01*
X841128Y215783D01*
X840934Y215797D01*
X840744Y215811D01*
X840736Y215810D01*
X840726Y215811D01*
X840534Y215786D01*
X840345Y215763D01*
X840336Y215760D01*
X840327Y215759D01*
X840011Y215657D01*
X838143Y214883D01*
X835717Y214883D01*
X833476Y215811D01*
X831761Y217526D01*
X830833Y219767D01*
X830833Y222193D01*
X831761Y224434D01*
X833476Y226149D01*
X833919Y226332D01*
X835717Y227077D01*
X838143Y227077D01*
X840384Y226148D01*
X840386Y226147D01*
X840533Y226029D01*
X840678Y225910D01*
X840690Y225904D01*
X840701Y225896D01*
X840868Y225810D01*
X841034Y225722D01*
X841047Y225718D01*
X841059Y225712D01*
X841240Y225660D01*
X841420Y225607D01*
X841433Y225606D01*
X841446Y225602D01*
X841633Y225588D01*
X841821Y225571D01*
X841834Y225572D01*
X841848Y225571D01*
X842034Y225594D01*
X842221Y225614D01*
X842234Y225618D01*
X842247Y225620D01*
X842426Y225679D01*
X842605Y225735D01*
X842617Y225742D01*
X842629Y225746D01*
X842793Y225839D01*
X842957Y225930D01*
X842967Y225939D01*
X842979Y225946D01*
X843121Y226069D01*
X843264Y226191D01*
X843273Y226201D01*
X843283Y226210D01*
X843397Y226359D01*
X843514Y226507D01*
X843520Y226519D01*
X843528Y226529D01*
X843594Y226658D01*
X845194Y228258D01*
X847248Y229109D01*
X849472Y229109D01*
X851526Y228258D01*
X853020Y226764D01*
X853034Y226753D01*
X853045Y226739D01*
X853050Y226735D01*
X853053Y226732D01*
X853135Y226668D01*
X853190Y226625D01*
X853331Y226509D01*
X853347Y226501D01*
X853361Y226489D01*
X853525Y226406D01*
X853687Y226320D01*
X853704Y226315D01*
X853720Y226307D01*
X853897Y226258D01*
X854073Y226206D01*
X854091Y226204D01*
X854108Y226199D01*
X854291Y226186D01*
X854474Y226169D01*
X854492Y226171D01*
X854509Y226170D01*
X854691Y226193D01*
X854874Y226213D01*
X854891Y226218D01*
X854909Y226220D01*
X855083Y226279D01*
X855258Y226334D01*
X855274Y226343D01*
X855290Y226348D01*
X855449Y226440D01*
X855610Y226529D01*
X855624Y226540D01*
X855639Y226549D01*
X855892Y226764D01*
X857640Y228512D01*
X859694Y229363D01*
X861918Y229363D01*
X863972Y228512D01*
X864704Y227780D01*
X864717Y227769D01*
X864729Y227755D01*
X864873Y227641D01*
X865015Y227525D01*
X865031Y227517D01*
X865045Y227505D01*
X865209Y227422D01*
X865371Y227336D01*
X865388Y227331D01*
X865404Y227323D01*
X865581Y227274D01*
X865757Y227222D01*
X865775Y227220D01*
X865792Y227215D01*
X865975Y227202D01*
X866158Y227185D01*
X866176Y227187D01*
X866193Y227186D01*
X866375Y227209D01*
X866558Y227229D01*
X866575Y227234D01*
X866593Y227236D01*
X866766Y227295D01*
X866942Y227350D01*
X866958Y227359D01*
X866974Y227364D01*
X867133Y227456D01*
X867294Y227545D01*
X867308Y227556D01*
X867323Y227565D01*
X867576Y227780D01*
X868054Y228258D01*
X870108Y229109D01*
X872332Y229109D01*
X874386Y228258D01*
X875958Y226686D01*
X876809Y224632D01*
X876809Y222408D01*
X875958Y220354D01*
X874386Y218782D01*
X872332Y217931D01*
X870108Y217931D01*
X868054Y218782D01*
X867322Y219514D01*
X867315Y219520D01*
X867313Y219522D01*
X867307Y219527D01*
X867297Y219539D01*
X867153Y219653D01*
X867011Y219769D01*
X866995Y219777D01*
X866981Y219789D01*
X866817Y219872D01*
X866655Y219958D01*
X866638Y219963D01*
X866622Y219971D01*
X866445Y220020D01*
X866269Y220072D01*
X866251Y220074D01*
X866234Y220079D01*
X866051Y220092D01*
X865868Y220109D01*
X865850Y220107D01*
X865833Y220108D01*
X865651Y220085D01*
X865468Y220065D01*
X865451Y220060D01*
X865433Y220058D01*
X865260Y220000D01*
X865084Y219944D01*
X865068Y219935D01*
X865052Y219930D01*
X864892Y219838D01*
X864732Y219749D01*
X864718Y219738D01*
X864703Y219729D01*
X864450Y219514D01*
X863972Y219036D01*
X861918Y218185D01*
X859694Y218185D01*
X857640Y219036D01*
X856146Y220530D01*
X856133Y220541D01*
X856121Y220555D01*
X855976Y220669D01*
X855835Y220785D01*
X855819Y220793D01*
X855805Y220805D01*
X855640Y220888D01*
X855479Y220974D01*
X855462Y220979D01*
X855446Y220987D01*
X855269Y221036D01*
X855093Y221088D01*
X855075Y221090D01*
X855058Y221095D01*
X854875Y221108D01*
X854692Y221125D01*
X854675Y221123D01*
X854657Y221124D01*
X854475Y221101D01*
X854292Y221081D01*
X854275Y221076D01*
X854257Y221074D01*
X854083Y221015D01*
X853908Y220960D01*
X853893Y220951D01*
X853876Y220946D01*
X853717Y220854D01*
X853556Y220765D01*
X853542Y220754D01*
X853527Y220745D01*
X853274Y220530D01*
X851709Y218966D01*
X851698Y218952D01*
X851684Y218940D01*
X851570Y218795D01*
X851454Y218654D01*
X851446Y218638D01*
X851435Y218624D01*
X851351Y218461D01*
X851265Y218298D01*
X851260Y218281D01*
X851252Y218265D01*
X851203Y218088D01*
X851151Y217912D01*
X851149Y217895D01*
X851144Y217877D01*
X851131Y217694D01*
X851114Y217511D01*
X851116Y217494D01*
X851115Y217476D01*
X851138Y217293D01*
X851158Y217111D01*
X851163Y217094D01*
X851165Y217076D01*
X851224Y216903D01*
X851279Y216727D01*
X851288Y216712D01*
X851294Y216695D01*
X851385Y216537D01*
X851474Y216375D01*
X851486Y216361D01*
X851495Y216346D01*
X851709Y216093D01*
X853529Y214273D01*
X854457Y212033D01*
X854457Y209607D01*
X853529Y207366D01*
X851814Y205651D01*
X850274Y205014D01*
X850258Y205005D01*
X850241Y205000D01*
X850081Y204911D01*
X849919Y204824D01*
X849906Y204812D01*
X849890Y204804D01*
X849751Y204684D01*
X849609Y204567D01*
X849598Y204553D01*
X849584Y204542D01*
X849471Y204397D01*
X849355Y204255D01*
X849347Y204239D01*
X849336Y204225D01*
X849254Y204061D01*
X849168Y203898D01*
X849163Y203881D01*
X849155Y203865D01*
X849107Y203688D01*
X849055Y203512D01*
X849054Y203494D01*
X849049Y203477D01*
X849036Y203294D01*
X849020Y203111D01*
X849022Y203093D01*
X849021Y203075D01*
X849045Y202894D01*
X849066Y202711D01*
X849071Y202693D01*
X849073Y202676D01*
X849175Y202360D01*
X849377Y201873D01*
X849377Y199447D01*
X848449Y197206D01*
X846734Y195491D01*
X844493Y194563D01*
X842067Y194563D01*
G37*
%LPD*%
%LPC*%
G36*
X760888Y-58929D02*
X760888Y-58929D01*
X758834Y-58078D01*
X757262Y-56506D01*
X756411Y-54452D01*
X756411Y-52228D01*
X757262Y-50174D01*
X758834Y-48602D01*
X760561Y-47887D01*
X761077Y-47673D01*
X761150Y-47650D01*
X761335Y-47593D01*
X761343Y-47589D01*
X761351Y-47586D01*
X761520Y-47493D01*
X761689Y-47401D01*
X761696Y-47396D01*
X761704Y-47391D01*
X761852Y-47266D01*
X761998Y-47144D01*
X762004Y-47137D01*
X762011Y-47131D01*
X762131Y-46979D01*
X762251Y-46830D01*
X762255Y-46822D01*
X762260Y-46815D01*
X762348Y-46643D01*
X762436Y-46473D01*
X762439Y-46464D01*
X762443Y-46456D01*
X762495Y-46270D01*
X762548Y-46086D01*
X762548Y-46077D01*
X762551Y-46068D01*
X762565Y-45876D01*
X762580Y-45684D01*
X762579Y-45676D01*
X762580Y-45667D01*
X762556Y-45474D01*
X762534Y-45285D01*
X762531Y-45276D01*
X762530Y-45267D01*
X762468Y-45084D01*
X762409Y-44902D01*
X762404Y-44894D01*
X762401Y-44886D01*
X762306Y-44720D01*
X762211Y-44551D01*
X762205Y-44544D01*
X762201Y-44537D01*
X761986Y-44284D01*
X760575Y-42873D01*
X758951Y-38952D01*
X758951Y-34708D01*
X760575Y-30787D01*
X763577Y-27785D01*
X767498Y-26161D01*
X771742Y-26161D01*
X775663Y-27785D01*
X778665Y-30787D01*
X780289Y-34708D01*
X780289Y-38952D01*
X778665Y-42873D01*
X775663Y-45875D01*
X771742Y-47499D01*
X768670Y-47499D01*
X768656Y-47500D01*
X768643Y-47499D01*
X768457Y-47520D01*
X768269Y-47539D01*
X768256Y-47543D01*
X768243Y-47544D01*
X768065Y-47601D01*
X767884Y-47657D01*
X767872Y-47663D01*
X767860Y-47667D01*
X767696Y-47759D01*
X767530Y-47849D01*
X767520Y-47857D01*
X767508Y-47864D01*
X767365Y-47986D01*
X767221Y-48106D01*
X767212Y-48117D01*
X767202Y-48125D01*
X767086Y-48274D01*
X766968Y-48420D01*
X766962Y-48432D01*
X766954Y-48442D01*
X766869Y-48612D01*
X766783Y-48777D01*
X766779Y-48790D01*
X766773Y-48802D01*
X766723Y-48985D01*
X766672Y-49164D01*
X766670Y-49178D01*
X766667Y-49191D01*
X766654Y-49379D01*
X766639Y-49566D01*
X766640Y-49579D01*
X766639Y-49592D01*
X766664Y-49780D01*
X766686Y-49965D01*
X766690Y-49978D01*
X766691Y-49991D01*
X766793Y-50307D01*
X767589Y-52228D01*
X767589Y-54452D01*
X766738Y-56506D01*
X765166Y-58078D01*
X764487Y-58359D01*
X764486Y-58359D01*
X763112Y-58929D01*
X760888Y-58929D01*
G37*
%LPD*%
%LPC*%
G36*
X782948Y57931D02*
X782948Y57931D01*
X779027Y59555D01*
X776025Y62557D01*
X774401Y66478D01*
X774401Y70722D01*
X776025Y74643D01*
X779027Y77645D01*
X782713Y79171D01*
X782725Y79178D01*
X782738Y79182D01*
X782902Y79273D01*
X783068Y79362D01*
X783078Y79370D01*
X783090Y79377D01*
X783233Y79498D01*
X783378Y79618D01*
X783387Y79628D01*
X783397Y79637D01*
X783513Y79785D01*
X783632Y79931D01*
X783638Y79942D01*
X783646Y79953D01*
X783732Y80121D01*
X783819Y80287D01*
X783823Y80300D01*
X783829Y80312D01*
X783879Y80494D01*
X783932Y80674D01*
X783933Y80687D01*
X783937Y80700D01*
X783951Y80889D01*
X783967Y81075D01*
X783965Y81088D01*
X783966Y81101D01*
X783942Y81290D01*
X783922Y81475D01*
X783917Y81487D01*
X783916Y81501D01*
X783856Y81679D01*
X783798Y81858D01*
X783792Y81870D01*
X783788Y81882D01*
X783694Y82046D01*
X783602Y82210D01*
X783593Y82220D01*
X783587Y82231D01*
X783372Y82484D01*
X781646Y84210D01*
X780795Y86264D01*
X780795Y88488D01*
X781646Y90542D01*
X783218Y92114D01*
X785272Y92965D01*
X787496Y92965D01*
X789550Y92114D01*
X791122Y90542D01*
X791973Y88488D01*
X791973Y86264D01*
X791122Y84210D01*
X789550Y82638D01*
X788834Y82342D01*
X788826Y82338D01*
X788818Y82335D01*
X788650Y82243D01*
X788480Y82152D01*
X788473Y82146D01*
X788465Y82142D01*
X788317Y82018D01*
X788169Y81895D01*
X788163Y81888D01*
X788157Y81882D01*
X788038Y81733D01*
X787915Y81583D01*
X787911Y81575D01*
X787906Y81568D01*
X787818Y81397D01*
X787728Y81226D01*
X787726Y81217D01*
X787722Y81210D01*
X787669Y81025D01*
X787615Y80840D01*
X787614Y80831D01*
X787612Y80822D01*
X787597Y80631D01*
X787581Y80439D01*
X787582Y80430D01*
X787581Y80421D01*
X787604Y80231D01*
X787626Y80038D01*
X787629Y80030D01*
X787630Y80021D01*
X787690Y79838D01*
X787749Y79655D01*
X787753Y79647D01*
X787756Y79639D01*
X787852Y79471D01*
X787945Y79304D01*
X787951Y79297D01*
X787956Y79289D01*
X788083Y79143D01*
X788207Y78998D01*
X788214Y78992D01*
X788220Y78986D01*
X788374Y78867D01*
X788524Y78750D01*
X788532Y78746D01*
X788539Y78740D01*
X788834Y78589D01*
X791113Y77645D01*
X794115Y74643D01*
X795739Y70722D01*
X795739Y66478D01*
X794115Y62557D01*
X791113Y59555D01*
X787192Y57931D01*
X782948Y57931D01*
G37*
%LPD*%
%LPC*%
G36*
X880167Y159003D02*
X880167Y159003D01*
X877926Y159931D01*
X876211Y161646D01*
X875283Y163887D01*
X875283Y166313D01*
X876120Y168333D01*
X876125Y168350D01*
X876133Y168366D01*
X876183Y168543D01*
X876237Y168718D01*
X876238Y168736D01*
X876243Y168753D01*
X876257Y168936D01*
X876275Y169119D01*
X876273Y169137D01*
X876274Y169155D01*
X876252Y169336D01*
X876233Y169520D01*
X876228Y169537D01*
X876226Y169554D01*
X876168Y169729D01*
X876113Y169904D01*
X876105Y169920D01*
X876099Y169937D01*
X876008Y170096D01*
X875920Y170257D01*
X875908Y170271D01*
X875900Y170286D01*
X875779Y170425D01*
X875661Y170565D01*
X875647Y170576D01*
X875635Y170590D01*
X875490Y170702D01*
X875346Y170816D01*
X875330Y170824D01*
X875316Y170835D01*
X875021Y170987D01*
X874116Y171361D01*
X872401Y173076D01*
X871473Y175317D01*
X871473Y177743D01*
X871701Y178293D01*
X871705Y178306D01*
X871711Y178317D01*
X871763Y178498D01*
X871818Y178678D01*
X871819Y178691D01*
X871823Y178704D01*
X871838Y178893D01*
X871856Y179079D01*
X871854Y179092D01*
X871855Y179106D01*
X871834Y179292D01*
X871814Y179479D01*
X871810Y179492D01*
X871808Y179505D01*
X871750Y179683D01*
X871694Y179864D01*
X871688Y179875D01*
X871684Y179888D01*
X871591Y180052D01*
X871501Y180217D01*
X871492Y180227D01*
X871486Y180239D01*
X871363Y180381D01*
X871242Y180525D01*
X871231Y180533D01*
X871223Y180544D01*
X871075Y180658D01*
X870927Y180776D01*
X870915Y180782D01*
X870904Y180790D01*
X870737Y180874D01*
X870569Y180960D01*
X870556Y180964D01*
X870544Y180970D01*
X870361Y181019D01*
X870191Y181067D01*
X868054Y181952D01*
X866482Y183524D01*
X865631Y185578D01*
X865631Y187802D01*
X866482Y189856D01*
X868054Y191428D01*
X870108Y192279D01*
X872332Y192279D01*
X874386Y191428D01*
X875958Y189856D01*
X876809Y187802D01*
X876809Y185578D01*
X876750Y185435D01*
X876746Y185422D01*
X876739Y185411D01*
X876687Y185230D01*
X876633Y185050D01*
X876632Y185037D01*
X876628Y185024D01*
X876613Y184835D01*
X876595Y184649D01*
X876596Y184636D01*
X876595Y184622D01*
X876617Y184435D01*
X876637Y184249D01*
X876641Y184236D01*
X876642Y184223D01*
X876700Y184044D01*
X876756Y183864D01*
X876763Y183853D01*
X876767Y183840D01*
X876859Y183676D01*
X876950Y183511D01*
X876958Y183501D01*
X876965Y183489D01*
X877087Y183347D01*
X877209Y183203D01*
X877219Y183195D01*
X877228Y183184D01*
X877376Y183069D01*
X877524Y182952D01*
X877536Y182946D01*
X877546Y182938D01*
X877715Y182854D01*
X877882Y182768D01*
X877894Y182764D01*
X877907Y182758D01*
X878089Y182709D01*
X878269Y182658D01*
X878282Y182657D01*
X878295Y182654D01*
X878626Y182627D01*
X878783Y182627D01*
X881024Y181699D01*
X882739Y179984D01*
X883667Y177743D01*
X883667Y175317D01*
X882830Y173297D01*
X882825Y173280D01*
X882817Y173264D01*
X882767Y173088D01*
X882713Y172912D01*
X882712Y172894D01*
X882707Y172877D01*
X882693Y172693D01*
X882675Y172511D01*
X882677Y172493D01*
X882676Y172475D01*
X882698Y172293D01*
X882717Y172110D01*
X882722Y172093D01*
X882724Y172076D01*
X882782Y171901D01*
X882837Y171726D01*
X882845Y171710D01*
X882851Y171693D01*
X882942Y171533D01*
X883030Y171373D01*
X883041Y171359D01*
X883050Y171344D01*
X883172Y171205D01*
X883289Y171065D01*
X883303Y171054D01*
X883315Y171040D01*
X883460Y170929D01*
X883604Y170814D01*
X883620Y170806D01*
X883634Y170795D01*
X883929Y170643D01*
X884833Y170269D01*
X885383Y169719D01*
X885397Y169708D01*
X885408Y169694D01*
X885552Y169581D01*
X885694Y169464D01*
X885710Y169456D01*
X885724Y169445D01*
X885887Y169362D01*
X886050Y169275D01*
X886067Y169270D01*
X886083Y169262D01*
X886260Y169213D01*
X886436Y169161D01*
X886454Y169159D01*
X886471Y169154D01*
X886654Y169141D01*
X886837Y169124D01*
X886855Y169126D01*
X886873Y169125D01*
X887054Y169148D01*
X887237Y169168D01*
X887254Y169173D01*
X887272Y169175D01*
X887446Y169234D01*
X887621Y169289D01*
X887637Y169298D01*
X887654Y169304D01*
X887813Y169395D01*
X887973Y169484D01*
X887987Y169496D01*
X888003Y169505D01*
X888256Y169719D01*
X888374Y169838D01*
X890428Y170689D01*
X892652Y170689D01*
X894706Y169838D01*
X896278Y168266D01*
X897129Y166212D01*
X897129Y163988D01*
X896278Y161934D01*
X894706Y160362D01*
X892652Y159511D01*
X890428Y159511D01*
X888374Y160362D01*
X888256Y160481D01*
X888242Y160492D01*
X888230Y160506D01*
X888086Y160620D01*
X887944Y160736D01*
X887928Y160744D01*
X887914Y160755D01*
X887750Y160839D01*
X887588Y160924D01*
X887571Y160930D01*
X887555Y160938D01*
X887378Y160987D01*
X887202Y161039D01*
X887185Y161041D01*
X887167Y161046D01*
X886984Y161059D01*
X886802Y161076D01*
X886784Y161074D01*
X886766Y161075D01*
X886584Y161052D01*
X886401Y161032D01*
X886384Y161027D01*
X886366Y161025D01*
X886193Y160966D01*
X886017Y160911D01*
X886002Y160902D01*
X885985Y160896D01*
X885826Y160805D01*
X885665Y160716D01*
X885651Y160704D01*
X885636Y160695D01*
X885383Y160481D01*
X884833Y159931D01*
X882593Y159003D01*
X880167Y159003D01*
G37*
%LPD*%
%LPC*%
G36*
X683672Y111251D02*
X683672Y111251D01*
X681618Y112102D01*
X680046Y113674D01*
X679195Y115728D01*
X679195Y117428D01*
X679194Y117442D01*
X679195Y117455D01*
X679174Y117641D01*
X679155Y117829D01*
X679151Y117842D01*
X679150Y117855D01*
X679093Y118034D01*
X679037Y118214D01*
X679031Y118226D01*
X679027Y118238D01*
X678935Y118403D01*
X678845Y118568D01*
X678837Y118578D01*
X678830Y118590D01*
X678708Y118732D01*
X678588Y118877D01*
X678577Y118886D01*
X678569Y118896D01*
X678421Y119011D01*
X678274Y119129D01*
X678262Y119136D01*
X678252Y119144D01*
X678083Y119228D01*
X677917Y119315D01*
X677904Y119319D01*
X677892Y119325D01*
X677711Y119374D01*
X677530Y119426D01*
X677516Y119427D01*
X677503Y119431D01*
X677315Y119444D01*
X677128Y119459D01*
X677115Y119458D01*
X677102Y119459D01*
X676914Y119434D01*
X676729Y119412D01*
X676716Y119408D01*
X676703Y119406D01*
X676387Y119305D01*
X672887Y117855D01*
X669249Y117855D01*
X665888Y119247D01*
X663315Y121820D01*
X661923Y125181D01*
X661923Y128819D01*
X663315Y132180D01*
X665888Y134753D01*
X669249Y136145D01*
X672887Y136145D01*
X676248Y134753D01*
X678821Y132180D01*
X680213Y128819D01*
X680213Y125181D01*
X679997Y124659D01*
X679994Y124651D01*
X679990Y124643D01*
X679936Y124458D01*
X679880Y124274D01*
X679879Y124265D01*
X679877Y124257D01*
X679860Y124064D01*
X679842Y123873D01*
X679843Y123864D01*
X679842Y123855D01*
X679864Y123662D01*
X679884Y123473D01*
X679886Y123464D01*
X679887Y123455D01*
X679946Y123272D01*
X680004Y123088D01*
X680008Y123081D01*
X680011Y123072D01*
X680105Y122903D01*
X680197Y122735D01*
X680203Y122729D01*
X680207Y122721D01*
X680334Y122572D01*
X680456Y122427D01*
X680463Y122422D01*
X680469Y122415D01*
X680621Y122296D01*
X680771Y122176D01*
X680779Y122172D01*
X680786Y122167D01*
X680959Y122080D01*
X681129Y121992D01*
X681137Y121990D01*
X681146Y121986D01*
X681333Y121934D01*
X681516Y121883D01*
X681525Y121882D01*
X681534Y121879D01*
X681727Y121866D01*
X681918Y121851D01*
X681927Y121853D01*
X681936Y121852D01*
X682126Y121877D01*
X682317Y121900D01*
X682326Y121903D01*
X682335Y121904D01*
X682651Y122006D01*
X683672Y122429D01*
X685896Y122429D01*
X687950Y121578D01*
X689522Y120006D01*
X690373Y117952D01*
X690373Y115728D01*
X689522Y113674D01*
X687950Y112102D01*
X685896Y111251D01*
X683672Y111251D01*
G37*
%LPD*%
%LPC*%
G36*
X491293Y123443D02*
X491293Y123443D01*
X489052Y124371D01*
X487337Y126086D01*
X486409Y128327D01*
X486409Y130753D01*
X487337Y132994D01*
X489052Y134709D01*
X489576Y134926D01*
X491085Y135550D01*
X491097Y135557D01*
X491110Y135561D01*
X491274Y135652D01*
X491440Y135741D01*
X491450Y135749D01*
X491462Y135756D01*
X491605Y135877D01*
X491750Y135997D01*
X491759Y136007D01*
X491769Y136016D01*
X491885Y136163D01*
X492004Y136310D01*
X492010Y136322D01*
X492019Y136332D01*
X492104Y136500D01*
X492191Y136666D01*
X492195Y136679D01*
X492201Y136691D01*
X492252Y136873D01*
X492304Y137053D01*
X492305Y137066D01*
X492309Y137079D01*
X492323Y137268D01*
X492339Y137454D01*
X492337Y137467D01*
X492338Y137480D01*
X492315Y137666D01*
X492294Y137854D01*
X492290Y137867D01*
X492288Y137880D01*
X492228Y138057D01*
X492171Y138237D01*
X492164Y138249D01*
X492160Y138262D01*
X492066Y138425D01*
X491974Y138589D01*
X491965Y138599D01*
X491959Y138610D01*
X491744Y138863D01*
X490995Y139613D01*
X489674Y142801D01*
X489674Y146251D01*
X490995Y149439D01*
X493435Y151879D01*
X496623Y153200D01*
X500073Y153200D01*
X503261Y151879D01*
X505701Y149439D01*
X507022Y146251D01*
X507022Y142801D01*
X505701Y139613D01*
X503261Y137173D01*
X500073Y135852D01*
X499530Y135852D01*
X499517Y135851D01*
X499504Y135852D01*
X499317Y135831D01*
X499130Y135812D01*
X499117Y135808D01*
X499104Y135807D01*
X498925Y135750D01*
X498745Y135694D01*
X498733Y135688D01*
X498720Y135684D01*
X498557Y135592D01*
X498391Y135502D01*
X498381Y135494D01*
X498369Y135487D01*
X498226Y135365D01*
X498082Y135245D01*
X498073Y135234D01*
X498063Y135226D01*
X497947Y135077D01*
X497829Y134931D01*
X497823Y134919D01*
X497815Y134909D01*
X497730Y134739D01*
X497644Y134574D01*
X497640Y134561D01*
X497634Y134549D01*
X497584Y134366D01*
X497532Y134187D01*
X497531Y134173D01*
X497528Y134160D01*
X497515Y133972D01*
X497499Y133785D01*
X497501Y133772D01*
X497500Y133759D01*
X497525Y133571D01*
X497546Y133386D01*
X497550Y133373D01*
X497552Y133360D01*
X497654Y133044D01*
X498603Y130753D01*
X498603Y128327D01*
X497675Y126086D01*
X495960Y124371D01*
X493719Y123443D01*
X491293Y123443D01*
G37*
%LPD*%
%LPC*%
G36*
X120179Y10159D02*
X120179Y10159D01*
X116258Y11783D01*
X113256Y14785D01*
X111632Y18706D01*
X111632Y22950D01*
X113256Y26871D01*
X116258Y29873D01*
X120179Y31497D01*
X124423Y31497D01*
X128344Y29873D01*
X131346Y26871D01*
X132970Y22950D01*
X132970Y18706D01*
X131346Y14785D01*
X128344Y11783D01*
X124423Y10159D01*
X120179Y10159D01*
G37*
%LPD*%
%LPC*%
G36*
X174662Y10540D02*
X174662Y10540D01*
X170741Y12164D01*
X167739Y15166D01*
X166115Y19087D01*
X166115Y23331D01*
X167739Y27252D01*
X170741Y30254D01*
X174662Y31878D01*
X178906Y31878D01*
X182827Y30254D01*
X185829Y27252D01*
X187453Y23331D01*
X187453Y19087D01*
X185829Y15166D01*
X182827Y12164D01*
X178906Y10540D01*
X174662Y10540D01*
G37*
%LPD*%
%LPC*%
G36*
X739558Y355091D02*
X739558Y355091D01*
X735637Y356715D01*
X732635Y359717D01*
X731011Y363638D01*
X731011Y367882D01*
X732635Y371803D01*
X735637Y374805D01*
X739558Y376429D01*
X743802Y376429D01*
X747723Y374805D01*
X750725Y371803D01*
X752349Y367882D01*
X752349Y363638D01*
X750725Y359717D01*
X747723Y356715D01*
X743802Y355091D01*
X739558Y355091D01*
G37*
%LPD*%
%LPC*%
G36*
X688758Y355091D02*
X688758Y355091D01*
X684837Y356715D01*
X681835Y359717D01*
X680211Y363638D01*
X680211Y367882D01*
X681835Y371803D01*
X684837Y374805D01*
X688758Y376429D01*
X693002Y376429D01*
X696923Y374805D01*
X699925Y371803D01*
X701549Y367882D01*
X701549Y363638D01*
X699925Y359717D01*
X696923Y356715D01*
X693002Y355091D01*
X688758Y355091D01*
G37*
%LPD*%
%LPC*%
G36*
X714158Y355091D02*
X714158Y355091D01*
X710237Y356715D01*
X707235Y359717D01*
X705611Y363638D01*
X705611Y367882D01*
X707235Y371803D01*
X710237Y374805D01*
X714158Y376429D01*
X718402Y376429D01*
X722323Y374805D01*
X725325Y371803D01*
X726949Y367882D01*
X726949Y363638D01*
X725325Y359717D01*
X722323Y356715D01*
X718402Y355091D01*
X714158Y355091D01*
G37*
%LPD*%
%LPC*%
G36*
X688758Y380491D02*
X688758Y380491D01*
X684837Y382115D01*
X681835Y385117D01*
X680211Y389038D01*
X680211Y393282D01*
X681835Y397203D01*
X684837Y400205D01*
X688758Y401829D01*
X693002Y401829D01*
X696923Y400205D01*
X699925Y397203D01*
X701549Y393282D01*
X701549Y389038D01*
X699925Y385117D01*
X696923Y382115D01*
X693002Y380491D01*
X688758Y380491D01*
G37*
%LPD*%
%LPC*%
G36*
X714158Y380491D02*
X714158Y380491D01*
X710237Y382115D01*
X707235Y385117D01*
X705611Y389038D01*
X705611Y393282D01*
X707235Y397203D01*
X710237Y400205D01*
X714158Y401829D01*
X718402Y401829D01*
X722323Y400205D01*
X725325Y397203D01*
X726949Y393282D01*
X726949Y389038D01*
X725325Y385117D01*
X722323Y382115D01*
X718402Y380491D01*
X714158Y380491D01*
G37*
%LPD*%
%LPC*%
G36*
X927728Y7131D02*
X927728Y7131D01*
X923807Y8755D01*
X920805Y11757D01*
X919181Y15678D01*
X919181Y19922D01*
X920805Y23843D01*
X923807Y26845D01*
X927728Y28469D01*
X931972Y28469D01*
X935893Y26845D01*
X938895Y23843D01*
X940519Y19922D01*
X940519Y15678D01*
X938895Y11757D01*
X935893Y8755D01*
X931972Y7131D01*
X927728Y7131D01*
G37*
%LPD*%
%LPC*%
G36*
X521198Y360751D02*
X521198Y360751D01*
X517277Y362375D01*
X514275Y365377D01*
X512651Y369298D01*
X512651Y373542D01*
X514275Y377463D01*
X517277Y380465D01*
X521198Y382089D01*
X525442Y382089D01*
X529363Y380465D01*
X532365Y377463D01*
X533989Y373542D01*
X533989Y369298D01*
X532365Y365377D01*
X529363Y362375D01*
X525442Y360751D01*
X521198Y360751D01*
G37*
%LPD*%
%LPC*%
G36*
X495798Y360751D02*
X495798Y360751D01*
X491877Y362375D01*
X488875Y365377D01*
X487251Y369298D01*
X487251Y373542D01*
X488875Y377463D01*
X491877Y380465D01*
X495798Y382089D01*
X500042Y382089D01*
X503963Y380465D01*
X506965Y377463D01*
X508589Y373542D01*
X508589Y369298D01*
X506965Y365377D01*
X503963Y362375D01*
X500042Y360751D01*
X495798Y360751D01*
G37*
%LPD*%
%LPC*%
G36*
X546598Y360751D02*
X546598Y360751D01*
X542677Y362375D01*
X539675Y365377D01*
X538051Y369298D01*
X538051Y373542D01*
X539675Y377463D01*
X542677Y380465D01*
X546598Y382089D01*
X550842Y382089D01*
X554763Y380465D01*
X557765Y377463D01*
X559389Y373542D01*
X559389Y369298D01*
X557765Y365377D01*
X554763Y362375D01*
X550842Y360751D01*
X546598Y360751D01*
G37*
%LPD*%
%LPC*%
G36*
X419598Y360751D02*
X419598Y360751D01*
X415677Y362375D01*
X412675Y365377D01*
X411051Y369298D01*
X411051Y373542D01*
X412675Y377463D01*
X415677Y380465D01*
X419598Y382089D01*
X423842Y382089D01*
X427763Y380465D01*
X430765Y377463D01*
X432389Y373542D01*
X432389Y369298D01*
X430765Y365377D01*
X427763Y362375D01*
X423842Y360751D01*
X419598Y360751D01*
G37*
%LPD*%
%LPC*%
G36*
X782948Y7131D02*
X782948Y7131D01*
X779027Y8755D01*
X776025Y11757D01*
X774401Y15678D01*
X774401Y19922D01*
X776025Y23843D01*
X779027Y26845D01*
X782948Y28469D01*
X787192Y28469D01*
X791113Y26845D01*
X794115Y23843D01*
X795739Y19922D01*
X795739Y15678D01*
X794115Y11757D01*
X791113Y8755D01*
X787192Y7131D01*
X782948Y7131D01*
G37*
%LPD*%
%LPC*%
G36*
X470398Y360751D02*
X470398Y360751D01*
X466477Y362375D01*
X463475Y365377D01*
X461851Y369298D01*
X461851Y373542D01*
X463475Y377463D01*
X466477Y380465D01*
X470398Y382089D01*
X474642Y382089D01*
X478563Y380465D01*
X481565Y377463D01*
X483189Y373542D01*
X483189Y369298D01*
X481565Y365377D01*
X478563Y362375D01*
X474642Y360751D01*
X470398Y360751D01*
G37*
%LPD*%
%LPC*%
G36*
X444998Y360751D02*
X444998Y360751D01*
X441077Y362375D01*
X438075Y365377D01*
X436451Y369298D01*
X436451Y373542D01*
X438075Y377463D01*
X441077Y380465D01*
X444998Y382089D01*
X449242Y382089D01*
X453163Y380465D01*
X456165Y377463D01*
X457789Y373542D01*
X457789Y369298D01*
X456165Y365377D01*
X453163Y362375D01*
X449242Y360751D01*
X444998Y360751D01*
G37*
%LPD*%
%LPC*%
G36*
X767498Y-19559D02*
X767498Y-19559D01*
X763577Y-17935D01*
X760575Y-14933D01*
X758951Y-11012D01*
X758951Y-6768D01*
X760575Y-2847D01*
X763577Y155D01*
X767498Y1779D01*
X771742Y1779D01*
X775663Y155D01*
X778665Y-2847D01*
X780289Y-6768D01*
X780289Y-11012D01*
X778665Y-14933D01*
X775663Y-17935D01*
X771742Y-19559D01*
X767498Y-19559D01*
G37*
%LPD*%
%LPC*%
G36*
X764982Y355211D02*
X764982Y355211D01*
X761105Y356817D01*
X758137Y359785D01*
X756531Y363662D01*
X756531Y367858D01*
X758137Y371735D01*
X761105Y374703D01*
X764982Y376309D01*
X769178Y376309D01*
X773055Y374703D01*
X776023Y371735D01*
X777629Y367858D01*
X777629Y363662D01*
X776023Y359785D01*
X773055Y356817D01*
X769178Y355211D01*
X764982Y355211D01*
G37*
%LPD*%
%LPC*%
G36*
X42517Y65722D02*
X42517Y65722D01*
X38946Y67201D01*
X36213Y69934D01*
X34734Y73505D01*
X34734Y77371D01*
X36213Y80942D01*
X38946Y83675D01*
X42517Y85154D01*
X46383Y85154D01*
X49954Y83675D01*
X52687Y80942D01*
X54166Y77371D01*
X54166Y73505D01*
X52687Y69934D01*
X49954Y67201D01*
X46383Y65722D01*
X42517Y65722D01*
G37*
%LPD*%
%LPC*%
G36*
X887888Y200151D02*
X887888Y200151D01*
X885834Y201002D01*
X884262Y202574D01*
X883411Y204628D01*
X883411Y206852D01*
X884410Y209263D01*
X884414Y209271D01*
X884422Y209297D01*
X884435Y209322D01*
X884482Y209489D01*
X884533Y209655D01*
X884535Y209683D01*
X884543Y209710D01*
X884556Y209883D01*
X884573Y210056D01*
X884570Y210084D01*
X884572Y210111D01*
X884550Y210284D01*
X884533Y210457D01*
X884525Y210483D01*
X884522Y210511D01*
X884514Y210533D01*
X884426Y210809D01*
X884416Y210842D01*
X884412Y210849D01*
X883411Y213264D01*
X883411Y215488D01*
X884410Y217899D01*
X884414Y217907D01*
X884422Y217933D01*
X884435Y217958D01*
X884482Y218125D01*
X884533Y218291D01*
X884535Y218319D01*
X884543Y218346D01*
X884556Y218519D01*
X884573Y218692D01*
X884570Y218720D01*
X884572Y218747D01*
X884550Y218920D01*
X884533Y219093D01*
X884525Y219119D01*
X884522Y219147D01*
X884515Y219168D01*
X884426Y219443D01*
X884416Y219478D01*
X884412Y219485D01*
X883411Y221900D01*
X883411Y224124D01*
X884262Y226178D01*
X885834Y227750D01*
X887888Y228601D01*
X890112Y228601D01*
X892166Y227750D01*
X893738Y226178D01*
X894589Y224124D01*
X894589Y221900D01*
X893583Y219473D01*
X893583Y219472D01*
X893578Y219463D01*
X893570Y219437D01*
X893558Y219412D01*
X893513Y219243D01*
X893464Y219077D01*
X893461Y219049D01*
X893454Y219023D01*
X893443Y218850D01*
X893427Y218676D01*
X893430Y218649D01*
X893428Y218621D01*
X893452Y218449D01*
X893471Y218276D01*
X893479Y218249D01*
X893483Y218222D01*
X893510Y218143D01*
X893583Y217915D01*
X893589Y217900D01*
X893592Y217892D01*
X893595Y217886D01*
X894589Y215488D01*
X894589Y213264D01*
X893583Y210837D01*
X893583Y210836D01*
X893578Y210827D01*
X893570Y210801D01*
X893558Y210776D01*
X893513Y210607D01*
X893464Y210441D01*
X893461Y210414D01*
X893454Y210387D01*
X893443Y210214D01*
X893427Y210040D01*
X893430Y210012D01*
X893428Y209985D01*
X893452Y209813D01*
X893471Y209640D01*
X893479Y209613D01*
X893483Y209586D01*
X893510Y209507D01*
X893583Y209279D01*
X893589Y209264D01*
X893592Y209256D01*
X893595Y209250D01*
X894589Y206852D01*
X894589Y204628D01*
X893738Y202574D01*
X892166Y201002D01*
X890112Y200151D01*
X887888Y200151D01*
G37*
%LPD*%
%LPC*%
G36*
X401025Y117855D02*
X401025Y117855D01*
X397664Y119247D01*
X395091Y121820D01*
X393699Y125181D01*
X393699Y128819D01*
X395091Y132180D01*
X397664Y134753D01*
X401025Y136145D01*
X404663Y136145D01*
X408024Y134753D01*
X410597Y132180D01*
X411989Y128819D01*
X411989Y125181D01*
X410597Y121820D01*
X408024Y119247D01*
X404663Y117855D01*
X401025Y117855D01*
G37*
%LPD*%
%LPC*%
G36*
X644992Y357377D02*
X644992Y357377D01*
X641631Y358769D01*
X639058Y361342D01*
X637666Y364703D01*
X637666Y368341D01*
X639058Y371702D01*
X641631Y374275D01*
X644992Y375667D01*
X648630Y375667D01*
X651991Y374275D01*
X654564Y371702D01*
X655956Y368341D01*
X655956Y364703D01*
X654564Y361342D01*
X651991Y358769D01*
X648630Y357377D01*
X644992Y357377D01*
G37*
%LPD*%
%LPC*%
G36*
X643849Y117855D02*
X643849Y117855D01*
X640488Y119247D01*
X637915Y121820D01*
X636523Y125181D01*
X636523Y128819D01*
X637915Y132180D01*
X640488Y134753D01*
X643849Y136145D01*
X647487Y136145D01*
X650848Y134753D01*
X653421Y132180D01*
X654813Y128819D01*
X654813Y125181D01*
X653421Y121820D01*
X650848Y119247D01*
X647487Y117855D01*
X643849Y117855D01*
G37*
%LPD*%
%LPC*%
G36*
X426425Y117855D02*
X426425Y117855D01*
X423064Y119247D01*
X420491Y121820D01*
X419099Y125181D01*
X419099Y128819D01*
X420491Y132180D01*
X423064Y134753D01*
X426425Y136145D01*
X430063Y136145D01*
X433424Y134753D01*
X435997Y132180D01*
X437389Y128819D01*
X437389Y125181D01*
X435997Y121820D01*
X433424Y119247D01*
X430063Y117855D01*
X426425Y117855D01*
G37*
%LPD*%
%LPC*%
G36*
X940615Y123406D02*
X940615Y123406D01*
X937427Y124727D01*
X934987Y127167D01*
X933666Y130355D01*
X933666Y133805D01*
X934987Y136993D01*
X937427Y139433D01*
X940615Y140754D01*
X944065Y140754D01*
X947253Y139433D01*
X949693Y136993D01*
X951014Y133805D01*
X951014Y130355D01*
X949693Y127167D01*
X947253Y124727D01*
X944065Y123406D01*
X940615Y123406D01*
G37*
%LPD*%
%LPC*%
G36*
X315775Y122136D02*
X315775Y122136D01*
X312587Y123457D01*
X310147Y125897D01*
X308826Y129085D01*
X308826Y132535D01*
X310147Y135723D01*
X312587Y138163D01*
X315775Y139484D01*
X319225Y139484D01*
X322413Y138163D01*
X324853Y135723D01*
X326174Y132535D01*
X326174Y129085D01*
X324853Y125897D01*
X322413Y123457D01*
X319225Y122136D01*
X315775Y122136D01*
G37*
%LPD*%
%LPC*%
G36*
X639625Y279616D02*
X639625Y279616D01*
X636437Y280937D01*
X633997Y283377D01*
X632676Y286565D01*
X632676Y290015D01*
X633997Y293203D01*
X636437Y295643D01*
X639625Y296964D01*
X643075Y296964D01*
X646263Y295643D01*
X648703Y293203D01*
X650024Y290015D01*
X650024Y286565D01*
X648703Y283377D01*
X646263Y280937D01*
X643075Y279616D01*
X639625Y279616D01*
G37*
%LPD*%
%LPC*%
G36*
X619305Y158966D02*
X619305Y158966D01*
X616117Y160287D01*
X613677Y162727D01*
X612356Y165915D01*
X612356Y169365D01*
X613677Y172553D01*
X616117Y174993D01*
X619305Y176314D01*
X622755Y176314D01*
X625943Y174993D01*
X628383Y172553D01*
X629704Y169365D01*
X629704Y165915D01*
X628383Y162727D01*
X625943Y160287D01*
X622755Y158966D01*
X619305Y158966D01*
G37*
%LPD*%
%LPC*%
G36*
X666295Y279616D02*
X666295Y279616D01*
X663107Y280937D01*
X660667Y283377D01*
X659346Y286565D01*
X659346Y290015D01*
X660667Y293203D01*
X663107Y295643D01*
X666295Y296964D01*
X669745Y296964D01*
X672933Y295643D01*
X675373Y293203D01*
X676694Y290015D01*
X676694Y286565D01*
X675373Y283377D01*
X672933Y280937D01*
X669745Y279616D01*
X666295Y279616D01*
G37*
%LPD*%
%LPC*%
G36*
X153215Y94196D02*
X153215Y94196D01*
X150027Y95517D01*
X147587Y97957D01*
X146266Y101145D01*
X146266Y104595D01*
X147587Y107783D01*
X150027Y110223D01*
X153215Y111544D01*
X156665Y111544D01*
X159853Y110223D01*
X162293Y107783D01*
X163614Y104595D01*
X163614Y101145D01*
X162293Y97957D01*
X159853Y95517D01*
X156665Y94196D01*
X153215Y94196D01*
G37*
%LPD*%
%LPC*%
G36*
X151945Y133566D02*
X151945Y133566D01*
X148757Y134887D01*
X146317Y137327D01*
X144996Y140515D01*
X144996Y143965D01*
X146317Y147153D01*
X148757Y149593D01*
X151945Y150914D01*
X155395Y150914D01*
X158583Y149593D01*
X161023Y147153D01*
X162344Y143965D01*
X162344Y140515D01*
X161023Y137327D01*
X158583Y134887D01*
X155395Y133566D01*
X151945Y133566D01*
G37*
%LPD*%
%LPC*%
G36*
X315775Y143726D02*
X315775Y143726D01*
X312587Y145047D01*
X310147Y147487D01*
X308826Y150675D01*
X308826Y154125D01*
X310147Y157313D01*
X312587Y159753D01*
X315775Y161074D01*
X319225Y161074D01*
X322413Y159753D01*
X324853Y157313D01*
X326174Y154125D01*
X326174Y150675D01*
X324853Y147487D01*
X322413Y145047D01*
X319225Y143726D01*
X315775Y143726D01*
G37*
%LPD*%
%LPC*%
G36*
X275647Y143763D02*
X275647Y143763D01*
X273406Y144691D01*
X271691Y146406D01*
X270763Y148647D01*
X270763Y148736D01*
X270762Y148745D01*
X270763Y148754D01*
X270742Y148944D01*
X270723Y149136D01*
X270721Y149145D01*
X270720Y149154D01*
X270662Y149336D01*
X270605Y149521D01*
X270601Y149529D01*
X270598Y149538D01*
X270506Y149705D01*
X270413Y149875D01*
X270408Y149882D01*
X270403Y149890D01*
X270278Y150038D01*
X270156Y150185D01*
X270149Y150190D01*
X270143Y150197D01*
X269991Y150317D01*
X269842Y150437D01*
X269834Y150441D01*
X269827Y150447D01*
X269655Y150534D01*
X269485Y150622D01*
X269476Y150625D01*
X269468Y150629D01*
X269284Y150680D01*
X269098Y150734D01*
X269089Y150735D01*
X269080Y150737D01*
X268889Y150751D01*
X268696Y150767D01*
X268688Y150766D01*
X268679Y150766D01*
X268486Y150742D01*
X268297Y150720D01*
X268288Y150717D01*
X268279Y150716D01*
X268096Y150654D01*
X267914Y150595D01*
X267906Y150590D01*
X267897Y150588D01*
X267731Y150492D01*
X267563Y150397D01*
X267556Y150391D01*
X267549Y150387D01*
X267336Y150206D01*
X265272Y149351D01*
X263048Y149351D01*
X260994Y150202D01*
X259422Y151774D01*
X258571Y153828D01*
X258571Y156052D01*
X259422Y158106D01*
X260994Y159678D01*
X263048Y160529D01*
X265272Y160529D01*
X267326Y159678D01*
X268898Y158106D01*
X269778Y155981D01*
X269789Y155874D01*
X269791Y155865D01*
X269792Y155857D01*
X269850Y155673D01*
X269907Y155489D01*
X269911Y155481D01*
X269914Y155473D01*
X270007Y155304D01*
X270099Y155135D01*
X270104Y155128D01*
X270109Y155120D01*
X270234Y154973D01*
X270356Y154826D01*
X270363Y154820D01*
X270369Y154813D01*
X270520Y154694D01*
X270670Y154574D01*
X270678Y154569D01*
X270685Y154564D01*
X270858Y154476D01*
X271027Y154388D01*
X271036Y154386D01*
X271044Y154381D01*
X271230Y154330D01*
X271414Y154277D01*
X271423Y154276D01*
X271432Y154273D01*
X271624Y154259D01*
X271816Y154244D01*
X271824Y154245D01*
X271833Y154244D01*
X272025Y154268D01*
X272215Y154291D01*
X272224Y154293D01*
X272233Y154295D01*
X272414Y154356D01*
X272598Y154415D01*
X272606Y154420D01*
X272614Y154423D01*
X272780Y154518D01*
X272949Y154613D01*
X272956Y154619D01*
X272963Y154624D01*
X273216Y154838D01*
X273406Y155029D01*
X275647Y155957D01*
X278073Y155957D01*
X280314Y155029D01*
X282029Y153314D01*
X282957Y151073D01*
X282957Y148647D01*
X282029Y146406D01*
X280314Y144691D01*
X278073Y143763D01*
X275647Y143763D01*
G37*
%LPD*%
%LPC*%
G36*
X797871Y201675D02*
X797871Y201675D01*
X795630Y202603D01*
X793915Y204318D01*
X793158Y206147D01*
X793149Y206163D01*
X793144Y206180D01*
X793054Y206341D01*
X792968Y206502D01*
X792956Y206516D01*
X792948Y206532D01*
X792828Y206672D01*
X792711Y206813D01*
X792697Y206824D01*
X792686Y206838D01*
X792541Y206951D01*
X792399Y207066D01*
X792383Y207075D01*
X792369Y207086D01*
X792205Y207168D01*
X792042Y207254D01*
X792025Y207259D01*
X792009Y207267D01*
X791833Y207315D01*
X791656Y207367D01*
X791638Y207368D01*
X791621Y207373D01*
X791438Y207385D01*
X791255Y207401D01*
X791237Y207399D01*
X791219Y207400D01*
X791038Y207377D01*
X790855Y207356D01*
X790837Y207351D01*
X790820Y207348D01*
X790555Y207263D01*
X788320Y207263D01*
X786266Y208114D01*
X784694Y209686D01*
X783843Y211740D01*
X783843Y213964D01*
X784694Y216018D01*
X786266Y217590D01*
X787755Y218207D01*
X787756Y218207D01*
X788320Y218441D01*
X790544Y218441D01*
X792598Y217590D01*
X794170Y216018D01*
X794694Y214751D01*
X794703Y214736D01*
X794708Y214719D01*
X794798Y214558D01*
X794885Y214397D01*
X794896Y214383D01*
X794905Y214367D01*
X795024Y214228D01*
X795141Y214086D01*
X795155Y214075D01*
X795167Y214061D01*
X795311Y213948D01*
X795454Y213832D01*
X795470Y213824D01*
X795484Y213813D01*
X795647Y213731D01*
X795810Y213645D01*
X795827Y213640D01*
X795843Y213632D01*
X796020Y213584D01*
X796197Y213532D01*
X796214Y213531D01*
X796232Y213526D01*
X796415Y213514D01*
X796598Y213498D01*
X796616Y213500D01*
X796633Y213498D01*
X796815Y213522D01*
X796998Y213543D01*
X797015Y213548D01*
X797033Y213551D01*
X797348Y213652D01*
X797871Y213869D01*
X800297Y213869D01*
X802538Y212941D01*
X804253Y211226D01*
X805181Y208985D01*
X805181Y206559D01*
X804253Y204318D01*
X802538Y202603D01*
X800297Y201675D01*
X797871Y201675D01*
G37*
%LPD*%
%LPC*%
G36*
X826827Y268223D02*
X826827Y268223D01*
X824586Y269151D01*
X822871Y270866D01*
X821943Y273107D01*
X821943Y275533D01*
X822871Y277774D01*
X824586Y279489D01*
X826827Y280417D01*
X829253Y280417D01*
X831493Y279489D01*
X832043Y278939D01*
X832057Y278928D01*
X832068Y278914D01*
X832212Y278801D01*
X832354Y278684D01*
X832370Y278676D01*
X832384Y278665D01*
X832547Y278582D01*
X832710Y278495D01*
X832727Y278490D01*
X832743Y278482D01*
X832920Y278433D01*
X833096Y278381D01*
X833114Y278379D01*
X833131Y278374D01*
X833314Y278361D01*
X833497Y278344D01*
X833515Y278346D01*
X833533Y278345D01*
X833714Y278368D01*
X833897Y278388D01*
X833914Y278393D01*
X833932Y278395D01*
X834106Y278454D01*
X834281Y278509D01*
X834297Y278518D01*
X834314Y278524D01*
X834473Y278615D01*
X834633Y278704D01*
X834647Y278716D01*
X834663Y278725D01*
X834916Y278939D01*
X835034Y279058D01*
X837088Y279909D01*
X839312Y279909D01*
X841366Y279058D01*
X842938Y277486D01*
X843789Y275432D01*
X843789Y273208D01*
X842938Y271154D01*
X841366Y269582D01*
X839312Y268731D01*
X837088Y268731D01*
X835034Y269582D01*
X834916Y269701D01*
X834902Y269712D01*
X834890Y269726D01*
X834746Y269840D01*
X834604Y269956D01*
X834588Y269964D01*
X834574Y269975D01*
X834410Y270059D01*
X834248Y270144D01*
X834231Y270150D01*
X834215Y270158D01*
X834038Y270207D01*
X833862Y270259D01*
X833845Y270261D01*
X833827Y270266D01*
X833644Y270279D01*
X833462Y270296D01*
X833444Y270294D01*
X833426Y270295D01*
X833244Y270272D01*
X833061Y270252D01*
X833044Y270247D01*
X833026Y270245D01*
X832853Y270186D01*
X832677Y270131D01*
X832662Y270122D01*
X832645Y270116D01*
X832486Y270025D01*
X832325Y269936D01*
X832311Y269924D01*
X832296Y269915D01*
X832043Y269701D01*
X831493Y269151D01*
X829253Y268223D01*
X826827Y268223D01*
G37*
%LPD*%
%LPC*%
G36*
X524668Y261111D02*
X524668Y261111D01*
X522614Y261962D01*
X521042Y263534D01*
X520191Y265588D01*
X520191Y267812D01*
X521042Y269866D01*
X522614Y271438D01*
X524668Y272289D01*
X526892Y272289D01*
X528946Y271438D01*
X530694Y269690D01*
X530708Y269679D01*
X530719Y269665D01*
X530864Y269551D01*
X531005Y269435D01*
X531021Y269427D01*
X531035Y269415D01*
X531199Y269332D01*
X531361Y269246D01*
X531378Y269241D01*
X531394Y269233D01*
X531571Y269184D01*
X531747Y269132D01*
X531765Y269130D01*
X531782Y269125D01*
X531965Y269112D01*
X532148Y269095D01*
X532166Y269097D01*
X532183Y269096D01*
X532365Y269119D01*
X532548Y269139D01*
X532565Y269144D01*
X532583Y269146D01*
X532756Y269204D01*
X532932Y269260D01*
X532948Y269269D01*
X532964Y269274D01*
X533123Y269366D01*
X533284Y269455D01*
X533298Y269466D01*
X533313Y269475D01*
X533566Y269690D01*
X535314Y271438D01*
X537368Y272289D01*
X539592Y272289D01*
X541646Y271438D01*
X543218Y269866D01*
X544069Y267812D01*
X544069Y265588D01*
X543218Y263534D01*
X541646Y261962D01*
X539592Y261111D01*
X537368Y261111D01*
X535314Y261962D01*
X533566Y263710D01*
X533553Y263721D01*
X533541Y263735D01*
X533397Y263849D01*
X533255Y263965D01*
X533239Y263973D01*
X533225Y263985D01*
X533061Y264068D01*
X532899Y264154D01*
X532882Y264159D01*
X532866Y264167D01*
X532689Y264216D01*
X532513Y264268D01*
X532495Y264270D01*
X532478Y264275D01*
X532295Y264288D01*
X532112Y264305D01*
X532094Y264303D01*
X532077Y264304D01*
X531895Y264281D01*
X531712Y264261D01*
X531695Y264256D01*
X531677Y264254D01*
X531504Y264196D01*
X531328Y264140D01*
X531312Y264131D01*
X531296Y264126D01*
X531137Y264034D01*
X530976Y263945D01*
X530962Y263934D01*
X530947Y263925D01*
X530694Y263710D01*
X528946Y261962D01*
X526892Y261111D01*
X524668Y261111D01*
G37*
%LPD*%
%LPC*%
G36*
X865028Y276351D02*
X865028Y276351D01*
X862974Y277202D01*
X861402Y278774D01*
X860551Y280828D01*
X860551Y283052D01*
X861402Y285106D01*
X862974Y286678D01*
X864402Y287269D01*
X865028Y287529D01*
X867252Y287529D01*
X869306Y286678D01*
X871054Y284930D01*
X871067Y284919D01*
X871079Y284905D01*
X871223Y284791D01*
X871365Y284675D01*
X871381Y284667D01*
X871395Y284655D01*
X871559Y284572D01*
X871721Y284486D01*
X871738Y284481D01*
X871754Y284473D01*
X871931Y284424D01*
X872107Y284372D01*
X872125Y284370D01*
X872142Y284365D01*
X872325Y284352D01*
X872508Y284335D01*
X872526Y284337D01*
X872543Y284336D01*
X872725Y284359D01*
X872908Y284379D01*
X872925Y284384D01*
X872943Y284386D01*
X873116Y284444D01*
X873292Y284500D01*
X873308Y284509D01*
X873324Y284514D01*
X873483Y284606D01*
X873644Y284695D01*
X873658Y284706D01*
X873673Y284715D01*
X873926Y284930D01*
X875674Y286678D01*
X877102Y287269D01*
X877728Y287529D01*
X879952Y287529D01*
X882006Y286678D01*
X883578Y285106D01*
X884429Y283052D01*
X884429Y280828D01*
X883578Y278774D01*
X882006Y277202D01*
X881028Y276797D01*
X879952Y276351D01*
X877728Y276351D01*
X875674Y277202D01*
X873926Y278950D01*
X873912Y278961D01*
X873901Y278975D01*
X873757Y279089D01*
X873615Y279205D01*
X873599Y279213D01*
X873585Y279225D01*
X873421Y279308D01*
X873259Y279394D01*
X873242Y279399D01*
X873226Y279407D01*
X873049Y279456D01*
X872873Y279508D01*
X872855Y279510D01*
X872838Y279515D01*
X872655Y279528D01*
X872472Y279545D01*
X872454Y279543D01*
X872437Y279544D01*
X872255Y279521D01*
X872072Y279501D01*
X872055Y279496D01*
X872037Y279494D01*
X871863Y279435D01*
X871688Y279380D01*
X871672Y279371D01*
X871656Y279366D01*
X871497Y279274D01*
X871336Y279185D01*
X871322Y279174D01*
X871307Y279165D01*
X871054Y278950D01*
X869306Y277202D01*
X868328Y276797D01*
X867252Y276351D01*
X865028Y276351D01*
G37*
%LPD*%
%LPC*%
G36*
X387508Y154431D02*
X387508Y154431D01*
X385454Y155282D01*
X383882Y156854D01*
X383031Y158908D01*
X383031Y160444D01*
X383030Y160458D01*
X383031Y160471D01*
X383010Y160656D01*
X382991Y160845D01*
X382987Y160858D01*
X382986Y160871D01*
X382929Y161048D01*
X382873Y161230D01*
X382867Y161242D01*
X382863Y161254D01*
X382772Y161417D01*
X382681Y161584D01*
X382673Y161594D01*
X382666Y161606D01*
X382544Y161749D01*
X382424Y161893D01*
X382413Y161901D01*
X382405Y161912D01*
X382256Y162028D01*
X382110Y162145D01*
X382098Y162152D01*
X382088Y162160D01*
X381919Y162245D01*
X381753Y162331D01*
X381740Y162335D01*
X381728Y162341D01*
X381546Y162391D01*
X381366Y162442D01*
X381352Y162443D01*
X381339Y162447D01*
X381152Y162460D01*
X380964Y162475D01*
X380951Y162474D01*
X380938Y162475D01*
X380750Y162450D01*
X380565Y162428D01*
X380552Y162424D01*
X380539Y162422D01*
X380223Y162321D01*
X379572Y162051D01*
X377348Y162051D01*
X375294Y162902D01*
X373722Y164474D01*
X372871Y166528D01*
X372871Y168752D01*
X373722Y170806D01*
X375294Y172378D01*
X377348Y173229D01*
X379572Y173229D01*
X381626Y172378D01*
X383198Y170806D01*
X384049Y168752D01*
X384049Y167216D01*
X384050Y167202D01*
X384049Y167189D01*
X384070Y167003D01*
X384089Y166815D01*
X384093Y166802D01*
X384094Y166789D01*
X384151Y166611D01*
X384207Y166430D01*
X384213Y166418D01*
X384217Y166406D01*
X384309Y166242D01*
X384399Y166076D01*
X384407Y166066D01*
X384414Y166054D01*
X384536Y165911D01*
X384656Y165767D01*
X384667Y165759D01*
X384675Y165748D01*
X384824Y165632D01*
X384970Y165515D01*
X384982Y165508D01*
X384992Y165500D01*
X385162Y165415D01*
X385327Y165329D01*
X385340Y165325D01*
X385352Y165319D01*
X385534Y165269D01*
X385714Y165218D01*
X385728Y165217D01*
X385741Y165213D01*
X385928Y165200D01*
X386116Y165185D01*
X386129Y165186D01*
X386142Y165185D01*
X386330Y165210D01*
X386515Y165232D01*
X386528Y165236D01*
X386541Y165238D01*
X386857Y165339D01*
X387508Y165609D01*
X389732Y165609D01*
X391786Y164758D01*
X393358Y163186D01*
X394209Y161132D01*
X394209Y158908D01*
X393358Y156854D01*
X391786Y155282D01*
X389732Y154431D01*
X387508Y154431D01*
G37*
%LPD*%
%LPC*%
G36*
X280828Y174751D02*
X280828Y174751D01*
X278774Y175602D01*
X277202Y177174D01*
X276351Y179228D01*
X276351Y181452D01*
X277202Y183506D01*
X278774Y185078D01*
X280828Y185929D01*
X283052Y185929D01*
X284813Y185199D01*
X284830Y185194D01*
X284846Y185186D01*
X285023Y185136D01*
X285198Y185083D01*
X285216Y185081D01*
X285233Y185076D01*
X285416Y185062D01*
X285599Y185045D01*
X285617Y185046D01*
X285635Y185045D01*
X285817Y185067D01*
X286000Y185086D01*
X286017Y185092D01*
X286035Y185094D01*
X286209Y185152D01*
X286384Y185206D01*
X286400Y185215D01*
X286417Y185220D01*
X286576Y185311D01*
X286737Y185399D01*
X286751Y185411D01*
X286766Y185420D01*
X286905Y185540D01*
X287045Y185659D01*
X287056Y185673D01*
X287070Y185684D01*
X287182Y185830D01*
X287296Y185973D01*
X287303Y185987D01*
X288934Y187618D01*
X290988Y188469D01*
X293212Y188469D01*
X295266Y187618D01*
X296838Y186046D01*
X297689Y183992D01*
X297689Y181768D01*
X296838Y179714D01*
X295266Y178142D01*
X293212Y177291D01*
X290988Y177291D01*
X289227Y178021D01*
X289210Y178026D01*
X289194Y178034D01*
X289017Y178084D01*
X288842Y178137D01*
X288824Y178139D01*
X288807Y178144D01*
X288624Y178158D01*
X288441Y178175D01*
X288423Y178174D01*
X288405Y178175D01*
X288223Y178153D01*
X288040Y178134D01*
X288023Y178128D01*
X288005Y178126D01*
X287831Y178068D01*
X287656Y178014D01*
X287640Y178005D01*
X287623Y178000D01*
X287464Y177909D01*
X287303Y177821D01*
X287289Y177809D01*
X287274Y177800D01*
X287135Y177680D01*
X286995Y177561D01*
X286984Y177547D01*
X286970Y177536D01*
X286858Y177390D01*
X286744Y177247D01*
X286737Y177233D01*
X285106Y175602D01*
X284218Y175235D01*
X284218Y175234D01*
X283052Y174751D01*
X280828Y174751D01*
G37*
%LPD*%
%LPC*%
G36*
X392588Y202691D02*
X392588Y202691D01*
X390534Y203542D01*
X388896Y205180D01*
X388877Y205216D01*
X388865Y205230D01*
X388857Y205246D01*
X388737Y205385D01*
X388620Y205527D01*
X388606Y205538D01*
X388595Y205552D01*
X388450Y205665D01*
X388308Y205780D01*
X388292Y205789D01*
X388278Y205800D01*
X388114Y205882D01*
X387951Y205967D01*
X387934Y205972D01*
X387918Y205981D01*
X387741Y206029D01*
X387565Y206081D01*
X387547Y206082D01*
X387530Y206087D01*
X387346Y206099D01*
X387164Y206115D01*
X387146Y206113D01*
X387128Y206114D01*
X386945Y206091D01*
X386764Y206070D01*
X386747Y206065D01*
X386729Y206062D01*
X386413Y205961D01*
X384652Y205231D01*
X382428Y205231D01*
X380374Y206082D01*
X378802Y207654D01*
X377951Y209708D01*
X377951Y211932D01*
X378802Y213986D01*
X380374Y215558D01*
X381865Y216176D01*
X382428Y216409D01*
X384652Y216409D01*
X386706Y215558D01*
X388344Y213920D01*
X388363Y213884D01*
X388375Y213870D01*
X388383Y213854D01*
X388503Y213715D01*
X388620Y213573D01*
X388634Y213562D01*
X388645Y213548D01*
X388790Y213435D01*
X388932Y213320D01*
X388948Y213311D01*
X388962Y213300D01*
X389126Y213218D01*
X389289Y213133D01*
X389306Y213128D01*
X389322Y213119D01*
X389499Y213071D01*
X389675Y213019D01*
X389693Y213018D01*
X389710Y213013D01*
X389894Y213001D01*
X390076Y212985D01*
X390094Y212987D01*
X390112Y212986D01*
X390295Y213009D01*
X390476Y213030D01*
X390493Y213035D01*
X390511Y213038D01*
X390827Y213139D01*
X392588Y213869D01*
X394812Y213869D01*
X396866Y213018D01*
X398438Y211446D01*
X399289Y209392D01*
X399289Y207168D01*
X398438Y205114D01*
X396866Y203542D01*
X394812Y202691D01*
X392588Y202691D01*
G37*
%LPD*%
%LPC*%
G36*
X618648Y282447D02*
X618648Y282447D01*
X616594Y283298D01*
X615022Y284870D01*
X614171Y286924D01*
X614171Y289148D01*
X614583Y290140D01*
X614589Y290162D01*
X614599Y290182D01*
X614647Y290355D01*
X614699Y290526D01*
X614701Y290548D01*
X614707Y290570D01*
X614720Y290749D01*
X614737Y290927D01*
X614735Y290949D01*
X614736Y290971D01*
X614714Y291149D01*
X614695Y291327D01*
X614689Y291348D01*
X614686Y291371D01*
X614629Y291540D01*
X614576Y291712D01*
X614565Y291731D01*
X614558Y291752D01*
X614469Y291907D01*
X614382Y292065D01*
X614368Y292082D01*
X614357Y292101D01*
X614142Y292354D01*
X612482Y294014D01*
X611631Y296068D01*
X611631Y298292D01*
X612482Y300346D01*
X614054Y301918D01*
X616108Y302769D01*
X618332Y302769D01*
X620386Y301918D01*
X621958Y300346D01*
X622809Y298292D01*
X622809Y296068D01*
X622397Y295076D01*
X622391Y295054D01*
X622381Y295034D01*
X622333Y294861D01*
X622281Y294690D01*
X622279Y294668D01*
X622273Y294646D01*
X622260Y294467D01*
X622243Y294289D01*
X622245Y294267D01*
X622244Y294245D01*
X622266Y294067D01*
X622285Y293889D01*
X622291Y293868D01*
X622294Y293845D01*
X622351Y293676D01*
X622404Y293504D01*
X622415Y293485D01*
X622422Y293464D01*
X622511Y293309D01*
X622598Y293151D01*
X622612Y293134D01*
X622623Y293115D01*
X622838Y292862D01*
X624498Y291202D01*
X625349Y289148D01*
X625349Y286924D01*
X624498Y284870D01*
X622926Y283298D01*
X620872Y282447D01*
X618648Y282447D01*
G37*
%LPD*%
%LPC*%
G36*
X265588Y80771D02*
X265588Y80771D01*
X263534Y81622D01*
X261962Y83194D01*
X261111Y85248D01*
X261111Y87472D01*
X261962Y89526D01*
X263534Y91098D01*
X265588Y91949D01*
X267124Y91949D01*
X267147Y91951D01*
X267169Y91949D01*
X267346Y91971D01*
X267525Y91989D01*
X267546Y91995D01*
X267568Y91998D01*
X267738Y92054D01*
X267910Y92107D01*
X267929Y92117D01*
X267951Y92124D01*
X268107Y92213D01*
X268264Y92299D01*
X268281Y92313D01*
X268300Y92324D01*
X268436Y92442D01*
X268573Y92556D01*
X268587Y92574D01*
X268604Y92588D01*
X268713Y92731D01*
X268825Y92870D01*
X268836Y92890D01*
X268849Y92907D01*
X269001Y93203D01*
X269582Y94606D01*
X271154Y96178D01*
X271526Y96332D01*
X273208Y97029D01*
X275432Y97029D01*
X277486Y96178D01*
X279058Y94606D01*
X279909Y92552D01*
X279909Y90328D01*
X279058Y88274D01*
X277486Y86702D01*
X275452Y85860D01*
X275451Y85859D01*
X275432Y85851D01*
X273896Y85851D01*
X273873Y85849D01*
X273851Y85851D01*
X273674Y85829D01*
X273495Y85811D01*
X273474Y85805D01*
X273452Y85802D01*
X273282Y85746D01*
X273110Y85693D01*
X273090Y85683D01*
X273069Y85676D01*
X272914Y85587D01*
X272756Y85501D01*
X272739Y85487D01*
X272720Y85476D01*
X272585Y85359D01*
X272447Y85244D01*
X272433Y85226D01*
X272416Y85212D01*
X272307Y85070D01*
X272195Y84930D01*
X272184Y84910D01*
X272171Y84892D01*
X272019Y84597D01*
X271438Y83194D01*
X269866Y81622D01*
X267812Y80771D01*
X265588Y80771D01*
G37*
%LPD*%
%LPC*%
G36*
X862488Y243331D02*
X862488Y243331D01*
X860434Y244182D01*
X858862Y245754D01*
X858011Y247808D01*
X858011Y250032D01*
X858862Y252086D01*
X860434Y253658D01*
X862488Y254509D01*
X864712Y254509D01*
X866836Y253629D01*
X866920Y253560D01*
X866936Y253552D01*
X866950Y253540D01*
X867114Y253457D01*
X867276Y253371D01*
X867293Y253366D01*
X867309Y253358D01*
X867487Y253309D01*
X867662Y253257D01*
X867679Y253255D01*
X867697Y253250D01*
X867880Y253237D01*
X868063Y253220D01*
X868080Y253222D01*
X868098Y253221D01*
X868281Y253244D01*
X868463Y253263D01*
X868480Y253269D01*
X868498Y253271D01*
X868671Y253329D01*
X868847Y253385D01*
X868862Y253394D01*
X868879Y253399D01*
X869038Y253491D01*
X869199Y253580D01*
X869213Y253591D01*
X869228Y253600D01*
X869269Y253635D01*
X871378Y254509D01*
X873602Y254509D01*
X875656Y253658D01*
X877228Y252086D01*
X878079Y250032D01*
X878079Y247808D01*
X877228Y245754D01*
X875656Y244182D01*
X873602Y243331D01*
X871378Y243331D01*
X869254Y244211D01*
X869170Y244280D01*
X869154Y244289D01*
X869140Y244300D01*
X868976Y244383D01*
X868814Y244469D01*
X868797Y244474D01*
X868781Y244482D01*
X868603Y244531D01*
X868428Y244583D01*
X868410Y244585D01*
X868393Y244590D01*
X868211Y244603D01*
X868027Y244620D01*
X868009Y244618D01*
X867991Y244619D01*
X867811Y244596D01*
X867627Y244576D01*
X867610Y244571D01*
X867592Y244569D01*
X867419Y244511D01*
X867243Y244455D01*
X867227Y244446D01*
X867210Y244441D01*
X867051Y244349D01*
X866891Y244260D01*
X866877Y244249D01*
X866861Y244240D01*
X866820Y244205D01*
X864712Y243331D01*
X862488Y243331D01*
G37*
%LPD*%
%LPC*%
G36*
X799614Y131897D02*
X799614Y131897D01*
X796840Y133046D01*
X794716Y135170D01*
X793567Y137944D01*
X793567Y140948D01*
X794716Y143722D01*
X796840Y145846D01*
X799614Y146995D01*
X802618Y146995D01*
X805392Y145846D01*
X807516Y143722D01*
X808665Y140948D01*
X808665Y137944D01*
X807516Y135170D01*
X805392Y133046D01*
X804262Y132578D01*
X804261Y132578D01*
X802618Y131897D01*
X799614Y131897D01*
G37*
%LPD*%
%LPC*%
G36*
X887787Y109473D02*
X887787Y109473D01*
X885546Y110401D01*
X883831Y112116D01*
X883467Y112997D01*
X883465Y113001D01*
X883463Y113005D01*
X883371Y113176D01*
X883276Y113352D01*
X883274Y113356D01*
X883271Y113360D01*
X883146Y113510D01*
X883020Y113663D01*
X883017Y113665D01*
X883014Y113669D01*
X882863Y113790D01*
X882707Y113916D01*
X882703Y113918D01*
X882700Y113921D01*
X882528Y114010D01*
X882476Y114038D01*
X882588Y114180D01*
X882590Y114184D01*
X882592Y114188D01*
X882679Y114363D01*
X882768Y114540D01*
X882770Y114544D01*
X882772Y114548D01*
X882822Y114737D01*
X882875Y114928D01*
X882875Y114933D01*
X882876Y114937D01*
X882903Y115268D01*
X882903Y116783D01*
X883831Y119024D01*
X885546Y120739D01*
X887787Y121667D01*
X890213Y121667D01*
X892454Y120739D01*
X894169Y119024D01*
X895097Y116783D01*
X895097Y114357D01*
X894169Y112116D01*
X892454Y110401D01*
X892051Y110235D01*
X892050Y110234D01*
X890213Y109473D01*
X887787Y109473D01*
G37*
%LPD*%
%LPC*%
G36*
X878897Y129793D02*
X878897Y129793D01*
X876656Y130721D01*
X874941Y132436D01*
X874013Y134677D01*
X874013Y135074D01*
X874013Y135079D01*
X874013Y135083D01*
X873993Y135277D01*
X873973Y135475D01*
X873972Y135479D01*
X873972Y135484D01*
X873914Y135669D01*
X873855Y135860D01*
X873853Y135864D01*
X873852Y135868D01*
X873758Y136040D01*
X873663Y136214D01*
X873661Y136217D01*
X873658Y136221D01*
X873570Y136326D01*
X873645Y136424D01*
X873765Y136579D01*
X873767Y136583D01*
X873770Y136586D01*
X873922Y136881D01*
X874941Y139344D01*
X876656Y141059D01*
X878897Y141987D01*
X881323Y141987D01*
X883564Y141059D01*
X885279Y139344D01*
X886207Y137103D01*
X886207Y134677D01*
X885279Y132436D01*
X883564Y130721D01*
X881323Y129793D01*
X878897Y129793D01*
G37*
%LPD*%
%LPC*%
G36*
X589591Y235711D02*
X589591Y235711D01*
X587350Y236639D01*
X585635Y238354D01*
X584707Y240595D01*
X584707Y243021D01*
X585635Y245262D01*
X587350Y246977D01*
X589591Y247905D01*
X592017Y247905D01*
X594258Y246977D01*
X595973Y245262D01*
X596901Y243021D01*
X596901Y240595D01*
X595973Y238354D01*
X594258Y236639D01*
X592017Y235711D01*
X589591Y235711D01*
G37*
%LPD*%
%LPC*%
G36*
X174047Y230123D02*
X174047Y230123D01*
X171806Y231051D01*
X170091Y232766D01*
X169163Y235007D01*
X169163Y237433D01*
X170091Y239674D01*
X171806Y241389D01*
X174047Y242317D01*
X176473Y242317D01*
X178714Y241389D01*
X180429Y239674D01*
X181357Y237433D01*
X181357Y235007D01*
X180429Y232766D01*
X178714Y231051D01*
X176473Y230123D01*
X174047Y230123D01*
G37*
%LPD*%
%LPC*%
G36*
X822255Y-94997D02*
X822255Y-94997D01*
X820014Y-94069D01*
X818299Y-92354D01*
X817371Y-90113D01*
X817371Y-87687D01*
X818299Y-85446D01*
X820014Y-83731D01*
X822255Y-82803D01*
X824681Y-82803D01*
X826922Y-83731D01*
X828637Y-85446D01*
X829565Y-87687D01*
X829565Y-90113D01*
X828637Y-92354D01*
X826922Y-94069D01*
X824681Y-94997D01*
X822255Y-94997D01*
G37*
%LPD*%
%LPC*%
G36*
X229927Y219963D02*
X229927Y219963D01*
X227686Y220891D01*
X225971Y222606D01*
X225043Y224847D01*
X225043Y227273D01*
X225971Y229514D01*
X227686Y231229D01*
X229927Y232157D01*
X232353Y232157D01*
X234594Y231229D01*
X236309Y229514D01*
X237237Y227273D01*
X237237Y224847D01*
X236309Y222606D01*
X234594Y220891D01*
X232353Y219963D01*
X229927Y219963D01*
G37*
%LPD*%
%LPC*%
G36*
X632517Y239013D02*
X632517Y239013D01*
X630276Y239941D01*
X628561Y241656D01*
X627633Y243897D01*
X627633Y246323D01*
X628561Y248564D01*
X630276Y250279D01*
X632517Y251207D01*
X634943Y251207D01*
X637184Y250279D01*
X638899Y248564D01*
X639827Y246323D01*
X639827Y243897D01*
X638899Y241656D01*
X637184Y239941D01*
X634943Y239013D01*
X632517Y239013D01*
G37*
%LPD*%
%LPC*%
G36*
X816667Y-51817D02*
X816667Y-51817D01*
X814426Y-50889D01*
X812711Y-49174D01*
X811783Y-46933D01*
X811783Y-44507D01*
X812711Y-42266D01*
X814426Y-40551D01*
X816667Y-39623D01*
X819093Y-39623D01*
X821334Y-40551D01*
X823049Y-42266D01*
X823977Y-44507D01*
X823977Y-46933D01*
X823049Y-49174D01*
X821334Y-50889D01*
X819093Y-51817D01*
X816667Y-51817D01*
G37*
%LPD*%
%LPC*%
G36*
X701097Y213613D02*
X701097Y213613D01*
X698856Y214541D01*
X697141Y216256D01*
X696213Y218497D01*
X696213Y220923D01*
X697141Y223164D01*
X698856Y224879D01*
X701097Y225807D01*
X703523Y225807D01*
X705764Y224879D01*
X707479Y223164D01*
X708407Y220923D01*
X708407Y218497D01*
X707479Y216256D01*
X705764Y214541D01*
X703523Y213613D01*
X701097Y213613D01*
G37*
%LPD*%
%LPC*%
G36*
X885755Y-45721D02*
X885755Y-45721D01*
X883514Y-44793D01*
X881799Y-43078D01*
X880871Y-40837D01*
X880871Y-38411D01*
X881799Y-36170D01*
X883514Y-34455D01*
X885755Y-33527D01*
X888181Y-33527D01*
X890422Y-34455D01*
X892137Y-36170D01*
X893065Y-38411D01*
X893065Y-40837D01*
X892137Y-43078D01*
X890422Y-44793D01*
X888181Y-45721D01*
X885755Y-45721D01*
G37*
%LPD*%
%LPC*%
G36*
X862387Y385063D02*
X862387Y385063D01*
X860146Y385991D01*
X858431Y387706D01*
X857503Y389947D01*
X857503Y392373D01*
X858431Y394614D01*
X860146Y396329D01*
X862387Y397257D01*
X864813Y397257D01*
X867054Y396329D01*
X868769Y394614D01*
X869697Y392373D01*
X869697Y389947D01*
X868769Y387706D01*
X867054Y385991D01*
X864813Y385063D01*
X862387Y385063D01*
G37*
%LPD*%
%LPC*%
G36*
X336607Y242823D02*
X336607Y242823D01*
X334366Y243751D01*
X332651Y245466D01*
X331723Y247707D01*
X331723Y250133D01*
X332651Y252374D01*
X334366Y254089D01*
X336607Y255017D01*
X339033Y255017D01*
X341274Y254089D01*
X342989Y252374D01*
X343917Y250133D01*
X343917Y247707D01*
X342989Y245466D01*
X341274Y243751D01*
X339033Y242823D01*
X336607Y242823D01*
G37*
%LPD*%
%LPC*%
G36*
X755707Y205993D02*
X755707Y205993D01*
X753466Y206921D01*
X751751Y208636D01*
X750823Y210877D01*
X750823Y213303D01*
X751751Y215544D01*
X753466Y217259D01*
X755707Y218187D01*
X758133Y218187D01*
X760374Y217259D01*
X762089Y215544D01*
X763017Y213303D01*
X763017Y210877D01*
X762089Y208636D01*
X760374Y206921D01*
X758133Y205993D01*
X755707Y205993D01*
G37*
%LPD*%
%LPC*%
G36*
X826827Y385063D02*
X826827Y385063D01*
X824586Y385991D01*
X822871Y387706D01*
X821943Y389947D01*
X821943Y392373D01*
X822871Y394614D01*
X824586Y396329D01*
X826827Y397257D01*
X829253Y397257D01*
X831494Y396329D01*
X833209Y394614D01*
X834137Y392373D01*
X834137Y389947D01*
X833209Y387706D01*
X831494Y385991D01*
X829253Y385063D01*
X826827Y385063D01*
G37*
%LPD*%
%LPC*%
G36*
X867467Y43433D02*
X867467Y43433D01*
X865226Y44361D01*
X863511Y46076D01*
X862583Y48317D01*
X862583Y50743D01*
X863511Y52984D01*
X865226Y54699D01*
X867467Y55627D01*
X869893Y55627D01*
X872134Y54699D01*
X873849Y52984D01*
X874777Y50743D01*
X874777Y48317D01*
X873849Y46076D01*
X872134Y44361D01*
X869893Y43433D01*
X867467Y43433D01*
G37*
%LPD*%
%LPC*%
G36*
X760787Y72643D02*
X760787Y72643D01*
X758546Y73571D01*
X756831Y75286D01*
X755903Y77527D01*
X755903Y79953D01*
X756831Y82194D01*
X758546Y83909D01*
X760787Y84837D01*
X763213Y84837D01*
X765454Y83909D01*
X767169Y82194D01*
X768097Y79953D01*
X768097Y77527D01*
X767169Y75286D01*
X765454Y73571D01*
X763213Y72643D01*
X760787Y72643D01*
G37*
%LPD*%
%LPC*%
G36*
X504755Y195071D02*
X504755Y195071D01*
X502514Y195999D01*
X500799Y197714D01*
X499871Y199955D01*
X499871Y202381D01*
X500799Y204622D01*
X502514Y206337D01*
X504755Y207265D01*
X507181Y207265D01*
X509422Y206337D01*
X511137Y204622D01*
X512065Y202381D01*
X512065Y199955D01*
X511137Y197714D01*
X509422Y195999D01*
X507181Y195071D01*
X504755Y195071D01*
G37*
%LPD*%
%LPC*%
G36*
X171507Y194563D02*
X171507Y194563D01*
X169266Y195491D01*
X167551Y197206D01*
X166623Y199447D01*
X166623Y201873D01*
X167551Y204114D01*
X169266Y205829D01*
X171507Y206757D01*
X173933Y206757D01*
X176174Y205829D01*
X177889Y204114D01*
X178817Y201873D01*
X178817Y199447D01*
X177889Y197206D01*
X176174Y195491D01*
X173933Y194563D01*
X171507Y194563D01*
G37*
%LPD*%
%LPC*%
G36*
X214687Y77723D02*
X214687Y77723D01*
X212446Y78651D01*
X210731Y80366D01*
X209803Y82607D01*
X209803Y85033D01*
X210731Y87274D01*
X212446Y88989D01*
X214687Y89917D01*
X217113Y89917D01*
X219354Y88989D01*
X221069Y87274D01*
X221997Y85033D01*
X221997Y82607D01*
X221069Y80366D01*
X219354Y78651D01*
X217113Y77723D01*
X214687Y77723D01*
G37*
%LPD*%
%LPC*%
G36*
X402647Y179323D02*
X402647Y179323D01*
X400406Y180251D01*
X398691Y181966D01*
X397763Y184207D01*
X397763Y186633D01*
X398691Y188874D01*
X400406Y190589D01*
X402647Y191517D01*
X405073Y191517D01*
X407314Y190589D01*
X409029Y188874D01*
X409957Y186633D01*
X409957Y184207D01*
X409029Y181966D01*
X407314Y180251D01*
X405073Y179323D01*
X402647Y179323D01*
G37*
%LPD*%
%LPC*%
G36*
X683317Y327913D02*
X683317Y327913D01*
X681076Y328841D01*
X679361Y330556D01*
X678433Y332797D01*
X678433Y335223D01*
X679361Y337464D01*
X681076Y339179D01*
X683317Y340107D01*
X685743Y340107D01*
X687984Y339179D01*
X689699Y337464D01*
X690627Y335223D01*
X690627Y332797D01*
X689699Y330556D01*
X687984Y328841D01*
X685743Y327913D01*
X683317Y327913D01*
G37*
%LPD*%
%LPC*%
G36*
X765867Y324103D02*
X765867Y324103D01*
X763626Y325031D01*
X761911Y326746D01*
X760983Y328987D01*
X760983Y331413D01*
X761911Y333654D01*
X763626Y335369D01*
X765867Y336297D01*
X768293Y336297D01*
X770534Y335369D01*
X772249Y333654D01*
X773177Y331413D01*
X773177Y328987D01*
X772249Y326746D01*
X770534Y325031D01*
X768293Y324103D01*
X765867Y324103D01*
G37*
%LPD*%
%LPC*%
G36*
X519487Y114553D02*
X519487Y114553D01*
X517246Y115481D01*
X515531Y117196D01*
X514603Y119437D01*
X514603Y121863D01*
X515531Y124104D01*
X517246Y125819D01*
X519487Y126747D01*
X521913Y126747D01*
X524154Y125819D01*
X525869Y124104D01*
X526797Y121863D01*
X526797Y119437D01*
X525869Y117196D01*
X524154Y115481D01*
X521913Y114553D01*
X519487Y114553D01*
G37*
%LPD*%
%LPC*%
G36*
X704907Y316483D02*
X704907Y316483D01*
X702666Y317411D01*
X700951Y319126D01*
X700023Y321367D01*
X700023Y323793D01*
X700951Y326034D01*
X702666Y327749D01*
X704907Y328677D01*
X707333Y328677D01*
X709574Y327749D01*
X711289Y326034D01*
X712217Y323793D01*
X712217Y321367D01*
X711289Y319126D01*
X709574Y317411D01*
X707333Y316483D01*
X704907Y316483D01*
G37*
%LPD*%
%LPC*%
G36*
X562667Y296163D02*
X562667Y296163D01*
X560426Y297091D01*
X558711Y298806D01*
X557783Y301047D01*
X557783Y303473D01*
X558711Y305714D01*
X560426Y307429D01*
X562667Y308357D01*
X565093Y308357D01*
X567334Y307429D01*
X569049Y305714D01*
X569977Y303473D01*
X569977Y301047D01*
X569049Y298806D01*
X567334Y297091D01*
X565093Y296163D01*
X562667Y296163D01*
G37*
%LPD*%
%LPC*%
G36*
X814127Y294893D02*
X814127Y294893D01*
X811886Y295821D01*
X810171Y297536D01*
X809243Y299777D01*
X809243Y302203D01*
X810171Y304444D01*
X811886Y306159D01*
X814127Y307087D01*
X816553Y307087D01*
X818794Y306159D01*
X820509Y304444D01*
X821437Y302203D01*
X821437Y299777D01*
X820509Y297536D01*
X818794Y295821D01*
X816553Y294893D01*
X814127Y294893D01*
G37*
%LPD*%
%LPC*%
G36*
X582987Y293623D02*
X582987Y293623D01*
X580746Y294551D01*
X579031Y296266D01*
X578103Y298507D01*
X578103Y300933D01*
X579031Y303174D01*
X580746Y304889D01*
X582987Y305817D01*
X585413Y305817D01*
X587654Y304889D01*
X589369Y303174D01*
X590297Y300933D01*
X590297Y298507D01*
X589369Y296266D01*
X587654Y294551D01*
X585413Y293623D01*
X582987Y293623D01*
G37*
%LPD*%
%LPC*%
G36*
X379787Y252983D02*
X379787Y252983D01*
X377546Y253911D01*
X375831Y255626D01*
X374903Y257867D01*
X374903Y260293D01*
X375831Y262534D01*
X377546Y264249D01*
X379787Y265177D01*
X382213Y265177D01*
X384454Y264249D01*
X386169Y262534D01*
X387097Y260293D01*
X387097Y257867D01*
X386169Y255626D01*
X384454Y253911D01*
X382213Y252983D01*
X379787Y252983D01*
G37*
%LPD*%
%LPC*%
G36*
X49587Y284733D02*
X49587Y284733D01*
X47346Y285661D01*
X45631Y287376D01*
X44703Y289617D01*
X44703Y292043D01*
X45631Y294284D01*
X47346Y295999D01*
X49587Y296927D01*
X52013Y296927D01*
X54254Y295999D01*
X55969Y294284D01*
X56897Y292043D01*
X56897Y289617D01*
X55969Y287376D01*
X54254Y285661D01*
X52013Y284733D01*
X49587Y284733D01*
G37*
%LPD*%
%LPC*%
G36*
X673411Y154431D02*
X673411Y154431D01*
X671170Y155359D01*
X669455Y157074D01*
X668527Y159315D01*
X668527Y161741D01*
X669455Y163982D01*
X671170Y165697D01*
X673411Y166625D01*
X675837Y166625D01*
X678078Y165697D01*
X679793Y163982D01*
X680721Y161741D01*
X680721Y159315D01*
X679793Y157074D01*
X678078Y155359D01*
X675837Y154431D01*
X673411Y154431D01*
G37*
%LPD*%
%LPC*%
G36*
X818699Y128777D02*
X818699Y128777D01*
X816458Y129705D01*
X814743Y131420D01*
X813815Y133661D01*
X813815Y136087D01*
X814743Y138328D01*
X816458Y140043D01*
X818699Y140971D01*
X821125Y140971D01*
X823366Y140043D01*
X825081Y138328D01*
X826009Y136087D01*
X826009Y133661D01*
X825081Y131420D01*
X823366Y129705D01*
X821125Y128777D01*
X818699Y128777D01*
G37*
%LPD*%
%LPC*%
G36*
X476307Y130047D02*
X476307Y130047D01*
X474066Y130975D01*
X472351Y132690D01*
X471423Y134931D01*
X471423Y137357D01*
X472351Y139598D01*
X474066Y141313D01*
X476307Y142241D01*
X478733Y142241D01*
X480974Y141313D01*
X482689Y139598D01*
X483617Y137357D01*
X483617Y134931D01*
X482689Y132690D01*
X480974Y130975D01*
X478733Y130047D01*
X476307Y130047D01*
G37*
%LPD*%
%LPC*%
G36*
X217227Y146303D02*
X217227Y146303D01*
X214986Y147231D01*
X213271Y148946D01*
X212343Y151187D01*
X212343Y153613D01*
X213271Y155854D01*
X214986Y157569D01*
X217227Y158497D01*
X219653Y158497D01*
X221894Y157569D01*
X223609Y155854D01*
X224537Y153613D01*
X224537Y151187D01*
X223609Y148946D01*
X221894Y147231D01*
X219653Y146303D01*
X217227Y146303D01*
G37*
%LPD*%
%LPC*%
G36*
X915727Y143763D02*
X915727Y143763D01*
X913486Y144691D01*
X911771Y146406D01*
X910843Y148647D01*
X910843Y151073D01*
X911771Y153314D01*
X913486Y155029D01*
X915727Y155957D01*
X918153Y155957D01*
X920394Y155029D01*
X922109Y153314D01*
X923037Y151073D01*
X923037Y148647D01*
X922109Y146406D01*
X920394Y144691D01*
X918153Y143763D01*
X915727Y143763D01*
G37*
%LPD*%
%LPC*%
G36*
X235007Y143763D02*
X235007Y143763D01*
X232766Y144691D01*
X231051Y146406D01*
X230123Y148647D01*
X230123Y151073D01*
X231051Y153314D01*
X232766Y155029D01*
X235007Y155957D01*
X237433Y155957D01*
X239674Y155029D01*
X241389Y153314D01*
X242317Y151073D01*
X242317Y148647D01*
X241389Y146406D01*
X239674Y144691D01*
X237433Y143763D01*
X235007Y143763D01*
G37*
%LPD*%
%LPC*%
G36*
X113087Y143763D02*
X113087Y143763D01*
X110846Y144691D01*
X109131Y146406D01*
X108203Y148647D01*
X108203Y151073D01*
X109131Y153314D01*
X110846Y155029D01*
X113087Y155957D01*
X115513Y155957D01*
X117754Y155029D01*
X119469Y153314D01*
X120397Y151073D01*
X120397Y148647D01*
X119469Y146406D01*
X117754Y144691D01*
X115513Y143763D01*
X113087Y143763D01*
G37*
%LPD*%
%LPC*%
G36*
X768407Y258063D02*
X768407Y258063D01*
X766166Y258991D01*
X764451Y260706D01*
X763523Y262947D01*
X763523Y265373D01*
X764451Y267614D01*
X766166Y269329D01*
X768407Y270257D01*
X770833Y270257D01*
X773074Y269329D01*
X774789Y267614D01*
X775717Y265373D01*
X775717Y262947D01*
X774789Y260706D01*
X773074Y258991D01*
X770833Y258063D01*
X768407Y258063D01*
G37*
%LPD*%
%LPC*%
G36*
X558603Y140715D02*
X558603Y140715D01*
X556362Y141643D01*
X554647Y143358D01*
X553719Y145599D01*
X553719Y148025D01*
X554647Y150266D01*
X556362Y151981D01*
X558603Y152909D01*
X561029Y152909D01*
X563270Y151981D01*
X564985Y150266D01*
X565913Y148025D01*
X565913Y145599D01*
X564985Y143358D01*
X563270Y141643D01*
X561029Y140715D01*
X558603Y140715D01*
G37*
%LPD*%
%LPC*%
G36*
X883215Y258571D02*
X883215Y258571D01*
X880974Y259499D01*
X879259Y261214D01*
X878331Y263455D01*
X878331Y265881D01*
X879259Y268122D01*
X880974Y269837D01*
X883215Y270765D01*
X885641Y270765D01*
X887882Y269837D01*
X889597Y268122D01*
X890525Y265881D01*
X890525Y263455D01*
X889597Y261214D01*
X887882Y259499D01*
X885641Y258571D01*
X883215Y258571D01*
G37*
%LPD*%
%LPC*%
G36*
X474275Y203199D02*
X474275Y203199D01*
X472034Y204127D01*
X470319Y205842D01*
X469391Y208083D01*
X469391Y210509D01*
X470319Y212750D01*
X472034Y214465D01*
X474275Y215393D01*
X476701Y215393D01*
X478942Y214465D01*
X480657Y212750D01*
X481585Y210509D01*
X481585Y208083D01*
X480657Y205842D01*
X478942Y204127D01*
X477842Y203672D01*
X476701Y203199D01*
X474275Y203199D01*
G37*
%LPD*%
%LPC*%
G36*
X781107Y136143D02*
X781107Y136143D01*
X778866Y137071D01*
X777151Y138786D01*
X776223Y141027D01*
X776223Y143453D01*
X777151Y145694D01*
X778866Y147409D01*
X781107Y148337D01*
X783533Y148337D01*
X785774Y147409D01*
X787489Y145694D01*
X788417Y143453D01*
X788417Y141027D01*
X787489Y138786D01*
X785774Y137071D01*
X784734Y136641D01*
X783533Y136143D01*
X781107Y136143D01*
G37*
%LPD*%
%LPC*%
G36*
X441763Y170687D02*
X441763Y170687D01*
X439522Y171615D01*
X437807Y173330D01*
X436879Y175571D01*
X436879Y177997D01*
X437807Y180238D01*
X439522Y181953D01*
X441763Y182881D01*
X444189Y182881D01*
X446430Y181953D01*
X448145Y180238D01*
X449073Y177997D01*
X449073Y175571D01*
X448145Y173330D01*
X446430Y171615D01*
X445359Y171172D01*
X444189Y170687D01*
X441763Y170687D01*
G37*
%LPD*%
%LPC*%
G36*
X830129Y172973D02*
X830129Y172973D01*
X827888Y173901D01*
X826173Y175616D01*
X825245Y177857D01*
X825245Y180283D01*
X826173Y182524D01*
X827888Y184239D01*
X830129Y185167D01*
X832555Y185167D01*
X834796Y184239D01*
X836511Y182524D01*
X837439Y180283D01*
X837439Y177857D01*
X836511Y175616D01*
X834796Y173901D01*
X833110Y173203D01*
X832555Y172973D01*
X830129Y172973D01*
G37*
%LPD*%
%LPC*%
G36*
X331527Y176783D02*
X331527Y176783D01*
X329286Y177711D01*
X327571Y179426D01*
X326643Y181667D01*
X326643Y184093D01*
X327571Y186334D01*
X329286Y188049D01*
X331527Y188977D01*
X333953Y188977D01*
X336194Y188049D01*
X337909Y186334D01*
X338837Y184093D01*
X338837Y181667D01*
X337909Y179426D01*
X336194Y177711D01*
X335118Y177266D01*
X335117Y177266D01*
X333953Y176783D01*
X331527Y176783D01*
G37*
%LPD*%
%LPC*%
G36*
X344227Y202183D02*
X344227Y202183D01*
X341986Y203111D01*
X340271Y204826D01*
X339343Y207067D01*
X339343Y209493D01*
X340271Y211734D01*
X341986Y213449D01*
X343666Y214144D01*
X344227Y214377D01*
X346653Y214377D01*
X348894Y213449D01*
X350609Y211734D01*
X351537Y209493D01*
X351537Y207067D01*
X350609Y204826D01*
X348894Y203111D01*
X346653Y202183D01*
X344227Y202183D01*
G37*
%LPD*%
%LPC*%
G36*
X564191Y167639D02*
X564191Y167639D01*
X561950Y168567D01*
X560235Y170282D01*
X559307Y172523D01*
X559307Y174949D01*
X560235Y177190D01*
X561950Y178905D01*
X563661Y179613D01*
X564191Y179833D01*
X566617Y179833D01*
X568858Y178905D01*
X570573Y177190D01*
X571501Y174949D01*
X571501Y172523D01*
X570573Y170282D01*
X568858Y168567D01*
X566617Y167639D01*
X564191Y167639D01*
G37*
%LPD*%
%LPC*%
G36*
X130867Y131063D02*
X130867Y131063D01*
X128626Y131991D01*
X126911Y133706D01*
X125983Y135947D01*
X125983Y138373D01*
X126911Y140614D01*
X128626Y142329D01*
X130369Y143051D01*
X130370Y143051D01*
X130867Y143257D01*
X133293Y143257D01*
X135534Y142329D01*
X137249Y140614D01*
X138177Y138373D01*
X138177Y135947D01*
X137249Y133706D01*
X135534Y131991D01*
X133293Y131063D01*
X130867Y131063D01*
G37*
%LPD*%
%LPC*%
G36*
X897947Y-34037D02*
X897947Y-34037D01*
X895706Y-33109D01*
X893991Y-31394D01*
X893063Y-29153D01*
X893063Y-26727D01*
X893991Y-24486D01*
X895706Y-22771D01*
X897947Y-21843D01*
X900373Y-21843D01*
X902614Y-22771D01*
X904329Y-24486D01*
X905257Y-26727D01*
X905257Y-29153D01*
X904329Y-31394D01*
X902614Y-33109D01*
X900499Y-33984D01*
X900373Y-34037D01*
X897947Y-34037D01*
G37*
%LPD*%
%LPC*%
G36*
X817784Y69595D02*
X817784Y69595D01*
X815730Y70446D01*
X814158Y72018D01*
X813307Y74072D01*
X813307Y76296D01*
X814158Y78350D01*
X815730Y79922D01*
X817784Y80773D01*
X820008Y80773D01*
X822062Y79922D01*
X823634Y78350D01*
X824485Y76296D01*
X824485Y74072D01*
X823634Y72018D01*
X822062Y70446D01*
X820008Y69595D01*
X817784Y69595D01*
G37*
%LPD*%
%LPC*%
G36*
X699420Y134619D02*
X699420Y134619D01*
X697366Y135470D01*
X695794Y137042D01*
X694943Y139096D01*
X694943Y141320D01*
X695794Y143374D01*
X697366Y144946D01*
X699420Y145797D01*
X701644Y145797D01*
X703698Y144946D01*
X705270Y143374D01*
X706121Y141320D01*
X706121Y139096D01*
X705270Y137042D01*
X703698Y135470D01*
X701644Y134619D01*
X699420Y134619D01*
G37*
%LPD*%
%LPC*%
G36*
X593248Y210311D02*
X593248Y210311D01*
X591194Y211162D01*
X589622Y212734D01*
X588771Y214788D01*
X588771Y217012D01*
X589622Y219066D01*
X591194Y220638D01*
X593248Y221489D01*
X595472Y221489D01*
X597526Y220638D01*
X599098Y219066D01*
X599949Y217012D01*
X599949Y214788D01*
X599098Y212734D01*
X597526Y211162D01*
X595472Y210311D01*
X593248Y210311D01*
G37*
%LPD*%
%LPC*%
G36*
X118268Y243331D02*
X118268Y243331D01*
X116214Y244182D01*
X114642Y245754D01*
X113791Y247808D01*
X113791Y250032D01*
X114642Y252086D01*
X116214Y253658D01*
X118268Y254509D01*
X120492Y254509D01*
X122546Y253658D01*
X124118Y252086D01*
X124969Y250032D01*
X124969Y247808D01*
X124118Y245754D01*
X122546Y244182D01*
X120492Y243331D01*
X118268Y243331D01*
G37*
%LPD*%
%LPC*%
G36*
X608488Y207771D02*
X608488Y207771D01*
X606434Y208622D01*
X604862Y210194D01*
X604011Y212248D01*
X604011Y214472D01*
X604862Y216526D01*
X606434Y218098D01*
X608488Y218949D01*
X610712Y218949D01*
X612766Y218098D01*
X614338Y216526D01*
X615189Y214472D01*
X615189Y212248D01*
X614338Y210194D01*
X612766Y208622D01*
X610712Y207771D01*
X608488Y207771D01*
G37*
%LPD*%
%LPC*%
G36*
X451008Y314451D02*
X451008Y314451D01*
X448954Y315302D01*
X447382Y316874D01*
X446531Y318928D01*
X446531Y321152D01*
X447382Y323206D01*
X448954Y324778D01*
X451008Y325629D01*
X453232Y325629D01*
X455286Y324778D01*
X456858Y323206D01*
X457709Y321152D01*
X457709Y318928D01*
X456858Y316874D01*
X455286Y315302D01*
X453232Y314451D01*
X451008Y314451D01*
G37*
%LPD*%
%LPC*%
G36*
X97948Y268731D02*
X97948Y268731D01*
X95894Y269582D01*
X94322Y271154D01*
X93471Y273208D01*
X93471Y275432D01*
X94322Y277486D01*
X95894Y279058D01*
X97948Y279909D01*
X100172Y279909D01*
X102226Y279058D01*
X103798Y277486D01*
X104649Y275432D01*
X104649Y273208D01*
X103798Y271154D01*
X102226Y269582D01*
X100172Y268731D01*
X97948Y268731D01*
G37*
%LPD*%
%LPC*%
G36*
X718724Y246379D02*
X718724Y246379D01*
X716670Y247230D01*
X715098Y248802D01*
X714247Y250856D01*
X714247Y253080D01*
X715098Y255134D01*
X716670Y256706D01*
X718724Y257557D01*
X720948Y257557D01*
X723002Y256706D01*
X724574Y255134D01*
X725425Y253080D01*
X725425Y250856D01*
X724574Y248802D01*
X723002Y247230D01*
X720948Y246379D01*
X718724Y246379D01*
G37*
%LPD*%
%LPC*%
G36*
X534828Y322071D02*
X534828Y322071D01*
X532774Y322922D01*
X531202Y324494D01*
X530351Y326548D01*
X530351Y328772D01*
X531202Y330826D01*
X532774Y332398D01*
X534828Y333249D01*
X537052Y333249D01*
X539106Y332398D01*
X540678Y330826D01*
X541529Y328772D01*
X541529Y326548D01*
X540678Y324494D01*
X539106Y322922D01*
X537052Y322071D01*
X534828Y322071D01*
G37*
%LPD*%
%LPC*%
G36*
X484028Y324611D02*
X484028Y324611D01*
X481974Y325462D01*
X480402Y327034D01*
X479551Y329088D01*
X479551Y331312D01*
X480402Y333366D01*
X481974Y334938D01*
X484028Y335789D01*
X486252Y335789D01*
X488306Y334938D01*
X489878Y333366D01*
X490729Y331312D01*
X490729Y329088D01*
X489878Y327034D01*
X488306Y325462D01*
X486252Y324611D01*
X484028Y324611D01*
G37*
%LPD*%
%LPC*%
G36*
X313848Y177291D02*
X313848Y177291D01*
X311794Y178142D01*
X310222Y179714D01*
X309371Y181768D01*
X309371Y183992D01*
X310222Y186046D01*
X311794Y187618D01*
X313848Y188469D01*
X316072Y188469D01*
X318126Y187618D01*
X319698Y186046D01*
X320549Y183992D01*
X320549Y181768D01*
X319698Y179714D01*
X318126Y178142D01*
X316072Y177291D01*
X313848Y177291D01*
G37*
%LPD*%
%LPC*%
G36*
X813720Y256031D02*
X813720Y256031D01*
X811666Y256882D01*
X810094Y258454D01*
X809243Y260508D01*
X809243Y262732D01*
X810094Y264786D01*
X811666Y266358D01*
X813720Y267209D01*
X815944Y267209D01*
X817998Y266358D01*
X819570Y264786D01*
X820421Y262732D01*
X820421Y260508D01*
X819570Y258454D01*
X817998Y256882D01*
X815944Y256031D01*
X813720Y256031D01*
G37*
%LPD*%
%LPC*%
G36*
X823880Y228091D02*
X823880Y228091D01*
X821826Y228942D01*
X820254Y230514D01*
X819403Y232568D01*
X819403Y234792D01*
X820254Y236846D01*
X821826Y238418D01*
X822071Y238519D01*
X823880Y239269D01*
X826104Y239269D01*
X828158Y238418D01*
X829730Y236846D01*
X830581Y234792D01*
X830581Y232568D01*
X829730Y230514D01*
X828158Y228942D01*
X826104Y228091D01*
X823880Y228091D01*
G37*
%LPD*%
%LPC*%
G36*
X857408Y24891D02*
X857408Y24891D01*
X855354Y25742D01*
X853782Y27314D01*
X852931Y29368D01*
X852931Y31592D01*
X853782Y33646D01*
X855354Y35218D01*
X857408Y36069D01*
X859632Y36069D01*
X861686Y35218D01*
X863258Y33646D01*
X864109Y31592D01*
X864109Y29368D01*
X863258Y27314D01*
X861686Y25742D01*
X859706Y24922D01*
X859632Y24891D01*
X857408Y24891D01*
G37*
%LPD*%
%LPC*%
G36*
X723804Y172719D02*
X723804Y172719D01*
X721750Y173570D01*
X720178Y175142D01*
X719327Y177196D01*
X719327Y179420D01*
X720178Y181474D01*
X721750Y183046D01*
X723270Y183676D01*
X723804Y183897D01*
X726028Y183897D01*
X728082Y183046D01*
X729654Y181474D01*
X730505Y179420D01*
X730505Y177196D01*
X729654Y175142D01*
X728082Y173570D01*
X727196Y173203D01*
X726028Y172719D01*
X723804Y172719D01*
G37*
%LPD*%
%LPC*%
G36*
X744219Y393699D02*
X744219Y393699D01*
X744219Y401019D01*
X745580Y400576D01*
X747005Y399850D01*
X748299Y398910D01*
X749430Y397779D01*
X750370Y396485D01*
X751096Y395060D01*
X751539Y393699D01*
X744219Y393699D01*
G37*
%LPD*%
%LPC*%
G36*
X932389Y71139D02*
X932389Y71139D01*
X932389Y78459D01*
X933750Y78016D01*
X935175Y77290D01*
X936469Y76350D01*
X937600Y75219D01*
X938540Y73925D01*
X939266Y72500D01*
X939709Y71139D01*
X932389Y71139D01*
G37*
%LPD*%
%LPC*%
G36*
X944879Y287019D02*
X944879Y287019D01*
X944879Y294339D01*
X946240Y293896D01*
X947665Y293170D01*
X948959Y292230D01*
X950090Y291099D01*
X951030Y289805D01*
X951756Y288380D01*
X952199Y287019D01*
X944879Y287019D01*
G37*
%LPD*%
%LPC*%
G36*
X207263Y23748D02*
X207263Y23748D01*
X207263Y31068D01*
X208624Y30625D01*
X210049Y29899D01*
X211343Y28959D01*
X212474Y27828D01*
X213414Y26534D01*
X214140Y25109D01*
X214583Y23748D01*
X207263Y23748D01*
G37*
%LPD*%
%LPC*%
G36*
X944879Y261619D02*
X944879Y261619D01*
X944879Y268939D01*
X946240Y268496D01*
X947665Y267770D01*
X948959Y266830D01*
X950090Y265699D01*
X951030Y264405D01*
X951756Y262980D01*
X952199Y261619D01*
X944879Y261619D01*
G37*
%LPD*%
%LPC*%
G36*
X96900Y23367D02*
X96900Y23367D01*
X96900Y30687D01*
X98261Y30244D01*
X99686Y29518D01*
X100980Y28578D01*
X102111Y27447D01*
X103051Y26153D01*
X103777Y24728D01*
X104220Y23367D01*
X96900Y23367D01*
G37*
%LPD*%
%LPC*%
G36*
X398859Y373959D02*
X398859Y373959D01*
X398859Y381279D01*
X400220Y380836D01*
X401645Y380110D01*
X402939Y379170D01*
X404070Y378039D01*
X405010Y376745D01*
X405736Y375320D01*
X406179Y373959D01*
X398859Y373959D01*
G37*
%LPD*%
%LPC*%
G36*
X787609Y45739D02*
X787609Y45739D01*
X787609Y53059D01*
X788970Y52616D01*
X790395Y51890D01*
X791689Y50950D01*
X792820Y49819D01*
X793760Y48525D01*
X794486Y47100D01*
X794929Y45739D01*
X787609Y45739D01*
G37*
%LPD*%
%LPC*%
G36*
X207263Y18670D02*
X207263Y18670D01*
X214583Y18670D01*
X214140Y17309D01*
X213414Y15884D01*
X212474Y14590D01*
X211343Y13459D01*
X210049Y12519D01*
X208624Y11793D01*
X207263Y11350D01*
X207263Y18670D01*
G37*
%LPD*%
%LPC*%
G36*
X398859Y368881D02*
X398859Y368881D01*
X406179Y368881D01*
X405736Y367520D01*
X405010Y366095D01*
X404070Y364801D01*
X402939Y363670D01*
X401645Y362730D01*
X400220Y362004D01*
X398859Y361561D01*
X398859Y368881D01*
G37*
%LPD*%
%LPC*%
G36*
X787609Y40661D02*
X787609Y40661D01*
X794929Y40661D01*
X794486Y39300D01*
X793760Y37875D01*
X792820Y36581D01*
X791689Y35450D01*
X790395Y34510D01*
X788970Y33784D01*
X787609Y33341D01*
X787609Y40661D01*
G37*
%LPD*%
%LPC*%
G36*
X731821Y393699D02*
X731821Y393699D01*
X732264Y395060D01*
X732990Y396485D01*
X733930Y397779D01*
X735061Y398910D01*
X736355Y399850D01*
X737780Y400576D01*
X739141Y401019D01*
X739141Y393699D01*
X731821Y393699D01*
G37*
%LPD*%
%LPC*%
G36*
X775211Y45739D02*
X775211Y45739D01*
X775654Y47100D01*
X776380Y48525D01*
X777320Y49819D01*
X778451Y50950D01*
X779745Y51890D01*
X781170Y52616D01*
X782531Y53059D01*
X782531Y45739D01*
X775211Y45739D01*
G37*
%LPD*%
%LPC*%
G36*
X386461Y373959D02*
X386461Y373959D01*
X386904Y375320D01*
X387630Y376745D01*
X388570Y378039D01*
X389701Y379170D01*
X390995Y380110D01*
X392420Y380836D01*
X393781Y381279D01*
X393781Y373959D01*
X386461Y373959D01*
G37*
%LPD*%
%LPC*%
G36*
X194865Y23748D02*
X194865Y23748D01*
X195308Y25109D01*
X196034Y26534D01*
X196974Y27828D01*
X198105Y28959D01*
X199399Y29899D01*
X200824Y30625D01*
X202185Y31068D01*
X202185Y23748D01*
X194865Y23748D01*
G37*
%LPD*%
%LPC*%
G36*
X944879Y281941D02*
X944879Y281941D01*
X952199Y281941D01*
X951756Y280580D01*
X951030Y279155D01*
X950090Y277861D01*
X948959Y276730D01*
X947665Y275790D01*
X946240Y275064D01*
X944879Y274621D01*
X944879Y281941D01*
G37*
%LPD*%
%LPC*%
G36*
X932481Y287019D02*
X932481Y287019D01*
X932924Y288380D01*
X933650Y289805D01*
X934590Y291099D01*
X935721Y292230D01*
X937015Y293170D01*
X938440Y293896D01*
X939801Y294339D01*
X939801Y287019D01*
X932481Y287019D01*
G37*
%LPD*%
%LPC*%
G36*
X84502Y23367D02*
X84502Y23367D01*
X84945Y24728D01*
X85671Y26153D01*
X86611Y27447D01*
X87742Y28578D01*
X89036Y29518D01*
X90461Y30244D01*
X91822Y30687D01*
X91822Y23367D01*
X84502Y23367D01*
G37*
%LPD*%
%LPC*%
G36*
X932481Y261619D02*
X932481Y261619D01*
X932924Y262980D01*
X933650Y264405D01*
X934590Y265699D01*
X935721Y266830D01*
X937015Y267770D01*
X938440Y268496D01*
X939801Y268939D01*
X939801Y261619D01*
X932481Y261619D01*
G37*
%LPD*%
%LPC*%
G36*
X744219Y388621D02*
X744219Y388621D01*
X751539Y388621D01*
X751096Y387260D01*
X750370Y385835D01*
X749430Y384541D01*
X748299Y383410D01*
X747005Y382470D01*
X745580Y381744D01*
X744219Y381301D01*
X744219Y388621D01*
G37*
%LPD*%
%LPC*%
G36*
X944879Y256541D02*
X944879Y256541D01*
X952199Y256541D01*
X951756Y255180D01*
X951030Y253755D01*
X950090Y252461D01*
X948959Y251330D01*
X947665Y250390D01*
X946240Y249664D01*
X944879Y249221D01*
X944879Y256541D01*
G37*
%LPD*%
%LPC*%
G36*
X919991Y71139D02*
X919991Y71139D01*
X920434Y72500D01*
X921160Y73925D01*
X922100Y75219D01*
X923231Y76350D01*
X924525Y77290D01*
X925950Y78016D01*
X927311Y78459D01*
X927311Y71139D01*
X919991Y71139D01*
G37*
%LPD*%
%LPC*%
G36*
X96900Y18289D02*
X96900Y18289D01*
X104220Y18289D01*
X103777Y16928D01*
X103051Y15503D01*
X102111Y14209D01*
X100980Y13078D01*
X99686Y12138D01*
X98261Y11412D01*
X96900Y10969D01*
X96900Y18289D01*
G37*
%LPD*%
%LPC*%
G36*
X932389Y66061D02*
X932389Y66061D01*
X939709Y66061D01*
X939266Y64700D01*
X938540Y63275D01*
X937600Y61981D01*
X936469Y60850D01*
X935175Y59910D01*
X933750Y59184D01*
X932389Y58741D01*
X932389Y66061D01*
G37*
%LPD*%
%LPC*%
G36*
X200824Y11793D02*
X200824Y11793D01*
X199399Y12519D01*
X198105Y13459D01*
X196974Y14590D01*
X196034Y15884D01*
X195308Y17309D01*
X194865Y18670D01*
X202185Y18670D01*
X202185Y11350D01*
X200824Y11793D01*
G37*
%LPD*%
%LPC*%
G36*
X90461Y11412D02*
X90461Y11412D01*
X89036Y12138D01*
X87742Y13078D01*
X86611Y14209D01*
X85671Y15503D01*
X84945Y16928D01*
X84502Y18289D01*
X91822Y18289D01*
X91822Y10969D01*
X90461Y11412D01*
G37*
%LPD*%
%LPC*%
G36*
X938440Y249664D02*
X938440Y249664D01*
X937015Y250390D01*
X935721Y251330D01*
X934590Y252461D01*
X933650Y253755D01*
X932924Y255180D01*
X932481Y256541D01*
X939801Y256541D01*
X939801Y249221D01*
X938440Y249664D01*
G37*
%LPD*%
%LPC*%
G36*
X737780Y381744D02*
X737780Y381744D01*
X736355Y382470D01*
X735061Y383410D01*
X733930Y384541D01*
X732990Y385835D01*
X732264Y387260D01*
X731821Y388621D01*
X739141Y388621D01*
X739141Y381301D01*
X737780Y381744D01*
G37*
%LPD*%
%LPC*%
G36*
X938440Y275064D02*
X938440Y275064D01*
X937015Y275790D01*
X935721Y276730D01*
X934590Y277861D01*
X933650Y279155D01*
X932924Y280580D01*
X932481Y281941D01*
X939801Y281941D01*
X939801Y274621D01*
X938440Y275064D01*
G37*
%LPD*%
%LPC*%
G36*
X781170Y33784D02*
X781170Y33784D01*
X779745Y34510D01*
X778451Y35450D01*
X777320Y36581D01*
X776380Y37875D01*
X775654Y39300D01*
X775211Y40661D01*
X782531Y40661D01*
X782531Y33341D01*
X781170Y33784D01*
G37*
%LPD*%
%LPC*%
G36*
X392420Y362004D02*
X392420Y362004D01*
X390995Y362730D01*
X389701Y363670D01*
X388570Y364801D01*
X387630Y366095D01*
X386904Y367520D01*
X386461Y368881D01*
X393781Y368881D01*
X393781Y361561D01*
X392420Y362004D01*
G37*
%LPD*%
%LPC*%
G36*
X925950Y59184D02*
X925950Y59184D01*
X924525Y59910D01*
X923231Y60850D01*
X922100Y61981D01*
X921160Y63275D01*
X920434Y64700D01*
X919991Y66061D01*
X927311Y66061D01*
X927311Y58741D01*
X925950Y59184D01*
G37*
%LPD*%
D10*
X785070Y68600D03*
X785070Y17800D03*
X785070Y43200D03*
D11*
X860000Y-22840D03*
X860000Y109240D03*
D10*
X929850Y17800D03*
X929850Y68600D03*
X396320Y371420D03*
X421720Y371420D03*
X447120Y371420D03*
X472520Y371420D03*
X497920Y371420D03*
X523320Y371420D03*
D12*
X589120Y127820D03*
X357120Y127820D03*
X357120Y364820D03*
X589120Y364820D03*
D10*
X548720Y371420D03*
X94361Y20828D03*
X122301Y20828D03*
X176784Y21209D03*
X204724Y21209D03*
X769620Y-36830D03*
X769620Y-8890D03*
D13*
X229616Y29591D03*
D14*
X621411Y366522D03*
X646811Y366522D03*
D10*
X942340Y157480D03*
X942340Y182880D03*
X942340Y208280D03*
X942340Y233680D03*
X942340Y259080D03*
X942340Y284480D03*
X690880Y365760D03*
X690880Y391160D03*
X716280Y365760D03*
X716280Y391160D03*
X741680Y365760D03*
X741680Y391160D03*
D13*
X498348Y144526D03*
D10*
X280670Y71120D03*
D13*
X641350Y288290D03*
X317500Y152400D03*
X317500Y130810D03*
X153670Y142240D03*
X621030Y167640D03*
X668020Y288290D03*
X154940Y102870D03*
X224790Y11430D03*
X942340Y132080D03*
X944880Y43180D03*
X191516Y401320D03*
D14*
X402844Y127000D03*
X428244Y127000D03*
X645668Y127000D03*
X671068Y127000D03*
D15*
X68580Y158750D03*
X17780Y134620D03*
X8890Y218440D03*
X66040Y251460D03*
X91440Y229108D03*
X193040Y322072D03*
X136398Y342900D03*
X242062Y255270D03*
X314960Y278130D03*
X833120Y196850D03*
D16*
X889000Y196850D03*
D15*
X881380Y346710D03*
X892810Y130810D03*
X951230Y91440D03*
X951230Y-22860D03*
X856996Y-92710D03*
X160020Y82550D03*
X69850Y60960D03*
X175260Y120650D03*
D16*
X185420Y153670D03*
D15*
X275590Y127000D03*
X353060Y278130D03*
X560070Y119380D03*
X580390Y160020D03*
X574040Y193040D03*
X673100Y214122D03*
X722630Y262890D03*
X673100Y259080D03*
X670560Y320040D03*
X544830Y284480D03*
X750570Y318770D03*
X786130Y303530D03*
X734060Y335280D03*
D16*
X801370Y166370D03*
D15*
X768350Y201422D03*
X186690Y127000D03*
X236220Y88900D03*
X240030Y13970D03*
X599440Y232410D03*
X742950Y211836D03*
X859790Y166370D03*
X945642Y320040D03*
X199390Y219710D03*
X830580Y15240D03*
X806450Y45720D03*
D16*
X770890Y153670D03*
X151130Y289560D03*
X143510Y289560D03*
X135890Y289560D03*
X133350Y281940D03*
X140970Y281940D03*
X148590Y281940D03*
X151130Y274320D03*
X143510Y274320D03*
X135890Y274320D03*
X133350Y266700D03*
X140970Y266700D03*
X148590Y266700D03*
D15*
X754380Y117856D03*
X517398Y145796D03*
X830580Y-68072D03*
X643636Y154178D03*
X442976Y136144D03*
D16*
X789432Y212852D03*
D17*
X44450Y75438D03*
D15*
X50800Y290830D03*
X815340Y300990D03*
X559816Y146812D03*
X520700Y120650D03*
X477520Y136144D03*
D16*
X314960Y182880D03*
X274320Y91440D03*
X292100Y182880D03*
X266700Y86360D03*
D15*
X877570Y176530D03*
X843280Y200660D03*
D16*
X594360Y215900D03*
D15*
X175260Y236220D03*
X337820Y248920D03*
D16*
X889000Y205740D03*
D18*
X767080Y365760D03*
D15*
X767080Y330200D03*
D16*
X700532Y140208D03*
X818896Y75184D03*
X724916Y178308D03*
X858520Y30480D03*
X538480Y266700D03*
X860806Y223774D03*
X485140Y330200D03*
D15*
X880110Y135890D03*
D16*
X535940Y327660D03*
D15*
X881380Y165100D03*
X684530Y334010D03*
D16*
X452120Y320040D03*
X891540Y165100D03*
X863600Y248920D03*
X814832Y261620D03*
X393700Y208280D03*
X388620Y160020D03*
X871220Y223520D03*
X383540Y210820D03*
X378460Y167640D03*
X525780Y266700D03*
X848360Y223520D03*
X871220Y186690D03*
D15*
X831342Y179070D03*
X633730Y245110D03*
X702310Y219710D03*
X899160Y-27940D03*
X952500Y111760D03*
X916940Y149860D03*
X762000Y78740D03*
X782320Y142240D03*
X799084Y207772D03*
X769620Y264160D03*
X828040Y391160D03*
X863600Y391160D03*
X706120Y322580D03*
X584200Y299720D03*
X563880Y302260D03*
X10160Y180340D03*
X172720Y200660D03*
X276860Y149860D03*
X236220Y149860D03*
X218440Y152400D03*
X848360Y210820D03*
X717296Y107696D03*
X442976Y176784D03*
D16*
X838200Y274320D03*
X866140Y281940D03*
D15*
X828040Y274320D03*
D16*
X878840Y281940D03*
D15*
X505968Y201168D03*
X215900Y83820D03*
X332740Y182880D03*
X886968Y-39624D03*
X817880Y-45720D03*
X565404Y173736D03*
D16*
X872490Y248920D03*
X719836Y251968D03*
X99060Y274320D03*
X617220Y297180D03*
X889000Y223012D03*
X119380Y248920D03*
D15*
X884428Y264668D03*
D16*
X619760Y288036D03*
D15*
X836930Y220980D03*
X756920Y212090D03*
X132080Y137160D03*
D19*
X801116Y139446D03*
D15*
X114300Y149860D03*
X403860Y185420D03*
D16*
X684784Y116840D03*
D15*
X823468Y-88900D03*
X674624Y160528D03*
X819912Y134874D03*
X755396Y-88900D03*
D16*
X762000Y-53340D03*
X264160Y154940D03*
X281940Y180340D03*
X824992Y233680D03*
X609600Y213360D03*
D15*
X492506Y129540D03*
D16*
X786384Y87376D03*
D15*
X863917Y136843D03*
X889000Y115570D03*
X475488Y209296D03*
X868680Y49530D03*
X590804Y241808D03*
D16*
X889000Y214376D03*
D15*
X345440Y208280D03*
X231140Y226060D03*
X381000Y259080D03*
X264668Y388620D03*
X273304Y388620D03*
X281940Y388620D03*
X290576Y388620D03*
X299212Y388620D03*
X314960Y383032D03*
X307848Y388112D03*
X315976Y373888D03*
X318516Y364236D03*
X318008Y356108D03*
X317500Y347472D03*
X316992Y338836D03*
X311912Y331724D03*
X303276Y328676D03*
X309880Y324104D03*
X319532Y327660D03*
X324612Y335280D03*
X325120Y344424D03*
X326136Y353060D03*
X324104Y371348D03*
X316484Y392176D03*
X304292Y395732D03*
X294640Y396748D03*
X284480Y397256D03*
X275336Y397256D03*
X266192Y397256D03*
X261112Y379476D03*
X260604Y371348D03*
X260096Y363220D03*
X259588Y354584D03*
X259080Y346456D03*
X279400Y326644D03*
X287528Y326644D03*
X295656Y326644D03*
X326644Y362712D03*
X253492Y376428D03*
X252984Y367792D03*
X252476Y359664D03*
X252476Y352044D03*
X254508Y387604D03*
X257048Y396240D03*
X124460Y405384D03*
X133096Y405384D03*
X96012Y376936D03*
X96012Y367284D03*
X95504Y356616D03*
X105156Y355600D03*
X103124Y385064D03*
X111760Y394208D03*
X146304Y405892D03*
X157988Y406400D03*
X170688Y406908D03*
X208280Y405892D03*
X216408Y406400D03*
X226060Y406908D03*
X235712Y406908D03*
X116332Y360680D03*
X124460Y366776D03*
X117856Y399796D03*
X244856Y406908D03*
X250952Y401828D03*
X260604Y406400D03*
X274320Y407416D03*
X289052Y407416D03*
X303784Y405892D03*
X325120Y382016D03*
X247396Y393700D03*
X246888Y383540D03*
D20*
X0Y0D02*
X293500Y0D01*
X293500Y100000D01*
X748100Y100000D01*
X748100Y-110000D01*
X960000Y-110000D01*
X960000Y340000D01*
X880028Y419972D01*
X79972Y419972D01*
X0Y340000D01*
X0Y0D01*
M02*
