  0
SECTION
  2
HEADER
  9
$ACADVER
  1
AC1009
  9
$FILLMODE
 70
0
  9
$EXTMIN
 10
-0.2642
 20
-12.8866
 30
0.0000
  9
$EXTMAX
 10
96.2787
 20
42.3012
 30
0.0000
  0
ENDSEC
  0
SECTION
  2
TABLES
  0
TABLE
  2
LTYPE
 70
1
  0
LTYPE
  2
CONTINUOUS
 70
64
  3
Solid line
 72
65
 73
0
 40
0
  0
ENDTAB
  0
TABLE
  2
LAYER
 70
255
  0
LAYER
  2
20
 70
64
 62
53
  6
CONTINUOUS
  0
LAYER
  2
32
 70
64
 62
253
  6
CONTINUOUS
  0
LAYER
  2
40
 70
64
 62
141
  6
CONTINUOUS
  0
ENDTAB
  0
ENDSEC
  0
SECTION
  2
BLOCKS
  0
BLOCK
  8
0
  2
RECT
 70
64
 10
0.0000
 20
0.0000
 30
0.0000
  3
RECT
  0
SOLID
  8
0
 10
-0.5000
 20
-0.5000
 30
0.0000
 11
0.5000
 21
-0.5000
 31
0.0000
 12
-0.5000
 22
0.5000
 32
0.0000
 13
0.5000
 23
0.5000
 33
0.0000
  0
ENDBLK
  8
0
  0
BLOCK
  8
0
  2
PIE
 70
64
 10
0.0000
 20
0.0000
 30
0.0000
  3
PIE
  0
CIRCLE
  8
0
 10
0.0000
 20
0.0000
 30
0.0000
 40
0.5000
  0
ENDBLK
  8
0
  0
BLOCK
  8
0
  2
OCTAGONP
 70
64
 10
0.0000
 20
0.0000
 30
0.0000
  3
OCTAGONP
  0
POLYLINE
  8
0
 66
1
 10
0.0000
 20
0.0000
 30
0.0000
 40
0.0000
 41
0.0000
 70
1
  0
VERTEX
  8
0
 10
-0.5000
 20
-0.2071
 30
0.0000
  0
VERTEX
  8
0
 10
-0.5000
 20
0.2071
 30
0.0000
  0
VERTEX
  8
0
 10
-0.2071
 20
0.5000
 30
0.0000
  0
VERTEX
  8
0
 10
0.2071
 20
0.5000
 30
0.0000
  0
VERTEX
  8
0
 10
0.5000
 20
0.2071
 30
0.0000
  0
VERTEX
  8
0
 10
0.5000
 20
-0.2071
 30
0.0000
  0
VERTEX
  8
0
 10
0.2071
 20
-0.5000
 30
0.0000
  0
VERTEX
  8
0
 10
-0.2071
 20
-0.5000
 30
0.0000
  0
SEQEND
  8
0
  0
ENDBLK
  8
0
  0
BLOCK
  8
0
  2
SQUAREP
 70
64
 10
0.0000
 20
0.0000
 30
0.0000
  3
SQUAREP
  0
SOLID
  8
0
 10
-0.5000
 20
-0.5000
 30
0.0000
 11
0.5000
 21
-0.5000
 31
0.0000
 12
-0.5000
 22
0.5000
 32
0.0000
 13
0.5000
 23
0.5000
 33
0.0000
  0
ENDBLK
  8
0
  0
BLOCK
  8
0
  2
ROUNDP
 70
64
 10
0.0000
 20
0.0000
 30
0.0000
  3
ROUNDP
  0
CIRCLE
  8
0
 10
0.0000
 20
0.0000
 30
0.0000
 40
0.5000
  0
ENDBLK
  8
0
  0
BLOCK
  8
0
  2
ANNULUSP
 70
64
 10
0.0000
 20
0.0000
 30
0.0000
  3
ANNULUSP
  0
CIRCLE
  8
0
 10
0.0000
 20
0.0000
 30
0.0000
 40
0.5000
  0
ENDBLK
  8
0
  0
BLOCK
  8
0
  2
THERMALP
 70
64
 10
0.0000
 20
0.0000
 30
0.0000
  3
THERMALP
  0
POLYLINE
  8
0
 66
1
 10
0.0000
 20
0.0000
 30
0.0000
 40
0.0000
 41
0.0000
 70
1
  0
VERTEX
  8
0
 10
-0.2379
 20
0.4000
 30
0.0000
  0
VERTEX
  8
0
 10
0.2379
 20
0.4000
 30
0.0000
 42
1.0000
  0
VERTEX
  8
0
 10
0.2379
 20
0.5000
 30
0.0000
  0
VERTEX
  8
0
 10
-0.2379
 20
0.5000
 30
0.0000
 42
1.0000
  0
SEQEND
  8
0
  0
POLYLINE
  8
0
 66
1
 10
0.0000
 20
0.0000
 30
0.0000
 40
0.0000
 41
0.0000
 70
1
  0
VERTEX
  8
0
 10
0.4000
 20
0.2379
 30
0.0000
  0
VERTEX
  8
0
 10
0.4000
 20
-0.2379
 30
0.0000
 42
1.0000
  0
VERTEX
  8
0
 10
0.5000
 20
-0.2379
 30
0.0000
  0
VERTEX
  8
0
 10
0.5000
 20
0.2379
 30
0.0000
 42
1.0000
  0
SEQEND
  8
0
  0
POLYLINE
  8
0
 66
1
 10
0.0000
 20
0.0000
 30
0.0000
 40
0.0000
 41
0.0000
 70
1
  0
VERTEX
  8
0
 10
0.2379
 20
-0.4000
 30
0.0000
  0
VERTEX
  8
0
 10
-0.2379
 20
-0.4000
 30
0.0000
 42
1.0000
  0
VERTEX
  8
0
 10
-0.2379
 20
-0.5000
 30
0.0000
  0
VERTEX
  8
0
 10
0.2379
 20
-0.5000
 30
0.0000
 42
1.0000
  0
SEQEND
  8
0
  0
POLYLINE
  8
0
 66
1
 10
0.0000
 20
0.0000
 30
0.0000
 40
0.0000
 41
0.0000
 70
1
  0
VERTEX
  8
0
 10
-0.4000
 20
-0.2379
 30
0.0000
  0
VERTEX
  8
0
 10
-0.4000
 20
0.2379
 30
0.0000
 42
1.0000
  0
VERTEX
  8
0
 10
-0.5000
 20
0.2379
 30
0.0000
  0
VERTEX
  8
0
 10
-0.5000
 20
-0.2379
 30
0.0000
 42
1.0000
  0
SEQEND
  8
0
  0
ENDBLK
  8
0
  0
BLOCK
  8
0
  2
OCTAGONV
 70
64
 10
0.0000
 20
0.0000
 30
0.0000
  3
OCTAGONV
  0
POLYLINE
  8
0
 66
1
 10
0.0000
 20
0.0000
 30
0.0000
 40
0.0000
 41
0.0000
 70
1
  0
VERTEX
  8
0
 10
-0.5000
 20
-0.2071
 30
0.0000
  0
VERTEX
  8
0
 10
-0.5000
 20
0.2071
 30
0.0000
  0
VERTEX
  8
0
 10
-0.2071
 20
0.5000
 30
0.0000
  0
VERTEX
  8
0
 10
0.2071
 20
0.5000
 30
0.0000
  0
VERTEX
  8
0
 10
0.5000
 20
0.2071
 30
0.0000
  0
VERTEX
  8
0
 10
0.5000
 20
-0.2071
 30
0.0000
  0
VERTEX
  8
0
 10
0.2071
 20
-0.5000
 30
0.0000
  0
VERTEX
  8
0
 10
-0.2071
 20
-0.5000
 30
0.0000
  0
SEQEND
  8
0
  0
ENDBLK
  8
0
  0
BLOCK
  8
0
  2
SQUAREV
 70
64
 10
0.0000
 20
0.0000
 30
0.0000
  3
SQUAREV
  0
SOLID
  8
0
 10
-0.5000
 20
-0.5000
 30
0.0000
 11
0.5000
 21
-0.5000
 31
0.0000
 12
-0.5000
 22
0.5000
 32
0.0000
 13
0.5000
 23
0.5000
 33
0.0000
  0
ENDBLK
  8
0
  0
BLOCK
  8
0
  2
ROUNDV
 70
64
 10
0.0000
 20
0.0000
 30
0.0000
  3
ROUNDV
  0
CIRCLE
  8
0
 10
0.0000
 20
0.0000
 30
0.0000
 40
0.5000
  0
ENDBLK
  8
0
  0
BLOCK
  8
0
  2
ANNULUSV
 70
64
 10
0.0000
 20
0.0000
 30
0.0000
  3
ANNULUSV
  0
CIRCLE
  8
0
 10
0.0000
 20
0.0000
 30
0.0000
 40
0.5000
  0
ENDBLK
  8
0
  0
BLOCK
  8
0
  2
THERMALV
 70
64
 10
0.0000
 20
0.0000
 30
0.0000
  3
THERMALV
  0
POLYLINE
  8
0
 66
1
 10
0.0000
 20
0.0000
 30
0.0000
 40
0.0000
 41
0.0000
 70
1
  0
VERTEX
  8
0
 10
-0.2379
 20
0.4000
 30
0.0000
  0
VERTEX
  8
0
 10
0.2379
 20
0.4000
 30
0.0000
 42
1.0000
  0
VERTEX
  8
0
 10
0.2379
 20
0.5000
 30
0.0000
  0
VERTEX
  8
0
 10
-0.2379
 20
0.5000
 30
0.0000
 42
1.0000
  0
SEQEND
  8
0
  0
POLYLINE
  8
0
 66
1
 10
0.0000
 20
0.0000
 30
0.0000
 40
0.0000
 41
0.0000
 70
1
  0
VERTEX
  8
0
 10
0.4000
 20
0.2379
 30
0.0000
  0
VERTEX
  8
0
 10
0.4000
 20
-0.2379
 30
0.0000
 42
1.0000
  0
VERTEX
  8
0
 10
0.5000
 20
-0.2379
 30
0.0000
  0
VERTEX
  8
0
 10
0.5000
 20
0.2379
 30
0.0000
 42
1.0000
  0
SEQEND
  8
0
  0
POLYLINE
  8
0
 66
1
 10
0.0000
 20
0.0000
 30
0.0000
 40
0.0000
 41
0.0000
 70
1
  0
VERTEX
  8
0
 10
0.2379
 20
-0.4000
 30
0.0000
  0
VERTEX
  8
0
 10
-0.2379
 20
-0.4000
 30
0.0000
 42
1.0000
  0
VERTEX
  8
0
 10
-0.2379
 20
-0.5000
 30
0.0000
  0
VERTEX
  8
0
 10
0.2379
 20
-0.5000
 30
0.0000
 42
1.0000
  0
SEQEND
  8
0
  0
POLYLINE
  8
0
 66
1
 10
0.0000
 20
0.0000
 30
0.0000
 40
0.0000
 41
0.0000
 70
1
  0
VERTEX
  8
0
 10
-0.4000
 20
-0.2379
 30
0.0000
  0
VERTEX
  8
0
 10
-0.4000
 20
0.2379
 30
0.0000
 42
1.0000
  0
VERTEX
  8
0
 10
-0.5000
 20
0.2379
 30
0.0000
  0
VERTEX
  8
0
 10
-0.5000
 20
-0.2379
 30
0.0000
 42
1.0000
  0
SEQEND
  8
0
  0
ENDBLK
  8
0
  0
BLOCK
  8
0
  2
RECT0X0R100
 70
64
 10
0.0000
 20
0.0000
 30
0.0000
  3
RECT0X0R100
  0
POLYLINE
  8
0
 66
1
 10
0.0000
 20
0.0000
 30
0.0000
 40
0.0000
 41
0.0000
 70
1
  0
VERTEX
  8
0
 10
0.0000
 20
0.0000
 30
0.0000
  0
VERTEX
  8
0
 10
0.0000
 20
0.0000
 30
0.0000
 42
0.4142
  0
VERTEX
  8
0
 10
0.0000
 20
0.0000
 30
0.0000
  0
VERTEX
  8
0
 10
0.0000
 20
0.0000
 30
0.0000
 42
0.4142
  0
VERTEX
  8
0
 10
0.0000
 20
0.0000
 30
0.0000
  0
VERTEX
  8
0
 10
0.0000
 20
0.0000
 30
0.0000
 42
0.4142
  0
VERTEX
  8
0
 10
0.0000
 20
0.0000
 30
0.0000
  0
VERTEX
  8
0
 10
0.0000
 20
0.0000
 30
0.0000
 42
0.4142
  0
SEQEND
  8
0
  0
ENDBLK
  8
0
  0
BLOCK
  8
0
  2
LONGP100
 70
64
 10
0.0000
 20
0.0000
 30
0.0000
  3
LONGP100
  0
POLYLINE
  8
0
 66
1
 10
0.0000
 20
0.0000
 30
0.0000
 40
0.0000
 41
0.0000
 70
1
  0
VERTEX
  8
0
 10
-0.5000
 20
-0.5000
 30
0.0000
  0
VERTEX
  8
0
 10
0.5000
 20
-0.5000
 30
0.0000
 42
1.0000
  0
VERTEX
  8
0
 10
0.5000
 20
0.5000
 30
0.0000
  0
VERTEX
  8
0
 10
-0.5000
 20
0.5000
 30
0.0000
 42
1.0000
  0
SEQEND
  8
0
  0
ENDBLK
  8
0
  0
ENDSEC
  0
SECTION
  2
ENTITIES
  0
LINE
  8
20
 10
96.0000
 20
-11.0000
 30
0.0000
 11
96.0000
 21
34.0000
 31
0.0000
  0
LINE
  8
20
 10
96.0000
 20
34.0000
 30
0.0000
 11
88.0028
 21
41.9972
 31
0.0000
  0
LINE
  8
20
 10
88.0028
 20
41.9972
 30
0.0000
 11
7.9972
 21
41.9972
 31
0.0000
  0
LINE
  8
20
 10
7.9972
 20
41.9972
 30
0.0000
 11
0.0000
 21
34.0000
 31
0.0000
  0
LINE
  8
20
 10
0.0000
 20
34.0000
 30
0.0000
 11
0.0000
 21
0.0000
 31
0.0000
  0
LINE
  8
20
 10
0.0000
 20
0.0000
 30
0.0000
 11
29.3500
 21
0.0000
 31
0.0000
  0
LINE
  8
20
 10
29.3500
 20
0.0000
 30
0.0000
 11
29.3500
 21
10.0000
 31
0.0000
  0
LINE
  8
20
 10
29.3500
 20
10.0000
 30
0.0000
 11
74.8100
 21
10.0000
 31
0.0000
  0
LINE
  8
20
 10
74.8100
 20
10.0000
 30
0.0000
 11
74.8100
 21
-11.0000
 31
0.0000
  0
LINE
  8
20
 10
74.8100
 20
-11.0000
 30
0.0000
 11
96.0000
 21
-11.0000
 31
0.0000
  0
CIRCLE
  8
20
 10
5.0800
 20
34.0800
 30
0.0000
 40
1.5500
  0
CIRCLE
  8
20
 10
91.0800
 20
34.0800
 30
0.0000
 40
1.5500
  0
CIRCLE
  8
20
 10
3.0800
 20
3.0800
 30
0.0000
 40
1.5500
  0
CIRCLE
  8
20
 10
93.0800
 20
-7.9200
 30
0.0000
 40
1.5500
  0
INSERT
  8
32
  2
RECT
 10
95.0324
 20
30.6832
 30
0.0000
 41
0.8000
 42
1.2000
 43
1.0000
 50
180.0000
  0
INSERT
  8
32
  2
RECT
 10
93.2324
 20
30.6832
 30
0.0000
 41
0.8000
 42
1.2000
 43
1.0000
 50
180.0000
  0
INSERT
  8
32
  2
RECT
 10
86.6140
 20
34.6600
 30
0.0000
 41
0.8000
 42
1.2000
 43
1.0000
 50
90.0000
  0
INSERT
  8
32
  2
RECT
 10
86.6140
 20
36.4600
 30
0.0000
 41
0.8000
 42
1.2000
 43
1.0000
 50
90.0000
  0
INSERT
  8
32
  2
RECT
 10
83.5660
 20
4.6372
 30
0.0000
 41
0.8000
 42
1.2000
 43
1.0000
 50
90.0000
  0
INSERT
  8
32
  2
RECT
 10
83.5660
 20
6.4372
 30
0.0000
 41
0.8000
 42
1.2000
 43
1.0000
 50
90.0000
  0
INSERT
  8
32
  2
RECT
 10
62.2300
 20
22.4680
 30
0.0000
 41
0.8000
 42
1.2000
 43
1.0000
 50
90.0000
  0
INSERT
  8
32
  2
RECT
 10
62.2300
 20
24.2680
 30
0.0000
 41
0.8000
 42
1.2000
 43
1.0000
 50
90.0000
  0
INSERT
  8
32
  2
RECT
 10
81.7880
 20
1.3860
 30
0.0000
 41
0.8000
 42
1.2000
 43
1.0000
 50
90.0000
  0
INSERT
  8
32
  2
RECT
 10
81.7880
 20
3.1860
 30
0.0000
 41
0.8000
 42
1.2000
 43
1.0000
 50
90.0000
  0
INSERT
  8
32
  2
RECT
 10
81.7880
 20
4.6880
 30
0.0000
 41
0.8000
 42
1.2000
 43
1.0000
 50
90.0000
  0
INSERT
  8
32
  2
RECT
 10
81.7880
 20
6.4880
 30
0.0000
 41
0.8000
 42
1.2000
 43
1.0000
 50
90.0000
  0
INSERT
  8
32
  2
RECT
 10
77.9399
 20
20.4707
 30
0.0000
 41
0.8000
 42
1.2000
 43
1.0000
 50
270.0000
  0
INSERT
  8
32
  2
RECT
 10
77.9399
 20
18.6707
 30
0.0000
 41
0.8000
 42
1.2000
 43
1.0000
 50
270.0000
  0
INSERT
  8
32
  2
RECT
 10
10.9347
 20
24.0555
 30
0.0000
 41
0.8000
 42
1.2000
 43
1.0000
 50
90.0000
  0
INSERT
  8
32
  2
RECT
 10
10.9347
 20
25.8555
 30
0.0000
 41
0.8000
 42
1.2000
 43
1.0000
 50
90.0000
  0
INSERT
  8
32
  2
RECT
 10
85.8757
 20
17.9578
 30
0.0000
 41
0.8000
 42
1.2000
 43
1.0000
 50
180.0000
  0
INSERT
  8
32
  2
RECT
 10
84.0757
 20
17.9578
 30
0.0000
 41
0.8000
 42
1.2000
 43
1.0000
 50
180.0000
  0
INSERT
  8
32
  2
RECT
 10
87.9077
 20
19.7358
 30
0.0000
 41
0.8000
 42
1.2000
 43
1.0000
 50
180.0000
  0
INSERT
  8
32
  2
RECT
 10
86.1077
 20
19.7358
 30
0.0000
 41
0.8000
 42
1.2000
 43
1.0000
 50
180.0000
  0
INSERT
  8
32
  2
RECT
 10
31.7119
 20
23.5079
 30
0.0000
 41
1.2000
 42
2.0000
 43
1.0000
 50
90.0000
  0
INSERT
  8
32
  2
RECT
 10
31.7119
 20
26.7079
 30
0.0000
 41
1.2000
 42
2.0000
 43
1.0000
 50
90.0000
  0
INSERT
  8
32
  2
RECT
 10
28.6639
 20
23.5079
 30
0.0000
 41
1.2000
 42
2.0000
 43
1.0000
 50
90.0000
  0
INSERT
  8
32
  2
RECT
 10
28.6639
 20
26.7079
 30
0.0000
 41
1.2000
 42
2.0000
 43
1.0000
 50
90.0000
  0
INSERT
  8
32
  2
RECT
 10
34.7218
 20
23.5587
 30
0.0000
 41
1.2000
 42
2.0000
 43
1.0000
 50
90.0000
  0
INSERT
  8
32
  2
RECT
 10
34.7218
 20
26.7587
 30
0.0000
 41
1.2000
 42
2.0000
 43
1.0000
 50
90.0000
  0
INSERT
  8
32
  2
RECT
 10
25.7429
 20
23.5079
 30
0.0000
 41
1.2000
 42
2.0000
 43
1.0000
 50
90.0000
  0
INSERT
  8
32
  2
RECT
 10
25.7429
 20
26.7079
 30
0.0000
 41
1.2000
 42
2.0000
 43
1.0000
 50
90.0000
  0
INSERT
  8
32
  2
RECT
 10
72.5280
 20
33.5280
 30
0.0000
 41
0.8000
 42
1.2000
 43
1.0000
 50
180.0000
  0
INSERT
  8
32
  2
RECT
 10
70.7280
 20
33.5280
 30
0.0000
 41
0.8000
 42
1.2000
 43
1.0000
 50
180.0000
  0
INSERT
  8
32
  2
RECT
 10
21.5900
 20
18.6800
 30
0.0000
 41
0.8000
 42
1.2000
 43
1.0000
 50
270.0000
  0
INSERT
  8
32
  2
RECT
 10
21.5900
 20
16.8800
 30
0.0000
 41
0.8000
 42
1.2000
 43
1.0000
 50
270.0000
  0
POLYLINE
  8
40
 66
1
 10
0.0000
 20
0.0000
 30
0.0000
 40
0.0000
 41
0.0000
 70
1
  0
VERTEX
  8
40
 10
24.6304
 20
15.3070
 30
0.0000
  0
VERTEX
  8
40
 10
24.6304
 20
20.2530
 30
0.0000
 42
1.0000
  0
VERTEX
  8
40
 10
24.5796
 20
20.2530
 30
0.0000
  0
VERTEX
  8
40
 10
24.5796
 20
15.3070
 30
0.0000
 42
1.0000
  0
SEQEND
  8
0
  0
POLYLINE
  8
40
 66
1
 10
0.0000
 20
0.0000
 30
0.0000
 40
0.0000
 41
0.0000
 70
1
  0
VERTEX
  8
40
 10
22.6136
 20
20.2530
 30
0.0000
  0
VERTEX
  8
40
 10
22.6136
 20
15.3070
 30
0.0000
 42
1.0000
  0
VERTEX
  8
40
 10
22.6644
 20
15.3070
 30
0.0000
  0
VERTEX
  8
40
 10
22.6644
 20
20.2530
 30
0.0000
 42
1.0000
  0
SEQEND
  8
0
  0
POLYLINE
  8
40
 66
1
 10
0.0000
 20
0.0000
 30
0.0000
 40
0.0000
 41
0.0000
 70
1
  0
VERTEX
  8
40
 10
22.6390
 20
15.2816
 30
0.0000
  0
VERTEX
  8
40
 10
24.6050
 20
15.2816
 30
0.0000
 42
1.0000
  0
VERTEX
  8
40
 10
24.6050
 20
15.3324
 30
0.0000
  0
VERTEX
  8
40
 10
22.6390
 20
15.3324
 30
0.0000
 42
1.0000
  0
SEQEND
  8
0
  0
POLYLINE
  8
40
 66
1
 10
0.0000
 20
0.0000
 30
0.0000
 40
0.0000
 41
0.0000
 70
1
  0
VERTEX
  8
40
 10
24.6050
 20
20.2784
 30
0.0000
  0
VERTEX
  8
40
 10
22.6390
 20
20.2784
 30
0.0000
 42
1.0000
  0
VERTEX
  8
40
 10
22.6390
 20
20.2276
 30
0.0000
  0
VERTEX
  8
40
 10
24.6050
 20
20.2276
 30
0.0000
 42
1.0000
  0
SEQEND
  8
0
  0
INSERT
  8
32
  2
RECT
 10
23.6220
 20
16.3800
 30
0.0000
 41
1.6000
 42
1.8000
 43
1.0000
 50
90.0000
  0
INSERT
  8
32
  2
RECT
 10
23.6220
 20
19.1800
 30
0.0000
 41
1.6000
 42
1.8000
 43
1.0000
 50
90.0000
  0
INSERT
  8
32
  2
RECT
 10
73.1630
 20
21.7170
 30
0.0000
 41
0.8000
 42
1.2000
 43
1.0000
 50
180.0000
  0
INSERT
  8
32
  2
RECT
 10
71.3630
 20
21.7170
 30
0.0000
 41
0.8000
 42
1.2000
 43
1.0000
 50
180.0000
  0
INSERT
  8
32
  2
RECT
 10
23.6501
 20
7.3741
 30
0.0000
 41
1.0000
 42
1.4000
 43
1.0000
 50
0.0000
  0
INSERT
  8
32
  2
RECT
 10
25.5501
 20
7.3741
 30
0.0000
 41
1.0000
 42
1.4000
 43
1.0000
 50
0.0000
  0
INSERT
  8
32
  2
RECT
 10
24.6001
 20
5.1741
 30
0.0000
 41
1.0000
 42
1.4000
 43
1.0000
 50
0.0000
  0
INSERT
  8
32
  2
RECT
 10
14.0360
 20
20.1500
 30
0.0000
 41
1.0000
 42
1.4000
 43
1.0000
 50
0.0000
  0
INSERT
  8
32
  2
RECT
 10
15.9360
 20
20.1500
 30
0.0000
 41
1.0000
 42
1.4000
 43
1.0000
 50
0.0000
  0
INSERT
  8
32
  2
RECT
 10
14.9860
 20
17.9500
 30
0.0000
 41
1.0000
 42
1.4000
 43
1.0000
 50
0.0000
  0
INSERT
  8
32
  2
RECT
 10
20.2640
 20
15.2300
 30
0.0000
 41
0.8000
 42
1.8000
 43
1.0000
 50
270.0000
  0
INSERT
  8
32
  2
RECT
 10
20.2640
 20
12.0300
 30
0.0000
 41
0.8000
 42
1.8000
 43
1.0000
 50
270.0000
  0
INSERT
  8
32
  2
RECT
 10
20.2640
 20
9.8300
 30
0.0000
 41
0.8000
 42
1.8000
 43
1.0000
 50
270.0000
  0
INSERT
  8
32
  2
RECT
 10
20.2640
 20
7.6300
 30
0.0000
 41
0.8000
 42
1.8000
 43
1.0000
 50
270.0000
  0
INSERT
  8
32
  2
RECT
 10
13.2640
 20
7.6300
 30
0.0000
 41
0.8000
 42
1.8000
 43
1.0000
 50
270.0000
  0
INSERT
  8
32
  2
RECT
 10
13.2640
 20
9.8300
 30
0.0000
 41
0.8000
 42
1.8000
 43
1.0000
 50
270.0000
  0
INSERT
  8
32
  2
RECT
 10
13.2640
 20
12.0300
 30
0.0000
 41
0.8000
 42
1.8000
 43
1.0000
 50
270.0000
  0
INSERT
  8
32
  2
RECT
 10
13.2640
 20
15.2300
 30
0.0000
 41
0.8000
 42
1.8000
 43
1.0000
 50
270.0000
  0
INSERT
  8
32
  2
RECT
 10
18.5140
 20
17.1800
 30
0.0000
 41
2.5000
 42
2.5000
 43
1.0000
 50
270.0000
  0
INSERT
  8
32
  2
RECT
 10
15.0140
 20
5.6800
 30
0.0000
 41
2.5000
 42
2.5000
 43
1.0000
 50
270.0000
  0
INSERT
  8
32
  2
RECT
 10
81.0237
 20
19.3908
 30
0.0000
 41
0.7000
 42
0.7000
 43
1.0000
 50
0.0000
  0
INSERT
  8
32
  2
RECT
 10
82.3237
 20
19.3908
 30
0.0000
 41
0.7000
 42
0.7000
 43
1.0000
 50
0.0000
  0
INSERT
  8
32
  2
RECT
 10
81.6737
 20
17.5408
 30
0.0000
 41
0.7000
 42
0.7000
 43
1.0000
 50
0.0000
  0
INSERT
  8
32
  2
RECT
 10
87.7206
 20
0.2413
 30
0.0000
 41
0.8000
 42
1.2000
 43
1.0000
 50
0.0000
  0
INSERT
  8
32
  2
RECT
 10
89.5206
 20
0.2413
 30
0.0000
 41
0.8000
 42
1.2000
 43
1.0000
 50
0.0000
  0
POLYLINE
  8
40
 66
1
 10
0.0000
 20
0.0000
 30
0.0000
 40
0.0000
 41
0.0000
 70
1
  0
VERTEX
  8
40
 10
76.5210
 20
-7.4854
 30
0.0000
  0
VERTEX
  8
40
 10
81.4670
 20
-7.4854
 30
0.0000
 42
1.0000
  0
VERTEX
  8
40
 10
81.4670
 20
-7.4346
 30
0.0000
  0
VERTEX
  8
40
 10
76.5210
 20
-7.4346
 30
0.0000
 42
1.0000
  0
SEQEND
  8
0
  0
POLYLINE
  8
40
 66
1
 10
0.0000
 20
0.0000
 30
0.0000
 40
0.0000
 41
0.0000
 70
1
  0
VERTEX
  8
40
 10
81.4670
 20
-5.4686
 30
0.0000
  0
VERTEX
  8
40
 10
76.5210
 20
-5.4686
 30
0.0000
 42
1.0000
  0
VERTEX
  8
40
 10
76.5210
 20
-5.5194
 30
0.0000
  0
VERTEX
  8
40
 10
81.4670
 20
-5.5194
 30
0.0000
 42
1.0000
  0
SEQEND
  8
0
  0
POLYLINE
  8
40
 66
1
 10
0.0000
 20
0.0000
 30
0.0000
 40
0.0000
 41
0.0000
 70
1
  0
VERTEX
  8
40
 10
76.4956
 20
-5.4940
 30
0.0000
  0
VERTEX
  8
40
 10
76.4956
 20
-7.4600
 30
0.0000
 42
1.0000
  0
VERTEX
  8
40
 10
76.5464
 20
-7.4600
 30
0.0000
  0
VERTEX
  8
40
 10
76.5464
 20
-5.4940
 30
0.0000
 42
1.0000
  0
SEQEND
  8
0
  0
POLYLINE
  8
40
 66
1
 10
0.0000
 20
0.0000
 30
0.0000
 40
0.0000
 41
0.0000
 70
1
  0
VERTEX
  8
40
 10
81.4924
 20
-7.4600
 30
0.0000
  0
VERTEX
  8
40
 10
81.4924
 20
-5.4940
 30
0.0000
 42
1.0000
  0
VERTEX
  8
40
 10
81.4416
 20
-5.4940
 30
0.0000
  0
VERTEX
  8
40
 10
81.4416
 20
-7.4600
 30
0.0000
 42
1.0000
  0
SEQEND
  8
0
  0
INSERT
  8
32
  2
RECT
 10
77.5940
 20
-6.4770
 30
0.0000
 41
1.6000
 42
1.8000
 43
1.0000
 50
0.0000
  0
INSERT
  8
32
  2
RECT
 10
80.3940
 20
-6.4770
 30
0.0000
 41
1.6000
 42
1.8000
 43
1.0000
 50
0.0000
  0
POLYLINE
  8
40
 66
1
 10
0.0000
 20
0.0000
 30
0.0000
 40
0.0000
 41
0.0000
 70
1
  0
VERTEX
  8
40
 10
76.5591
 20
-9.8222
 30
0.0000
  0
VERTEX
  8
40
 10
81.5051
 20
-9.8222
 30
0.0000
 42
1.0000
  0
VERTEX
  8
40
 10
81.5051
 20
-9.7714
 30
0.0000
  0
VERTEX
  8
40
 10
76.5591
 20
-9.7714
 30
0.0000
 42
1.0000
  0
SEQEND
  8
0
  0
POLYLINE
  8
40
 66
1
 10
0.0000
 20
0.0000
 30
0.0000
 40
0.0000
 41
0.0000
 70
1
  0
VERTEX
  8
40
 10
81.5051
 20
-7.8054
 30
0.0000
  0
VERTEX
  8
40
 10
76.5591
 20
-7.8054
 30
0.0000
 42
1.0000
  0
VERTEX
  8
40
 10
76.5591
 20
-7.8562
 30
0.0000
  0
VERTEX
  8
40
 10
81.5051
 20
-7.8562
 30
0.0000
 42
1.0000
  0
SEQEND
  8
0
  0
POLYLINE
  8
40
 66
1
 10
0.0000
 20
0.0000
 30
0.0000
 40
0.0000
 41
0.0000
 70
1
  0
VERTEX
  8
40
 10
76.5337
 20
-7.8308
 30
0.0000
  0
VERTEX
  8
40
 10
76.5337
 20
-9.7968
 30
0.0000
 42
1.0000
  0
VERTEX
  8
40
 10
76.5845
 20
-9.7968
 30
0.0000
  0
VERTEX
  8
40
 10
76.5845
 20
-7.8308
 30
0.0000
 42
1.0000
  0
SEQEND
  8
0
  0
POLYLINE
  8
40
 66
1
 10
0.0000
 20
0.0000
 30
0.0000
 40
0.0000
 41
0.0000
 70
1
  0
VERTEX
  8
40
 10
81.5305
 20
-9.7968
 30
0.0000
  0
VERTEX
  8
40
 10
81.5305
 20
-7.8308
 30
0.0000
 42
1.0000
  0
VERTEX
  8
40
 10
81.4797
 20
-7.8308
 30
0.0000
  0
VERTEX
  8
40
 10
81.4797
 20
-9.7968
 30
0.0000
 42
1.0000
  0
SEQEND
  8
0
  0
INSERT
  8
32
  2
RECT
 10
77.6321
 20
-8.8138
 30
0.0000
 41
1.6000
 42
1.8000
 43
1.0000
 50
0.0000
  0
INSERT
  8
32
  2
RECT
 10
80.4321
 20
-8.8138
 30
0.0000
 41
1.6000
 42
1.8000
 43
1.0000
 50
0.0000
  0
INSERT
  8
32
  2
RECT
 10
82.8277
 20
21.0058
 30
0.0000
 41
0.8000
 42
1.2000
 43
1.0000
 50
180.0000
  0
INSERT
  8
32
  2
RECT
 10
81.0277
 20
21.0058
 30
0.0000
 41
0.8000
 42
1.2000
 43
1.0000
 50
180.0000
  0
INSERT
  8
32
  2
RECT
 10
8.9662
 20
23.9666
 30
0.0000
 41
0.8000
 42
1.2000
 43
1.0000
 50
90.0000
  0
INSERT
  8
32
  2
RECT
 10
8.9662
 20
25.7666
 30
0.0000
 41
0.8000
 42
1.2000
 43
1.0000
 50
90.0000
  0
INSERT
  8
32
  2
RECT
 10
87.9077
 20
21.2598
 30
0.0000
 41
0.8000
 42
1.2000
 43
1.0000
 50
180.0000
  0
INSERT
  8
32
  2
RECT
 10
86.1077
 20
21.2598
 30
0.0000
 41
0.8000
 42
1.2000
 43
1.0000
 50
180.0000
  0
INSERT
  8
32
  2
RECT
 10
79.5401
 20
17.7817
 30
0.0000
 41
0.8000
 42
1.2000
 43
1.0000
 50
90.0000
  0
INSERT
  8
32
  2
RECT
 10
79.5401
 20
19.5817
 30
0.0000
 41
0.8000
 42
1.2000
 43
1.0000
 50
90.0000
  0
INSERT
  8
32
  2
RECT
 10
89.5460
 20
2.6670
 30
0.0000
 41
0.8000
 42
1.2000
 43
1.0000
 50
180.0000
  0
INSERT
  8
32
  2
RECT
 10
87.7460
 20
2.6670
 30
0.0000
 41
0.8000
 42
1.2000
 43
1.0000
 50
180.0000
  0
ENDSEC
  0
EOF
