  0
SECTION
  2
HEADER
  9
$ACADVER
  1
AC1009
  9
$FILLMODE
 70
1
  9
$EXTMIN
 10
-0.2032
 20
-12.8866
 30
0.0000
  9
$EXTMAX
 10
96.2787
 20
42.2402
 30
0.0000
  0
ENDSEC
  0
SECTION
  2
TABLES
  0
TABLE
  2
LTYPE
 70
1
  0
LTYPE
  2
CONTINUOUS
 70
64
  3
Solid line
 72
65
 73
0
 40
0
  0
ENDTAB
  0
TABLE
  2
LAYER
 70
255
  0
LAYER
  2
17
 70
64
 62
82
  6
CONTINUOUS
  0
LAYER
  2
18
 70
64
 62
82
  6
CONTINUOUS
  0
LAYER
  2
19
 70
64
 62
53
  6
CONTINUOUS
  0
LAYER
  2
20
 70
64
 62
7
  6
CONTINUOUS
  0
LAYER
  2
31
 70
64
 62
253
  6
CONTINUOUS
  0
LAYER
  2
40
 70
64
 62
175
  6
CONTINUOUS
  0
ENDTAB
  0
ENDSEC
  0
SECTION
  2
BLOCKS
  0
BLOCK
  8
0
  2
RECT
 70
64
 10
0.0000
 20
0.0000
 30
0.0000
  3
RECT
  0
SOLID
  8
0
 10
-0.5000
 20
-0.5000
 30
0.0000
 11
0.5000
 21
-0.5000
 31
0.0000
 12
-0.5000
 22
0.5000
 32
0.0000
 13
0.5000
 23
0.5000
 33
0.0000
  0
ENDBLK
  8
0
  0
BLOCK
  8
0
  2
PIE
 70
64
 10
0.0000
 20
0.0000
 30
0.0000
  3
PIE
  0
POLYLINE
  8
0
 66
1
 10
0.0000
 20
0.0000
 30
0.0000
 40
0.5000
 41
0.5000
 70
0
  0
VERTEX
  8
0
 10
0.0000
 20
-0.2500
 30
0.0000
 42
1.0000
  0
VERTEX
  8
0
 10
0.0000
 20
0.2500
 30
0.0000
 42
1.0000
  0
VERTEX
  8
0
 10
0.0000
 20
-0.2500
 30
0.0000
  0
SEQEND
  8
0
  0
ENDBLK
  8
0
  0
BLOCK
  8
0
  2
OCTAGONP
 70
64
 10
0.0000
 20
0.0000
 30
0.0000
  3
OCTAGONP
  0
POLYLINE
  8
0
 66
1
 10
0.0000
 20
0.0000
 30
0.0000
 40
0.5000
 41
0.5000
 70
0
  0
VERTEX
  8
0
 10
-0.2500
 20
-0.1036
 30
0.0000
  0
VERTEX
  8
0
 10
-0.2500
 20
0.1036
 30
0.0000
  0
VERTEX
  8
0
 10
-0.1036
 20
0.2500
 30
0.0000
  0
VERTEX
  8
0
 10
0.1036
 20
0.2500
 30
0.0000
  0
VERTEX
  8
0
 10
0.2500
 20
0.1036
 30
0.0000
  0
VERTEX
  8
0
 10
0.2500
 20
-0.1036
 30
0.0000
  0
VERTEX
  8
0
 10
0.1036
 20
-0.2500
 30
0.0000
  0
VERTEX
  8
0
 10
-0.1036
 20
-0.2500
 30
0.0000
  0
VERTEX
  8
0
 10
-0.2500
 20
-0.1036
 30
0.0000
  0
VERTEX
  8
0
 10
-0.2500
 20
0.1036
 30
0.0000
  0
SEQEND
  8
0
  0
ENDBLK
  8
0
  0
BLOCK
  8
0
  2
SQUAREP
 70
64
 10
0.0000
 20
0.0000
 30
0.0000
  3
SQUAREP
  0
SOLID
  8
0
 10
-0.5000
 20
-0.5000
 30
0.0000
 11
0.5000
 21
-0.5000
 31
0.0000
 12
-0.5000
 22
0.5000
 32
0.0000
 13
0.5000
 23
0.5000
 33
0.0000
  0
ENDBLK
  8
0
  0
BLOCK
  8
0
  2
ROUNDP
 70
64
 10
0.0000
 20
0.0000
 30
0.0000
  3
ROUNDP
  0
POLYLINE
  8
0
 66
1
 10
0.0000
 20
0.0000
 30
0.0000
 40
0.5000
 41
0.5000
 70
0
  0
VERTEX
  8
0
 10
0.0000
 20
-0.2500
 30
0.0000
 42
1.0000
  0
VERTEX
  8
0
 10
0.0000
 20
0.2500
 30
0.0000
 42
1.0000
  0
VERTEX
  8
0
 10
0.0000
 20
-0.2500
 30
0.0000
  0
SEQEND
  8
0
  0
ENDBLK
  8
0
  0
BLOCK
  8
0
  2
ANNULUSP
 70
64
 10
0.0000
 20
0.0000
 30
0.0000
  3
ANNULUSP
  0
POLYLINE
  8
0
 66
1
 10
0.0000
 20
0.0000
 30
0.0000
 40
0.5000
 41
0.5000
 70
0
  0
VERTEX
  8
0
 10
0.0000
 20
-0.2500
 30
0.0000
 42
1.0000
  0
VERTEX
  8
0
 10
0.0000
 20
0.2500
 30
0.0000
 42
1.0000
  0
VERTEX
  8
0
 10
0.0000
 20
-0.2500
 30
0.0000
  0
SEQEND
  8
0
  0
ENDBLK
  8
0
  0
BLOCK
  8
0
  2
THERMALP
 70
64
 10
0.0000
 20
0.0000
 30
0.0000
  3
THERMALP
  0
POLYLINE
  8
0
 66
1
 10
0.0000
 20
0.0000
 30
0.0000
 40
0.1000
 41
0.1000
 70
0
  0
VERTEX
  8
0
 10
-0.2379
 20
0.4500
 30
0.0000
  0
VERTEX
  8
0
 10
0.2379
 20
0.4500
 30
0.0000
  0
SEQEND
  8
0
  0
POLYLINE
  8
0
 66
1
 10
0.0000
 20
0.0000
 30
0.0000
 40
0.0500
 41
0.0500
 70
0
  0
VERTEX
  8
0
 10
0.2379
 20
0.4250
 30
0.0000
 42
1.0000
  0
VERTEX
  8
0
 10
0.2379
 20
0.4750
 30
0.0000
  0
SEQEND
  8
0
  0
POLYLINE
  8
0
 66
1
 10
0.0000
 20
0.0000
 30
0.0000
 40
0.0500
 41
0.0500
 70
0
  0
VERTEX
  8
0
 10
-0.2379
 20
0.4750
 30
0.0000
 42
1.0000
  0
VERTEX
  8
0
 10
-0.2379
 20
0.4250
 30
0.0000
  0
SEQEND
  8
0
  0
POLYLINE
  8
0
 66
1
 10
0.0000
 20
0.0000
 30
0.0000
 40
0.1000
 41
0.1000
 70
0
  0
VERTEX
  8
0
 10
0.4500
 20
0.2379
 30
0.0000
  0
VERTEX
  8
0
 10
0.4500
 20
-0.2379
 30
0.0000
  0
SEQEND
  8
0
  0
POLYLINE
  8
0
 66
1
 10
0.0000
 20
0.0000
 30
0.0000
 40
0.0500
 41
0.0500
 70
0
  0
VERTEX
  8
0
 10
0.4250
 20
-0.2379
 30
0.0000
 42
1.0000
  0
VERTEX
  8
0
 10
0.4750
 20
-0.2379
 30
0.0000
  0
SEQEND
  8
0
  0
POLYLINE
  8
0
 66
1
 10
0.0000
 20
0.0000
 30
0.0000
 40
0.0500
 41
0.0500
 70
0
  0
VERTEX
  8
0
 10
0.4750
 20
0.2379
 30
0.0000
 42
1.0000
  0
VERTEX
  8
0
 10
0.4250
 20
0.2379
 30
0.0000
  0
SEQEND
  8
0
  0
POLYLINE
  8
0
 66
1
 10
0.0000
 20
0.0000
 30
0.0000
 40
0.1000
 41
0.1000
 70
0
  0
VERTEX
  8
0
 10
0.2379
 20
-0.4500
 30
0.0000
  0
VERTEX
  8
0
 10
-0.2379
 20
-0.4500
 30
0.0000
  0
SEQEND
  8
0
  0
POLYLINE
  8
0
 66
1
 10
0.0000
 20
0.0000
 30
0.0000
 40
0.0500
 41
0.0500
 70
0
  0
VERTEX
  8
0
 10
-0.2379
 20
-0.4250
 30
0.0000
 42
1.0000
  0
VERTEX
  8
0
 10
-0.2379
 20
-0.4750
 30
0.0000
  0
SEQEND
  8
0
  0
POLYLINE
  8
0
 66
1
 10
0.0000
 20
0.0000
 30
0.0000
 40
0.0500
 41
0.0500
 70
0
  0
VERTEX
  8
0
 10
0.2379
 20
-0.4750
 30
0.0000
 42
1.0000
  0
VERTEX
  8
0
 10
0.2379
 20
-0.4250
 30
0.0000
  0
SEQEND
  8
0
  0
POLYLINE
  8
0
 66
1
 10
0.0000
 20
0.0000
 30
0.0000
 40
0.1000
 41
0.1000
 70
0
  0
VERTEX
  8
0
 10
-0.4500
 20
-0.2379
 30
0.0000
  0
VERTEX
  8
0
 10
-0.4500
 20
0.2379
 30
0.0000
  0
SEQEND
  8
0
  0
POLYLINE
  8
0
 66
1
 10
0.0000
 20
0.0000
 30
0.0000
 40
0.0500
 41
0.0500
 70
0
  0
VERTEX
  8
0
 10
-0.4250
 20
0.2379
 30
0.0000
 42
1.0000
  0
VERTEX
  8
0
 10
-0.4750
 20
0.2379
 30
0.0000
  0
SEQEND
  8
0
  0
POLYLINE
  8
0
 66
1
 10
0.0000
 20
0.0000
 30
0.0000
 40
0.0500
 41
0.0500
 70
0
  0
VERTEX
  8
0
 10
-0.4750
 20
-0.2379
 30
0.0000
 42
1.0000
  0
VERTEX
  8
0
 10
-0.4250
 20
-0.2379
 30
0.0000
  0
SEQEND
  8
0
  0
ENDBLK
  8
0
  0
BLOCK
  8
0
  2
OCTAGONV
 70
64
 10
0.0000
 20
0.0000
 30
0.0000
  3
OCTAGONV
  0
POLYLINE
  8
0
 66
1
 10
0.0000
 20
0.0000
 30
0.0000
 40
0.5000
 41
0.5000
 70
0
  0
VERTEX
  8
0
 10
-0.2500
 20
-0.1036
 30
0.0000
  0
VERTEX
  8
0
 10
-0.2500
 20
0.1036
 30
0.0000
  0
VERTEX
  8
0
 10
-0.1036
 20
0.2500
 30
0.0000
  0
VERTEX
  8
0
 10
0.1036
 20
0.2500
 30
0.0000
  0
VERTEX
  8
0
 10
0.2500
 20
0.1036
 30
0.0000
  0
VERTEX
  8
0
 10
0.2500
 20
-0.1036
 30
0.0000
  0
VERTEX
  8
0
 10
0.1036
 20
-0.2500
 30
0.0000
  0
VERTEX
  8
0
 10
-0.1036
 20
-0.2500
 30
0.0000
  0
VERTEX
  8
0
 10
-0.2500
 20
-0.1036
 30
0.0000
  0
VERTEX
  8
0
 10
-0.2500
 20
0.1036
 30
0.0000
  0
SEQEND
  8
0
  0
ENDBLK
  8
0
  0
BLOCK
  8
0
  2
SQUAREV
 70
64
 10
0.0000
 20
0.0000
 30
0.0000
  3
SQUAREV
  0
SOLID
  8
0
 10
-0.5000
 20
-0.5000
 30
0.0000
 11
0.5000
 21
-0.5000
 31
0.0000
 12
-0.5000
 22
0.5000
 32
0.0000
 13
0.5000
 23
0.5000
 33
0.0000
  0
ENDBLK
  8
0
  0
BLOCK
  8
0
  2
ROUNDV
 70
64
 10
0.0000
 20
0.0000
 30
0.0000
  3
ROUNDV
  0
POLYLINE
  8
0
 66
1
 10
0.0000
 20
0.0000
 30
0.0000
 40
0.5000
 41
0.5000
 70
0
  0
VERTEX
  8
0
 10
0.0000
 20
-0.2500
 30
0.0000
 42
1.0000
  0
VERTEX
  8
0
 10
0.0000
 20
0.2500
 30
0.0000
 42
1.0000
  0
VERTEX
  8
0
 10
0.0000
 20
-0.2500
 30
0.0000
  0
SEQEND
  8
0
  0
ENDBLK
  8
0
  0
BLOCK
  8
0
  2
ANNULUSV
 70
64
 10
0.0000
 20
0.0000
 30
0.0000
  3
ANNULUSV
  0
POLYLINE
  8
0
 66
1
 10
0.0000
 20
0.0000
 30
0.0000
 40
0.5000
 41
0.5000
 70
0
  0
VERTEX
  8
0
 10
0.0000
 20
-0.2500
 30
0.0000
 42
1.0000
  0
VERTEX
  8
0
 10
0.0000
 20
0.2500
 30
0.0000
 42
1.0000
  0
VERTEX
  8
0
 10
0.0000
 20
-0.2500
 30
0.0000
  0
SEQEND
  8
0
  0
ENDBLK
  8
0
  0
BLOCK
  8
0
  2
THERMALV
 70
64
 10
0.0000
 20
0.0000
 30
0.0000
  3
THERMALV
  0
POLYLINE
  8
0
 66
1
 10
0.0000
 20
0.0000
 30
0.0000
 40
0.1000
 41
0.1000
 70
0
  0
VERTEX
  8
0
 10
-0.2379
 20
0.4500
 30
0.0000
  0
VERTEX
  8
0
 10
0.2379
 20
0.4500
 30
0.0000
  0
SEQEND
  8
0
  0
POLYLINE
  8
0
 66
1
 10
0.0000
 20
0.0000
 30
0.0000
 40
0.0500
 41
0.0500
 70
0
  0
VERTEX
  8
0
 10
0.2379
 20
0.4250
 30
0.0000
 42
1.0000
  0
VERTEX
  8
0
 10
0.2379
 20
0.4750
 30
0.0000
  0
SEQEND
  8
0
  0
POLYLINE
  8
0
 66
1
 10
0.0000
 20
0.0000
 30
0.0000
 40
0.0500
 41
0.0500
 70
0
  0
VERTEX
  8
0
 10
-0.2379
 20
0.4750
 30
0.0000
 42
1.0000
  0
VERTEX
  8
0
 10
-0.2379
 20
0.4250
 30
0.0000
  0
SEQEND
  8
0
  0
POLYLINE
  8
0
 66
1
 10
0.0000
 20
0.0000
 30
0.0000
 40
0.1000
 41
0.1000
 70
0
  0
VERTEX
  8
0
 10
0.4500
 20
0.2379
 30
0.0000
  0
VERTEX
  8
0
 10
0.4500
 20
-0.2379
 30
0.0000
  0
SEQEND
  8
0
  0
POLYLINE
  8
0
 66
1
 10
0.0000
 20
0.0000
 30
0.0000
 40
0.0500
 41
0.0500
 70
0
  0
VERTEX
  8
0
 10
0.4250
 20
-0.2379
 30
0.0000
 42
1.0000
  0
VERTEX
  8
0
 10
0.4750
 20
-0.2379
 30
0.0000
  0
SEQEND
  8
0
  0
POLYLINE
  8
0
 66
1
 10
0.0000
 20
0.0000
 30
0.0000
 40
0.0500
 41
0.0500
 70
0
  0
VERTEX
  8
0
 10
0.4750
 20
0.2379
 30
0.0000
 42
1.0000
  0
VERTEX
  8
0
 10
0.4250
 20
0.2379
 30
0.0000
  0
SEQEND
  8
0
  0
POLYLINE
  8
0
 66
1
 10
0.0000
 20
0.0000
 30
0.0000
 40
0.1000
 41
0.1000
 70
0
  0
VERTEX
  8
0
 10
0.2379
 20
-0.4500
 30
0.0000
  0
VERTEX
  8
0
 10
-0.2379
 20
-0.4500
 30
0.0000
  0
SEQEND
  8
0
  0
POLYLINE
  8
0
 66
1
 10
0.0000
 20
0.0000
 30
0.0000
 40
0.0500
 41
0.0500
 70
0
  0
VERTEX
  8
0
 10
-0.2379
 20
-0.4250
 30
0.0000
 42
1.0000
  0
VERTEX
  8
0
 10
-0.2379
 20
-0.4750
 30
0.0000
  0
SEQEND
  8
0
  0
POLYLINE
  8
0
 66
1
 10
0.0000
 20
0.0000
 30
0.0000
 40
0.0500
 41
0.0500
 70
0
  0
VERTEX
  8
0
 10
0.2379
 20
-0.4750
 30
0.0000
 42
1.0000
  0
VERTEX
  8
0
 10
0.2379
 20
-0.4250
 30
0.0000
  0
SEQEND
  8
0
  0
POLYLINE
  8
0
 66
1
 10
0.0000
 20
0.0000
 30
0.0000
 40
0.1000
 41
0.1000
 70
0
  0
VERTEX
  8
0
 10
-0.4500
 20
-0.2379
 30
0.0000
  0
VERTEX
  8
0
 10
-0.4500
 20
0.2379
 30
0.0000
  0
SEQEND
  8
0
  0
POLYLINE
  8
0
 66
1
 10
0.0000
 20
0.0000
 30
0.0000
 40
0.0500
 41
0.0500
 70
0
  0
VERTEX
  8
0
 10
-0.4250
 20
0.2379
 30
0.0000
 42
1.0000
  0
VERTEX
  8
0
 10
-0.4750
 20
0.2379
 30
0.0000
  0
SEQEND
  8
0
  0
POLYLINE
  8
0
 66
1
 10
0.0000
 20
0.0000
 30
0.0000
 40
0.0500
 41
0.0500
 70
0
  0
VERTEX
  8
0
 10
-0.4750
 20
-0.2379
 30
0.0000
 42
1.0000
  0
VERTEX
  8
0
 10
-0.4250
 20
-0.2379
 30
0.0000
  0
SEQEND
  8
0
  0
ENDBLK
  8
0
  0
BLOCK
  8
0
  2
RECT0X0R100
 70
64
 10
0.0000
 20
0.0000
 30
0.0000
  3
RECT0X0R100
  0
POLYLINE
  8
0
 66
1
 10
0.0000
 20
0.0000
 30
0.0000
 40
0.0000
 41
0.0000
 70
1
  0
VERTEX
  8
0
 10
0.0000
 20
0.0000
 30
0.0000
  0
VERTEX
  8
0
 10
0.0000
 20
0.0000
 30
0.0000
 42
0.4142
  0
VERTEX
  8
0
 10
0.0000
 20
0.0000
 30
0.0000
  0
VERTEX
  8
0
 10
0.0000
 20
0.0000
 30
0.0000
 42
0.4142
  0
VERTEX
  8
0
 10
0.0000
 20
0.0000
 30
0.0000
  0
VERTEX
  8
0
 10
0.0000
 20
0.0000
 30
0.0000
 42
0.4142
  0
VERTEX
  8
0
 10
0.0000
 20
0.0000
 30
0.0000
  0
VERTEX
  8
0
 10
0.0000
 20
0.0000
 30
0.0000
 42
0.4142
  0
SEQEND
  8
0
  0
SOLID
  8
0
 10
0.0000
 20
0.0000
 30
0.0000
 11
0.0000
 21
0.0000
 31
0.0000
 12
0.0000
 22
0.0000
 32
0.0000
 13
0.0000
 23
0.0000
 33
0.0000
  0
ENDBLK
  8
0
  0
BLOCK
  8
0
  2
LONGP100
 70
64
 10
0.0000
 20
0.0000
 30
0.0000
  3
LONGP100
  0
POLYLINE
  8
0
 66
1
 10
0.0000
 20
0.0000
 30
0.0000
 40
1.0000
 41
1.0000
 70
0
  0
VERTEX
  8
0
 10
-0.5000
 20
0.0000
 30
0.0000
  0
VERTEX
  8
0
 10
0.5000
 20
0.0000
 30
0.0000
  0
SEQEND
  8
0
  0
POLYLINE
  8
0
 66
1
 10
0.0000
 20
0.0000
 30
0.0000
 40
0.5000
 41
0.5000
 70
0
  0
VERTEX
  8
0
 10
0.5000
 20
-0.2500
 30
0.0000
 42
1.0000
  0
VERTEX
  8
0
 10
0.5000
 20
0.2500
 30
0.0000
  0
SEQEND
  8
0
  0
POLYLINE
  8
0
 66
1
 10
0.0000
 20
0.0000
 30
0.0000
 40
0.5000
 41
0.5000
 70
0
  0
VERTEX
  8
0
 10
-0.5000
 20
0.2500
 30
0.0000
 42
1.0000
  0
VERTEX
  8
0
 10
-0.5000
 20
-0.2500
 30
0.0000
  0
SEQEND
  8
0
  0
ENDBLK
  8
0
  0
BLOCK
  8
0
  2
RECT608000X200000R50
 70
64
 10
0.0000
 20
0.0000
 30
0.0000
  3
RECT608000X200000R50
  0
POLYLINE
  8
0
 66
1
 10
0.0000
 20
0.0000
 30
0.0000
 40
0.3125
 41
0.3125
 70
1
  0
VERTEX
  8
0
 10
1.7438
 20
-0.3125
 30
0.0000
  0
VERTEX
  8
0
 10
1.7438
 20
0.3125
 30
0.0000
 42
0.4142
  0
VERTEX
  8
0
 10
1.5875
 20
0.4688
 30
0.0000
  0
VERTEX
  8
0
 10
-1.5875
 20
0.4688
 30
0.0000
 42
0.4142
  0
VERTEX
  8
0
 10
-1.7438
 20
0.3125
 30
0.0000
  0
VERTEX
  8
0
 10
-1.7438
 20
-0.3125
 30
0.0000
 42
0.4142
  0
VERTEX
  8
0
 10
-1.5875
 20
-0.4688
 30
0.0000
  0
VERTEX
  8
0
 10
1.5875
 20
-0.4688
 30
0.0000
 42
0.4142
  0
SEQEND
  8
0
  0
SOLID
  8
0
 10
-1.6129
 20
-0.3379
 30
0.0000
 11
1.6129
 21
-0.3379
 31
0.0000
 12
-1.6129
 22
0.3379
 32
0.0000
 13
1.6129
 23
0.3379
 33
0.0000
  0
ENDBLK
  8
0
  0
ENDSEC
  0
SECTION
  2
ENTITIES
  0
LINE
  8
20
 10
96.0000
 20
-11.0000
 30
0.0000
 11
96.0000
 21
34.0000
 31
0.0000
  0
LINE
  8
20
 10
96.0000
 20
34.0000
 30
0.0000
 11
88.0028
 21
41.9972
 31
0.0000
  0
LINE
  8
20
 10
88.0028
 20
41.9972
 30
0.0000
 11
7.9972
 21
41.9972
 31
0.0000
  0
LINE
  8
20
 10
7.9972
 20
41.9972
 30
0.0000
 11
0.0000
 21
34.0000
 31
0.0000
  0
LINE
  8
20
 10
0.0000
 20
34.0000
 30
0.0000
 11
0.0000
 21
0.0000
 31
0.0000
  0
LINE
  8
20
 10
0.0000
 20
0.0000
 30
0.0000
 11
29.3500
 21
0.0000
 31
0.0000
  0
LINE
  8
20
 10
29.3500
 20
0.0000
 30
0.0000
 11
29.3500
 21
10.0000
 31
0.0000
  0
LINE
  8
20
 10
29.3500
 20
10.0000
 30
0.0000
 11
74.8100
 21
10.0000
 31
0.0000
  0
LINE
  8
20
 10
74.8100
 20
10.0000
 30
0.0000
 11
74.8100
 21
-11.0000
 31
0.0000
  0
LINE
  8
20
 10
74.8100
 20
-11.0000
 30
0.0000
 11
96.0000
 21
-11.0000
 31
0.0000
  0
CIRCLE
  8
20
 10
5.0800
 20
34.0800
 30
0.0000
 40
1.5500
  0
CIRCLE
  8
20
 10
91.0800
 20
34.0800
 30
0.0000
 40
1.5500
  0
CIRCLE
  8
20
 10
3.0800
 20
3.0800
 30
0.0000
 40
1.5500
  0
CIRCLE
  8
20
 10
93.0800
 20
-7.9200
 30
0.0000
 40
1.5500
  0
INSERT
  8
31
  2
RECT
 10
47.1424
 20
18.8680
 30
0.0000
 41
2.6000
 42
3.4000
 43
1.0000
 50
270.0000
  0
INSERT
  8
31
  2
RECT
 10
47.1424
 20
27.8680
 30
0.0000
 41
2.6000
 42
3.4000
 43
1.0000
 50
270.0000
  0
INSERT
  8
31
  2
RECT
 10
2.0320
 20
14.5940
 30
0.0000
 41
0.8000
 42
1.2000
 43
1.0000
 50
90.0000
  0
INSERT
  8
31
  2
RECT
 10
2.0320
 20
16.3940
 30
0.0000
 41
0.8000
 42
1.2000
 43
1.0000
 50
90.0000
  0
INSERT
  8
31
  2
RECT
 10
78.0559
 20
32.9311
 30
0.0000
 41
0.8000
 42
1.2000
 43
1.0000
 50
0.0000
  0
INSERT
  8
31
  2
RECT
 10
79.8559
 20
32.9311
 30
0.0000
 41
0.8000
 42
1.2000
 43
1.0000
 50
0.0000
  0
INSERT
  8
31
  2
RECT
 10
86.6521
 20
37.3029
 30
0.0000
 41
1.6000
 42
1.8000
 43
1.0000
 50
270.0000
  0
INSERT
  8
31
  2
RECT
 10
86.6521
 20
34.5029
 30
0.0000
 41
1.6000
 42
1.8000
 43
1.0000
 50
270.0000
  0
INSERT
  8
31
  2
RECT
 10
74.5981
 20
28.7909
 30
0.0000
 41
0.8000
 42
1.2000
 43
1.0000
 50
180.0000
  0
INSERT
  8
31
  2
RECT
 10
72.7981
 20
28.7909
 30
0.0000
 41
0.8000
 42
1.2000
 43
1.0000
 50
180.0000
  0
INSERT
  8
31
  2
RECT
 10
82.8899
 20
29.8831
 30
0.0000
 41
1.6000
 42
1.8000
 43
1.0000
 50
0.0000
  0
INSERT
  8
31
  2
RECT
 10
85.6899
 20
29.8831
 30
0.0000
 41
1.6000
 42
1.8000
 43
1.0000
 50
0.0000
  0
INSERT
  8
31
  2
RECT
 10
55.0029
 20
12.1479
 30
0.0000
 41
0.8000
 42
1.2000
 43
1.0000
 50
180.0000
  0
INSERT
  8
31
  2
RECT
 10
53.2029
 20
12.1479
 30
0.0000
 41
0.8000
 42
1.2000
 43
1.0000
 50
180.0000
  0
INSERT
  8
31
  2
RECT
 10
53.1379
 20
14.5931
 30
0.0000
 41
0.8000
 42
1.2000
 43
1.0000
 50
90.0000
  0
INSERT
  8
31
  2
RECT
 10
53.1379
 20
16.3931
 30
0.0000
 41
0.8000
 42
1.2000
 43
1.0000
 50
90.0000
  0
INSERT
  8
31
  2
RECT
 10
56.0578
 20
25.6383
 30
0.0000
 41
1.6000
 42
1.8000
 43
1.0000
 50
90.0000
  0
INSERT
  8
31
  2
RECT
 10
56.0578
 20
28.4383
 30
0.0000
 41
1.6000
 42
1.8000
 43
1.0000
 50
90.0000
  0
INSERT
  8
31
  2
RECT
 10
5.3848
 20
24.7633
 30
0.0000
 41
0.8000
 42
1.2000
 43
1.0000
 50
270.0000
  0
INSERT
  8
31
  2
RECT
 10
5.3848
 20
22.9633
 30
0.0000
 41
0.8000
 42
1.2000
 43
1.0000
 50
270.0000
  0
INSERT
  8
31
  2
RECT
 10
55.7657
 20
19.0898
 30
0.0000
 41
0.8000
 42
1.2000
 43
1.0000
 50
90.0000
  0
INSERT
  8
31
  2
RECT
 10
55.7657
 20
20.8898
 30
0.0000
 41
0.8000
 42
1.2000
 43
1.0000
 50
90.0000
  0
INSERT
  8
31
  2
RECT
 10
93.9800
 20
9.2600
 30
0.0000
 41
0.8000
 42
1.2000
 43
1.0000
 50
90.0000
  0
INSERT
  8
31
  2
RECT
 10
93.9800
 20
11.0600
 30
0.0000
 41
0.8000
 42
1.2000
 43
1.0000
 50
90.0000
  0
INSERT
  8
31
  2
RECT
 10
25.1604
 20
3.4290
 30
0.0000
 41
0.8000
 42
1.2000
 43
1.0000
 50
0.0000
  0
INSERT
  8
31
  2
RECT
 10
26.9604
 20
3.4290
 30
0.0000
 41
0.8000
 42
1.2000
 43
1.0000
 50
0.0000
  0
INSERT
  8
31
  2
RECT
 10
64.4415
 20
16.8910
 30
0.0000
 41
0.8000
 42
1.2000
 43
1.0000
 50
0.0000
  0
INSERT
  8
31
  2
RECT
 10
66.2415
 20
16.8910
 30
0.0000
 41
0.8000
 42
1.2000
 43
1.0000
 50
0.0000
  0
INSERT
  8
31
  2
RECT
 10
3.4798
 20
30.2512
 30
0.0000
 41
1.2000
 42
2.0000
 43
1.0000
 50
270.0000
  0
INSERT
  8
31
  2
RECT
 10
3.4798
 20
27.0512
 30
0.0000
 41
1.2000
 42
2.0000
 43
1.0000
 50
270.0000
  0
INSERT
  8
31
  2
RECT
 10
6.6421
 20
30.2004
 30
0.0000
 41
1.2000
 42
2.0000
 43
1.0000
 50
270.0000
  0
INSERT
  8
31
  2
RECT
 10
6.6421
 20
27.0004
 30
0.0000
 41
1.2000
 42
2.0000
 43
1.0000
 50
270.0000
  0
INSERT
  8
31
  2
RECT
 10
19.4213
 20
23.6748
 30
0.0000
 41
0.8000
 42
1.2000
 43
1.0000
 50
0.0000
  0
INSERT
  8
31
  2
RECT
 10
21.2213
 20
23.6748
 30
0.0000
 41
0.8000
 42
1.2000
 43
1.0000
 50
0.0000
  0
INSERT
  8
31
  2
RECT
 10
2.4892
 20
25.2347
 30
0.0000
 41
1.2000
 42
2.0000
 43
1.0000
 50
270.0000
  0
INSERT
  8
31
  2
RECT
 10
2.4892
 20
22.0347
 30
0.0000
 41
1.2000
 42
2.0000
 43
1.0000
 50
270.0000
  0
INSERT
  8
31
  2
RECT
 10
93.9800
 20
-2.1700
 30
0.0000
 41
0.8000
 42
1.2000
 43
1.0000
 50
90.0000
  0
INSERT
  8
31
  2
RECT
 10
93.9800
 20
-0.3700
 30
0.0000
 41
0.8000
 42
1.2000
 43
1.0000
 50
90.0000
  0
INSERT
  8
31
  2
RECT
 10
39.9940
 20
34.2900
 30
0.0000
 41
0.8000
 42
1.2000
 43
1.0000
 50
0.0000
  0
INSERT
  8
31
  2
RECT
 10
41.7940
 20
34.2900
 30
0.0000
 41
0.8000
 42
1.2000
 43
1.0000
 50
0.0000
  0
INSERT
  8
31
  2
RECT
 10
42.2940
 20
31.4960
 30
0.0000
 41
1.6000
 42
1.8000
 43
1.0000
 50
180.0000
  0
INSERT
  8
31
  2
RECT
 10
39.4940
 20
31.4960
 30
0.0000
 41
1.6000
 42
1.8000
 43
1.0000
 50
180.0000
  0
INSERT
  8
31
  2
RECT
 10
8.9667
 20
26.6099
 30
0.0000
 41
0.8000
 42
1.2000
 43
1.0000
 50
90.0000
  0
INSERT
  8
31
  2
RECT
 10
8.9667
 20
28.4099
 30
0.0000
 41
0.8000
 42
1.2000
 43
1.0000
 50
90.0000
  0
INSERT
  8
31
  2
RECT
 10
11.2311
 20
31.7759
 30
0.0000
 41
0.8000
 42
1.2000
 43
1.0000
 50
0.0000
  0
INSERT
  8
31
  2
RECT
 10
13.0311
 20
31.7759
 30
0.0000
 41
0.8000
 42
1.2000
 43
1.0000
 50
0.0000
  0
INSERT
  8
31
  2
RECT
 10
90.3859
 20
25.4491
 30
0.0000
 41
0.8000
 42
1.2000
 43
1.0000
 50
270.0000
  0
INSERT
  8
31
  2
RECT
 10
90.3859
 20
23.6491
 30
0.0000
 41
0.8000
 42
1.2000
 43
1.0000
 50
270.0000
  0
INSERT
  8
31
  2
RECT
 10
22.9362
 20
25.3856
 30
0.0000
 41
0.8000
 42
1.2000
 43
1.0000
 50
270.0000
  0
INSERT
  8
31
  2
RECT
 10
22.9362
 20
23.5856
 30
0.0000
 41
0.8000
 42
1.2000
 43
1.0000
 50
270.0000
  0
INSERT
  8
31
  2
RECT
 10
4.1880
 20
14.2240
 30
0.0000
 41
1.6000
 42
1.8000
 43
1.0000
 50
0.0000
  0
INSERT
  8
31
  2
RECT
 10
6.9880
 20
14.2240
 30
0.0000
 41
1.6000
 42
1.8000
 43
1.0000
 50
0.0000
  0
INSERT
  8
31
  2
RECT
 10
6.9740
 20
4.8260
 30
0.0000
 41
0.8000
 42
1.2000
 43
1.0000
 50
0.0000
  0
INSERT
  8
31
  2
RECT
 10
8.7740
 20
4.8260
 30
0.0000
 41
0.8000
 42
1.2000
 43
1.0000
 50
0.0000
  0
INSERT
  8
31
  2
RECT
 10
21.4757
 20
28.2812
 30
0.0000
 41
0.8000
 42
1.2000
 43
1.0000
 50
270.0000
  0
INSERT
  8
31
  2
RECT
 10
21.4757
 20
26.4812
 30
0.0000
 41
0.8000
 42
1.2000
 43
1.0000
 50
270.0000
  0
INSERT
  8
31
  2
RECT
 10
19.4437
 20
28.3447
 30
0.0000
 41
0.8000
 42
1.2000
 43
1.0000
 50
270.0000
  0
INSERT
  8
31
  2
RECT
 10
19.4437
 20
26.5447
 30
0.0000
 41
0.8000
 42
1.2000
 43
1.0000
 50
270.0000
  0
INSERT
  8
31
  2
RECT
 10
37.2207
 20
28.6639
 30
0.0000
 41
1.6000
 42
1.8000
 43
1.0000
 50
0.0000
  0
INSERT
  8
31
  2
RECT
 10
40.0207
 20
28.6639
 30
0.0000
 41
1.6000
 42
1.8000
 43
1.0000
 50
0.0000
  0
INSERT
  8
31
  2
RECT
 10
29.8450
 20
13.1081
 30
0.0000
 41
0.8000
 42
1.2000
 43
1.0000
 50
90.0000
  0
INSERT
  8
31
  2
RECT
 10
29.8450
 20
14.9081
 30
0.0000
 41
0.8000
 42
1.2000
 43
1.0000
 50
90.0000
  0
INSERT
  8
31
  2
RECT
 10
77.8400
 20
19.7104
 30
0.0000
 41
0.8000
 42
1.2000
 43
1.0000
 50
0.0000
  0
INSERT
  8
31
  2
RECT
 10
79.6400
 20
19.7104
 30
0.0000
 41
0.8000
 42
1.2000
 43
1.0000
 50
0.0000
  0
INSERT
  8
31
  2
RECT
 10
90.4240
 20
13.3240
 30
0.0000
 41
0.8000
 42
1.2000
 43
1.0000
 50
90.0000
  0
INSERT
  8
31
  2
RECT
 10
90.4240
 20
15.1240
 30
0.0000
 41
0.8000
 42
1.2000
 43
1.0000
 50
90.0000
  0
INSERT
  8
31
  2
RECT
 10
73.3950
 20
26.2890
 30
0.0000
 41
0.8000
 42
1.2000
 43
1.0000
 50
0.0000
  0
INSERT
  8
31
  2
RECT
 10
75.1950
 20
26.2890
 30
0.0000
 41
0.8000
 42
1.2000
 43
1.0000
 50
0.0000
  0
INSERT
  8
31
  2
RECT
 10
74.4838
 20
12.0142
 30
0.0000
 41
0.8000
 42
1.2000
 43
1.0000
 50
180.0000
  0
INSERT
  8
31
  2
RECT
 10
72.6838
 20
12.0142
 30
0.0000
 41
0.8000
 42
1.2000
 43
1.0000
 50
180.0000
  0
INSERT
  8
31
  2
RECT
 10
68.7070
 20
22.1090
 30
0.0000
 41
0.8000
 42
1.2000
 43
1.0000
 50
270.0000
  0
INSERT
  8
31
  2
RECT
 10
68.7070
 20
20.3090
 30
0.0000
 41
0.8000
 42
1.2000
 43
1.0000
 50
270.0000
  0
POLYLINE
  8
40
 66
1
 10
0.0000
 20
0.0000
 30
0.0000
 40
0.0508
 41
0.0508
 70
0
  0
VERTEX
  8
40
 10
24.6050
 20
15.3070
 30
0.0000
  0
VERTEX
  8
40
 10
24.6050
 20
20.2530
 30
0.0000
  0
SEQEND
  8
0
  0
POLYLINE
  8
40
 66
1
 10
0.0000
 20
0.0000
 30
0.0000
 40
0.0254
 41
0.0254
 70
0
  0
VERTEX
  8
40
 10
24.6177
 20
20.2530
 30
0.0000
 42
1.0000
  0
VERTEX
  8
40
 10
24.5923
 20
20.2530
 30
0.0000
  0
SEQEND
  8
0
  0
POLYLINE
  8
40
 66
1
 10
0.0000
 20
0.0000
 30
0.0000
 40
0.0254
 41
0.0254
 70
0
  0
VERTEX
  8
40
 10
24.5923
 20
15.3070
 30
0.0000
 42
1.0000
  0
VERTEX
  8
40
 10
24.6177
 20
15.3070
 30
0.0000
  0
SEQEND
  8
0
  0
POLYLINE
  8
40
 66
1
 10
0.0000
 20
0.0000
 30
0.0000
 40
0.0508
 41
0.0508
 70
0
  0
VERTEX
  8
40
 10
22.6390
 20
20.2530
 30
0.0000
  0
VERTEX
  8
40
 10
22.6390
 20
15.3070
 30
0.0000
  0
SEQEND
  8
0
  0
POLYLINE
  8
40
 66
1
 10
0.0000
 20
0.0000
 30
0.0000
 40
0.0254
 41
0.0254
 70
0
  0
VERTEX
  8
40
 10
22.6263
 20
15.3070
 30
0.0000
 42
1.0000
  0
VERTEX
  8
40
 10
22.6517
 20
15.3070
 30
0.0000
  0
SEQEND
  8
0
  0
POLYLINE
  8
40
 66
1
 10
0.0000
 20
0.0000
 30
0.0000
 40
0.0254
 41
0.0254
 70
0
  0
VERTEX
  8
40
 10
22.6517
 20
20.2530
 30
0.0000
 42
1.0000
  0
VERTEX
  8
40
 10
22.6263
 20
20.2530
 30
0.0000
  0
SEQEND
  8
0
  0
POLYLINE
  8
40
 66
1
 10
0.0000
 20
0.0000
 30
0.0000
 40
0.0508
 41
0.0508
 70
0
  0
VERTEX
  8
40
 10
22.6390
 20
15.3070
 30
0.0000
  0
VERTEX
  8
40
 10
24.6050
 20
15.3070
 30
0.0000
  0
SEQEND
  8
0
  0
POLYLINE
  8
40
 66
1
 10
0.0000
 20
0.0000
 30
0.0000
 40
0.0254
 41
0.0254
 70
0
  0
VERTEX
  8
40
 10
24.6050
 20
15.2943
 30
0.0000
 42
1.0000
  0
VERTEX
  8
40
 10
24.6050
 20
15.3197
 30
0.0000
  0
SEQEND
  8
0
  0
POLYLINE
  8
40
 66
1
 10
0.0000
 20
0.0000
 30
0.0000
 40
0.0254
 41
0.0254
 70
0
  0
VERTEX
  8
40
 10
22.6390
 20
15.3197
 30
0.0000
 42
1.0000
  0
VERTEX
  8
40
 10
22.6390
 20
15.2943
 30
0.0000
  0
SEQEND
  8
0
  0
POLYLINE
  8
40
 66
1
 10
0.0000
 20
0.0000
 30
0.0000
 40
0.0508
 41
0.0508
 70
0
  0
VERTEX
  8
40
 10
24.6050
 20
20.2530
 30
0.0000
  0
VERTEX
  8
40
 10
22.6390
 20
20.2530
 30
0.0000
  0
SEQEND
  8
0
  0
POLYLINE
  8
40
 66
1
 10
0.0000
 20
0.0000
 30
0.0000
 40
0.0254
 41
0.0254
 70
0
  0
VERTEX
  8
40
 10
22.6390
 20
20.2657
 30
0.0000
 42
1.0000
  0
VERTEX
  8
40
 10
22.6390
 20
20.2403
 30
0.0000
  0
SEQEND
  8
0
  0
POLYLINE
  8
40
 66
1
 10
0.0000
 20
0.0000
 30
0.0000
 40
0.0254
 41
0.0254
 70
0
  0
VERTEX
  8
40
 10
24.6050
 20
20.2403
 30
0.0000
 42
1.0000
  0
VERTEX
  8
40
 10
24.6050
 20
20.2657
 30
0.0000
  0
SEQEND
  8
0
  0
INSERT
  8
31
  2
RECT
 10
66.1780
 20
25.9080
 30
0.0000
 41
0.8000
 42
1.2000
 43
1.0000
 50
180.0000
  0
INSERT
  8
31
  2
RECT
 10
64.3780
 20
25.9080
 30
0.0000
 41
0.8000
 42
1.2000
 43
1.0000
 50
180.0000
  0
INSERT
  8
31
  2
RECT
 10
85.9409
 20
32.1691
 30
0.0000
 41
1.3970
 42
1.3970
 43
1.0000
 50
0.0000
  0
INSERT
  8
31
  2
RECT
 10
82.6389
 20
32.1691
 30
0.0000
 41
1.3970
 42
1.3970
 43
1.0000
 50
0.0000
  0
INSERT
  8
31
  2
RECT
 10
8.0657
 20
9.7282
 30
0.0000
 41
2.2860
 42
4.8000
 43
1.0000
 50
0.0000
  0
INSERT
  8
31
  2
RECT
 10
1.8657
 20
9.7282
 30
0.0000
 41
2.2860
 42
4.8000
 43
1.0000
 50
0.0000
  0
INSERT
  8
31
  2
RECT
 10
15.4928
 20
34.4805
 30
0.0000
 41
2.2860
 42
4.8000
 43
1.0000
 50
180.0000
  0
INSERT
  8
31
  2
RECT
 10
21.6928
 20
34.4805
 30
0.0000
 41
2.2860
 42
4.8000
 43
1.0000
 50
180.0000
  0
INSERT
  8
31
  2
RECT
 10
16.5735
 20
6.0579
 30
0.0000
 41
2.5400
 42
2.5400
 43
1.0000
 50
0.0000
  0
INSERT
  8
31
  2
RECT
 10
21.2725
 20
6.0579
 30
0.0000
 41
2.5400
 42
2.5400
 43
1.0000
 50
180.0000
  0
INSERT
  8
17
  2
LONGP100
 10
9.4361
 20
2.0828
 30
0.0000
 41
1.5240
 42
1.5240
 43
1.0000
 50
90.0000
  0
INSERT
  8
17
  2
LONGP100
 10
9.4361
 20
2.0828
 30
0.0000
 41
1.5240
 42
1.5240
 43
1.0000
 50
90.0000
  0
INSERT
  8
17
  2
LONGP100
 10
12.2301
 20
2.0828
 30
0.0000
 41
1.5240
 42
1.5240
 43
1.0000
 50
90.0000
  0
INSERT
  8
17
  2
LONGP100
 10
12.2301
 20
2.0828
 30
0.0000
 41
1.5240
 42
1.5240
 43
1.0000
 50
90.0000
  0
INSERT
  8
17
  2
LONGP100
 10
17.6784
 20
2.1209
 30
0.0000
 41
1.5240
 42
1.5240
 43
1.0000
 50
90.0000
  0
INSERT
  8
17
  2
LONGP100
 10
17.6784
 20
2.1209
 30
0.0000
 41
1.5240
 42
1.5240
 43
1.0000
 50
90.0000
  0
INSERT
  8
17
  2
LONGP100
 10
20.4724
 20
2.1209
 30
0.0000
 41
1.5240
 42
1.5240
 43
1.0000
 50
90.0000
  0
INSERT
  8
17
  2
LONGP100
 10
20.4724
 20
2.1209
 30
0.0000
 41
1.5240
 42
1.5240
 43
1.0000
 50
90.0000
  0
INSERT
  8
17
  2
OCTAGONP
 10
69.0880
 20
36.5760
 30
0.0000
 41
1.8796
 42
1.8796
 43
1.0000
 50
0.0000
  0
INSERT
  8
17
  2
OCTAGONP
 10
69.0880
 20
36.5760
 30
0.0000
 41
1.8796
 42
1.8796
 43
1.0000
 50
0.0000
  0
INSERT
  8
17
  2
OCTAGONP
 10
69.0880
 20
39.1160
 30
0.0000
 41
1.8796
 42
1.8796
 43
1.0000
 50
0.0000
  0
INSERT
  8
17
  2
OCTAGONP
 10
69.0880
 20
39.1160
 30
0.0000
 41
1.8796
 42
1.8796
 43
1.0000
 50
0.0000
  0
INSERT
  8
17
  2
OCTAGONP
 10
71.6280
 20
36.5760
 30
0.0000
 41
1.8796
 42
1.8796
 43
1.0000
 50
0.0000
  0
INSERT
  8
17
  2
OCTAGONP
 10
71.6280
 20
36.5760
 30
0.0000
 41
1.8796
 42
1.8796
 43
1.0000
 50
0.0000
  0
INSERT
  8
17
  2
OCTAGONP
 10
71.6280
 20
39.1160
 30
0.0000
 41
1.8796
 42
1.8796
 43
1.0000
 50
0.0000
  0
INSERT
  8
17
  2
OCTAGONP
 10
71.6280
 20
39.1160
 30
0.0000
 41
1.8796
 42
1.8796
 43
1.0000
 50
0.0000
  0
INSERT
  8
17
  2
OCTAGONP
 10
74.1680
 20
36.5760
 30
0.0000
 41
1.8796
 42
1.8796
 43
1.0000
 50
0.0000
  0
INSERT
  8
17
  2
OCTAGONP
 10
74.1680
 20
36.5760
 30
0.0000
 41
1.8796
 42
1.8796
 43
1.0000
 50
0.0000
  0
INSERT
  8
17
  2
OCTAGONP
 10
74.1680
 20
39.1160
 30
0.0000
 41
1.8796
 42
1.8796
 43
1.0000
 50
0.0000
  0
INSERT
  8
17
  2
OCTAGONP
 10
74.1680
 20
39.1160
 30
0.0000
 41
1.8796
 42
1.8796
 43
1.0000
 50
0.0000
  0
INSERT
  8
17
  2
SQUAREP
 10
94.2340
 20
15.7480
 30
0.0000
 41
1.8796
 42
1.8796
 43
1.0000
 50
90.0000
  0
INSERT
  8
17
  2
SQUAREP
 10
94.2340
 20
15.7480
 30
0.0000
 41
1.8796
 42
1.8796
 43
1.0000
 50
90.0000
  0
INSERT
  8
17
  2
ROUNDP
 10
94.2340
 20
18.2880
 30
0.0000
 41
1.8796
 42
1.8796
 43
1.0000
 50
90.0000
  0
INSERT
  8
17
  2
ROUNDP
 10
94.2340
 20
18.2880
 30
0.0000
 41
1.8796
 42
1.8796
 43
1.0000
 50
90.0000
  0
INSERT
  8
17
  2
ROUNDP
 10
94.2340
 20
20.8280
 30
0.0000
 41
1.8796
 42
1.8796
 43
1.0000
 50
90.0000
  0
INSERT
  8
17
  2
ROUNDP
 10
94.2340
 20
20.8280
 30
0.0000
 41
1.8796
 42
1.8796
 43
1.0000
 50
90.0000
  0
INSERT
  8
17
  2
ROUNDP
 10
94.2340
 20
23.3680
 30
0.0000
 41
1.8796
 42
1.8796
 43
1.0000
 50
90.0000
  0
INSERT
  8
17
  2
ROUNDP
 10
94.2340
 20
23.3680
 30
0.0000
 41
1.8796
 42
1.8796
 43
1.0000
 50
90.0000
  0
INSERT
  8
17
  2
ROUNDP
 10
94.2340
 20
25.9080
 30
0.0000
 41
1.8796
 42
1.8796
 43
1.0000
 50
90.0000
  0
INSERT
  8
17
  2
ROUNDP
 10
94.2340
 20
25.9080
 30
0.0000
 41
1.8796
 42
1.8796
 43
1.0000
 50
90.0000
  0
INSERT
  8
17
  2
ROUNDP
 10
94.2340
 20
28.4480
 30
0.0000
 41
1.8796
 42
1.8796
 43
1.0000
 50
90.0000
  0
INSERT
  8
17
  2
ROUNDP
 10
94.2340
 20
28.4480
 30
0.0000
 41
1.8796
 42
1.8796
 43
1.0000
 50
90.0000
  0
INSERT
  8
17
  2
LONGP100
 10
76.9620
 20
-3.6830
 30
0.0000
 41
1.5240
 42
1.5240
 43
1.0000
 50
180.0000
  0
INSERT
  8
17
  2
LONGP100
 10
76.9620
 20
-3.6830
 30
0.0000
 41
1.5240
 42
1.5240
 43
1.0000
 50
180.0000
  0
INSERT
  8
17
  2
LONGP100
 10
76.9620
 20
-0.8890
 30
0.0000
 41
1.5240
 42
1.5240
 43
1.0000
 50
180.0000
  0
INSERT
  8
17
  2
LONGP100
 10
76.9620
 20
-0.8890
 30
0.0000
 41
1.5240
 42
1.5240
 43
1.0000
 50
180.0000
  0
INSERT
  8
17
  2
SQUAREP
 10
39.6320
 20
37.1420
 30
0.0000
 41
2.0320
 42
2.0320
 43
1.0000
 50
90.0000
  0
INSERT
  8
17
  2
SQUAREP
 10
39.6320
 20
37.1420
 30
0.0000
 41
2.0320
 42
2.0320
 43
1.0000
 50
90.0000
  0
INSERT
  8
17
  2
ROUNDP
 10
42.1720
 20
37.1420
 30
0.0000
 41
2.0320
 42
2.0320
 43
1.0000
 50
90.0000
  0
INSERT
  8
17
  2
ROUNDP
 10
42.1720
 20
37.1420
 30
0.0000
 41
2.0320
 42
2.0320
 43
1.0000
 50
90.0000
  0
INSERT
  8
17
  2
ROUNDP
 10
44.7120
 20
37.1420
 30
0.0000
 41
2.0320
 42
2.0320
 43
1.0000
 50
90.0000
  0
INSERT
  8
17
  2
ROUNDP
 10
44.7120
 20
37.1420
 30
0.0000
 41
2.0320
 42
2.0320
 43
1.0000
 50
90.0000
  0
INSERT
  8
17
  2
ROUNDP
 10
47.2520
 20
37.1420
 30
0.0000
 41
2.0320
 42
2.0320
 43
1.0000
 50
90.0000
  0
INSERT
  8
17
  2
ROUNDP
 10
47.2520
 20
37.1420
 30
0.0000
 41
2.0320
 42
2.0320
 43
1.0000
 50
90.0000
  0
INSERT
  8
17
  2
ROUNDP
 10
49.7920
 20
37.1420
 30
0.0000
 41
2.0320
 42
2.0320
 43
1.0000
 50
90.0000
  0
INSERT
  8
17
  2
ROUNDP
 10
49.7920
 20
37.1420
 30
0.0000
 41
2.0320
 42
2.0320
 43
1.0000
 50
90.0000
  0
INSERT
  8
17
  2
ROUNDP
 10
52.3320
 20
37.1420
 30
0.0000
 41
2.0320
 42
2.0320
 43
1.0000
 50
90.0000
  0
INSERT
  8
17
  2
ROUNDP
 10
52.3320
 20
37.1420
 30
0.0000
 41
2.0320
 42
2.0320
 43
1.0000
 50
90.0000
  0
INSERT
  8
17
  2
ROUNDP
 10
54.8720
 20
37.1420
 30
0.0000
 41
2.0320
 42
2.0320
 43
1.0000
 50
90.0000
  0
INSERT
  8
17
  2
ROUNDP
 10
54.8720
 20
37.1420
 30
0.0000
 41
2.0320
 42
2.0320
 43
1.0000
 50
90.0000
  0
INSERT
  8
17
  2
ROUNDP
 10
35.7120
 20
36.4820
 30
0.0000
 41
3.6000
 42
3.6000
 43
1.0000
 50
0.0000
  0
INSERT
  8
17
  2
ROUNDP
 10
35.7120
 20
36.4820
 30
0.0000
 41
3.6000
 42
3.6000
 43
1.0000
 50
0.0000
  0
INSERT
  8
17
  2
ROUNDP
 10
58.9120
 20
36.4820
 30
0.0000
 41
3.6000
 42
3.6000
 43
1.0000
 50
0.0000
  0
INSERT
  8
17
  2
ROUNDP
 10
58.9120
 20
36.4820
 30
0.0000
 41
3.6000
 42
3.6000
 43
1.0000
 50
0.0000
  0
INSERT
  8
17
  2
ROUNDP
 10
58.9120
 20
12.7820
 30
0.0000
 41
3.6000
 42
3.6000
 43
1.0000
 50
0.0000
  0
INSERT
  8
17
  2
ROUNDP
 10
58.9120
 20
12.7820
 30
0.0000
 41
3.6000
 42
3.6000
 43
1.0000
 50
0.0000
  0
INSERT
  8
17
  2
ROUNDP
 10
35.7120
 20
12.7820
 30
0.0000
 41
3.6000
 42
3.6000
 43
1.0000
 50
0.0000
  0
INSERT
  8
17
  2
ROUNDP
 10
35.7120
 20
12.7820
 30
0.0000
 41
3.6000
 42
3.6000
 43
1.0000
 50
0.0000
  0
INSERT
  8
31
  2
RECT608000X200000R50
 10
83.1469
 20
34.3759
 30
0.0000
 41
1.0000
 42
1.0000
 43
1.0000
 50
180.0000
  0
INSERT
  8
31
  2
RECT608000X200000R50
 10
83.1469
 20
37.1759
 30
0.0000
 41
1.0000
 42
1.0000
 43
1.0000
 50
180.0000
  0
INSERT
  8
31
  2
RECT
 10
28.8671
 20
26.2253
 30
0.0000
 41
3.5000
 42
4.1000
 43
1.0000
 50
180.0000
  0
INSERT
  8
31
  2
RECT
 10
28.8671
 20
35.7253
 30
0.0000
 41
3.5000
 42
4.1000
 43
1.0000
 50
180.0000
  0
INSERT
  8
31
  2
RECT
 10
76.7080
 20
-7.1010
 30
0.0000
 41
0.8000
 42
1.2000
 43
1.0000
 50
270.0000
  0
INSERT
  8
31
  2
RECT
 10
76.7080
 20
-8.9010
 30
0.0000
 41
0.8000
 42
1.2000
 43
1.0000
 50
270.0000
  0
INSERT
  8
31
  2
RECT
 10
79.7560
 20
-2.9608
 30
0.0000
 41
0.8000
 42
1.2000
 43
1.0000
 50
270.0000
  0
INSERT
  8
31
  2
RECT
 10
79.7560
 20
-4.7608
 30
0.0000
 41
0.8000
 42
1.2000
 43
1.0000
 50
270.0000
  0
INSERT
  8
31
  2
RECT
 10
29.4530
 20
11.3030
 30
0.0000
 41
0.8000
 42
1.2000
 43
1.0000
 50
0.0000
  0
INSERT
  8
31
  2
RECT
 10
31.2530
 20
11.3030
 30
0.0000
 41
0.8000
 42
1.2000
 43
1.0000
 50
0.0000
  0
INSERT
  8
31
  2
RECT
 10
29.0720
 20
16.8910
 30
0.0000
 41
0.8000
 42
1.2000
 43
1.0000
 50
0.0000
  0
INSERT
  8
31
  2
RECT
 10
30.8720
 20
16.8910
 30
0.0000
 41
0.8000
 42
1.2000
 43
1.0000
 50
0.0000
  0
INSERT
  8
31
  2
RECT
 10
47.3964
 20
14.6956
 30
0.0000
 41
0.8000
 42
1.2000
 43
1.0000
 50
90.0000
  0
INSERT
  8
31
  2
RECT
 10
47.3964
 20
16.4956
 30
0.0000
 41
0.8000
 42
1.2000
 43
1.0000
 50
90.0000
  0
INSERT
  8
17
  2
ROUNDP
 10
62.1411
 20
36.6522
 30
0.0000
 41
1.8796
 42
1.8796
 43
1.0000
 50
0.0000
  0
INSERT
  8
17
  2
ROUNDP
 10
62.1411
 20
36.6522
 30
0.0000
 41
1.8796
 42
1.8796
 43
1.0000
 50
0.0000
  0
INSERT
  8
17
  2
ROUNDP
 10
64.6811
 20
36.6522
 30
0.0000
 41
1.8796
 42
1.8796
 43
1.0000
 50
0.0000
  0
INSERT
  8
17
  2
ROUNDP
 10
64.6811
 20
36.6522
 30
0.0000
 41
1.8796
 42
1.8796
 43
1.0000
 50
0.0000
  0
INSERT
  8
17
  2
ROUNDP
 10
40.2844
 20
12.7000
 30
0.0000
 41
1.8796
 42
1.8796
 43
1.0000
 50
0.0000
  0
INSERT
  8
17
  2
ROUNDP
 10
40.2844
 20
12.7000
 30
0.0000
 41
1.8796
 42
1.8796
 43
1.0000
 50
0.0000
  0
INSERT
  8
17
  2
ROUNDP
 10
42.8244
 20
12.7000
 30
0.0000
 41
1.8796
 42
1.8796
 43
1.0000
 50
0.0000
  0
INSERT
  8
17
  2
ROUNDP
 10
42.8244
 20
12.7000
 30
0.0000
 41
1.8796
 42
1.8796
 43
1.0000
 50
0.0000
  0
INSERT
  8
17
  2
ROUNDP
 10
64.5668
 20
12.7000
 30
0.0000
 41
1.8796
 42
1.8796
 43
1.0000
 50
0.0000
  0
INSERT
  8
17
  2
ROUNDP
 10
64.5668
 20
12.7000
 30
0.0000
 41
1.8796
 42
1.8796
 43
1.0000
 50
0.0000
  0
INSERT
  8
17
  2
ROUNDP
 10
67.1068
 20
12.7000
 30
0.0000
 41
1.8796
 42
1.8796
 43
1.0000
 50
0.0000
  0
INSERT
  8
17
  2
ROUNDP
 10
67.1068
 20
12.7000
 30
0.0000
 41
1.8796
 42
1.8796
 43
1.0000
 50
0.0000
  0
INSERT
  8
31
  2
RECT
 10
80.1190
 20
-6.6040
 30
0.0000
 41
1.7800
 42
2.0000
 43
1.0000
 50
270.0000
  0
INSERT
  8
31
  2
RECT
 10
80.1190
 20
-9.1440
 30
0.0000
 41
1.7800
 42
2.0000
 43
1.0000
 50
270.0000
  0
INSERT
  8
31
  2
RECT
 10
87.5690
 20
-9.1440
 30
0.0000
 41
1.7800
 42
2.0000
 43
1.0000
 50
90.0000
  0
INSERT
  8
31
  2
RECT
 10
87.5690
 20
-6.6040
 30
0.0000
 41
1.7800
 42
2.0000
 43
1.0000
 50
90.0000
  0
INSERT
  8
31
  2
RECT
 10
11.9761
 20
10.8423
 30
0.0000
 41
1.8000
 42
3.7000
 43
1.0000
 50
270.0000
  0
INSERT
  8
31
  2
RECT
 10
11.9761
 20
5.5923
 30
0.0000
 41
1.8000
 42
3.7000
 43
1.0000
 50
270.0000
  0
INSERT
  8
31
  2
RECT
 10
46.5732
 20
13.3202
 30
0.0000
 41
0.7000
 42
0.7000
 43
1.0000
 50
180.0000
  0
INSERT
  8
31
  2
RECT
 10
45.2732
 20
13.3202
 30
0.0000
 41
0.7000
 42
0.7000
 43
1.0000
 50
180.0000
  0
INSERT
  8
31
  2
RECT
 10
45.9232
 20
11.4702
 30
0.0000
 41
0.7000
 42
0.7000
 43
1.0000
 50
180.0000
  0
INSERT
  8
31
  2
RECT
 10
63.4342
 20
31.3330
 30
0.0000
 41
0.7000
 42
0.7000
 43
1.0000
 50
0.0000
  0
INSERT
  8
31
  2
RECT
 10
64.7342
 20
31.3330
 30
0.0000
 41
0.7000
 42
0.7000
 43
1.0000
 50
0.0000
  0
INSERT
  8
31
  2
RECT
 10
64.0842
 20
33.1830
 30
0.0000
 41
0.7000
 42
0.7000
 43
1.0000
 50
0.0000
  0
INSERT
  8
31
  2
RECT
 10
10.3020
 20
14.8950
 30
0.0000
 41
0.7000
 42
0.7000
 43
1.0000
 50
180.0000
  0
INSERT
  8
31
  2
RECT
 10
9.0020
 20
14.8950
 30
0.0000
 41
0.7000
 42
0.7000
 43
1.0000
 50
180.0000
  0
INSERT
  8
31
  2
RECT
 10
9.6520
 20
13.0450
 30
0.0000
 41
0.7000
 42
0.7000
 43
1.0000
 50
180.0000
  0
INSERT
  8
31
  2
RECT
 10
39.0000
 20
22.8600
 30
0.0000
 41
0.8000
 42
1.2000
 43
1.0000
 50
180.0000
  0
INSERT
  8
31
  2
RECT
 10
37.2000
 20
22.8600
 30
0.0000
 41
0.8000
 42
1.2000
 43
1.0000
 50
180.0000
  0
INSERT
  8
31
  2
RECT
 10
73.3950
 20
24.7650
 30
0.0000
 41
0.8000
 42
1.2000
 43
1.0000
 50
0.0000
  0
INSERT
  8
31
  2
RECT
 10
75.1950
 20
24.7650
 30
0.0000
 41
0.8000
 42
1.2000
 43
1.0000
 50
0.0000
  0
INSERT
  8
31
  2
RECT
 10
22.4155
 20
19.1533
 30
0.0000
 41
0.8000
 42
1.2000
 43
1.0000
 50
90.0000
  0
INSERT
  8
31
  2
RECT
 10
22.4155
 20
20.9533
 30
0.0000
 41
0.8000
 42
1.2000
 43
1.0000
 50
90.0000
  0
INSERT
  8
31
  2
RECT
 10
24.1935
 20
19.1533
 30
0.0000
 41
0.8000
 42
1.2000
 43
1.0000
 50
90.0000
  0
INSERT
  8
31
  2
RECT
 10
24.1935
 20
20.9533
 30
0.0000
 41
0.8000
 42
1.2000
 43
1.0000
 50
90.0000
  0
INSERT
  8
31
  2
RECT
 10
25.9715
 20
19.1533
 30
0.0000
 41
0.8000
 42
1.2000
 43
1.0000
 50
90.0000
  0
INSERT
  8
31
  2
RECT
 10
25.9715
 20
20.9533
 30
0.0000
 41
0.8000
 42
1.2000
 43
1.0000
 50
90.0000
  0
INSERT
  8
31
  2
RECT
 10
27.7495
 20
19.1533
 30
0.0000
 41
0.8000
 42
1.2000
 43
1.0000
 50
90.0000
  0
INSERT
  8
31
  2
RECT
 10
27.7495
 20
20.9533
 30
0.0000
 41
0.8000
 42
1.2000
 43
1.0000
 50
90.0000
  0
INSERT
  8
31
  2
RECT
 10
31.3055
 20
19.1533
 30
0.0000
 41
0.8000
 42
1.2000
 43
1.0000
 50
90.0000
  0
INSERT
  8
31
  2
RECT
 10
31.3055
 20
20.9533
 30
0.0000
 41
0.8000
 42
1.2000
 43
1.0000
 50
90.0000
  0
INSERT
  8
31
  2
RECT
 10
29.5275
 20
19.1533
 30
0.0000
 41
0.8000
 42
1.2000
 43
1.0000
 50
90.0000
  0
INSERT
  8
31
  2
RECT
 10
29.5275
 20
20.9533
 30
0.0000
 41
0.8000
 42
1.2000
 43
1.0000
 50
90.0000
  0
INSERT
  8
31
  2
RECT
 10
20.4851
 20
19.1406
 30
0.0000
 41
0.8000
 42
1.2000
 43
1.0000
 50
90.0000
  0
INSERT
  8
31
  2
RECT
 10
20.4851
 20
20.9406
 30
0.0000
 41
0.8000
 42
1.2000
 43
1.0000
 50
90.0000
  0
INSERT
  8
31
  2
RECT
 10
18.6309
 20
19.1406
 30
0.0000
 41
0.8000
 42
1.2000
 43
1.0000
 50
90.0000
  0
INSERT
  8
31
  2
RECT
 10
18.6309
 20
20.9406
 30
0.0000
 41
0.8000
 42
1.2000
 43
1.0000
 50
90.0000
  0
INSERT
  8
31
  2
RECT
 10
19.4454
 20
25.2222
 30
0.0000
 41
0.8000
 42
1.2000
 43
1.0000
 50
0.0000
  0
INSERT
  8
31
  2
RECT
 10
21.2454
 20
25.2222
 30
0.0000
 41
0.8000
 42
1.2000
 43
1.0000
 50
0.0000
  0
INSERT
  8
31
  2
RECT
 10
34.4170
 20
22.4723
 30
0.0000
 41
1.8000
 42
3.2000
 43
1.0000
 50
270.0000
  0
INSERT
  8
31
  2
RECT
 10
34.4170
 20
16.8723
 30
0.0000
 41
1.8000
 42
3.2000
 43
1.0000
 50
270.0000
  0
INSERT
  8
31
  2
RECT
 10
2.4257
 20
19.8738
 30
0.0000
 41
0.8000
 42
1.2000
 43
1.0000
 50
270.0000
  0
INSERT
  8
31
  2
RECT
 10
2.4257
 20
18.0738
 30
0.0000
 41
0.8000
 42
1.2000
 43
1.0000
 50
270.0000
  0
INSERT
  8
31
  2
RECT
 10
44.7040
 20
33.1360
 30
0.0000
 41
0.8000
 42
1.2000
 43
1.0000
 50
90.0000
  0
INSERT
  8
31
  2
RECT
 10
44.7040
 20
34.9360
 30
0.0000
 41
0.8000
 42
1.2000
 43
1.0000
 50
90.0000
  0
INSERT
  8
31
  2
RECT
 10
72.7981
 20
30.5689
 30
0.0000
 41
0.8000
 42
1.2000
 43
1.0000
 50
0.0000
  0
INSERT
  8
31
  2
RECT
 10
74.5981
 20
30.5689
 30
0.0000
 41
0.8000
 42
1.2000
 43
1.0000
 50
0.0000
  0
INSERT
  8
31
  2
RECT
 10
76.1619
 20
29.9991
 30
0.0000
 41
0.8000
 42
1.2000
 43
1.0000
 50
90.0000
  0
INSERT
  8
31
  2
RECT
 10
76.1619
 20
31.7991
 30
0.0000
 41
0.8000
 42
1.2000
 43
1.0000
 50
90.0000
  0
INSERT
  8
31
  2
RECT
 10
47.2440
 20
33.1360
 30
0.0000
 41
0.8000
 42
1.2000
 43
1.0000
 50
90.0000
  0
INSERT
  8
31
  2
RECT
 10
47.2440
 20
34.9360
 30
0.0000
 41
0.8000
 42
1.2000
 43
1.0000
 50
90.0000
  0
INSERT
  8
31
  2
RECT
 10
60.2598
 20
26.7843
 30
0.0000
 41
0.8000
 42
1.2000
 43
1.0000
 50
180.0000
  0
INSERT
  8
31
  2
RECT
 10
58.4598
 20
26.7843
 30
0.0000
 41
0.8000
 42
1.2000
 43
1.0000
 50
180.0000
  0
INSERT
  8
31
  2
RECT
 10
74.4330
 20
14.3510
 30
0.0000
 41
0.8000
 42
1.2000
 43
1.0000
 50
180.0000
  0
INSERT
  8
31
  2
RECT
 10
72.6330
 20
14.3510
 30
0.0000
 41
0.8000
 42
1.2000
 43
1.0000
 50
180.0000
  0
INSERT
  8
31
  2
RECT
 10
49.7840
 20
33.1360
 30
0.0000
 41
0.8000
 42
1.2000
 43
1.0000
 50
90.0000
  0
INSERT
  8
31
  2
RECT
 10
49.7840
 20
34.9360
 30
0.0000
 41
0.8000
 42
1.2000
 43
1.0000
 50
90.0000
  0
POLYLINE
  8
40
 66
1
 10
0.0000
 20
0.0000
 30
0.0000
 40
0.0508
 41
0.0508
 70
0
  0
VERTEX
  8
40
 10
76.5210
 20
-7.4600
 30
0.0000
  0
VERTEX
  8
40
 10
81.4670
 20
-7.4600
 30
0.0000
  0
SEQEND
  8
0
  0
POLYLINE
  8
40
 66
1
 10
0.0000
 20
0.0000
 30
0.0000
 40
0.0254
 41
0.0254
 70
0
  0
VERTEX
  8
40
 10
81.4670
 20
-7.4727
 30
0.0000
 42
1.0000
  0
VERTEX
  8
40
 10
81.4670
 20
-7.4473
 30
0.0000
  0
SEQEND
  8
0
  0
POLYLINE
  8
40
 66
1
 10
0.0000
 20
0.0000
 30
0.0000
 40
0.0254
 41
0.0254
 70
0
  0
VERTEX
  8
40
 10
76.5210
 20
-7.4473
 30
0.0000
 42
1.0000
  0
VERTEX
  8
40
 10
76.5210
 20
-7.4727
 30
0.0000
  0
SEQEND
  8
0
  0
POLYLINE
  8
40
 66
1
 10
0.0000
 20
0.0000
 30
0.0000
 40
0.0508
 41
0.0508
 70
0
  0
VERTEX
  8
40
 10
81.4670
 20
-5.4940
 30
0.0000
  0
VERTEX
  8
40
 10
76.5210
 20
-5.4940
 30
0.0000
  0
SEQEND
  8
0
  0
POLYLINE
  8
40
 66
1
 10
0.0000
 20
0.0000
 30
0.0000
 40
0.0254
 41
0.0254
 70
0
  0
VERTEX
  8
40
 10
76.5210
 20
-5.4813
 30
0.0000
 42
1.0000
  0
VERTEX
  8
40
 10
76.5210
 20
-5.5067
 30
0.0000
  0
SEQEND
  8
0
  0
POLYLINE
  8
40
 66
1
 10
0.0000
 20
0.0000
 30
0.0000
 40
0.0254
 41
0.0254
 70
0
  0
VERTEX
  8
40
 10
81.4670
 20
-5.5067
 30
0.0000
 42
1.0000
  0
VERTEX
  8
40
 10
81.4670
 20
-5.4813
 30
0.0000
  0
SEQEND
  8
0
  0
POLYLINE
  8
40
 66
1
 10
0.0000
 20
0.0000
 30
0.0000
 40
0.0508
 41
0.0508
 70
0
  0
VERTEX
  8
40
 10
76.5210
 20
-5.4940
 30
0.0000
  0
VERTEX
  8
40
 10
76.5210
 20
-7.4600
 30
0.0000
  0
SEQEND
  8
0
  0
POLYLINE
  8
40
 66
1
 10
0.0000
 20
0.0000
 30
0.0000
 40
0.0254
 41
0.0254
 70
0
  0
VERTEX
  8
40
 10
76.5083
 20
-7.4600
 30
0.0000
 42
1.0000
  0
VERTEX
  8
40
 10
76.5337
 20
-7.4600
 30
0.0000
  0
SEQEND
  8
0
  0
POLYLINE
  8
40
 66
1
 10
0.0000
 20
0.0000
 30
0.0000
 40
0.0254
 41
0.0254
 70
0
  0
VERTEX
  8
40
 10
76.5337
 20
-5.4940
 30
0.0000
 42
1.0000
  0
VERTEX
  8
40
 10
76.5083
 20
-5.4940
 30
0.0000
  0
SEQEND
  8
0
  0
POLYLINE
  8
40
 66
1
 10
0.0000
 20
0.0000
 30
0.0000
 40
0.0508
 41
0.0508
 70
0
  0
VERTEX
  8
40
 10
81.4670
 20
-7.4600
 30
0.0000
  0
VERTEX
  8
40
 10
81.4670
 20
-5.4940
 30
0.0000
  0
SEQEND
  8
0
  0
POLYLINE
  8
40
 66
1
 10
0.0000
 20
0.0000
 30
0.0000
 40
0.0254
 41
0.0254
 70
0
  0
VERTEX
  8
40
 10
81.4797
 20
-5.4940
 30
0.0000
 42
1.0000
  0
VERTEX
  8
40
 10
81.4543
 20
-5.4940
 30
0.0000
  0
SEQEND
  8
0
  0
POLYLINE
  8
40
 66
1
 10
0.0000
 20
0.0000
 30
0.0000
 40
0.0254
 41
0.0254
 70
0
  0
VERTEX
  8
40
 10
81.4543
 20
-7.4600
 30
0.0000
 42
1.0000
  0
VERTEX
  8
40
 10
81.4797
 20
-7.4600
 30
0.0000
  0
SEQEND
  8
0
  0
INSERT
  8
31
  2
RECT
 10
55.7657
 20
23.9378
 30
0.0000
 41
0.8000
 42
1.2000
 43
1.0000
 50
270.0000
  0
INSERT
  8
31
  2
RECT
 10
55.7657
 20
22.1378
 30
0.0000
 41
0.8000
 42
1.2000
 43
1.0000
 50
270.0000
  0
INSERT
  8
31
  2
RECT
 10
52.3240
 20
33.1360
 30
0.0000
 41
0.8000
 42
1.2000
 43
1.0000
 50
90.0000
  0
INSERT
  8
31
  2
RECT
 10
52.3240
 20
34.9360
 30
0.0000
 41
0.8000
 42
1.2000
 43
1.0000
 50
90.0000
  0
INSERT
  8
31
  2
RECT
 10
68.7070
 20
17.0070
 30
0.0000
 41
0.8000
 42
1.2000
 43
1.0000
 50
90.0000
  0
INSERT
  8
31
  2
RECT
 10
68.7070
 20
18.8070
 30
0.0000
 41
0.8000
 42
1.2000
 43
1.0000
 50
90.0000
  0
POLYLINE
  8
40
 66
1
 10
0.0000
 20
0.0000
 30
0.0000
 40
0.0508
 41
0.0508
 70
0
  0
VERTEX
  8
40
 10
76.5591
 20
-9.7968
 30
0.0000
  0
VERTEX
  8
40
 10
81.5051
 20
-9.7968
 30
0.0000
  0
SEQEND
  8
0
  0
POLYLINE
  8
40
 66
1
 10
0.0000
 20
0.0000
 30
0.0000
 40
0.0254
 41
0.0254
 70
0
  0
VERTEX
  8
40
 10
81.5051
 20
-9.8095
 30
0.0000
 42
1.0000
  0
VERTEX
  8
40
 10
81.5051
 20
-9.7841
 30
0.0000
  0
SEQEND
  8
0
  0
POLYLINE
  8
40
 66
1
 10
0.0000
 20
0.0000
 30
0.0000
 40
0.0254
 41
0.0254
 70
0
  0
VERTEX
  8
40
 10
76.5591
 20
-9.7841
 30
0.0000
 42
1.0000
  0
VERTEX
  8
40
 10
76.5591
 20
-9.8095
 30
0.0000
  0
SEQEND
  8
0
  0
POLYLINE
  8
40
 66
1
 10
0.0000
 20
0.0000
 30
0.0000
 40
0.0508
 41
0.0508
 70
0
  0
VERTEX
  8
40
 10
81.5051
 20
-7.8308
 30
0.0000
  0
VERTEX
  8
40
 10
76.5591
 20
-7.8308
 30
0.0000
  0
SEQEND
  8
0
  0
POLYLINE
  8
40
 66
1
 10
0.0000
 20
0.0000
 30
0.0000
 40
0.0254
 41
0.0254
 70
0
  0
VERTEX
  8
40
 10
76.5591
 20
-7.8181
 30
0.0000
 42
1.0000
  0
VERTEX
  8
40
 10
76.5591
 20
-7.8435
 30
0.0000
  0
SEQEND
  8
0
  0
POLYLINE
  8
40
 66
1
 10
0.0000
 20
0.0000
 30
0.0000
 40
0.0254
 41
0.0254
 70
0
  0
VERTEX
  8
40
 10
81.5051
 20
-7.8435
 30
0.0000
 42
1.0000
  0
VERTEX
  8
40
 10
81.5051
 20
-7.8181
 30
0.0000
  0
SEQEND
  8
0
  0
POLYLINE
  8
40
 66
1
 10
0.0000
 20
0.0000
 30
0.0000
 40
0.0508
 41
0.0508
 70
0
  0
VERTEX
  8
40
 10
76.5591
 20
-7.8308
 30
0.0000
  0
VERTEX
  8
40
 10
76.5591
 20
-9.7968
 30
0.0000
  0
SEQEND
  8
0
  0
POLYLINE
  8
40
 66
1
 10
0.0000
 20
0.0000
 30
0.0000
 40
0.0254
 41
0.0254
 70
0
  0
VERTEX
  8
40
 10
76.5464
 20
-9.7968
 30
0.0000
 42
1.0000
  0
VERTEX
  8
40
 10
76.5718
 20
-9.7968
 30
0.0000
  0
SEQEND
  8
0
  0
POLYLINE
  8
40
 66
1
 10
0.0000
 20
0.0000
 30
0.0000
 40
0.0254
 41
0.0254
 70
0
  0
VERTEX
  8
40
 10
76.5718
 20
-7.8308
 30
0.0000
 42
1.0000
  0
VERTEX
  8
40
 10
76.5464
 20
-7.8308
 30
0.0000
  0
SEQEND
  8
0
  0
POLYLINE
  8
40
 66
1
 10
0.0000
 20
0.0000
 30
0.0000
 40
0.0508
 41
0.0508
 70
0
  0
VERTEX
  8
40
 10
81.5051
 20
-9.7968
 30
0.0000
  0
VERTEX
  8
40
 10
81.5051
 20
-7.8308
 30
0.0000
  0
SEQEND
  8
0
  0
POLYLINE
  8
40
 66
1
 10
0.0000
 20
0.0000
 30
0.0000
 40
0.0254
 41
0.0254
 70
0
  0
VERTEX
  8
40
 10
81.5178
 20
-7.8308
 30
0.0000
 42
1.0000
  0
VERTEX
  8
40
 10
81.4924
 20
-7.8308
 30
0.0000
  0
SEQEND
  8
0
  0
POLYLINE
  8
40
 66
1
 10
0.0000
 20
0.0000
 30
0.0000
 40
0.0254
 41
0.0254
 70
0
  0
VERTEX
  8
40
 10
81.4924
 20
-9.7968
 30
0.0000
 42
1.0000
  0
VERTEX
  8
40
 10
81.5178
 20
-9.7968
 30
0.0000
  0
SEQEND
  8
0
  0
INSERT
  8
31
  2
RECT
 10
89.9050
 20
11.5570
 30
0.0000
 41
0.8000
 42
1.2000
 43
1.0000
 50
0.0000
  0
INSERT
  8
31
  2
RECT
 10
91.7050
 20
11.5570
 30
0.0000
 41
0.8000
 42
1.2000
 43
1.0000
 50
0.0000
  0
INSERT
  8
31
  2
RECT
 10
54.8640
 20
33.1360
 30
0.0000
 41
0.8000
 42
1.2000
 43
1.0000
 50
90.0000
  0
INSERT
  8
31
  2
RECT
 10
54.8640
 20
34.9360
 30
0.0000
 41
0.8000
 42
1.2000
 43
1.0000
 50
90.0000
  0
INSERT
  8
31
  2
RECT
 10
80.6560
 20
12.4460
 30
0.0000
 41
0.8000
 42
1.2000
 43
1.0000
 50
180.0000
  0
INSERT
  8
31
  2
RECT
 10
78.8560
 20
12.4460
 30
0.0000
 41
0.8000
 42
1.2000
 43
1.0000
 50
180.0000
  0
INSERT
  8
31
  2
RECT
 10
61.6712
 20
30.7611
 30
0.0000
 41
0.8000
 42
1.2000
 43
1.0000
 50
90.0000
  0
INSERT
  8
31
  2
RECT
 10
61.6712
 20
32.5611
 30
0.0000
 41
0.8000
 42
1.2000
 43
1.0000
 50
90.0000
  0
INSERT
  8
31
  2
RECT
 10
79.5892
 20
22.4536
 30
0.0000
 41
0.8000
 42
1.2000
 43
1.0000
 50
180.0000
  0
INSERT
  8
31
  2
RECT
 10
77.7892
 20
22.4536
 30
0.0000
 41
0.8000
 42
1.2000
 43
1.0000
 50
180.0000
  0
INSERT
  8
31
  2
RECT
 10
63.8700
 20
18.6563
 30
0.0000
 41
0.8000
 42
1.2000
 43
1.0000
 50
0.0000
  0
INSERT
  8
31
  2
RECT
 10
65.6700
 20
18.6563
 30
0.0000
 41
0.8000
 42
1.2000
 43
1.0000
 50
0.0000
  0
INSERT
  8
31
  2
RECT
 10
50.1760
 20
11.8110
 30
0.0000
 41
0.8000
 42
1.2000
 43
1.0000
 50
180.0000
  0
INSERT
  8
31
  2
RECT
 10
48.3760
 20
11.8110
 30
0.0000
 41
0.8000
 42
1.2000
 43
1.0000
 50
180.0000
  0
INSERT
  8
31
  2
RECT
 10
59.6519
 20
30.8246
 30
0.0000
 41
0.8000
 42
1.2000
 43
1.0000
 50
90.0000
  0
INSERT
  8
31
  2
RECT
 10
59.6519
 20
32.6246
 30
0.0000
 41
0.8000
 42
1.2000
 43
1.0000
 50
90.0000
  0
INSERT
  8
31
  2
RECT
 10
26.9604
 20
1.6510
 30
0.0000
 41
0.8000
 42
1.2000
 43
1.0000
 50
180.0000
  0
INSERT
  8
31
  2
RECT
 10
25.1604
 20
1.6510
 30
0.0000
 41
0.8000
 42
1.2000
 43
1.0000
 50
180.0000
  0
INSERT
  8
31
  2
RECT
 10
25.1604
 20
5.2070
 30
0.0000
 41
0.8000
 42
1.2000
 43
1.0000
 50
0.0000
  0
INSERT
  8
31
  2
RECT
 10
26.9604
 20
5.2070
 30
0.0000
 41
0.8000
 42
1.2000
 43
1.0000
 50
0.0000
  0
INSERT
  8
31
  2
RECT
 10
43.3688
 20
17.4752
 30
0.0000
 41
0.8000
 42
1.2000
 43
1.0000
 50
180.0000
  0
INSERT
  8
31
  2
RECT
 10
41.5688
 20
17.4752
 30
0.0000
 41
0.8000
 42
1.2000
 43
1.0000
 50
180.0000
  0
INSERT
  8
31
  2
RECT
 10
66.1162
 20
24.1537
 30
0.0000
 41
0.8000
 42
1.2000
 43
1.0000
 50
270.0000
  0
INSERT
  8
31
  2
RECT
 10
66.1162
 20
22.3537
 30
0.0000
 41
0.8000
 42
1.2000
 43
1.0000
 50
270.0000
  0
INSERT
  8
31
  2
RECT
 10
71.4104
 20
11.9888
 30
0.0000
 41
0.8000
 42
1.2000
 43
1.0000
 50
180.0000
  0
INSERT
  8
31
  2
RECT
 10
69.6104
 20
11.9888
 30
0.0000
 41
0.8000
 42
1.2000
 43
1.0000
 50
180.0000
  0
INSERT
  8
31
  2
RECT
 10
19.7375
 20
30.2260
 30
0.0000
 41
0.8000
 42
1.2000
 43
1.0000
 50
0.0000
  0
INSERT
  8
31
  2
RECT
 10
21.5375
 20
30.2260
 30
0.0000
 41
0.8000
 42
1.2000
 43
1.0000
 50
0.0000
  0
INSERT
  8
31
  2
RECT
 10
76.2000
 20
5.1960
 30
0.0000
 41
0.8000
 42
1.2000
 43
1.0000
 50
90.0000
  0
INSERT
  8
31
  2
RECT
 10
76.2000
 20
6.9960
 30
0.0000
 41
0.8000
 42
1.2000
 43
1.0000
 50
90.0000
  0
INSERT
  8
31
  2
RECT
 10
76.9620
 20
12.5620
 30
0.0000
 41
0.8000
 42
1.2000
 43
1.0000
 50
90.0000
  0
INSERT
  8
31
  2
RECT
 10
76.9620
 20
14.3620
 30
0.0000
 41
0.8000
 42
1.2000
 43
1.0000
 50
90.0000
  0
INSERT
  8
31
  2
RECT
 10
91.8320
 20
-4.0640
 30
0.0000
 41
0.8000
 42
1.2000
 43
1.0000
 50
180.0000
  0
INSERT
  8
31
  2
RECT
 10
90.0320
 20
-4.0640
 30
0.0000
 41
0.8000
 42
1.2000
 43
1.0000
 50
180.0000
  0
INSERT
  8
31
  2
RECT
 10
79.8957
 20
24.6778
 30
0.0000
 41
0.8000
 42
1.2000
 43
1.0000
 50
90.0000
  0
INSERT
  8
31
  2
RECT
 10
79.8957
 20
26.4778
 30
0.0000
 41
0.8000
 42
1.2000
 43
1.0000
 50
90.0000
  0
INSERT
  8
31
  2
RECT
 10
16.2162
 20
23.2537
 30
0.0000
 41
0.8000
 42
1.2000
 43
1.0000
 50
180.0000
  0
INSERT
  8
31
  2
RECT
 10
14.4162
 20
23.2537
 30
0.0000
 41
0.8000
 42
1.2000
 43
1.0000
 50
180.0000
  0
INSERT
  8
31
  2
RECT
 10
56.3880
 20
33.1360
 30
0.0000
 41
0.8000
 42
1.2000
 43
1.0000
 50
90.0000
  0
INSERT
  8
31
  2
RECT
 10
56.3880
 20
34.9360
 30
0.0000
 41
0.8000
 42
1.2000
 43
1.0000
 50
90.0000
  0
INSERT
  8
31
  2
RECT
 10
78.1177
 20
24.6778
 30
0.0000
 41
0.8000
 42
1.2000
 43
1.0000
 50
90.0000
  0
INSERT
  8
31
  2
RECT
 10
78.1177
 20
26.4778
 30
0.0000
 41
0.8000
 42
1.2000
 43
1.0000
 50
90.0000
  0
INSERT
  8
17
  2
ROUNDP
 10
78.5070
 20
6.8600
 30
0.0000
 41
2.0000
 42
2.0000
 43
1.0000
 50
180.0000
  0
INSERT
  8
17
  2
ROUNDP
 10
78.5070
 20
6.8600
 30
0.0000
 41
2.0000
 42
2.0000
 43
1.0000
 50
180.0000
  0
INSERT
  8
17
  2
ROUNDP
 10
78.5070
 20
1.7800
 30
0.0000
 41
2.0000
 42
2.0000
 43
1.0000
 50
180.0000
  0
INSERT
  8
17
  2
ROUNDP
 10
78.5070
 20
1.7800
 30
0.0000
 41
2.0000
 42
2.0000
 43
1.0000
 50
180.0000
  0
INSERT
  8
17
  2
ROUNDP
 10
78.5070
 20
4.3200
 30
0.0000
 41
2.0000
 42
2.0000
 43
1.0000
 50
180.0000
  0
INSERT
  8
17
  2
ROUNDP
 10
78.5070
 20
4.3200
 30
0.0000
 41
2.0000
 42
2.0000
 43
1.0000
 50
180.0000
  0
INSERT
  8
17
  2
ROUNDP
 10
86.0000
 20
-2.2840
 30
0.0000
 41
4.0000
 42
4.0000
 43
1.0000
 50
180.0000
  0
INSERT
  8
17
  2
ROUNDP
 10
86.0000
 20
-2.2840
 30
0.0000
 41
4.0000
 42
4.0000
 43
1.0000
 50
180.0000
  0
INSERT
  8
17
  2
ROUNDP
 10
86.0000
 20
10.9240
 30
0.0000
 41
4.0000
 42
4.0000
 43
1.0000
 50
180.0000
  0
INSERT
  8
17
  2
ROUNDP
 10
86.0000
 20
10.9240
 30
0.0000
 41
4.0000
 42
4.0000
 43
1.0000
 50
180.0000
  0
INSERT
  8
17
  2
ROUNDP
 10
92.9850
 20
1.7800
 30
0.0000
 41
2.0000
 42
2.0000
 43
1.0000
 50
180.0000
  0
INSERT
  8
17
  2
ROUNDP
 10
92.9850
 20
1.7800
 30
0.0000
 41
2.0000
 42
2.0000
 43
1.0000
 50
180.0000
  0
INSERT
  8
17
  2
ROUNDP
 10
92.9850
 20
6.8600
 30
0.0000
 41
2.0000
 42
2.0000
 43
1.0000
 50
180.0000
  0
INSERT
  8
17
  2
ROUNDP
 10
92.9850
 20
6.8600
 30
0.0000
 41
2.0000
 42
2.0000
 43
1.0000
 50
180.0000
  0
INSERT
  8
31
  2
RECT
 10
15.1680
 20
17.3040
 30
0.0000
 41
1.0000
 42
3.1000
 43
1.0000
 50
270.0000
  0
INSERT
  8
31
  2
RECT
 10
6.1680
 20
17.3040
 30
0.0000
 41
1.0000
 42
3.1000
 43
1.0000
 50
270.0000
  0
INSERT
  8
31
  2
RECT
 10
15.1680
 20
21.3040
 30
0.0000
 41
1.0000
 42
3.1000
 43
1.0000
 50
270.0000
  0
INSERT
  8
31
  2
RECT
 10
6.1680
 20
21.3040
 30
0.0000
 41
1.0000
 42
3.1000
 43
1.0000
 50
270.0000
  0
INSERT
  8
17
  2
ROUNDP
 10
22.9616
 20
2.9591
 30
0.0000
 41
1.5000
 42
1.5000
 43
1.0000
 50
90.0000
  0
INSERT
  8
17
  2
ROUNDP
 10
22.9616
 20
2.9591
 30
0.0000
 41
1.5000
 42
1.5000
 43
1.0000
 50
90.0000
  0
INSERT
  8
17
  2
ROUNDP
 10
49.8348
 20
14.4526
 30
0.0000
 41
1.5000
 42
1.5000
 43
1.0000
 50
90.0000
  0
INSERT
  8
17
  2
ROUNDP
 10
49.8348
 20
14.4526
 30
0.0000
 41
1.5000
 42
1.5000
 43
1.0000
 50
90.0000
  0
INSERT
  8
17
  2
ROUNDP
 10
28.0670
 20
7.1120
 30
0.0000
 41
1.8796
 42
1.8796
 43
1.0000
 50
90.0000
  0
INSERT
  8
17
  2
ROUNDP
 10
28.0670
 20
7.1120
 30
0.0000
 41
1.8796
 42
1.8796
 43
1.0000
 50
90.0000
  0
INSERT
  8
17
  2
ROUNDP
 10
64.1350
 20
28.8290
 30
0.0000
 41
1.5000
 42
1.5000
 43
1.0000
 50
90.0000
  0
INSERT
  8
17
  2
ROUNDP
 10
64.1350
 20
28.8290
 30
0.0000
 41
1.5000
 42
1.5000
 43
1.0000
 50
90.0000
  0
INSERT
  8
17
  2
ROUNDP
 10
94.4880
 20
4.3180
 30
0.0000
 41
1.5000
 42
1.5000
 43
1.0000
 50
90.0000
  0
INSERT
  8
17
  2
ROUNDP
 10
94.4880
 20
4.3180
 30
0.0000
 41
1.5000
 42
1.5000
 43
1.0000
 50
90.0000
  0
INSERT
  8
17
  2
ROUNDP
 10
31.7500
 20
15.2400
 30
0.0000
 41
1.5000
 42
1.5000
 43
1.0000
 50
90.0000
  0
INSERT
  8
17
  2
ROUNDP
 10
31.7500
 20
15.2400
 30
0.0000
 41
1.5000
 42
1.5000
 43
1.0000
 50
90.0000
  0
INSERT
  8
17
  2
ROUNDP
 10
31.7500
 20
13.0810
 30
0.0000
 41
1.5000
 42
1.5000
 43
1.0000
 50
90.0000
  0
INSERT
  8
17
  2
ROUNDP
 10
31.7500
 20
13.0810
 30
0.0000
 41
1.5000
 42
1.5000
 43
1.0000
 50
90.0000
  0
INSERT
  8
17
  2
ROUNDP
 10
15.3670
 20
14.2240
 30
0.0000
 41
1.5000
 42
1.5000
 43
1.0000
 50
90.0000
  0
INSERT
  8
17
  2
ROUNDP
 10
15.3670
 20
14.2240
 30
0.0000
 41
1.5000
 42
1.5000
 43
1.0000
 50
90.0000
  0
INSERT
  8
17
  2
ROUNDP
 10
62.1030
 20
16.7640
 30
0.0000
 41
1.5000
 42
1.5000
 43
1.0000
 50
90.0000
  0
INSERT
  8
17
  2
ROUNDP
 10
62.1030
 20
16.7640
 30
0.0000
 41
1.5000
 42
1.5000
 43
1.0000
 50
90.0000
  0
INSERT
  8
17
  2
ROUNDP
 10
66.8020
 20
28.8290
 30
0.0000
 41
1.5000
 42
1.5000
 43
1.0000
 50
90.0000
  0
INSERT
  8
17
  2
ROUNDP
 10
66.8020
 20
28.8290
 30
0.0000
 41
1.5000
 42
1.5000
 43
1.0000
 50
90.0000
  0
INSERT
  8
17
  2
ROUNDP
 10
15.4940
 20
10.2870
 30
0.0000
 41
1.5000
 42
1.5000
 43
1.0000
 50
90.0000
  0
INSERT
  8
17
  2
ROUNDP
 10
15.4940
 20
10.2870
 30
0.0000
 41
1.5000
 42
1.5000
 43
1.0000
 50
90.0000
  0
INSERT
  8
17
  2
ROUNDP
 10
22.4790
 20
1.1430
 30
0.0000
 41
1.5000
 42
1.5000
 43
1.0000
 50
90.0000
  0
INSERT
  8
17
  2
ROUNDP
 10
22.4790
 20
1.1430
 30
0.0000
 41
1.5000
 42
1.5000
 43
1.0000
 50
90.0000
  0
INSERT
  8
17
  2
ROUNDP
 10
94.2340
 20
13.2080
 30
0.0000
 41
1.5000
 42
1.5000
 43
1.0000
 50
90.0000
  0
INSERT
  8
17
  2
ROUNDP
 10
94.2340
 20
13.2080
 30
0.0000
 41
1.5000
 42
1.5000
 43
1.0000
 50
90.0000
  0
INSERT
  8
17
  2
ROUNDP
 10
19.1516
 20
40.1320
 30
0.0000
 41
1.5000
 42
1.5000
 43
1.0000
 50
90.0000
  0
INSERT
  8
17
  2
ROUNDP
 10
19.1516
 20
40.1320
 30
0.0000
 41
1.5000
 42
1.5000
 43
1.0000
 50
90.0000
  0
INSERT
  8
31
  2
RECT
 10
81.6991
 20
22.0278
 30
0.0000
 41
1.2700
 42
0.5588
 43
1.0000
 50
0.0000
  0
INSERT
  8
31
  2
RECT
 10
81.6991
 20
21.2278
 30
0.0000
 41
1.2700
 42
0.5588
 43
1.0000
 50
0.0000
  0
INSERT
  8
31
  2
RECT
 10
81.6991
 20
20.4278
 30
0.0000
 41
1.2700
 42
0.5588
 43
1.0000
 50
0.0000
  0
INSERT
  8
31
  2
RECT
 10
81.6991
 20
19.6278
 30
0.0000
 41
1.2700
 42
0.5588
 43
1.0000
 50
0.0000
  0
INSERT
  8
31
  2
RECT
 10
81.6991
 20
18.8278
 30
0.0000
 41
1.2700
 42
0.5588
 43
1.0000
 50
0.0000
  0
INSERT
  8
31
  2
RECT
 10
81.6991
 20
18.0278
 30
0.0000
 41
1.2700
 42
0.5588
 43
1.0000
 50
0.0000
  0
INSERT
  8
31
  2
RECT
 10
81.6991
 20
17.2278
 30
0.0000
 41
1.2700
 42
0.5588
 43
1.0000
 50
0.0000
  0
INSERT
  8
31
  2
RECT
 10
81.6991
 20
16.4278
 30
0.0000
 41
1.2700
 42
0.5588
 43
1.0000
 50
0.0000
  0
INSERT
  8
31
  2
RECT
 10
83.1917
 20
14.9352
 30
0.0000
 41
0.5588
 42
1.2700
 43
1.0000
 50
0.0000
  0
INSERT
  8
31
  2
RECT
 10
83.9917
 20
14.9352
 30
0.0000
 41
0.5588
 42
1.2700
 43
1.0000
 50
0.0000
  0
INSERT
  8
31
  2
RECT
 10
84.7917
 20
14.9352
 30
0.0000
 41
0.5588
 42
1.2700
 43
1.0000
 50
0.0000
  0
INSERT
  8
31
  2
RECT
 10
85.5917
 20
14.9352
 30
0.0000
 41
0.5588
 42
1.2700
 43
1.0000
 50
0.0000
  0
INSERT
  8
31
  2
RECT
 10
86.3917
 20
14.9352
 30
0.0000
 41
0.5588
 42
1.2700
 43
1.0000
 50
0.0000
  0
INSERT
  8
31
  2
RECT
 10
87.1917
 20
14.9352
 30
0.0000
 41
0.5588
 42
1.2700
 43
1.0000
 50
0.0000
  0
INSERT
  8
31
  2
RECT
 10
87.9917
 20
14.9352
 30
0.0000
 41
0.5588
 42
1.2700
 43
1.0000
 50
0.0000
  0
INSERT
  8
31
  2
RECT
 10
88.7917
 20
14.9352
 30
0.0000
 41
0.5588
 42
1.2700
 43
1.0000
 50
0.0000
  0
INSERT
  8
31
  2
RECT
 10
90.2843
 20
16.4278
 30
0.0000
 41
1.2700
 42
0.5588
 43
1.0000
 50
0.0000
  0
INSERT
  8
31
  2
RECT
 10
90.2843
 20
17.2278
 30
0.0000
 41
1.2700
 42
0.5588
 43
1.0000
 50
0.0000
  0
INSERT
  8
31
  2
RECT
 10
90.2843
 20
18.0278
 30
0.0000
 41
1.2700
 42
0.5588
 43
1.0000
 50
0.0000
  0
INSERT
  8
31
  2
RECT
 10
90.2843
 20
18.8278
 30
0.0000
 41
1.2700
 42
0.5588
 43
1.0000
 50
0.0000
  0
INSERT
  8
31
  2
RECT
 10
90.2843
 20
19.6278
 30
0.0000
 41
1.2700
 42
0.5588
 43
1.0000
 50
0.0000
  0
INSERT
  8
31
  2
RECT
 10
90.2843
 20
20.4278
 30
0.0000
 41
1.2700
 42
0.5588
 43
1.0000
 50
0.0000
  0
INSERT
  8
31
  2
RECT
 10
90.2843
 20
21.2278
 30
0.0000
 41
1.2700
 42
0.5588
 43
1.0000
 50
0.0000
  0
INSERT
  8
31
  2
RECT
 10
90.2843
 20
22.0278
 30
0.0000
 41
1.2700
 42
0.5588
 43
1.0000
 50
0.0000
  0
INSERT
  8
31
  2
RECT
 10
88.7917
 20
23.5204
 30
0.0000
 41
0.5588
 42
1.2700
 43
1.0000
 50
0.0000
  0
INSERT
  8
31
  2
RECT
 10
87.9917
 20
23.5204
 30
0.0000
 41
0.5588
 42
1.2700
 43
1.0000
 50
0.0000
  0
INSERT
  8
31
  2
RECT
 10
87.1917
 20
23.5204
 30
0.0000
 41
0.5588
 42
1.2700
 43
1.0000
 50
0.0000
  0
INSERT
  8
31
  2
RECT
 10
86.3917
 20
23.5204
 30
0.0000
 41
0.5588
 42
1.2700
 43
1.0000
 50
0.0000
  0
INSERT
  8
31
  2
RECT
 10
85.5917
 20
23.5204
 30
0.0000
 41
0.5588
 42
1.2700
 43
1.0000
 50
0.0000
  0
INSERT
  8
31
  2
RECT
 10
84.7917
 20
23.5204
 30
0.0000
 41
0.5588
 42
1.2700
 43
1.0000
 50
0.0000
  0
INSERT
  8
31
  2
RECT
 10
83.9917
 20
23.5204
 30
0.0000
 41
0.5588
 42
1.2700
 43
1.0000
 50
0.0000
  0
INSERT
  8
31
  2
RECT
 10
83.1917
 20
23.5204
 30
0.0000
 41
0.5588
 42
1.2700
 43
1.0000
 50
0.0000
  0
INSERT
  8
31
  2
RECT
 10
77.6809
 20
31.3411
 30
0.0000
 41
0.4500
 42
0.8000
 43
1.0000
 50
270.0000
  0
INSERT
  8
31
  2
RECT
 10
77.6809
 20
30.3911
 30
0.0000
 41
0.4500
 42
0.8000
 43
1.0000
 50
270.0000
  0
INSERT
  8
31
  2
RECT
 10
77.6809
 20
29.4411
 30
0.0000
 41
0.4500
 42
0.8000
 43
1.0000
 50
270.0000
  0
INSERT
  8
31
  2
RECT
 10
80.2309
 20
29.4411
 30
0.0000
 41
0.4500
 42
0.8000
 43
1.0000
 50
270.0000
  0
INSERT
  8
31
  2
RECT
 10
80.2309
 20
30.3911
 30
0.0000
 41
0.4500
 42
0.8000
 43
1.0000
 50
270.0000
  0
INSERT
  8
31
  2
RECT
 10
80.2309
 20
31.3411
 30
0.0000
 41
0.4500
 42
0.8000
 43
1.0000
 50
270.0000
  0
INSERT
  8
31
  2
RECT
 10
71.0750
 20
16.5060
 30
0.0000
 41
0.3500
 42
0.9000
 43
1.0000
 50
0.0000
  0
INSERT
  8
31
  2
RECT
 10
71.7250
 20
16.5060
 30
0.0000
 41
0.3500
 42
0.9000
 43
1.0000
 50
0.0000
  0
INSERT
  8
31
  2
RECT
 10
72.3750
 20
16.5060
 30
0.0000
 41
0.3500
 42
0.9000
 43
1.0000
 50
0.0000
  0
INSERT
  8
31
  2
RECT
 10
73.0250
 20
16.5060
 30
0.0000
 41
0.3500
 42
0.9000
 43
1.0000
 50
0.0000
  0
INSERT
  8
31
  2
RECT
 10
73.6750
 20
16.5060
 30
0.0000
 41
0.3500
 42
0.9000
 43
1.0000
 50
0.0000
  0
INSERT
  8
31
  2
RECT
 10
74.3250
 20
16.5060
 30
0.0000
 41
0.3500
 42
0.9000
 43
1.0000
 50
0.0000
  0
INSERT
  8
31
  2
RECT
 10
74.9750
 20
16.5060
 30
0.0000
 41
0.3500
 42
0.9000
 43
1.0000
 50
0.0000
  0
INSERT
  8
31
  2
RECT
 10
74.9750
 20
22.3560
 30
0.0000
 41
0.3500
 42
0.9000
 43
1.0000
 50
180.0000
  0
INSERT
  8
31
  2
RECT
 10
74.3250
 20
22.3560
 30
0.0000
 41
0.3500
 42
0.9000
 43
1.0000
 50
180.0000
  0
INSERT
  8
31
  2
RECT
 10
73.6750
 20
22.3560
 30
0.0000
 41
0.3500
 42
0.9000
 43
1.0000
 50
180.0000
  0
INSERT
  8
31
  2
RECT
 10
73.0250
 20
22.3560
 30
0.0000
 41
0.3500
 42
0.9000
 43
1.0000
 50
180.0000
  0
INSERT
  8
31
  2
RECT
 10
72.3750
 20
22.3560
 30
0.0000
 41
0.3500
 42
0.9000
 43
1.0000
 50
180.0000
  0
INSERT
  8
31
  2
RECT
 10
71.7250
 20
22.3560
 30
0.0000
 41
0.3500
 42
0.9000
 43
1.0000
 50
180.0000
  0
INSERT
  8
31
  2
RECT
 10
71.0750
 20
22.3560
 30
0.0000
 41
0.3500
 42
0.9000
 43
1.0000
 50
180.0000
  0
INSERT
  8
31
  2
RECT
 10
35.3822
 20
26.6446
 30
0.0000
 41
1.3208
 42
0.5588
 43
1.0000
 50
0.0000
  0
INSERT
  8
31
  2
RECT
 10
35.3822
 20
25.7048
 30
0.0000
 41
1.3208
 42
0.5588
 43
1.0000
 50
0.0000
  0
INSERT
  8
31
  2
RECT
 10
35.3822
 20
24.7650
 30
0.0000
 41
1.3208
 42
0.5588
 43
1.0000
 50
0.0000
  0
INSERT
  8
31
  2
RECT
 10
37.9222
 20
24.7650
 30
0.0000
 41
1.3208
 42
0.5588
 43
1.0000
 50
0.0000
  0
INSERT
  8
31
  2
RECT
 10
37.9222
 20
26.6446
 30
0.0000
 41
1.3208
 42
0.5588
 43
1.0000
 50
0.0000
  0
INSERT
  8
31
  2
RECT
 10
54.8809
 20
16.7019
 30
0.0000
 41
0.8000
 42
0.9000
 43
1.0000
 50
270.0000
  0
INSERT
  8
31
  2
RECT
 10
54.8809
 20
14.8019
 30
0.0000
 41
0.8000
 42
0.9000
 43
1.0000
 50
270.0000
  0
INSERT
  8
31
  2
RECT
 10
56.9809
 20
15.7519
 30
0.0000
 41
0.8000
 42
0.9000
 43
1.0000
 50
270.0000
  0
INSERT
  8
31
  2
RECT
 10
58.0350
 20
24.3020
 30
0.0000
 41
0.3500
 42
0.9000
 43
1.0000
 50
270.0000
  0
INSERT
  8
31
  2
RECT
 10
58.0350
 20
23.6520
 30
0.0000
 41
0.3500
 42
0.9000
 43
1.0000
 50
270.0000
  0
INSERT
  8
31
  2
RECT
 10
58.0350
 20
23.0020
 30
0.0000
 41
0.3500
 42
0.9000
 43
1.0000
 50
270.0000
  0
INSERT
  8
31
  2
RECT
 10
58.0350
 20
22.3520
 30
0.0000
 41
0.3500
 42
0.9000
 43
1.0000
 50
270.0000
  0
INSERT
  8
31
  2
RECT
 10
58.0350
 20
21.7020
 30
0.0000
 41
0.3500
 42
0.9000
 43
1.0000
 50
270.0000
  0
INSERT
  8
31
  2
RECT
 10
58.0350
 20
21.0520
 30
0.0000
 41
0.3500
 42
0.9000
 43
1.0000
 50
270.0000
  0
INSERT
  8
31
  2
RECT
 10
58.0350
 20
20.4020
 30
0.0000
 41
0.3500
 42
0.9000
 43
1.0000
 50
270.0000
  0
INSERT
  8
31
  2
RECT
 10
63.8850
 20
20.4020
 30
0.0000
 41
0.3500
 42
0.9000
 43
1.0000
 50
90.0000
  0
INSERT
  8
31
  2
RECT
 10
63.8850
 20
21.0520
 30
0.0000
 41
0.3500
 42
0.9000
 43
1.0000
 50
90.0000
  0
INSERT
  8
31
  2
RECT
 10
63.8850
 20
21.7020
 30
0.0000
 41
0.3500
 42
0.9000
 43
1.0000
 50
90.0000
  0
INSERT
  8
31
  2
RECT
 10
63.8850
 20
22.3520
 30
0.0000
 41
0.3500
 42
0.9000
 43
1.0000
 50
90.0000
  0
INSERT
  8
31
  2
RECT
 10
63.8850
 20
23.0020
 30
0.0000
 41
0.3500
 42
0.9000
 43
1.0000
 50
90.0000
  0
INSERT
  8
31
  2
RECT
 10
63.8850
 20
23.6520
 30
0.0000
 41
0.3500
 42
0.9000
 43
1.0000
 50
90.0000
  0
INSERT
  8
31
  2
RECT
 10
63.8850
 20
24.3020
 30
0.0000
 41
0.3500
 42
0.9000
 43
1.0000
 50
90.0000
  0
INSERT
  8
31
  2
RECT
 10
27.4955
 20
16.7573
 30
0.0000
 41
0.6000
 42
1.2000
 43
1.0000
 50
180.0000
  0
INSERT
  8
31
  2
RECT
 10
26.2255
 20
16.7573
 30
0.0000
 41
0.6000
 42
1.2000
 43
1.0000
 50
180.0000
  0
INSERT
  8
31
  2
RECT
 10
24.9555
 20
16.7573
 30
0.0000
 41
0.6000
 42
1.2000
 43
1.0000
 50
180.0000
  0
INSERT
  8
31
  2
RECT
 10
23.6855
 20
16.7573
 30
0.0000
 41
0.6000
 42
1.2000
 43
1.0000
 50
180.0000
  0
INSERT
  8
31
  2
RECT
 10
22.4155
 20
16.7573
 30
0.0000
 41
0.6000
 42
1.2000
 43
1.0000
 50
180.0000
  0
INSERT
  8
31
  2
RECT
 10
21.1455
 20
16.7573
 30
0.0000
 41
0.6000
 42
1.2000
 43
1.0000
 50
180.0000
  0
INSERT
  8
31
  2
RECT
 10
19.8755
 20
16.7573
 30
0.0000
 41
0.6000
 42
1.2000
 43
1.0000
 50
180.0000
  0
INSERT
  8
31
  2
RECT
 10
18.6055
 20
16.7573
 30
0.0000
 41
0.6000
 42
1.2000
 43
1.0000
 50
180.0000
  0
INSERT
  8
31
  2
RECT
 10
18.6055
 20
11.1573
 30
0.0000
 41
0.6000
 42
1.2000
 43
1.0000
 50
180.0000
  0
INSERT
  8
31
  2
RECT
 10
19.8755
 20
11.1573
 30
0.0000
 41
0.6000
 42
1.2000
 43
1.0000
 50
180.0000
  0
INSERT
  8
31
  2
RECT
 10
21.1455
 20
11.1573
 30
0.0000
 41
0.6000
 42
1.2000
 43
1.0000
 50
180.0000
  0
INSERT
  8
31
  2
RECT
 10
22.4155
 20
11.1573
 30
0.0000
 41
0.6000
 42
1.2000
 43
1.0000
 50
180.0000
  0
INSERT
  8
31
  2
RECT
 10
23.6855
 20
11.1573
 30
0.0000
 41
0.6000
 42
1.2000
 43
1.0000
 50
180.0000
  0
INSERT
  8
31
  2
RECT
 10
24.9555
 20
11.1573
 30
0.0000
 41
0.6000
 42
1.2000
 43
1.0000
 50
180.0000
  0
INSERT
  8
31
  2
RECT
 10
26.2255
 20
11.1573
 30
0.0000
 41
0.6000
 42
1.2000
 43
1.0000
 50
180.0000
  0
INSERT
  8
31
  2
RECT
 10
27.4955
 20
11.1573
 30
0.0000
 41
0.6000
 42
1.2000
 43
1.0000
 50
180.0000
  0
INSERT
  8
31
  2
RECT
 10
11.3617
 20
29.6545
 30
0.0000
 41
0.5000
 42
2.1500
 43
1.0000
 50
270.0000
  0
INSERT
  8
31
  2
RECT
 10
11.3617
 20
28.3845
 30
0.0000
 41
0.5000
 42
2.1500
 43
1.0000
 50
270.0000
  0
INSERT
  8
31
  2
RECT
 10
11.3617
 20
27.1145
 30
0.0000
 41
0.5000
 42
2.1500
 43
1.0000
 50
270.0000
  0
INSERT
  8
31
  2
RECT
 10
11.3617
 20
25.8445
 30
0.0000
 41
0.5000
 42
2.1500
 43
1.0000
 50
270.0000
  0
INSERT
  8
31
  2
RECT
 10
17.1117
 20
25.8445
 30
0.0000
 41
0.5000
 42
2.1500
 43
1.0000
 50
270.0000
  0
INSERT
  8
31
  2
RECT
 10
17.1117
 20
27.1145
 30
0.0000
 41
0.5000
 42
2.1500
 43
1.0000
 50
270.0000
  0
INSERT
  8
31
  2
RECT
 10
17.1117
 20
28.3845
 30
0.0000
 41
0.5000
 42
2.1500
 43
1.0000
 50
270.0000
  0
INSERT
  8
31
  2
RECT
 10
17.1117
 20
29.6545
 30
0.0000
 41
0.5000
 42
2.1500
 43
1.0000
 50
270.0000
  0
INSERT
  8
31
  2
RECT
 10
14.2367
 20
27.7495
 30
0.0000
 41
3.1000
 42
2.4000
 43
1.0000
 50
90.0000
  0
INSERT
  8
31
  2
RECT
 10
78.7527
 20
15.8053
 30
0.0000
 41
0.7000
 42
1.7000
 43
1.0000
 50
90.0000
  0
INSERT
  8
31
  2
RECT
 10
78.7527
 20
17.0053
 30
0.0000
 41
0.7000
 42
1.7000
 43
1.0000
 50
90.0000
  0
INSERT
  8
31
  2
RECT
 10
78.7527
 20
18.2053
 30
0.0000
 41
0.7000
 42
1.7000
 43
1.0000
 50
90.0000
  0
INSERT
  8
18
  2
ROUNDV
 10
87.1220
 20
18.6690
 30
0.0000
 41
0.6350
 42
0.6350
 43
1.0000
 50
0.0000
  0
INSERT
  8
18
  2
ROUNDV
 10
84.3280
 20
20.0660
 30
0.0000
 41
0.6350
 42
0.6350
 43
1.0000
 50
0.0000
  0
INSERT
  8
18
  2
ROUNDV
 10
52.5780
 20
26.6700
 30
0.0000
 41
0.6350
 42
0.6350
 43
1.0000
 50
0.0000
  0
INSERT
  8
18
  2
ROUNDV
 10
84.8360
 20
22.3520
 30
0.0000
 41
0.6350
 42
0.6350
 43
1.0000
 50
0.0000
  0
INSERT
  8
18
  2
ROUNDV
 10
9.9060
 20
27.4320
 30
0.0000
 41
0.6350
 42
0.6350
 43
1.0000
 50
0.0000
  0
INSERT
  8
18
  2
ROUNDV
 10
61.7220
 20
29.7180
 30
0.0000
 41
0.6350
 42
0.6350
 43
1.0000
 50
0.0000
  0
INSERT
  8
18
  2
ROUNDV
 10
88.9000
 20
22.3012
 30
0.0000
 41
0.6350
 42
0.6350
 43
1.0000
 50
0.0000
  0
INSERT
  8
18
  2
ROUNDV
 10
6.8580
 20
15.8750
 30
0.0000
 41
0.9144
 42
0.9144
 43
1.0000
 50
0.0000
  0
INSERT
  8
18
  2
ROUNDV
 10
1.7780
 20
13.4620
 30
0.0000
 41
0.9144
 42
0.9144
 43
1.0000
 50
0.0000
  0
INSERT
  8
18
  2
ROUNDV
 10
0.8890
 20
21.8440
 30
0.0000
 41
0.9144
 42
0.9144
 43
1.0000
 50
0.0000
  0
INSERT
  8
18
  2
ROUNDV
 10
6.6040
 20
25.1460
 30
0.0000
 41
0.9144
 42
0.9144
 43
1.0000
 50
0.0000
  0
INSERT
  8
18
  2
ROUNDV
 10
9.1440
 20
22.9108
 30
0.0000
 41
0.9144
 42
0.9144
 43
1.0000
 50
0.0000
  0
INSERT
  8
18
  2
ROUNDV
 10
19.3040
 20
32.2072
 30
0.0000
 41
0.9144
 42
0.9144
 43
1.0000
 50
0.0000
  0
INSERT
  8
18
  2
ROUNDV
 10
13.6398
 20
34.2900
 30
0.0000
 41
0.9144
 42
0.9144
 43
1.0000
 50
0.0000
  0
INSERT
  8
18
  2
ROUNDV
 10
24.2062
 20
25.5270
 30
0.0000
 41
0.9144
 42
0.9144
 43
1.0000
 50
0.0000
  0
INSERT
  8
18
  2
ROUNDV
 10
31.4960
 20
27.8130
 30
0.0000
 41
0.9144
 42
0.9144
 43
1.0000
 50
0.0000
  0
INSERT
  8
18
  2
ROUNDV
 10
83.3120
 20
19.6850
 30
0.0000
 41
0.8128
 42
0.8128
 43
1.0000
 50
0.0000
  0
INSERT
  8
18
  2
ROUNDV
 10
88.9000
 20
19.6850
 30
0.0000
 41
0.6350
 42
0.6350
 43
1.0000
 50
0.0000
  0
INSERT
  8
18
  2
ROUNDV
 10
88.1380
 20
34.6710
 30
0.0000
 41
0.9144
 42
0.9144
 43
1.0000
 50
0.0000
  0
INSERT
  8
18
  2
ROUNDV
 10
89.2810
 20
13.0810
 30
0.0000
 41
0.9144
 42
0.9144
 43
1.0000
 50
0.0000
  0
INSERT
  8
18
  2
ROUNDV
 10
95.1230
 20
9.1440
 30
0.0000
 41
0.9144
 42
0.9144
 43
1.0000
 50
0.0000
  0
INSERT
  8
18
  2
ROUNDV
 10
95.1230
 20
-2.2860
 30
0.0000
 41
0.8128
 42
0.8128
 43
1.0000
 50
0.0000
  0
INSERT
  8
18
  2
ROUNDV
 10
85.6996
 20
-9.2710
 30
0.0000
 41
0.9144
 42
0.9144
 43
1.0000
 50
0.0000
  0
INSERT
  8
18
  2
ROUNDV
 10
16.0020
 20
8.2550
 30
0.0000
 41
0.9144
 42
0.9144
 43
1.0000
 50
0.0000
  0
INSERT
  8
18
  2
ROUNDV
 10
6.9850
 20
3.6830
 30
0.0000
 41
0.9144
 42
0.9144
 43
1.0000
 50
0.0000
  0
INSERT
  8
18
  2
ROUNDV
 10
17.5260
 20
12.0650
 30
0.0000
 41
0.9144
 42
0.9144
 43
1.0000
 50
0.0000
  0
INSERT
  8
18
  2
ROUNDV
 10
18.5420
 20
15.3670
 30
0.0000
 41
0.6350
 42
0.6350
 43
1.0000
 50
0.0000
  0
INSERT
  8
18
  2
ROUNDV
 10
27.5590
 20
12.7000
 30
0.0000
 41
0.9144
 42
0.9144
 43
1.0000
 50
0.0000
  0
INSERT
  8
18
  2
ROUNDV
 10
35.3060
 20
27.8130
 30
0.0000
 41
0.9144
 42
0.9144
 43
1.0000
 50
0.0000
  0
INSERT
  8
18
  2
ROUNDV
 10
56.0070
 20
11.9380
 30
0.0000
 41
0.9144
 42
0.9144
 43
1.0000
 50
0.0000
  0
INSERT
  8
18
  2
ROUNDV
 10
58.0390
 20
16.0020
 30
0.0000
 41
0.9144
 42
0.9144
 43
1.0000
 50
0.0000
  0
INSERT
  8
18
  2
ROUNDV
 10
57.4040
 20
19.3040
 30
0.0000
 41
0.8128
 42
0.8128
 43
1.0000
 50
0.0000
  0
INSERT
  8
18
  2
ROUNDV
 10
67.3100
 20
21.4122
 30
0.0000
 41
0.8128
 42
0.8128
 43
1.0000
 50
0.0000
  0
INSERT
  8
18
  2
ROUNDV
 10
72.2630
 20
26.2890
 30
0.0000
 41
0.8128
 42
0.8128
 43
1.0000
 50
0.0000
  0
INSERT
  8
18
  2
ROUNDV
 10
67.3100
 20
25.9080
 30
0.0000
 41
0.8128
 42
0.8128
 43
1.0000
 50
0.0000
  0
INSERT
  8
18
  2
ROUNDV
 10
67.0560
 20
32.0040
 30
0.0000
 41
0.9144
 42
0.9144
 43
1.0000
 50
0.0000
  0
INSERT
  8
18
  2
ROUNDV
 10
54.4830
 20
28.4480
 30
0.0000
 41
0.8128
 42
0.8128
 43
1.0000
 50
0.0000
  0
INSERT
  8
18
  2
ROUNDV
 10
75.0570
 20
31.8770
 30
0.0000
 41
0.9144
 42
0.9144
 43
1.0000
 50
0.0000
  0
INSERT
  8
18
  2
ROUNDV
 10
78.6130
 20
30.3530
 30
0.0000
 41
0.9144
 42
0.9144
 43
1.0000
 50
0.0000
  0
INSERT
  8
18
  2
ROUNDV
 10
73.4060
 20
33.5280
 30
0.0000
 41
0.9144
 42
0.9144
 43
1.0000
 50
0.0000
  0
INSERT
  8
18
  2
ROUNDV
 10
80.1370
 20
16.6370
 30
0.0000
 41
0.6350
 42
0.6350
 43
1.0000
 50
0.0000
  0
INSERT
  8
18
  2
ROUNDV
 10
76.8350
 20
20.1422
 30
0.0000
 41
0.8128
 42
0.8128
 43
1.0000
 50
0.0000
  0
INSERT
  8
18
  2
ROUNDV
 10
18.6690
 20
12.7000
 30
0.0000
 41
0.9144
 42
0.9144
 43
1.0000
 50
0.0000
  0
INSERT
  8
18
  2
ROUNDV
 10
23.6220
 20
8.8900
 30
0.0000
 41
0.9144
 42
0.9144
 43
1.0000
 50
0.0000
  0
INSERT
  8
18
  2
ROUNDV
 10
24.0030
 20
1.3970
 30
0.0000
 41
0.9144
 42
0.9144
 43
1.0000
 50
0.0000
  0
INSERT
  8
18
  2
ROUNDV
 10
59.9440
 20
23.2410
 30
0.0000
 41
0.8128
 42
0.8128
 43
1.0000
 50
0.0000
  0
INSERT
  8
18
  2
ROUNDV
 10
74.2950
 20
21.1836
 30
0.0000
 41
0.8128
 42
0.8128
 43
1.0000
 50
0.0000
  0
INSERT
  8
18
  2
ROUNDV
 10
85.9790
 20
16.6370
 30
0.0000
 41
0.8128
 42
0.8128
 43
1.0000
 50
0.0000
  0
INSERT
  8
18
  2
ROUNDV
 10
94.5642
 20
32.0040
 30
0.0000
 41
0.9144
 42
0.9144
 43
1.0000
 50
0.0000
  0
INSERT
  8
18
  2
ROUNDV
 10
19.9390
 20
21.9710
 30
0.0000
 41
0.8128
 42
0.8128
 43
1.0000
 50
0.0000
  0
INSERT
  8
18
  2
ROUNDV
 10
83.0580
 20
1.5240
 30
0.0000
 41
0.9144
 42
0.9144
 43
1.0000
 50
0.0000
  0
INSERT
  8
18
  2
ROUNDV
 10
80.6450
 20
4.5720
 30
0.0000
 41
0.9144
 42
0.9144
 43
1.0000
 50
0.0000
  0
INSERT
  8
18
  2
ROUNDV
 10
77.0890
 20
15.3670
 30
0.0000
 41
0.6096
 42
0.6096
 43
1.0000
 50
0.0000
  0
INSERT
  8
18
  2
ROUNDV
 10
15.1130
 20
28.9560
 30
0.0000
 41
0.6350
 42
0.6350
 43
1.0000
 50
0.0000
  0
INSERT
  8
18
  2
ROUNDV
 10
14.3510
 20
28.9560
 30
0.0000
 41
0.6350
 42
0.6350
 43
1.0000
 50
0.0000
  0
INSERT
  8
18
  2
ROUNDV
 10
13.5890
 20
28.9560
 30
0.0000
 41
0.6350
 42
0.6350
 43
1.0000
 50
0.0000
  0
INSERT
  8
18
  2
ROUNDV
 10
13.3350
 20
28.1940
 30
0.0000
 41
0.6350
 42
0.6350
 43
1.0000
 50
0.0000
  0
INSERT
  8
18
  2
ROUNDV
 10
14.0970
 20
28.1940
 30
0.0000
 41
0.6350
 42
0.6350
 43
1.0000
 50
0.0000
  0
INSERT
  8
18
  2
ROUNDV
 10
14.8590
 20
28.1940
 30
0.0000
 41
0.6350
 42
0.6350
 43
1.0000
 50
0.0000
  0
INSERT
  8
18
  2
ROUNDV
 10
15.1130
 20
27.4320
 30
0.0000
 41
0.6350
 42
0.6350
 43
1.0000
 50
0.0000
  0
INSERT
  8
18
  2
ROUNDV
 10
14.3510
 20
27.4320
 30
0.0000
 41
0.6350
 42
0.6350
 43
1.0000
 50
0.0000
  0
INSERT
  8
18
  2
ROUNDV
 10
13.5890
 20
27.4320
 30
0.0000
 41
0.6350
 42
0.6350
 43
1.0000
 50
0.0000
  0
INSERT
  8
18
  2
ROUNDV
 10
13.3350
 20
26.6700
 30
0.0000
 41
0.6350
 42
0.6350
 43
1.0000
 50
0.0000
  0
INSERT
  8
18
  2
ROUNDV
 10
14.0970
 20
26.6700
 30
0.0000
 41
0.6350
 42
0.6350
 43
1.0000
 50
0.0000
  0
INSERT
  8
18
  2
ROUNDV
 10
14.8590
 20
26.6700
 30
0.0000
 41
0.6350
 42
0.6350
 43
1.0000
 50
0.0000
  0
INSERT
  8
18
  2
ROUNDV
 10
75.4380
 20
11.7856
 30
0.0000
 41
0.8128
 42
0.8128
 43
1.0000
 50
0.0000
  0
INSERT
  8
18
  2
ROUNDV
 10
51.7398
 20
14.5796
 30
0.0000
 41
0.9144
 42
0.9144
 43
1.0000
 50
0.0000
  0
INSERT
  8
18
  2
ROUNDV
 10
83.0580
 20
-6.8072
 30
0.0000
 41
0.9144
 42
0.9144
 43
1.0000
 50
0.0000
  0
INSERT
  8
18
  2
ROUNDV
 10
64.3636
 20
15.4178
 30
0.0000
 41
0.8128
 42
0.8128
 43
1.0000
 50
0.0000
  0
INSERT
  8
18
  2
ROUNDV
 10
44.2976
 20
13.6144
 30
0.0000
 41
0.9144
 42
0.9144
 43
1.0000
 50
0.0000
  0
INSERT
  8
18
  2
ROUNDV
 10
33.7820
 20
24.8920
 30
0.0000
 41
0.9144
 42
0.9144
 43
1.0000
 50
0.0000
  0
INSERT
  8
18
  2
ROUNDV
 10
88.9000
 20
20.5740
 30
0.0000
 41
0.6350
 42
0.6350
 43
1.0000
 50
0.0000
  0
INSERT
  8
18
  2
ROUNDV
 10
68.5800
 20
31.2420
 30
0.0000
 41
0.6350
 42
0.6350
 43
1.0000
 50
0.0000
  0
INSERT
  8
18
  2
ROUNDV
 10
53.5940
 20
32.7660
 30
0.0000
 41
0.6350
 42
0.6350
 43
1.0000
 50
0.0000
  0
INSERT
  8
18
  2
ROUNDV
 10
88.1380
 20
16.5100
 30
0.0000
 41
0.9144
 42
0.9144
 43
1.0000
 50
0.0000
  0
INSERT
  8
18
  2
ROUNDV
 10
68.0720
 20
32.7660
 30
0.0000
 41
0.9144
 42
0.9144
 43
1.0000
 50
0.0000
  0
INSERT
  8
18
  2
ROUNDV
 10
48.5140
 20
33.0200
 30
0.0000
 41
0.6350
 42
0.6350
 43
1.0000
 50
0.0000
  0
INSERT
  8
18
  2
ROUNDV
 10
88.1380
 20
13.7160
 30
0.0000
 41
0.6350
 42
0.6350
 43
1.0000
 50
0.0000
  0
INSERT
  8
18
  2
ROUNDV
 10
31.4960
 20
18.2880
 30
0.0000
 41
0.6350
 42
0.6350
 43
1.0000
 50
0.0000
  0
INSERT
  8
18
  2
ROUNDV
 10
27.4320
 20
9.1440
 30
0.0000
 41
0.6350
 42
0.6350
 43
1.0000
 50
0.0000
  0
INSERT
  8
18
  2
ROUNDV
 10
29.2100
 20
18.2880
 30
0.0000
 41
0.6350
 42
0.6350
 43
1.0000
 50
0.0000
  0
INSERT
  8
18
  2
ROUNDV
 10
26.6700
 20
8.6360
 30
0.0000
 41
0.6350
 42
0.6350
 43
1.0000
 50
0.0000
  0
INSERT
  8
18
  2
ROUNDV
 10
78.9432
 20
21.2852
 30
0.0000
 41
0.6096
 42
0.6096
 43
1.0000
 50
0.0000
  0
INSERT
  8
18
  2
ROUNDV
 10
88.6968
 20
-3.9624
 30
0.0000
 41
0.9144
 42
0.9144
 43
1.0000
 50
0.0000
  0
INSERT
  8
18
  2
ROUNDV
 10
47.5488
 20
20.9296
 30
0.0000
 41
0.6350
 42
0.6350
 43
1.0000
 50
0.0000
  0
INSERT
  8
18
  2
ROUNDV
 10
26.4160
 20
15.4940
 30
0.0000
 41
0.6350
 42
0.6350
 43
1.0000
 50
0.0000
  0
INSERT
  8
18
  2
ROUNDV
 10
28.1940
 20
18.0340
 30
0.0000
 41
0.6350
 42
0.6350
 43
1.0000
 50
0.0000
  0
INSERT
  8
18
  2
ROUNDV
 10
82.3468
 20
-8.8900
 30
0.0000
 41
0.9144
 42
0.9144
 43
1.0000
 50
0.0000
  0
INSERT
  8
18
  2
ROUNDV
 10
79.3496
 20
14.0716
 30
0.0000
 41
0.6350
 42
0.6350
 43
1.0000
 50
0.0000
  0
INSERT
  8
18
  2
ROUNDV
 10
11.4300
 20
14.9860
 30
0.0000
 41
0.9144
 42
0.9144
 43
1.0000
 50
0.0000
  0
INSERT
  8
18
  2
ROUNDV
 10
40.3860
 20
18.5420
 30
0.0000
 41
0.9144
 42
0.9144
 43
1.0000
 50
0.0000
  0
INSERT
  8
18
  2
ROUNDV
 10
68.4784
 20
11.6840
 30
0.0000
 41
0.6350
 42
0.6350
 43
1.0000
 50
0.0000
  0
INSERT
  8
18
  2
ROUNDV
 10
75.5396
 20
-8.8900
 30
0.0000
 41
0.9144
 42
0.9144
 43
1.0000
 50
0.0000
  0
INSERT
  8
18
  2
ROUNDV
 10
11.9380
 20
24.8920
 30
0.0000
 41
0.6350
 42
0.6350
 43
1.0000
 50
0.0000
  0
INSERT
  8
18
  2
ROUNDV
 10
76.2000
 20
-5.3340
 30
0.0000
 41
0.6350
 42
0.6350
 43
1.0000
 50
0.0000
  0
INSERT
  8
18
  2
ROUNDV
 10
50.5968
 20
20.1168
 30
0.0000
 41
0.6350
 42
0.6350
 43
1.0000
 50
0.0000
  0
INSERT
  8
18
  2
ROUNDV
 10
67.4624
 20
16.0528
 30
0.0000
 41
0.8128
 42
0.8128
 43
1.0000
 50
0.0000
  0
INSERT
  8
18
  2
ROUNDV
 10
80.9752
 20
14.1224
 30
0.0000
 41
0.6350
 42
0.6350
 43
1.0000
 50
0.0000
  0
INSERT
  8
18
  2
ROUNDV
 10
82.4992
 20
23.3680
 30
0.0000
 41
0.6350
 42
0.6350
 43
1.0000
 50
0.0000
  0
INSERT
  8
18
  2
ROUNDV
 10
60.9600
 20
21.3360
 30
0.0000
 41
0.6350
 42
0.6350
 43
1.0000
 50
0.0000
  0
INSERT
  8
18
  2
ROUNDV
 10
59.4360
 20
21.5900
 30
0.0000
 41
0.6350
 42
0.6350
 43
1.0000
 50
0.0000
  0
INSERT
  8
18
  2
ROUNDV
 10
17.2720
 20
23.3680
 30
0.0000
 41
0.6350
 42
0.6350
 43
1.0000
 50
0.0000
  0
INSERT
  8
18
  2
ROUNDV
 10
88.4428
 20
26.4668
 30
0.0000
 41
0.6350
 42
0.6350
 43
1.0000
 50
0.0000
  0
INSERT
  8
18
  2
ROUNDV
 10
61.9760
 20
28.8036
 30
0.0000
 41
0.6350
 42
0.6350
 43
1.0000
 50
0.0000
  0
INSERT
  8
18
  2
ROUNDV
 10
84.0740
 20
21.8440
 30
0.0000
 41
0.6350
 42
0.6350
 43
1.0000
 50
0.0000
  0
INSERT
  8
18
  2
ROUNDV
 10
75.6920
 20
21.5900
 30
0.0000
 41
0.6350
 42
0.6350
 43
1.0000
 50
0.0000
  0
INSERT
  8
18
  2
ROUNDV
 10
72.4916
 20
17.8308
 30
0.0000
 41
0.6350
 42
0.6350
 43
1.0000
 50
0.0000
  0
INSERT
  8
18
  2
ROUNDV
 10
85.8520
 20
3.0480
 30
0.0000
 41
0.6350
 42
0.6350
 43
1.0000
 50
0.0000
  0
INSERT
  8
18
  2
ROUNDV
 10
70.0532
 20
14.0208
 30
0.0000
 41
0.6350
 42
0.6350
 43
1.0000
 50
0.0000
  0
INSERT
  8
18
  2
ROUNDV
 10
81.8896
 20
7.5184
 30
0.0000
 41
0.6350
 42
0.6350
 43
1.0000
 50
0.0000
  0
INSERT
  8
18
  2
ROUNDV
 10
87.2490
 20
24.8920
 30
0.0000
 41
0.6350
 42
0.6350
 43
1.0000
 50
0.0000
  0
INSERT
  8
18
  2
ROUNDV
 10
71.9836
 20
25.1968
 30
0.0000
 41
0.6350
 42
0.6350
 43
1.0000
 50
0.0000
  0
INSERT
  8
18
  2
ROUNDV
 10
83.8200
 20
27.4320
 30
0.0000
 41
0.6350
 42
0.6350
 43
1.0000
 50
0.0000
  0
INSERT
  8
18
  2
ROUNDV
 10
86.6140
 20
28.1940
 30
0.0000
 41
0.6350
 42
0.6350
 43
1.0000
 50
0.0000
  0
INSERT
  8
18
  2
ROUNDV
 10
45.2120
 20
32.0040
 30
0.0000
 41
0.6350
 42
0.6350
 43
1.0000
 50
0.0000
  0
INSERT
  8
18
  2
ROUNDV
 10
89.1540
 20
16.5100
 30
0.0000
 41
0.6350
 42
0.6350
 43
1.0000
 50
0.0000
  0
INSERT
  8
18
  2
ROUNDV
 10
86.3600
 20
24.8920
 30
0.0000
 41
0.6350
 42
0.6350
 43
1.0000
 50
0.0000
  0
INSERT
  8
18
  2
ROUNDV
 10
81.4832
 20
26.1620
 30
0.0000
 41
0.6350
 42
0.6350
 43
1.0000
 50
0.0000
  0
INSERT
  8
18
  2
ROUNDV
 10
39.3700
 20
20.8280
 30
0.0000
 41
0.6350
 42
0.6350
 43
1.0000
 50
0.0000
  0
INSERT
  8
18
  2
ROUNDV
 10
38.8620
 20
16.0020
 30
0.0000
 41
0.6350
 42
0.6350
 43
1.0000
 50
0.0000
  0
INSERT
  8
18
  2
ROUNDV
 10
87.1220
 20
22.3520
 30
0.0000
 41
0.6350
 42
0.6350
 43
1.0000
 50
0.0000
  0
INSERT
  8
18
  2
ROUNDV
 10
38.3540
 20
21.0820
 30
0.0000
 41
0.6350
 42
0.6350
 43
1.0000
 50
0.0000
  0
INSERT
  8
18
  2
ROUNDV
 10
37.8460
 20
16.7640
 30
0.0000
 41
0.6350
 42
0.6350
 43
1.0000
 50
0.0000
  0
INSERT
  8
18
  2
ROUNDV
 10
86.8680
 20
4.9530
 30
0.0000
 41
0.9144
 42
0.9144
 43
1.0000
 50
0.0000
  0
INSERT
  8
18
  2
ROUNDV
 10
59.0804
 20
24.1808
 30
0.0000
 41
0.8128
 42
0.8128
 43
1.0000
 50
0.0000
  0
INSERT
  8
18
  2
ROUNDV
 10
88.9000
 20
21.4376
 30
0.0000
 41
0.6350
 42
0.6350
 43
1.0000
 50
0.0000
  0
INSERT
  8
18
  2
ROUNDV
 10
53.8480
 20
26.6700
 30
0.0000
 41
0.6350
 42
0.6350
 43
1.0000
 50
0.0000
  0
INSERT
  8
18
  2
ROUNDV
 10
86.0806
 20
22.3774
 30
0.0000
 41
0.6096
 42
0.6096
 43
1.0000
 50
0.0000
  0
INSERT
  8
18
  2
ROUNDV
 10
49.5046
 20
12.9540
 30
0.0000
 41
0.8128
 42
0.8128
 43
1.0000
 50
0.0000
  0
INSERT
  8
18
  2
ROUNDV
 10
78.6384
 20
8.7376
 30
0.0000
 41
0.6350
 42
0.6350
 43
1.0000
 50
0.0000
  0
INSERT
  8
18
  2
ROUNDV
 10
82.8040
 20
27.4320
 30
0.0000
 41
0.6350
 42
0.6350
 43
1.0000
 50
0.0000
  0
INSERT
  8
18
  2
ROUNDV
 10
87.8840
 20
28.1940
 30
0.0000
 41
0.6350
 42
0.6350
 43
1.0000
 50
0.0000
  0
INSERT
  8
18
  2
ROUNDV
 10
4.4450
 20
7.5438
 30
0.0000
 41
1.6764
 42
1.6764
 43
1.0000
 50
0.0000
  0
INSERT
  8
18
  2
ROUNDV
 10
6.4770
 20
31.4960
 30
0.0000
 41
0.9144
 42
0.9144
 43
1.0000
 50
0.0000
  0
INSERT
  8
18
  2
ROUNDV
 10
81.5340
 20
30.0990
 30
0.0000
 41
0.9144
 42
0.9144
 43
1.0000
 50
0.0000
  0
INSERT
  8
18
  2
ROUNDV
 10
55.9816
 20
14.6812
 30
0.0000
 41
0.9144
 42
0.9144
 43
1.0000
 50
0.0000
  0
INSERT
  8
18
  2
ROUNDV
 10
52.0700
 20
12.0650
 30
0.0000
 41
0.9144
 42
0.9144
 43
1.0000
 50
0.0000
  0
INSERT
  8
18
  2
ROUNDV
 10
47.7520
 20
13.6144
 30
0.0000
 41
0.9144
 42
0.9144
 43
1.0000
 50
0.0000
  0
INSERT
  8
18
  2
ROUNDV
 10
83.1342
 20
17.9070
 30
0.0000
 41
0.8128
 42
0.8128
 43
1.0000
 50
0.0000
  0
INSERT
  8
18
  2
ROUNDV
 10
63.3730
 20
24.5110
 30
0.0000
 41
0.8128
 42
0.8128
 43
1.0000
 50
0.0000
  0
INSERT
  8
18
  2
ROUNDV
 10
70.2310
 20
21.9710
 30
0.0000
 41
0.8128
 42
0.8128
 43
1.0000
 50
0.0000
  0
INSERT
  8
18
  2
ROUNDV
 10
89.9160
 20
-2.7940
 30
0.0000
 41
0.9144
 42
0.9144
 43
1.0000
 50
0.0000
  0
INSERT
  8
18
  2
ROUNDV
 10
95.2500
 20
11.1760
 30
0.0000
 41
0.9144
 42
0.9144
 43
1.0000
 50
0.0000
  0
INSERT
  8
18
  2
ROUNDV
 10
91.6940
 20
14.9860
 30
0.0000
 41
0.9144
 42
0.9144
 43
1.0000
 50
0.0000
  0
INSERT
  8
18
  2
ROUNDV
 10
76.2000
 20
7.8740
 30
0.0000
 41
0.9144
 42
0.9144
 43
1.0000
 50
0.0000
  0
INSERT
  8
18
  2
ROUNDV
 10
78.2320
 20
14.2240
 30
0.0000
 41
0.8128
 42
0.8128
 43
1.0000
 50
0.0000
  0
INSERT
  8
18
  2
ROUNDV
 10
79.9084
 20
20.7772
 30
0.0000
 41
0.8128
 42
0.8128
 43
1.0000
 50
0.0000
  0
INSERT
  8
18
  2
ROUNDV
 10
76.9620
 20
26.4160
 30
0.0000
 41
0.8128
 42
0.8128
 43
1.0000
 50
0.0000
  0
INSERT
  8
18
  2
ROUNDV
 10
82.8040
 20
39.1160
 30
0.0000
 41
0.8128
 42
0.8128
 43
1.0000
 50
0.0000
  0
INSERT
  8
18
  2
ROUNDV
 10
86.3600
 20
39.1160
 30
0.0000
 41
0.8128
 42
0.8128
 43
1.0000
 50
0.0000
  0
INSERT
  8
18
  2
ROUNDV
 10
70.6120
 20
32.2580
 30
0.0000
 41
0.9144
 42
0.9144
 43
1.0000
 50
0.0000
  0
INSERT
  8
18
  2
ROUNDV
 10
58.4200
 20
29.9720
 30
0.0000
 41
0.9144
 42
0.9144
 43
1.0000
 50
0.0000
  0
INSERT
  8
18
  2
ROUNDV
 10
56.3880
 20
30.2260
 30
0.0000
 41
0.9144
 42
0.9144
 43
1.0000
 50
0.0000
  0
INSERT
  8
18
  2
ROUNDV
 10
1.0160
 20
18.0340
 30
0.0000
 41
0.9144
 42
0.9144
 43
1.0000
 50
0.0000
  0
INSERT
  8
18
  2
ROUNDV
 10
17.2720
 20
20.0660
 30
0.0000
 41
0.9144
 42
0.9144
 43
1.0000
 50
0.0000
  0
INSERT
  8
18
  2
ROUNDV
 10
27.6860
 20
14.9860
 30
0.0000
 41
0.9144
 42
0.9144
 43
1.0000
 50
0.0000
  0
INSERT
  8
18
  2
ROUNDV
 10
23.6220
 20
14.9860
 30
0.0000
 41
0.9144
 42
0.9144
 43
1.0000
 50
0.0000
  0
INSERT
  8
18
  2
ROUNDV
 10
21.8440
 20
15.2400
 30
0.0000
 41
0.9144
 42
0.9144
 43
1.0000
 50
0.0000
  0
INSERT
  8
18
  2
ROUNDV
 10
84.8360
 20
21.0820
 30
0.0000
 41
0.8128
 42
0.8128
 43
1.0000
 50
0.0000
  0
INSERT
  8
18
  2
ROUNDV
 10
71.7296
 20
10.7696
 30
0.0000
 41
0.9144
 42
0.9144
 43
1.0000
 50
0.0000
  0
INSERT
  8
18
  2
ROUNDV
 10
44.2976
 20
17.6784
 30
0.0000
 41
0.9144
 42
0.9144
 43
1.0000
 50
0.0000
  0
INSERT
  8
18
  2
ROUNDV
 10
81.7880
 20
-4.5720
 30
0.0000
 41
0.8128
 42
0.8128
 43
1.0000
 50
0.0000
  0
INSERT
  8
18
  2
ROUNDV
 10
56.5404
 20
17.3736
 30
0.0000
 41
0.8128
 42
0.8128
 43
1.0000
 50
0.0000
  0
INSERT
  8
18
  2
ROUNDV
 10
87.6300
 20
17.5260
 30
0.0000
 41
0.6350
 42
0.6350
 43
1.0000
 50
0.0000
  0
LINE
  8
19
 10
21.2725
 20
6.0579
 30
0.0000
 11
23.1521
 21
6.0579
 31
0.0000
  0
LINE
  8
19
 10
13.1127
 20
10.5093
 30
0.0000
 11
13.1009
 21
11.3229
 31
0.0000
  0
LINE
  8
19
 10
15.4940
 20
10.2870
 30
0.0000
 11
16.8910
 21
11.0490
 31
0.0000
  0
LINE
  8
19
 10
11.4300
 20
8.8900
 30
0.0000
 11
13.2080
 21
9.8860
 31
0.0000
  0
INSERT
  8
18
  2
ROUNDV
 10
21.5900
 20
8.3820
 30
0.0000
 41
0.9144
 42
0.9144
 43
1.0000
 50
0.0000
  0
INSERT
  8
18
  2
ROUNDV
 10
33.2740
 20
18.2880
 30
0.0000
 41
0.9144
 42
0.9144
 43
1.0000
 50
0.0000
  0
INSERT
  8
18
  2
ROUNDV
 10
34.5440
 20
20.8280
 30
0.0000
 41
0.9144
 42
0.9144
 43
1.0000
 50
0.0000
  0
INSERT
  8
18
  2
ROUNDV
 10
23.1140
 20
22.6060
 30
0.0000
 41
0.9144
 42
0.9144
 43
1.0000
 50
0.0000
  0
INSERT
  8
18
  2
ROUNDV
 10
38.1000
 20
25.9080
 30
0.0000
 41
0.9144
 42
0.9144
 43
1.0000
 50
0.0000
  0
INSERT
  8
18
  2
ROUNDV
 10
26.4668
 20
38.8620
 30
0.0000
 41
0.8128
 42
0.8128
 43
1.0000
 50
0.0000
  0
INSERT
  8
18
  2
ROUNDV
 10
27.3304
 20
38.8620
 30
0.0000
 41
0.8128
 42
0.8128
 43
1.0000
 50
0.0000
  0
INSERT
  8
18
  2
ROUNDV
 10
28.1940
 20
38.8620
 30
0.0000
 41
0.8128
 42
0.8128
 43
1.0000
 50
0.0000
  0
INSERT
  8
18
  2
ROUNDV
 10
29.0576
 20
38.8620
 30
0.0000
 41
0.8128
 42
0.8128
 43
1.0000
 50
0.0000
  0
INSERT
  8
18
  2
ROUNDV
 10
29.9212
 20
38.8620
 30
0.0000
 41
0.8128
 42
0.8128
 43
1.0000
 50
0.0000
  0
INSERT
  8
18
  2
ROUNDV
 10
31.4960
 20
38.3032
 30
0.0000
 41
0.8128
 42
0.8128
 43
1.0000
 50
0.0000
  0
INSERT
  8
18
  2
ROUNDV
 10
30.7848
 20
38.8112
 30
0.0000
 41
0.8128
 42
0.8128
 43
1.0000
 50
0.0000
  0
INSERT
  8
18
  2
ROUNDV
 10
31.5976
 20
37.3888
 30
0.0000
 41
0.8128
 42
0.8128
 43
1.0000
 50
0.0000
  0
INSERT
  8
18
  2
ROUNDV
 10
31.8516
 20
36.4236
 30
0.0000
 41
0.8128
 42
0.8128
 43
1.0000
 50
0.0000
  0
INSERT
  8
18
  2
ROUNDV
 10
31.8008
 20
35.6108
 30
0.0000
 41
0.8128
 42
0.8128
 43
1.0000
 50
0.0000
  0
INSERT
  8
18
  2
ROUNDV
 10
31.7500
 20
34.7472
 30
0.0000
 41
0.8128
 42
0.8128
 43
1.0000
 50
0.0000
  0
INSERT
  8
18
  2
ROUNDV
 10
31.6992
 20
33.8836
 30
0.0000
 41
0.8128
 42
0.8128
 43
1.0000
 50
0.0000
  0
INSERT
  8
18
  2
ROUNDV
 10
31.1912
 20
33.1724
 30
0.0000
 41
0.8128
 42
0.8128
 43
1.0000
 50
0.0000
  0
INSERT
  8
18
  2
ROUNDV
 10
30.3276
 20
32.8676
 30
0.0000
 41
0.8128
 42
0.8128
 43
1.0000
 50
0.0000
  0
INSERT
  8
18
  2
ROUNDV
 10
30.9880
 20
32.4104
 30
0.0000
 41
0.8128
 42
0.8128
 43
1.0000
 50
0.0000
  0
INSERT
  8
18
  2
ROUNDV
 10
31.9532
 20
32.7660
 30
0.0000
 41
0.8128
 42
0.8128
 43
1.0000
 50
0.0000
  0
INSERT
  8
18
  2
ROUNDV
 10
32.4612
 20
33.5280
 30
0.0000
 41
0.8128
 42
0.8128
 43
1.0000
 50
0.0000
  0
INSERT
  8
18
  2
ROUNDV
 10
32.5120
 20
34.4424
 30
0.0000
 41
0.8128
 42
0.8128
 43
1.0000
 50
0.0000
  0
INSERT
  8
18
  2
ROUNDV
 10
32.6136
 20
35.3060
 30
0.0000
 41
0.8128
 42
0.8128
 43
1.0000
 50
0.0000
  0
INSERT
  8
18
  2
ROUNDV
 10
32.4104
 20
37.1348
 30
0.0000
 41
0.8128
 42
0.8128
 43
1.0000
 50
0.0000
  0
INSERT
  8
18
  2
ROUNDV
 10
31.6484
 20
39.2176
 30
0.0000
 41
0.8128
 42
0.8128
 43
1.0000
 50
0.0000
  0
INSERT
  8
18
  2
ROUNDV
 10
30.4292
 20
39.5732
 30
0.0000
 41
0.8128
 42
0.8128
 43
1.0000
 50
0.0000
  0
INSERT
  8
18
  2
ROUNDV
 10
29.4640
 20
39.6748
 30
0.0000
 41
0.8128
 42
0.8128
 43
1.0000
 50
0.0000
  0
INSERT
  8
18
  2
ROUNDV
 10
28.4480
 20
39.7256
 30
0.0000
 41
0.8128
 42
0.8128
 43
1.0000
 50
0.0000
  0
INSERT
  8
18
  2
ROUNDV
 10
27.5336
 20
39.7256
 30
0.0000
 41
0.8128
 42
0.8128
 43
1.0000
 50
0.0000
  0
INSERT
  8
18
  2
ROUNDV
 10
26.6192
 20
39.7256
 30
0.0000
 41
0.8128
 42
0.8128
 43
1.0000
 50
0.0000
  0
INSERT
  8
18
  2
ROUNDV
 10
26.1112
 20
37.9476
 30
0.0000
 41
0.8128
 42
0.8128
 43
1.0000
 50
0.0000
  0
INSERT
  8
18
  2
ROUNDV
 10
26.0604
 20
37.1348
 30
0.0000
 41
0.8128
 42
0.8128
 43
1.0000
 50
0.0000
  0
INSERT
  8
18
  2
ROUNDV
 10
26.0096
 20
36.3220
 30
0.0000
 41
0.8128
 42
0.8128
 43
1.0000
 50
0.0000
  0
INSERT
  8
18
  2
ROUNDV
 10
25.9588
 20
35.4584
 30
0.0000
 41
0.8128
 42
0.8128
 43
1.0000
 50
0.0000
  0
INSERT
  8
18
  2
ROUNDV
 10
25.9080
 20
34.6456
 30
0.0000
 41
0.8128
 42
0.8128
 43
1.0000
 50
0.0000
  0
INSERT
  8
18
  2
ROUNDV
 10
27.9400
 20
32.6644
 30
0.0000
 41
0.8128
 42
0.8128
 43
1.0000
 50
0.0000
  0
INSERT
  8
18
  2
ROUNDV
 10
28.7528
 20
32.6644
 30
0.0000
 41
0.8128
 42
0.8128
 43
1.0000
 50
0.0000
  0
INSERT
  8
18
  2
ROUNDV
 10
29.5656
 20
32.6644
 30
0.0000
 41
0.8128
 42
0.8128
 43
1.0000
 50
0.0000
  0
INSERT
  8
18
  2
ROUNDV
 10
32.6644
 20
36.2712
 30
0.0000
 41
0.8128
 42
0.8128
 43
1.0000
 50
0.0000
  0
INSERT
  8
18
  2
ROUNDV
 10
25.3492
 20
37.6428
 30
0.0000
 41
0.8128
 42
0.8128
 43
1.0000
 50
0.0000
  0
INSERT
  8
18
  2
ROUNDV
 10
25.2984
 20
36.7792
 30
0.0000
 41
0.8128
 42
0.8128
 43
1.0000
 50
0.0000
  0
INSERT
  8
18
  2
ROUNDV
 10
25.2476
 20
35.9664
 30
0.0000
 41
0.8128
 42
0.8128
 43
1.0000
 50
0.0000
  0
INSERT
  8
18
  2
ROUNDV
 10
25.2476
 20
35.2044
 30
0.0000
 41
0.8128
 42
0.8128
 43
1.0000
 50
0.0000
  0
INSERT
  8
18
  2
ROUNDV
 10
25.4508
 20
38.7604
 30
0.0000
 41
0.8128
 42
0.8128
 43
1.0000
 50
0.0000
  0
INSERT
  8
18
  2
ROUNDV
 10
25.7048
 20
39.6240
 30
0.0000
 41
0.8128
 42
0.8128
 43
1.0000
 50
0.0000
  0
INSERT
  8
18
  2
ROUNDV
 10
12.4460
 20
40.5384
 30
0.0000
 41
0.8128
 42
0.8128
 43
1.0000
 50
0.0000
  0
INSERT
  8
18
  2
ROUNDV
 10
13.3096
 20
40.5384
 30
0.0000
 41
0.8128
 42
0.8128
 43
1.0000
 50
0.0000
  0
INSERT
  8
18
  2
ROUNDV
 10
9.6012
 20
37.6936
 30
0.0000
 41
0.8128
 42
0.8128
 43
1.0000
 50
0.0000
  0
INSERT
  8
18
  2
ROUNDV
 10
9.6012
 20
36.7284
 30
0.0000
 41
0.8128
 42
0.8128
 43
1.0000
 50
0.0000
  0
INSERT
  8
18
  2
ROUNDV
 10
9.5504
 20
35.6616
 30
0.0000
 41
0.8128
 42
0.8128
 43
1.0000
 50
0.0000
  0
INSERT
  8
18
  2
ROUNDV
 10
10.5156
 20
35.5600
 30
0.0000
 41
0.8128
 42
0.8128
 43
1.0000
 50
0.0000
  0
INSERT
  8
18
  2
ROUNDV
 10
10.3124
 20
38.5064
 30
0.0000
 41
0.8128
 42
0.8128
 43
1.0000
 50
0.0000
  0
INSERT
  8
18
  2
ROUNDV
 10
11.1760
 20
39.4208
 30
0.0000
 41
0.8128
 42
0.8128
 43
1.0000
 50
0.0000
  0
INSERT
  8
18
  2
ROUNDV
 10
14.6304
 20
40.5892
 30
0.0000
 41
0.8128
 42
0.8128
 43
1.0000
 50
0.0000
  0
INSERT
  8
18
  2
ROUNDV
 10
15.7988
 20
40.6400
 30
0.0000
 41
0.8128
 42
0.8128
 43
1.0000
 50
0.0000
  0
INSERT
  8
18
  2
ROUNDV
 10
17.0688
 20
40.6908
 30
0.0000
 41
0.8128
 42
0.8128
 43
1.0000
 50
0.0000
  0
INSERT
  8
18
  2
ROUNDV
 10
20.8280
 20
40.5892
 30
0.0000
 41
0.8128
 42
0.8128
 43
1.0000
 50
0.0000
  0
INSERT
  8
18
  2
ROUNDV
 10
21.6408
 20
40.6400
 30
0.0000
 41
0.8128
 42
0.8128
 43
1.0000
 50
0.0000
  0
INSERT
  8
18
  2
ROUNDV
 10
22.6060
 20
40.6908
 30
0.0000
 41
0.8128
 42
0.8128
 43
1.0000
 50
0.0000
  0
INSERT
  8
18
  2
ROUNDV
 10
23.5712
 20
40.6908
 30
0.0000
 41
0.8128
 42
0.8128
 43
1.0000
 50
0.0000
  0
INSERT
  8
18
  2
ROUNDV
 10
11.6332
 20
36.0680
 30
0.0000
 41
0.8128
 42
0.8128
 43
1.0000
 50
0.0000
  0
INSERT
  8
18
  2
ROUNDV
 10
12.4460
 20
36.6776
 30
0.0000
 41
0.8128
 42
0.8128
 43
1.0000
 50
0.0000
  0
INSERT
  8
18
  2
ROUNDV
 10
11.7856
 20
39.9796
 30
0.0000
 41
0.8128
 42
0.8128
 43
1.0000
 50
0.0000
  0
INSERT
  8
18
  2
ROUNDV
 10
24.4856
 20
40.6908
 30
0.0000
 41
0.8128
 42
0.8128
 43
1.0000
 50
0.0000
  0
INSERT
  8
18
  2
ROUNDV
 10
25.0952
 20
40.1828
 30
0.0000
 41
0.8128
 42
0.8128
 43
1.0000
 50
0.0000
  0
INSERT
  8
18
  2
ROUNDV
 10
26.0604
 20
40.6400
 30
0.0000
 41
0.8128
 42
0.8128
 43
1.0000
 50
0.0000
  0
INSERT
  8
18
  2
ROUNDV
 10
27.4320
 20
40.7416
 30
0.0000
 41
0.8128
 42
0.8128
 43
1.0000
 50
0.0000
  0
INSERT
  8
18
  2
ROUNDV
 10
28.9052
 20
40.7416
 30
0.0000
 41
0.8128
 42
0.8128
 43
1.0000
 50
0.0000
  0
INSERT
  8
18
  2
ROUNDV
 10
30.3784
 20
40.5892
 30
0.0000
 41
0.8128
 42
0.8128
 43
1.0000
 50
0.0000
  0
INSERT
  8
18
  2
ROUNDV
 10
32.5120
 20
38.2016
 30
0.0000
 41
0.8128
 42
0.8128
 43
1.0000
 50
0.0000
  0
INSERT
  8
18
  2
ROUNDV
 10
24.7396
 20
39.3700
 30
0.0000
 41
0.8128
 42
0.8128
 43
1.0000
 50
0.0000
  0
INSERT
  8
18
  2
ROUNDV
 10
24.6888
 20
38.3540
 30
0.0000
 41
0.8128
 42
0.8128
 43
1.0000
 50
0.0000
  0
INSERT
  8
18
  2
ROUNDV
 10
13.2080
 20
13.7160
 30
0.0000
 41
0.9144
 42
0.9144
 43
1.0000
 50
0.0000
  0
ENDSEC
  0
EOF
