G75*
G70*
%OFA0B0*%
%FSLAX24Y24*%
%IPPOS*%
%LPD*%
%AMOC8*
5,1,8,0,0,1.08239X$1,22.5*
%
%ADD10C,0.0000*%
%ADD11C,0.0600*%
%ADD12C,0.1300*%
%ADD13C,0.1266*%
%ADD14C,0.0443*%
%ADD15C,0.0480*%
%ADD16C,0.0160*%
%ADD17C,0.0240*%
%ADD18C,0.0200*%
%ADD19C,0.0525*%
%ADD20C,0.0591*%
%ADD21C,0.0354*%
D10*
X000180Y005173D02*
X011735Y005173D01*
X011735Y009110D01*
X029633Y009110D01*
X029633Y000843D01*
X037975Y000843D01*
X037975Y018559D01*
X034827Y021708D01*
X003329Y021708D01*
X000180Y018559D01*
X000180Y005173D01*
X000783Y006386D02*
X000785Y006435D01*
X000791Y006484D01*
X000801Y006532D01*
X000814Y006579D01*
X000832Y006625D01*
X000853Y006669D01*
X000877Y006712D01*
X000905Y006752D01*
X000936Y006791D01*
X000970Y006826D01*
X001007Y006859D01*
X001046Y006888D01*
X001088Y006914D01*
X001131Y006937D01*
X001177Y006956D01*
X001223Y006972D01*
X001271Y006984D01*
X001319Y006992D01*
X001368Y006996D01*
X001418Y006996D01*
X001467Y006992D01*
X001515Y006984D01*
X001563Y006972D01*
X001609Y006956D01*
X001655Y006937D01*
X001698Y006914D01*
X001740Y006888D01*
X001779Y006859D01*
X001816Y006826D01*
X001850Y006791D01*
X001881Y006752D01*
X001909Y006712D01*
X001933Y006669D01*
X001954Y006625D01*
X001972Y006579D01*
X001985Y006532D01*
X001995Y006484D01*
X002001Y006435D01*
X002003Y006386D01*
X002001Y006337D01*
X001995Y006288D01*
X001985Y006240D01*
X001972Y006193D01*
X001954Y006147D01*
X001933Y006103D01*
X001909Y006060D01*
X001881Y006020D01*
X001850Y005981D01*
X001816Y005946D01*
X001779Y005913D01*
X001740Y005884D01*
X001698Y005858D01*
X001655Y005835D01*
X001609Y005816D01*
X001563Y005800D01*
X001515Y005788D01*
X001467Y005780D01*
X001418Y005776D01*
X001368Y005776D01*
X001319Y005780D01*
X001271Y005788D01*
X001223Y005800D01*
X001177Y005816D01*
X001131Y005835D01*
X001088Y005858D01*
X001046Y005884D01*
X001007Y005913D01*
X000970Y005946D01*
X000936Y005981D01*
X000905Y006020D01*
X000877Y006060D01*
X000853Y006103D01*
X000832Y006147D01*
X000814Y006193D01*
X000801Y006240D01*
X000791Y006288D01*
X000785Y006337D01*
X000783Y006386D01*
X001570Y018591D02*
X001572Y018640D01*
X001578Y018689D01*
X001588Y018737D01*
X001601Y018784D01*
X001619Y018830D01*
X001640Y018874D01*
X001664Y018917D01*
X001692Y018957D01*
X001723Y018996D01*
X001757Y019031D01*
X001794Y019064D01*
X001833Y019093D01*
X001875Y019119D01*
X001918Y019142D01*
X001964Y019161D01*
X002010Y019177D01*
X002058Y019189D01*
X002106Y019197D01*
X002155Y019201D01*
X002205Y019201D01*
X002254Y019197D01*
X002302Y019189D01*
X002350Y019177D01*
X002396Y019161D01*
X002442Y019142D01*
X002485Y019119D01*
X002527Y019093D01*
X002566Y019064D01*
X002603Y019031D01*
X002637Y018996D01*
X002668Y018957D01*
X002696Y018917D01*
X002720Y018874D01*
X002741Y018830D01*
X002759Y018784D01*
X002772Y018737D01*
X002782Y018689D01*
X002788Y018640D01*
X002790Y018591D01*
X002788Y018542D01*
X002782Y018493D01*
X002772Y018445D01*
X002759Y018398D01*
X002741Y018352D01*
X002720Y018308D01*
X002696Y018265D01*
X002668Y018225D01*
X002637Y018186D01*
X002603Y018151D01*
X002566Y018118D01*
X002527Y018089D01*
X002485Y018063D01*
X002442Y018040D01*
X002396Y018021D01*
X002350Y018005D01*
X002302Y017993D01*
X002254Y017985D01*
X002205Y017981D01*
X002155Y017981D01*
X002106Y017985D01*
X002058Y017993D01*
X002010Y018005D01*
X001964Y018021D01*
X001918Y018040D01*
X001875Y018063D01*
X001833Y018089D01*
X001794Y018118D01*
X001757Y018151D01*
X001723Y018186D01*
X001692Y018225D01*
X001664Y018265D01*
X001640Y018308D01*
X001619Y018352D01*
X001601Y018398D01*
X001588Y018445D01*
X001578Y018493D01*
X001572Y018542D01*
X001570Y018591D01*
X035428Y018591D02*
X035430Y018640D01*
X035436Y018689D01*
X035446Y018737D01*
X035459Y018784D01*
X035477Y018830D01*
X035498Y018874D01*
X035522Y018917D01*
X035550Y018957D01*
X035581Y018996D01*
X035615Y019031D01*
X035652Y019064D01*
X035691Y019093D01*
X035733Y019119D01*
X035776Y019142D01*
X035822Y019161D01*
X035868Y019177D01*
X035916Y019189D01*
X035964Y019197D01*
X036013Y019201D01*
X036063Y019201D01*
X036112Y019197D01*
X036160Y019189D01*
X036208Y019177D01*
X036254Y019161D01*
X036300Y019142D01*
X036343Y019119D01*
X036385Y019093D01*
X036424Y019064D01*
X036461Y019031D01*
X036495Y018996D01*
X036526Y018957D01*
X036554Y018917D01*
X036578Y018874D01*
X036599Y018830D01*
X036617Y018784D01*
X036630Y018737D01*
X036640Y018689D01*
X036646Y018640D01*
X036648Y018591D01*
X036646Y018542D01*
X036640Y018493D01*
X036630Y018445D01*
X036617Y018398D01*
X036599Y018352D01*
X036578Y018308D01*
X036554Y018265D01*
X036526Y018225D01*
X036495Y018186D01*
X036461Y018151D01*
X036424Y018118D01*
X036385Y018089D01*
X036343Y018063D01*
X036300Y018040D01*
X036254Y018021D01*
X036208Y018005D01*
X036160Y017993D01*
X036112Y017985D01*
X036063Y017981D01*
X036013Y017981D01*
X035964Y017985D01*
X035916Y017993D01*
X035868Y018005D01*
X035822Y018021D01*
X035776Y018040D01*
X035733Y018063D01*
X035691Y018089D01*
X035652Y018118D01*
X035615Y018151D01*
X035581Y018186D01*
X035550Y018225D01*
X035522Y018265D01*
X035498Y018308D01*
X035477Y018352D01*
X035459Y018398D01*
X035446Y018445D01*
X035436Y018493D01*
X035430Y018542D01*
X035428Y018591D01*
X036216Y002055D02*
X036218Y002104D01*
X036224Y002153D01*
X036234Y002201D01*
X036247Y002248D01*
X036265Y002294D01*
X036286Y002338D01*
X036310Y002381D01*
X036338Y002421D01*
X036369Y002460D01*
X036403Y002495D01*
X036440Y002528D01*
X036479Y002557D01*
X036521Y002583D01*
X036564Y002606D01*
X036610Y002625D01*
X036656Y002641D01*
X036704Y002653D01*
X036752Y002661D01*
X036801Y002665D01*
X036851Y002665D01*
X036900Y002661D01*
X036948Y002653D01*
X036996Y002641D01*
X037042Y002625D01*
X037088Y002606D01*
X037131Y002583D01*
X037173Y002557D01*
X037212Y002528D01*
X037249Y002495D01*
X037283Y002460D01*
X037314Y002421D01*
X037342Y002381D01*
X037366Y002338D01*
X037387Y002294D01*
X037405Y002248D01*
X037418Y002201D01*
X037428Y002153D01*
X037434Y002104D01*
X037436Y002055D01*
X037434Y002006D01*
X037428Y001957D01*
X037418Y001909D01*
X037405Y001862D01*
X037387Y001816D01*
X037366Y001772D01*
X037342Y001729D01*
X037314Y001689D01*
X037283Y001650D01*
X037249Y001615D01*
X037212Y001582D01*
X037173Y001553D01*
X037131Y001527D01*
X037088Y001504D01*
X037042Y001485D01*
X036996Y001469D01*
X036948Y001457D01*
X036900Y001449D01*
X036851Y001445D01*
X036801Y001445D01*
X036752Y001449D01*
X036704Y001457D01*
X036656Y001469D01*
X036610Y001485D01*
X036564Y001504D01*
X036521Y001527D01*
X036479Y001553D01*
X036440Y001582D01*
X036403Y001615D01*
X036369Y001650D01*
X036338Y001689D01*
X036310Y001729D01*
X036286Y001772D01*
X036265Y001816D01*
X036247Y001862D01*
X036234Y001909D01*
X036224Y001957D01*
X036218Y002006D01*
X036216Y002055D01*
D11*
X030480Y003723D03*
X030480Y004823D03*
X031088Y005874D03*
X031088Y006874D03*
X031088Y007874D03*
X036788Y007874D03*
X036788Y005874D03*
X037280Y011373D03*
X037280Y012373D03*
X037280Y013373D03*
X037280Y014373D03*
X037280Y015373D03*
X037280Y016373D03*
X029380Y019573D03*
X028380Y019573D03*
X027380Y019573D03*
X027380Y020573D03*
X028380Y020573D03*
X029380Y020573D03*
X021783Y019796D03*
X020783Y019796D03*
X019783Y019796D03*
X018783Y019796D03*
X017783Y019796D03*
X016783Y019796D03*
X015783Y019796D03*
X011230Y007973D03*
X008240Y006008D03*
X007140Y006008D03*
X004995Y005993D03*
X003895Y005993D03*
D12*
X034038Y004274D03*
X034038Y009474D03*
D13*
X023374Y010206D03*
X014240Y010206D03*
X014240Y019536D03*
X023374Y019536D03*
D14*
X025430Y016523D03*
X026480Y016523D03*
X024630Y011773D03*
X019800Y010863D03*
X012680Y011173D03*
X012680Y010323D03*
X006230Y010773D03*
X006280Y009223D03*
X009220Y006338D03*
X009030Y005623D03*
X007720Y020973D03*
X037280Y010373D03*
X037380Y006873D03*
D15*
X026600Y010173D03*
X025600Y010173D03*
X017040Y010173D03*
X016040Y010173D03*
X024645Y019603D03*
X025645Y019603D03*
D16*
X026053Y019438D02*
X026895Y019438D01*
X026880Y019474D02*
X026956Y019290D01*
X027097Y019150D01*
X027281Y019073D01*
X027479Y019073D01*
X027663Y019150D01*
X027804Y019290D01*
X027880Y019474D01*
X027880Y019673D01*
X027804Y019857D01*
X027663Y019997D01*
X027479Y020073D01*
X027281Y020073D01*
X027097Y019997D01*
X026956Y019857D01*
X026880Y019673D01*
X026880Y019474D01*
X026880Y019597D02*
X026085Y019597D01*
X026085Y019516D02*
X026018Y019354D01*
X025894Y019230D01*
X025733Y019163D01*
X025557Y019163D01*
X025396Y019230D01*
X025272Y019354D01*
X025205Y019516D01*
X025205Y019691D01*
X025272Y019853D01*
X025396Y019976D01*
X025557Y020043D01*
X025733Y020043D01*
X025894Y019976D01*
X026018Y019853D01*
X026085Y019691D01*
X026085Y019516D01*
X026058Y019755D02*
X026914Y019755D01*
X027013Y019914D02*
X025957Y019914D01*
X025333Y019914D02*
X024957Y019914D01*
X025018Y019853D02*
X024894Y019976D01*
X024733Y020043D01*
X024557Y020043D01*
X024396Y019976D01*
X024272Y019853D01*
X024207Y019695D01*
X024207Y019702D01*
X024080Y020008D01*
X023846Y020243D01*
X023539Y020370D01*
X023208Y020370D01*
X022902Y020243D01*
X022667Y020008D01*
X022541Y019702D01*
X022541Y019371D01*
X022667Y019065D01*
X022902Y018830D01*
X023208Y018703D01*
X023539Y018703D01*
X023846Y018830D01*
X024080Y019065D01*
X024207Y019371D01*
X024207Y019512D01*
X024272Y019354D01*
X024396Y019230D01*
X024557Y019163D01*
X024733Y019163D01*
X024894Y019230D01*
X025018Y019354D01*
X025085Y019516D01*
X025085Y019691D01*
X025018Y019853D01*
X025058Y019755D02*
X025232Y019755D01*
X025205Y019597D02*
X025085Y019597D01*
X025053Y019438D02*
X025237Y019438D01*
X025346Y019280D02*
X024944Y019280D01*
X024346Y019280D02*
X024169Y019280D01*
X024207Y019438D02*
X024237Y019438D01*
X024104Y019121D02*
X027165Y019121D01*
X026966Y019280D02*
X025944Y019280D01*
X026949Y018595D02*
X027066Y018643D01*
X027194Y018643D01*
X027311Y018595D01*
X027401Y018505D01*
X027450Y018387D01*
X027450Y018260D01*
X027401Y018142D01*
X027311Y018052D01*
X027194Y018003D01*
X027066Y018003D01*
X026949Y018052D01*
X026859Y018142D01*
X026810Y018260D01*
X026810Y018387D01*
X026859Y018505D01*
X026949Y018595D01*
X026852Y018487D02*
X013259Y018487D01*
X013280Y018437D02*
X013238Y018539D01*
X013251Y018552D01*
X013300Y018670D01*
X013300Y018797D01*
X013270Y018871D01*
X013291Y018892D01*
X013340Y019010D01*
X013340Y019137D01*
X013292Y019253D01*
X013311Y019272D01*
X013360Y019390D01*
X013360Y019517D01*
X013311Y019635D01*
X013247Y019699D01*
X013260Y019730D01*
X013260Y019857D01*
X013211Y019975D01*
X013203Y019983D01*
X013251Y020032D01*
X013300Y020150D01*
X013300Y020277D01*
X013251Y020395D01*
X013161Y020485D01*
X013044Y020533D01*
X012953Y020533D01*
X012960Y020550D01*
X012960Y020677D01*
X012911Y020795D01*
X012821Y020885D01*
X012704Y020933D01*
X012576Y020933D01*
X012459Y020885D01*
X012454Y020880D01*
X012431Y020935D01*
X012403Y020963D01*
X012411Y020972D01*
X012460Y021090D01*
X012460Y021217D01*
X012411Y021335D01*
X012321Y021425D01*
X012204Y021473D01*
X012076Y021473D01*
X011959Y021425D01*
X011869Y021335D01*
X011862Y021320D01*
X011831Y021395D01*
X011741Y021485D01*
X011686Y021508D01*
X034744Y021508D01*
X037775Y018476D01*
X037775Y014484D01*
X037704Y014657D01*
X037563Y014797D01*
X037379Y014873D01*
X037181Y014873D01*
X036997Y014797D01*
X036856Y014657D01*
X036780Y014473D01*
X036780Y014274D01*
X036856Y014090D01*
X036997Y013950D01*
X037181Y013873D01*
X036997Y013797D01*
X036856Y013657D01*
X036780Y013473D01*
X036780Y013274D01*
X036856Y013090D01*
X036997Y012950D01*
X037181Y012873D01*
X036997Y012797D01*
X036856Y012657D01*
X036780Y012473D01*
X036780Y012274D01*
X036856Y012090D01*
X036997Y011950D01*
X037181Y011873D01*
X036997Y011797D01*
X036856Y011657D01*
X036780Y011473D01*
X036780Y011274D01*
X036856Y011090D01*
X036997Y010950D01*
X037181Y010873D01*
X037379Y010873D01*
X037563Y010950D01*
X037704Y011090D01*
X037775Y011263D01*
X037775Y009880D01*
X037744Y009893D01*
X037616Y009893D01*
X037499Y009845D01*
X037409Y009755D01*
X037360Y009637D01*
X037360Y009510D01*
X037409Y009392D01*
X037499Y009302D01*
X037616Y009253D01*
X037744Y009253D01*
X037775Y009267D01*
X037775Y007020D01*
X037737Y007112D01*
X037619Y007231D01*
X037464Y007295D01*
X037296Y007295D01*
X037141Y007231D01*
X037023Y007112D01*
X036959Y006957D01*
X036959Y006790D01*
X037023Y006635D01*
X037141Y006516D01*
X037296Y006452D01*
X037464Y006452D01*
X037619Y006516D01*
X037737Y006635D01*
X037775Y006726D01*
X037775Y001043D01*
X029833Y001043D01*
X029833Y001363D01*
X029856Y001353D01*
X029984Y001353D01*
X030101Y001402D01*
X030191Y001492D01*
X030240Y001610D01*
X030240Y001737D01*
X030191Y001855D01*
X030101Y001945D01*
X029984Y001993D01*
X029856Y001993D01*
X029833Y001984D01*
X029833Y009193D01*
X029716Y009310D01*
X028724Y009310D01*
X028740Y009350D01*
X028740Y009477D01*
X028691Y009595D01*
X028601Y009685D01*
X028484Y009733D01*
X028356Y009733D01*
X028239Y009685D01*
X028149Y009595D01*
X028100Y009477D01*
X028100Y009350D01*
X028116Y009310D01*
X011652Y009310D01*
X011535Y009193D01*
X011535Y008375D01*
X011513Y008397D01*
X011329Y008473D01*
X011131Y008473D01*
X010947Y008397D01*
X010806Y008257D01*
X010730Y008073D01*
X010730Y007874D01*
X010806Y007690D01*
X010947Y007550D01*
X011131Y007473D01*
X011329Y007473D01*
X011513Y007550D01*
X011535Y007571D01*
X011535Y005373D01*
X000380Y005373D01*
X000380Y012021D01*
X000399Y012002D01*
X000516Y011953D01*
X000644Y011953D01*
X000761Y012002D01*
X000851Y012092D01*
X000900Y012210D01*
X000900Y012337D01*
X000851Y012455D01*
X000761Y012545D01*
X000644Y012593D01*
X000516Y012593D01*
X000399Y012545D01*
X000380Y012526D01*
X000380Y018476D01*
X003411Y021508D01*
X006823Y021508D01*
X006719Y021465D01*
X006640Y021386D01*
X006581Y021445D01*
X006464Y021493D01*
X006336Y021493D01*
X006219Y021445D01*
X006160Y021386D01*
X006121Y021425D01*
X006004Y021473D01*
X005876Y021473D01*
X005759Y021425D01*
X005670Y021336D01*
X005601Y021405D01*
X005484Y021453D01*
X005356Y021453D01*
X005250Y021409D01*
X005144Y021453D01*
X005016Y021453D01*
X004899Y021405D01*
X004809Y021315D01*
X004775Y021233D01*
X004756Y021233D01*
X004639Y021185D01*
X004549Y021095D01*
X004515Y021013D01*
X004399Y020965D01*
X004309Y020875D01*
X004260Y020757D01*
X004260Y020653D01*
X004176Y020653D01*
X004059Y020605D01*
X003969Y020515D01*
X003920Y020397D01*
X003920Y020333D01*
X003896Y020333D01*
X003779Y020285D01*
X003689Y020195D01*
X003640Y020077D01*
X003640Y019950D01*
X003689Y019832D01*
X003697Y019823D01*
X003689Y019815D01*
X003640Y019697D01*
X003640Y019570D01*
X003689Y019452D01*
X003707Y019433D01*
X003669Y019395D01*
X003620Y019277D01*
X003620Y019150D01*
X003669Y019032D01*
X003759Y018942D01*
X003876Y018893D01*
X004004Y018893D01*
X004105Y018936D01*
X004139Y018902D01*
X004256Y018853D01*
X004384Y018853D01*
X004501Y018902D01*
X004591Y018992D01*
X004628Y019082D01*
X004696Y019053D01*
X004824Y019053D01*
X004941Y019102D01*
X005031Y019192D01*
X005073Y019293D01*
X005144Y019293D01*
X005261Y019342D01*
X005351Y019432D01*
X005400Y019550D01*
X005400Y019677D01*
X005351Y019795D01*
X005261Y019885D01*
X005144Y019933D01*
X005016Y019933D01*
X004899Y019885D01*
X004809Y019795D01*
X004767Y019693D01*
X004696Y019693D01*
X004579Y019645D01*
X004489Y019555D01*
X004452Y019465D01*
X004384Y019493D01*
X004256Y019493D01*
X004247Y019489D01*
X004280Y019570D01*
X004280Y019697D01*
X004231Y019815D01*
X004223Y019823D01*
X004231Y019832D01*
X004280Y019950D01*
X004280Y020013D01*
X004304Y020013D01*
X004421Y020062D01*
X004511Y020152D01*
X004560Y020270D01*
X004560Y020373D01*
X004644Y020373D01*
X004761Y020422D01*
X004851Y020512D01*
X004885Y020594D01*
X005001Y020642D01*
X005091Y020732D01*
X005125Y020813D01*
X005144Y020813D01*
X005250Y020858D01*
X005356Y020813D01*
X005484Y020813D01*
X005601Y020862D01*
X005690Y020951D01*
X005759Y020882D01*
X005876Y020833D01*
X006004Y020833D01*
X006121Y020882D01*
X006180Y020941D01*
X006219Y020902D01*
X006336Y020853D01*
X006464Y020853D01*
X006581Y020902D01*
X006660Y020981D01*
X006719Y020922D01*
X006836Y020873D01*
X006964Y020873D01*
X007081Y020922D01*
X007171Y021012D01*
X007220Y021130D01*
X007220Y021257D01*
X007171Y021375D01*
X007081Y021465D01*
X006977Y021508D01*
X009003Y021508D01*
X008899Y021465D01*
X008879Y021445D01*
X008764Y021493D01*
X008636Y021493D01*
X008519Y021445D01*
X008517Y021443D01*
X008444Y021473D01*
X008316Y021473D01*
X008199Y021425D01*
X008109Y021335D01*
X008064Y021226D01*
X007959Y021331D01*
X007804Y021395D01*
X007636Y021395D01*
X007481Y021331D01*
X007363Y021212D01*
X007299Y021057D01*
X007299Y020890D01*
X007363Y020735D01*
X007481Y020616D01*
X007636Y020552D01*
X007804Y020552D01*
X007959Y020616D01*
X008077Y020735D01*
X008141Y020890D01*
X008141Y020939D01*
X008199Y020882D01*
X008316Y020833D01*
X008444Y020833D01*
X008561Y020882D01*
X008563Y020884D01*
X008636Y020853D01*
X008764Y020853D01*
X008881Y020902D01*
X008901Y020921D01*
X009016Y020873D01*
X009144Y020873D01*
X009261Y020922D01*
X009270Y020931D01*
X009279Y020922D01*
X009396Y020873D01*
X009524Y020873D01*
X009640Y020922D01*
X009693Y020899D01*
X009649Y020855D01*
X009600Y020737D01*
X009600Y020610D01*
X009649Y020492D01*
X009657Y020483D01*
X009629Y020455D01*
X009580Y020337D01*
X009580Y020210D01*
X009629Y020092D01*
X009719Y020002D01*
X009836Y019953D01*
X009840Y019953D01*
X009840Y019930D01*
X009876Y019842D01*
X009869Y019835D01*
X009820Y019717D01*
X009820Y019590D01*
X009850Y019516D01*
X009849Y019515D01*
X009800Y019397D01*
X009800Y019270D01*
X009836Y019183D01*
X009800Y019097D01*
X009800Y018970D01*
X009849Y018852D01*
X009939Y018762D01*
X010056Y018713D01*
X010075Y018713D01*
X010109Y018632D01*
X010199Y018542D01*
X010316Y018493D01*
X010444Y018493D01*
X010561Y018542D01*
X010651Y018632D01*
X010700Y018750D01*
X010700Y018877D01*
X010670Y018951D01*
X010671Y018952D01*
X010720Y019070D01*
X010720Y019197D01*
X010684Y019285D01*
X010691Y019292D01*
X010740Y019410D01*
X010740Y019537D01*
X010710Y019611D01*
X010711Y019612D01*
X010760Y019730D01*
X010760Y019857D01*
X010730Y019931D01*
X010731Y019932D01*
X010780Y020050D01*
X010780Y020177D01*
X010772Y020197D01*
X010876Y020153D01*
X011004Y020153D01*
X011110Y020198D01*
X011216Y020153D01*
X011344Y020153D01*
X011450Y020198D01*
X011556Y020153D01*
X011684Y020153D01*
X011790Y020198D01*
X011896Y020153D01*
X012024Y020153D01*
X012111Y020190D01*
X012119Y020182D01*
X012236Y020133D01*
X012283Y020133D01*
X012309Y020072D01*
X012336Y020045D01*
X012300Y019957D01*
X012300Y019830D01*
X012349Y019712D01*
X012425Y019636D01*
X012400Y019577D01*
X012400Y019450D01*
X012430Y019376D01*
X012429Y019375D01*
X012380Y019257D01*
X012380Y019130D01*
X012416Y019042D01*
X012409Y019035D01*
X012360Y018917D01*
X012360Y018790D01*
X012396Y018702D01*
X012389Y018695D01*
X012340Y018577D01*
X012340Y018530D01*
X012279Y018505D01*
X012200Y018426D01*
X012184Y018433D01*
X012056Y018433D01*
X011939Y018385D01*
X011900Y018346D01*
X011884Y018353D01*
X011756Y018353D01*
X011660Y018314D01*
X011564Y018353D01*
X011436Y018353D01*
X011340Y018314D01*
X011244Y018353D01*
X011116Y018353D01*
X010999Y018305D01*
X010909Y018215D01*
X010860Y018097D01*
X010860Y017970D01*
X010909Y017852D01*
X010999Y017762D01*
X011116Y017713D01*
X011244Y017713D01*
X011340Y017753D01*
X011436Y017713D01*
X011564Y017713D01*
X011660Y017753D01*
X011756Y017713D01*
X011884Y017713D01*
X012001Y017762D01*
X012040Y017800D01*
X012056Y017793D01*
X012092Y017793D01*
X012109Y017752D01*
X012199Y017662D01*
X012316Y017613D01*
X012444Y017613D01*
X012561Y017662D01*
X012651Y017752D01*
X012658Y017769D01*
X012696Y017753D01*
X012824Y017753D01*
X012941Y017802D01*
X013031Y017892D01*
X013080Y018010D01*
X013080Y018077D01*
X013141Y018102D01*
X013231Y018192D01*
X013280Y018310D01*
X013280Y018437D01*
X013280Y018329D02*
X019020Y018329D01*
X019026Y018343D02*
X018980Y018233D01*
X018980Y018114D01*
X019026Y018004D01*
X019110Y017919D01*
X019220Y017873D01*
X019340Y017873D01*
X019450Y017919D01*
X019534Y018004D01*
X019580Y018114D01*
X019580Y018233D01*
X019534Y018343D01*
X019450Y018428D01*
X019340Y018473D01*
X019220Y018473D01*
X019110Y018428D01*
X019026Y018343D01*
X018980Y018170D02*
X013210Y018170D01*
X013080Y018012D02*
X017794Y018012D01*
X017810Y018028D02*
X017726Y017943D01*
X017680Y017833D01*
X017680Y017714D01*
X017726Y017604D01*
X017810Y017519D01*
X017920Y017473D01*
X018040Y017473D01*
X018150Y017519D01*
X018234Y017604D01*
X018280Y017714D01*
X018280Y017833D01*
X018234Y017943D01*
X018150Y018028D01*
X018040Y018073D01*
X017920Y018073D01*
X017810Y018028D01*
X017688Y017853D02*
X012993Y017853D01*
X012594Y017695D02*
X017688Y017695D01*
X017793Y017536D02*
X000380Y017536D01*
X000380Y017378D02*
X022279Y017378D01*
X022316Y017393D02*
X022199Y017345D01*
X022109Y017255D01*
X022060Y017137D01*
X022060Y017010D01*
X022109Y016892D01*
X022199Y016802D01*
X022316Y016753D01*
X022444Y016753D01*
X022561Y016802D01*
X022651Y016892D01*
X022700Y017010D01*
X022700Y017137D01*
X022651Y017255D01*
X022561Y017345D01*
X022444Y017393D01*
X022316Y017393D01*
X022481Y017378D02*
X037775Y017378D01*
X037775Y017536D02*
X018167Y017536D01*
X018272Y017695D02*
X027708Y017695D01*
X027709Y017692D02*
X027799Y017602D01*
X027916Y017553D01*
X028044Y017553D01*
X028161Y017602D01*
X028251Y017692D01*
X028300Y017810D01*
X028300Y017937D01*
X028251Y018055D01*
X028161Y018145D01*
X028044Y018193D01*
X027916Y018193D01*
X027799Y018145D01*
X027709Y018055D01*
X027660Y017937D01*
X027660Y017810D01*
X027709Y017692D01*
X027660Y017853D02*
X021484Y017853D01*
X021450Y017819D02*
X021534Y017904D01*
X021580Y018014D01*
X021580Y018133D01*
X021534Y018243D01*
X021450Y018328D01*
X021340Y018373D01*
X021220Y018373D01*
X021110Y018328D01*
X021026Y018243D01*
X020980Y018133D01*
X020980Y018014D01*
X021026Y017904D01*
X021110Y017819D01*
X021220Y017773D01*
X021340Y017773D01*
X021450Y017819D01*
X021579Y018012D02*
X027046Y018012D01*
X027214Y018012D02*
X027691Y018012D01*
X027861Y018170D02*
X027413Y018170D01*
X027450Y018329D02*
X030098Y018329D01*
X030109Y018355D02*
X030060Y018237D01*
X030060Y018110D01*
X030109Y017992D01*
X030199Y017902D01*
X030316Y017853D01*
X028300Y017853D01*
X028269Y018012D02*
X030101Y018012D01*
X030060Y018170D02*
X028099Y018170D01*
X028252Y017695D02*
X037775Y017695D01*
X037775Y017853D02*
X036376Y017853D01*
X036497Y017904D02*
X036725Y018132D01*
X036849Y018430D01*
X036849Y018752D01*
X036725Y019050D01*
X036497Y019278D01*
X036199Y019401D01*
X035877Y019401D01*
X035579Y019278D01*
X035351Y019050D01*
X035228Y018752D01*
X035228Y018430D01*
X035351Y018132D01*
X035579Y017904D01*
X035877Y017781D01*
X036199Y017781D01*
X036497Y017904D01*
X036605Y018012D02*
X037775Y018012D01*
X037775Y018170D02*
X036741Y018170D01*
X036807Y018329D02*
X037775Y018329D01*
X037764Y018487D02*
X036849Y018487D01*
X036849Y018646D02*
X037606Y018646D01*
X037447Y018804D02*
X036827Y018804D01*
X036761Y018963D02*
X037289Y018963D01*
X037130Y019121D02*
X036653Y019121D01*
X036492Y019280D02*
X036972Y019280D01*
X036813Y019438D02*
X030860Y019438D01*
X030875Y019475D02*
X030800Y019293D01*
X030661Y019154D01*
X030479Y019078D01*
X030281Y019078D01*
X030099Y019154D01*
X029960Y019293D01*
X029885Y019475D01*
X029885Y019672D01*
X029960Y019854D01*
X030099Y019993D01*
X030281Y020069D01*
X030479Y020069D01*
X030661Y019993D01*
X030800Y019854D01*
X030875Y019672D01*
X030875Y019475D01*
X030875Y019597D02*
X036655Y019597D01*
X036496Y019755D02*
X030841Y019755D01*
X030740Y019914D02*
X036338Y019914D01*
X036179Y020072D02*
X029482Y020072D01*
X029479Y020073D02*
X029281Y020073D01*
X029097Y019997D01*
X028956Y019857D01*
X028880Y019673D01*
X028804Y019857D01*
X028663Y019997D01*
X028479Y020073D01*
X028281Y020073D01*
X028097Y019997D01*
X027956Y019857D01*
X027880Y019673D01*
X027880Y019474D01*
X027956Y019290D01*
X028097Y019150D01*
X028281Y019073D01*
X028479Y019073D01*
X028663Y019150D01*
X028804Y019290D01*
X028880Y019474D01*
X028880Y019673D01*
X028880Y019474D01*
X028956Y019290D01*
X029097Y019150D01*
X029281Y019073D01*
X029479Y019073D01*
X029663Y019150D01*
X029804Y019290D01*
X029880Y019474D01*
X029880Y019673D01*
X029804Y019857D01*
X029663Y019997D01*
X029479Y020073D01*
X029492Y020105D02*
X029564Y020129D01*
X029632Y020163D01*
X029693Y020207D01*
X029746Y020261D01*
X029791Y020322D01*
X029825Y020389D01*
X029848Y020461D01*
X029860Y020536D01*
X029860Y020553D01*
X029400Y020553D01*
X029400Y020093D01*
X029418Y020093D01*
X029492Y020105D01*
X029360Y020093D02*
X029360Y020553D01*
X029400Y020553D01*
X029400Y020593D01*
X029860Y020593D01*
X029860Y020611D01*
X029848Y020686D01*
X029825Y020758D01*
X029791Y020825D01*
X029746Y020886D01*
X029693Y020940D01*
X029632Y020984D01*
X029564Y021018D01*
X029492Y021042D01*
X029418Y021053D01*
X029400Y021053D01*
X029400Y020593D01*
X029360Y020593D01*
X029360Y020553D01*
X028900Y020553D01*
X028900Y020536D01*
X028912Y020461D01*
X028935Y020389D01*
X028969Y020322D01*
X029014Y020261D01*
X029067Y020207D01*
X029128Y020163D01*
X029196Y020129D01*
X029268Y020105D01*
X029342Y020093D01*
X029360Y020093D01*
X029278Y020072D02*
X028482Y020072D01*
X028479Y020073D02*
X028663Y020150D01*
X028804Y020290D01*
X028880Y020474D01*
X028880Y020673D01*
X028804Y020857D01*
X028663Y020997D01*
X028479Y021073D01*
X028281Y021073D01*
X028097Y020997D01*
X027956Y020857D01*
X027880Y020673D01*
X027804Y020857D01*
X027663Y020997D01*
X027479Y021073D01*
X027281Y021073D01*
X027097Y020997D01*
X026956Y020857D01*
X026880Y020673D01*
X026880Y020474D01*
X026956Y020290D01*
X027097Y020150D01*
X027281Y020073D01*
X027479Y020073D01*
X027663Y020150D01*
X027804Y020290D01*
X027880Y020474D01*
X027880Y020673D01*
X027880Y020474D01*
X027956Y020290D01*
X028097Y020150D01*
X028281Y020073D01*
X028479Y020073D01*
X028278Y020072D02*
X027482Y020072D01*
X027278Y020072D02*
X024016Y020072D01*
X024119Y019914D02*
X024333Y019914D01*
X024232Y019755D02*
X024185Y019755D01*
X023857Y020231D02*
X027015Y020231D01*
X026915Y020389D02*
X013253Y020389D01*
X013300Y020231D02*
X013756Y020231D01*
X013768Y020243D02*
X013534Y020008D01*
X013407Y019702D01*
X013407Y019371D01*
X013534Y019065D01*
X013768Y018830D01*
X014074Y018703D01*
X014406Y018703D01*
X014712Y018830D01*
X014946Y019065D01*
X015073Y019371D01*
X015073Y019702D01*
X014946Y020008D01*
X014712Y020243D01*
X014406Y020370D01*
X014074Y020370D01*
X013768Y020243D01*
X013598Y020072D02*
X013268Y020072D01*
X013236Y019914D02*
X013495Y019914D01*
X013429Y019755D02*
X013260Y019755D01*
X013327Y019597D02*
X013407Y019597D01*
X013407Y019438D02*
X013360Y019438D01*
X013315Y019280D02*
X013444Y019280D01*
X013510Y019121D02*
X013340Y019121D01*
X013321Y018963D02*
X013635Y018963D01*
X013830Y018804D02*
X013297Y018804D01*
X013290Y018646D02*
X035228Y018646D01*
X035228Y018487D02*
X030458Y018487D01*
X030444Y018493D02*
X030316Y018493D01*
X030199Y018445D01*
X030109Y018355D01*
X030302Y018487D02*
X027408Y018487D01*
X026810Y018329D02*
X021447Y018329D01*
X021565Y018170D02*
X026847Y018170D01*
X027595Y019121D02*
X028165Y019121D01*
X027966Y019280D02*
X027794Y019280D01*
X027865Y019438D02*
X027895Y019438D01*
X027880Y019597D02*
X027880Y019597D01*
X027846Y019755D02*
X027914Y019755D01*
X028013Y019914D02*
X027747Y019914D01*
X027745Y020231D02*
X028015Y020231D01*
X027915Y020389D02*
X027845Y020389D01*
X027880Y020548D02*
X027880Y020548D01*
X027866Y020706D02*
X027894Y020706D01*
X027964Y020865D02*
X027796Y020865D01*
X027600Y021023D02*
X028160Y021023D01*
X028600Y021023D02*
X029212Y021023D01*
X029196Y021018D02*
X029128Y020984D01*
X029067Y020940D01*
X029014Y020886D01*
X028969Y020825D01*
X028935Y020758D01*
X028912Y020686D01*
X028900Y020611D01*
X028900Y020593D01*
X029360Y020593D01*
X029360Y021053D01*
X029342Y021053D01*
X029268Y021042D01*
X029196Y021018D01*
X029360Y021023D02*
X029400Y021023D01*
X029548Y021023D02*
X035228Y021023D01*
X035387Y020865D02*
X034312Y020865D01*
X034361Y020845D02*
X034244Y020893D01*
X034116Y020893D01*
X033999Y020845D01*
X033909Y020755D01*
X033860Y020637D01*
X033860Y020510D01*
X033909Y020392D01*
X033999Y020302D01*
X034116Y020253D01*
X034244Y020253D01*
X034361Y020302D01*
X034451Y020392D01*
X034500Y020510D01*
X034500Y020637D01*
X034451Y020755D01*
X034361Y020845D01*
X034471Y020706D02*
X035545Y020706D01*
X035704Y020548D02*
X034500Y020548D01*
X034449Y020389D02*
X035862Y020389D01*
X036021Y020231D02*
X029716Y020231D01*
X029825Y020389D02*
X032511Y020389D01*
X032509Y020392D02*
X032599Y020302D01*
X032716Y020253D01*
X032844Y020253D01*
X032961Y020302D01*
X033051Y020392D01*
X033100Y020510D01*
X033100Y020637D01*
X033051Y020755D01*
X032961Y020845D01*
X032844Y020893D01*
X032716Y020893D01*
X032599Y020845D01*
X032509Y020755D01*
X032460Y020637D01*
X032460Y020510D01*
X032509Y020392D01*
X032460Y020548D02*
X029860Y020548D01*
X029841Y020706D02*
X032489Y020706D01*
X032648Y020865D02*
X029762Y020865D01*
X029400Y020865D02*
X029360Y020865D01*
X029360Y020706D02*
X029400Y020706D01*
X029400Y020548D02*
X029360Y020548D01*
X029360Y020389D02*
X029400Y020389D01*
X029400Y020231D02*
X029360Y020231D01*
X029044Y020231D02*
X028745Y020231D01*
X028845Y020389D02*
X028935Y020389D01*
X028900Y020548D02*
X028880Y020548D01*
X028866Y020706D02*
X028919Y020706D01*
X028998Y020865D02*
X028796Y020865D01*
X027160Y021023D02*
X012433Y021023D01*
X012460Y021182D02*
X035070Y021182D01*
X034911Y021340D02*
X012406Y021340D01*
X011874Y021340D02*
X011854Y021340D01*
X011707Y021499D02*
X034753Y021499D01*
X034048Y020865D02*
X032912Y020865D01*
X033071Y020706D02*
X033889Y020706D01*
X033860Y020548D02*
X033100Y020548D01*
X033049Y020389D02*
X033911Y020389D01*
X035585Y019280D02*
X030787Y019280D01*
X030583Y019121D02*
X035423Y019121D01*
X035315Y018963D02*
X023978Y018963D01*
X023783Y018804D02*
X035250Y018804D01*
X035270Y018329D02*
X030662Y018329D01*
X030651Y018355D02*
X030561Y018445D01*
X030444Y018493D01*
X030651Y018355D02*
X030700Y018237D01*
X030700Y018110D01*
X030651Y017992D01*
X030561Y017902D01*
X030444Y017853D01*
X035701Y017853D01*
X035471Y018012D02*
X030659Y018012D01*
X030700Y018170D02*
X035335Y018170D01*
X036914Y016686D02*
X036869Y016625D01*
X036835Y016558D01*
X036812Y016486D01*
X036800Y016411D01*
X036800Y016393D01*
X037260Y016393D01*
X037260Y016353D01*
X037300Y016353D01*
X037300Y015893D01*
X037318Y015893D01*
X037392Y015905D01*
X037464Y015929D01*
X037532Y015963D01*
X037593Y016007D01*
X037646Y016061D01*
X037691Y016122D01*
X037725Y016189D01*
X037748Y016261D01*
X037760Y016336D01*
X037760Y016353D01*
X037300Y016353D01*
X037300Y016393D01*
X037760Y016393D01*
X037760Y016411D01*
X037748Y016486D01*
X037725Y016558D01*
X037691Y016625D01*
X037646Y016686D01*
X037593Y016740D01*
X037532Y016784D01*
X037464Y016818D01*
X037392Y016842D01*
X037318Y016853D01*
X037300Y016853D01*
X037300Y016393D01*
X037260Y016393D01*
X037260Y016853D01*
X037242Y016853D01*
X037168Y016842D01*
X037096Y016818D01*
X037028Y016784D01*
X036967Y016740D01*
X036914Y016686D01*
X036973Y016744D02*
X032441Y016744D01*
X032461Y016752D02*
X032344Y016703D01*
X032216Y016703D01*
X032099Y016752D01*
X032009Y016842D01*
X031960Y016960D01*
X031960Y017087D01*
X032009Y017205D01*
X032099Y017295D01*
X032216Y017343D01*
X032344Y017343D01*
X032461Y017295D01*
X032551Y017205D01*
X032600Y017087D01*
X032600Y016960D01*
X032551Y016842D01*
X032461Y016752D01*
X032576Y016902D02*
X037775Y016902D01*
X037775Y016744D02*
X037587Y016744D01*
X037711Y016585D02*
X037775Y016585D01*
X037758Y016427D02*
X037775Y016427D01*
X037775Y016268D02*
X037749Y016268D01*
X037775Y016110D02*
X037682Y016110D01*
X037775Y015951D02*
X037509Y015951D01*
X037464Y015818D02*
X037392Y015842D01*
X037318Y015853D01*
X037300Y015853D01*
X037300Y015393D01*
X037760Y015393D01*
X037760Y015411D01*
X037748Y015486D01*
X037725Y015558D01*
X037691Y015625D01*
X037646Y015686D01*
X037593Y015740D01*
X037532Y015784D01*
X037464Y015818D01*
X037514Y015793D02*
X037775Y015793D01*
X037775Y015634D02*
X037684Y015634D01*
X037750Y015476D02*
X037775Y015476D01*
X037760Y015353D02*
X037300Y015353D01*
X037300Y014893D01*
X037318Y014893D01*
X037392Y014905D01*
X037464Y014929D01*
X037532Y014963D01*
X037593Y015007D01*
X037646Y015061D01*
X037691Y015122D01*
X037725Y015189D01*
X037748Y015261D01*
X037760Y015336D01*
X037760Y015353D01*
X037757Y015317D02*
X037775Y015317D01*
X037775Y015159D02*
X037709Y015159D01*
X037775Y015000D02*
X037583Y015000D01*
X037455Y014842D02*
X037775Y014842D01*
X037775Y014683D02*
X037677Y014683D01*
X037758Y014525D02*
X037775Y014525D01*
X037775Y014263D02*
X037775Y013484D01*
X037704Y013657D01*
X037563Y013797D01*
X037379Y013873D01*
X037181Y013873D01*
X037379Y013873D01*
X037563Y013950D01*
X037704Y014090D01*
X037775Y014263D01*
X037775Y014208D02*
X037753Y014208D01*
X037775Y014049D02*
X037663Y014049D01*
X037775Y013891D02*
X037422Y013891D01*
X037628Y013732D02*
X037775Y013732D01*
X037775Y013574D02*
X037738Y013574D01*
X037775Y013263D02*
X037775Y012484D01*
X037704Y012657D01*
X037563Y012797D01*
X037379Y012873D01*
X037181Y012873D01*
X037379Y012873D01*
X037563Y012950D01*
X037704Y013090D01*
X037775Y013263D01*
X037773Y013257D02*
X037775Y013257D01*
X037775Y013098D02*
X037707Y013098D01*
X037775Y012940D02*
X037540Y012940D01*
X037579Y012781D02*
X037775Y012781D01*
X037775Y012623D02*
X037718Y012623D01*
X037775Y012263D02*
X037775Y011484D01*
X037704Y011657D01*
X037563Y011797D01*
X037379Y011873D01*
X037181Y011873D01*
X037379Y011873D01*
X037563Y011950D01*
X037704Y012090D01*
X037775Y012263D01*
X037775Y012147D02*
X037728Y012147D01*
X037775Y011989D02*
X037603Y011989D01*
X037483Y011830D02*
X037775Y011830D01*
X037775Y011672D02*
X037689Y011672D01*
X037763Y011513D02*
X037775Y011513D01*
X037775Y011196D02*
X037748Y011196D01*
X037775Y011038D02*
X037652Y011038D01*
X037775Y010879D02*
X037394Y010879D01*
X037364Y010795D02*
X037196Y010795D01*
X037041Y010731D01*
X036923Y010612D01*
X036859Y010457D01*
X036859Y010290D01*
X036923Y010135D01*
X037041Y010016D01*
X037196Y009952D01*
X037364Y009952D01*
X037519Y010016D01*
X037637Y010135D01*
X037701Y010290D01*
X037701Y010457D01*
X037637Y010612D01*
X037519Y010731D01*
X037364Y010795D01*
X037529Y010721D02*
X037775Y010721D01*
X037775Y010562D02*
X037658Y010562D01*
X037701Y010404D02*
X037775Y010404D01*
X037775Y010245D02*
X037683Y010245D01*
X037775Y010087D02*
X037590Y010087D01*
X037775Y009928D02*
X035428Y009928D01*
X035451Y009905D02*
X035361Y009995D01*
X035244Y010043D01*
X035116Y010043D01*
X034999Y009995D01*
X034909Y009905D01*
X034860Y009787D01*
X034860Y009712D01*
X034759Y009956D01*
X034520Y010195D01*
X034332Y010273D01*
X034374Y010290D01*
X034464Y010380D01*
X034510Y010491D01*
X034510Y010460D01*
X034559Y010342D01*
X034649Y010252D01*
X034766Y010203D01*
X034894Y010203D01*
X035011Y010252D01*
X035101Y010342D01*
X035150Y010460D01*
X035150Y010587D01*
X035101Y010705D01*
X035011Y010795D01*
X034894Y010843D01*
X034766Y010843D01*
X034649Y010795D01*
X034559Y010705D01*
X034512Y010593D01*
X034512Y010625D01*
X034464Y010742D01*
X034374Y010832D01*
X034256Y010881D01*
X034129Y010881D01*
X034011Y010832D01*
X033921Y010742D01*
X033872Y010625D01*
X033872Y010497D01*
X033921Y010380D01*
X033977Y010324D01*
X033869Y010324D01*
X033557Y010195D01*
X033318Y009956D01*
X033188Y009643D01*
X033188Y009305D01*
X033318Y008993D01*
X033557Y008754D01*
X033869Y008624D01*
X034207Y008624D01*
X034520Y008754D01*
X034759Y008993D01*
X034888Y009305D01*
X034888Y009592D01*
X034909Y009542D01*
X034999Y009452D01*
X035116Y009403D01*
X035244Y009403D01*
X035361Y009452D01*
X035451Y009542D01*
X035500Y009660D01*
X035500Y009787D01*
X035451Y009905D01*
X035500Y009770D02*
X037424Y009770D01*
X037360Y009611D02*
X035480Y009611D01*
X035362Y009453D02*
X037384Y009453D01*
X037517Y009294D02*
X034884Y009294D01*
X034888Y009453D02*
X034998Y009453D01*
X034860Y009770D02*
X034836Y009770D01*
X034770Y009928D02*
X034932Y009928D01*
X034995Y010245D02*
X036877Y010245D01*
X036859Y010404D02*
X035127Y010404D01*
X035150Y010562D02*
X036902Y010562D01*
X037031Y010721D02*
X035085Y010721D01*
X034575Y010721D02*
X034473Y010721D01*
X034260Y010879D02*
X036021Y010879D01*
X036009Y010892D02*
X036099Y010802D01*
X036216Y010753D01*
X036344Y010753D01*
X036461Y010802D01*
X036551Y010892D01*
X036600Y011010D01*
X036600Y011137D01*
X036551Y011255D01*
X036461Y011345D01*
X036344Y011393D01*
X036216Y011393D01*
X036099Y011345D01*
X036009Y011255D01*
X035960Y011137D01*
X035960Y011010D01*
X036009Y010892D01*
X035960Y011038D02*
X031801Y011038D01*
X031795Y011041D02*
X031645Y011041D01*
X031506Y010983D01*
X031400Y010877D01*
X031343Y010738D01*
X031343Y010588D01*
X031400Y010450D01*
X031506Y010344D01*
X031645Y010286D01*
X031795Y010286D01*
X031934Y010344D01*
X032040Y010450D01*
X032097Y010588D01*
X032097Y010738D01*
X032040Y010877D01*
X031934Y010983D01*
X031795Y011041D01*
X031639Y011038D02*
X031168Y011038D01*
X031161Y011045D02*
X031044Y011093D01*
X030916Y011093D01*
X030799Y011045D01*
X030709Y010955D01*
X030660Y010837D01*
X030660Y010710D01*
X030709Y010592D01*
X030799Y010502D01*
X030916Y010453D01*
X031044Y010453D01*
X031161Y010502D01*
X031251Y010592D01*
X031300Y010710D01*
X031300Y010837D01*
X031251Y010955D01*
X031161Y011045D01*
X031282Y010879D02*
X031403Y010879D01*
X031343Y010721D02*
X031300Y010721D01*
X031354Y010562D02*
X031222Y010562D01*
X031446Y010404D02*
X027845Y010404D01*
X027820Y010393D02*
X027930Y010439D01*
X028014Y010524D01*
X028060Y010634D01*
X028060Y010753D01*
X028014Y010863D01*
X027930Y010948D01*
X027820Y010993D01*
X027700Y010993D01*
X027590Y010948D01*
X027506Y010863D01*
X027460Y010753D01*
X027460Y010634D01*
X027506Y010524D01*
X027590Y010439D01*
X027700Y010393D01*
X027820Y010393D01*
X027675Y010404D02*
X026981Y010404D01*
X026973Y010423D02*
X026849Y010546D01*
X026688Y010613D01*
X026512Y010613D01*
X026351Y010546D01*
X026227Y010423D01*
X026160Y010261D01*
X026160Y010086D01*
X026227Y009924D01*
X026351Y009800D01*
X026512Y009733D01*
X026688Y009733D01*
X026840Y009797D01*
X026840Y009714D01*
X026886Y009604D01*
X026970Y009519D01*
X027080Y009473D01*
X027200Y009473D01*
X027310Y009519D01*
X027394Y009604D01*
X027440Y009714D01*
X027440Y009833D01*
X027394Y009943D01*
X027310Y010028D01*
X027200Y010073D01*
X027080Y010073D01*
X027025Y010051D01*
X027040Y010086D01*
X027040Y010261D01*
X026973Y010423D01*
X027040Y010245D02*
X032245Y010245D01*
X032279Y010212D02*
X032396Y010163D01*
X032524Y010163D01*
X032641Y010212D01*
X032731Y010302D01*
X032780Y010420D01*
X032780Y010547D01*
X032731Y010665D01*
X032641Y010755D01*
X032524Y010803D01*
X032396Y010803D01*
X032279Y010755D01*
X032189Y010665D01*
X032140Y010547D01*
X032140Y010420D01*
X032189Y010302D01*
X032279Y010212D01*
X032147Y010404D02*
X031994Y010404D01*
X032086Y010562D02*
X032146Y010562D01*
X032097Y010721D02*
X032245Y010721D01*
X032037Y010879D02*
X034125Y010879D01*
X033912Y010721D02*
X032675Y010721D01*
X032774Y010562D02*
X033872Y010562D01*
X033911Y010404D02*
X032773Y010404D01*
X032675Y010245D02*
X033679Y010245D01*
X033449Y010087D02*
X027040Y010087D01*
X027401Y009928D02*
X033306Y009928D01*
X033241Y009770D02*
X027440Y009770D01*
X027398Y009611D02*
X028165Y009611D01*
X028100Y009453D02*
X023733Y009453D01*
X023846Y009499D02*
X024080Y009734D01*
X024207Y010040D01*
X024207Y010371D01*
X024080Y010678D01*
X023846Y010912D01*
X023539Y011039D01*
X023208Y011039D01*
X022902Y010912D01*
X022667Y010678D01*
X022541Y010371D01*
X022541Y010040D01*
X022667Y009734D01*
X022902Y009499D01*
X023208Y009373D01*
X023539Y009373D01*
X023846Y009499D01*
X023958Y009611D02*
X026882Y009611D01*
X026840Y009770D02*
X026776Y009770D01*
X026424Y009770D02*
X025776Y009770D01*
X025849Y009800D02*
X025973Y009924D01*
X026040Y010086D01*
X026040Y010261D01*
X025973Y010423D01*
X025849Y010546D01*
X025688Y010613D01*
X025512Y010613D01*
X025351Y010546D01*
X025227Y010423D01*
X025160Y010261D01*
X025160Y010086D01*
X025227Y009924D01*
X025351Y009800D01*
X025512Y009733D01*
X025688Y009733D01*
X025849Y009800D01*
X025975Y009928D02*
X026225Y009928D01*
X026160Y010087D02*
X026040Y010087D01*
X026040Y010245D02*
X026160Y010245D01*
X026219Y010404D02*
X025981Y010404D01*
X025811Y010562D02*
X026389Y010562D01*
X026811Y010562D02*
X027490Y010562D01*
X027460Y010721D02*
X024037Y010721D01*
X024128Y010562D02*
X025389Y010562D01*
X025219Y010404D02*
X024193Y010404D01*
X024207Y010245D02*
X025160Y010245D01*
X025160Y010087D02*
X024207Y010087D01*
X024161Y009928D02*
X025225Y009928D01*
X025424Y009770D02*
X024095Y009770D01*
X023014Y009453D02*
X014599Y009453D01*
X014712Y009499D02*
X014946Y009734D01*
X015073Y010040D01*
X015073Y010371D01*
X014946Y010678D01*
X014712Y010912D01*
X014406Y011039D01*
X014074Y011039D01*
X013768Y010912D01*
X013534Y010678D01*
X013407Y010371D01*
X013407Y010040D01*
X013534Y009734D01*
X013768Y009499D01*
X014074Y009373D01*
X014406Y009373D01*
X014712Y009499D01*
X014824Y009611D02*
X020597Y009611D01*
X020616Y009603D02*
X020744Y009603D01*
X020861Y009652D01*
X020951Y009742D01*
X021000Y009860D01*
X021000Y009987D01*
X020951Y010105D01*
X020861Y010195D01*
X020744Y010243D01*
X020616Y010243D01*
X020499Y010195D01*
X020409Y010105D01*
X020360Y009987D01*
X020360Y009860D01*
X020409Y009742D01*
X020499Y009652D01*
X020616Y009603D01*
X020763Y009611D02*
X022790Y009611D01*
X022652Y009770D02*
X020963Y009770D01*
X021000Y009928D02*
X022587Y009928D01*
X022541Y010087D02*
X020959Y010087D01*
X020401Y010087D02*
X019836Y010087D01*
X019841Y010092D02*
X019890Y010210D01*
X019890Y010337D01*
X019847Y010442D01*
X019884Y010442D01*
X020039Y010506D01*
X020157Y010625D01*
X020221Y010780D01*
X020221Y010947D01*
X020157Y011102D01*
X020039Y011221D01*
X019884Y011285D01*
X019716Y011285D01*
X019561Y011221D01*
X019443Y011102D01*
X019379Y010947D01*
X019379Y010780D01*
X019443Y010625D01*
X019483Y010584D01*
X019389Y010545D01*
X019299Y010455D01*
X019250Y010337D01*
X019250Y010210D01*
X019299Y010092D01*
X019389Y010002D01*
X019506Y009953D01*
X019634Y009953D01*
X019751Y010002D01*
X019841Y010092D01*
X019890Y010245D02*
X022541Y010245D01*
X022554Y010404D02*
X019862Y010404D01*
X020095Y010562D02*
X022620Y010562D01*
X022711Y010721D02*
X022440Y010721D01*
X022401Y010682D02*
X022491Y010772D01*
X022540Y010890D01*
X022540Y011017D01*
X022491Y011135D01*
X022401Y011225D01*
X022284Y011273D01*
X022156Y011273D01*
X022039Y011225D01*
X021949Y011135D01*
X021900Y011017D01*
X021900Y010890D01*
X021949Y010772D01*
X022039Y010682D01*
X022156Y010633D01*
X022284Y010633D01*
X022401Y010682D01*
X022536Y010879D02*
X022869Y010879D01*
X023206Y011038D02*
X022531Y011038D01*
X022430Y011196D02*
X026621Y011196D01*
X026676Y011173D02*
X026804Y011173D01*
X026921Y011222D01*
X027011Y011312D01*
X027060Y011430D01*
X027060Y011557D01*
X027011Y011675D01*
X026921Y011765D01*
X026804Y011813D01*
X026676Y011813D01*
X026559Y011765D01*
X026469Y011675D01*
X026420Y011557D01*
X026420Y011430D01*
X026469Y011312D01*
X026559Y011222D01*
X026676Y011173D01*
X026859Y011196D02*
X035985Y011196D01*
X036123Y011355D02*
X034947Y011355D01*
X034944Y011353D02*
X035061Y011402D01*
X035094Y011435D01*
X035110Y011419D01*
X035220Y011373D01*
X035340Y011373D01*
X035450Y011419D01*
X035534Y011504D01*
X035580Y011614D01*
X035580Y011733D01*
X035534Y011843D01*
X035450Y011928D01*
X035340Y011973D01*
X035220Y011973D01*
X035110Y011928D01*
X035094Y011912D01*
X035061Y011945D01*
X035011Y011966D01*
X035050Y012060D01*
X035050Y012187D01*
X035001Y012305D01*
X034911Y012395D01*
X034794Y012443D01*
X034772Y012443D01*
X034780Y012464D01*
X034780Y012583D01*
X034734Y012693D01*
X034650Y012778D01*
X034540Y012823D01*
X034420Y012823D01*
X034310Y012778D01*
X034226Y012693D01*
X034180Y012583D01*
X034180Y012464D01*
X034226Y012354D01*
X034310Y012269D01*
X034420Y012223D01*
X034425Y012223D01*
X034410Y012187D01*
X034410Y012060D01*
X034459Y011942D01*
X034549Y011852D01*
X034599Y011831D01*
X034560Y011737D01*
X034560Y011610D01*
X034609Y011492D01*
X034699Y011402D01*
X034816Y011353D01*
X034944Y011353D01*
X034813Y011355D02*
X027029Y011355D01*
X027060Y011513D02*
X034600Y011513D01*
X034560Y011672D02*
X027012Y011672D01*
X026468Y011672D02*
X025044Y011672D01*
X025051Y011690D02*
X024987Y011535D01*
X024869Y011416D01*
X024714Y011352D01*
X024546Y011352D01*
X024391Y011416D01*
X024273Y011535D01*
X024209Y011690D01*
X024209Y011857D01*
X024273Y012012D01*
X024391Y012131D01*
X024546Y012195D01*
X024714Y012195D01*
X024869Y012131D01*
X024987Y012012D01*
X025051Y011857D01*
X025051Y011690D01*
X025051Y011830D02*
X034599Y011830D01*
X034439Y011989D02*
X033128Y011989D01*
X033091Y011952D02*
X033181Y012042D01*
X033230Y012160D01*
X033230Y012287D01*
X033181Y012405D01*
X033091Y012495D01*
X032974Y012543D01*
X032846Y012543D01*
X032729Y012495D01*
X032639Y012405D01*
X032590Y012287D01*
X032590Y012160D01*
X032639Y012042D01*
X032729Y011952D01*
X032846Y011903D01*
X032974Y011903D01*
X033091Y011952D01*
X033225Y012147D02*
X034410Y012147D01*
X034273Y012306D02*
X033222Y012306D01*
X033122Y012464D02*
X034180Y012464D01*
X034197Y012623D02*
X016364Y012623D01*
X016351Y012655D02*
X016261Y012745D01*
X016144Y012793D01*
X016016Y012793D01*
X015899Y012745D01*
X015809Y012655D01*
X015760Y012537D01*
X015760Y012410D01*
X015809Y012292D01*
X015899Y012202D01*
X016016Y012153D01*
X016144Y012153D01*
X016261Y012202D01*
X016351Y012292D01*
X016400Y012410D01*
X016400Y012537D01*
X016351Y012655D01*
X016400Y012464D02*
X028590Y012464D01*
X028550Y012448D02*
X028466Y012363D01*
X028420Y012253D01*
X028420Y012134D01*
X028466Y012024D01*
X028550Y011939D01*
X028660Y011893D01*
X028780Y011893D01*
X028890Y011939D01*
X028974Y012024D01*
X029020Y012134D01*
X029020Y012253D01*
X028974Y012363D01*
X028890Y012448D01*
X028780Y012493D01*
X028660Y012493D01*
X028550Y012448D01*
X028442Y012306D02*
X022570Y012306D01*
X022621Y012285D02*
X022504Y012333D01*
X022376Y012333D01*
X022259Y012285D01*
X022169Y012195D01*
X022120Y012077D01*
X022120Y011950D01*
X022169Y011832D01*
X022259Y011742D01*
X022376Y011693D01*
X022504Y011693D01*
X022621Y011742D01*
X022711Y011832D01*
X022760Y011950D01*
X022760Y012077D01*
X022711Y012195D01*
X022621Y012285D01*
X022731Y012147D02*
X024432Y012147D01*
X024263Y011989D02*
X022760Y011989D01*
X022710Y011830D02*
X024209Y011830D01*
X024216Y011672D02*
X015706Y011672D01*
X015734Y011643D02*
X015650Y011728D01*
X015540Y011773D01*
X015420Y011773D01*
X015380Y011757D01*
X015380Y011833D01*
X015334Y011943D01*
X015250Y012028D01*
X015140Y012073D01*
X015020Y012073D01*
X014910Y012028D01*
X014826Y011943D01*
X014780Y011833D01*
X014780Y011714D01*
X014826Y011604D01*
X014910Y011519D01*
X015020Y011473D01*
X015140Y011473D01*
X015180Y011490D01*
X015180Y011414D01*
X015226Y011304D01*
X015310Y011219D01*
X015420Y011173D01*
X015540Y011173D01*
X015650Y011219D01*
X015734Y011304D01*
X015780Y011414D01*
X015780Y011533D01*
X015734Y011643D01*
X015780Y011513D02*
X024294Y011513D01*
X024539Y011355D02*
X015756Y011355D01*
X015595Y011196D02*
X019537Y011196D01*
X019416Y011038D02*
X014408Y011038D01*
X014072Y011038D02*
X013080Y011038D01*
X013101Y011090D02*
X013037Y010935D01*
X012919Y010816D01*
X012764Y010752D01*
X012596Y010752D01*
X012441Y010816D01*
X012323Y010935D01*
X012259Y011090D01*
X012259Y011257D01*
X012323Y011412D01*
X012441Y011531D01*
X012596Y011595D01*
X012764Y011595D01*
X012919Y011531D01*
X013037Y011412D01*
X013101Y011257D01*
X013101Y011090D01*
X013101Y011196D02*
X015365Y011196D01*
X015204Y011355D02*
X013061Y011355D01*
X012936Y011513D02*
X014924Y011513D01*
X014797Y011672D02*
X000380Y011672D01*
X000380Y011830D02*
X014780Y011830D01*
X014871Y011989D02*
X011377Y011989D01*
X011340Y011973D02*
X011450Y012019D01*
X011534Y012104D01*
X011536Y012108D01*
X011620Y012073D01*
X011740Y012073D01*
X011850Y012119D01*
X011934Y012204D01*
X011980Y012314D01*
X011980Y012433D01*
X011934Y012543D01*
X011850Y012628D01*
X011740Y012673D01*
X011620Y012673D01*
X011510Y012628D01*
X011426Y012543D01*
X011424Y012539D01*
X011340Y012573D01*
X011220Y012573D01*
X011110Y012528D01*
X011026Y012443D01*
X010980Y012333D01*
X010980Y012214D01*
X011026Y012104D01*
X011110Y012019D01*
X011220Y011973D01*
X011340Y011973D01*
X011183Y011989D02*
X000729Y011989D01*
X000874Y012147D02*
X011007Y012147D01*
X010980Y012306D02*
X000900Y012306D01*
X000842Y012464D02*
X011047Y012464D01*
X011505Y012623D02*
X000380Y012623D01*
X000380Y012781D02*
X006849Y012781D01*
X006799Y012802D02*
X006916Y012753D01*
X007044Y012753D01*
X007161Y012802D01*
X007251Y012892D01*
X007300Y013010D01*
X007300Y013137D01*
X007251Y013255D01*
X007161Y013345D01*
X007044Y013393D01*
X006916Y013393D01*
X006799Y013345D01*
X006709Y013255D01*
X006660Y013137D01*
X006660Y013010D01*
X006709Y012892D01*
X006799Y012802D01*
X006689Y012940D02*
X000380Y012940D01*
X000380Y013098D02*
X006660Y013098D01*
X006711Y013257D02*
X000380Y013257D01*
X000380Y013415D02*
X013460Y013415D01*
X013460Y013437D02*
X013460Y013310D01*
X013509Y013192D01*
X013599Y013102D01*
X013716Y013053D01*
X013844Y013053D01*
X013961Y013102D01*
X014051Y013192D01*
X014100Y013310D01*
X014100Y013437D01*
X014051Y013555D01*
X013961Y013645D01*
X013844Y013693D01*
X013716Y013693D01*
X013599Y013645D01*
X013509Y013555D01*
X013460Y013437D01*
X013528Y013574D02*
X000380Y013574D01*
X000380Y013732D02*
X015121Y013732D01*
X015110Y013728D02*
X015026Y013643D01*
X014980Y013533D01*
X014980Y013414D01*
X015026Y013304D01*
X015110Y013219D01*
X015220Y013173D01*
X015340Y013173D01*
X015424Y013208D01*
X015426Y013204D01*
X015510Y013119D01*
X015620Y013073D01*
X015740Y013073D01*
X015850Y013119D01*
X015934Y013204D01*
X015980Y013314D01*
X015980Y013433D01*
X015934Y013543D01*
X015850Y013628D01*
X015740Y013673D01*
X015620Y013673D01*
X015536Y013639D01*
X015534Y013643D01*
X015450Y013728D01*
X015340Y013773D01*
X015220Y013773D01*
X015110Y013728D01*
X014997Y013574D02*
X014032Y013574D01*
X014100Y013415D02*
X014980Y013415D01*
X015072Y013257D02*
X014078Y013257D01*
X013952Y013098D02*
X015560Y013098D01*
X015800Y013098D02*
X018824Y013098D01*
X018836Y013093D02*
X018964Y013093D01*
X019081Y013142D01*
X019171Y013232D01*
X019220Y013350D01*
X019220Y013477D01*
X019171Y013595D01*
X019081Y013685D01*
X018964Y013733D01*
X018836Y013733D01*
X018719Y013685D01*
X018629Y013595D01*
X018580Y013477D01*
X018580Y013350D01*
X018629Y013232D01*
X018719Y013142D01*
X018836Y013093D01*
X018976Y013098D02*
X019780Y013098D01*
X019780Y013157D02*
X019780Y013030D01*
X019829Y012912D01*
X019919Y012822D01*
X020036Y012773D01*
X020164Y012773D01*
X020281Y012822D01*
X020371Y012912D01*
X020420Y013030D01*
X020420Y013157D01*
X020371Y013275D01*
X020281Y013365D01*
X020164Y013413D01*
X020036Y013413D01*
X019919Y013365D01*
X019829Y013275D01*
X019780Y013157D01*
X019821Y013257D02*
X019182Y013257D01*
X019220Y013415D02*
X023419Y013415D01*
X023410Y013419D02*
X023520Y013373D01*
X023640Y013373D01*
X023750Y013419D01*
X023834Y013504D01*
X023880Y013614D01*
X023880Y013733D01*
X023834Y013843D01*
X023750Y013928D01*
X023640Y013973D01*
X023520Y013973D01*
X023410Y013928D01*
X023326Y013843D01*
X023280Y013733D01*
X023280Y013614D01*
X023326Y013504D01*
X023410Y013419D01*
X023296Y013574D02*
X019180Y013574D01*
X018966Y013732D02*
X023280Y013732D01*
X023373Y013891D02*
X009550Y013891D01*
X009551Y013892D02*
X009600Y014010D01*
X009600Y014137D01*
X009551Y014255D01*
X009461Y014345D01*
X009344Y014393D01*
X009216Y014393D01*
X009099Y014345D01*
X009009Y014255D01*
X008960Y014137D01*
X008960Y014010D01*
X009009Y013892D01*
X009099Y013802D01*
X009216Y013753D01*
X009344Y013753D01*
X009461Y013802D01*
X009551Y013892D01*
X009600Y014049D02*
X027603Y014049D01*
X027559Y014005D02*
X027649Y014095D01*
X027766Y014143D01*
X027894Y014143D01*
X028011Y014095D01*
X028101Y014005D01*
X028150Y013887D01*
X028150Y013760D01*
X028101Y013642D01*
X028011Y013552D01*
X027894Y013503D01*
X027766Y013503D01*
X027649Y013552D01*
X027559Y013642D01*
X027510Y013760D01*
X027510Y013887D01*
X027559Y014005D01*
X027512Y013891D02*
X023787Y013891D01*
X023880Y013732D02*
X023921Y013732D01*
X023926Y013743D02*
X023880Y013633D01*
X023880Y013514D01*
X023926Y013404D01*
X024010Y013319D01*
X024120Y013273D01*
X024240Y013273D01*
X024350Y013319D01*
X024434Y013404D01*
X024480Y013514D01*
X024480Y013633D01*
X024434Y013743D01*
X024350Y013828D01*
X024240Y013873D01*
X024120Y013873D01*
X024010Y013828D01*
X023926Y013743D01*
X023880Y013574D02*
X023864Y013574D01*
X023921Y013415D02*
X023741Y013415D01*
X024439Y013415D02*
X029678Y013415D01*
X029660Y013460D02*
X029709Y013342D01*
X029799Y013252D01*
X029916Y013203D01*
X030044Y013203D01*
X030161Y013252D01*
X030251Y013342D01*
X030300Y013460D01*
X030300Y013587D01*
X030251Y013705D01*
X030161Y013795D01*
X030044Y013843D01*
X029916Y013843D01*
X029799Y013795D01*
X029709Y013705D01*
X029660Y013587D01*
X029660Y013460D01*
X029660Y013574D02*
X028033Y013574D01*
X028139Y013732D02*
X029736Y013732D01*
X029794Y013257D02*
X020379Y013257D01*
X020420Y013098D02*
X031442Y013098D01*
X031459Y013082D02*
X031576Y013033D01*
X031704Y013033D01*
X031821Y013082D01*
X031911Y013172D01*
X031960Y013290D01*
X031960Y013417D01*
X031911Y013535D01*
X031821Y013625D01*
X031704Y013673D01*
X031576Y013673D01*
X031541Y013659D01*
X031514Y013723D01*
X031430Y013808D01*
X031320Y013853D01*
X031200Y013853D01*
X031090Y013808D01*
X031006Y013723D01*
X030960Y013613D01*
X030960Y013494D01*
X031006Y013384D01*
X031090Y013299D01*
X031200Y013253D01*
X031320Y013253D01*
X031333Y013259D01*
X031369Y013172D01*
X031459Y013082D01*
X031334Y013257D02*
X031328Y013257D01*
X031192Y013257D02*
X030166Y013257D01*
X030282Y013415D02*
X030992Y013415D01*
X030960Y013574D02*
X030300Y013574D01*
X030224Y013732D02*
X031015Y013732D01*
X031505Y013732D02*
X032842Y013732D01*
X032859Y013692D02*
X032949Y013602D01*
X033066Y013553D01*
X033194Y013553D01*
X033282Y013590D01*
X033260Y013537D01*
X033260Y013410D01*
X033274Y013376D01*
X033199Y013345D01*
X033109Y013255D01*
X033060Y013137D01*
X033060Y013010D01*
X033109Y012892D01*
X033199Y012802D01*
X033316Y012753D01*
X033444Y012753D01*
X033561Y012802D01*
X033651Y012892D01*
X033700Y013010D01*
X033700Y013137D01*
X033686Y013171D01*
X033761Y013202D01*
X033851Y013292D01*
X033900Y013410D01*
X033900Y013537D01*
X033851Y013655D01*
X033768Y013738D01*
X033830Y013799D01*
X033900Y013729D01*
X034010Y013683D01*
X034130Y013683D01*
X034240Y013729D01*
X034270Y013759D01*
X034310Y013719D01*
X034420Y013673D01*
X034540Y013673D01*
X034650Y013719D01*
X034734Y013804D01*
X034780Y013914D01*
X034780Y014033D01*
X034734Y014143D01*
X034650Y014228D01*
X034540Y014273D01*
X034420Y014273D01*
X034310Y014228D01*
X034280Y014198D01*
X034240Y014238D01*
X034130Y014283D01*
X034010Y014283D01*
X033900Y014238D01*
X033820Y014158D01*
X033750Y014228D01*
X033640Y014273D01*
X033520Y014273D01*
X033410Y014228D01*
X033326Y014143D01*
X033322Y014134D01*
X033311Y014145D01*
X033194Y014193D01*
X033066Y014193D01*
X032949Y014145D01*
X032859Y014055D01*
X032810Y013937D01*
X032810Y013810D01*
X032859Y013692D01*
X033017Y013574D02*
X031872Y013574D01*
X031960Y013415D02*
X033260Y013415D01*
X033243Y013574D02*
X033275Y013574D01*
X033111Y013257D02*
X031946Y013257D01*
X031838Y013098D02*
X033060Y013098D01*
X033089Y012940D02*
X020383Y012940D01*
X020183Y012781D02*
X033249Y012781D01*
X033511Y012781D02*
X034319Y012781D01*
X034641Y012781D02*
X036981Y012781D01*
X037020Y012940D02*
X033671Y012940D01*
X033700Y013098D02*
X034931Y013098D01*
X034926Y013104D02*
X035010Y013019D01*
X035120Y012973D01*
X035240Y012973D01*
X035350Y013019D01*
X035434Y013104D01*
X035480Y013214D01*
X035480Y013333D01*
X035434Y013443D01*
X035434Y013443D01*
X035434Y013444D01*
X035480Y013554D01*
X035480Y013673D01*
X035434Y013783D01*
X035434Y013783D01*
X035434Y013784D01*
X035480Y013894D01*
X035480Y014013D01*
X035434Y014123D01*
X035350Y014208D01*
X035240Y014253D01*
X035120Y014253D01*
X035010Y014208D01*
X034926Y014123D01*
X034880Y014013D01*
X034880Y013894D01*
X034926Y013784D01*
X034926Y013783D01*
X034880Y013673D01*
X034880Y013554D01*
X034926Y013444D01*
X034926Y013443D01*
X034880Y013333D01*
X034880Y013214D01*
X034926Y013104D01*
X034880Y013257D02*
X033816Y013257D01*
X033900Y013415D02*
X034914Y013415D01*
X034926Y013443D02*
X034926Y013443D01*
X034880Y013574D02*
X033885Y013574D01*
X033897Y013732D02*
X033774Y013732D01*
X034243Y013732D02*
X034297Y013732D01*
X034663Y013732D02*
X034905Y013732D01*
X034926Y013783D02*
X034926Y013783D01*
X034881Y013891D02*
X034771Y013891D01*
X034773Y014049D02*
X034895Y014049D01*
X035011Y014208D02*
X034670Y014208D01*
X034290Y014208D02*
X034270Y014208D01*
X033870Y014208D02*
X033770Y014208D01*
X033390Y014208D02*
X032916Y014208D01*
X032914Y014204D02*
X032960Y014314D01*
X032960Y014433D01*
X032914Y014543D01*
X032830Y014628D01*
X032720Y014673D01*
X032600Y014673D01*
X032490Y014628D01*
X032406Y014543D01*
X032360Y014433D01*
X032360Y014314D01*
X032406Y014204D01*
X032490Y014119D01*
X032600Y014073D01*
X032720Y014073D01*
X032830Y014119D01*
X032914Y014204D01*
X032857Y014049D02*
X028057Y014049D01*
X028148Y013891D02*
X032810Y013891D01*
X032404Y014208D02*
X009571Y014208D01*
X009409Y014366D02*
X032360Y014366D01*
X032398Y014525D02*
X025246Y014525D01*
X025194Y014503D02*
X025311Y014552D01*
X025401Y014642D01*
X025450Y014760D01*
X025450Y014887D01*
X025401Y015005D01*
X025311Y015095D01*
X025194Y015143D01*
X025066Y015143D01*
X024949Y015095D01*
X024859Y015005D01*
X024810Y014887D01*
X024810Y014760D01*
X024859Y014642D01*
X024949Y014552D01*
X025066Y014503D01*
X025194Y014503D01*
X025014Y014525D02*
X023717Y014525D01*
X023711Y014512D02*
X023760Y014630D01*
X023760Y014757D01*
X023711Y014875D01*
X023621Y014965D01*
X023504Y015013D01*
X023376Y015013D01*
X023259Y014965D01*
X023169Y014875D01*
X023120Y014757D01*
X023120Y014630D01*
X023169Y014512D01*
X023259Y014422D01*
X023376Y014373D01*
X023504Y014373D01*
X023621Y014422D01*
X023711Y014512D01*
X023760Y014683D02*
X024842Y014683D01*
X024810Y014842D02*
X023725Y014842D01*
X023535Y015000D02*
X024857Y015000D01*
X025403Y015000D02*
X028234Y015000D01*
X028220Y015034D02*
X028266Y014924D01*
X028350Y014839D01*
X028460Y014793D01*
X028580Y014793D01*
X028690Y014839D01*
X028774Y014924D01*
X028820Y015034D01*
X028820Y015153D01*
X028774Y015263D01*
X028690Y015348D01*
X028580Y015393D01*
X028460Y015393D01*
X028350Y015348D01*
X028266Y015263D01*
X028220Y015153D01*
X028220Y015034D01*
X028222Y015159D02*
X015418Y015159D01*
X015451Y015192D02*
X015500Y015310D01*
X015500Y015437D01*
X015451Y015555D01*
X015361Y015645D01*
X015244Y015693D01*
X015116Y015693D01*
X014999Y015645D01*
X014909Y015555D01*
X014860Y015437D01*
X014860Y015310D01*
X014909Y015192D01*
X014999Y015102D01*
X015116Y015053D01*
X015244Y015053D01*
X015361Y015102D01*
X015451Y015192D01*
X015500Y015317D02*
X028320Y015317D01*
X028720Y015317D02*
X030283Y015317D01*
X030299Y015302D02*
X030416Y015253D01*
X030544Y015253D01*
X030661Y015302D01*
X030751Y015392D01*
X030800Y015510D01*
X030800Y015637D01*
X030751Y015755D01*
X030661Y015845D01*
X030544Y015893D01*
X030416Y015893D01*
X030299Y015845D01*
X030209Y015755D01*
X030160Y015637D01*
X030160Y015510D01*
X030209Y015392D01*
X030299Y015302D01*
X030174Y015476D02*
X021607Y015476D01*
X021634Y015504D02*
X021680Y015614D01*
X021680Y015733D01*
X021634Y015843D01*
X021550Y015928D01*
X021440Y015973D01*
X021320Y015973D01*
X021210Y015928D01*
X021130Y015848D01*
X021050Y015928D01*
X020940Y015973D01*
X020820Y015973D01*
X020710Y015928D01*
X020626Y015843D01*
X020580Y015733D01*
X020580Y015614D01*
X020626Y015504D01*
X020710Y015419D01*
X020820Y015373D01*
X020940Y015373D01*
X021050Y015419D01*
X021130Y015499D01*
X021210Y015419D01*
X021320Y015373D01*
X021440Y015373D01*
X021550Y015419D01*
X021634Y015504D01*
X021680Y015634D02*
X030160Y015634D01*
X030247Y015793D02*
X021655Y015793D01*
X021493Y015951D02*
X032460Y015951D01*
X032460Y015910D02*
X032509Y015792D01*
X032599Y015702D01*
X032716Y015653D01*
X032844Y015653D01*
X032961Y015702D01*
X032994Y015735D01*
X033010Y015719D01*
X033120Y015673D01*
X033240Y015673D01*
X033350Y015719D01*
X033434Y015804D01*
X033480Y015914D01*
X033480Y016033D01*
X033434Y016143D01*
X033350Y016228D01*
X033240Y016273D01*
X033120Y016273D01*
X033010Y016228D01*
X032994Y016212D01*
X032961Y016245D01*
X032844Y016293D01*
X032716Y016293D01*
X032599Y016245D01*
X032509Y016155D01*
X032460Y016037D01*
X032460Y015910D01*
X032508Y015793D02*
X030713Y015793D01*
X030800Y015634D02*
X032002Y015634D01*
X032006Y015643D02*
X031960Y015533D01*
X031960Y015414D01*
X032006Y015304D01*
X032090Y015219D01*
X032200Y015173D01*
X032320Y015173D01*
X032430Y015219D01*
X032514Y015304D01*
X032560Y015414D01*
X032560Y015533D01*
X032514Y015643D01*
X032430Y015728D01*
X032320Y015773D01*
X032200Y015773D01*
X032090Y015728D01*
X032006Y015643D01*
X031960Y015476D02*
X030786Y015476D01*
X030677Y015317D02*
X032000Y015317D01*
X032520Y015317D02*
X034830Y015317D01*
X034819Y015322D02*
X034936Y015273D01*
X035064Y015273D01*
X035181Y015322D01*
X035271Y015412D01*
X035320Y015530D01*
X035320Y015657D01*
X035271Y015775D01*
X035181Y015865D01*
X035064Y015913D01*
X034936Y015913D01*
X034819Y015865D01*
X034729Y015775D01*
X034680Y015657D01*
X034680Y015530D01*
X034729Y015412D01*
X034819Y015322D01*
X034700Y015228D02*
X034784Y015143D01*
X034830Y015033D01*
X034830Y014914D01*
X034784Y014804D01*
X034700Y014719D01*
X034590Y014673D01*
X034470Y014673D01*
X034360Y014719D01*
X034355Y014724D01*
X034350Y014719D01*
X034240Y014673D01*
X034120Y014673D01*
X034010Y014719D01*
X033926Y014804D01*
X033880Y014914D01*
X033880Y015033D01*
X033926Y015143D01*
X034010Y015228D01*
X034120Y015273D01*
X034240Y015273D01*
X034350Y015228D01*
X034355Y015223D01*
X034360Y015228D01*
X034470Y015273D01*
X034590Y015273D01*
X034700Y015228D01*
X034769Y015159D02*
X036851Y015159D01*
X036835Y015189D02*
X036869Y015122D01*
X036914Y015061D01*
X036967Y015007D01*
X037028Y014963D01*
X037096Y014929D01*
X037168Y014905D01*
X037242Y014893D01*
X037260Y014893D01*
X037260Y015353D01*
X037300Y015353D01*
X037300Y015393D01*
X037260Y015393D01*
X037260Y015353D01*
X036800Y015353D01*
X036800Y015336D01*
X036812Y015261D01*
X036835Y015189D01*
X036803Y015317D02*
X035170Y015317D01*
X035298Y015476D02*
X036810Y015476D01*
X036812Y015486D02*
X036800Y015411D01*
X036800Y015393D01*
X037260Y015393D01*
X037260Y015853D01*
X037242Y015853D01*
X037168Y015842D01*
X037096Y015818D01*
X037028Y015784D01*
X036967Y015740D01*
X036914Y015686D01*
X036869Y015625D01*
X036835Y015558D01*
X036812Y015486D01*
X036876Y015634D02*
X035320Y015634D01*
X035253Y015793D02*
X037046Y015793D01*
X037096Y015929D02*
X037168Y015905D01*
X037242Y015893D01*
X037260Y015893D01*
X037260Y016353D01*
X036800Y016353D01*
X036800Y016336D01*
X036812Y016261D01*
X036835Y016189D01*
X036869Y016122D01*
X036914Y016061D01*
X036967Y016007D01*
X037028Y015963D01*
X037096Y015929D01*
X037051Y015951D02*
X033480Y015951D01*
X033448Y016110D02*
X034023Y016110D01*
X034026Y016104D02*
X034110Y016019D01*
X034220Y015973D01*
X034340Y015973D01*
X034450Y016019D01*
X034530Y016099D01*
X034610Y016019D01*
X034720Y015973D01*
X034840Y015973D01*
X034950Y016019D01*
X035034Y016104D01*
X035080Y016214D01*
X035080Y016333D01*
X035034Y016443D01*
X034950Y016528D01*
X034840Y016573D01*
X034720Y016573D01*
X034610Y016528D01*
X034530Y016448D01*
X034450Y016528D01*
X034340Y016573D01*
X034220Y016573D01*
X034110Y016528D01*
X034026Y016443D01*
X033980Y016333D01*
X033980Y016214D01*
X034026Y016104D01*
X033980Y016268D02*
X033252Y016268D01*
X033108Y016268D02*
X032904Y016268D01*
X032656Y016268D02*
X026821Y016268D01*
X026837Y016285D02*
X026901Y016440D01*
X026901Y016607D01*
X026837Y016762D01*
X026719Y016881D01*
X026564Y016945D01*
X026396Y016945D01*
X026241Y016881D01*
X026123Y016762D01*
X026059Y016607D01*
X026059Y016440D01*
X026123Y016285D01*
X026241Y016166D01*
X026396Y016102D01*
X026564Y016102D01*
X026719Y016166D01*
X026837Y016285D01*
X026896Y016427D02*
X034019Y016427D01*
X033424Y015793D02*
X034747Y015793D01*
X034680Y015634D02*
X032518Y015634D01*
X032560Y015476D02*
X034702Y015476D01*
X034830Y015000D02*
X036977Y015000D01*
X037105Y014842D02*
X034800Y014842D01*
X034614Y014683D02*
X036883Y014683D01*
X036802Y014525D02*
X032922Y014525D01*
X032960Y014366D02*
X036780Y014366D01*
X036807Y014208D02*
X035349Y014208D01*
X035465Y014049D02*
X036897Y014049D01*
X037138Y013891D02*
X035479Y013891D01*
X035455Y013732D02*
X036932Y013732D01*
X036822Y013574D02*
X035480Y013574D01*
X035446Y013415D02*
X036780Y013415D01*
X036787Y013257D02*
X035480Y013257D01*
X035429Y013098D02*
X036853Y013098D01*
X036842Y012623D02*
X034763Y012623D01*
X034780Y012464D02*
X036780Y012464D01*
X036780Y012306D02*
X035000Y012306D01*
X035050Y012147D02*
X036832Y012147D01*
X036957Y011989D02*
X035021Y011989D01*
X035540Y011830D02*
X037077Y011830D01*
X036871Y011672D02*
X035580Y011672D01*
X035538Y011513D02*
X036797Y011513D01*
X036780Y011355D02*
X036437Y011355D01*
X036575Y011196D02*
X036812Y011196D01*
X036908Y011038D02*
X036600Y011038D01*
X036539Y010879D02*
X037166Y010879D01*
X036970Y010087D02*
X034628Y010087D01*
X034665Y010245D02*
X034398Y010245D01*
X034474Y010404D02*
X034533Y010404D01*
X033188Y009611D02*
X028675Y009611D01*
X028740Y009453D02*
X033188Y009453D01*
X033193Y009294D02*
X029732Y009294D01*
X029833Y009136D02*
X033258Y009136D01*
X033333Y008977D02*
X029833Y008977D01*
X029833Y008819D02*
X030921Y008819D01*
X030886Y008783D02*
X030840Y008673D01*
X030840Y008554D01*
X030886Y008444D01*
X030965Y008364D01*
X030805Y008298D01*
X030664Y008157D01*
X030588Y007974D01*
X030588Y007775D01*
X030664Y007591D01*
X030805Y007450D01*
X030989Y007374D01*
X031188Y007374D01*
X031371Y007450D01*
X031512Y007591D01*
X031588Y007775D01*
X031588Y007974D01*
X031512Y008157D01*
X031371Y008298D01*
X031267Y008341D01*
X031310Y008359D01*
X031394Y008444D01*
X031440Y008554D01*
X031440Y008673D01*
X031394Y008783D01*
X031310Y008868D01*
X031200Y008913D01*
X031080Y008913D01*
X030970Y008868D01*
X030886Y008783D01*
X030840Y008660D02*
X029833Y008660D01*
X029833Y008502D02*
X029956Y008502D01*
X029999Y008545D02*
X029909Y008455D01*
X029860Y008337D01*
X029860Y008210D01*
X029909Y008092D01*
X029999Y008002D01*
X030116Y007953D01*
X030244Y007953D01*
X030361Y008002D01*
X030451Y008092D01*
X030500Y008210D01*
X030500Y008337D01*
X030451Y008455D01*
X030361Y008545D01*
X030244Y008593D01*
X030116Y008593D01*
X029999Y008545D01*
X029863Y008343D02*
X029833Y008343D01*
X029833Y008185D02*
X029870Y008185D01*
X029833Y008026D02*
X029974Y008026D01*
X029833Y007868D02*
X030588Y007868D01*
X030610Y008026D02*
X030386Y008026D01*
X030490Y008185D02*
X030692Y008185D01*
X030497Y008343D02*
X030915Y008343D01*
X030861Y008502D02*
X030404Y008502D01*
X031272Y008343D02*
X032206Y008343D01*
X032166Y008303D02*
X032250Y008388D01*
X032360Y008433D01*
X032480Y008433D01*
X032590Y008388D01*
X032674Y008303D01*
X032720Y008193D01*
X032720Y008074D01*
X032674Y007964D01*
X032590Y007879D01*
X032480Y007833D01*
X032360Y007833D01*
X032250Y007879D01*
X032166Y007964D01*
X032120Y008074D01*
X032120Y008193D01*
X032166Y008303D01*
X032120Y008185D02*
X031485Y008185D01*
X031566Y008026D02*
X032140Y008026D01*
X032277Y007868D02*
X031588Y007868D01*
X031561Y007709D02*
X036337Y007709D01*
X036343Y007690D02*
X036378Y007623D01*
X036422Y007562D01*
X036476Y007508D01*
X036537Y007464D01*
X036604Y007429D01*
X036676Y007406D01*
X036750Y007394D01*
X036768Y007394D01*
X036768Y007854D01*
X036308Y007854D01*
X036308Y007836D01*
X036320Y007762D01*
X036343Y007690D01*
X036433Y007551D02*
X031472Y007551D01*
X031232Y007392D02*
X034196Y007392D01*
X034199Y007395D02*
X034109Y007305D01*
X034060Y007187D01*
X034060Y007060D01*
X034109Y006942D01*
X034199Y006852D01*
X034316Y006803D01*
X034444Y006803D01*
X034561Y006852D01*
X034651Y006942D01*
X034700Y007060D01*
X034700Y007187D01*
X034651Y007305D01*
X034561Y007395D01*
X034444Y007443D01*
X034316Y007443D01*
X034199Y007395D01*
X034079Y007234D02*
X031407Y007234D01*
X031401Y007240D02*
X031340Y007285D01*
X031273Y007319D01*
X031201Y007342D01*
X031126Y007354D01*
X031108Y007354D01*
X031108Y006894D01*
X031568Y006894D01*
X031568Y006912D01*
X031556Y006987D01*
X031533Y007058D01*
X031499Y007126D01*
X031454Y007187D01*
X031401Y007240D01*
X031524Y007075D02*
X034060Y007075D01*
X034134Y006917D02*
X031567Y006917D01*
X031568Y006854D02*
X031108Y006854D01*
X031108Y006394D01*
X031126Y006394D01*
X031201Y006406D01*
X031273Y006429D01*
X031340Y006464D01*
X031401Y006508D01*
X031454Y006562D01*
X031499Y006623D01*
X031533Y006690D01*
X031556Y006762D01*
X031568Y006836D01*
X031568Y006854D01*
X031555Y006758D02*
X036971Y006758D01*
X036959Y006917D02*
X034626Y006917D01*
X034700Y007075D02*
X037007Y007075D01*
X037149Y007234D02*
X034681Y007234D01*
X034564Y007392D02*
X037775Y007392D01*
X037775Y007234D02*
X037611Y007234D01*
X037753Y007075D02*
X037775Y007075D01*
X037775Y006600D02*
X037703Y006600D01*
X037775Y006441D02*
X034277Y006441D01*
X034280Y006433D02*
X034234Y006543D01*
X034150Y006628D01*
X034040Y006673D01*
X033920Y006673D01*
X033810Y006628D01*
X033726Y006543D01*
X033680Y006433D01*
X033680Y006314D01*
X033726Y006204D01*
X033810Y006119D01*
X033920Y006073D01*
X034040Y006073D01*
X034150Y006119D01*
X034234Y006204D01*
X034280Y006314D01*
X034280Y006433D01*
X034267Y006283D02*
X036490Y006283D01*
X036505Y006298D02*
X036364Y006157D01*
X036288Y005974D01*
X036288Y005775D01*
X036364Y005591D01*
X036505Y005450D01*
X036689Y005374D01*
X036888Y005374D01*
X037071Y005450D01*
X037212Y005591D01*
X037288Y005775D01*
X037288Y005974D01*
X037212Y006157D01*
X037071Y006298D01*
X036888Y006374D01*
X036689Y006374D01*
X036505Y006298D01*
X036351Y006124D02*
X034155Y006124D01*
X033805Y006124D02*
X031526Y006124D01*
X031512Y006157D02*
X031588Y005974D01*
X031588Y005775D01*
X031512Y005591D01*
X031371Y005450D01*
X031188Y005374D01*
X030989Y005374D01*
X030805Y005450D01*
X030664Y005591D01*
X030588Y005775D01*
X030588Y005974D01*
X030664Y006157D01*
X030805Y006298D01*
X030989Y006374D01*
X031188Y006374D01*
X031371Y006298D01*
X031512Y006157D01*
X031387Y006283D02*
X033693Y006283D01*
X033683Y006441D02*
X031296Y006441D01*
X031108Y006441D02*
X031068Y006441D01*
X031068Y006394D02*
X031068Y006854D01*
X030608Y006854D01*
X030608Y006836D01*
X030620Y006762D01*
X030643Y006690D01*
X030678Y006623D01*
X030722Y006562D01*
X030776Y006508D01*
X030837Y006464D01*
X030904Y006429D01*
X030976Y006406D01*
X031050Y006394D01*
X031068Y006394D01*
X030880Y006441D02*
X029833Y006441D01*
X029833Y006283D02*
X030790Y006283D01*
X030651Y006124D02*
X029833Y006124D01*
X029833Y005966D02*
X030588Y005966D01*
X030588Y005807D02*
X029833Y005807D01*
X029833Y005649D02*
X030640Y005649D01*
X030765Y005490D02*
X029833Y005490D01*
X029833Y005332D02*
X037775Y005332D01*
X037775Y005490D02*
X037112Y005490D01*
X037236Y005649D02*
X037775Y005649D01*
X037775Y005807D02*
X037288Y005807D01*
X037288Y005966D02*
X037775Y005966D01*
X037775Y006124D02*
X037226Y006124D01*
X037087Y006283D02*
X037775Y006283D01*
X037057Y006600D02*
X034178Y006600D01*
X033782Y006600D02*
X031482Y006600D01*
X031108Y006600D02*
X031068Y006600D01*
X031068Y006758D02*
X031108Y006758D01*
X031108Y006854D02*
X031068Y006854D01*
X031068Y006894D01*
X030608Y006894D01*
X030608Y006912D01*
X030620Y006987D01*
X030643Y007058D01*
X030678Y007126D01*
X030722Y007187D01*
X030776Y007240D01*
X030837Y007285D01*
X030904Y007319D01*
X030976Y007342D01*
X031050Y007354D01*
X031068Y007354D01*
X031068Y006894D01*
X031108Y006894D01*
X031108Y006854D01*
X031108Y006917D02*
X031068Y006917D01*
X031068Y007075D02*
X031108Y007075D01*
X031108Y007234D02*
X031068Y007234D01*
X030945Y007392D02*
X029833Y007392D01*
X029833Y007234D02*
X030769Y007234D01*
X030652Y007075D02*
X029833Y007075D01*
X029833Y006917D02*
X030609Y006917D01*
X030621Y006758D02*
X029833Y006758D01*
X029833Y006600D02*
X030694Y006600D01*
X031588Y005966D02*
X036288Y005966D01*
X036288Y005807D02*
X031588Y005807D01*
X031536Y005649D02*
X036340Y005649D01*
X036465Y005490D02*
X031412Y005490D01*
X030904Y005107D02*
X030763Y005247D01*
X030579Y005323D01*
X030381Y005323D01*
X030197Y005247D01*
X030056Y005107D01*
X029980Y004923D01*
X029980Y004724D01*
X030056Y004540D01*
X030197Y004400D01*
X030381Y004323D01*
X030579Y004323D01*
X030763Y004400D01*
X030904Y004540D01*
X030980Y004724D01*
X030980Y004923D01*
X030904Y005107D01*
X030837Y005173D02*
X037775Y005173D01*
X037775Y005015D02*
X034471Y005015D01*
X034520Y004995D02*
X034207Y005124D01*
X033869Y005124D01*
X033557Y004995D01*
X033318Y004756D01*
X033188Y004443D01*
X033188Y004105D01*
X033318Y003793D01*
X033557Y003554D01*
X033869Y003424D01*
X034207Y003424D01*
X034520Y003554D01*
X034759Y003793D01*
X034888Y004105D01*
X034888Y004443D01*
X034759Y004756D01*
X034520Y004995D01*
X034658Y004856D02*
X037775Y004856D01*
X037775Y004698D02*
X034783Y004698D01*
X034848Y004539D02*
X037775Y004539D01*
X037775Y004381D02*
X035674Y004381D01*
X035644Y004393D02*
X035516Y004393D01*
X035399Y004345D01*
X035309Y004255D01*
X035260Y004137D01*
X035260Y004010D01*
X035309Y003892D01*
X035399Y003802D01*
X035516Y003753D01*
X035644Y003753D01*
X035761Y003802D01*
X035851Y003892D01*
X035900Y004010D01*
X035900Y004137D01*
X035851Y004255D01*
X035761Y004345D01*
X035644Y004393D01*
X035486Y004381D02*
X034888Y004381D01*
X034888Y004222D02*
X035295Y004222D01*
X035260Y004064D02*
X034871Y004064D01*
X034806Y003905D02*
X034969Y003905D01*
X034919Y003885D02*
X034829Y003795D01*
X034780Y003677D01*
X034780Y003550D01*
X034829Y003432D01*
X034919Y003342D01*
X035036Y003293D01*
X035164Y003293D01*
X035281Y003342D01*
X035371Y003432D01*
X035420Y003550D01*
X035420Y003677D01*
X035371Y003795D01*
X035281Y003885D01*
X035164Y003933D01*
X035036Y003933D01*
X034919Y003885D01*
X034809Y003747D02*
X034713Y003747D01*
X034780Y003588D02*
X034555Y003588D01*
X034831Y003430D02*
X034221Y003430D01*
X033855Y003430D02*
X032700Y003430D01*
X032700Y003437D02*
X032651Y003555D01*
X032561Y003645D01*
X032444Y003693D01*
X032316Y003693D01*
X032199Y003645D01*
X032109Y003555D01*
X032060Y003437D01*
X032060Y003310D01*
X032109Y003192D01*
X032199Y003102D01*
X032316Y003053D01*
X032444Y003053D01*
X032561Y003102D01*
X032651Y003192D01*
X032700Y003310D01*
X032700Y003437D01*
X032684Y003271D02*
X037775Y003271D01*
X037775Y003113D02*
X032572Y003113D01*
X032188Y003113D02*
X030480Y003113D01*
X030480Y003133D02*
X030443Y003223D01*
X030579Y003223D01*
X030763Y003300D01*
X030904Y003440D01*
X030980Y003624D01*
X030980Y003823D01*
X030904Y004007D01*
X030763Y004147D01*
X030579Y004223D01*
X030381Y004223D01*
X030197Y004147D01*
X030056Y004007D01*
X029980Y003823D01*
X029980Y003624D01*
X030056Y003440D01*
X030123Y003373D01*
X030120Y003373D01*
X030010Y003328D01*
X029926Y003243D01*
X029880Y003133D01*
X029880Y003014D01*
X029926Y002904D01*
X030010Y002819D01*
X030120Y002773D01*
X030240Y002773D01*
X030350Y002819D01*
X030434Y002904D01*
X030480Y003014D01*
X030480Y003133D01*
X030455Y002954D02*
X037775Y002954D01*
X037775Y002796D02*
X037155Y002796D01*
X037285Y002742D02*
X036987Y002866D01*
X036665Y002866D01*
X036367Y002742D01*
X036139Y002514D01*
X036015Y002217D01*
X036015Y001894D01*
X036139Y001596D01*
X036367Y001368D01*
X036665Y001245D01*
X036987Y001245D01*
X037285Y001368D01*
X037513Y001596D01*
X037636Y001894D01*
X037636Y002217D01*
X037513Y002514D01*
X037285Y002742D01*
X037389Y002637D02*
X037775Y002637D01*
X037775Y002479D02*
X037527Y002479D01*
X037593Y002320D02*
X037775Y002320D01*
X037775Y002162D02*
X037636Y002162D01*
X037636Y002003D02*
X037775Y002003D01*
X037775Y001845D02*
X037616Y001845D01*
X037550Y001686D02*
X037775Y001686D01*
X037775Y001528D02*
X037444Y001528D01*
X037286Y001369D02*
X037775Y001369D01*
X037775Y001211D02*
X029833Y001211D01*
X029833Y001052D02*
X037775Y001052D01*
X036366Y001369D02*
X032702Y001369D01*
X032664Y001353D02*
X032781Y001402D01*
X032871Y001492D01*
X032920Y001610D01*
X032920Y001737D01*
X032871Y001855D01*
X032781Y001945D01*
X032664Y001993D01*
X032536Y001993D01*
X032419Y001945D01*
X032329Y001855D01*
X032280Y001737D01*
X032280Y001610D01*
X032329Y001492D01*
X032419Y001402D01*
X032536Y001353D01*
X032664Y001353D01*
X032498Y001369D02*
X030022Y001369D01*
X030206Y001528D02*
X032314Y001528D01*
X032280Y001686D02*
X030240Y001686D01*
X030195Y001845D02*
X032325Y001845D01*
X032875Y001845D02*
X036036Y001845D01*
X036015Y002003D02*
X029833Y002003D01*
X029833Y002162D02*
X036015Y002162D01*
X036058Y002320D02*
X029833Y002320D01*
X029833Y002479D02*
X036124Y002479D01*
X036262Y002637D02*
X029833Y002637D01*
X029833Y002796D02*
X030066Y002796D01*
X029905Y002954D02*
X029833Y002954D01*
X029833Y003113D02*
X029880Y003113D01*
X029833Y003271D02*
X029954Y003271D01*
X030066Y003430D02*
X029833Y003430D01*
X029833Y003588D02*
X029995Y003588D01*
X029980Y003747D02*
X029833Y003747D01*
X029833Y003905D02*
X030014Y003905D01*
X030113Y004064D02*
X029833Y004064D01*
X029833Y004222D02*
X030378Y004222D01*
X030582Y004222D02*
X033188Y004222D01*
X033188Y004381D02*
X030718Y004381D01*
X030903Y004539D02*
X033228Y004539D01*
X033294Y004698D02*
X030969Y004698D01*
X030980Y004856D02*
X033418Y004856D01*
X033605Y005015D02*
X030942Y005015D01*
X030242Y004381D02*
X029833Y004381D01*
X029833Y004539D02*
X030057Y004539D01*
X029991Y004698D02*
X029833Y004698D01*
X029833Y004856D02*
X029980Y004856D01*
X030018Y005015D02*
X029833Y005015D01*
X029833Y005173D02*
X030123Y005173D01*
X030847Y004064D02*
X033205Y004064D01*
X033271Y003905D02*
X030946Y003905D01*
X030980Y003747D02*
X033363Y003747D01*
X033522Y003588D02*
X032618Y003588D01*
X032142Y003588D02*
X030965Y003588D01*
X030894Y003430D02*
X032060Y003430D01*
X032076Y003271D02*
X030695Y003271D01*
X030294Y002796D02*
X036496Y002796D01*
X035369Y003430D02*
X037775Y003430D01*
X037775Y003588D02*
X035420Y003588D01*
X035391Y003747D02*
X037775Y003747D01*
X037775Y003905D02*
X035857Y003905D01*
X035900Y004064D02*
X037775Y004064D01*
X037775Y004222D02*
X035865Y004222D01*
X035303Y003905D02*
X035231Y003905D01*
X036101Y001686D02*
X032920Y001686D01*
X032886Y001528D02*
X036207Y001528D01*
X036808Y007394D02*
X036826Y007394D01*
X036901Y007406D01*
X036973Y007429D01*
X037040Y007464D01*
X037101Y007508D01*
X037154Y007562D01*
X037199Y007623D01*
X037233Y007690D01*
X037256Y007762D01*
X037268Y007836D01*
X037268Y007854D01*
X036808Y007854D01*
X036808Y007394D01*
X036808Y007551D02*
X036768Y007551D01*
X036768Y007709D02*
X036808Y007709D01*
X036808Y007854D02*
X036768Y007854D01*
X036768Y007894D01*
X036308Y007894D01*
X036308Y007912D01*
X036320Y007987D01*
X036343Y008058D01*
X036378Y008126D01*
X036422Y008187D01*
X036476Y008240D01*
X036537Y008285D01*
X036604Y008319D01*
X036676Y008342D01*
X036750Y008354D01*
X036768Y008354D01*
X036768Y007894D01*
X036808Y007894D01*
X037268Y007894D01*
X037268Y007912D01*
X037256Y007987D01*
X037233Y008058D01*
X037199Y008126D01*
X037154Y008187D01*
X037101Y008240D01*
X037040Y008285D01*
X036973Y008319D01*
X036901Y008342D01*
X036826Y008354D01*
X036808Y008354D01*
X036808Y007894D01*
X036808Y007854D01*
X036808Y007868D02*
X037775Y007868D01*
X037775Y008026D02*
X037244Y008026D01*
X037156Y008185D02*
X037775Y008185D01*
X037775Y008343D02*
X036894Y008343D01*
X036808Y008343D02*
X036768Y008343D01*
X036682Y008343D02*
X032634Y008343D01*
X032720Y008185D02*
X036421Y008185D01*
X036333Y008026D02*
X032700Y008026D01*
X032563Y007868D02*
X036768Y007868D01*
X036768Y008026D02*
X036808Y008026D01*
X036808Y008185D02*
X036768Y008185D01*
X037239Y007709D02*
X037775Y007709D01*
X037775Y007551D02*
X037144Y007551D01*
X037775Y008502D02*
X031419Y008502D01*
X031440Y008660D02*
X033782Y008660D01*
X033491Y008819D02*
X031359Y008819D01*
X030615Y007709D02*
X029833Y007709D01*
X029833Y007551D02*
X030704Y007551D01*
X034295Y008660D02*
X037775Y008660D01*
X037775Y008819D02*
X034585Y008819D01*
X034744Y008977D02*
X037775Y008977D01*
X037775Y009136D02*
X034818Y009136D01*
X030738Y010562D02*
X028030Y010562D01*
X028060Y010721D02*
X030660Y010721D01*
X030678Y010879D02*
X027998Y010879D01*
X027522Y010879D02*
X023878Y010879D01*
X023541Y011038D02*
X030792Y011038D01*
X028940Y011989D02*
X032692Y011989D01*
X032595Y012147D02*
X029020Y012147D01*
X028998Y012306D02*
X032598Y012306D01*
X032698Y012464D02*
X028850Y012464D01*
X028420Y012147D02*
X024828Y012147D01*
X024997Y011989D02*
X028500Y011989D01*
X026420Y011513D02*
X024966Y011513D01*
X024721Y011355D02*
X026451Y011355D01*
X027627Y013574D02*
X024480Y013574D01*
X024439Y013732D02*
X027521Y013732D01*
X028347Y014842D02*
X025450Y014842D01*
X025418Y014683D02*
X034096Y014683D01*
X034264Y014683D02*
X034446Y014683D01*
X033910Y014842D02*
X028693Y014842D01*
X028806Y015000D02*
X033880Y015000D01*
X033941Y015159D02*
X028818Y015159D01*
X026901Y016585D02*
X036849Y016585D01*
X036802Y016427D02*
X035041Y016427D01*
X035080Y016268D02*
X036811Y016268D01*
X036878Y016110D02*
X035037Y016110D01*
X037260Y016110D02*
X037300Y016110D01*
X037300Y016268D02*
X037260Y016268D01*
X037260Y016427D02*
X037300Y016427D01*
X037300Y016585D02*
X037260Y016585D01*
X037260Y016744D02*
X037300Y016744D01*
X037775Y017061D02*
X032600Y017061D01*
X032537Y017219D02*
X037775Y017219D01*
X037300Y015951D02*
X037260Y015951D01*
X037260Y015793D02*
X037300Y015793D01*
X037300Y015634D02*
X037260Y015634D01*
X037260Y015476D02*
X037300Y015476D01*
X037300Y015317D02*
X037260Y015317D01*
X037260Y015159D02*
X037300Y015159D01*
X037300Y015000D02*
X037260Y015000D01*
X032490Y016110D02*
X026583Y016110D01*
X026377Y016110D02*
X025533Y016110D01*
X025514Y016102D02*
X025669Y016166D01*
X025787Y016285D01*
X025851Y016440D01*
X025851Y016607D01*
X025787Y016762D01*
X025669Y016881D01*
X025514Y016945D01*
X025346Y016945D01*
X025191Y016881D01*
X025073Y016762D01*
X025009Y016607D01*
X025009Y016440D01*
X025073Y016285D01*
X025191Y016166D01*
X025346Y016102D01*
X025514Y016102D01*
X025327Y016110D02*
X004348Y016110D01*
X004334Y016143D02*
X004250Y016228D01*
X004140Y016273D01*
X004020Y016273D01*
X003910Y016228D01*
X003826Y016143D01*
X003780Y016033D01*
X003780Y015914D01*
X003826Y015804D01*
X003910Y015719D01*
X004020Y015673D01*
X004140Y015673D01*
X004250Y015719D01*
X004334Y015804D01*
X004380Y015914D01*
X004380Y016033D01*
X004334Y016143D01*
X004380Y015951D02*
X020767Y015951D01*
X020993Y015951D02*
X021267Y015951D01*
X021153Y015476D02*
X021107Y015476D01*
X020653Y015476D02*
X015484Y015476D01*
X015372Y015634D02*
X020580Y015634D01*
X020605Y015793D02*
X004324Y015793D01*
X003836Y015793D02*
X000380Y015793D01*
X000380Y015951D02*
X003780Y015951D01*
X003812Y016110D02*
X000380Y016110D01*
X000380Y016268D02*
X004008Y016268D01*
X004152Y016268D02*
X024401Y016268D01*
X024410Y016259D02*
X024520Y016213D01*
X024640Y016213D01*
X024750Y016259D01*
X024834Y016344D01*
X024880Y016454D01*
X024880Y016573D01*
X024834Y016683D01*
X024758Y016760D01*
X024780Y016814D01*
X024780Y016933D01*
X024734Y017043D01*
X024650Y017128D01*
X024540Y017173D01*
X024420Y017173D01*
X024310Y017128D01*
X024226Y017043D01*
X024180Y016933D01*
X024180Y016814D01*
X024226Y016704D01*
X024302Y016627D01*
X024280Y016573D01*
X024280Y016454D01*
X024326Y016344D01*
X024410Y016259D01*
X024291Y016427D02*
X002436Y016427D01*
X002451Y016442D02*
X002361Y016352D01*
X002244Y016303D01*
X002116Y016303D01*
X001999Y016352D01*
X001909Y016442D01*
X001860Y016560D01*
X001860Y016687D01*
X001909Y016805D01*
X001999Y016895D01*
X002116Y016943D01*
X002244Y016943D01*
X002361Y016895D01*
X002451Y016805D01*
X002500Y016687D01*
X002500Y016560D01*
X002451Y016442D01*
X002500Y016585D02*
X024285Y016585D01*
X024209Y016744D02*
X023403Y016744D01*
X023361Y016702D02*
X023451Y016792D01*
X023500Y016910D01*
X023500Y017037D01*
X023451Y017155D01*
X023361Y017245D01*
X023244Y017293D01*
X023116Y017293D01*
X022999Y017245D01*
X022909Y017155D01*
X022860Y017037D01*
X022860Y016910D01*
X022909Y016792D01*
X022999Y016702D01*
X023116Y016653D01*
X023244Y016653D01*
X023361Y016702D01*
X023497Y016902D02*
X024180Y016902D01*
X024243Y017061D02*
X023490Y017061D01*
X023387Y017219D02*
X032023Y017219D01*
X031960Y017061D02*
X024717Y017061D01*
X024780Y016902D02*
X025244Y016902D01*
X025065Y016744D02*
X024774Y016744D01*
X024875Y016585D02*
X025009Y016585D01*
X025014Y016427D02*
X024869Y016427D01*
X024759Y016268D02*
X025089Y016268D01*
X025771Y016268D02*
X026139Y016268D01*
X026064Y016427D02*
X025846Y016427D01*
X025851Y016585D02*
X026059Y016585D01*
X026115Y016744D02*
X025795Y016744D01*
X025616Y016902D02*
X026294Y016902D01*
X026666Y016902D02*
X031984Y016902D01*
X032119Y016744D02*
X026845Y016744D01*
X030316Y017853D02*
X030444Y017853D01*
X030177Y019121D02*
X029595Y019121D01*
X029794Y019280D02*
X029973Y019280D01*
X029900Y019438D02*
X029865Y019438D01*
X029880Y019597D02*
X029885Y019597D01*
X029919Y019755D02*
X029846Y019755D01*
X029747Y019914D02*
X030020Y019914D01*
X029013Y019914D02*
X028747Y019914D01*
X028846Y019755D02*
X028914Y019755D01*
X028880Y019597D02*
X028880Y019597D01*
X028865Y019438D02*
X028895Y019438D01*
X028966Y019280D02*
X028794Y019280D01*
X028595Y019121D02*
X029165Y019121D01*
X026880Y020548D02*
X012959Y020548D01*
X012948Y020706D02*
X026894Y020706D01*
X026964Y020865D02*
X012841Y020865D01*
X012309Y020072D02*
X010780Y020072D01*
X010736Y019914D02*
X012300Y019914D01*
X012331Y019755D02*
X010760Y019755D01*
X010715Y019597D02*
X012408Y019597D01*
X012405Y019438D02*
X010740Y019438D01*
X010686Y019280D02*
X012389Y019280D01*
X012383Y019121D02*
X010720Y019121D01*
X010676Y018963D02*
X012379Y018963D01*
X012360Y018804D02*
X010700Y018804D01*
X010657Y018646D02*
X012369Y018646D01*
X012261Y018487D02*
X002990Y018487D01*
X002990Y018430D02*
X002867Y018132D01*
X002639Y017904D01*
X002341Y017781D01*
X002019Y017781D01*
X001721Y017904D01*
X001493Y018132D01*
X001370Y018430D01*
X001370Y018752D01*
X001493Y019050D01*
X001721Y019278D01*
X002019Y019401D01*
X002341Y019401D01*
X002639Y019278D01*
X002867Y019050D01*
X002990Y018752D01*
X002990Y018430D01*
X002949Y018329D02*
X011057Y018329D01*
X010890Y018170D02*
X002883Y018170D01*
X002747Y018012D02*
X010860Y018012D01*
X010908Y017853D02*
X002517Y017853D01*
X001843Y017853D02*
X000380Y017853D01*
X000380Y017695D02*
X012166Y017695D01*
X011697Y018329D02*
X011623Y018329D01*
X011377Y018329D02*
X011303Y018329D01*
X010103Y018646D02*
X002990Y018646D01*
X002968Y018804D02*
X009896Y018804D01*
X009803Y018963D02*
X004562Y018963D01*
X004961Y019121D02*
X009810Y019121D01*
X009800Y019280D02*
X005068Y019280D01*
X005354Y019438D02*
X009817Y019438D01*
X009820Y019597D02*
X005400Y019597D01*
X005368Y019755D02*
X009836Y019755D01*
X009847Y019914D02*
X005191Y019914D01*
X004969Y019914D02*
X004265Y019914D01*
X004256Y019755D02*
X004792Y019755D01*
X004531Y019597D02*
X004280Y019597D01*
X004432Y020072D02*
X009648Y020072D01*
X009580Y020231D02*
X004544Y020231D01*
X004682Y020389D02*
X009602Y020389D01*
X009626Y020548D02*
X004866Y020548D01*
X005066Y020706D02*
X007391Y020706D01*
X007309Y020865D02*
X006491Y020865D01*
X006309Y020865D02*
X006080Y020865D01*
X005800Y020865D02*
X005604Y020865D01*
X005666Y021340D02*
X005674Y021340D01*
X004834Y021340D02*
X003244Y021340D01*
X003086Y021182D02*
X004636Y021182D01*
X004519Y021023D02*
X002927Y021023D01*
X002769Y020865D02*
X004305Y020865D01*
X004260Y020706D02*
X002610Y020706D01*
X002452Y020548D02*
X004002Y020548D01*
X003920Y020389D02*
X002293Y020389D01*
X002135Y020231D02*
X003725Y020231D01*
X003640Y020072D02*
X001976Y020072D01*
X001818Y019914D02*
X003655Y019914D01*
X003664Y019755D02*
X001659Y019755D01*
X001501Y019597D02*
X003640Y019597D01*
X003702Y019438D02*
X001342Y019438D01*
X001184Y019280D02*
X001727Y019280D01*
X001565Y019121D02*
X001025Y019121D01*
X000867Y018963D02*
X001457Y018963D01*
X001392Y018804D02*
X000708Y018804D01*
X000550Y018646D02*
X001370Y018646D01*
X001370Y018487D02*
X000391Y018487D01*
X000380Y018329D02*
X001411Y018329D01*
X001477Y018170D02*
X000380Y018170D01*
X000380Y018012D02*
X001613Y018012D01*
X000380Y017219D02*
X022094Y017219D01*
X022060Y017061D02*
X000380Y017061D01*
X000380Y016902D02*
X002017Y016902D01*
X001884Y016744D02*
X000380Y016744D01*
X000380Y016585D02*
X001860Y016585D01*
X001924Y016427D02*
X000380Y016427D01*
X000380Y015634D02*
X014988Y015634D01*
X014876Y015476D02*
X000380Y015476D01*
X000380Y015317D02*
X014860Y015317D01*
X014942Y015159D02*
X013747Y015159D01*
X013751Y015155D02*
X013661Y015245D01*
X013544Y015293D01*
X013416Y015293D01*
X013299Y015245D01*
X013209Y015155D01*
X013160Y015037D01*
X013160Y014910D01*
X013209Y014792D01*
X013299Y014702D01*
X013416Y014653D01*
X013544Y014653D01*
X013661Y014702D01*
X013751Y014792D01*
X013800Y014910D01*
X013800Y015037D01*
X013751Y015155D01*
X013800Y015000D02*
X023345Y015000D01*
X023155Y014842D02*
X013772Y014842D01*
X013616Y014683D02*
X023120Y014683D01*
X023163Y014525D02*
X007400Y014525D01*
X007400Y014537D02*
X007351Y014655D01*
X007261Y014745D01*
X007144Y014793D01*
X007016Y014793D01*
X006899Y014745D01*
X006809Y014655D01*
X006760Y014537D01*
X006760Y014410D01*
X006809Y014292D01*
X006899Y014202D01*
X007016Y014153D01*
X007144Y014153D01*
X007261Y014202D01*
X007351Y014292D01*
X007400Y014410D01*
X007400Y014537D01*
X007323Y014683D02*
X013344Y014683D01*
X013188Y014842D02*
X005150Y014842D01*
X005134Y014804D02*
X005180Y014914D01*
X005180Y015033D01*
X005134Y015143D01*
X005050Y015228D01*
X004940Y015273D01*
X004820Y015273D01*
X004710Y015228D01*
X004626Y015143D01*
X004580Y015033D01*
X004580Y014914D01*
X004626Y014804D01*
X004710Y014719D01*
X004820Y014673D01*
X004940Y014673D01*
X005050Y014719D01*
X005134Y014804D01*
X005180Y015000D02*
X013160Y015000D01*
X013213Y015159D02*
X005119Y015159D01*
X004641Y015159D02*
X000380Y015159D01*
X000380Y015000D02*
X004580Y015000D01*
X004610Y014842D02*
X000380Y014842D01*
X000380Y014683D02*
X004796Y014683D01*
X004964Y014683D02*
X006837Y014683D01*
X006760Y014525D02*
X000380Y014525D01*
X000380Y014366D02*
X006778Y014366D01*
X006893Y014208D02*
X000380Y014208D01*
X000380Y014049D02*
X008960Y014049D01*
X008989Y014208D02*
X007267Y014208D01*
X007382Y014366D02*
X009151Y014366D01*
X009010Y013891D02*
X000380Y013891D01*
X000380Y011989D02*
X000431Y011989D01*
X000380Y011513D02*
X010396Y011513D01*
X010410Y011528D02*
X010326Y011443D01*
X010280Y011333D01*
X010280Y011214D01*
X010326Y011104D01*
X010410Y011019D01*
X010520Y010973D01*
X010640Y010973D01*
X010750Y011019D01*
X010760Y011029D01*
X010760Y011010D01*
X010809Y010892D01*
X010899Y010802D01*
X011016Y010753D01*
X011144Y010753D01*
X011261Y010802D01*
X011351Y010892D01*
X011400Y011010D01*
X011400Y011137D01*
X011351Y011255D01*
X011261Y011345D01*
X011144Y011393D01*
X011016Y011393D01*
X010899Y011345D01*
X010880Y011326D01*
X010880Y011333D01*
X010834Y011443D01*
X010750Y011528D01*
X010640Y011573D01*
X010520Y011573D01*
X010410Y011528D01*
X010289Y011355D02*
X009637Y011355D01*
X009661Y011345D02*
X009544Y011393D01*
X009416Y011393D01*
X009299Y011345D01*
X009209Y011255D01*
X009160Y011137D01*
X009160Y011010D01*
X009209Y010892D01*
X009299Y010802D01*
X009416Y010753D01*
X009544Y010753D01*
X009661Y010802D01*
X009751Y010892D01*
X009800Y011010D01*
X009800Y011137D01*
X009751Y011255D01*
X009661Y011345D01*
X009775Y011196D02*
X010287Y011196D01*
X010391Y011038D02*
X009800Y011038D01*
X009739Y010879D02*
X010821Y010879D01*
X011339Y010879D02*
X012378Y010879D01*
X012280Y011038D02*
X011400Y011038D01*
X011375Y011196D02*
X012259Y011196D01*
X012299Y011355D02*
X011237Y011355D01*
X010923Y011355D02*
X010871Y011355D01*
X010764Y011513D02*
X012424Y011513D01*
X012520Y012073D02*
X012640Y012073D01*
X012750Y012119D01*
X012834Y012204D01*
X012880Y012314D01*
X012880Y012433D01*
X012834Y012543D01*
X012750Y012628D01*
X012640Y012673D01*
X012520Y012673D01*
X012410Y012628D01*
X012326Y012543D01*
X012280Y012433D01*
X012280Y012314D01*
X012326Y012204D01*
X012410Y012119D01*
X012520Y012073D01*
X012382Y012147D02*
X011878Y012147D01*
X011977Y012306D02*
X012283Y012306D01*
X012293Y012464D02*
X011967Y012464D01*
X011855Y012623D02*
X012405Y012623D01*
X012755Y012623D02*
X013077Y012623D01*
X013099Y012645D02*
X013009Y012555D01*
X012960Y012437D01*
X012960Y012310D01*
X013009Y012192D01*
X013099Y012102D01*
X013216Y012053D01*
X013344Y012053D01*
X013461Y012102D01*
X013551Y012192D01*
X013600Y012310D01*
X013600Y012437D01*
X013551Y012555D01*
X013461Y012645D01*
X013344Y012693D01*
X013216Y012693D01*
X013099Y012645D01*
X012971Y012464D02*
X012867Y012464D01*
X012877Y012306D02*
X012962Y012306D01*
X013053Y012147D02*
X012778Y012147D01*
X013507Y012147D02*
X017300Y012147D01*
X017300Y012197D02*
X017300Y012070D01*
X017349Y011952D01*
X017439Y011862D01*
X017556Y011813D01*
X017684Y011813D01*
X017801Y011862D01*
X017891Y011952D01*
X017940Y012070D01*
X017940Y012197D01*
X017891Y012315D01*
X017801Y012405D01*
X017684Y012453D01*
X017556Y012453D01*
X017439Y012405D01*
X017349Y012315D01*
X017300Y012197D01*
X017345Y012306D02*
X016357Y012306D01*
X015803Y012306D02*
X013598Y012306D01*
X013589Y012464D02*
X015760Y012464D01*
X015796Y012623D02*
X013483Y012623D01*
X013608Y013098D02*
X007300Y013098D01*
X007271Y012940D02*
X019817Y012940D01*
X020017Y012781D02*
X016173Y012781D01*
X015987Y012781D02*
X007111Y012781D01*
X007249Y013257D02*
X013482Y013257D01*
X015439Y013732D02*
X018834Y013732D01*
X018620Y013574D02*
X015904Y013574D01*
X015980Y013415D02*
X018580Y013415D01*
X018618Y013257D02*
X015956Y013257D01*
X017895Y012306D02*
X022310Y012306D01*
X022149Y012147D02*
X017940Y012147D01*
X017907Y011989D02*
X022120Y011989D01*
X022170Y011830D02*
X017725Y011830D01*
X017515Y011830D02*
X015380Y011830D01*
X015289Y011989D02*
X017333Y011989D01*
X018709Y010715D02*
X018799Y010805D01*
X018916Y010853D01*
X019044Y010853D01*
X019161Y010805D01*
X019251Y010715D01*
X019300Y010597D01*
X019300Y010470D01*
X019251Y010352D01*
X019161Y010262D01*
X019044Y010213D01*
X018916Y010213D01*
X018799Y010262D01*
X018709Y010352D01*
X018660Y010470D01*
X018660Y010597D01*
X018709Y010715D01*
X018715Y010721D02*
X014903Y010721D01*
X014994Y010562D02*
X015829Y010562D01*
X015791Y010546D02*
X015667Y010423D01*
X015600Y010261D01*
X015600Y010086D01*
X015667Y009924D01*
X015791Y009800D01*
X015952Y009733D01*
X016128Y009733D01*
X016289Y009800D01*
X016413Y009924D01*
X016480Y010086D01*
X016480Y010261D01*
X016413Y010423D01*
X016289Y010546D01*
X016128Y010613D01*
X015952Y010613D01*
X015791Y010546D01*
X015659Y010404D02*
X015059Y010404D01*
X015073Y010245D02*
X015600Y010245D01*
X015600Y010087D02*
X015073Y010087D01*
X015027Y009928D02*
X015665Y009928D01*
X015864Y009770D02*
X014961Y009770D01*
X013880Y009453D02*
X006641Y009453D01*
X006637Y009462D02*
X006519Y009581D01*
X006364Y009645D01*
X006196Y009645D01*
X006041Y009581D01*
X005923Y009462D01*
X005859Y009307D01*
X005859Y009140D01*
X005923Y008985D01*
X006041Y008866D01*
X006196Y008802D01*
X006364Y008802D01*
X006519Y008866D01*
X006637Y008985D01*
X006701Y009140D01*
X006701Y009307D01*
X006637Y009462D01*
X006701Y009294D02*
X011636Y009294D01*
X011535Y009136D02*
X006700Y009136D01*
X006630Y008977D02*
X010760Y008977D01*
X010726Y008943D02*
X010697Y008873D01*
X010620Y008873D01*
X010510Y008828D01*
X010426Y008743D01*
X010380Y008633D01*
X010380Y008514D01*
X010426Y008404D01*
X010510Y008319D01*
X010620Y008273D01*
X010740Y008273D01*
X010850Y008319D01*
X010934Y008404D01*
X010963Y008473D01*
X011040Y008473D01*
X011150Y008519D01*
X011234Y008604D01*
X011280Y008714D01*
X011280Y008833D01*
X011234Y008943D01*
X011150Y009028D01*
X011040Y009073D01*
X010920Y009073D01*
X010810Y009028D01*
X010726Y008943D01*
X010501Y008819D02*
X006405Y008819D01*
X006155Y008819D02*
X000380Y008819D01*
X000380Y008977D02*
X005930Y008977D01*
X005860Y009136D02*
X000380Y009136D01*
X000380Y009294D02*
X005859Y009294D01*
X005919Y009453D02*
X000380Y009453D01*
X000380Y009611D02*
X006115Y009611D01*
X006445Y009611D02*
X013656Y009611D01*
X013519Y009770D02*
X000380Y009770D01*
X000380Y009928D02*
X012532Y009928D01*
X012596Y009902D02*
X012764Y009902D01*
X012919Y009966D01*
X013037Y010085D01*
X013101Y010240D01*
X013101Y010407D01*
X013037Y010562D01*
X012919Y010681D01*
X012764Y010745D01*
X012596Y010745D01*
X012441Y010681D01*
X012323Y010562D01*
X012259Y010407D01*
X012259Y010240D01*
X012323Y010085D01*
X012441Y009966D01*
X012596Y009902D01*
X012828Y009928D02*
X013453Y009928D01*
X013407Y010087D02*
X013038Y010087D01*
X013101Y010245D02*
X013407Y010245D01*
X013420Y010404D02*
X013101Y010404D01*
X013037Y010562D02*
X013486Y010562D01*
X013577Y010721D02*
X012822Y010721D01*
X012982Y010879D02*
X013735Y010879D01*
X014744Y010879D02*
X019379Y010879D01*
X019403Y010721D02*
X019245Y010721D01*
X019300Y010562D02*
X019432Y010562D01*
X019278Y010404D02*
X019273Y010404D01*
X019250Y010245D02*
X019121Y010245D01*
X019304Y010087D02*
X017480Y010087D01*
X017480Y010086D02*
X017413Y009924D01*
X017289Y009800D01*
X017128Y009733D01*
X016952Y009733D01*
X016791Y009800D01*
X016667Y009924D01*
X016600Y010086D01*
X016600Y010261D01*
X016667Y010423D01*
X016791Y010546D01*
X016952Y010613D01*
X017128Y010613D01*
X017289Y010546D01*
X017413Y010423D01*
X017480Y010261D01*
X017480Y010086D01*
X017480Y010245D02*
X018839Y010245D01*
X018687Y010404D02*
X017421Y010404D01*
X017251Y010562D02*
X018660Y010562D01*
X017415Y009928D02*
X020360Y009928D01*
X020397Y009770D02*
X017216Y009770D01*
X016864Y009770D02*
X016216Y009770D01*
X016415Y009928D02*
X016665Y009928D01*
X016600Y010087D02*
X016480Y010087D01*
X016480Y010245D02*
X016600Y010245D01*
X016659Y010404D02*
X016421Y010404D01*
X016251Y010562D02*
X016829Y010562D01*
X020063Y011196D02*
X022010Y011196D01*
X021909Y011038D02*
X020184Y011038D01*
X020221Y010879D02*
X021904Y010879D01*
X022000Y010721D02*
X020197Y010721D01*
X012538Y010721D02*
X006651Y010721D01*
X006651Y010690D02*
X006587Y010535D01*
X006469Y010416D01*
X006314Y010352D01*
X006146Y010352D01*
X005991Y010416D01*
X005873Y010535D01*
X005809Y010690D01*
X005809Y010857D01*
X005873Y011012D01*
X005991Y011131D01*
X006146Y011195D01*
X006314Y011195D01*
X006469Y011131D01*
X006587Y011012D01*
X006651Y010857D01*
X006651Y010690D01*
X006599Y010562D02*
X012323Y010562D01*
X012259Y010404D02*
X006439Y010404D01*
X006021Y010404D02*
X005656Y010404D01*
X005651Y010392D02*
X005700Y010510D01*
X005700Y010637D01*
X005651Y010755D01*
X005561Y010845D01*
X005444Y010893D01*
X005316Y010893D01*
X005199Y010845D01*
X005109Y010755D01*
X005060Y010637D01*
X005060Y010510D01*
X005109Y010392D01*
X005199Y010302D01*
X005316Y010253D01*
X005444Y010253D01*
X005561Y010302D01*
X005651Y010392D01*
X005700Y010562D02*
X005861Y010562D01*
X005809Y010721D02*
X005665Y010721D01*
X005818Y010879D02*
X005477Y010879D01*
X005283Y010879D02*
X004939Y010879D01*
X004951Y010892D02*
X005000Y011010D01*
X005000Y011137D01*
X004951Y011255D01*
X004861Y011345D01*
X004744Y011393D01*
X004616Y011393D01*
X004499Y011345D01*
X004409Y011255D01*
X004360Y011137D01*
X004360Y011010D01*
X004409Y010892D01*
X004499Y010802D01*
X004616Y010753D01*
X004744Y010753D01*
X004861Y010802D01*
X004951Y010892D01*
X005000Y011038D02*
X005898Y011038D01*
X006562Y011038D02*
X008490Y011038D01*
X008509Y010992D02*
X008599Y010902D01*
X008716Y010853D01*
X008844Y010853D01*
X008961Y010902D01*
X009051Y010992D01*
X009100Y011110D01*
X009100Y011237D01*
X009051Y011355D01*
X009323Y011355D01*
X009185Y011196D02*
X009100Y011196D01*
X009070Y011038D02*
X009160Y011038D01*
X009221Y010879D02*
X008906Y010879D01*
X008654Y010879D02*
X006642Y010879D01*
X005095Y010721D02*
X000380Y010721D01*
X000380Y010879D02*
X004421Y010879D01*
X004360Y011038D02*
X000380Y011038D01*
X000380Y011196D02*
X004385Y011196D01*
X004523Y011355D02*
X000380Y011355D01*
X000380Y010562D02*
X005060Y010562D01*
X005104Y010404D02*
X000380Y010404D01*
X000380Y010245D02*
X012259Y010245D01*
X012322Y010087D02*
X000380Y010087D01*
X000380Y008660D02*
X008414Y008660D01*
X008409Y008655D02*
X008360Y008537D01*
X008360Y008410D01*
X008409Y008292D01*
X008499Y008202D01*
X008616Y008153D01*
X008744Y008153D01*
X008861Y008202D01*
X008951Y008292D01*
X009000Y008410D01*
X009000Y008537D01*
X008951Y008655D01*
X008861Y008745D01*
X008744Y008793D01*
X008616Y008793D01*
X008499Y008745D01*
X008409Y008655D01*
X008360Y008502D02*
X002226Y008502D01*
X002192Y008536D02*
X002022Y008606D01*
X001838Y008606D01*
X001668Y008536D01*
X001538Y008405D01*
X001468Y008235D01*
X001468Y008051D01*
X001538Y007881D01*
X001668Y007751D01*
X001838Y007681D01*
X002022Y007681D01*
X002192Y007751D01*
X002322Y007881D01*
X002392Y008051D01*
X002392Y008235D01*
X002322Y008405D01*
X002192Y008536D01*
X002348Y008343D02*
X008387Y008343D01*
X008540Y008185D02*
X002392Y008185D01*
X002382Y008026D02*
X010730Y008026D01*
X010733Y007868D02*
X002309Y007868D01*
X002091Y007709D02*
X010798Y007709D01*
X010945Y007551D02*
X000380Y007551D01*
X000380Y007709D02*
X001769Y007709D01*
X001551Y007868D02*
X000380Y007868D01*
X000380Y008026D02*
X001478Y008026D01*
X001468Y008185D02*
X000380Y008185D01*
X000380Y008343D02*
X001512Y008343D01*
X001634Y008502D02*
X000380Y008502D01*
X000380Y007392D02*
X011535Y007392D01*
X011535Y007234D02*
X000380Y007234D01*
X000380Y007075D02*
X000940Y007075D01*
X000934Y007073D02*
X000706Y006845D01*
X000582Y006547D01*
X000582Y006225D01*
X000706Y005927D01*
X000934Y005699D01*
X001231Y005576D01*
X001554Y005576D01*
X001852Y005699D01*
X002079Y005927D01*
X002203Y006225D01*
X002203Y006547D01*
X002079Y006845D01*
X001852Y007073D01*
X001554Y007196D01*
X001231Y007196D01*
X000934Y007073D01*
X000778Y006917D02*
X000380Y006917D01*
X000380Y006758D02*
X000670Y006758D01*
X000604Y006600D02*
X000380Y006600D01*
X000380Y006441D02*
X000582Y006441D01*
X000582Y006283D02*
X000380Y006283D01*
X000380Y006124D02*
X000624Y006124D01*
X000690Y005966D02*
X000380Y005966D01*
X000380Y005807D02*
X000825Y005807D01*
X001055Y005649D02*
X000380Y005649D01*
X000380Y005490D02*
X011535Y005490D01*
X011535Y005649D02*
X008559Y005649D01*
X008553Y005642D02*
X008606Y005696D01*
X008651Y005757D01*
X008685Y005824D01*
X008708Y005896D01*
X008720Y005971D01*
X008720Y005988D01*
X008260Y005988D01*
X008260Y005528D01*
X008278Y005528D01*
X008352Y005540D01*
X008424Y005564D01*
X008492Y005598D01*
X008553Y005642D01*
X008676Y005807D02*
X011535Y005807D01*
X011535Y005966D02*
X008719Y005966D01*
X008720Y006028D02*
X008720Y006046D01*
X008708Y006121D01*
X008685Y006193D01*
X008651Y006260D01*
X008606Y006321D01*
X008553Y006375D01*
X008492Y006419D01*
X008424Y006453D01*
X008352Y006477D01*
X008278Y006488D01*
X008260Y006488D01*
X008260Y006028D01*
X008720Y006028D01*
X008707Y006124D02*
X011535Y006124D01*
X011535Y006283D02*
X008634Y006283D01*
X008447Y006441D02*
X011535Y006441D01*
X011535Y006600D02*
X002181Y006600D01*
X002203Y006441D02*
X003720Y006441D01*
X003711Y006438D02*
X003643Y006404D01*
X003582Y006360D01*
X003529Y006306D01*
X003484Y006245D01*
X003450Y006178D01*
X003427Y006106D01*
X003415Y006031D01*
X003415Y006013D01*
X003875Y006013D01*
X003875Y005973D01*
X003915Y005973D01*
X003915Y005513D01*
X003933Y005513D01*
X004007Y005525D01*
X004079Y005549D01*
X004147Y005583D01*
X004208Y005627D01*
X004261Y005681D01*
X004306Y005742D01*
X004340Y005809D01*
X004363Y005881D01*
X004375Y005956D01*
X004375Y005973D01*
X003915Y005973D01*
X003915Y006013D01*
X004375Y006013D01*
X004375Y006031D01*
X004363Y006106D01*
X004340Y006178D01*
X004306Y006245D01*
X004261Y006306D01*
X004208Y006360D01*
X004147Y006404D01*
X004079Y006438D01*
X004007Y006462D01*
X003933Y006473D01*
X003915Y006473D01*
X003915Y006013D01*
X003875Y006013D01*
X003875Y006473D01*
X003857Y006473D01*
X003783Y006462D01*
X003711Y006438D01*
X003875Y006441D02*
X003915Y006441D01*
X004070Y006441D02*
X004770Y006441D01*
X004712Y006417D02*
X004571Y006277D01*
X004495Y006093D01*
X004495Y005894D01*
X004571Y005710D01*
X004712Y005570D01*
X004896Y005493D01*
X005094Y005493D01*
X005278Y005570D01*
X005419Y005710D01*
X005495Y005894D01*
X005495Y006093D01*
X005419Y006277D01*
X005278Y006417D01*
X005094Y006493D01*
X004896Y006493D01*
X004712Y006417D01*
X004577Y006283D02*
X004278Y006283D01*
X004357Y006124D02*
X004508Y006124D01*
X004495Y005966D02*
X004375Y005966D01*
X004339Y005807D02*
X004531Y005807D01*
X004632Y005649D02*
X004229Y005649D01*
X003915Y005649D02*
X003875Y005649D01*
X003875Y005513D02*
X003875Y005973D01*
X003415Y005973D01*
X003415Y005956D01*
X003427Y005881D01*
X003450Y005809D01*
X003484Y005742D01*
X003529Y005681D01*
X003582Y005627D01*
X003643Y005583D01*
X003711Y005549D01*
X003783Y005525D01*
X003857Y005513D01*
X003875Y005513D01*
X003875Y005807D02*
X003915Y005807D01*
X003915Y005966D02*
X003875Y005966D01*
X003875Y006124D02*
X003915Y006124D01*
X003915Y006283D02*
X003875Y006283D01*
X003512Y006283D02*
X002203Y006283D01*
X002161Y006124D02*
X003433Y006124D01*
X003415Y005966D02*
X002096Y005966D01*
X001960Y005807D02*
X003451Y005807D01*
X003561Y005649D02*
X001730Y005649D01*
X002115Y006758D02*
X011535Y006758D01*
X011535Y006917D02*
X002008Y006917D01*
X001845Y007075D02*
X011535Y007075D01*
X011515Y007551D02*
X011535Y007551D01*
X010776Y008185D02*
X008820Y008185D01*
X008973Y008343D02*
X010486Y008343D01*
X010385Y008502D02*
X009000Y008502D01*
X008946Y008660D02*
X010391Y008660D01*
X010874Y008343D02*
X010893Y008343D01*
X011108Y008502D02*
X011535Y008502D01*
X011535Y008660D02*
X011258Y008660D01*
X011280Y008819D02*
X011535Y008819D01*
X011535Y008977D02*
X011200Y008977D01*
X008509Y010992D02*
X008460Y011110D01*
X008460Y011237D01*
X008509Y011355D01*
X004837Y011355D01*
X004975Y011196D02*
X008460Y011196D01*
X008509Y011355D02*
X008599Y011445D01*
X008716Y011493D01*
X008844Y011493D01*
X008961Y011445D01*
X009051Y011355D01*
X008220Y006488D02*
X008202Y006488D01*
X008128Y006477D01*
X008056Y006453D01*
X007988Y006419D01*
X007927Y006375D01*
X007874Y006321D01*
X007829Y006260D01*
X007795Y006193D01*
X007772Y006121D01*
X007760Y006046D01*
X007760Y006028D01*
X008220Y006028D01*
X008220Y005988D01*
X008260Y005988D01*
X008260Y006028D01*
X008220Y006028D01*
X008220Y006488D01*
X008220Y006441D02*
X008260Y006441D01*
X008260Y006283D02*
X008220Y006283D01*
X008220Y006124D02*
X008260Y006124D01*
X008220Y005988D02*
X007760Y005988D01*
X007760Y005971D01*
X007772Y005896D01*
X007795Y005824D01*
X007829Y005757D01*
X007874Y005696D01*
X007927Y005642D01*
X007988Y005598D01*
X008056Y005564D01*
X008128Y005540D01*
X008202Y005528D01*
X008220Y005528D01*
X008220Y005988D01*
X008220Y005966D02*
X008260Y005966D01*
X008260Y005807D02*
X008220Y005807D01*
X008220Y005649D02*
X008260Y005649D01*
X007921Y005649D02*
X007488Y005649D01*
X007423Y005585D02*
X007564Y005725D01*
X007640Y005909D01*
X007640Y006108D01*
X007564Y006292D01*
X007423Y006432D01*
X007239Y006508D01*
X007041Y006508D01*
X006857Y006432D01*
X006716Y006292D01*
X006640Y006108D01*
X006640Y005909D01*
X006716Y005725D01*
X006857Y005585D01*
X007041Y005508D01*
X007239Y005508D01*
X007423Y005585D01*
X007598Y005807D02*
X007804Y005807D01*
X007761Y005966D02*
X007640Y005966D01*
X007633Y006124D02*
X007773Y006124D01*
X007846Y006283D02*
X007567Y006283D01*
X007401Y006441D02*
X008033Y006441D01*
X006879Y006441D02*
X005220Y006441D01*
X005413Y006283D02*
X006713Y006283D01*
X006647Y006124D02*
X005482Y006124D01*
X005495Y005966D02*
X006640Y005966D01*
X006682Y005807D02*
X005459Y005807D01*
X005358Y005649D02*
X006792Y005649D01*
X002476Y016744D02*
X022957Y016744D01*
X022863Y016902D02*
X022656Y016902D01*
X022700Y017061D02*
X022870Y017061D01*
X022973Y017219D02*
X022666Y017219D01*
X022104Y016902D02*
X002343Y016902D01*
X002903Y018963D02*
X003738Y018963D01*
X003632Y019121D02*
X002795Y019121D01*
X002633Y019280D02*
X003621Y019280D01*
X007176Y021023D02*
X007299Y021023D01*
X007350Y021182D02*
X007220Y021182D01*
X007185Y021340D02*
X007505Y021340D01*
X007935Y021340D02*
X008114Y021340D01*
X008131Y020865D02*
X008240Y020865D01*
X008049Y020706D02*
X009600Y020706D01*
X009659Y020865D02*
X008791Y020865D01*
X008609Y020865D02*
X008520Y020865D01*
X008981Y021499D02*
X006999Y021499D01*
X006801Y021499D02*
X003403Y021499D01*
X014723Y020231D02*
X015579Y020231D01*
X015599Y020241D02*
X015532Y020207D01*
X015470Y020162D01*
X015417Y020109D01*
X015373Y020048D01*
X015338Y019981D01*
X015315Y019909D01*
X015303Y019834D01*
X015303Y019816D01*
X015763Y019816D01*
X015763Y019776D01*
X015803Y019776D01*
X015803Y019316D01*
X015821Y019316D01*
X015896Y019328D01*
X015967Y019351D01*
X016035Y019386D01*
X016096Y019430D01*
X016149Y019484D01*
X016194Y019545D01*
X016228Y019612D01*
X016251Y019684D01*
X016263Y019759D01*
X016263Y019776D01*
X015803Y019776D01*
X015803Y019816D01*
X016263Y019816D01*
X016263Y019834D01*
X016251Y019909D01*
X016228Y019981D01*
X016194Y020048D01*
X016149Y020109D01*
X016096Y020162D01*
X016035Y020207D01*
X015967Y020241D01*
X015896Y020264D01*
X015821Y020276D01*
X015803Y020276D01*
X015803Y019816D01*
X015763Y019816D01*
X015763Y020276D01*
X015745Y020276D01*
X015671Y020264D01*
X015599Y020241D01*
X015763Y020231D02*
X015803Y020231D01*
X015803Y020072D02*
X015763Y020072D01*
X015763Y019914D02*
X015803Y019914D01*
X015763Y019776D02*
X015303Y019776D01*
X015303Y019759D01*
X015315Y019684D01*
X015338Y019612D01*
X015373Y019545D01*
X015417Y019484D01*
X015470Y019430D01*
X015532Y019386D01*
X015599Y019351D01*
X015671Y019328D01*
X015745Y019316D01*
X015763Y019316D01*
X015763Y019776D01*
X015763Y019755D02*
X015803Y019755D01*
X015803Y019597D02*
X015763Y019597D01*
X015763Y019438D02*
X015803Y019438D01*
X016104Y019438D02*
X016434Y019438D01*
X016500Y019372D02*
X016684Y019296D01*
X016883Y019296D01*
X017066Y019372D01*
X017207Y019513D01*
X017283Y019697D01*
X017359Y019513D01*
X017500Y019372D01*
X017684Y019296D01*
X017883Y019296D01*
X018066Y019372D01*
X018207Y019513D01*
X018283Y019697D01*
X018359Y019513D01*
X018500Y019372D01*
X018684Y019296D01*
X018883Y019296D01*
X019066Y019372D01*
X019207Y019513D01*
X019283Y019697D01*
X019359Y019513D01*
X019500Y019372D01*
X019684Y019296D01*
X019883Y019296D01*
X020066Y019372D01*
X020207Y019513D01*
X020283Y019697D01*
X020359Y019513D01*
X020500Y019372D01*
X020684Y019296D01*
X020883Y019296D01*
X021066Y019372D01*
X021207Y019513D01*
X021283Y019697D01*
X021359Y019513D01*
X021500Y019372D01*
X021684Y019296D01*
X021883Y019296D01*
X022066Y019372D01*
X022207Y019513D01*
X022283Y019697D01*
X022283Y019896D01*
X022207Y020080D01*
X022066Y020220D01*
X021883Y020296D01*
X021684Y020296D01*
X021500Y020220D01*
X021359Y020080D01*
X021283Y019896D01*
X021207Y020080D01*
X021066Y020220D01*
X020883Y020296D01*
X020684Y020296D01*
X020500Y020220D01*
X020359Y020080D01*
X020283Y019896D01*
X020207Y020080D01*
X020066Y020220D01*
X019883Y020296D01*
X019684Y020296D01*
X019500Y020220D01*
X019359Y020080D01*
X019283Y019896D01*
X019207Y020080D01*
X019066Y020220D01*
X018883Y020296D01*
X018684Y020296D01*
X018500Y020220D01*
X018359Y020080D01*
X018283Y019896D01*
X018207Y020080D01*
X018066Y020220D01*
X017883Y020296D01*
X017684Y020296D01*
X017500Y020220D01*
X017359Y020080D01*
X017283Y019896D01*
X017207Y020080D01*
X017066Y020220D01*
X016883Y020296D01*
X016684Y020296D01*
X016500Y020220D01*
X016359Y020080D01*
X016283Y019896D01*
X016283Y019697D01*
X016359Y019513D01*
X016500Y019372D01*
X016325Y019597D02*
X016220Y019597D01*
X016263Y019755D02*
X016283Y019755D01*
X016291Y019914D02*
X016250Y019914D01*
X016176Y020072D02*
X016356Y020072D01*
X016526Y020231D02*
X015987Y020231D01*
X015391Y020072D02*
X014882Y020072D01*
X014985Y019914D02*
X015317Y019914D01*
X015304Y019755D02*
X015051Y019755D01*
X015073Y019597D02*
X015346Y019597D01*
X015462Y019438D02*
X015073Y019438D01*
X015035Y019280D02*
X022578Y019280D01*
X022541Y019438D02*
X022132Y019438D01*
X022242Y019597D02*
X022541Y019597D01*
X022563Y019755D02*
X022283Y019755D01*
X022276Y019914D02*
X022628Y019914D01*
X022732Y020072D02*
X022210Y020072D01*
X022040Y020231D02*
X022890Y020231D01*
X021526Y020231D02*
X021040Y020231D01*
X021210Y020072D02*
X021356Y020072D01*
X021291Y019914D02*
X021276Y019914D01*
X021283Y019896D02*
X021283Y019697D01*
X021283Y019896D01*
X021283Y019755D02*
X021283Y019755D01*
X021242Y019597D02*
X021325Y019597D01*
X021434Y019438D02*
X021132Y019438D01*
X020434Y019438D02*
X020132Y019438D01*
X020242Y019597D02*
X020325Y019597D01*
X020283Y019697D02*
X020283Y019896D01*
X020283Y019697D01*
X020283Y019755D02*
X020283Y019755D01*
X020276Y019914D02*
X020291Y019914D01*
X020356Y020072D02*
X020210Y020072D01*
X020040Y020231D02*
X020526Y020231D01*
X019526Y020231D02*
X019040Y020231D01*
X019210Y020072D02*
X019356Y020072D01*
X019291Y019914D02*
X019276Y019914D01*
X019283Y019896D02*
X019283Y019697D01*
X019283Y019896D01*
X019283Y019755D02*
X019283Y019755D01*
X019242Y019597D02*
X019325Y019597D01*
X019434Y019438D02*
X019132Y019438D01*
X018434Y019438D02*
X018132Y019438D01*
X018242Y019597D02*
X018325Y019597D01*
X018283Y019697D02*
X018283Y019896D01*
X018283Y019697D01*
X018283Y019755D02*
X018283Y019755D01*
X018276Y019914D02*
X018291Y019914D01*
X018356Y020072D02*
X018210Y020072D01*
X018040Y020231D02*
X018526Y020231D01*
X017526Y020231D02*
X017040Y020231D01*
X017210Y020072D02*
X017356Y020072D01*
X017291Y019914D02*
X017276Y019914D01*
X017283Y019896D02*
X017283Y019697D01*
X017283Y019896D01*
X017283Y019755D02*
X017283Y019755D01*
X017242Y019597D02*
X017325Y019597D01*
X017434Y019438D02*
X017132Y019438D01*
X014970Y019121D02*
X022644Y019121D01*
X022769Y018963D02*
X014845Y018963D01*
X014650Y018804D02*
X022964Y018804D01*
X021113Y018329D02*
X019540Y018329D01*
X019580Y018170D02*
X020995Y018170D01*
X020981Y018012D02*
X019538Y018012D01*
X019022Y018012D02*
X018166Y018012D01*
X018272Y017853D02*
X021076Y017853D01*
D17*
X022380Y017073D03*
X023180Y016973D03*
X021630Y016373D03*
X023440Y014693D03*
X023780Y014323D03*
X025130Y014823D03*
X026680Y015373D03*
X028630Y015523D03*
X030480Y015573D03*
X032280Y017023D03*
X031130Y017123D03*
X030380Y018173D03*
X029730Y017723D03*
X029080Y018373D03*
X027980Y017873D03*
X027130Y018323D03*
X026580Y017773D03*
X032780Y015973D03*
X035000Y015593D03*
X033130Y013873D03*
X033580Y013473D03*
X033380Y013073D03*
X032980Y012923D03*
X032910Y012223D03*
X034030Y011723D03*
X034730Y012123D03*
X034880Y011673D03*
X036280Y011073D03*
X035330Y010323D03*
X034830Y010523D03*
X034192Y010561D03*
X035180Y009723D03*
X037680Y009573D03*
X037630Y008773D03*
X034380Y007123D03*
X032880Y005773D03*
X031930Y006973D03*
X030180Y008273D03*
X028420Y009413D03*
X029880Y009813D03*
X030980Y010773D03*
X032460Y010483D03*
X030430Y013103D03*
X029980Y013523D03*
X029430Y013513D03*
X027830Y013823D03*
X026680Y013603D03*
X026740Y011493D03*
X025520Y011243D03*
X023030Y011473D03*
X022440Y012013D03*
X022780Y012773D03*
X020100Y013093D03*
X018900Y013413D03*
X017620Y012133D03*
X016080Y012473D03*
X013780Y013373D03*
X013280Y012373D03*
X011080Y011073D03*
X011030Y010173D03*
X009480Y011073D03*
X008780Y011173D03*
X007530Y010173D03*
X007080Y009923D03*
X005380Y010573D03*
X004680Y011073D03*
X002880Y011423D03*
X000880Y010473D03*
X000580Y012273D03*
X000530Y013773D03*
X002780Y015073D03*
X003780Y014193D03*
X007080Y014473D03*
X008030Y013823D03*
X009280Y014073D03*
X009710Y015223D03*
X012580Y016123D03*
X014080Y016123D03*
X015180Y015373D03*
X013480Y014973D03*
X012380Y017933D03*
X012120Y018113D03*
X011820Y018033D03*
X011500Y018033D03*
X011180Y018033D03*
X010380Y018813D03*
X010120Y019033D03*
X010400Y019133D03*
X010420Y019473D03*
X010120Y019333D03*
X010140Y019653D03*
X010440Y019793D03*
X010460Y020113D03*
X010160Y019993D03*
X009900Y020273D03*
X010200Y020433D03*
X010300Y020773D03*
X010060Y020993D03*
X009820Y021193D03*
X009460Y021193D03*
X009080Y021193D03*
X008700Y021173D03*
X008380Y021153D03*
X006900Y021193D03*
X006400Y021173D03*
X005940Y021153D03*
X005420Y021133D03*
X005080Y021133D03*
X004820Y020913D03*
X004580Y020693D03*
X004240Y020333D03*
X003960Y020013D03*
X003960Y019633D03*
X003940Y019213D03*
X004320Y019173D03*
X004760Y019373D03*
X005080Y019613D03*
X005550Y018673D03*
X007780Y017853D03*
X010600Y020473D03*
X010940Y020473D03*
X011280Y020473D03*
X011620Y020473D03*
X011960Y020473D03*
X012300Y020453D03*
X012160Y020753D03*
X011780Y020793D03*
X011380Y020813D03*
X011020Y020813D03*
X010660Y020813D03*
X010440Y021173D03*
X010980Y021213D03*
X011560Y021213D03*
X012140Y021153D03*
X012640Y020613D03*
X012580Y020253D03*
X012980Y020213D03*
X012940Y019793D03*
X012620Y019893D03*
X012720Y019513D03*
X013040Y019453D03*
X013020Y019073D03*
X012700Y019193D03*
X012680Y018853D03*
X012980Y018733D03*
X012660Y018513D03*
X012960Y018373D03*
X012760Y018073D03*
X012460Y018233D03*
X009920Y020673D03*
X002180Y016623D03*
X006980Y013073D03*
X009480Y008673D03*
X008680Y008473D03*
X006480Y008423D03*
X002930Y007573D03*
X009630Y005723D03*
X017620Y010533D03*
X018980Y010533D03*
X019570Y010273D03*
X020680Y009923D03*
X020550Y010913D03*
X022220Y010953D03*
X022230Y009873D03*
X031640Y013353D03*
X037410Y017773D03*
X034880Y018823D03*
X034180Y020573D03*
X032780Y020573D03*
X037630Y004273D03*
X035580Y004073D03*
X035100Y003613D03*
X032880Y002493D03*
X032600Y001673D03*
X033920Y001523D03*
X032380Y003373D03*
X029920Y001673D03*
D18*
X030180Y003073D03*
X033980Y006373D03*
X032420Y008133D03*
X031140Y008613D03*
X027760Y010693D03*
X027140Y009773D03*
X030530Y011223D03*
X031730Y011723D03*
X034480Y012523D03*
X035180Y012923D03*
X035180Y013273D03*
X035180Y013613D03*
X035180Y013953D03*
X034480Y013973D03*
X034070Y013983D03*
X033580Y013973D03*
X032660Y014373D03*
X031260Y013553D03*
X028720Y012193D03*
X024180Y013573D03*
X023580Y013673D03*
X021380Y015673D03*
X020880Y015673D03*
X017980Y017773D03*
X019280Y018173D03*
X021280Y018073D03*
X024480Y016873D03*
X024580Y016513D03*
X028520Y015093D03*
X032260Y015473D03*
X033180Y015973D03*
X034280Y016273D03*
X034780Y016273D03*
X034530Y014973D03*
X034180Y014973D03*
X035280Y011673D03*
X015680Y013373D03*
X015280Y013473D03*
X015080Y011773D03*
X015480Y011473D03*
X012580Y012373D03*
X011680Y012373D03*
X011280Y012273D03*
X010580Y011273D03*
X007480Y011223D03*
X010980Y008773D03*
X010680Y008573D03*
X004880Y014973D03*
X005430Y015673D03*
X005730Y015673D03*
X006030Y015673D03*
X006130Y015973D03*
X005830Y015973D03*
X005530Y015973D03*
X005430Y016273D03*
X005730Y016273D03*
X006030Y016273D03*
X006130Y016573D03*
X005830Y016573D03*
X005530Y016573D03*
X004080Y015973D03*
D19*
X001930Y008143D03*
D20*
X030380Y019573D03*
D21*
X031720Y010663D03*
M02*
