  0
SECTION
  2
HEADER
  9
$ACADVER
  1
AC1009
  9
$FILLMODE
 70
0
  9
$EXTMIN
 10
-0.2642
 20
-12.8866
 30
0.0000
  9
$EXTMAX
 10
96.2787
 20
42.3012
 30
0.0000
  0
ENDSEC
  0
SECTION
  2
TABLES
  0
TABLE
  2
LTYPE
 70
1
  0
LTYPE
  2
CONTINUOUS
 70
64
  3
Solid line
 72
65
 73
0
 40
0
  0
ENDTAB
  0
TABLE
  2
LAYER
 70
255
  0
LAYER
  2
20
 70
64
 62
53
  6
CONTINUOUS
  0
LAYER
  2
31
 70
64
 62
253
  6
CONTINUOUS
  0
LAYER
  2
40
 70
64
 62
141
  6
CONTINUOUS
  0
ENDTAB
  0
ENDSEC
  0
SECTION
  2
BLOCKS
  0
BLOCK
  8
0
  2
RECT
 70
64
 10
0.0000
 20
0.0000
 30
0.0000
  3
RECT
  0
SOLID
  8
0
 10
-0.5000
 20
-0.5000
 30
0.0000
 11
0.5000
 21
-0.5000
 31
0.0000
 12
-0.5000
 22
0.5000
 32
0.0000
 13
0.5000
 23
0.5000
 33
0.0000
  0
ENDBLK
  8
0
  0
BLOCK
  8
0
  2
PIE
 70
64
 10
0.0000
 20
0.0000
 30
0.0000
  3
PIE
  0
CIRCLE
  8
0
 10
0.0000
 20
0.0000
 30
0.0000
 40
0.5000
  0
ENDBLK
  8
0
  0
BLOCK
  8
0
  2
OCTAGONP
 70
64
 10
0.0000
 20
0.0000
 30
0.0000
  3
OCTAGONP
  0
POLYLINE
  8
0
 66
1
 10
0.0000
 20
0.0000
 30
0.0000
 40
0.0000
 41
0.0000
 70
1
  0
VERTEX
  8
0
 10
-0.5000
 20
-0.2071
 30
0.0000
  0
VERTEX
  8
0
 10
-0.5000
 20
0.2071
 30
0.0000
  0
VERTEX
  8
0
 10
-0.2071
 20
0.5000
 30
0.0000
  0
VERTEX
  8
0
 10
0.2071
 20
0.5000
 30
0.0000
  0
VERTEX
  8
0
 10
0.5000
 20
0.2071
 30
0.0000
  0
VERTEX
  8
0
 10
0.5000
 20
-0.2071
 30
0.0000
  0
VERTEX
  8
0
 10
0.2071
 20
-0.5000
 30
0.0000
  0
VERTEX
  8
0
 10
-0.2071
 20
-0.5000
 30
0.0000
  0
SEQEND
  8
0
  0
ENDBLK
  8
0
  0
BLOCK
  8
0
  2
SQUAREP
 70
64
 10
0.0000
 20
0.0000
 30
0.0000
  3
SQUAREP
  0
SOLID
  8
0
 10
-0.5000
 20
-0.5000
 30
0.0000
 11
0.5000
 21
-0.5000
 31
0.0000
 12
-0.5000
 22
0.5000
 32
0.0000
 13
0.5000
 23
0.5000
 33
0.0000
  0
ENDBLK
  8
0
  0
BLOCK
  8
0
  2
ROUNDP
 70
64
 10
0.0000
 20
0.0000
 30
0.0000
  3
ROUNDP
  0
CIRCLE
  8
0
 10
0.0000
 20
0.0000
 30
0.0000
 40
0.5000
  0
ENDBLK
  8
0
  0
BLOCK
  8
0
  2
ANNULUSP
 70
64
 10
0.0000
 20
0.0000
 30
0.0000
  3
ANNULUSP
  0
CIRCLE
  8
0
 10
0.0000
 20
0.0000
 30
0.0000
 40
0.5000
  0
ENDBLK
  8
0
  0
BLOCK
  8
0
  2
THERMALP
 70
64
 10
0.0000
 20
0.0000
 30
0.0000
  3
THERMALP
  0
POLYLINE
  8
0
 66
1
 10
0.0000
 20
0.0000
 30
0.0000
 40
0.0000
 41
0.0000
 70
1
  0
VERTEX
  8
0
 10
-0.2379
 20
0.4000
 30
0.0000
  0
VERTEX
  8
0
 10
0.2379
 20
0.4000
 30
0.0000
 42
1.0000
  0
VERTEX
  8
0
 10
0.2379
 20
0.5000
 30
0.0000
  0
VERTEX
  8
0
 10
-0.2379
 20
0.5000
 30
0.0000
 42
1.0000
  0
SEQEND
  8
0
  0
POLYLINE
  8
0
 66
1
 10
0.0000
 20
0.0000
 30
0.0000
 40
0.0000
 41
0.0000
 70
1
  0
VERTEX
  8
0
 10
0.4000
 20
0.2379
 30
0.0000
  0
VERTEX
  8
0
 10
0.4000
 20
-0.2379
 30
0.0000
 42
1.0000
  0
VERTEX
  8
0
 10
0.5000
 20
-0.2379
 30
0.0000
  0
VERTEX
  8
0
 10
0.5000
 20
0.2379
 30
0.0000
 42
1.0000
  0
SEQEND
  8
0
  0
POLYLINE
  8
0
 66
1
 10
0.0000
 20
0.0000
 30
0.0000
 40
0.0000
 41
0.0000
 70
1
  0
VERTEX
  8
0
 10
0.2379
 20
-0.4000
 30
0.0000
  0
VERTEX
  8
0
 10
-0.2379
 20
-0.4000
 30
0.0000
 42
1.0000
  0
VERTEX
  8
0
 10
-0.2379
 20
-0.5000
 30
0.0000
  0
VERTEX
  8
0
 10
0.2379
 20
-0.5000
 30
0.0000
 42
1.0000
  0
SEQEND
  8
0
  0
POLYLINE
  8
0
 66
1
 10
0.0000
 20
0.0000
 30
0.0000
 40
0.0000
 41
0.0000
 70
1
  0
VERTEX
  8
0
 10
-0.4000
 20
-0.2379
 30
0.0000
  0
VERTEX
  8
0
 10
-0.4000
 20
0.2379
 30
0.0000
 42
1.0000
  0
VERTEX
  8
0
 10
-0.5000
 20
0.2379
 30
0.0000
  0
VERTEX
  8
0
 10
-0.5000
 20
-0.2379
 30
0.0000
 42
1.0000
  0
SEQEND
  8
0
  0
ENDBLK
  8
0
  0
BLOCK
  8
0
  2
OCTAGONV
 70
64
 10
0.0000
 20
0.0000
 30
0.0000
  3
OCTAGONV
  0
POLYLINE
  8
0
 66
1
 10
0.0000
 20
0.0000
 30
0.0000
 40
0.0000
 41
0.0000
 70
1
  0
VERTEX
  8
0
 10
-0.5000
 20
-0.2071
 30
0.0000
  0
VERTEX
  8
0
 10
-0.5000
 20
0.2071
 30
0.0000
  0
VERTEX
  8
0
 10
-0.2071
 20
0.5000
 30
0.0000
  0
VERTEX
  8
0
 10
0.2071
 20
0.5000
 30
0.0000
  0
VERTEX
  8
0
 10
0.5000
 20
0.2071
 30
0.0000
  0
VERTEX
  8
0
 10
0.5000
 20
-0.2071
 30
0.0000
  0
VERTEX
  8
0
 10
0.2071
 20
-0.5000
 30
0.0000
  0
VERTEX
  8
0
 10
-0.2071
 20
-0.5000
 30
0.0000
  0
SEQEND
  8
0
  0
ENDBLK
  8
0
  0
BLOCK
  8
0
  2
SQUAREV
 70
64
 10
0.0000
 20
0.0000
 30
0.0000
  3
SQUAREV
  0
SOLID
  8
0
 10
-0.5000
 20
-0.5000
 30
0.0000
 11
0.5000
 21
-0.5000
 31
0.0000
 12
-0.5000
 22
0.5000
 32
0.0000
 13
0.5000
 23
0.5000
 33
0.0000
  0
ENDBLK
  8
0
  0
BLOCK
  8
0
  2
ROUNDV
 70
64
 10
0.0000
 20
0.0000
 30
0.0000
  3
ROUNDV
  0
CIRCLE
  8
0
 10
0.0000
 20
0.0000
 30
0.0000
 40
0.5000
  0
ENDBLK
  8
0
  0
BLOCK
  8
0
  2
ANNULUSV
 70
64
 10
0.0000
 20
0.0000
 30
0.0000
  3
ANNULUSV
  0
CIRCLE
  8
0
 10
0.0000
 20
0.0000
 30
0.0000
 40
0.5000
  0
ENDBLK
  8
0
  0
BLOCK
  8
0
  2
THERMALV
 70
64
 10
0.0000
 20
0.0000
 30
0.0000
  3
THERMALV
  0
POLYLINE
  8
0
 66
1
 10
0.0000
 20
0.0000
 30
0.0000
 40
0.0000
 41
0.0000
 70
1
  0
VERTEX
  8
0
 10
-0.2379
 20
0.4000
 30
0.0000
  0
VERTEX
  8
0
 10
0.2379
 20
0.4000
 30
0.0000
 42
1.0000
  0
VERTEX
  8
0
 10
0.2379
 20
0.5000
 30
0.0000
  0
VERTEX
  8
0
 10
-0.2379
 20
0.5000
 30
0.0000
 42
1.0000
  0
SEQEND
  8
0
  0
POLYLINE
  8
0
 66
1
 10
0.0000
 20
0.0000
 30
0.0000
 40
0.0000
 41
0.0000
 70
1
  0
VERTEX
  8
0
 10
0.4000
 20
0.2379
 30
0.0000
  0
VERTEX
  8
0
 10
0.4000
 20
-0.2379
 30
0.0000
 42
1.0000
  0
VERTEX
  8
0
 10
0.5000
 20
-0.2379
 30
0.0000
  0
VERTEX
  8
0
 10
0.5000
 20
0.2379
 30
0.0000
 42
1.0000
  0
SEQEND
  8
0
  0
POLYLINE
  8
0
 66
1
 10
0.0000
 20
0.0000
 30
0.0000
 40
0.0000
 41
0.0000
 70
1
  0
VERTEX
  8
0
 10
0.2379
 20
-0.4000
 30
0.0000
  0
VERTEX
  8
0
 10
-0.2379
 20
-0.4000
 30
0.0000
 42
1.0000
  0
VERTEX
  8
0
 10
-0.2379
 20
-0.5000
 30
0.0000
  0
VERTEX
  8
0
 10
0.2379
 20
-0.5000
 30
0.0000
 42
1.0000
  0
SEQEND
  8
0
  0
POLYLINE
  8
0
 66
1
 10
0.0000
 20
0.0000
 30
0.0000
 40
0.0000
 41
0.0000
 70
1
  0
VERTEX
  8
0
 10
-0.4000
 20
-0.2379
 30
0.0000
  0
VERTEX
  8
0
 10
-0.4000
 20
0.2379
 30
0.0000
 42
1.0000
  0
VERTEX
  8
0
 10
-0.5000
 20
0.2379
 30
0.0000
  0
VERTEX
  8
0
 10
-0.5000
 20
-0.2379
 30
0.0000
 42
1.0000
  0
SEQEND
  8
0
  0
ENDBLK
  8
0
  0
BLOCK
  8
0
  2
RECT0X0R100
 70
64
 10
0.0000
 20
0.0000
 30
0.0000
  3
RECT0X0R100
  0
POLYLINE
  8
0
 66
1
 10
0.0000
 20
0.0000
 30
0.0000
 40
0.0000
 41
0.0000
 70
1
  0
VERTEX
  8
0
 10
0.0000
 20
0.0000
 30
0.0000
  0
VERTEX
  8
0
 10
0.0000
 20
0.0000
 30
0.0000
 42
0.4142
  0
VERTEX
  8
0
 10
0.0000
 20
0.0000
 30
0.0000
  0
VERTEX
  8
0
 10
0.0000
 20
0.0000
 30
0.0000
 42
0.4142
  0
VERTEX
  8
0
 10
0.0000
 20
0.0000
 30
0.0000
  0
VERTEX
  8
0
 10
0.0000
 20
0.0000
 30
0.0000
 42
0.4142
  0
VERTEX
  8
0
 10
0.0000
 20
0.0000
 30
0.0000
  0
VERTEX
  8
0
 10
0.0000
 20
0.0000
 30
0.0000
 42
0.4142
  0
SEQEND
  8
0
  0
ENDBLK
  8
0
  0
BLOCK
  8
0
  2
LONGP100
 70
64
 10
0.0000
 20
0.0000
 30
0.0000
  3
LONGP100
  0
POLYLINE
  8
0
 66
1
 10
0.0000
 20
0.0000
 30
0.0000
 40
0.0000
 41
0.0000
 70
1
  0
VERTEX
  8
0
 10
-0.5000
 20
-0.5000
 30
0.0000
  0
VERTEX
  8
0
 10
0.5000
 20
-0.5000
 30
0.0000
 42
1.0000
  0
VERTEX
  8
0
 10
0.5000
 20
0.5000
 30
0.0000
  0
VERTEX
  8
0
 10
-0.5000
 20
0.5000
 30
0.0000
 42
1.0000
  0
SEQEND
  8
0
  0
ENDBLK
  8
0
  0
BLOCK
  8
0
  2
RECT608000X200000R50
 70
64
 10
0.0000
 20
0.0000
 30
0.0000
  3
RECT608000X200000R50
  0
POLYLINE
  8
0
 66
1
 10
0.0000
 20
0.0000
 30
0.0000
 40
0.0000
 41
0.0000
 70
1
  0
VERTEX
  8
0
 10
1.9000
 20
-0.3125
 30
0.0000
  0
VERTEX
  8
0
 10
1.9000
 20
0.3125
 30
0.0000
 42
0.4142
  0
VERTEX
  8
0
 10
1.5875
 20
0.6250
 30
0.0000
  0
VERTEX
  8
0
 10
-1.5875
 20
0.6250
 30
0.0000
 42
0.4142
  0
VERTEX
  8
0
 10
-1.9000
 20
0.3125
 30
0.0000
  0
VERTEX
  8
0
 10
-1.9000
 20
-0.3125
 30
0.0000
 42
0.4142
  0
VERTEX
  8
0
 10
-1.5875
 20
-0.6250
 30
0.0000
  0
VERTEX
  8
0
 10
1.5875
 20
-0.6250
 30
0.0000
 42
0.4142
  0
SEQEND
  8
0
  0
ENDBLK
  8
0
  0
ENDSEC
  0
SECTION
  2
ENTITIES
  0
LINE
  8
20
 10
96.0000
 20
-11.0000
 30
0.0000
 11
96.0000
 21
34.0000
 31
0.0000
  0
LINE
  8
20
 10
96.0000
 20
34.0000
 30
0.0000
 11
88.0028
 21
41.9972
 31
0.0000
  0
LINE
  8
20
 10
88.0028
 20
41.9972
 30
0.0000
 11
7.9972
 21
41.9972
 31
0.0000
  0
LINE
  8
20
 10
7.9972
 20
41.9972
 30
0.0000
 11
0.0000
 21
34.0000
 31
0.0000
  0
LINE
  8
20
 10
0.0000
 20
34.0000
 30
0.0000
 11
0.0000
 21
0.0000
 31
0.0000
  0
LINE
  8
20
 10
0.0000
 20
0.0000
 30
0.0000
 11
29.3500
 21
0.0000
 31
0.0000
  0
LINE
  8
20
 10
29.3500
 20
0.0000
 30
0.0000
 11
29.3500
 21
10.0000
 31
0.0000
  0
LINE
  8
20
 10
29.3500
 20
10.0000
 30
0.0000
 11
74.8100
 21
10.0000
 31
0.0000
  0
LINE
  8
20
 10
74.8100
 20
10.0000
 30
0.0000
 11
74.8100
 21
-11.0000
 31
0.0000
  0
LINE
  8
20
 10
74.8100
 20
-11.0000
 30
0.0000
 11
96.0000
 21
-11.0000
 31
0.0000
  0
CIRCLE
  8
20
 10
5.0800
 20
34.0800
 30
0.0000
 40
1.5500
  0
CIRCLE
  8
20
 10
91.0800
 20
34.0800
 30
0.0000
 40
1.5500
  0
CIRCLE
  8
20
 10
3.0800
 20
3.0800
 30
0.0000
 40
1.5500
  0
CIRCLE
  8
20
 10
93.0800
 20
-7.9200
 30
0.0000
 40
1.5500
  0
INSERT
  8
31
  2
RECT
 10
47.1424
 20
18.8680
 30
0.0000
 41
2.6000
 42
3.4000
 43
1.0000
 50
270.0000
  0
INSERT
  8
31
  2
RECT
 10
47.1424
 20
27.8680
 30
0.0000
 41
2.6000
 42
3.4000
 43
1.0000
 50
270.0000
  0
INSERT
  8
31
  2
RECT
 10
2.0320
 20
14.5940
 30
0.0000
 41
0.8000
 42
1.2000
 43
1.0000
 50
90.0000
  0
INSERT
  8
31
  2
RECT
 10
2.0320
 20
16.3940
 30
0.0000
 41
0.8000
 42
1.2000
 43
1.0000
 50
90.0000
  0
INSERT
  8
31
  2
RECT
 10
78.0559
 20
32.9311
 30
0.0000
 41
0.8000
 42
1.2000
 43
1.0000
 50
0.0000
  0
INSERT
  8
31
  2
RECT
 10
79.8559
 20
32.9311
 30
0.0000
 41
0.8000
 42
1.2000
 43
1.0000
 50
0.0000
  0
INSERT
  8
31
  2
RECT
 10
86.6521
 20
37.3029
 30
0.0000
 41
1.6000
 42
1.8000
 43
1.0000
 50
270.0000
  0
INSERT
  8
31
  2
RECT
 10
86.6521
 20
34.5029
 30
0.0000
 41
1.6000
 42
1.8000
 43
1.0000
 50
270.0000
  0
INSERT
  8
31
  2
RECT
 10
74.5981
 20
28.7909
 30
0.0000
 41
0.8000
 42
1.2000
 43
1.0000
 50
180.0000
  0
INSERT
  8
31
  2
RECT
 10
72.7981
 20
28.7909
 30
0.0000
 41
0.8000
 42
1.2000
 43
1.0000
 50
180.0000
  0
INSERT
  8
31
  2
RECT
 10
82.8899
 20
29.8831
 30
0.0000
 41
1.6000
 42
1.8000
 43
1.0000
 50
0.0000
  0
INSERT
  8
31
  2
RECT
 10
85.6899
 20
29.8831
 30
0.0000
 41
1.6000
 42
1.8000
 43
1.0000
 50
0.0000
  0
INSERT
  8
31
  2
RECT
 10
55.0029
 20
12.1479
 30
0.0000
 41
0.8000
 42
1.2000
 43
1.0000
 50
180.0000
  0
INSERT
  8
31
  2
RECT
 10
53.2029
 20
12.1479
 30
0.0000
 41
0.8000
 42
1.2000
 43
1.0000
 50
180.0000
  0
INSERT
  8
31
  2
RECT
 10
53.1379
 20
14.5931
 30
0.0000
 41
0.8000
 42
1.2000
 43
1.0000
 50
90.0000
  0
INSERT
  8
31
  2
RECT
 10
53.1379
 20
16.3931
 30
0.0000
 41
0.8000
 42
1.2000
 43
1.0000
 50
90.0000
  0
INSERT
  8
31
  2
RECT
 10
56.0578
 20
25.6383
 30
0.0000
 41
1.6000
 42
1.8000
 43
1.0000
 50
90.0000
  0
INSERT
  8
31
  2
RECT
 10
56.0578
 20
28.4383
 30
0.0000
 41
1.6000
 42
1.8000
 43
1.0000
 50
90.0000
  0
INSERT
  8
31
  2
RECT
 10
5.3848
 20
24.7633
 30
0.0000
 41
0.8000
 42
1.2000
 43
1.0000
 50
270.0000
  0
INSERT
  8
31
  2
RECT
 10
5.3848
 20
22.9633
 30
0.0000
 41
0.8000
 42
1.2000
 43
1.0000
 50
270.0000
  0
INSERT
  8
31
  2
RECT
 10
55.7657
 20
19.0898
 30
0.0000
 41
0.8000
 42
1.2000
 43
1.0000
 50
90.0000
  0
INSERT
  8
31
  2
RECT
 10
55.7657
 20
20.8898
 30
0.0000
 41
0.8000
 42
1.2000
 43
1.0000
 50
90.0000
  0
INSERT
  8
31
  2
RECT
 10
93.9800
 20
9.2600
 30
0.0000
 41
0.8000
 42
1.2000
 43
1.0000
 50
90.0000
  0
INSERT
  8
31
  2
RECT
 10
93.9800
 20
11.0600
 30
0.0000
 41
0.8000
 42
1.2000
 43
1.0000
 50
90.0000
  0
INSERT
  8
31
  2
RECT
 10
25.1604
 20
3.4290
 30
0.0000
 41
0.8000
 42
1.2000
 43
1.0000
 50
0.0000
  0
INSERT
  8
31
  2
RECT
 10
26.9604
 20
3.4290
 30
0.0000
 41
0.8000
 42
1.2000
 43
1.0000
 50
0.0000
  0
INSERT
  8
31
  2
RECT
 10
64.4415
 20
16.8910
 30
0.0000
 41
0.8000
 42
1.2000
 43
1.0000
 50
0.0000
  0
INSERT
  8
31
  2
RECT
 10
66.2415
 20
16.8910
 30
0.0000
 41
0.8000
 42
1.2000
 43
1.0000
 50
0.0000
  0
INSERT
  8
31
  2
RECT
 10
3.4798
 20
30.2512
 30
0.0000
 41
1.2000
 42
2.0000
 43
1.0000
 50
270.0000
  0
INSERT
  8
31
  2
RECT
 10
3.4798
 20
27.0512
 30
0.0000
 41
1.2000
 42
2.0000
 43
1.0000
 50
270.0000
  0
INSERT
  8
31
  2
RECT
 10
6.6421
 20
30.2004
 30
0.0000
 41
1.2000
 42
2.0000
 43
1.0000
 50
270.0000
  0
INSERT
  8
31
  2
RECT
 10
6.6421
 20
27.0004
 30
0.0000
 41
1.2000
 42
2.0000
 43
1.0000
 50
270.0000
  0
INSERT
  8
31
  2
RECT
 10
19.4213
 20
23.6748
 30
0.0000
 41
0.8000
 42
1.2000
 43
1.0000
 50
0.0000
  0
INSERT
  8
31
  2
RECT
 10
21.2213
 20
23.6748
 30
0.0000
 41
0.8000
 42
1.2000
 43
1.0000
 50
0.0000
  0
INSERT
  8
31
  2
RECT
 10
2.4892
 20
25.2347
 30
0.0000
 41
1.2000
 42
2.0000
 43
1.0000
 50
270.0000
  0
INSERT
  8
31
  2
RECT
 10
2.4892
 20
22.0347
 30
0.0000
 41
1.2000
 42
2.0000
 43
1.0000
 50
270.0000
  0
INSERT
  8
31
  2
RECT
 10
93.9800
 20
-2.1700
 30
0.0000
 41
0.8000
 42
1.2000
 43
1.0000
 50
90.0000
  0
INSERT
  8
31
  2
RECT
 10
93.9800
 20
-0.3700
 30
0.0000
 41
0.8000
 42
1.2000
 43
1.0000
 50
90.0000
  0
INSERT
  8
31
  2
RECT
 10
39.9940
 20
34.2900
 30
0.0000
 41
0.8000
 42
1.2000
 43
1.0000
 50
0.0000
  0
INSERT
  8
31
  2
RECT
 10
41.7940
 20
34.2900
 30
0.0000
 41
0.8000
 42
1.2000
 43
1.0000
 50
0.0000
  0
INSERT
  8
31
  2
RECT
 10
42.2940
 20
31.4960
 30
0.0000
 41
1.6000
 42
1.8000
 43
1.0000
 50
180.0000
  0
INSERT
  8
31
  2
RECT
 10
39.4940
 20
31.4960
 30
0.0000
 41
1.6000
 42
1.8000
 43
1.0000
 50
180.0000
  0
INSERT
  8
31
  2
RECT
 10
8.9667
 20
26.6099
 30
0.0000
 41
0.8000
 42
1.2000
 43
1.0000
 50
90.0000
  0
INSERT
  8
31
  2
RECT
 10
8.9667
 20
28.4099
 30
0.0000
 41
0.8000
 42
1.2000
 43
1.0000
 50
90.0000
  0
INSERT
  8
31
  2
RECT
 10
11.2311
 20
31.7759
 30
0.0000
 41
0.8000
 42
1.2000
 43
1.0000
 50
0.0000
  0
INSERT
  8
31
  2
RECT
 10
13.0311
 20
31.7759
 30
0.0000
 41
0.8000
 42
1.2000
 43
1.0000
 50
0.0000
  0
INSERT
  8
31
  2
RECT
 10
90.3859
 20
25.4491
 30
0.0000
 41
0.8000
 42
1.2000
 43
1.0000
 50
270.0000
  0
INSERT
  8
31
  2
RECT
 10
90.3859
 20
23.6491
 30
0.0000
 41
0.8000
 42
1.2000
 43
1.0000
 50
270.0000
  0
INSERT
  8
31
  2
RECT
 10
22.9362
 20
25.3856
 30
0.0000
 41
0.8000
 42
1.2000
 43
1.0000
 50
270.0000
  0
INSERT
  8
31
  2
RECT
 10
22.9362
 20
23.5856
 30
0.0000
 41
0.8000
 42
1.2000
 43
1.0000
 50
270.0000
  0
INSERT
  8
31
  2
RECT
 10
4.1880
 20
14.2240
 30
0.0000
 41
1.6000
 42
1.8000
 43
1.0000
 50
0.0000
  0
INSERT
  8
31
  2
RECT
 10
6.9880
 20
14.2240
 30
0.0000
 41
1.6000
 42
1.8000
 43
1.0000
 50
0.0000
  0
INSERT
  8
31
  2
RECT
 10
6.9740
 20
4.8260
 30
0.0000
 41
0.8000
 42
1.2000
 43
1.0000
 50
0.0000
  0
INSERT
  8
31
  2
RECT
 10
8.7740
 20
4.8260
 30
0.0000
 41
0.8000
 42
1.2000
 43
1.0000
 50
0.0000
  0
INSERT
  8
31
  2
RECT
 10
21.4757
 20
28.2812
 30
0.0000
 41
0.8000
 42
1.2000
 43
1.0000
 50
270.0000
  0
INSERT
  8
31
  2
RECT
 10
21.4757
 20
26.4812
 30
0.0000
 41
0.8000
 42
1.2000
 43
1.0000
 50
270.0000
  0
INSERT
  8
31
  2
RECT
 10
19.4437
 20
28.3447
 30
0.0000
 41
0.8000
 42
1.2000
 43
1.0000
 50
270.0000
  0
INSERT
  8
31
  2
RECT
 10
19.4437
 20
26.5447
 30
0.0000
 41
0.8000
 42
1.2000
 43
1.0000
 50
270.0000
  0
INSERT
  8
31
  2
RECT
 10
37.2207
 20
28.6639
 30
0.0000
 41
1.6000
 42
1.8000
 43
1.0000
 50
0.0000
  0
INSERT
  8
31
  2
RECT
 10
40.0207
 20
28.6639
 30
0.0000
 41
1.6000
 42
1.8000
 43
1.0000
 50
0.0000
  0
INSERT
  8
31
  2
RECT
 10
29.8450
 20
13.1081
 30
0.0000
 41
0.8000
 42
1.2000
 43
1.0000
 50
90.0000
  0
INSERT
  8
31
  2
RECT
 10
29.8450
 20
14.9081
 30
0.0000
 41
0.8000
 42
1.2000
 43
1.0000
 50
90.0000
  0
INSERT
  8
31
  2
RECT
 10
77.8400
 20
19.7104
 30
0.0000
 41
0.8000
 42
1.2000
 43
1.0000
 50
0.0000
  0
INSERT
  8
31
  2
RECT
 10
79.6400
 20
19.7104
 30
0.0000
 41
0.8000
 42
1.2000
 43
1.0000
 50
0.0000
  0
INSERT
  8
31
  2
RECT
 10
90.4240
 20
13.3240
 30
0.0000
 41
0.8000
 42
1.2000
 43
1.0000
 50
90.0000
  0
INSERT
  8
31
  2
RECT
 10
90.4240
 20
15.1240
 30
0.0000
 41
0.8000
 42
1.2000
 43
1.0000
 50
90.0000
  0
INSERT
  8
31
  2
RECT
 10
73.3950
 20
26.2890
 30
0.0000
 41
0.8000
 42
1.2000
 43
1.0000
 50
0.0000
  0
INSERT
  8
31
  2
RECT
 10
75.1950
 20
26.2890
 30
0.0000
 41
0.8000
 42
1.2000
 43
1.0000
 50
0.0000
  0
INSERT
  8
31
  2
RECT
 10
74.4838
 20
12.0142
 30
0.0000
 41
0.8000
 42
1.2000
 43
1.0000
 50
180.0000
  0
INSERT
  8
31
  2
RECT
 10
72.6838
 20
12.0142
 30
0.0000
 41
0.8000
 42
1.2000
 43
1.0000
 50
180.0000
  0
INSERT
  8
31
  2
RECT
 10
68.7070
 20
22.1090
 30
0.0000
 41
0.8000
 42
1.2000
 43
1.0000
 50
270.0000
  0
INSERT
  8
31
  2
RECT
 10
68.7070
 20
20.3090
 30
0.0000
 41
0.8000
 42
1.2000
 43
1.0000
 50
270.0000
  0
POLYLINE
  8
40
 66
1
 10
0.0000
 20
0.0000
 30
0.0000
 40
0.0000
 41
0.0000
 70
1
  0
VERTEX
  8
40
 10
24.6304
 20
15.3070
 30
0.0000
  0
VERTEX
  8
40
 10
24.6304
 20
20.2530
 30
0.0000
 42
1.0000
  0
VERTEX
  8
40
 10
24.5796
 20
20.2530
 30
0.0000
  0
VERTEX
  8
40
 10
24.5796
 20
15.3070
 30
0.0000
 42
1.0000
  0
SEQEND
  8
0
  0
POLYLINE
  8
40
 66
1
 10
0.0000
 20
0.0000
 30
0.0000
 40
0.0000
 41
0.0000
 70
1
  0
VERTEX
  8
40
 10
22.6136
 20
20.2530
 30
0.0000
  0
VERTEX
  8
40
 10
22.6136
 20
15.3070
 30
0.0000
 42
1.0000
  0
VERTEX
  8
40
 10
22.6644
 20
15.3070
 30
0.0000
  0
VERTEX
  8
40
 10
22.6644
 20
20.2530
 30
0.0000
 42
1.0000
  0
SEQEND
  8
0
  0
POLYLINE
  8
40
 66
1
 10
0.0000
 20
0.0000
 30
0.0000
 40
0.0000
 41
0.0000
 70
1
  0
VERTEX
  8
40
 10
22.6390
 20
15.2816
 30
0.0000
  0
VERTEX
  8
40
 10
24.6050
 20
15.2816
 30
0.0000
 42
1.0000
  0
VERTEX
  8
40
 10
24.6050
 20
15.3324
 30
0.0000
  0
VERTEX
  8
40
 10
22.6390
 20
15.3324
 30
0.0000
 42
1.0000
  0
SEQEND
  8
0
  0
POLYLINE
  8
40
 66
1
 10
0.0000
 20
0.0000
 30
0.0000
 40
0.0000
 41
0.0000
 70
1
  0
VERTEX
  8
40
 10
24.6050
 20
20.2784
 30
0.0000
  0
VERTEX
  8
40
 10
22.6390
 20
20.2784
 30
0.0000
 42
1.0000
  0
VERTEX
  8
40
 10
22.6390
 20
20.2276
 30
0.0000
  0
VERTEX
  8
40
 10
24.6050
 20
20.2276
 30
0.0000
 42
1.0000
  0
SEQEND
  8
0
  0
INSERT
  8
31
  2
RECT
 10
66.1780
 20
25.9080
 30
0.0000
 41
0.8000
 42
1.2000
 43
1.0000
 50
180.0000
  0
INSERT
  8
31
  2
RECT
 10
64.3780
 20
25.9080
 30
0.0000
 41
0.8000
 42
1.2000
 43
1.0000
 50
180.0000
  0
INSERT
  8
31
  2
RECT
 10
85.9409
 20
32.1691
 30
0.0000
 41
1.3970
 42
1.3970
 43
1.0000
 50
0.0000
  0
INSERT
  8
31
  2
RECT
 10
82.6389
 20
32.1691
 30
0.0000
 41
1.3970
 42
1.3970
 43
1.0000
 50
0.0000
  0
INSERT
  8
31
  2
RECT
 10
8.0657
 20
9.7282
 30
0.0000
 41
2.2860
 42
4.8000
 43
1.0000
 50
0.0000
  0
INSERT
  8
31
  2
RECT
 10
1.8657
 20
9.7282
 30
0.0000
 41
2.2860
 42
4.8000
 43
1.0000
 50
0.0000
  0
INSERT
  8
31
  2
RECT
 10
15.4928
 20
34.4805
 30
0.0000
 41
2.2860
 42
4.8000
 43
1.0000
 50
180.0000
  0
INSERT
  8
31
  2
RECT
 10
21.6928
 20
34.4805
 30
0.0000
 41
2.2860
 42
4.8000
 43
1.0000
 50
180.0000
  0
INSERT
  8
31
  2
RECT
 10
16.5735
 20
6.0579
 30
0.0000
 41
2.5400
 42
2.5400
 43
1.0000
 50
0.0000
  0
INSERT
  8
31
  2
RECT
 10
21.2725
 20
6.0579
 30
0.0000
 41
2.5400
 42
2.5400
 43
1.0000
 50
180.0000
  0
INSERT
  8
31
  2
RECT608000X200000R50
 10
83.1469
 20
34.3759
 30
0.0000
 41
1.0000
 42
1.0000
 43
1.0000
 50
180.0000
  0
INSERT
  8
31
  2
RECT608000X200000R50
 10
83.1469
 20
37.1759
 30
0.0000
 41
1.0000
 42
1.0000
 43
1.0000
 50
180.0000
  0
INSERT
  8
31
  2
RECT
 10
28.8671
 20
26.2253
 30
0.0000
 41
3.5000
 42
4.1000
 43
1.0000
 50
180.0000
  0
INSERT
  8
31
  2
RECT
 10
28.8671
 20
35.7253
 30
0.0000
 41
3.5000
 42
4.1000
 43
1.0000
 50
180.0000
  0
INSERT
  8
31
  2
RECT
 10
76.7080
 20
-7.1010
 30
0.0000
 41
0.8000
 42
1.2000
 43
1.0000
 50
270.0000
  0
INSERT
  8
31
  2
RECT
 10
76.7080
 20
-8.9010
 30
0.0000
 41
0.8000
 42
1.2000
 43
1.0000
 50
270.0000
  0
INSERT
  8
31
  2
RECT
 10
79.7560
 20
-2.9608
 30
0.0000
 41
0.8000
 42
1.2000
 43
1.0000
 50
270.0000
  0
INSERT
  8
31
  2
RECT
 10
79.7560
 20
-4.7608
 30
0.0000
 41
0.8000
 42
1.2000
 43
1.0000
 50
270.0000
  0
INSERT
  8
31
  2
RECT
 10
29.4530
 20
11.3030
 30
0.0000
 41
0.8000
 42
1.2000
 43
1.0000
 50
0.0000
  0
INSERT
  8
31
  2
RECT
 10
31.2530
 20
11.3030
 30
0.0000
 41
0.8000
 42
1.2000
 43
1.0000
 50
0.0000
  0
INSERT
  8
31
  2
RECT
 10
29.0720
 20
16.8910
 30
0.0000
 41
0.8000
 42
1.2000
 43
1.0000
 50
0.0000
  0
INSERT
  8
31
  2
RECT
 10
30.8720
 20
16.8910
 30
0.0000
 41
0.8000
 42
1.2000
 43
1.0000
 50
0.0000
  0
INSERT
  8
31
  2
RECT
 10
47.3964
 20
14.6956
 30
0.0000
 41
0.8000
 42
1.2000
 43
1.0000
 50
90.0000
  0
INSERT
  8
31
  2
RECT
 10
47.3964
 20
16.4956
 30
0.0000
 41
0.8000
 42
1.2000
 43
1.0000
 50
90.0000
  0
INSERT
  8
31
  2
RECT
 10
80.1190
 20
-6.6040
 30
0.0000
 41
1.7800
 42
2.0000
 43
1.0000
 50
270.0000
  0
INSERT
  8
31
  2
RECT
 10
80.1190
 20
-9.1440
 30
0.0000
 41
1.7800
 42
2.0000
 43
1.0000
 50
270.0000
  0
INSERT
  8
31
  2
RECT
 10
87.5690
 20
-9.1440
 30
0.0000
 41
1.7800
 42
2.0000
 43
1.0000
 50
90.0000
  0
INSERT
  8
31
  2
RECT
 10
87.5690
 20
-6.6040
 30
0.0000
 41
1.7800
 42
2.0000
 43
1.0000
 50
90.0000
  0
INSERT
  8
31
  2
RECT
 10
11.9761
 20
10.8423
 30
0.0000
 41
1.8000
 42
3.7000
 43
1.0000
 50
270.0000
  0
INSERT
  8
31
  2
RECT
 10
11.9761
 20
5.5923
 30
0.0000
 41
1.8000
 42
3.7000
 43
1.0000
 50
270.0000
  0
INSERT
  8
31
  2
RECT
 10
46.5732
 20
13.3202
 30
0.0000
 41
0.7000
 42
0.7000
 43
1.0000
 50
180.0000
  0
INSERT
  8
31
  2
RECT
 10
45.2732
 20
13.3202
 30
0.0000
 41
0.7000
 42
0.7000
 43
1.0000
 50
180.0000
  0
INSERT
  8
31
  2
RECT
 10
45.9232
 20
11.4702
 30
0.0000
 41
0.7000
 42
0.7000
 43
1.0000
 50
180.0000
  0
INSERT
  8
31
  2
RECT
 10
63.4342
 20
31.3330
 30
0.0000
 41
0.7000
 42
0.7000
 43
1.0000
 50
0.0000
  0
INSERT
  8
31
  2
RECT
 10
64.7342
 20
31.3330
 30
0.0000
 41
0.7000
 42
0.7000
 43
1.0000
 50
0.0000
  0
INSERT
  8
31
  2
RECT
 10
64.0842
 20
33.1830
 30
0.0000
 41
0.7000
 42
0.7000
 43
1.0000
 50
0.0000
  0
INSERT
  8
31
  2
RECT
 10
10.3020
 20
14.8950
 30
0.0000
 41
0.7000
 42
0.7000
 43
1.0000
 50
180.0000
  0
INSERT
  8
31
  2
RECT
 10
9.0020
 20
14.8950
 30
0.0000
 41
0.7000
 42
0.7000
 43
1.0000
 50
180.0000
  0
INSERT
  8
31
  2
RECT
 10
9.6520
 20
13.0450
 30
0.0000
 41
0.7000
 42
0.7000
 43
1.0000
 50
180.0000
  0
INSERT
  8
31
  2
RECT
 10
39.0000
 20
22.8600
 30
0.0000
 41
0.8000
 42
1.2000
 43
1.0000
 50
180.0000
  0
INSERT
  8
31
  2
RECT
 10
37.2000
 20
22.8600
 30
0.0000
 41
0.8000
 42
1.2000
 43
1.0000
 50
180.0000
  0
INSERT
  8
31
  2
RECT
 10
73.3950
 20
24.7650
 30
0.0000
 41
0.8000
 42
1.2000
 43
1.0000
 50
0.0000
  0
INSERT
  8
31
  2
RECT
 10
75.1950
 20
24.7650
 30
0.0000
 41
0.8000
 42
1.2000
 43
1.0000
 50
0.0000
  0
INSERT
  8
31
  2
RECT
 10
22.4155
 20
19.1533
 30
0.0000
 41
0.8000
 42
1.2000
 43
1.0000
 50
90.0000
  0
INSERT
  8
31
  2
RECT
 10
22.4155
 20
20.9533
 30
0.0000
 41
0.8000
 42
1.2000
 43
1.0000
 50
90.0000
  0
INSERT
  8
31
  2
RECT
 10
24.1935
 20
19.1533
 30
0.0000
 41
0.8000
 42
1.2000
 43
1.0000
 50
90.0000
  0
INSERT
  8
31
  2
RECT
 10
24.1935
 20
20.9533
 30
0.0000
 41
0.8000
 42
1.2000
 43
1.0000
 50
90.0000
  0
INSERT
  8
31
  2
RECT
 10
25.9715
 20
19.1533
 30
0.0000
 41
0.8000
 42
1.2000
 43
1.0000
 50
90.0000
  0
INSERT
  8
31
  2
RECT
 10
25.9715
 20
20.9533
 30
0.0000
 41
0.8000
 42
1.2000
 43
1.0000
 50
90.0000
  0
INSERT
  8
31
  2
RECT
 10
27.7495
 20
19.1533
 30
0.0000
 41
0.8000
 42
1.2000
 43
1.0000
 50
90.0000
  0
INSERT
  8
31
  2
RECT
 10
27.7495
 20
20.9533
 30
0.0000
 41
0.8000
 42
1.2000
 43
1.0000
 50
90.0000
  0
INSERT
  8
31
  2
RECT
 10
31.3055
 20
19.1533
 30
0.0000
 41
0.8000
 42
1.2000
 43
1.0000
 50
90.0000
  0
INSERT
  8
31
  2
RECT
 10
31.3055
 20
20.9533
 30
0.0000
 41
0.8000
 42
1.2000
 43
1.0000
 50
90.0000
  0
INSERT
  8
31
  2
RECT
 10
29.5275
 20
19.1533
 30
0.0000
 41
0.8000
 42
1.2000
 43
1.0000
 50
90.0000
  0
INSERT
  8
31
  2
RECT
 10
29.5275
 20
20.9533
 30
0.0000
 41
0.8000
 42
1.2000
 43
1.0000
 50
90.0000
  0
INSERT
  8
31
  2
RECT
 10
20.4851
 20
19.1406
 30
0.0000
 41
0.8000
 42
1.2000
 43
1.0000
 50
90.0000
  0
INSERT
  8
31
  2
RECT
 10
20.4851
 20
20.9406
 30
0.0000
 41
0.8000
 42
1.2000
 43
1.0000
 50
90.0000
  0
INSERT
  8
31
  2
RECT
 10
18.6309
 20
19.1406
 30
0.0000
 41
0.8000
 42
1.2000
 43
1.0000
 50
90.0000
  0
INSERT
  8
31
  2
RECT
 10
18.6309
 20
20.9406
 30
0.0000
 41
0.8000
 42
1.2000
 43
1.0000
 50
90.0000
  0
INSERT
  8
31
  2
RECT
 10
19.4454
 20
25.2222
 30
0.0000
 41
0.8000
 42
1.2000
 43
1.0000
 50
0.0000
  0
INSERT
  8
31
  2
RECT
 10
21.2454
 20
25.2222
 30
0.0000
 41
0.8000
 42
1.2000
 43
1.0000
 50
0.0000
  0
INSERT
  8
31
  2
RECT
 10
34.4170
 20
22.4723
 30
0.0000
 41
1.8000
 42
3.2000
 43
1.0000
 50
270.0000
  0
INSERT
  8
31
  2
RECT
 10
34.4170
 20
16.8723
 30
0.0000
 41
1.8000
 42
3.2000
 43
1.0000
 50
270.0000
  0
INSERT
  8
31
  2
RECT
 10
2.4257
 20
19.8738
 30
0.0000
 41
0.8000
 42
1.2000
 43
1.0000
 50
270.0000
  0
INSERT
  8
31
  2
RECT
 10
2.4257
 20
18.0738
 30
0.0000
 41
0.8000
 42
1.2000
 43
1.0000
 50
270.0000
  0
INSERT
  8
31
  2
RECT
 10
44.7040
 20
33.1360
 30
0.0000
 41
0.8000
 42
1.2000
 43
1.0000
 50
90.0000
  0
INSERT
  8
31
  2
RECT
 10
44.7040
 20
34.9360
 30
0.0000
 41
0.8000
 42
1.2000
 43
1.0000
 50
90.0000
  0
INSERT
  8
31
  2
RECT
 10
72.7981
 20
30.5689
 30
0.0000
 41
0.8000
 42
1.2000
 43
1.0000
 50
0.0000
  0
INSERT
  8
31
  2
RECT
 10
74.5981
 20
30.5689
 30
0.0000
 41
0.8000
 42
1.2000
 43
1.0000
 50
0.0000
  0
INSERT
  8
31
  2
RECT
 10
76.1619
 20
29.9991
 30
0.0000
 41
0.8000
 42
1.2000
 43
1.0000
 50
90.0000
  0
INSERT
  8
31
  2
RECT
 10
76.1619
 20
31.7991
 30
0.0000
 41
0.8000
 42
1.2000
 43
1.0000
 50
90.0000
  0
INSERT
  8
31
  2
RECT
 10
47.2440
 20
33.1360
 30
0.0000
 41
0.8000
 42
1.2000
 43
1.0000
 50
90.0000
  0
INSERT
  8
31
  2
RECT
 10
47.2440
 20
34.9360
 30
0.0000
 41
0.8000
 42
1.2000
 43
1.0000
 50
90.0000
  0
INSERT
  8
31
  2
RECT
 10
60.2598
 20
26.7843
 30
0.0000
 41
0.8000
 42
1.2000
 43
1.0000
 50
180.0000
  0
INSERT
  8
31
  2
RECT
 10
58.4598
 20
26.7843
 30
0.0000
 41
0.8000
 42
1.2000
 43
1.0000
 50
180.0000
  0
INSERT
  8
31
  2
RECT
 10
74.4330
 20
14.3510
 30
0.0000
 41
0.8000
 42
1.2000
 43
1.0000
 50
180.0000
  0
INSERT
  8
31
  2
RECT
 10
72.6330
 20
14.3510
 30
0.0000
 41
0.8000
 42
1.2000
 43
1.0000
 50
180.0000
  0
INSERT
  8
31
  2
RECT
 10
49.7840
 20
33.1360
 30
0.0000
 41
0.8000
 42
1.2000
 43
1.0000
 50
90.0000
  0
INSERT
  8
31
  2
RECT
 10
49.7840
 20
34.9360
 30
0.0000
 41
0.8000
 42
1.2000
 43
1.0000
 50
90.0000
  0
POLYLINE
  8
40
 66
1
 10
0.0000
 20
0.0000
 30
0.0000
 40
0.0000
 41
0.0000
 70
1
  0
VERTEX
  8
40
 10
76.5210
 20
-7.4854
 30
0.0000
  0
VERTEX
  8
40
 10
81.4670
 20
-7.4854
 30
0.0000
 42
1.0000
  0
VERTEX
  8
40
 10
81.4670
 20
-7.4346
 30
0.0000
  0
VERTEX
  8
40
 10
76.5210
 20
-7.4346
 30
0.0000
 42
1.0000
  0
SEQEND
  8
0
  0
POLYLINE
  8
40
 66
1
 10
0.0000
 20
0.0000
 30
0.0000
 40
0.0000
 41
0.0000
 70
1
  0
VERTEX
  8
40
 10
81.4670
 20
-5.4686
 30
0.0000
  0
VERTEX
  8
40
 10
76.5210
 20
-5.4686
 30
0.0000
 42
1.0000
  0
VERTEX
  8
40
 10
76.5210
 20
-5.5194
 30
0.0000
  0
VERTEX
  8
40
 10
81.4670
 20
-5.5194
 30
0.0000
 42
1.0000
  0
SEQEND
  8
0
  0
POLYLINE
  8
40
 66
1
 10
0.0000
 20
0.0000
 30
0.0000
 40
0.0000
 41
0.0000
 70
1
  0
VERTEX
  8
40
 10
76.4956
 20
-5.4940
 30
0.0000
  0
VERTEX
  8
40
 10
76.4956
 20
-7.4600
 30
0.0000
 42
1.0000
  0
VERTEX
  8
40
 10
76.5464
 20
-7.4600
 30
0.0000
  0
VERTEX
  8
40
 10
76.5464
 20
-5.4940
 30
0.0000
 42
1.0000
  0
SEQEND
  8
0
  0
POLYLINE
  8
40
 66
1
 10
0.0000
 20
0.0000
 30
0.0000
 40
0.0000
 41
0.0000
 70
1
  0
VERTEX
  8
40
 10
81.4924
 20
-7.4600
 30
0.0000
  0
VERTEX
  8
40
 10
81.4924
 20
-5.4940
 30
0.0000
 42
1.0000
  0
VERTEX
  8
40
 10
81.4416
 20
-5.4940
 30
0.0000
  0
VERTEX
  8
40
 10
81.4416
 20
-7.4600
 30
0.0000
 42
1.0000
  0
SEQEND
  8
0
  0
INSERT
  8
31
  2
RECT
 10
55.7657
 20
23.9378
 30
0.0000
 41
0.8000
 42
1.2000
 43
1.0000
 50
270.0000
  0
INSERT
  8
31
  2
RECT
 10
55.7657
 20
22.1378
 30
0.0000
 41
0.8000
 42
1.2000
 43
1.0000
 50
270.0000
  0
INSERT
  8
31
  2
RECT
 10
52.3240
 20
33.1360
 30
0.0000
 41
0.8000
 42
1.2000
 43
1.0000
 50
90.0000
  0
INSERT
  8
31
  2
RECT
 10
52.3240
 20
34.9360
 30
0.0000
 41
0.8000
 42
1.2000
 43
1.0000
 50
90.0000
  0
INSERT
  8
31
  2
RECT
 10
68.7070
 20
17.0070
 30
0.0000
 41
0.8000
 42
1.2000
 43
1.0000
 50
90.0000
  0
INSERT
  8
31
  2
RECT
 10
68.7070
 20
18.8070
 30
0.0000
 41
0.8000
 42
1.2000
 43
1.0000
 50
90.0000
  0
POLYLINE
  8
40
 66
1
 10
0.0000
 20
0.0000
 30
0.0000
 40
0.0000
 41
0.0000
 70
1
  0
VERTEX
  8
40
 10
76.5591
 20
-9.8222
 30
0.0000
  0
VERTEX
  8
40
 10
81.5051
 20
-9.8222
 30
0.0000
 42
1.0000
  0
VERTEX
  8
40
 10
81.5051
 20
-9.7714
 30
0.0000
  0
VERTEX
  8
40
 10
76.5591
 20
-9.7714
 30
0.0000
 42
1.0000
  0
SEQEND
  8
0
  0
POLYLINE
  8
40
 66
1
 10
0.0000
 20
0.0000
 30
0.0000
 40
0.0000
 41
0.0000
 70
1
  0
VERTEX
  8
40
 10
81.5051
 20
-7.8054
 30
0.0000
  0
VERTEX
  8
40
 10
76.5591
 20
-7.8054
 30
0.0000
 42
1.0000
  0
VERTEX
  8
40
 10
76.5591
 20
-7.8562
 30
0.0000
  0
VERTEX
  8
40
 10
81.5051
 20
-7.8562
 30
0.0000
 42
1.0000
  0
SEQEND
  8
0
  0
POLYLINE
  8
40
 66
1
 10
0.0000
 20
0.0000
 30
0.0000
 40
0.0000
 41
0.0000
 70
1
  0
VERTEX
  8
40
 10
76.5337
 20
-7.8308
 30
0.0000
  0
VERTEX
  8
40
 10
76.5337
 20
-9.7968
 30
0.0000
 42
1.0000
  0
VERTEX
  8
40
 10
76.5845
 20
-9.7968
 30
0.0000
  0
VERTEX
  8
40
 10
76.5845
 20
-7.8308
 30
0.0000
 42
1.0000
  0
SEQEND
  8
0
  0
POLYLINE
  8
40
 66
1
 10
0.0000
 20
0.0000
 30
0.0000
 40
0.0000
 41
0.0000
 70
1
  0
VERTEX
  8
40
 10
81.5305
 20
-9.7968
 30
0.0000
  0
VERTEX
  8
40
 10
81.5305
 20
-7.8308
 30
0.0000
 42
1.0000
  0
VERTEX
  8
40
 10
81.4797
 20
-7.8308
 30
0.0000
  0
VERTEX
  8
40
 10
81.4797
 20
-9.7968
 30
0.0000
 42
1.0000
  0
SEQEND
  8
0
  0
INSERT
  8
31
  2
RECT
 10
89.9050
 20
11.5570
 30
0.0000
 41
0.8000
 42
1.2000
 43
1.0000
 50
0.0000
  0
INSERT
  8
31
  2
RECT
 10
91.7050
 20
11.5570
 30
0.0000
 41
0.8000
 42
1.2000
 43
1.0000
 50
0.0000
  0
INSERT
  8
31
  2
RECT
 10
54.8640
 20
33.1360
 30
0.0000
 41
0.8000
 42
1.2000
 43
1.0000
 50
90.0000
  0
INSERT
  8
31
  2
RECT
 10
54.8640
 20
34.9360
 30
0.0000
 41
0.8000
 42
1.2000
 43
1.0000
 50
90.0000
  0
INSERT
  8
31
  2
RECT
 10
80.6560
 20
12.4460
 30
0.0000
 41
0.8000
 42
1.2000
 43
1.0000
 50
180.0000
  0
INSERT
  8
31
  2
RECT
 10
78.8560
 20
12.4460
 30
0.0000
 41
0.8000
 42
1.2000
 43
1.0000
 50
180.0000
  0
INSERT
  8
31
  2
RECT
 10
61.6712
 20
30.7611
 30
0.0000
 41
0.8000
 42
1.2000
 43
1.0000
 50
90.0000
  0
INSERT
  8
31
  2
RECT
 10
61.6712
 20
32.5611
 30
0.0000
 41
0.8000
 42
1.2000
 43
1.0000
 50
90.0000
  0
INSERT
  8
31
  2
RECT
 10
79.5892
 20
22.4536
 30
0.0000
 41
0.8000
 42
1.2000
 43
1.0000
 50
180.0000
  0
INSERT
  8
31
  2
RECT
 10
77.7892
 20
22.4536
 30
0.0000
 41
0.8000
 42
1.2000
 43
1.0000
 50
180.0000
  0
INSERT
  8
31
  2
RECT
 10
63.8700
 20
18.6563
 30
0.0000
 41
0.8000
 42
1.2000
 43
1.0000
 50
0.0000
  0
INSERT
  8
31
  2
RECT
 10
65.6700
 20
18.6563
 30
0.0000
 41
0.8000
 42
1.2000
 43
1.0000
 50
0.0000
  0
INSERT
  8
31
  2
RECT
 10
50.1760
 20
11.8110
 30
0.0000
 41
0.8000
 42
1.2000
 43
1.0000
 50
180.0000
  0
INSERT
  8
31
  2
RECT
 10
48.3760
 20
11.8110
 30
0.0000
 41
0.8000
 42
1.2000
 43
1.0000
 50
180.0000
  0
INSERT
  8
31
  2
RECT
 10
59.6519
 20
30.8246
 30
0.0000
 41
0.8000
 42
1.2000
 43
1.0000
 50
90.0000
  0
INSERT
  8
31
  2
RECT
 10
59.6519
 20
32.6246
 30
0.0000
 41
0.8000
 42
1.2000
 43
1.0000
 50
90.0000
  0
INSERT
  8
31
  2
RECT
 10
26.9604
 20
1.6510
 30
0.0000
 41
0.8000
 42
1.2000
 43
1.0000
 50
180.0000
  0
INSERT
  8
31
  2
RECT
 10
25.1604
 20
1.6510
 30
0.0000
 41
0.8000
 42
1.2000
 43
1.0000
 50
180.0000
  0
INSERT
  8
31
  2
RECT
 10
25.1604
 20
5.2070
 30
0.0000
 41
0.8000
 42
1.2000
 43
1.0000
 50
0.0000
  0
INSERT
  8
31
  2
RECT
 10
26.9604
 20
5.2070
 30
0.0000
 41
0.8000
 42
1.2000
 43
1.0000
 50
0.0000
  0
INSERT
  8
31
  2
RECT
 10
43.3688
 20
17.4752
 30
0.0000
 41
0.8000
 42
1.2000
 43
1.0000
 50
180.0000
  0
INSERT
  8
31
  2
RECT
 10
41.5688
 20
17.4752
 30
0.0000
 41
0.8000
 42
1.2000
 43
1.0000
 50
180.0000
  0
INSERT
  8
31
  2
RECT
 10
66.1162
 20
24.1537
 30
0.0000
 41
0.8000
 42
1.2000
 43
1.0000
 50
270.0000
  0
INSERT
  8
31
  2
RECT
 10
66.1162
 20
22.3537
 30
0.0000
 41
0.8000
 42
1.2000
 43
1.0000
 50
270.0000
  0
INSERT
  8
31
  2
RECT
 10
71.4104
 20
11.9888
 30
0.0000
 41
0.8000
 42
1.2000
 43
1.0000
 50
180.0000
  0
INSERT
  8
31
  2
RECT
 10
69.6104
 20
11.9888
 30
0.0000
 41
0.8000
 42
1.2000
 43
1.0000
 50
180.0000
  0
INSERT
  8
31
  2
RECT
 10
19.7375
 20
30.2260
 30
0.0000
 41
0.8000
 42
1.2000
 43
1.0000
 50
0.0000
  0
INSERT
  8
31
  2
RECT
 10
21.5375
 20
30.2260
 30
0.0000
 41
0.8000
 42
1.2000
 43
1.0000
 50
0.0000
  0
INSERT
  8
31
  2
RECT
 10
76.2000
 20
5.1960
 30
0.0000
 41
0.8000
 42
1.2000
 43
1.0000
 50
90.0000
  0
INSERT
  8
31
  2
RECT
 10
76.2000
 20
6.9960
 30
0.0000
 41
0.8000
 42
1.2000
 43
1.0000
 50
90.0000
  0
INSERT
  8
31
  2
RECT
 10
76.9620
 20
12.5620
 30
0.0000
 41
0.8000
 42
1.2000
 43
1.0000
 50
90.0000
  0
INSERT
  8
31
  2
RECT
 10
76.9620
 20
14.3620
 30
0.0000
 41
0.8000
 42
1.2000
 43
1.0000
 50
90.0000
  0
INSERT
  8
31
  2
RECT
 10
91.8320
 20
-4.0640
 30
0.0000
 41
0.8000
 42
1.2000
 43
1.0000
 50
180.0000
  0
INSERT
  8
31
  2
RECT
 10
90.0320
 20
-4.0640
 30
0.0000
 41
0.8000
 42
1.2000
 43
1.0000
 50
180.0000
  0
INSERT
  8
31
  2
RECT
 10
79.8957
 20
24.6778
 30
0.0000
 41
0.8000
 42
1.2000
 43
1.0000
 50
90.0000
  0
INSERT
  8
31
  2
RECT
 10
79.8957
 20
26.4778
 30
0.0000
 41
0.8000
 42
1.2000
 43
1.0000
 50
90.0000
  0
INSERT
  8
31
  2
RECT
 10
16.2162
 20
23.2537
 30
0.0000
 41
0.8000
 42
1.2000
 43
1.0000
 50
180.0000
  0
INSERT
  8
31
  2
RECT
 10
14.4162
 20
23.2537
 30
0.0000
 41
0.8000
 42
1.2000
 43
1.0000
 50
180.0000
  0
INSERT
  8
31
  2
RECT
 10
56.3880
 20
33.1360
 30
0.0000
 41
0.8000
 42
1.2000
 43
1.0000
 50
90.0000
  0
INSERT
  8
31
  2
RECT
 10
56.3880
 20
34.9360
 30
0.0000
 41
0.8000
 42
1.2000
 43
1.0000
 50
90.0000
  0
INSERT
  8
31
  2
RECT
 10
78.1177
 20
24.6778
 30
0.0000
 41
0.8000
 42
1.2000
 43
1.0000
 50
90.0000
  0
INSERT
  8
31
  2
RECT
 10
78.1177
 20
26.4778
 30
0.0000
 41
0.8000
 42
1.2000
 43
1.0000
 50
90.0000
  0
INSERT
  8
31
  2
RECT
 10
15.1680
 20
17.3040
 30
0.0000
 41
1.0000
 42
3.1000
 43
1.0000
 50
270.0000
  0
INSERT
  8
31
  2
RECT
 10
6.1680
 20
17.3040
 30
0.0000
 41
1.0000
 42
3.1000
 43
1.0000
 50
270.0000
  0
INSERT
  8
31
  2
RECT
 10
15.1680
 20
21.3040
 30
0.0000
 41
1.0000
 42
3.1000
 43
1.0000
 50
270.0000
  0
INSERT
  8
31
  2
RECT
 10
6.1680
 20
21.3040
 30
0.0000
 41
1.0000
 42
3.1000
 43
1.0000
 50
270.0000
  0
INSERT
  8
31
  2
RECT
 10
81.6991
 20
22.0278
 30
0.0000
 41
1.2700
 42
0.5588
 43
1.0000
 50
0.0000
  0
INSERT
  8
31
  2
RECT
 10
81.6991
 20
21.2278
 30
0.0000
 41
1.2700
 42
0.5588
 43
1.0000
 50
0.0000
  0
INSERT
  8
31
  2
RECT
 10
81.6991
 20
20.4278
 30
0.0000
 41
1.2700
 42
0.5588
 43
1.0000
 50
0.0000
  0
INSERT
  8
31
  2
RECT
 10
81.6991
 20
19.6278
 30
0.0000
 41
1.2700
 42
0.5588
 43
1.0000
 50
0.0000
  0
INSERT
  8
31
  2
RECT
 10
81.6991
 20
18.8278
 30
0.0000
 41
1.2700
 42
0.5588
 43
1.0000
 50
0.0000
  0
INSERT
  8
31
  2
RECT
 10
81.6991
 20
18.0278
 30
0.0000
 41
1.2700
 42
0.5588
 43
1.0000
 50
0.0000
  0
INSERT
  8
31
  2
RECT
 10
81.6991
 20
17.2278
 30
0.0000
 41
1.2700
 42
0.5588
 43
1.0000
 50
0.0000
  0
INSERT
  8
31
  2
RECT
 10
81.6991
 20
16.4278
 30
0.0000
 41
1.2700
 42
0.5588
 43
1.0000
 50
0.0000
  0
INSERT
  8
31
  2
RECT
 10
83.1917
 20
14.9352
 30
0.0000
 41
0.5588
 42
1.2700
 43
1.0000
 50
0.0000
  0
INSERT
  8
31
  2
RECT
 10
83.9917
 20
14.9352
 30
0.0000
 41
0.5588
 42
1.2700
 43
1.0000
 50
0.0000
  0
INSERT
  8
31
  2
RECT
 10
84.7917
 20
14.9352
 30
0.0000
 41
0.5588
 42
1.2700
 43
1.0000
 50
0.0000
  0
INSERT
  8
31
  2
RECT
 10
85.5917
 20
14.9352
 30
0.0000
 41
0.5588
 42
1.2700
 43
1.0000
 50
0.0000
  0
INSERT
  8
31
  2
RECT
 10
86.3917
 20
14.9352
 30
0.0000
 41
0.5588
 42
1.2700
 43
1.0000
 50
0.0000
  0
INSERT
  8
31
  2
RECT
 10
87.1917
 20
14.9352
 30
0.0000
 41
0.5588
 42
1.2700
 43
1.0000
 50
0.0000
  0
INSERT
  8
31
  2
RECT
 10
87.9917
 20
14.9352
 30
0.0000
 41
0.5588
 42
1.2700
 43
1.0000
 50
0.0000
  0
INSERT
  8
31
  2
RECT
 10
88.7917
 20
14.9352
 30
0.0000
 41
0.5588
 42
1.2700
 43
1.0000
 50
0.0000
  0
INSERT
  8
31
  2
RECT
 10
90.2843
 20
16.4278
 30
0.0000
 41
1.2700
 42
0.5588
 43
1.0000
 50
0.0000
  0
INSERT
  8
31
  2
RECT
 10
90.2843
 20
17.2278
 30
0.0000
 41
1.2700
 42
0.5588
 43
1.0000
 50
0.0000
  0
INSERT
  8
31
  2
RECT
 10
90.2843
 20
18.0278
 30
0.0000
 41
1.2700
 42
0.5588
 43
1.0000
 50
0.0000
  0
INSERT
  8
31
  2
RECT
 10
90.2843
 20
18.8278
 30
0.0000
 41
1.2700
 42
0.5588
 43
1.0000
 50
0.0000
  0
INSERT
  8
31
  2
RECT
 10
90.2843
 20
19.6278
 30
0.0000
 41
1.2700
 42
0.5588
 43
1.0000
 50
0.0000
  0
INSERT
  8
31
  2
RECT
 10
90.2843
 20
20.4278
 30
0.0000
 41
1.2700
 42
0.5588
 43
1.0000
 50
0.0000
  0
INSERT
  8
31
  2
RECT
 10
90.2843
 20
21.2278
 30
0.0000
 41
1.2700
 42
0.5588
 43
1.0000
 50
0.0000
  0
INSERT
  8
31
  2
RECT
 10
90.2843
 20
22.0278
 30
0.0000
 41
1.2700
 42
0.5588
 43
1.0000
 50
0.0000
  0
INSERT
  8
31
  2
RECT
 10
88.7917
 20
23.5204
 30
0.0000
 41
0.5588
 42
1.2700
 43
1.0000
 50
0.0000
  0
INSERT
  8
31
  2
RECT
 10
87.9917
 20
23.5204
 30
0.0000
 41
0.5588
 42
1.2700
 43
1.0000
 50
0.0000
  0
INSERT
  8
31
  2
RECT
 10
87.1917
 20
23.5204
 30
0.0000
 41
0.5588
 42
1.2700
 43
1.0000
 50
0.0000
  0
INSERT
  8
31
  2
RECT
 10
86.3917
 20
23.5204
 30
0.0000
 41
0.5588
 42
1.2700
 43
1.0000
 50
0.0000
  0
INSERT
  8
31
  2
RECT
 10
85.5917
 20
23.5204
 30
0.0000
 41
0.5588
 42
1.2700
 43
1.0000
 50
0.0000
  0
INSERT
  8
31
  2
RECT
 10
84.7917
 20
23.5204
 30
0.0000
 41
0.5588
 42
1.2700
 43
1.0000
 50
0.0000
  0
INSERT
  8
31
  2
RECT
 10
83.9917
 20
23.5204
 30
0.0000
 41
0.5588
 42
1.2700
 43
1.0000
 50
0.0000
  0
INSERT
  8
31
  2
RECT
 10
83.1917
 20
23.5204
 30
0.0000
 41
0.5588
 42
1.2700
 43
1.0000
 50
0.0000
  0
INSERT
  8
31
  2
RECT
 10
77.6809
 20
31.3411
 30
0.0000
 41
0.4500
 42
0.8000
 43
1.0000
 50
270.0000
  0
INSERT
  8
31
  2
RECT
 10
77.6809
 20
30.3911
 30
0.0000
 41
0.4500
 42
0.8000
 43
1.0000
 50
270.0000
  0
INSERT
  8
31
  2
RECT
 10
77.6809
 20
29.4411
 30
0.0000
 41
0.4500
 42
0.8000
 43
1.0000
 50
270.0000
  0
INSERT
  8
31
  2
RECT
 10
80.2309
 20
29.4411
 30
0.0000
 41
0.4500
 42
0.8000
 43
1.0000
 50
270.0000
  0
INSERT
  8
31
  2
RECT
 10
80.2309
 20
30.3911
 30
0.0000
 41
0.4500
 42
0.8000
 43
1.0000
 50
270.0000
  0
INSERT
  8
31
  2
RECT
 10
80.2309
 20
31.3411
 30
0.0000
 41
0.4500
 42
0.8000
 43
1.0000
 50
270.0000
  0
INSERT
  8
31
  2
RECT
 10
71.0750
 20
16.5060
 30
0.0000
 41
0.3500
 42
0.9000
 43
1.0000
 50
0.0000
  0
INSERT
  8
31
  2
RECT
 10
71.7250
 20
16.5060
 30
0.0000
 41
0.3500
 42
0.9000
 43
1.0000
 50
0.0000
  0
INSERT
  8
31
  2
RECT
 10
72.3750
 20
16.5060
 30
0.0000
 41
0.3500
 42
0.9000
 43
1.0000
 50
0.0000
  0
INSERT
  8
31
  2
RECT
 10
73.0250
 20
16.5060
 30
0.0000
 41
0.3500
 42
0.9000
 43
1.0000
 50
0.0000
  0
INSERT
  8
31
  2
RECT
 10
73.6750
 20
16.5060
 30
0.0000
 41
0.3500
 42
0.9000
 43
1.0000
 50
0.0000
  0
INSERT
  8
31
  2
RECT
 10
74.3250
 20
16.5060
 30
0.0000
 41
0.3500
 42
0.9000
 43
1.0000
 50
0.0000
  0
INSERT
  8
31
  2
RECT
 10
74.9750
 20
16.5060
 30
0.0000
 41
0.3500
 42
0.9000
 43
1.0000
 50
0.0000
  0
INSERT
  8
31
  2
RECT
 10
74.9750
 20
22.3560
 30
0.0000
 41
0.3500
 42
0.9000
 43
1.0000
 50
180.0000
  0
INSERT
  8
31
  2
RECT
 10
74.3250
 20
22.3560
 30
0.0000
 41
0.3500
 42
0.9000
 43
1.0000
 50
180.0000
  0
INSERT
  8
31
  2
RECT
 10
73.6750
 20
22.3560
 30
0.0000
 41
0.3500
 42
0.9000
 43
1.0000
 50
180.0000
  0
INSERT
  8
31
  2
RECT
 10
73.0250
 20
22.3560
 30
0.0000
 41
0.3500
 42
0.9000
 43
1.0000
 50
180.0000
  0
INSERT
  8
31
  2
RECT
 10
72.3750
 20
22.3560
 30
0.0000
 41
0.3500
 42
0.9000
 43
1.0000
 50
180.0000
  0
INSERT
  8
31
  2
RECT
 10
71.7250
 20
22.3560
 30
0.0000
 41
0.3500
 42
0.9000
 43
1.0000
 50
180.0000
  0
INSERT
  8
31
  2
RECT
 10
71.0750
 20
22.3560
 30
0.0000
 41
0.3500
 42
0.9000
 43
1.0000
 50
180.0000
  0
INSERT
  8
31
  2
RECT
 10
35.3822
 20
26.6446
 30
0.0000
 41
1.3208
 42
0.5588
 43
1.0000
 50
0.0000
  0
INSERT
  8
31
  2
RECT
 10
35.3822
 20
25.7048
 30
0.0000
 41
1.3208
 42
0.5588
 43
1.0000
 50
0.0000
  0
INSERT
  8
31
  2
RECT
 10
35.3822
 20
24.7650
 30
0.0000
 41
1.3208
 42
0.5588
 43
1.0000
 50
0.0000
  0
INSERT
  8
31
  2
RECT
 10
37.9222
 20
24.7650
 30
0.0000
 41
1.3208
 42
0.5588
 43
1.0000
 50
0.0000
  0
INSERT
  8
31
  2
RECT
 10
37.9222
 20
26.6446
 30
0.0000
 41
1.3208
 42
0.5588
 43
1.0000
 50
0.0000
  0
INSERT
  8
31
  2
RECT
 10
54.8809
 20
16.7019
 30
0.0000
 41
0.8000
 42
0.9000
 43
1.0000
 50
270.0000
  0
INSERT
  8
31
  2
RECT
 10
54.8809
 20
14.8019
 30
0.0000
 41
0.8000
 42
0.9000
 43
1.0000
 50
270.0000
  0
INSERT
  8
31
  2
RECT
 10
56.9809
 20
15.7519
 30
0.0000
 41
0.8000
 42
0.9000
 43
1.0000
 50
270.0000
  0
INSERT
  8
31
  2
RECT
 10
58.0350
 20
24.3020
 30
0.0000
 41
0.3500
 42
0.9000
 43
1.0000
 50
270.0000
  0
INSERT
  8
31
  2
RECT
 10
58.0350
 20
23.6520
 30
0.0000
 41
0.3500
 42
0.9000
 43
1.0000
 50
270.0000
  0
INSERT
  8
31
  2
RECT
 10
58.0350
 20
23.0020
 30
0.0000
 41
0.3500
 42
0.9000
 43
1.0000
 50
270.0000
  0
INSERT
  8
31
  2
RECT
 10
58.0350
 20
22.3520
 30
0.0000
 41
0.3500
 42
0.9000
 43
1.0000
 50
270.0000
  0
INSERT
  8
31
  2
RECT
 10
58.0350
 20
21.7020
 30
0.0000
 41
0.3500
 42
0.9000
 43
1.0000
 50
270.0000
  0
INSERT
  8
31
  2
RECT
 10
58.0350
 20
21.0520
 30
0.0000
 41
0.3500
 42
0.9000
 43
1.0000
 50
270.0000
  0
INSERT
  8
31
  2
RECT
 10
58.0350
 20
20.4020
 30
0.0000
 41
0.3500
 42
0.9000
 43
1.0000
 50
270.0000
  0
INSERT
  8
31
  2
RECT
 10
63.8850
 20
20.4020
 30
0.0000
 41
0.3500
 42
0.9000
 43
1.0000
 50
90.0000
  0
INSERT
  8
31
  2
RECT
 10
63.8850
 20
21.0520
 30
0.0000
 41
0.3500
 42
0.9000
 43
1.0000
 50
90.0000
  0
INSERT
  8
31
  2
RECT
 10
63.8850
 20
21.7020
 30
0.0000
 41
0.3500
 42
0.9000
 43
1.0000
 50
90.0000
  0
INSERT
  8
31
  2
RECT
 10
63.8850
 20
22.3520
 30
0.0000
 41
0.3500
 42
0.9000
 43
1.0000
 50
90.0000
  0
INSERT
  8
31
  2
RECT
 10
63.8850
 20
23.0020
 30
0.0000
 41
0.3500
 42
0.9000
 43
1.0000
 50
90.0000
  0
INSERT
  8
31
  2
RECT
 10
63.8850
 20
23.6520
 30
0.0000
 41
0.3500
 42
0.9000
 43
1.0000
 50
90.0000
  0
INSERT
  8
31
  2
RECT
 10
63.8850
 20
24.3020
 30
0.0000
 41
0.3500
 42
0.9000
 43
1.0000
 50
90.0000
  0
INSERT
  8
31
  2
RECT
 10
27.4955
 20
16.7573
 30
0.0000
 41
0.6000
 42
1.2000
 43
1.0000
 50
180.0000
  0
INSERT
  8
31
  2
RECT
 10
26.2255
 20
16.7573
 30
0.0000
 41
0.6000
 42
1.2000
 43
1.0000
 50
180.0000
  0
INSERT
  8
31
  2
RECT
 10
24.9555
 20
16.7573
 30
0.0000
 41
0.6000
 42
1.2000
 43
1.0000
 50
180.0000
  0
INSERT
  8
31
  2
RECT
 10
23.6855
 20
16.7573
 30
0.0000
 41
0.6000
 42
1.2000
 43
1.0000
 50
180.0000
  0
INSERT
  8
31
  2
RECT
 10
22.4155
 20
16.7573
 30
0.0000
 41
0.6000
 42
1.2000
 43
1.0000
 50
180.0000
  0
INSERT
  8
31
  2
RECT
 10
21.1455
 20
16.7573
 30
0.0000
 41
0.6000
 42
1.2000
 43
1.0000
 50
180.0000
  0
INSERT
  8
31
  2
RECT
 10
19.8755
 20
16.7573
 30
0.0000
 41
0.6000
 42
1.2000
 43
1.0000
 50
180.0000
  0
INSERT
  8
31
  2
RECT
 10
18.6055
 20
16.7573
 30
0.0000
 41
0.6000
 42
1.2000
 43
1.0000
 50
180.0000
  0
INSERT
  8
31
  2
RECT
 10
18.6055
 20
11.1573
 30
0.0000
 41
0.6000
 42
1.2000
 43
1.0000
 50
180.0000
  0
INSERT
  8
31
  2
RECT
 10
19.8755
 20
11.1573
 30
0.0000
 41
0.6000
 42
1.2000
 43
1.0000
 50
180.0000
  0
INSERT
  8
31
  2
RECT
 10
21.1455
 20
11.1573
 30
0.0000
 41
0.6000
 42
1.2000
 43
1.0000
 50
180.0000
  0
INSERT
  8
31
  2
RECT
 10
22.4155
 20
11.1573
 30
0.0000
 41
0.6000
 42
1.2000
 43
1.0000
 50
180.0000
  0
INSERT
  8
31
  2
RECT
 10
23.6855
 20
11.1573
 30
0.0000
 41
0.6000
 42
1.2000
 43
1.0000
 50
180.0000
  0
INSERT
  8
31
  2
RECT
 10
24.9555
 20
11.1573
 30
0.0000
 41
0.6000
 42
1.2000
 43
1.0000
 50
180.0000
  0
INSERT
  8
31
  2
RECT
 10
26.2255
 20
11.1573
 30
0.0000
 41
0.6000
 42
1.2000
 43
1.0000
 50
180.0000
  0
INSERT
  8
31
  2
RECT
 10
27.4955
 20
11.1573
 30
0.0000
 41
0.6000
 42
1.2000
 43
1.0000
 50
180.0000
  0
INSERT
  8
31
  2
RECT
 10
11.3617
 20
29.6545
 30
0.0000
 41
0.5000
 42
2.1500
 43
1.0000
 50
270.0000
  0
INSERT
  8
31
  2
RECT
 10
11.3617
 20
28.3845
 30
0.0000
 41
0.5000
 42
2.1500
 43
1.0000
 50
270.0000
  0
INSERT
  8
31
  2
RECT
 10
11.3617
 20
27.1145
 30
0.0000
 41
0.5000
 42
2.1500
 43
1.0000
 50
270.0000
  0
INSERT
  8
31
  2
RECT
 10
11.3617
 20
25.8445
 30
0.0000
 41
0.5000
 42
2.1500
 43
1.0000
 50
270.0000
  0
INSERT
  8
31
  2
RECT
 10
17.1117
 20
25.8445
 30
0.0000
 41
0.5000
 42
2.1500
 43
1.0000
 50
270.0000
  0
INSERT
  8
31
  2
RECT
 10
17.1117
 20
27.1145
 30
0.0000
 41
0.5000
 42
2.1500
 43
1.0000
 50
270.0000
  0
INSERT
  8
31
  2
RECT
 10
17.1117
 20
28.3845
 30
0.0000
 41
0.5000
 42
2.1500
 43
1.0000
 50
270.0000
  0
INSERT
  8
31
  2
RECT
 10
17.1117
 20
29.6545
 30
0.0000
 41
0.5000
 42
2.1500
 43
1.0000
 50
270.0000
  0
INSERT
  8
31
  2
RECT
 10
14.2367
 20
27.7495
 30
0.0000
 41
3.1000
 42
2.4000
 43
1.0000
 50
90.0000
  0
INSERT
  8
31
  2
RECT
 10
78.7527
 20
15.8053
 30
0.0000
 41
0.7000
 42
1.7000
 43
1.0000
 50
90.0000
  0
INSERT
  8
31
  2
RECT
 10
78.7527
 20
17.0053
 30
0.0000
 41
0.7000
 42
1.7000
 43
1.0000
 50
90.0000
  0
INSERT
  8
31
  2
RECT
 10
78.7527
 20
18.2053
 30
0.0000
 41
0.7000
 42
1.7000
 43
1.0000
 50
90.0000
  0
ENDSEC
  0
EOF
