G75*
G70*
%OFA0B0*%
%FSLAX24Y24*%
%IPPOS*%
%LPD*%
%AMOC8*
5,1,8,0,0,1.08239X$1,22.5*
%
%ADD10C,0.0000*%
%ADD11R,0.0520X0.0220*%
%ADD12R,0.0472X0.0315*%
%ADD13R,0.0315X0.0472*%
%ADD14R,0.1260X0.0709*%
%ADD15R,0.0630X0.0709*%
%ADD16R,0.1220X0.0394*%
%ADD17R,0.0669X0.0276*%
%ADD18R,0.0500X0.0220*%
%ADD19R,0.0220X0.0500*%
%ADD20R,0.0236X0.0472*%
%ADD21R,0.0315X0.0177*%
%ADD22R,0.0846X0.0197*%
%ADD23R,0.0945X0.1220*%
%ADD24C,0.0246*%
%ADD25R,0.1378X0.1614*%
%ADD26R,0.0550X0.0550*%
%ADD27R,0.0709X0.0630*%
%ADD28R,0.0354X0.0315*%
%ADD29R,0.0787X0.0472*%
%ADD30R,0.0900X0.1890*%
%ADD31R,0.1000X0.1000*%
%ADD32R,0.0276X0.0276*%
%ADD33R,0.1457X0.0709*%
%ADD34R,0.0354X0.0138*%
%ADD35R,0.0138X0.0354*%
%ADD36R,0.0787X0.0701*%
%ADD37R,0.1339X0.1024*%
D10*
X000180Y005173D02*
X011735Y005173D01*
X011735Y009110D01*
X029633Y009110D01*
X029633Y000843D01*
X037975Y000843D01*
X037975Y018559D01*
X034827Y021708D01*
X003329Y021708D01*
X000180Y018559D01*
X000180Y005173D01*
X000783Y006386D02*
X000785Y006435D01*
X000791Y006484D01*
X000801Y006532D01*
X000814Y006579D01*
X000832Y006625D01*
X000853Y006669D01*
X000877Y006712D01*
X000905Y006752D01*
X000936Y006791D01*
X000970Y006826D01*
X001007Y006859D01*
X001046Y006888D01*
X001088Y006914D01*
X001131Y006937D01*
X001177Y006956D01*
X001223Y006972D01*
X001271Y006984D01*
X001319Y006992D01*
X001368Y006996D01*
X001418Y006996D01*
X001467Y006992D01*
X001515Y006984D01*
X001563Y006972D01*
X001609Y006956D01*
X001655Y006937D01*
X001698Y006914D01*
X001740Y006888D01*
X001779Y006859D01*
X001816Y006826D01*
X001850Y006791D01*
X001881Y006752D01*
X001909Y006712D01*
X001933Y006669D01*
X001954Y006625D01*
X001972Y006579D01*
X001985Y006532D01*
X001995Y006484D01*
X002001Y006435D01*
X002003Y006386D01*
X002001Y006337D01*
X001995Y006288D01*
X001985Y006240D01*
X001972Y006193D01*
X001954Y006147D01*
X001933Y006103D01*
X001909Y006060D01*
X001881Y006020D01*
X001850Y005981D01*
X001816Y005946D01*
X001779Y005913D01*
X001740Y005884D01*
X001698Y005858D01*
X001655Y005835D01*
X001609Y005816D01*
X001563Y005800D01*
X001515Y005788D01*
X001467Y005780D01*
X001418Y005776D01*
X001368Y005776D01*
X001319Y005780D01*
X001271Y005788D01*
X001223Y005800D01*
X001177Y005816D01*
X001131Y005835D01*
X001088Y005858D01*
X001046Y005884D01*
X001007Y005913D01*
X000970Y005946D01*
X000936Y005981D01*
X000905Y006020D01*
X000877Y006060D01*
X000853Y006103D01*
X000832Y006147D01*
X000814Y006193D01*
X000801Y006240D01*
X000791Y006288D01*
X000785Y006337D01*
X000783Y006386D01*
X001570Y018591D02*
X001572Y018640D01*
X001578Y018689D01*
X001588Y018737D01*
X001601Y018784D01*
X001619Y018830D01*
X001640Y018874D01*
X001664Y018917D01*
X001692Y018957D01*
X001723Y018996D01*
X001757Y019031D01*
X001794Y019064D01*
X001833Y019093D01*
X001875Y019119D01*
X001918Y019142D01*
X001964Y019161D01*
X002010Y019177D01*
X002058Y019189D01*
X002106Y019197D01*
X002155Y019201D01*
X002205Y019201D01*
X002254Y019197D01*
X002302Y019189D01*
X002350Y019177D01*
X002396Y019161D01*
X002442Y019142D01*
X002485Y019119D01*
X002527Y019093D01*
X002566Y019064D01*
X002603Y019031D01*
X002637Y018996D01*
X002668Y018957D01*
X002696Y018917D01*
X002720Y018874D01*
X002741Y018830D01*
X002759Y018784D01*
X002772Y018737D01*
X002782Y018689D01*
X002788Y018640D01*
X002790Y018591D01*
X002788Y018542D01*
X002782Y018493D01*
X002772Y018445D01*
X002759Y018398D01*
X002741Y018352D01*
X002720Y018308D01*
X002696Y018265D01*
X002668Y018225D01*
X002637Y018186D01*
X002603Y018151D01*
X002566Y018118D01*
X002527Y018089D01*
X002485Y018063D01*
X002442Y018040D01*
X002396Y018021D01*
X002350Y018005D01*
X002302Y017993D01*
X002254Y017985D01*
X002205Y017981D01*
X002155Y017981D01*
X002106Y017985D01*
X002058Y017993D01*
X002010Y018005D01*
X001964Y018021D01*
X001918Y018040D01*
X001875Y018063D01*
X001833Y018089D01*
X001794Y018118D01*
X001757Y018151D01*
X001723Y018186D01*
X001692Y018225D01*
X001664Y018265D01*
X001640Y018308D01*
X001619Y018352D01*
X001601Y018398D01*
X001588Y018445D01*
X001578Y018493D01*
X001572Y018542D01*
X001570Y018591D01*
X035428Y018591D02*
X035430Y018640D01*
X035436Y018689D01*
X035446Y018737D01*
X035459Y018784D01*
X035477Y018830D01*
X035498Y018874D01*
X035522Y018917D01*
X035550Y018957D01*
X035581Y018996D01*
X035615Y019031D01*
X035652Y019064D01*
X035691Y019093D01*
X035733Y019119D01*
X035776Y019142D01*
X035822Y019161D01*
X035868Y019177D01*
X035916Y019189D01*
X035964Y019197D01*
X036013Y019201D01*
X036063Y019201D01*
X036112Y019197D01*
X036160Y019189D01*
X036208Y019177D01*
X036254Y019161D01*
X036300Y019142D01*
X036343Y019119D01*
X036385Y019093D01*
X036424Y019064D01*
X036461Y019031D01*
X036495Y018996D01*
X036526Y018957D01*
X036554Y018917D01*
X036578Y018874D01*
X036599Y018830D01*
X036617Y018784D01*
X036630Y018737D01*
X036640Y018689D01*
X036646Y018640D01*
X036648Y018591D01*
X036646Y018542D01*
X036640Y018493D01*
X036630Y018445D01*
X036617Y018398D01*
X036599Y018352D01*
X036578Y018308D01*
X036554Y018265D01*
X036526Y018225D01*
X036495Y018186D01*
X036461Y018151D01*
X036424Y018118D01*
X036385Y018089D01*
X036343Y018063D01*
X036300Y018040D01*
X036254Y018021D01*
X036208Y018005D01*
X036160Y017993D01*
X036112Y017985D01*
X036063Y017981D01*
X036013Y017981D01*
X035964Y017985D01*
X035916Y017993D01*
X035868Y018005D01*
X035822Y018021D01*
X035776Y018040D01*
X035733Y018063D01*
X035691Y018089D01*
X035652Y018118D01*
X035615Y018151D01*
X035581Y018186D01*
X035550Y018225D01*
X035522Y018265D01*
X035498Y018308D01*
X035477Y018352D01*
X035459Y018398D01*
X035446Y018445D01*
X035436Y018493D01*
X035430Y018542D01*
X035428Y018591D01*
X036216Y002055D02*
X036218Y002104D01*
X036224Y002153D01*
X036234Y002201D01*
X036247Y002248D01*
X036265Y002294D01*
X036286Y002338D01*
X036310Y002381D01*
X036338Y002421D01*
X036369Y002460D01*
X036403Y002495D01*
X036440Y002528D01*
X036479Y002557D01*
X036521Y002583D01*
X036564Y002606D01*
X036610Y002625D01*
X036656Y002641D01*
X036704Y002653D01*
X036752Y002661D01*
X036801Y002665D01*
X036851Y002665D01*
X036900Y002661D01*
X036948Y002653D01*
X036996Y002641D01*
X037042Y002625D01*
X037088Y002606D01*
X037131Y002583D01*
X037173Y002557D01*
X037212Y002528D01*
X037249Y002495D01*
X037283Y002460D01*
X037314Y002421D01*
X037342Y002381D01*
X037366Y002338D01*
X037387Y002294D01*
X037405Y002248D01*
X037418Y002201D01*
X037428Y002153D01*
X037434Y002104D01*
X037436Y002055D01*
X037434Y002006D01*
X037428Y001957D01*
X037418Y001909D01*
X037405Y001862D01*
X037387Y001816D01*
X037366Y001772D01*
X037342Y001729D01*
X037314Y001689D01*
X037283Y001650D01*
X037249Y001615D01*
X037212Y001582D01*
X037173Y001553D01*
X037131Y001527D01*
X037088Y001504D01*
X037042Y001485D01*
X036996Y001469D01*
X036948Y001457D01*
X036900Y001449D01*
X036851Y001445D01*
X036801Y001445D01*
X036752Y001449D01*
X036704Y001457D01*
X036656Y001469D01*
X036610Y001485D01*
X036564Y001504D01*
X036521Y001527D01*
X036479Y001553D01*
X036440Y001582D01*
X036403Y001615D01*
X036369Y001650D01*
X036338Y001689D01*
X036310Y001729D01*
X036286Y001772D01*
X036265Y001816D01*
X036247Y001862D01*
X036234Y001909D01*
X036224Y001957D01*
X036218Y002006D01*
X036216Y002055D01*
D11*
X015110Y014923D03*
X015110Y015663D03*
X014110Y015663D03*
X014110Y015293D03*
X014110Y014923D03*
D12*
X012505Y013423D03*
X011805Y013423D03*
X011105Y013423D03*
X010405Y013423D03*
X009705Y013423D03*
X009005Y013423D03*
X008245Y013418D03*
X007515Y013418D03*
X007515Y012709D03*
X008245Y012709D03*
X009005Y012714D03*
X009705Y012714D03*
X010405Y012714D03*
X011105Y012714D03*
X011805Y012714D03*
X012505Y012714D03*
X011930Y011043D03*
X011930Y010334D03*
X018840Y010959D03*
X018840Y011668D03*
X021100Y011627D03*
X021100Y010919D03*
X022135Y012689D03*
X022135Y013398D03*
X022135Y013889D03*
X022135Y014598D03*
X026210Y014683D03*
X026210Y013974D03*
X027230Y013878D03*
X027230Y013169D03*
X027230Y012578D03*
X027230Y011869D03*
X030480Y010828D03*
X030480Y010119D03*
X030180Y007928D03*
X030180Y007219D03*
X031580Y004008D03*
X031580Y003299D03*
X030380Y002378D03*
X030380Y001669D03*
X037180Y004319D03*
X037180Y005028D03*
X037180Y008819D03*
X037180Y009528D03*
X035780Y010419D03*
X035780Y011128D03*
X035765Y014484D03*
X035765Y015193D03*
X031635Y014889D03*
X030935Y014889D03*
X030935Y015598D03*
X031635Y015598D03*
X030165Y016984D03*
X030165Y017693D03*
X024460Y017993D03*
X023665Y018018D03*
X023665Y017309D03*
X024460Y017284D03*
X022380Y018219D03*
X021780Y018219D03*
X021780Y018928D03*
X022380Y018928D03*
X020780Y018928D03*
X020780Y018219D03*
X019780Y018219D03*
X018780Y018219D03*
X018780Y018928D03*
X019780Y018928D03*
X017780Y018928D03*
X017780Y018219D03*
X009210Y015168D03*
X008635Y015599D03*
X007835Y015624D03*
X007835Y016333D03*
X008635Y016308D03*
X009210Y014459D03*
X003710Y015650D03*
X003710Y016358D03*
X002300Y014923D03*
X002300Y014214D03*
X001135Y012998D03*
X001135Y012289D03*
X000980Y011628D03*
X000980Y010919D03*
D13*
X005856Y014328D03*
X006564Y014328D03*
X007826Y014494D03*
X007836Y015103D03*
X008544Y015103D03*
X008535Y014494D03*
X008659Y017073D03*
X007951Y017073D03*
X005310Y017684D03*
X004602Y017684D03*
X014826Y014173D03*
X015534Y014173D03*
X016546Y012053D03*
X017254Y012053D03*
X021126Y009956D03*
X021835Y009956D03*
X025551Y011823D03*
X026259Y011823D03*
X026034Y012518D03*
X025326Y012518D03*
X028776Y010823D03*
X029484Y010823D03*
X029504Y009903D03*
X028796Y009903D03*
X028294Y009893D03*
X027586Y009893D03*
X031226Y010073D03*
X031934Y010073D03*
X035576Y009723D03*
X036284Y009723D03*
X031534Y012933D03*
X030826Y012933D03*
X030806Y014013D03*
X031514Y014013D03*
X029784Y014923D03*
X029076Y014923D03*
X029076Y015523D03*
X029784Y015523D03*
X029549Y016508D03*
X028841Y016508D03*
X028841Y017208D03*
X029549Y017208D03*
X030911Y018138D03*
X031619Y018138D03*
X026234Y015373D03*
X025526Y015373D03*
X023904Y015718D03*
X023196Y015718D03*
X016634Y018673D03*
X015926Y018673D03*
X012334Y011823D03*
X011626Y011823D03*
X011776Y009623D03*
X012484Y009623D03*
X010794Y007223D03*
X010086Y007223D03*
X010086Y006523D03*
X010794Y006523D03*
X010794Y005823D03*
X010086Y005823D03*
X003634Y007073D03*
X002926Y007073D03*
X035626Y003573D03*
X036334Y003573D03*
D14*
X013730Y011816D03*
X013730Y014021D03*
D15*
X014834Y016458D03*
X015936Y016458D03*
X015729Y017573D03*
X016831Y017573D03*
X002931Y010773D03*
X001829Y010773D03*
X032814Y016938D03*
X033916Y016938D03*
D16*
X006152Y013561D03*
X006152Y011986D03*
X002608Y011986D03*
X002608Y013561D03*
D17*
X031185Y012341D03*
X031185Y011868D03*
X031185Y011396D03*
D18*
X032345Y011641D03*
X032345Y011956D03*
X032345Y012271D03*
X032345Y012586D03*
X032345Y012901D03*
X032345Y013216D03*
X032345Y013531D03*
X032345Y013846D03*
X035725Y013846D03*
X035725Y013531D03*
X035725Y013216D03*
X035725Y012901D03*
X035725Y012586D03*
X035725Y012271D03*
X035725Y011956D03*
X035725Y011641D03*
D19*
X035137Y011053D03*
X034822Y011053D03*
X034507Y011053D03*
X034192Y011053D03*
X033878Y011053D03*
X033563Y011053D03*
X033248Y011053D03*
X032933Y011053D03*
X032933Y014433D03*
X033248Y014433D03*
X033563Y014433D03*
X033878Y014433D03*
X034192Y014433D03*
X034507Y014433D03*
X034822Y014433D03*
X035137Y014433D03*
D20*
X011005Y011771D03*
X010505Y011771D03*
X010005Y011771D03*
X009505Y011771D03*
X009005Y011771D03*
X008505Y011771D03*
X008005Y011771D03*
X007505Y011771D03*
X007505Y009566D03*
X008005Y009566D03*
X008505Y009566D03*
X009005Y009566D03*
X009505Y009566D03*
X010005Y009566D03*
X010505Y009566D03*
X011005Y009566D03*
D21*
X030763Y016764D03*
X030763Y017138D03*
X030763Y017512D03*
X031767Y017512D03*
X031767Y017138D03*
X031767Y016764D03*
D22*
X006917Y016848D03*
X006917Y016348D03*
X006917Y015848D03*
X006917Y015348D03*
X004653Y015348D03*
X004653Y015848D03*
X004653Y016348D03*
X004653Y016848D03*
D23*
X005785Y016098D03*
D24*
X032290Y018830D02*
X033540Y018830D01*
X033540Y018584D01*
X032290Y018584D01*
X032290Y018830D01*
X032290Y018829D02*
X033540Y018829D01*
X033540Y019933D02*
X032290Y019933D01*
X033540Y019933D02*
X033540Y019687D01*
X032290Y019687D01*
X032290Y019933D01*
X032290Y019932D02*
X033540Y019932D01*
D25*
X011545Y019239D03*
X011545Y015498D03*
D26*
X032715Y017838D03*
X034015Y017838D03*
D27*
X034295Y018757D03*
X034295Y019860D03*
X022250Y016370D03*
X022250Y015267D03*
D28*
X021787Y011749D03*
X022613Y011375D03*
X021787Y011001D03*
D29*
X002795Y015804D03*
X001550Y015824D03*
X001160Y015108D03*
X001160Y013849D03*
X001550Y017083D03*
X002795Y017063D03*
D30*
X006280Y018748D03*
X008720Y018748D03*
X003355Y009003D03*
X000915Y009003D03*
D31*
X006705Y007558D03*
X008555Y007558D03*
D32*
X003980Y010309D03*
X003724Y011038D03*
X004236Y011038D03*
X018004Y010418D03*
X018516Y010418D03*
X018260Y009689D03*
X025154Y017509D03*
X025666Y017509D03*
X025410Y018238D03*
D33*
X004895Y009442D03*
X004895Y007375D03*
D34*
X023028Y013206D03*
X023028Y013462D03*
X023028Y013718D03*
X023028Y013973D03*
X023028Y014229D03*
X023028Y014485D03*
X023028Y014741D03*
X025332Y014741D03*
X025332Y014485D03*
X025332Y014229D03*
X025332Y013973D03*
X025332Y013718D03*
X025332Y013462D03*
X025332Y013206D03*
D35*
X028162Y013975D03*
X028418Y013975D03*
X028674Y013975D03*
X028930Y013975D03*
X029186Y013975D03*
X029442Y013975D03*
X029698Y013975D03*
X029698Y011672D03*
X029442Y011672D03*
X029186Y011672D03*
X028930Y011672D03*
X028674Y011672D03*
X028418Y011672D03*
X028162Y011672D03*
D36*
X031723Y002573D03*
X031723Y001573D03*
X034656Y001573D03*
X034656Y002573D03*
D37*
X018740Y012602D03*
X018740Y016145D03*
M02*
