G04 EAGLE Gerber RS-274X export*
G75*
%MOMM*%
%FSLAX34Y34*%
%LPD*%
%INBottom Silkscreen*%
%IPPOS*%
%AMOC8*
5,1,8,0,0,1.08239X$1,22.5*%
G01*
%ADD10C,0.152400*%
%ADD11C,0.508000*%


D10*
X651440Y730878D02*
X651440Y393312D01*
X488880Y393312D01*
X488880Y730878D01*
X651440Y730878D01*
D11*
X623500Y421760D02*
X623622Y421758D01*
X623744Y421752D01*
X623866Y421742D01*
X623987Y421729D01*
X624108Y421711D01*
X624228Y421690D01*
X624348Y421664D01*
X624466Y421635D01*
X624584Y421603D01*
X624701Y421566D01*
X624816Y421526D01*
X624930Y421482D01*
X625042Y421434D01*
X625153Y421383D01*
X625262Y421328D01*
X625370Y421270D01*
X625475Y421208D01*
X625578Y421143D01*
X625680Y421075D01*
X625779Y421003D01*
X625875Y420929D01*
X625970Y420851D01*
X626061Y420770D01*
X626151Y420687D01*
X626237Y420601D01*
X626320Y420511D01*
X626401Y420420D01*
X626479Y420325D01*
X626553Y420229D01*
X626625Y420130D01*
X626693Y420028D01*
X626758Y419925D01*
X626820Y419820D01*
X626878Y419712D01*
X626933Y419603D01*
X626984Y419492D01*
X627032Y419380D01*
X627076Y419266D01*
X627116Y419151D01*
X627153Y419034D01*
X627185Y418916D01*
X627214Y418798D01*
X627240Y418678D01*
X627261Y418558D01*
X627279Y418437D01*
X627292Y418316D01*
X627302Y418194D01*
X627308Y418072D01*
X627310Y417950D01*
X627308Y417828D01*
X627302Y417706D01*
X627292Y417584D01*
X627279Y417463D01*
X627261Y417342D01*
X627240Y417222D01*
X627214Y417102D01*
X627185Y416984D01*
X627153Y416866D01*
X627116Y416749D01*
X627076Y416634D01*
X627032Y416520D01*
X626984Y416408D01*
X626933Y416297D01*
X626878Y416188D01*
X626820Y416080D01*
X626758Y415975D01*
X626693Y415872D01*
X626625Y415770D01*
X626553Y415671D01*
X626479Y415575D01*
X626401Y415480D01*
X626320Y415389D01*
X626237Y415299D01*
X626151Y415213D01*
X626061Y415130D01*
X625970Y415049D01*
X625875Y414971D01*
X625779Y414897D01*
X625680Y414825D01*
X625578Y414757D01*
X625475Y414692D01*
X625370Y414630D01*
X625262Y414572D01*
X625153Y414517D01*
X625042Y414466D01*
X624930Y414418D01*
X624816Y414374D01*
X624701Y414334D01*
X624584Y414297D01*
X624466Y414265D01*
X624348Y414236D01*
X624228Y414210D01*
X624108Y414189D01*
X623987Y414171D01*
X623866Y414158D01*
X623744Y414148D01*
X623622Y414142D01*
X623500Y414140D01*
X623378Y414142D01*
X623256Y414148D01*
X623134Y414158D01*
X623013Y414171D01*
X622892Y414189D01*
X622772Y414210D01*
X622652Y414236D01*
X622534Y414265D01*
X622416Y414297D01*
X622299Y414334D01*
X622184Y414374D01*
X622070Y414418D01*
X621958Y414466D01*
X621847Y414517D01*
X621738Y414572D01*
X621630Y414630D01*
X621525Y414692D01*
X621422Y414757D01*
X621320Y414825D01*
X621221Y414897D01*
X621125Y414971D01*
X621030Y415049D01*
X620939Y415130D01*
X620849Y415213D01*
X620763Y415299D01*
X620680Y415389D01*
X620599Y415480D01*
X620521Y415575D01*
X620447Y415671D01*
X620375Y415770D01*
X620307Y415872D01*
X620242Y415975D01*
X620180Y416080D01*
X620122Y416188D01*
X620067Y416297D01*
X620016Y416408D01*
X619968Y416520D01*
X619924Y416634D01*
X619884Y416749D01*
X619847Y416866D01*
X619815Y416984D01*
X619786Y417102D01*
X619760Y417222D01*
X619739Y417342D01*
X619721Y417463D01*
X619708Y417584D01*
X619698Y417706D01*
X619692Y417828D01*
X619690Y417950D01*
X619692Y418072D01*
X619698Y418194D01*
X619708Y418316D01*
X619721Y418437D01*
X619739Y418558D01*
X619760Y418678D01*
X619786Y418798D01*
X619815Y418916D01*
X619847Y419034D01*
X619884Y419151D01*
X619924Y419266D01*
X619968Y419380D01*
X620016Y419492D01*
X620067Y419603D01*
X620122Y419712D01*
X620180Y419820D01*
X620242Y419925D01*
X620307Y420028D01*
X620375Y420130D01*
X620447Y420229D01*
X620521Y420325D01*
X620599Y420420D01*
X620680Y420511D01*
X620763Y420601D01*
X620849Y420687D01*
X620939Y420770D01*
X621030Y420851D01*
X621125Y420929D01*
X621221Y421003D01*
X621320Y421075D01*
X621422Y421143D01*
X621525Y421208D01*
X621630Y421270D01*
X621738Y421328D01*
X621847Y421383D01*
X621958Y421434D01*
X622070Y421482D01*
X622184Y421526D01*
X622299Y421566D01*
X622416Y421603D01*
X622534Y421635D01*
X622652Y421664D01*
X622772Y421690D01*
X622892Y421711D01*
X623013Y421729D01*
X623134Y421742D01*
X623256Y421752D01*
X623378Y421758D01*
X623500Y421760D01*
D10*
X441540Y393612D02*
X441540Y731178D01*
X441540Y393612D02*
X278980Y393612D01*
X278980Y731178D01*
X441540Y731178D01*
D11*
X413600Y422060D02*
X413722Y422058D01*
X413844Y422052D01*
X413966Y422042D01*
X414087Y422029D01*
X414208Y422011D01*
X414328Y421990D01*
X414448Y421964D01*
X414566Y421935D01*
X414684Y421903D01*
X414801Y421866D01*
X414916Y421826D01*
X415030Y421782D01*
X415142Y421734D01*
X415253Y421683D01*
X415362Y421628D01*
X415470Y421570D01*
X415575Y421508D01*
X415678Y421443D01*
X415780Y421375D01*
X415879Y421303D01*
X415975Y421229D01*
X416070Y421151D01*
X416161Y421070D01*
X416251Y420987D01*
X416337Y420901D01*
X416420Y420811D01*
X416501Y420720D01*
X416579Y420625D01*
X416653Y420529D01*
X416725Y420430D01*
X416793Y420328D01*
X416858Y420225D01*
X416920Y420120D01*
X416978Y420012D01*
X417033Y419903D01*
X417084Y419792D01*
X417132Y419680D01*
X417176Y419566D01*
X417216Y419451D01*
X417253Y419334D01*
X417285Y419216D01*
X417314Y419098D01*
X417340Y418978D01*
X417361Y418858D01*
X417379Y418737D01*
X417392Y418616D01*
X417402Y418494D01*
X417408Y418372D01*
X417410Y418250D01*
X417408Y418128D01*
X417402Y418006D01*
X417392Y417884D01*
X417379Y417763D01*
X417361Y417642D01*
X417340Y417522D01*
X417314Y417402D01*
X417285Y417284D01*
X417253Y417166D01*
X417216Y417049D01*
X417176Y416934D01*
X417132Y416820D01*
X417084Y416708D01*
X417033Y416597D01*
X416978Y416488D01*
X416920Y416380D01*
X416858Y416275D01*
X416793Y416172D01*
X416725Y416070D01*
X416653Y415971D01*
X416579Y415875D01*
X416501Y415780D01*
X416420Y415689D01*
X416337Y415599D01*
X416251Y415513D01*
X416161Y415430D01*
X416070Y415349D01*
X415975Y415271D01*
X415879Y415197D01*
X415780Y415125D01*
X415678Y415057D01*
X415575Y414992D01*
X415470Y414930D01*
X415362Y414872D01*
X415253Y414817D01*
X415142Y414766D01*
X415030Y414718D01*
X414916Y414674D01*
X414801Y414634D01*
X414684Y414597D01*
X414566Y414565D01*
X414448Y414536D01*
X414328Y414510D01*
X414208Y414489D01*
X414087Y414471D01*
X413966Y414458D01*
X413844Y414448D01*
X413722Y414442D01*
X413600Y414440D01*
X413478Y414442D01*
X413356Y414448D01*
X413234Y414458D01*
X413113Y414471D01*
X412992Y414489D01*
X412872Y414510D01*
X412752Y414536D01*
X412634Y414565D01*
X412516Y414597D01*
X412399Y414634D01*
X412284Y414674D01*
X412170Y414718D01*
X412058Y414766D01*
X411947Y414817D01*
X411838Y414872D01*
X411730Y414930D01*
X411625Y414992D01*
X411522Y415057D01*
X411420Y415125D01*
X411321Y415197D01*
X411225Y415271D01*
X411130Y415349D01*
X411039Y415430D01*
X410949Y415513D01*
X410863Y415599D01*
X410780Y415689D01*
X410699Y415780D01*
X410621Y415875D01*
X410547Y415971D01*
X410475Y416070D01*
X410407Y416172D01*
X410342Y416275D01*
X410280Y416380D01*
X410222Y416488D01*
X410167Y416597D01*
X410116Y416708D01*
X410068Y416820D01*
X410024Y416934D01*
X409984Y417049D01*
X409947Y417166D01*
X409915Y417284D01*
X409886Y417402D01*
X409860Y417522D01*
X409839Y417642D01*
X409821Y417763D01*
X409808Y417884D01*
X409798Y418006D01*
X409792Y418128D01*
X409790Y418250D01*
X409792Y418372D01*
X409798Y418494D01*
X409808Y418616D01*
X409821Y418737D01*
X409839Y418858D01*
X409860Y418978D01*
X409886Y419098D01*
X409915Y419216D01*
X409947Y419334D01*
X409984Y419451D01*
X410024Y419566D01*
X410068Y419680D01*
X410116Y419792D01*
X410167Y419903D01*
X410222Y420012D01*
X410280Y420120D01*
X410342Y420225D01*
X410407Y420328D01*
X410475Y420430D01*
X410547Y420529D01*
X410621Y420625D01*
X410699Y420720D01*
X410780Y420811D01*
X410863Y420901D01*
X410949Y420987D01*
X411039Y421070D01*
X411130Y421151D01*
X411225Y421229D01*
X411321Y421303D01*
X411420Y421375D01*
X411522Y421443D01*
X411625Y421508D01*
X411730Y421570D01*
X411838Y421628D01*
X411947Y421683D01*
X412058Y421734D01*
X412170Y421782D01*
X412284Y421826D01*
X412399Y421866D01*
X412516Y421903D01*
X412634Y421935D01*
X412752Y421964D01*
X412872Y421990D01*
X412992Y422011D01*
X413113Y422029D01*
X413234Y422042D01*
X413356Y422052D01*
X413478Y422058D01*
X413600Y422060D01*
M02*
