G04 EAGLE Gerber RS-274X export*
G75*
%MOMM*%
%FSLAX34Y34*%
%LPD*%
%INTop Silkscreen*%
%IPPOS*%
%AMOC8*
5,1,8,0,0,1.08239X$1,22.5*%
G01*
%ADD10C,0.101600*%
%ADD11C,0.152400*%
%ADD12C,0.431800*%
%ADD13C,0.508000*%
%ADD14C,0.177800*%
%ADD15C,0.254000*%


D10*
X320508Y532297D02*
X323104Y524508D01*
X325701Y532297D01*
X330146Y524508D02*
X333391Y524508D01*
X333504Y524510D01*
X333617Y524516D01*
X333730Y524526D01*
X333843Y524540D01*
X333955Y524557D01*
X334066Y524579D01*
X334176Y524604D01*
X334286Y524634D01*
X334394Y524667D01*
X334501Y524704D01*
X334607Y524744D01*
X334711Y524789D01*
X334814Y524837D01*
X334915Y524888D01*
X335014Y524943D01*
X335111Y525001D01*
X335206Y525063D01*
X335299Y525128D01*
X335389Y525196D01*
X335477Y525267D01*
X335563Y525342D01*
X335646Y525419D01*
X335726Y525499D01*
X335803Y525582D01*
X335878Y525668D01*
X335949Y525756D01*
X336017Y525846D01*
X336082Y525939D01*
X336144Y526034D01*
X336202Y526131D01*
X336257Y526230D01*
X336308Y526331D01*
X336356Y526434D01*
X336401Y526538D01*
X336441Y526644D01*
X336478Y526751D01*
X336511Y526859D01*
X336541Y526969D01*
X336566Y527079D01*
X336588Y527190D01*
X336605Y527302D01*
X336619Y527415D01*
X336629Y527528D01*
X336635Y527641D01*
X336637Y527754D01*
X336635Y527867D01*
X336629Y527980D01*
X336619Y528093D01*
X336605Y528206D01*
X336588Y528318D01*
X336566Y528429D01*
X336541Y528539D01*
X336511Y528649D01*
X336478Y528757D01*
X336441Y528864D01*
X336401Y528970D01*
X336356Y529074D01*
X336308Y529177D01*
X336257Y529278D01*
X336202Y529377D01*
X336144Y529474D01*
X336082Y529569D01*
X336017Y529662D01*
X335949Y529752D01*
X335878Y529840D01*
X335803Y529926D01*
X335726Y530009D01*
X335646Y530089D01*
X335563Y530166D01*
X335477Y530241D01*
X335389Y530312D01*
X335299Y530380D01*
X335206Y530445D01*
X335111Y530507D01*
X335014Y530565D01*
X334915Y530620D01*
X334814Y530671D01*
X334711Y530719D01*
X334607Y530764D01*
X334501Y530804D01*
X334394Y530841D01*
X334286Y530874D01*
X334176Y530904D01*
X334066Y530929D01*
X333955Y530951D01*
X333843Y530968D01*
X333730Y530982D01*
X333617Y530992D01*
X333504Y530998D01*
X333391Y531000D01*
X334041Y536192D02*
X330146Y536192D01*
X334041Y536192D02*
X334142Y536190D01*
X334242Y536184D01*
X334342Y536174D01*
X334442Y536161D01*
X334541Y536143D01*
X334640Y536122D01*
X334737Y536097D01*
X334834Y536068D01*
X334929Y536035D01*
X335023Y535999D01*
X335115Y535959D01*
X335206Y535916D01*
X335295Y535869D01*
X335382Y535819D01*
X335468Y535765D01*
X335551Y535708D01*
X335631Y535648D01*
X335710Y535585D01*
X335786Y535518D01*
X335859Y535449D01*
X335929Y535377D01*
X335997Y535303D01*
X336062Y535226D01*
X336123Y535146D01*
X336182Y535064D01*
X336237Y534980D01*
X336289Y534894D01*
X336338Y534806D01*
X336383Y534716D01*
X336425Y534624D01*
X336463Y534531D01*
X336497Y534436D01*
X336528Y534341D01*
X336555Y534244D01*
X336578Y534146D01*
X336598Y534047D01*
X336613Y533947D01*
X336625Y533847D01*
X336633Y533747D01*
X336637Y533646D01*
X336637Y533546D01*
X336633Y533445D01*
X336625Y533345D01*
X336613Y533245D01*
X336598Y533145D01*
X336578Y533046D01*
X336555Y532948D01*
X336528Y532851D01*
X336497Y532756D01*
X336463Y532661D01*
X336425Y532568D01*
X336383Y532476D01*
X336338Y532386D01*
X336289Y532298D01*
X336237Y532212D01*
X336182Y532128D01*
X336123Y532046D01*
X336062Y531966D01*
X335997Y531889D01*
X335929Y531815D01*
X335859Y531743D01*
X335786Y531674D01*
X335710Y531607D01*
X335631Y531544D01*
X335551Y531484D01*
X335468Y531427D01*
X335382Y531373D01*
X335295Y531323D01*
X335206Y531276D01*
X335115Y531233D01*
X335023Y531193D01*
X334929Y531157D01*
X334834Y531124D01*
X334737Y531095D01*
X334640Y531070D01*
X334541Y531049D01*
X334442Y531031D01*
X334342Y531018D01*
X334242Y531008D01*
X334142Y531002D01*
X334041Y531000D01*
X334041Y530999D02*
X331444Y530999D01*
X341689Y529052D02*
X349478Y529052D01*
X355391Y529052D02*
X358636Y527754D01*
X355391Y529051D02*
X355316Y529084D01*
X355242Y529120D01*
X355170Y529159D01*
X355100Y529202D01*
X355033Y529248D01*
X354967Y529298D01*
X354905Y529350D01*
X354844Y529406D01*
X354787Y529464D01*
X354732Y529525D01*
X354681Y529589D01*
X354633Y529655D01*
X354588Y529724D01*
X354546Y529794D01*
X354508Y529867D01*
X354473Y529941D01*
X354442Y530017D01*
X354415Y530094D01*
X354392Y530173D01*
X354372Y530252D01*
X354357Y530333D01*
X354345Y530414D01*
X354337Y530496D01*
X354333Y530577D01*
X354334Y530659D01*
X354338Y530741D01*
X354346Y530823D01*
X354358Y530904D01*
X354374Y530984D01*
X354394Y531064D01*
X354418Y531142D01*
X354446Y531219D01*
X354477Y531295D01*
X354512Y531369D01*
X354550Y531441D01*
X354592Y531512D01*
X354638Y531580D01*
X354686Y531646D01*
X354738Y531709D01*
X354793Y531770D01*
X354851Y531828D01*
X354911Y531884D01*
X354974Y531936D01*
X355040Y531985D01*
X355108Y532031D01*
X355178Y532073D01*
X355250Y532113D01*
X355324Y532148D01*
X355399Y532180D01*
X355476Y532208D01*
X355554Y532232D01*
X355634Y532253D01*
X355714Y532270D01*
X355795Y532282D01*
X355876Y532291D01*
X355958Y532296D01*
X356040Y532297D01*
X356039Y532297D02*
X356216Y532293D01*
X356393Y532284D01*
X356570Y532270D01*
X356747Y532253D01*
X356922Y532231D01*
X357098Y532206D01*
X357272Y532175D01*
X357446Y532141D01*
X357619Y532103D01*
X357791Y532060D01*
X357962Y532013D01*
X358132Y531963D01*
X358301Y531908D01*
X358468Y531849D01*
X358633Y531786D01*
X358798Y531719D01*
X358960Y531648D01*
X358636Y527754D02*
X358711Y527721D01*
X358785Y527685D01*
X358857Y527646D01*
X358927Y527603D01*
X358994Y527557D01*
X359060Y527507D01*
X359122Y527455D01*
X359183Y527399D01*
X359240Y527341D01*
X359295Y527280D01*
X359346Y527216D01*
X359394Y527150D01*
X359439Y527081D01*
X359481Y527011D01*
X359519Y526938D01*
X359554Y526864D01*
X359585Y526788D01*
X359612Y526711D01*
X359635Y526632D01*
X359655Y526553D01*
X359670Y526472D01*
X359682Y526391D01*
X359690Y526309D01*
X359694Y526228D01*
X359693Y526146D01*
X359689Y526064D01*
X359681Y525982D01*
X359669Y525901D01*
X359653Y525821D01*
X359633Y525741D01*
X359609Y525663D01*
X359581Y525586D01*
X359550Y525510D01*
X359515Y525436D01*
X359477Y525364D01*
X359435Y525293D01*
X359389Y525225D01*
X359341Y525159D01*
X359289Y525096D01*
X359234Y525035D01*
X359176Y524977D01*
X359116Y524921D01*
X359053Y524869D01*
X358987Y524820D01*
X358919Y524774D01*
X358849Y524732D01*
X358777Y524692D01*
X358703Y524657D01*
X358628Y524625D01*
X358551Y524597D01*
X358473Y524573D01*
X358393Y524552D01*
X358313Y524535D01*
X358232Y524523D01*
X358151Y524514D01*
X358069Y524509D01*
X357987Y524508D01*
X357727Y524515D01*
X357467Y524528D01*
X357207Y524547D01*
X356948Y524572D01*
X356689Y524604D01*
X356432Y524641D01*
X356175Y524685D01*
X355919Y524734D01*
X355665Y524790D01*
X355412Y524851D01*
X355161Y524919D01*
X354911Y524993D01*
X354663Y525072D01*
X354417Y525157D01*
X366270Y524508D02*
X369516Y524508D01*
X366270Y524508D02*
X366183Y524510D01*
X366095Y524516D01*
X366009Y524526D01*
X365922Y524539D01*
X365837Y524557D01*
X365752Y524578D01*
X365668Y524603D01*
X365586Y524632D01*
X365505Y524665D01*
X365425Y524701D01*
X365347Y524740D01*
X365271Y524784D01*
X365197Y524830D01*
X365126Y524880D01*
X365056Y524933D01*
X364989Y524989D01*
X364925Y525048D01*
X364863Y525110D01*
X364804Y525174D01*
X364748Y525241D01*
X364695Y525311D01*
X364645Y525382D01*
X364599Y525456D01*
X364555Y525532D01*
X364516Y525610D01*
X364480Y525690D01*
X364447Y525771D01*
X364418Y525853D01*
X364393Y525937D01*
X364372Y526022D01*
X364354Y526107D01*
X364341Y526194D01*
X364331Y526280D01*
X364325Y526368D01*
X364323Y526455D01*
X364323Y529701D01*
X364325Y529802D01*
X364331Y529902D01*
X364341Y530002D01*
X364354Y530102D01*
X364372Y530201D01*
X364393Y530300D01*
X364418Y530397D01*
X364447Y530494D01*
X364480Y530589D01*
X364516Y530683D01*
X364556Y530775D01*
X364599Y530866D01*
X364646Y530955D01*
X364696Y531042D01*
X364750Y531128D01*
X364807Y531211D01*
X364867Y531291D01*
X364930Y531370D01*
X364997Y531446D01*
X365066Y531519D01*
X365138Y531589D01*
X365212Y531657D01*
X365289Y531722D01*
X365369Y531783D01*
X365451Y531842D01*
X365535Y531897D01*
X365621Y531949D01*
X365709Y531998D01*
X365799Y532043D01*
X365891Y532085D01*
X365984Y532123D01*
X366079Y532157D01*
X366174Y532188D01*
X366271Y532215D01*
X366369Y532238D01*
X366468Y532258D01*
X366568Y532273D01*
X366668Y532285D01*
X366768Y532293D01*
X366869Y532297D01*
X366969Y532297D01*
X367070Y532293D01*
X367170Y532285D01*
X367270Y532273D01*
X367370Y532258D01*
X367469Y532238D01*
X367567Y532215D01*
X367664Y532188D01*
X367759Y532157D01*
X367854Y532123D01*
X367947Y532085D01*
X368039Y532043D01*
X368129Y531998D01*
X368217Y531949D01*
X368303Y531897D01*
X368387Y531842D01*
X368469Y531783D01*
X368549Y531722D01*
X368626Y531657D01*
X368700Y531589D01*
X368772Y531519D01*
X368841Y531446D01*
X368908Y531370D01*
X368971Y531291D01*
X369031Y531211D01*
X369088Y531128D01*
X369142Y531042D01*
X369192Y530955D01*
X369239Y530866D01*
X369282Y530775D01*
X369322Y530683D01*
X369358Y530589D01*
X369391Y530494D01*
X369420Y530397D01*
X369445Y530300D01*
X369466Y530201D01*
X369484Y530102D01*
X369497Y530002D01*
X369507Y529902D01*
X369513Y529802D01*
X369515Y529701D01*
X369516Y529701D02*
X369516Y528403D01*
X364323Y528403D01*
X374669Y532297D02*
X374669Y520613D01*
X374669Y532297D02*
X377914Y532297D01*
X378001Y532295D01*
X378089Y532289D01*
X378175Y532279D01*
X378262Y532266D01*
X378347Y532248D01*
X378432Y532227D01*
X378516Y532202D01*
X378598Y532173D01*
X378679Y532140D01*
X378759Y532104D01*
X378837Y532065D01*
X378913Y532021D01*
X378987Y531975D01*
X379058Y531925D01*
X379128Y531872D01*
X379195Y531816D01*
X379259Y531757D01*
X379321Y531696D01*
X379380Y531631D01*
X379436Y531564D01*
X379489Y531494D01*
X379539Y531423D01*
X379585Y531349D01*
X379629Y531273D01*
X379668Y531195D01*
X379704Y531115D01*
X379737Y531034D01*
X379766Y530952D01*
X379791Y530868D01*
X379812Y530783D01*
X379830Y530698D01*
X379843Y530611D01*
X379853Y530525D01*
X379859Y530437D01*
X379861Y530350D01*
X379862Y530350D02*
X379862Y526455D01*
X379861Y526455D02*
X379859Y526368D01*
X379853Y526280D01*
X379843Y526194D01*
X379830Y526107D01*
X379812Y526022D01*
X379791Y525937D01*
X379766Y525853D01*
X379737Y525771D01*
X379704Y525690D01*
X379668Y525610D01*
X379629Y525532D01*
X379585Y525456D01*
X379539Y525382D01*
X379489Y525311D01*
X379436Y525241D01*
X379380Y525174D01*
X379321Y525110D01*
X379259Y525048D01*
X379195Y524989D01*
X379128Y524933D01*
X379058Y524880D01*
X378987Y524830D01*
X378913Y524784D01*
X378837Y524740D01*
X378759Y524701D01*
X378679Y524665D01*
X378598Y524632D01*
X378516Y524603D01*
X378432Y524578D01*
X378347Y524557D01*
X378262Y524539D01*
X378175Y524526D01*
X378089Y524516D01*
X378001Y524510D01*
X377914Y524508D01*
X374669Y524508D01*
X388199Y536192D02*
X388306Y536190D01*
X388412Y536184D01*
X388518Y536174D01*
X388624Y536161D01*
X388730Y536143D01*
X388834Y536122D01*
X388938Y536097D01*
X389041Y536068D01*
X389142Y536036D01*
X389242Y535999D01*
X389341Y535959D01*
X389439Y535916D01*
X389535Y535869D01*
X389629Y535818D01*
X389721Y535764D01*
X389811Y535707D01*
X389899Y535647D01*
X389984Y535583D01*
X390067Y535516D01*
X390148Y535446D01*
X390226Y535374D01*
X390302Y535298D01*
X390374Y535220D01*
X390444Y535139D01*
X390511Y535056D01*
X390575Y534971D01*
X390635Y534883D01*
X390692Y534793D01*
X390746Y534701D01*
X390797Y534607D01*
X390844Y534511D01*
X390887Y534413D01*
X390927Y534314D01*
X390964Y534214D01*
X390996Y534113D01*
X391025Y534010D01*
X391050Y533906D01*
X391071Y533802D01*
X391089Y533696D01*
X391102Y533590D01*
X391112Y533484D01*
X391118Y533378D01*
X391120Y533271D01*
X388199Y536192D02*
X388078Y536190D01*
X387957Y536184D01*
X387837Y536174D01*
X387716Y536161D01*
X387597Y536143D01*
X387477Y536122D01*
X387359Y536097D01*
X387242Y536068D01*
X387125Y536035D01*
X387010Y535999D01*
X386896Y535958D01*
X386783Y535915D01*
X386671Y535867D01*
X386562Y535816D01*
X386454Y535761D01*
X386347Y535703D01*
X386243Y535642D01*
X386141Y535577D01*
X386041Y535509D01*
X385943Y535438D01*
X385847Y535364D01*
X385754Y535287D01*
X385664Y535206D01*
X385576Y535123D01*
X385491Y535037D01*
X385408Y534948D01*
X385329Y534857D01*
X385252Y534763D01*
X385179Y534667D01*
X385109Y534569D01*
X385042Y534468D01*
X384978Y534365D01*
X384918Y534260D01*
X384861Y534153D01*
X384807Y534045D01*
X384757Y533935D01*
X384711Y533823D01*
X384668Y533710D01*
X384629Y533595D01*
X390146Y530999D02*
X390225Y531076D01*
X390301Y531157D01*
X390374Y531240D01*
X390444Y531325D01*
X390511Y531413D01*
X390575Y531503D01*
X390635Y531595D01*
X390692Y531690D01*
X390746Y531786D01*
X390797Y531884D01*
X390844Y531984D01*
X390888Y532086D01*
X390928Y532189D01*
X390964Y532293D01*
X390996Y532399D01*
X391025Y532505D01*
X391050Y532613D01*
X391072Y532721D01*
X391089Y532831D01*
X391103Y532940D01*
X391112Y533050D01*
X391118Y533161D01*
X391120Y533271D01*
X390146Y530999D02*
X384629Y524508D01*
X391120Y524508D01*
X396059Y530350D02*
X396062Y530580D01*
X396070Y530810D01*
X396084Y531039D01*
X396103Y531268D01*
X396128Y531497D01*
X396158Y531724D01*
X396193Y531952D01*
X396234Y532178D01*
X396280Y532403D01*
X396332Y532627D01*
X396389Y532849D01*
X396451Y533071D01*
X396519Y533290D01*
X396592Y533508D01*
X396670Y533725D01*
X396753Y533939D01*
X396841Y534151D01*
X396934Y534361D01*
X397033Y534569D01*
X397032Y534569D02*
X397065Y534659D01*
X397101Y534748D01*
X397141Y534836D01*
X397185Y534921D01*
X397232Y535005D01*
X397282Y535087D01*
X397336Y535167D01*
X397392Y535244D01*
X397452Y535320D01*
X397515Y535393D01*
X397580Y535463D01*
X397649Y535531D01*
X397720Y535595D01*
X397793Y535657D01*
X397869Y535716D01*
X397947Y535772D01*
X398028Y535825D01*
X398110Y535874D01*
X398194Y535920D01*
X398281Y535963D01*
X398368Y536002D01*
X398458Y536038D01*
X398548Y536070D01*
X398640Y536098D01*
X398733Y536123D01*
X398827Y536144D01*
X398921Y536161D01*
X399016Y536175D01*
X399112Y536184D01*
X399208Y536190D01*
X399304Y536192D01*
X399400Y536190D01*
X399496Y536184D01*
X399592Y536175D01*
X399687Y536161D01*
X399781Y536144D01*
X399875Y536123D01*
X399968Y536098D01*
X400060Y536070D01*
X400150Y536038D01*
X400240Y536002D01*
X400327Y535963D01*
X400414Y535920D01*
X400498Y535874D01*
X400580Y535825D01*
X400661Y535772D01*
X400739Y535716D01*
X400815Y535657D01*
X400888Y535595D01*
X400959Y535531D01*
X401028Y535463D01*
X401093Y535393D01*
X401156Y535320D01*
X401216Y535244D01*
X401272Y535167D01*
X401326Y535087D01*
X401376Y535005D01*
X401423Y534921D01*
X401467Y534836D01*
X401507Y534748D01*
X401543Y534659D01*
X401576Y534569D01*
X401675Y534362D01*
X401768Y534152D01*
X401856Y533939D01*
X401939Y533725D01*
X402017Y533509D01*
X402090Y533291D01*
X402158Y533071D01*
X402220Y532850D01*
X402277Y532627D01*
X402329Y532403D01*
X402375Y532178D01*
X402416Y531952D01*
X402451Y531725D01*
X402481Y531497D01*
X402506Y531268D01*
X402525Y531039D01*
X402539Y530810D01*
X402547Y530580D01*
X402550Y530350D01*
X396058Y530350D02*
X396061Y530120D01*
X396069Y529890D01*
X396083Y529661D01*
X396102Y529432D01*
X396127Y529203D01*
X396157Y528975D01*
X396192Y528748D01*
X396233Y528522D01*
X396279Y528297D01*
X396331Y528073D01*
X396388Y527850D01*
X396450Y527629D01*
X396518Y527409D01*
X396591Y527191D01*
X396669Y526975D01*
X396752Y526761D01*
X396840Y526549D01*
X396933Y526338D01*
X397032Y526131D01*
X397065Y526041D01*
X397101Y525952D01*
X397142Y525864D01*
X397185Y525779D01*
X397232Y525695D01*
X397282Y525613D01*
X397336Y525533D01*
X397392Y525456D01*
X397452Y525380D01*
X397515Y525307D01*
X397580Y525237D01*
X397649Y525169D01*
X397720Y525105D01*
X397793Y525043D01*
X397869Y524984D01*
X397947Y524928D01*
X398028Y524875D01*
X398110Y524826D01*
X398194Y524780D01*
X398281Y524737D01*
X398368Y524698D01*
X398458Y524662D01*
X398548Y524630D01*
X398640Y524602D01*
X398733Y524577D01*
X398827Y524556D01*
X398921Y524539D01*
X399016Y524525D01*
X399112Y524516D01*
X399208Y524510D01*
X399304Y524508D01*
X401576Y526131D02*
X401675Y526338D01*
X401768Y526549D01*
X401856Y526761D01*
X401939Y526975D01*
X402017Y527191D01*
X402090Y527409D01*
X402158Y527629D01*
X402220Y527850D01*
X402277Y528073D01*
X402329Y528297D01*
X402375Y528522D01*
X402416Y528748D01*
X402451Y528975D01*
X402481Y529203D01*
X402506Y529432D01*
X402525Y529661D01*
X402539Y529890D01*
X402547Y530120D01*
X402550Y530350D01*
X401576Y526131D02*
X401543Y526041D01*
X401507Y525952D01*
X401467Y525864D01*
X401423Y525779D01*
X401376Y525695D01*
X401326Y525613D01*
X401272Y525533D01*
X401216Y525456D01*
X401156Y525380D01*
X401093Y525307D01*
X401028Y525237D01*
X400959Y525169D01*
X400888Y525105D01*
X400815Y525043D01*
X400739Y524984D01*
X400661Y524928D01*
X400580Y524875D01*
X400498Y524826D01*
X400414Y524780D01*
X400327Y524737D01*
X400240Y524698D01*
X400150Y524662D01*
X400060Y524630D01*
X399968Y524602D01*
X399875Y524577D01*
X399781Y524556D01*
X399687Y524539D01*
X399592Y524525D01*
X399496Y524516D01*
X399400Y524510D01*
X399304Y524508D01*
X396708Y527104D02*
X401901Y533596D01*
D11*
X247262Y514018D02*
X247262Y497762D01*
X252681Y504987D02*
X247262Y514018D01*
X252681Y504987D02*
X258099Y514018D01*
X258099Y497762D01*
X265498Y504084D02*
X276336Y504084D01*
X235262Y469018D02*
X235262Y452762D01*
X240681Y459987D02*
X235262Y469018D01*
X240681Y459987D02*
X246099Y469018D01*
X246099Y452762D01*
X253498Y459084D02*
X264336Y459084D01*
X258917Y464502D02*
X258917Y453665D01*
X658262Y499762D02*
X658262Y516018D01*
X662778Y516018D01*
X662911Y516016D01*
X663043Y516010D01*
X663175Y516000D01*
X663307Y515987D01*
X663439Y515969D01*
X663569Y515948D01*
X663700Y515923D01*
X663829Y515894D01*
X663957Y515861D01*
X664085Y515825D01*
X664211Y515785D01*
X664336Y515741D01*
X664460Y515693D01*
X664582Y515642D01*
X664703Y515587D01*
X664822Y515529D01*
X664940Y515467D01*
X665055Y515402D01*
X665169Y515333D01*
X665280Y515262D01*
X665389Y515186D01*
X665496Y515108D01*
X665601Y515027D01*
X665703Y514942D01*
X665803Y514855D01*
X665900Y514765D01*
X665995Y514672D01*
X666086Y514576D01*
X666175Y514478D01*
X666261Y514377D01*
X666344Y514273D01*
X666424Y514167D01*
X666500Y514059D01*
X666574Y513949D01*
X666644Y513836D01*
X666711Y513722D01*
X666774Y513605D01*
X666834Y513487D01*
X666891Y513367D01*
X666944Y513245D01*
X666993Y513122D01*
X667039Y512998D01*
X667081Y512872D01*
X667119Y512745D01*
X667154Y512617D01*
X667185Y512488D01*
X667212Y512359D01*
X667235Y512228D01*
X667255Y512097D01*
X667270Y511965D01*
X667282Y511833D01*
X667290Y511701D01*
X667294Y511568D01*
X667294Y511436D01*
X667290Y511303D01*
X667282Y511171D01*
X667270Y511039D01*
X667255Y510907D01*
X667235Y510776D01*
X667212Y510645D01*
X667185Y510516D01*
X667154Y510387D01*
X667119Y510259D01*
X667081Y510132D01*
X667039Y510006D01*
X666993Y509882D01*
X666944Y509759D01*
X666891Y509637D01*
X666834Y509517D01*
X666774Y509399D01*
X666711Y509282D01*
X666644Y509168D01*
X666574Y509055D01*
X666500Y508945D01*
X666424Y508837D01*
X666344Y508731D01*
X666261Y508627D01*
X666175Y508526D01*
X666086Y508428D01*
X665995Y508332D01*
X665900Y508239D01*
X665803Y508149D01*
X665703Y508062D01*
X665601Y507977D01*
X665496Y507896D01*
X665389Y507818D01*
X665280Y507742D01*
X665169Y507671D01*
X665055Y507602D01*
X664940Y507537D01*
X664822Y507475D01*
X664703Y507417D01*
X664582Y507362D01*
X664460Y507311D01*
X664336Y507263D01*
X664211Y507219D01*
X664085Y507179D01*
X663957Y507143D01*
X663829Y507110D01*
X663700Y507081D01*
X663569Y507056D01*
X663439Y507035D01*
X663307Y507017D01*
X663175Y507004D01*
X663043Y506994D01*
X662911Y506988D01*
X662778Y506986D01*
X662778Y506987D02*
X658262Y506987D01*
X673300Y506084D02*
X684138Y506084D01*
X662262Y466018D02*
X662262Y449762D01*
X662262Y466018D02*
X666778Y466018D01*
X666911Y466016D01*
X667043Y466010D01*
X667175Y466000D01*
X667307Y465987D01*
X667439Y465969D01*
X667569Y465948D01*
X667700Y465923D01*
X667829Y465894D01*
X667957Y465861D01*
X668085Y465825D01*
X668211Y465785D01*
X668336Y465741D01*
X668460Y465693D01*
X668582Y465642D01*
X668703Y465587D01*
X668822Y465529D01*
X668940Y465467D01*
X669055Y465402D01*
X669169Y465333D01*
X669280Y465262D01*
X669389Y465186D01*
X669496Y465108D01*
X669601Y465027D01*
X669703Y464942D01*
X669803Y464855D01*
X669900Y464765D01*
X669995Y464672D01*
X670086Y464576D01*
X670175Y464478D01*
X670261Y464377D01*
X670344Y464273D01*
X670424Y464167D01*
X670500Y464059D01*
X670574Y463949D01*
X670644Y463836D01*
X670711Y463722D01*
X670774Y463605D01*
X670834Y463487D01*
X670891Y463367D01*
X670944Y463245D01*
X670993Y463122D01*
X671039Y462998D01*
X671081Y462872D01*
X671119Y462745D01*
X671154Y462617D01*
X671185Y462488D01*
X671212Y462359D01*
X671235Y462228D01*
X671255Y462097D01*
X671270Y461965D01*
X671282Y461833D01*
X671290Y461701D01*
X671294Y461568D01*
X671294Y461436D01*
X671290Y461303D01*
X671282Y461171D01*
X671270Y461039D01*
X671255Y460907D01*
X671235Y460776D01*
X671212Y460645D01*
X671185Y460516D01*
X671154Y460387D01*
X671119Y460259D01*
X671081Y460132D01*
X671039Y460006D01*
X670993Y459882D01*
X670944Y459759D01*
X670891Y459637D01*
X670834Y459517D01*
X670774Y459399D01*
X670711Y459282D01*
X670644Y459168D01*
X670574Y459055D01*
X670500Y458945D01*
X670424Y458837D01*
X670344Y458731D01*
X670261Y458627D01*
X670175Y458526D01*
X670086Y458428D01*
X669995Y458332D01*
X669900Y458239D01*
X669803Y458149D01*
X669703Y458062D01*
X669601Y457977D01*
X669496Y457896D01*
X669389Y457818D01*
X669280Y457742D01*
X669169Y457671D01*
X669055Y457602D01*
X668940Y457537D01*
X668822Y457475D01*
X668703Y457417D01*
X668582Y457362D01*
X668460Y457311D01*
X668336Y457263D01*
X668211Y457219D01*
X668085Y457179D01*
X667957Y457143D01*
X667829Y457110D01*
X667700Y457081D01*
X667569Y457056D01*
X667439Y457035D01*
X667307Y457017D01*
X667175Y457004D01*
X667043Y456994D01*
X666911Y456988D01*
X666778Y456986D01*
X666778Y456987D02*
X662262Y456987D01*
X677300Y456084D02*
X688138Y456084D01*
X682719Y461502D02*
X682719Y450665D01*
D12*
X476341Y427659D02*
X450659Y427659D01*
X464927Y436220D01*
X450659Y444780D01*
X476341Y444780D01*
X469207Y455861D02*
X450659Y455861D01*
X469207Y455861D02*
X469381Y455863D01*
X469554Y455869D01*
X469728Y455880D01*
X469901Y455895D01*
X470074Y455914D01*
X470246Y455937D01*
X470417Y455964D01*
X470588Y455996D01*
X470758Y456032D01*
X470927Y456072D01*
X471095Y456115D01*
X471262Y456163D01*
X471428Y456216D01*
X471592Y456272D01*
X471755Y456332D01*
X471917Y456396D01*
X472077Y456464D01*
X472235Y456536D01*
X472391Y456611D01*
X472546Y456691D01*
X472699Y456774D01*
X472849Y456861D01*
X472997Y456951D01*
X473143Y457045D01*
X473287Y457143D01*
X473428Y457244D01*
X473567Y457348D01*
X473703Y457456D01*
X473837Y457567D01*
X473968Y457682D01*
X474096Y457799D01*
X474221Y457920D01*
X474343Y458043D01*
X474462Y458170D01*
X474578Y458299D01*
X474691Y458432D01*
X474800Y458566D01*
X474906Y458704D01*
X475009Y458844D01*
X475108Y458987D01*
X475204Y459131D01*
X475297Y459279D01*
X475385Y459428D01*
X475470Y459580D01*
X475552Y459733D01*
X475629Y459888D01*
X475703Y460046D01*
X475773Y460205D01*
X475839Y460366D01*
X475901Y460528D01*
X475959Y460692D01*
X476013Y460857D01*
X476063Y461023D01*
X476109Y461191D01*
X476151Y461359D01*
X476189Y461529D01*
X476222Y461699D01*
X476252Y461870D01*
X476277Y462042D01*
X476298Y462215D01*
X476315Y462388D01*
X476328Y462561D01*
X476336Y462734D01*
X476340Y462908D01*
X476340Y463082D01*
X476336Y463256D01*
X476328Y463429D01*
X476315Y463602D01*
X476298Y463775D01*
X476277Y463948D01*
X476252Y464120D01*
X476222Y464291D01*
X476189Y464461D01*
X476151Y464631D01*
X476109Y464799D01*
X476063Y464967D01*
X476013Y465133D01*
X475959Y465298D01*
X475901Y465462D01*
X475839Y465624D01*
X475773Y465785D01*
X475703Y465944D01*
X475629Y466102D01*
X475552Y466257D01*
X475470Y466410D01*
X475385Y466562D01*
X475297Y466711D01*
X475204Y466859D01*
X475108Y467003D01*
X475009Y467146D01*
X474906Y467286D01*
X474800Y467424D01*
X474691Y467558D01*
X474578Y467691D01*
X474462Y467820D01*
X474343Y467947D01*
X474221Y468070D01*
X474096Y468191D01*
X473968Y468308D01*
X473837Y468423D01*
X473703Y468534D01*
X473567Y468642D01*
X473428Y468746D01*
X473287Y468847D01*
X473143Y468945D01*
X472997Y469039D01*
X472849Y469129D01*
X472699Y469216D01*
X472546Y469299D01*
X472391Y469379D01*
X472235Y469454D01*
X472077Y469526D01*
X471917Y469594D01*
X471755Y469658D01*
X471592Y469718D01*
X471428Y469774D01*
X471262Y469827D01*
X471095Y469875D01*
X470927Y469918D01*
X470758Y469958D01*
X470588Y469994D01*
X470417Y470026D01*
X470246Y470053D01*
X470074Y470076D01*
X469901Y470095D01*
X469728Y470110D01*
X469554Y470121D01*
X469381Y470127D01*
X469207Y470129D01*
X469207Y470128D02*
X450659Y470128D01*
X470634Y493753D02*
X470783Y493751D01*
X470933Y493745D01*
X471082Y493735D01*
X471231Y493722D01*
X471379Y493704D01*
X471527Y493683D01*
X471674Y493657D01*
X471821Y493628D01*
X471966Y493595D01*
X472111Y493559D01*
X472255Y493518D01*
X472398Y493474D01*
X472539Y493426D01*
X472679Y493374D01*
X472818Y493319D01*
X472955Y493260D01*
X473091Y493197D01*
X473225Y493131D01*
X473357Y493061D01*
X473488Y492988D01*
X473616Y492912D01*
X473742Y492832D01*
X473866Y492749D01*
X473988Y492663D01*
X474108Y492574D01*
X474226Y492481D01*
X474340Y492386D01*
X474453Y492287D01*
X474562Y492186D01*
X474669Y492081D01*
X474774Y491974D01*
X474875Y491865D01*
X474974Y491752D01*
X475069Y491638D01*
X475162Y491520D01*
X475251Y491400D01*
X475337Y491278D01*
X475420Y491154D01*
X475500Y491028D01*
X475576Y490900D01*
X475649Y490769D01*
X475719Y490637D01*
X475785Y490503D01*
X475848Y490367D01*
X475907Y490230D01*
X475962Y490091D01*
X476014Y489951D01*
X476062Y489810D01*
X476106Y489667D01*
X476147Y489523D01*
X476183Y489378D01*
X476216Y489233D01*
X476245Y489086D01*
X476271Y488939D01*
X476292Y488791D01*
X476310Y488643D01*
X476323Y488494D01*
X476333Y488345D01*
X476339Y488195D01*
X476341Y488046D01*
X476338Y487758D01*
X476327Y487469D01*
X476310Y487181D01*
X476286Y486894D01*
X476255Y486607D01*
X476217Y486321D01*
X476172Y486036D01*
X476121Y485752D01*
X476063Y485470D01*
X475998Y485189D01*
X475926Y484909D01*
X475847Y484632D01*
X475762Y484356D01*
X475671Y484083D01*
X475573Y483811D01*
X475468Y483543D01*
X475357Y483276D01*
X475240Y483013D01*
X475117Y482752D01*
X474987Y482494D01*
X474851Y482240D01*
X474709Y481989D01*
X474561Y481741D01*
X474407Y481497D01*
X474248Y481257D01*
X474082Y481021D01*
X473912Y480788D01*
X473735Y480560D01*
X473553Y480336D01*
X473366Y480116D01*
X473174Y479901D01*
X472977Y479691D01*
X472774Y479486D01*
X456366Y480199D02*
X456217Y480201D01*
X456067Y480207D01*
X455918Y480217D01*
X455769Y480230D01*
X455621Y480248D01*
X455473Y480269D01*
X455326Y480295D01*
X455179Y480324D01*
X455034Y480357D01*
X454889Y480393D01*
X454745Y480434D01*
X454602Y480478D01*
X454461Y480526D01*
X454321Y480578D01*
X454182Y480633D01*
X454045Y480692D01*
X453909Y480755D01*
X453775Y480821D01*
X453643Y480891D01*
X453513Y480964D01*
X453384Y481040D01*
X453258Y481120D01*
X453134Y481203D01*
X453012Y481289D01*
X452892Y481378D01*
X452774Y481471D01*
X452660Y481566D01*
X452547Y481665D01*
X452438Y481766D01*
X452331Y481871D01*
X452226Y481978D01*
X452125Y482087D01*
X452026Y482200D01*
X451931Y482314D01*
X451838Y482432D01*
X451749Y482552D01*
X451663Y482674D01*
X451580Y482798D01*
X451500Y482924D01*
X451424Y483053D01*
X451351Y483183D01*
X451281Y483315D01*
X451215Y483449D01*
X451152Y483585D01*
X451093Y483722D01*
X451038Y483861D01*
X450986Y484001D01*
X450938Y484142D01*
X450894Y484285D01*
X450853Y484429D01*
X450817Y484574D01*
X450784Y484719D01*
X450755Y484866D01*
X450729Y485013D01*
X450708Y485161D01*
X450690Y485309D01*
X450677Y485458D01*
X450667Y485607D01*
X450661Y485757D01*
X450659Y485906D01*
X450662Y486161D01*
X450671Y486416D01*
X450686Y486670D01*
X450708Y486925D01*
X450735Y487178D01*
X450768Y487431D01*
X450808Y487683D01*
X450853Y487934D01*
X450904Y488184D01*
X450961Y488432D01*
X451025Y488679D01*
X451094Y488925D01*
X451169Y489169D01*
X451249Y489411D01*
X451336Y489651D01*
X451428Y489889D01*
X451525Y490124D01*
X451629Y490357D01*
X451738Y490588D01*
X451852Y490816D01*
X451972Y491041D01*
X452097Y491263D01*
X452227Y491483D01*
X452362Y491699D01*
X452503Y491911D01*
X452649Y492121D01*
X452799Y492327D01*
X461359Y483052D02*
X461281Y482924D01*
X461200Y482797D01*
X461115Y482673D01*
X461028Y482551D01*
X460937Y482431D01*
X460843Y482313D01*
X460746Y482199D01*
X460646Y482086D01*
X460543Y481976D01*
X460437Y481869D01*
X460328Y481765D01*
X460217Y481664D01*
X460104Y481565D01*
X459987Y481470D01*
X459869Y481377D01*
X459748Y481288D01*
X459624Y481202D01*
X459499Y481119D01*
X459371Y481039D01*
X459242Y480963D01*
X459110Y480890D01*
X458977Y480820D01*
X458841Y480754D01*
X458705Y480692D01*
X458566Y480633D01*
X458426Y480578D01*
X458285Y480526D01*
X458142Y480478D01*
X457999Y480434D01*
X457854Y480393D01*
X457708Y480356D01*
X457561Y480324D01*
X457413Y480294D01*
X457265Y480269D01*
X457116Y480248D01*
X456967Y480230D01*
X456817Y480217D01*
X456667Y480207D01*
X456516Y480201D01*
X456366Y480199D01*
X465641Y490900D02*
X465719Y491028D01*
X465800Y491155D01*
X465885Y491279D01*
X465972Y491401D01*
X466063Y491521D01*
X466157Y491639D01*
X466255Y491754D01*
X466355Y491866D01*
X466457Y491976D01*
X466563Y492083D01*
X466672Y492187D01*
X466783Y492288D01*
X466896Y492387D01*
X467013Y492482D01*
X467131Y492575D01*
X467252Y492664D01*
X467376Y492750D01*
X467501Y492833D01*
X467629Y492913D01*
X467758Y492989D01*
X467890Y493062D01*
X468023Y493132D01*
X468159Y493198D01*
X468295Y493260D01*
X468434Y493319D01*
X468574Y493374D01*
X468715Y493426D01*
X468858Y493474D01*
X469001Y493518D01*
X469146Y493559D01*
X469292Y493596D01*
X469439Y493628D01*
X469587Y493658D01*
X469735Y493683D01*
X469884Y493704D01*
X470033Y493722D01*
X470183Y493735D01*
X470333Y493745D01*
X470484Y493751D01*
X470634Y493753D01*
X465640Y490900D02*
X461360Y483053D01*
X457793Y502323D02*
X469207Y502323D01*
X457793Y502323D02*
X457619Y502325D01*
X457446Y502331D01*
X457272Y502342D01*
X457099Y502357D01*
X456926Y502376D01*
X456754Y502399D01*
X456583Y502426D01*
X456412Y502458D01*
X456242Y502494D01*
X456073Y502534D01*
X455905Y502577D01*
X455738Y502625D01*
X455572Y502678D01*
X455408Y502734D01*
X455245Y502794D01*
X455083Y502858D01*
X454923Y502926D01*
X454765Y502998D01*
X454609Y503073D01*
X454454Y503153D01*
X454301Y503236D01*
X454151Y503323D01*
X454003Y503413D01*
X453857Y503507D01*
X453713Y503605D01*
X453572Y503706D01*
X453433Y503810D01*
X453297Y503918D01*
X453163Y504029D01*
X453032Y504144D01*
X452904Y504261D01*
X452779Y504382D01*
X452657Y504505D01*
X452538Y504632D01*
X452422Y504761D01*
X452309Y504894D01*
X452200Y505028D01*
X452094Y505166D01*
X451991Y505306D01*
X451892Y505449D01*
X451796Y505593D01*
X451703Y505741D01*
X451615Y505890D01*
X451530Y506042D01*
X451448Y506195D01*
X451371Y506350D01*
X451297Y506508D01*
X451227Y506667D01*
X451161Y506828D01*
X451099Y506990D01*
X451041Y507154D01*
X450987Y507319D01*
X450937Y507485D01*
X450891Y507653D01*
X450849Y507821D01*
X450811Y507991D01*
X450778Y508161D01*
X450748Y508332D01*
X450723Y508504D01*
X450702Y508677D01*
X450685Y508850D01*
X450672Y509023D01*
X450664Y509196D01*
X450660Y509370D01*
X450660Y509544D01*
X450664Y509718D01*
X450672Y509891D01*
X450685Y510064D01*
X450702Y510237D01*
X450723Y510410D01*
X450748Y510582D01*
X450778Y510753D01*
X450811Y510923D01*
X450849Y511093D01*
X450891Y511261D01*
X450937Y511429D01*
X450987Y511595D01*
X451041Y511760D01*
X451099Y511924D01*
X451161Y512086D01*
X451227Y512247D01*
X451297Y512406D01*
X451371Y512564D01*
X451448Y512719D01*
X451530Y512872D01*
X451615Y513024D01*
X451703Y513173D01*
X451796Y513321D01*
X451892Y513465D01*
X451991Y513608D01*
X452094Y513748D01*
X452200Y513886D01*
X452309Y514020D01*
X452422Y514153D01*
X452538Y514282D01*
X452657Y514409D01*
X452779Y514532D01*
X452904Y514653D01*
X453032Y514770D01*
X453163Y514885D01*
X453297Y514996D01*
X453433Y515104D01*
X453572Y515208D01*
X453713Y515309D01*
X453857Y515407D01*
X454003Y515501D01*
X454151Y515591D01*
X454301Y515678D01*
X454454Y515761D01*
X454609Y515841D01*
X454765Y515916D01*
X454923Y515988D01*
X455083Y516056D01*
X455245Y516120D01*
X455408Y516180D01*
X455572Y516236D01*
X455738Y516289D01*
X455905Y516337D01*
X456073Y516380D01*
X456242Y516420D01*
X456412Y516456D01*
X456583Y516488D01*
X456754Y516515D01*
X456926Y516538D01*
X457099Y516557D01*
X457272Y516572D01*
X457446Y516583D01*
X457619Y516589D01*
X457793Y516591D01*
X469207Y516591D01*
X469381Y516589D01*
X469554Y516583D01*
X469728Y516572D01*
X469901Y516557D01*
X470074Y516538D01*
X470246Y516515D01*
X470417Y516488D01*
X470588Y516456D01*
X470758Y516420D01*
X470927Y516380D01*
X471095Y516337D01*
X471262Y516289D01*
X471428Y516236D01*
X471592Y516180D01*
X471755Y516120D01*
X471917Y516056D01*
X472077Y515988D01*
X472235Y515916D01*
X472391Y515841D01*
X472546Y515761D01*
X472699Y515678D01*
X472849Y515591D01*
X472997Y515501D01*
X473143Y515407D01*
X473287Y515309D01*
X473428Y515208D01*
X473567Y515104D01*
X473703Y514996D01*
X473837Y514885D01*
X473968Y514770D01*
X474096Y514653D01*
X474221Y514532D01*
X474343Y514409D01*
X474462Y514282D01*
X474578Y514153D01*
X474691Y514020D01*
X474800Y513886D01*
X474906Y513748D01*
X475009Y513608D01*
X475108Y513465D01*
X475204Y513321D01*
X475297Y513173D01*
X475385Y513024D01*
X475470Y512872D01*
X475552Y512719D01*
X475629Y512564D01*
X475703Y512406D01*
X475773Y512247D01*
X475839Y512086D01*
X475901Y511924D01*
X475959Y511760D01*
X476013Y511595D01*
X476063Y511429D01*
X476109Y511261D01*
X476151Y511093D01*
X476189Y510923D01*
X476222Y510753D01*
X476252Y510582D01*
X476277Y510410D01*
X476298Y510237D01*
X476315Y510064D01*
X476328Y509891D01*
X476336Y509718D01*
X476340Y509544D01*
X476340Y509370D01*
X476336Y509196D01*
X476328Y509023D01*
X476315Y508850D01*
X476298Y508677D01*
X476277Y508504D01*
X476252Y508332D01*
X476222Y508161D01*
X476189Y507991D01*
X476151Y507821D01*
X476109Y507653D01*
X476063Y507485D01*
X476013Y507319D01*
X475959Y507154D01*
X475901Y506990D01*
X475839Y506828D01*
X475773Y506667D01*
X475703Y506508D01*
X475629Y506350D01*
X475552Y506195D01*
X475470Y506042D01*
X475385Y505890D01*
X475297Y505741D01*
X475204Y505593D01*
X475108Y505449D01*
X475009Y505306D01*
X474906Y505166D01*
X474800Y505028D01*
X474691Y504894D01*
X474578Y504761D01*
X474462Y504632D01*
X474343Y504505D01*
X474221Y504382D01*
X474096Y504261D01*
X473968Y504144D01*
X473837Y504029D01*
X473703Y503918D01*
X473567Y503810D01*
X473428Y503706D01*
X473287Y503605D01*
X473143Y503507D01*
X472997Y503413D01*
X472849Y503323D01*
X472699Y503236D01*
X472546Y503153D01*
X472391Y503073D01*
X472235Y502998D01*
X472077Y502926D01*
X471917Y502858D01*
X471755Y502794D01*
X471592Y502734D01*
X471428Y502678D01*
X471262Y502625D01*
X471095Y502577D01*
X470927Y502534D01*
X470758Y502494D01*
X470588Y502458D01*
X470417Y502426D01*
X470246Y502399D01*
X470074Y502376D01*
X469901Y502357D01*
X469728Y502342D01*
X469554Y502331D01*
X469381Y502325D01*
X469207Y502323D01*
X476341Y531507D02*
X450659Y531507D01*
X450659Y524373D02*
X450659Y538641D01*
X457793Y546423D02*
X469207Y546423D01*
X457793Y546423D02*
X457619Y546425D01*
X457446Y546431D01*
X457272Y546442D01*
X457099Y546457D01*
X456926Y546476D01*
X456754Y546499D01*
X456583Y546526D01*
X456412Y546558D01*
X456242Y546594D01*
X456073Y546634D01*
X455905Y546677D01*
X455738Y546725D01*
X455572Y546778D01*
X455408Y546834D01*
X455245Y546894D01*
X455083Y546958D01*
X454923Y547026D01*
X454765Y547098D01*
X454609Y547173D01*
X454454Y547253D01*
X454301Y547336D01*
X454151Y547423D01*
X454003Y547513D01*
X453857Y547607D01*
X453713Y547705D01*
X453572Y547806D01*
X453433Y547910D01*
X453297Y548018D01*
X453163Y548129D01*
X453032Y548244D01*
X452904Y548361D01*
X452779Y548482D01*
X452657Y548605D01*
X452538Y548732D01*
X452422Y548861D01*
X452309Y548994D01*
X452200Y549128D01*
X452094Y549266D01*
X451991Y549406D01*
X451892Y549549D01*
X451796Y549693D01*
X451703Y549841D01*
X451615Y549990D01*
X451530Y550142D01*
X451448Y550295D01*
X451371Y550450D01*
X451297Y550608D01*
X451227Y550767D01*
X451161Y550928D01*
X451099Y551090D01*
X451041Y551254D01*
X450987Y551419D01*
X450937Y551585D01*
X450891Y551753D01*
X450849Y551921D01*
X450811Y552091D01*
X450778Y552261D01*
X450748Y552432D01*
X450723Y552604D01*
X450702Y552777D01*
X450685Y552950D01*
X450672Y553123D01*
X450664Y553296D01*
X450660Y553470D01*
X450660Y553644D01*
X450664Y553818D01*
X450672Y553991D01*
X450685Y554164D01*
X450702Y554337D01*
X450723Y554510D01*
X450748Y554682D01*
X450778Y554853D01*
X450811Y555023D01*
X450849Y555193D01*
X450891Y555361D01*
X450937Y555529D01*
X450987Y555695D01*
X451041Y555860D01*
X451099Y556024D01*
X451161Y556186D01*
X451227Y556347D01*
X451297Y556506D01*
X451371Y556664D01*
X451448Y556819D01*
X451530Y556972D01*
X451615Y557124D01*
X451703Y557273D01*
X451796Y557421D01*
X451892Y557565D01*
X451991Y557708D01*
X452094Y557848D01*
X452200Y557986D01*
X452309Y558120D01*
X452422Y558253D01*
X452538Y558382D01*
X452657Y558509D01*
X452779Y558632D01*
X452904Y558753D01*
X453032Y558870D01*
X453163Y558985D01*
X453297Y559096D01*
X453433Y559204D01*
X453572Y559308D01*
X453713Y559409D01*
X453857Y559507D01*
X454003Y559601D01*
X454151Y559691D01*
X454301Y559778D01*
X454454Y559861D01*
X454609Y559941D01*
X454765Y560016D01*
X454923Y560088D01*
X455083Y560156D01*
X455245Y560220D01*
X455408Y560280D01*
X455572Y560336D01*
X455738Y560389D01*
X455905Y560437D01*
X456073Y560480D01*
X456242Y560520D01*
X456412Y560556D01*
X456583Y560588D01*
X456754Y560615D01*
X456926Y560638D01*
X457099Y560657D01*
X457272Y560672D01*
X457446Y560683D01*
X457619Y560689D01*
X457793Y560691D01*
X469207Y560691D01*
X469381Y560689D01*
X469554Y560683D01*
X469728Y560672D01*
X469901Y560657D01*
X470074Y560638D01*
X470246Y560615D01*
X470417Y560588D01*
X470588Y560556D01*
X470758Y560520D01*
X470927Y560480D01*
X471095Y560437D01*
X471262Y560389D01*
X471428Y560336D01*
X471592Y560280D01*
X471755Y560220D01*
X471917Y560156D01*
X472077Y560088D01*
X472235Y560016D01*
X472391Y559941D01*
X472546Y559861D01*
X472699Y559778D01*
X472849Y559691D01*
X472997Y559601D01*
X473143Y559507D01*
X473287Y559409D01*
X473428Y559308D01*
X473567Y559204D01*
X473703Y559096D01*
X473837Y558985D01*
X473968Y558870D01*
X474096Y558753D01*
X474221Y558632D01*
X474343Y558509D01*
X474462Y558382D01*
X474578Y558253D01*
X474691Y558120D01*
X474800Y557986D01*
X474906Y557848D01*
X475009Y557708D01*
X475108Y557565D01*
X475204Y557421D01*
X475297Y557273D01*
X475385Y557124D01*
X475470Y556972D01*
X475552Y556819D01*
X475629Y556664D01*
X475703Y556506D01*
X475773Y556347D01*
X475839Y556186D01*
X475901Y556024D01*
X475959Y555860D01*
X476013Y555695D01*
X476063Y555529D01*
X476109Y555361D01*
X476151Y555193D01*
X476189Y555023D01*
X476222Y554853D01*
X476252Y554682D01*
X476277Y554510D01*
X476298Y554337D01*
X476315Y554164D01*
X476328Y553991D01*
X476336Y553818D01*
X476340Y553644D01*
X476340Y553470D01*
X476336Y553296D01*
X476328Y553123D01*
X476315Y552950D01*
X476298Y552777D01*
X476277Y552604D01*
X476252Y552432D01*
X476222Y552261D01*
X476189Y552091D01*
X476151Y551921D01*
X476109Y551753D01*
X476063Y551585D01*
X476013Y551419D01*
X475959Y551254D01*
X475901Y551090D01*
X475839Y550928D01*
X475773Y550767D01*
X475703Y550608D01*
X475629Y550450D01*
X475552Y550295D01*
X475470Y550142D01*
X475385Y549990D01*
X475297Y549841D01*
X475204Y549693D01*
X475108Y549549D01*
X475009Y549406D01*
X474906Y549266D01*
X474800Y549128D01*
X474691Y548994D01*
X474578Y548861D01*
X474462Y548732D01*
X474343Y548605D01*
X474221Y548482D01*
X474096Y548361D01*
X473968Y548244D01*
X473837Y548129D01*
X473703Y548018D01*
X473567Y547910D01*
X473428Y547806D01*
X473287Y547705D01*
X473143Y547607D01*
X472997Y547513D01*
X472849Y547423D01*
X472699Y547336D01*
X472546Y547253D01*
X472391Y547173D01*
X472235Y547098D01*
X472077Y547026D01*
X471917Y546958D01*
X471755Y546894D01*
X471592Y546834D01*
X471428Y546778D01*
X471262Y546725D01*
X471095Y546677D01*
X470927Y546634D01*
X470758Y546594D01*
X470588Y546558D01*
X470417Y546526D01*
X470246Y546499D01*
X470074Y546476D01*
X469901Y546457D01*
X469728Y546442D01*
X469554Y546431D01*
X469381Y546425D01*
X469207Y546423D01*
X476341Y571075D02*
X450659Y571075D01*
X450659Y585343D02*
X466354Y571075D01*
X460646Y576782D02*
X476341Y585343D01*
X469207Y594460D02*
X450659Y594460D01*
X469207Y594460D02*
X469381Y594462D01*
X469554Y594468D01*
X469728Y594479D01*
X469901Y594494D01*
X470074Y594513D01*
X470246Y594536D01*
X470417Y594563D01*
X470588Y594595D01*
X470758Y594631D01*
X470927Y594671D01*
X471095Y594714D01*
X471262Y594762D01*
X471428Y594815D01*
X471592Y594871D01*
X471755Y594931D01*
X471917Y594995D01*
X472077Y595063D01*
X472235Y595135D01*
X472391Y595210D01*
X472546Y595290D01*
X472699Y595373D01*
X472849Y595460D01*
X472997Y595550D01*
X473143Y595644D01*
X473287Y595742D01*
X473428Y595843D01*
X473567Y595947D01*
X473703Y596055D01*
X473837Y596166D01*
X473968Y596281D01*
X474096Y596398D01*
X474221Y596519D01*
X474343Y596642D01*
X474462Y596769D01*
X474578Y596898D01*
X474691Y597031D01*
X474800Y597165D01*
X474906Y597303D01*
X475009Y597443D01*
X475108Y597586D01*
X475204Y597730D01*
X475297Y597878D01*
X475385Y598027D01*
X475470Y598179D01*
X475552Y598332D01*
X475629Y598487D01*
X475703Y598645D01*
X475773Y598804D01*
X475839Y598965D01*
X475901Y599127D01*
X475959Y599291D01*
X476013Y599456D01*
X476063Y599622D01*
X476109Y599790D01*
X476151Y599958D01*
X476189Y600128D01*
X476222Y600298D01*
X476252Y600469D01*
X476277Y600641D01*
X476298Y600814D01*
X476315Y600987D01*
X476328Y601160D01*
X476336Y601333D01*
X476340Y601507D01*
X476340Y601681D01*
X476336Y601855D01*
X476328Y602028D01*
X476315Y602201D01*
X476298Y602374D01*
X476277Y602547D01*
X476252Y602719D01*
X476222Y602890D01*
X476189Y603060D01*
X476151Y603230D01*
X476109Y603398D01*
X476063Y603566D01*
X476013Y603732D01*
X475959Y603897D01*
X475901Y604061D01*
X475839Y604223D01*
X475773Y604384D01*
X475703Y604543D01*
X475629Y604701D01*
X475552Y604856D01*
X475470Y605009D01*
X475385Y605161D01*
X475297Y605310D01*
X475204Y605458D01*
X475108Y605602D01*
X475009Y605745D01*
X474906Y605885D01*
X474800Y606023D01*
X474691Y606157D01*
X474578Y606290D01*
X474462Y606419D01*
X474343Y606546D01*
X474221Y606669D01*
X474096Y606790D01*
X473968Y606907D01*
X473837Y607022D01*
X473703Y607133D01*
X473567Y607241D01*
X473428Y607345D01*
X473287Y607446D01*
X473143Y607544D01*
X472997Y607638D01*
X472849Y607728D01*
X472699Y607815D01*
X472546Y607898D01*
X472391Y607978D01*
X472235Y608053D01*
X472077Y608125D01*
X471917Y608193D01*
X471755Y608257D01*
X471592Y608317D01*
X471428Y608373D01*
X471262Y608426D01*
X471095Y608474D01*
X470927Y608517D01*
X470758Y608557D01*
X470588Y608593D01*
X470417Y608625D01*
X470246Y608652D01*
X470074Y608675D01*
X469901Y608694D01*
X469728Y608709D01*
X469554Y608720D01*
X469381Y608726D01*
X469207Y608728D01*
X450659Y608728D01*
D13*
X623500Y421760D02*
X623622Y421758D01*
X623744Y421752D01*
X623866Y421742D01*
X623987Y421729D01*
X624108Y421711D01*
X624228Y421690D01*
X624348Y421664D01*
X624466Y421635D01*
X624584Y421603D01*
X624701Y421566D01*
X624816Y421526D01*
X624930Y421482D01*
X625042Y421434D01*
X625153Y421383D01*
X625262Y421328D01*
X625370Y421270D01*
X625475Y421208D01*
X625578Y421143D01*
X625680Y421075D01*
X625779Y421003D01*
X625875Y420929D01*
X625970Y420851D01*
X626061Y420770D01*
X626151Y420687D01*
X626237Y420601D01*
X626320Y420511D01*
X626401Y420420D01*
X626479Y420325D01*
X626553Y420229D01*
X626625Y420130D01*
X626693Y420028D01*
X626758Y419925D01*
X626820Y419820D01*
X626878Y419712D01*
X626933Y419603D01*
X626984Y419492D01*
X627032Y419380D01*
X627076Y419266D01*
X627116Y419151D01*
X627153Y419034D01*
X627185Y418916D01*
X627214Y418798D01*
X627240Y418678D01*
X627261Y418558D01*
X627279Y418437D01*
X627292Y418316D01*
X627302Y418194D01*
X627308Y418072D01*
X627310Y417950D01*
X627308Y417828D01*
X627302Y417706D01*
X627292Y417584D01*
X627279Y417463D01*
X627261Y417342D01*
X627240Y417222D01*
X627214Y417102D01*
X627185Y416984D01*
X627153Y416866D01*
X627116Y416749D01*
X627076Y416634D01*
X627032Y416520D01*
X626984Y416408D01*
X626933Y416297D01*
X626878Y416188D01*
X626820Y416080D01*
X626758Y415975D01*
X626693Y415872D01*
X626625Y415770D01*
X626553Y415671D01*
X626479Y415575D01*
X626401Y415480D01*
X626320Y415389D01*
X626237Y415299D01*
X626151Y415213D01*
X626061Y415130D01*
X625970Y415049D01*
X625875Y414971D01*
X625779Y414897D01*
X625680Y414825D01*
X625578Y414757D01*
X625475Y414692D01*
X625370Y414630D01*
X625262Y414572D01*
X625153Y414517D01*
X625042Y414466D01*
X624930Y414418D01*
X624816Y414374D01*
X624701Y414334D01*
X624584Y414297D01*
X624466Y414265D01*
X624348Y414236D01*
X624228Y414210D01*
X624108Y414189D01*
X623987Y414171D01*
X623866Y414158D01*
X623744Y414148D01*
X623622Y414142D01*
X623500Y414140D01*
X623378Y414142D01*
X623256Y414148D01*
X623134Y414158D01*
X623013Y414171D01*
X622892Y414189D01*
X622772Y414210D01*
X622652Y414236D01*
X622534Y414265D01*
X622416Y414297D01*
X622299Y414334D01*
X622184Y414374D01*
X622070Y414418D01*
X621958Y414466D01*
X621847Y414517D01*
X621738Y414572D01*
X621630Y414630D01*
X621525Y414692D01*
X621422Y414757D01*
X621320Y414825D01*
X621221Y414897D01*
X621125Y414971D01*
X621030Y415049D01*
X620939Y415130D01*
X620849Y415213D01*
X620763Y415299D01*
X620680Y415389D01*
X620599Y415480D01*
X620521Y415575D01*
X620447Y415671D01*
X620375Y415770D01*
X620307Y415872D01*
X620242Y415975D01*
X620180Y416080D01*
X620122Y416188D01*
X620067Y416297D01*
X620016Y416408D01*
X619968Y416520D01*
X619924Y416634D01*
X619884Y416749D01*
X619847Y416866D01*
X619815Y416984D01*
X619786Y417102D01*
X619760Y417222D01*
X619739Y417342D01*
X619721Y417463D01*
X619708Y417584D01*
X619698Y417706D01*
X619692Y417828D01*
X619690Y417950D01*
X619692Y418072D01*
X619698Y418194D01*
X619708Y418316D01*
X619721Y418437D01*
X619739Y418558D01*
X619760Y418678D01*
X619786Y418798D01*
X619815Y418916D01*
X619847Y419034D01*
X619884Y419151D01*
X619924Y419266D01*
X619968Y419380D01*
X620016Y419492D01*
X620067Y419603D01*
X620122Y419712D01*
X620180Y419820D01*
X620242Y419925D01*
X620307Y420028D01*
X620375Y420130D01*
X620447Y420229D01*
X620521Y420325D01*
X620599Y420420D01*
X620680Y420511D01*
X620763Y420601D01*
X620849Y420687D01*
X620939Y420770D01*
X621030Y420851D01*
X621125Y420929D01*
X621221Y421003D01*
X621320Y421075D01*
X621422Y421143D01*
X621525Y421208D01*
X621630Y421270D01*
X621738Y421328D01*
X621847Y421383D01*
X621958Y421434D01*
X622070Y421482D01*
X622184Y421526D01*
X622299Y421566D01*
X622416Y421603D01*
X622534Y421635D01*
X622652Y421664D01*
X622772Y421690D01*
X622892Y421711D01*
X623013Y421729D01*
X623134Y421742D01*
X623256Y421752D01*
X623378Y421758D01*
X623500Y421760D01*
D14*
X542655Y563089D02*
X542655Y580615D01*
X547523Y580615D01*
X547661Y580613D01*
X547798Y580607D01*
X547936Y580597D01*
X548073Y580584D01*
X548210Y580566D01*
X548346Y580545D01*
X548481Y580520D01*
X548616Y580491D01*
X548750Y580458D01*
X548882Y580421D01*
X549014Y580381D01*
X549145Y580337D01*
X549274Y580289D01*
X549402Y580238D01*
X549528Y580183D01*
X549653Y580124D01*
X549776Y580062D01*
X549897Y579997D01*
X550016Y579928D01*
X550134Y579856D01*
X550249Y579780D01*
X550362Y579701D01*
X550473Y579620D01*
X550581Y579534D01*
X550687Y579446D01*
X550791Y579355D01*
X550891Y579261D01*
X550989Y579165D01*
X551085Y579065D01*
X551177Y578963D01*
X551267Y578858D01*
X551353Y578751D01*
X551437Y578642D01*
X551517Y578530D01*
X551594Y578416D01*
X551668Y578299D01*
X551739Y578181D01*
X551806Y578061D01*
X551870Y577939D01*
X551930Y577815D01*
X551987Y577689D01*
X552040Y577562D01*
X552090Y577434D01*
X552135Y577304D01*
X552178Y577172D01*
X552216Y577040D01*
X552251Y576907D01*
X552282Y576773D01*
X552309Y576638D01*
X552332Y576502D01*
X552352Y576365D01*
X552367Y576228D01*
X552379Y576091D01*
X552387Y575954D01*
X552391Y575816D01*
X552391Y575678D01*
X552387Y575540D01*
X552379Y575403D01*
X552367Y575266D01*
X552352Y575129D01*
X552332Y574992D01*
X552309Y574856D01*
X552282Y574721D01*
X552251Y574587D01*
X552216Y574454D01*
X552178Y574322D01*
X552135Y574190D01*
X552090Y574060D01*
X552040Y573932D01*
X551987Y573805D01*
X551930Y573679D01*
X551870Y573555D01*
X551806Y573433D01*
X551739Y573313D01*
X551668Y573195D01*
X551594Y573078D01*
X551517Y572964D01*
X551437Y572852D01*
X551353Y572743D01*
X551267Y572636D01*
X551177Y572531D01*
X551085Y572429D01*
X550989Y572329D01*
X550891Y572233D01*
X550791Y572139D01*
X550687Y572048D01*
X550581Y571960D01*
X550473Y571874D01*
X550362Y571793D01*
X550249Y571714D01*
X550134Y571638D01*
X550016Y571566D01*
X549897Y571497D01*
X549776Y571432D01*
X549653Y571370D01*
X549528Y571311D01*
X549402Y571256D01*
X549274Y571205D01*
X549145Y571157D01*
X549014Y571113D01*
X548882Y571073D01*
X548750Y571036D01*
X548616Y571003D01*
X548481Y570974D01*
X548346Y570949D01*
X548210Y570928D01*
X548073Y570910D01*
X547936Y570897D01*
X547798Y570887D01*
X547661Y570881D01*
X547523Y570879D01*
X547523Y570878D02*
X542655Y570878D01*
X559187Y563089D02*
X559187Y580615D01*
X564055Y580615D01*
X564192Y580613D01*
X564328Y580607D01*
X564464Y580598D01*
X564600Y580584D01*
X564735Y580567D01*
X564870Y580546D01*
X565005Y580521D01*
X565138Y580493D01*
X565271Y580461D01*
X565403Y580425D01*
X565533Y580385D01*
X565663Y580342D01*
X565791Y580295D01*
X565918Y580244D01*
X566043Y580190D01*
X566167Y580133D01*
X566289Y580072D01*
X566410Y580008D01*
X566528Y579940D01*
X566645Y579869D01*
X566760Y579795D01*
X566872Y579717D01*
X566982Y579637D01*
X567090Y579553D01*
X567196Y579466D01*
X567299Y579377D01*
X567399Y579284D01*
X567497Y579189D01*
X567592Y579091D01*
X567685Y578991D01*
X567774Y578888D01*
X567861Y578782D01*
X567945Y578674D01*
X568025Y578564D01*
X568103Y578452D01*
X568177Y578337D01*
X568248Y578220D01*
X568316Y578102D01*
X568380Y577981D01*
X568441Y577859D01*
X568498Y577735D01*
X568552Y577610D01*
X568603Y577483D01*
X568650Y577355D01*
X568693Y577225D01*
X568733Y577095D01*
X568769Y576963D01*
X568801Y576830D01*
X568829Y576697D01*
X568854Y576562D01*
X568875Y576427D01*
X568892Y576292D01*
X568906Y576156D01*
X568915Y576020D01*
X568921Y575884D01*
X568923Y575747D01*
X568924Y575747D02*
X568924Y567957D01*
X568923Y567957D02*
X568921Y567820D01*
X568915Y567684D01*
X568906Y567548D01*
X568892Y567412D01*
X568875Y567277D01*
X568854Y567142D01*
X568829Y567007D01*
X568801Y566874D01*
X568769Y566741D01*
X568733Y566609D01*
X568693Y566479D01*
X568650Y566349D01*
X568603Y566221D01*
X568552Y566094D01*
X568498Y565969D01*
X568441Y565845D01*
X568380Y565723D01*
X568316Y565602D01*
X568248Y565484D01*
X568177Y565367D01*
X568103Y565252D01*
X568025Y565140D01*
X567945Y565030D01*
X567861Y564922D01*
X567774Y564816D01*
X567685Y564713D01*
X567592Y564613D01*
X567497Y564515D01*
X567399Y564420D01*
X567299Y564327D01*
X567196Y564238D01*
X567090Y564151D01*
X566982Y564067D01*
X566872Y563987D01*
X566760Y563909D01*
X566645Y563835D01*
X566528Y563764D01*
X566410Y563696D01*
X566289Y563632D01*
X566167Y563571D01*
X566043Y563514D01*
X565918Y563460D01*
X565791Y563409D01*
X565663Y563362D01*
X565533Y563319D01*
X565403Y563279D01*
X565271Y563243D01*
X565138Y563211D01*
X565005Y563183D01*
X564870Y563158D01*
X564735Y563137D01*
X564600Y563120D01*
X564464Y563106D01*
X564328Y563097D01*
X564192Y563091D01*
X564055Y563089D01*
X559187Y563089D01*
X575522Y563089D02*
X581364Y580615D01*
X587206Y563089D01*
X585745Y567471D02*
X576982Y567471D01*
X593836Y563089D02*
X593836Y580615D01*
X593836Y563089D02*
X601626Y563089D01*
D13*
X413600Y422060D02*
X413722Y422058D01*
X413844Y422052D01*
X413966Y422042D01*
X414087Y422029D01*
X414208Y422011D01*
X414328Y421990D01*
X414448Y421964D01*
X414566Y421935D01*
X414684Y421903D01*
X414801Y421866D01*
X414916Y421826D01*
X415030Y421782D01*
X415142Y421734D01*
X415253Y421683D01*
X415362Y421628D01*
X415470Y421570D01*
X415575Y421508D01*
X415678Y421443D01*
X415780Y421375D01*
X415879Y421303D01*
X415975Y421229D01*
X416070Y421151D01*
X416161Y421070D01*
X416251Y420987D01*
X416337Y420901D01*
X416420Y420811D01*
X416501Y420720D01*
X416579Y420625D01*
X416653Y420529D01*
X416725Y420430D01*
X416793Y420328D01*
X416858Y420225D01*
X416920Y420120D01*
X416978Y420012D01*
X417033Y419903D01*
X417084Y419792D01*
X417132Y419680D01*
X417176Y419566D01*
X417216Y419451D01*
X417253Y419334D01*
X417285Y419216D01*
X417314Y419098D01*
X417340Y418978D01*
X417361Y418858D01*
X417379Y418737D01*
X417392Y418616D01*
X417402Y418494D01*
X417408Y418372D01*
X417410Y418250D01*
X417408Y418128D01*
X417402Y418006D01*
X417392Y417884D01*
X417379Y417763D01*
X417361Y417642D01*
X417340Y417522D01*
X417314Y417402D01*
X417285Y417284D01*
X417253Y417166D01*
X417216Y417049D01*
X417176Y416934D01*
X417132Y416820D01*
X417084Y416708D01*
X417033Y416597D01*
X416978Y416488D01*
X416920Y416380D01*
X416858Y416275D01*
X416793Y416172D01*
X416725Y416070D01*
X416653Y415971D01*
X416579Y415875D01*
X416501Y415780D01*
X416420Y415689D01*
X416337Y415599D01*
X416251Y415513D01*
X416161Y415430D01*
X416070Y415349D01*
X415975Y415271D01*
X415879Y415197D01*
X415780Y415125D01*
X415678Y415057D01*
X415575Y414992D01*
X415470Y414930D01*
X415362Y414872D01*
X415253Y414817D01*
X415142Y414766D01*
X415030Y414718D01*
X414916Y414674D01*
X414801Y414634D01*
X414684Y414597D01*
X414566Y414565D01*
X414448Y414536D01*
X414328Y414510D01*
X414208Y414489D01*
X414087Y414471D01*
X413966Y414458D01*
X413844Y414448D01*
X413722Y414442D01*
X413600Y414440D01*
X413478Y414442D01*
X413356Y414448D01*
X413234Y414458D01*
X413113Y414471D01*
X412992Y414489D01*
X412872Y414510D01*
X412752Y414536D01*
X412634Y414565D01*
X412516Y414597D01*
X412399Y414634D01*
X412284Y414674D01*
X412170Y414718D01*
X412058Y414766D01*
X411947Y414817D01*
X411838Y414872D01*
X411730Y414930D01*
X411625Y414992D01*
X411522Y415057D01*
X411420Y415125D01*
X411321Y415197D01*
X411225Y415271D01*
X411130Y415349D01*
X411039Y415430D01*
X410949Y415513D01*
X410863Y415599D01*
X410780Y415689D01*
X410699Y415780D01*
X410621Y415875D01*
X410547Y415971D01*
X410475Y416070D01*
X410407Y416172D01*
X410342Y416275D01*
X410280Y416380D01*
X410222Y416488D01*
X410167Y416597D01*
X410116Y416708D01*
X410068Y416820D01*
X410024Y416934D01*
X409984Y417049D01*
X409947Y417166D01*
X409915Y417284D01*
X409886Y417402D01*
X409860Y417522D01*
X409839Y417642D01*
X409821Y417763D01*
X409808Y417884D01*
X409798Y418006D01*
X409792Y418128D01*
X409790Y418250D01*
X409792Y418372D01*
X409798Y418494D01*
X409808Y418616D01*
X409821Y418737D01*
X409839Y418858D01*
X409860Y418978D01*
X409886Y419098D01*
X409915Y419216D01*
X409947Y419334D01*
X409984Y419451D01*
X410024Y419566D01*
X410068Y419680D01*
X410116Y419792D01*
X410167Y419903D01*
X410222Y420012D01*
X410280Y420120D01*
X410342Y420225D01*
X410407Y420328D01*
X410475Y420430D01*
X410547Y420529D01*
X410621Y420625D01*
X410699Y420720D01*
X410780Y420811D01*
X410863Y420901D01*
X410949Y420987D01*
X411039Y421070D01*
X411130Y421151D01*
X411225Y421229D01*
X411321Y421303D01*
X411420Y421375D01*
X411522Y421443D01*
X411625Y421508D01*
X411730Y421570D01*
X411838Y421628D01*
X411947Y421683D01*
X412058Y421734D01*
X412170Y421782D01*
X412284Y421826D01*
X412399Y421866D01*
X412516Y421903D01*
X412634Y421935D01*
X412752Y421964D01*
X412872Y421990D01*
X412992Y422011D01*
X413113Y422029D01*
X413234Y422042D01*
X413356Y422052D01*
X413478Y422058D01*
X413600Y422060D01*
D14*
X331355Y564689D02*
X331355Y582215D01*
X337197Y572478D01*
X343039Y582215D01*
X343039Y564689D01*
X354609Y564689D02*
X358504Y564689D01*
X354609Y564689D02*
X354487Y564691D01*
X354364Y564697D01*
X354242Y564706D01*
X354121Y564720D01*
X354000Y564737D01*
X353879Y564758D01*
X353759Y564783D01*
X353640Y564811D01*
X353522Y564844D01*
X353405Y564880D01*
X353290Y564919D01*
X353175Y564963D01*
X353062Y565009D01*
X352951Y565060D01*
X352841Y565114D01*
X352733Y565171D01*
X352626Y565231D01*
X352522Y565295D01*
X352420Y565363D01*
X352320Y565433D01*
X352222Y565506D01*
X352126Y565583D01*
X352033Y565662D01*
X351943Y565745D01*
X351855Y565830D01*
X351770Y565918D01*
X351687Y566008D01*
X351608Y566101D01*
X351531Y566197D01*
X351458Y566295D01*
X351388Y566395D01*
X351320Y566497D01*
X351256Y566601D01*
X351196Y566708D01*
X351139Y566816D01*
X351085Y566926D01*
X351034Y567037D01*
X350988Y567150D01*
X350944Y567265D01*
X350905Y567380D01*
X350869Y567497D01*
X350836Y567615D01*
X350808Y567734D01*
X350783Y567854D01*
X350762Y567975D01*
X350745Y568096D01*
X350731Y568217D01*
X350722Y568339D01*
X350716Y568462D01*
X350714Y568584D01*
X350714Y578320D01*
X350716Y578442D01*
X350722Y578565D01*
X350731Y578687D01*
X350745Y578808D01*
X350762Y578929D01*
X350783Y579050D01*
X350808Y579170D01*
X350836Y579289D01*
X350869Y579407D01*
X350905Y579524D01*
X350944Y579639D01*
X350988Y579754D01*
X351034Y579867D01*
X351085Y579978D01*
X351139Y580088D01*
X351196Y580196D01*
X351256Y580303D01*
X351320Y580407D01*
X351388Y580509D01*
X351458Y580609D01*
X351531Y580707D01*
X351608Y580803D01*
X351687Y580896D01*
X351770Y580986D01*
X351855Y581074D01*
X351943Y581159D01*
X352033Y581242D01*
X352126Y581321D01*
X352222Y581398D01*
X352320Y581471D01*
X352420Y581541D01*
X352522Y581609D01*
X352626Y581673D01*
X352733Y581733D01*
X352841Y581790D01*
X352951Y581844D01*
X353062Y581895D01*
X353175Y581941D01*
X353290Y581985D01*
X353405Y582024D01*
X353522Y582060D01*
X353640Y582093D01*
X353759Y582121D01*
X353879Y582146D01*
X354000Y582167D01*
X354121Y582184D01*
X354242Y582198D01*
X354364Y582207D01*
X354487Y582213D01*
X354609Y582215D01*
X358504Y582215D01*
X365271Y582215D02*
X365271Y564689D01*
X365271Y574426D02*
X375008Y574426D01*
X375008Y582215D02*
X375008Y564689D01*
X383138Y564689D02*
X383138Y582215D01*
X392875Y564689D01*
X392875Y582215D01*
D15*
X230000Y425000D02*
X245000Y410000D01*
X693000Y410000D01*
X693000Y536500D01*
X655000Y536500D01*
X655000Y635000D01*
X270000Y635000D01*
X270000Y562500D01*
X230000Y562500D01*
X230000Y425000D01*
M02*
