%
M48
M72
T01C0.0120
T02C0.0160
T03C0.0295
T04C0.0320
T05C0.0350
T06C0.0400
T07C0.0866
T08C0.0900
T09C0.1220
%
T01
X10680Y8573
X10980Y8773
X10580Y11273
X11280Y12273
X11680Y12373
X12580Y12373
X15080Y11773
X15480Y11473
X15680Y13373
X15280Y13473
X18900Y13413
X20100Y13093
X23580Y13673
X24180Y13573
X21380Y15673
X20880Y15673
X17980Y17773
X19280Y18173
X21280Y18073
X24480Y16873
X24580Y16513
X27180Y17473
X28520Y15093
X29980Y13673
X31260Y13553
X32660Y14373
X33580Y13973
X33280Y13773
X34070Y13983
X34480Y13973
X35180Y13953
X35180Y13613
X35180Y13273
X35180Y12923
X34480Y12523
X34680Y12073
X35280Y11673
X34880Y10573
X32060Y10733
X31420Y10713
X30530Y11223
X31730Y11723
X33380Y13073
X34180Y14973
X34530Y14973
X35000Y15593
X34780Y16273
X34280Y16273
X33180Y15973
X32780Y15973
X32260Y15473
X28720Y12193
X27760Y10693
X27140Y9773
X31140Y8613
X32420Y8133
X33980Y6373
X30180Y3073
X7480Y11223
X6980Y14373
X6030Y15673
X5730Y15673
X5430Y15673
X5530Y15973
X5830Y15973
X6130Y15973
X6030Y16273
X5730Y16273
X5430Y16273
X5530Y16573
X5830Y16573
X6130Y16573
X4080Y15973
X4880Y14973
T02
X3780Y14193
X2780Y15073
X530Y13773
X580Y12273
X2880Y11423
X4680Y11073
X5380Y10573
X7080Y9923
X7530Y10173
X8780Y11173
X9480Y11073
X9430Y10273
X11030Y10173
X11080Y11073
X13280Y12373
X13780Y13373
X16080Y12473
X17620Y12133
X17620Y10533
X18980Y10533
X19670Y10273
X20680Y9923
X20550Y10913
X22220Y10953
X23030Y11473
X22440Y12013
X22780Y12773
X23780Y14323
X23440Y14693
X25130Y14823
X26680Y15373
X28630Y15523
X30480Y15573
X32280Y17023
X31130Y17123
X29730Y17723
X29080Y18373
X27980Y17873
X26980Y18073
X26580Y17773
X23180Y16973
X22380Y17073
X21630Y16373
X26680Y13603
X27830Y13823
X29430Y13513
X30430Y13103
X31640Y13353
X32980Y12923
X32910Y12223
X34030Y11723
X34880Y11673
X36280Y11073
X35330Y10323
X37680Y9573
X37630Y8773
X34380Y7123
X32880Y5773
X31930Y6973
X30180Y8273
X28420Y9413
X29880Y9813
X30980Y10773
X26740Y11493
X25520Y11243
X22230Y9873
X13480Y14973
X15180Y15373
X14080Y16123
X12580Y16123
X9710Y15223
X9280Y14073
X8030Y13823
X6980Y13073
X880Y10473
X6480Y8423
X8680Y8473
X9480Y8673
X9630Y5723
X2930Y6623
X2730Y17573
X3940Y19213
X4320Y19173
X4760Y19373
X5080Y19613
X4240Y20333
X3960Y20013
X3960Y19633
X5550Y18673
X7780Y17853
X10120Y19033
X10400Y19133
X10420Y19473
X10120Y19333
X10140Y19653
X10440Y19793
X10460Y20113
X10160Y19993
X9900Y20273
X10200Y20433
X10300Y20773
X10060Y20993
X9820Y21193
X9460Y21193
X9080Y21193
X8700Y21173
X8380Y21153
X6900Y21193
X6400Y21173
X5940Y21153
X5420Y21133
X5080Y21133
X4820Y20913
X4580Y20693
X9920Y20673
X10600Y20473
X10940Y20473
X11280Y20473
X11620Y20473
X11960Y20473
X12300Y20453
X12160Y20753
X11780Y20793
X11380Y20813
X11020Y20813
X10660Y20813
X10440Y21173
X10980Y21213
X11560Y21213
X12140Y21153
X12640Y20613
X12580Y20253
X12980Y20213
X12940Y19793
X12620Y19893
X12720Y19513
X13040Y19453
X13020Y19073
X12700Y19193
X12680Y18853
X12980Y18733
X12660Y18513
X12960Y18373
X12760Y18073
X12460Y18233
X12120Y18113
X11820Y18033
X11500Y18033
X11180Y18033
X10380Y18813
X12380Y17933
X32780Y20573
X34180Y20573
X34880Y18823
X37410Y17773
X33580Y13473
X37630Y4273
X35580Y4073
X35100Y3613
X32880Y2493
X32600Y1673
X33920Y1523
X32380Y3373
X29920Y1673
T03
X9030Y5623
X9220Y6338
X6280Y9223
X6230Y10773
X12680Y11173
X12680Y10323
X19800Y10863
X24630Y11773
X25430Y16523
X26480Y16523
X37280Y10373
X37380Y6873
X7720Y20973
T04
X24645Y19603
X25645Y19603
X25600Y10173
X26600Y10173
X17040Y10173
X16040Y10173
T05
X1930Y8143
T06
X3895Y5993
X4995Y5993
X7140Y6008
X8240Y6008
X11230Y7973
X30480Y4823
X31088Y5874
X31088Y6874
X31088Y7874
X36788Y7874
X36788Y5874
X30480Y3723
X37280Y11373
X37280Y12373
X37280Y13373
X37280Y14373
X37280Y15373
X37280Y16373
X29380Y19573
X28380Y19573
X27380Y19573
X27380Y20573
X28380Y20573
X29380Y20573
X21783Y19796
X20783Y19796
X19783Y19796
X18783Y19796
X17783Y19796
X16783Y19796
X15783Y19796
T07
X14240Y19536
X23374Y19536
X23374Y10206
X14240Y10206
T08
X34038Y9474
X34038Y4274
T09
X36826Y2055
X36038Y18591
X2180Y18591
X1393Y6386
M30
